%FSTAX23Y23*%
%MOIN*%
%SFA1B1*%

%IPPOS*%
%ADD87C,0.017700*%
%LNleft_board-1*%
%LPD*%
G36*
X02592Y04524D02*
X02593Y04524D01*
X02593Y04524*
X02595*
X02597Y04519*
X02592Y04512*
X02591Y04503*
X02592Y04495*
X02597Y04487*
X02605Y04482*
X02614Y0448*
X02623Y04482*
X0263Y04487*
X02635Y04495*
X02637Y04503*
X02635Y04512*
X02631Y04519*
X02632Y04524*
X02687*
X03487*
X0349Y04524*
X03495Y04522*
X035Y0452*
X03504Y04517*
X03508Y04513*
X03511Y04509*
X03513Y04504*
X03514Y04499*
X03515Y04496*
Y03842*
X03439*
X03435Y03842*
X0343Y03841*
X0343Y03841*
X03429Y03841*
X03425Y03839*
X03421Y03841*
X0342Y03841*
X03419Y03841*
X03419Y03841*
X03276Y03984*
X03267Y03991*
X03258Y03995*
X03248Y03996*
X03178*
X03175Y04001*
X03176Y04007*
X03174Y04016*
X03169Y04024*
X03168Y04025*
X03168Y04031*
X03173Y04034*
X03178Y04042*
X0318Y04051*
X03178Y0406*
X03173Y04067*
X03166Y04072*
X03157Y04074*
X03148Y04072*
X03141Y04067*
X03136Y0406*
X03134Y04051*
X03136Y04042*
X03141Y04034*
X03143Y04033*
X03142Y04027*
X03137Y04024*
X03132Y04016*
X0313Y04007*
X03131Y04001*
X03128Y03996*
X02875*
X02873Y04004*
X02868Y04012*
X02861Y04017*
X02852Y04018*
X02843Y04017*
X02836Y04012*
X02831Y04004*
X02829Y03996*
X02812*
X0281Y04004*
X02805Y04012*
X02798Y04017*
X02789Y04018*
X0278Y04017*
X02773Y04012*
X02768Y04004*
X02766Y03996*
X02753*
X02752Y04001*
X02747Y04009*
X02739Y04014*
X0273Y04015*
X02722Y04014*
X02714Y04009*
X02709Y04001*
X02708Y03996*
X027*
X0269Y03995*
X0268Y03991*
X02672Y03984*
X02633Y03945*
X02627Y03937*
X02623Y03927*
X02621Y03917*
Y03835*
X02616Y03832*
X02611Y03836*
X02602Y03838*
X02593Y03836*
X02586Y03831*
X02581Y03823*
X02579Y03815*
X02581Y03806*
X02586Y03798*
X02593Y03793*
X02602Y03791*
X02611Y03793*
X02616Y03797*
X02621Y03794*
Y03776*
X02616Y03773*
X02611Y03777*
X02602Y03779*
X02593Y03777*
X02586Y03772*
X02581Y03764*
X02579Y03755*
X02581Y03747*
X02586Y03739*
X02593Y03734*
X02602Y03732*
X02611Y03734*
X02616Y03738*
X02621Y03735*
Y03711*
X02617Y03709*
X02616Y03709*
X02608Y03711*
X02599Y03709*
X02591Y03704*
X02586Y03696*
X02585Y03688*
X02586Y03679*
X02591Y03671*
X02599Y03666*
X02608Y03664*
X02616Y03666*
X02617Y03666*
X02621Y03664*
Y03631*
X02616Y0363*
X02608Y03625*
X02603Y03618*
X02601Y03609*
X02603Y036*
X02608Y03592*
X02616Y03587*
X02625Y03586*
X02633Y03587*
X02641Y03592*
X02642Y03593*
X02676Y03558*
Y0327*
X02672Y03267*
X0267Y03269*
X02661Y03271*
X02652Y03269*
X02645Y03264*
X0264Y03256*
X02638Y03248*
X0264Y03239*
X02645Y03231*
X02652Y03226*
X02661Y03225*
X0267Y03226*
X02672Y03228*
X02676Y03225*
Y02865*
X02676Y02865*
X02675Y02863*
X02673Y02854*
X02675Y02845*
X02676Y02843*
X02676Y02843*
Y02727*
X02676Y02727*
X02675Y02725*
X02673Y02716*
X02675Y02707*
X02676Y02705*
X02676Y02705*
Y02432*
X02676Y02432*
X02675Y0243*
X02673Y02421*
X02675Y02412*
X02676Y0241*
X02676Y0241*
Y02354*
X02678Y02344*
X02682Y02334*
X02688Y02326*
X02704Y0231*
X02702Y02305*
X02696Y02306*
X02688Y02304*
X0268Y02299*
X02675Y02292*
X02673Y02283*
X02675Y02274*
X0268Y02267*
X02688Y02262*
X02696Y0226*
X02705Y02262*
X02713Y02267*
X02718Y02274*
X02719Y02283*
X02718Y02288*
X02723Y02291*
X02771Y02243*
X02779Y02237*
X02788Y02233*
X02799Y02231*
X03283*
Y02134*
X03278Y02134*
X03277Y02138*
X03272Y02146*
X03264Y02151*
X03255Y02153*
X03247Y02151*
X03239Y02146*
X03234Y02138*
X03232Y02129*
X03234Y02121*
X03239Y02113*
X03247Y02108*
X03255Y02106*
X03264Y02108*
X03272Y02113*
X03277Y02121*
X03278Y02127*
X03283Y02127*
Y02126*
X03283Y02122*
X03284Y02121*
X03284Y0212*
X03286Y02116*
X03287Y02113*
X03287Y02111*
X03288Y02111*
X03287Y02111*
X03289Y02102*
X03293Y02096*
X03289Y0209*
X03287Y02081*
X03289Y02072*
X03294Y02065*
X03289Y02058*
X03287Y02049*
X03289Y0204*
X03294Y02032*
X03302Y02027*
X03307Y02026*
X03307Y02025*
X03308Y02021*
X03306Y02016*
X03306Y02005*
X03307Y02*
X03305Y01993*
X03307Y01984*
X03311Y01978*
Y01977*
X03312Y01975*
X03312Y01972*
X03313Y0197*
X03314Y01967*
X03316Y01965*
X03316Y01964*
X03315Y01963*
X03314Y01961*
X03313Y01958*
X03312Y01957*
X03311Y01956*
X03306Y01948*
X03304Y0194*
X033Y01937*
X03145*
X03143Y01937*
X03141*
X03138Y01936*
X03135Y01936*
X03133Y01935*
X03131Y01934*
X03128Y01933*
X03125Y01932*
X03124Y0193*
X03122Y01929*
X03119Y01927*
X03117Y01925*
X03116Y01924*
X03114Y01922*
X03113Y0192*
X03111Y01919*
X03108*
X03107Y0192*
X03105Y01922*
X03104Y01924*
X03103Y01925*
X031Y01927*
X03098Y01929*
X03096Y0193*
X03094Y01932*
X03092Y01933*
X03089Y01934*
X03087Y01935*
X03085Y01936*
X03082Y01936*
X03079Y01937*
X03077*
X03074Y01937*
X03068*
X03066Y01937*
X03064Y01937*
X03061Y01936*
X03058Y01936*
X03056Y01935*
X03054Y01934*
X03051Y01933*
X03048Y01932*
X03047Y0193*
X03045Y01929*
X03043Y01927*
X03041Y01929*
X03039Y0193*
X03037Y01932*
X03034Y01933*
X03031Y01934*
X03029Y01935*
X03028Y01936*
X03024Y01936*
X03021Y01937*
X03019Y01937*
X03017Y01937*
X02987*
Y01941*
X02987Y01943*
Y01946*
X02986Y01948*
X02986Y01951*
X02985Y01953*
X02984Y01956*
X02981Y01963*
X02979Y01965*
X02978Y01968*
X02977Y0197*
X02976Y01972*
X02974Y01974*
X02972Y01976*
X02967Y01982*
X02964Y01983*
X02963Y01985*
X0296Y01986*
X02958Y01988*
X02956Y01989*
X02954Y0199*
X02946Y01993*
X02944Y01994*
X02941Y01995*
X02939Y01995*
X02936Y01996*
X02934*
X02931Y01996*
X02915*
X02915Y02001*
X0291Y02008*
X02902Y02013*
X02893Y02015*
X02884Y02013*
X02877Y02008*
X02872Y02001*
X02871Y01996*
X0286*
X02856Y02001*
X02857Y02007*
X02856Y02016*
X02851Y02024*
X02843Y02029*
X02834Y02031*
X02825Y02029*
X02818Y02024*
X02813Y02016*
X02811Y02007*
X02812Y02001*
X02809Y01996*
X02722*
X02718Y02001*
X02719Y02007*
X02718Y02016*
X02713Y02024*
X02705Y02029*
X02696Y02031*
X02688Y02029*
X0268Y02024*
X02675Y02016*
X02673Y02007*
X02675Y02001*
X02671Y01996*
X02593*
X02589*
X02587Y01996*
X02584*
X02583Y01996*
X0258Y02*
X02582Y02007*
X0258Y02016*
X02575Y02024*
X02567Y02029*
X02559Y02031*
X0255Y02029*
X02542Y02024*
X02537Y02016*
X02536Y02007*
X02537Y01999*
X02542Y01991*
X0255Y01986*
X02551Y01986*
X02552Y01985*
X02552Y0198*
X02548Y01976*
X02547Y01974*
X02545Y01972*
X02543Y0197*
X02542Y01968*
X02541Y01965*
X02539Y01963*
X02536Y01956*
X02536Y01953*
X02535Y01951*
X02534Y01948*
X02534Y01946*
Y01943*
X02533Y01941*
Y0194*
X0253Y01937*
X02399*
X02397Y01937*
X02395Y01937*
X02392Y01936*
X02389Y01936*
X02387Y01935*
X02385Y01934*
X02382Y01933*
X02379Y01932*
X02378Y0193*
X02376Y01929*
X02374Y01927*
X02371Y01929*
X0237Y0193*
X02368Y01932*
X02365Y01933*
X02362Y01934*
X0236Y01935*
X02358Y01936*
X02355Y01936*
X02352Y01937*
X0235Y01937*
X02348Y01937*
X02314*
X02312Y01942*
X0232Y01948*
X0232Y01948*
X02321Y01949*
X02333Y01962*
X02334Y01962*
X02334Y01963*
X02345Y01978*
X02345Y01978*
X02345Y01979*
X02353Y01995*
X02353Y01996*
X02354Y01996*
X02359Y02013*
X02359Y02014*
X02359Y02015*
X02362Y02033*
X02362Y02033*
X02362Y02034*
X02362Y02052*
X02362Y02053*
Y02054*
X02359Y02071*
X02359Y02072*
X02359Y02073*
X02354Y0209*
X02353Y02091*
X02353Y02091*
X02345Y02107*
X02345Y02108*
X02344Y02109*
X02334Y02123*
X02334Y02124*
X02333Y02125*
X02321Y02138*
X0232Y02138*
X0232Y02139*
X02306Y0215*
X02305Y0215*
X02304Y0215*
X02289Y02159*
X02288Y02159*
X02287Y0216*
X0227Y02166*
X0227Y02166*
X02269Y02166*
X02251Y0217*
X02251*
X0225Y0217*
X02241Y02171*
X02241*
X02241Y02171*
X02234Y02171*
X0222Y02175*
X02207Y0218*
X02196Y02189*
X02186Y02199*
X02178Y02211*
X02173Y02224*
X0217Y02237*
Y02245*
X02169Y02759*
Y02762*
X02171Y02766*
X02175Y0277*
X0218Y02772*
X02182Y02772*
X02182*
X0243*
X02431Y02772*
X02431*
X02436Y02772*
X02437Y02772*
X02437*
X02447Y02774*
X02448Y02774*
X02449Y02775*
X02458Y02778*
X02459Y02779*
X0246Y02779*
X02468Y02785*
X02469Y02785*
X02469Y02786*
X02476Y02793*
X02477Y02794*
X02478Y02795*
X02483Y02803*
X02483Y02804*
X02484Y02804*
X02488Y02813*
X02488Y02814*
X02488Y02815*
X0249Y02825*
Y02826*
X0249Y02826*
X02491Y02831*
Y02832*
Y02832*
Y03161*
Y03161*
Y03162*
X0249Y03167*
X0249Y03167*
Y03168*
X02488Y03178*
X02488Y03179*
X02488Y0318*
X02484Y03189*
X02483Y0319*
X02483Y0319*
X02478Y03199*
X02477Y03199*
X02476Y032*
X02469Y03207*
X02469Y03208*
X02468Y03208*
X0246Y03214*
X02459Y03214*
X02458Y03215*
X02449Y03218*
X02448Y03219*
X02447Y03219*
X02437Y03221*
X02437*
X02436Y03221*
X02431Y03221*
X02431*
X0243*
X0221*
X02206*
X02198Y03223*
X02191Y03226*
X02184Y0323*
X02179Y03236*
X02174Y03242*
X02171Y0325*
X0217Y03257*
X0217Y03261*
Y03261*
Y03261*
X02169Y03884*
Y03889*
X02171Y03898*
X02174Y03906*
X02179Y03914*
X02186Y0392*
X02193Y03925*
X02202Y03929*
X02211Y03931*
X02215*
X02264Y03931*
X02264*
X02264*
X02274Y03931*
X02275Y03931*
X02276*
X02296Y03934*
X02297Y03934*
X02298Y03934*
X02318Y03941*
X02318Y03941*
X02319Y03942*
X02337Y03952*
X02338Y03952*
X02339Y03953*
X02355Y03966*
X02356Y03966*
X02356Y03967*
X0237Y03982*
X0237Y03983*
X02371Y03984*
X02382Y04001*
X02382Y04002*
X02383Y04003*
X0239Y04022*
X0239Y04023*
X02391Y04024*
X02395Y04044*
Y04045*
X02395Y04046*
X02395Y04067*
X02395Y04068*
Y04069*
X02392Y04089*
X02392Y0409*
X02391Y04091*
X02385Y0411*
X02384Y04111*
X02384Y04112*
X0238Y04121*
X02379Y04121*
X02379Y04121*
X02364Y04148*
X02364Y04149*
X02364Y04149*
X02359Y04156*
X02352Y04172*
X02347Y04189*
X02345Y04207*
X02345Y04215*
Y04216*
X02344Y04328*
X02349Y04332*
X02354Y04331*
X02363Y04333*
X0237Y04338*
X02375Y04345*
X02377Y04354*
X02375Y04363*
X0237Y0437*
X02363Y04375*
X02354Y04377*
X02351Y04376*
X02349Y04378*
X02348Y04381*
X02351Y04388*
X02355Y04396*
X0236Y04404*
X02366Y0441*
X02373Y04416*
X02377Y04418*
X02434Y04451*
X02435Y04451*
X0244Y04449*
X0244Y04443*
X02443Y04436*
X02448Y0443*
X02454Y04425*
X02461Y04422*
X02469Y04421*
X02477Y04422*
X02484Y04425*
X0249Y0443*
X02495Y04436*
X02498Y04443*
X02499Y04451*
X02498Y04459*
X02495Y04466*
X0249Y04472*
X02486Y04475*
X02485Y04478*
X02486Y04481*
X02537Y04511*
X02537Y04511*
X02537Y04511*
X02543Y04515*
X02557Y0452*
X02571Y04523*
X02585Y04525*
X02592Y04524*
G37*
G36*
X03401Y03803D02*
X0341D01*
X03412Y03798*
X03408Y03795*
X03403Y03788*
X03402Y03779*
X03403Y0377*
X03408Y03763*
X03416Y03758*
X03425Y03756*
X03434Y03758*
X03441Y03763*
X03446Y0377*
X03448Y03779*
X03446Y03788*
X03441Y03795*
X03438Y03798*
X03439Y03803*
X03515*
Y02088*
X0351Y02084*
X03503Y02086*
X03495Y02084*
X03487Y02079*
X03482Y02071*
X0348Y02063*
X03482Y02054*
X03487Y02046*
X03495Y02041*
X03503Y02039*
X0351Y02041*
X03515Y02037*
Y01343*
X03514Y01341*
X03513Y01336*
X03511Y01331*
X03508Y01326*
X03504Y01322*
X03499Y01319*
X03495Y01317*
X03489Y01316*
X03487Y01316*
X03156Y01316*
X03152Y01321*
X03154Y01324*
X03155Y01333*
Y01368*
X03154Y01377*
X0315Y01385*
X03145Y01392*
X03138Y01398*
X0313Y01401*
X03121Y01402*
X03113*
X03105Y01401*
X03096Y01398*
X03089Y01392*
X03084Y01385*
X03081Y01377*
X03079Y01368*
Y01333*
X03081Y01324*
X03082Y01321*
X03079Y01316*
X0288*
X02877Y01321*
X02878Y01324*
X02879Y01333*
Y01368*
X02878Y01377*
X02875Y01385*
X02869Y01392*
X02862Y01398*
X02854Y01401*
X02845Y01402*
X02838*
X02834Y01402*
X02831Y01406*
X02832Y01408*
X02834Y01417*
X02832Y01426*
X02827Y01433*
X02819Y01438*
X02811Y0144*
X02802Y01438*
X02794Y01433*
X02789Y01426*
X02788Y01417*
X02783Y01416*
X02783*
X02783Y01416*
X02779Y01418*
X02782Y01416*
X02779Y01418*
X02778Y0142*
X02777Y01426*
X02772Y01433*
X02764Y01438*
X02755Y0144*
X02747Y01438*
X02739Y01433*
X02734Y01426*
X02732Y01417*
X02734Y01408*
X02739Y01401*
X02747Y01396*
X02755Y01394*
X0276Y01393*
X02762Y01384*
X02767Y01377*
X02774Y01372*
X02783Y0137*
X02792Y01372*
X02799Y01377*
X028Y01377*
X02804Y01372*
X02804Y01368*
Y01333*
X02805Y01324*
X02807Y01321*
X02803Y01316*
X02699*
X02699*
X02699*
X02679Y01316*
X02637Y01318*
X02596Y01324*
X02556Y01333*
X02517Y01346*
X02478Y01361*
X02461Y0137*
X02463Y01374*
X02464Y01374*
X02473Y01376*
X02478Y01379*
X02483Y01376*
X02492Y01374*
X02501Y01376*
X02505Y01379*
X0251Y01376*
X02519Y01374*
X02528Y01376*
X02536Y01381*
X02541Y01388*
X02542Y01397*
X02541Y01406*
X02537Y01411*
X02541Y01416*
X02542Y01425*
X02541Y01434*
X02537Y01439*
X02541Y01443*
X02542Y01452*
X02541Y01461*
X02537Y01466*
X02541Y01471*
X02542Y0148*
X02541Y01489*
X02537Y01494*
X02541Y01499*
X02542Y01507*
X02541Y01516*
X02536Y01524*
X02528Y01529*
X02519Y01531*
X0251Y01529*
X02505Y01525*
X02501Y01529*
X02492Y01531*
X02483Y01529*
X02475Y01524*
X0247Y01516*
X02469Y01507*
X0247Y01499*
X02474Y01494*
X0247Y01489*
X02469Y0148*
X0247Y01471*
X02474Y01466*
X0247Y01461*
X02469Y01452*
X02469Y01451*
X02465Y01448*
X02464Y01448*
X02455Y01446*
X0245Y01443*
X02445Y01446*
X02437Y01448*
X02428Y01446*
X02423Y01443*
X02418Y01446*
X02409Y01448*
X024Y01446*
X02393Y01441*
X02388Y01434*
X02386Y01425*
X02387Y0142*
X02382Y01417*
X02372Y01425*
X02356Y01438*
X02359Y01442*
X02366Y01441*
X02375Y01443*
X02382Y01448*
X02387Y01455*
X02389Y01464*
X02387Y01473*
X02384Y01478*
X02387Y01483*
X02389Y01492*
X02387Y01501*
X02384Y01505*
X02387Y0151*
X02389Y01519*
X02387Y01528*
X02382Y01536*
X02375Y01541*
X02366Y01542*
X02357Y01541*
X02352Y01537*
X02347Y01541*
X02338Y01542*
X02329Y01541*
X02324Y01537*
X02319Y01541*
X02311Y01542*
X02302Y01541*
X02294Y01536*
X02289Y01528*
X02287Y01519*
X02289Y01513*
X02284Y01511*
X02284Y01511*
X02259Y01545*
X02237Y0158*
X02218Y01616*
X02202Y01654*
X02189Y01694*
X02185Y0171*
X02189Y01715*
X02194Y01714*
X02203Y01715*
X02211Y0172*
X02216Y01728*
X02217Y01735*
X02218Y01737*
X02222Y01738*
X02227Y01737*
X02232Y01738*
X02236Y01737*
X02237Y01735*
X02238Y01728*
X02243Y0172*
X02251Y01715*
X02259Y01714*
X02268Y01715*
X02274Y0172*
X0228Y01719*
X02288Y01714*
X02297Y01713*
X02306Y01714*
X02313Y01719*
X02319Y01714*
X02328Y01713*
X02337Y01714*
X02345Y01719*
X0235Y01727*
X02351Y01736*
X0235Y01745*
X02345Y01752*
X02337Y01757*
X02328Y01759*
X02319Y01757*
X02313Y01752*
X02306Y01757*
X02297Y01759*
X02288Y01757*
X02282Y01753*
X02276Y01753*
X02268Y01758*
X02259Y0176*
X02255Y01759*
X0225Y0176*
X0225Y01763*
X02248Y01769*
X02243Y01777*
X02236Y01782*
X02227Y01783*
X02218Y01782*
X02211Y01777*
X02206Y01769*
X02204Y01763*
X02204Y0176*
X02199Y01759*
X02194Y0176*
X02186Y01758*
X02181Y01755*
X02175Y01757*
X02173Y01774*
X02169Y01816*
X02169Y01836*
Y01836*
X02169Y01844*
X02172Y01858*
X02177Y01872*
X02185Y01885*
X02195Y01895*
X02197Y01897*
X02348*
X02351Y01893*
X0235Y01889*
X02352Y0188*
X02357Y01874*
X02352Y01867*
X0235Y01858*
X02352Y01849*
X02357Y01841*
X02354Y01837*
X02354Y01838*
X02351Y0184*
X02342Y01842*
X02333Y0184*
X02326Y01835*
X02321Y01827*
X02319Y01818*
X02321Y0181*
X02326Y01802*
X02333Y01797*
X02342Y01795*
X02351Y01797*
X02358Y01802*
X02363Y0181*
X02365Y01818*
X02363Y01827*
X02358Y01835*
X02361Y01839*
X02361Y01839*
X02365Y01836*
X02374Y01835*
X02382Y01836*
X0239Y01841*
X02395Y01849*
X02396Y01853*
X02401Y01854*
X02404Y01849*
X02412Y01844*
X02421Y01843*
X0243Y01844*
X02437Y01849*
X02442Y01857*
X02444Y01866*
X02442Y01875*
X02437Y01882*
X0243Y01887*
X02421Y01889*
X02412Y01887*
X02404Y01882*
X02399Y01875*
X02399Y0187*
X02393Y01869*
X0239Y01874*
X02395Y0188*
X02397Y01889*
X02396Y01893*
X02399Y01897*
X02559*
Y0176*
Y01756*
X0256Y01751*
X02563Y01743*
X02566Y01739*
X02572Y01733*
X02576Y0173*
X02584Y01727*
X02589Y01726*
X02593*
X02927*
X02931*
X02937Y01727*
X02944Y0173*
X02948Y01733*
X02954Y01739*
X02957Y01743*
X0296Y01751*
X02961Y01756*
Y0176*
Y01897*
X03017*
X03021Y01893*
X0302Y01889*
X03022Y0188*
X03027Y01873*
X03034Y01868*
X03043Y01866*
X03052Y01868*
X03059Y01873*
X03064Y0188*
X03066Y01889*
X03065Y01893*
X03068Y01897*
X03074*
X03077Y01892*
X03073Y01886*
X03071Y01878*
X03073Y01869*
X03078Y01861*
X03085Y01856*
X03094Y01854*
X03103Y01856*
X0311Y01861*
X03117Y01856*
X03126Y01854*
X03134Y01856*
X03142Y01861*
X03147Y01869*
X03149Y01878*
X03147Y01886*
X03143Y01892*
X03145Y01897*
X03316*
X03319Y01893*
X03319Y01893*
X03321Y01884*
X03326Y01877*
X03329Y01875*
Y01871*
X03324Y01864*
X03322Y01855*
X03324Y01846*
X03329Y01839*
X03336Y01834*
X03345Y01832*
X03354Y01834*
X03361Y01839*
X03366Y01846*
X03368Y01855*
X03366Y01864*
X03361Y01871*
X0336Y01872*
X03359Y01878*
X03363Y01884*
X03365Y01893*
X03363Y01902*
X03358Y0191*
X03351Y01915*
X03342Y01916*
X03342Y01917*
X03341Y01921*
X03344Y01923*
X03349Y01931*
X0335Y0194*
X0335Y01943*
X03356Y01948*
X03361Y01955*
X03363Y01964*
X03361Y01973*
X03356Y0198*
X0335Y01985*
X03351Y01993*
X0335Y02001*
X03345Y02008*
X03347Y02009*
X03352Y02016*
X03353Y02025*
X03352Y02034*
X03348Y02039*
X0335Y02045*
X0335*
X03357Y0205*
X03362Y02057*
X03364Y02066*
X03362Y02075*
X03357Y02083*
X03355Y02084*
Y02089*
X0336Y02096*
X03362Y02105*
X0336Y02114*
X03355Y02121*
X03348Y02126*
X03339Y02128*
X0333Y02126*
X03328Y02125*
X03327Y02127*
X03322Y0213*
Y02263*
X03315Y02271*
X02799*
X02716Y02354*
Y0241*
X02718Y02412*
X02719Y02421*
X02718Y0243*
X02716Y02432*
Y02705*
X02718Y02707*
X02719Y02716*
X02718Y02725*
X02716Y02727*
Y02843*
X02718Y02845*
X02719Y02854*
X02718Y02863*
X02716Y02865*
Y03574*
X02661Y03629*
Y03917*
X027Y03956*
X03248*
X03401Y03803*
G37*
%LNleft_board-2*%
%LPC*%
G36*
X02815Y04511D02*
X02806Y04509D01*
X02798Y04504*
X02793Y04497*
X02791Y04488*
X02793Y04479*
X02798Y04471*
X02806Y04466*
X02815Y04465*
X02823Y04466*
X02831Y04471*
X02836Y04479*
X02838Y04488*
X02836Y04497*
X02831Y04504*
X02823Y04509*
X02815Y04511*
G37*
G36*
X02677D02*
X02668Y04509D01*
X0266Y04504*
X02655Y04497*
X02654Y04488*
X02655Y04479*
X0266Y04471*
X02668Y04466*
X02677Y04465*
X02686Y04466*
X02693Y04471*
X02698Y04479*
X027Y04488*
X02698Y04497*
X02693Y04504*
X02686Y04509*
X02677Y04511*
G37*
G36*
X0335Y04452D02*
X03341Y0445D01*
X03336Y04446*
X03332Y04445*
X03329Y04446*
X03323Y0445*
X03315Y04452*
X03306Y0445*
X033Y04446*
X03297Y04445*
X03293Y04446*
X03288Y0445*
X03279Y04452*
X0327Y0445*
X03263Y04445*
X03258Y04438*
X03256Y04429*
X03258Y0442*
X03263Y04412*
X0327Y04407*
X03279Y04406*
X03288Y04407*
X03293Y04411*
X03297Y04412*
X033Y04411*
X03306Y04407*
X03315Y04406*
X03323Y04407*
X03329Y04411*
X03332Y04412*
X03336Y04411*
X03341Y04407*
X0335Y04406*
X03359Y04407*
X03366Y04412*
X03371Y0442*
X03373Y04429*
X03371Y04438*
X03366Y04445*
X03359Y0445*
X0335Y04452*
G37*
G36*
X03086D02*
X03077Y0445D01*
X0307Y04445*
X03069Y04444*
X03064*
X03063Y04445*
X03056Y0445*
X03047Y04452*
X03038Y0445*
X0303Y04445*
X0303Y04444*
X03025*
X03024Y04445*
X03016Y0445*
X03007Y04452*
X02999Y0445*
X02991Y04445*
X02986Y04438*
X02984Y04429*
X02986Y0442*
X02991Y04412*
X02999Y04407*
X03007Y04406*
X03016Y04407*
X03024Y04412*
X03025Y04414*
X0303*
X0303Y04412*
X03038Y04407*
X03047Y04406*
X03056Y04407*
X03063Y04412*
X03064Y04414*
X03069*
X0307Y04412*
X03077Y04407*
X03086Y04406*
X03095Y04407*
X03102Y04412*
X03107Y0442*
X03109Y04429*
X03107Y04438*
X03102Y04445*
X03095Y0445*
X03086Y04452*
G37*
G36*
X02527Y04479D02*
X02518Y04478D01*
X02511Y04473*
X02506Y04465*
X02504Y04456*
X02506Y04447*
X02511Y0444*
X02518Y04435*
X02527Y04433*
X02536Y04435*
X02543Y0444*
X02548Y04447*
X0255Y04456*
X02548Y04465*
X02543Y04473*
X02536Y04478*
X02527Y04479*
G37*
G36*
X02437Y04424D02*
X02428Y04422D01*
X0242Y04417*
X02415Y0441*
X02413Y04401*
X02415Y04392*
X0242Y04385*
X02428Y0438*
X02437Y04378*
X02445Y0438*
X02453Y04385*
X02458Y04392*
X0246Y04401*
X02458Y0441*
X02453Y04417*
X02445Y04422*
X02437Y04424*
G37*
G36*
X02522Y04389D02*
X02515Y04388D01*
X02507Y04385*
X02501Y0438*
X02496Y04374*
X02493Y04367*
X02492Y04359*
X02493Y04351*
X02496Y04344*
X02501Y04338*
X02507Y04333*
X02515Y0433*
X02522Y04329*
X0253Y0433*
X02537Y04333*
X02543Y04338*
X02548Y04344*
X02551Y04351*
X02552Y04359*
X02551Y04367*
X02548Y04374*
X02543Y0438*
X02537Y04385*
X0253Y04388*
X02522Y04389*
G37*
G36*
X02815Y04373D02*
X02806Y04371D01*
X02798Y04366*
X02793Y04359*
X02791Y0435*
X02793Y04341*
X02798Y04334*
X02806Y04329*
X02815Y04327*
X02823Y04329*
X02831Y04334*
X02836Y04341*
X02838Y0435*
X02836Y04359*
X02831Y04366*
X02823Y04371*
X02815Y04373*
G37*
G36*
X02677D02*
X02668Y04371D01*
X0266Y04366*
X02655Y04359*
X02654Y0435*
X02655Y04341*
X0266Y04334*
X02668Y04329*
X02677Y04327*
X02686Y04329*
X02693Y04334*
X02698Y04341*
X027Y0435*
X02698Y04359*
X02693Y04366*
X02686Y04371*
X02677Y04373*
G37*
G36*
X02815Y04235D02*
X02806Y04233D01*
X02798Y04228*
X02793Y04221*
X02791Y04212*
X02793Y04203*
X02798Y04196*
X02806Y04191*
X02815Y04189*
X02823Y04191*
X02831Y04196*
X02836Y04203*
X02838Y04212*
X02836Y04221*
X02831Y04228*
X02823Y04233*
X02815Y04235*
G37*
G36*
X02677D02*
X02668Y04233D01*
X0266Y04228*
X02655Y04221*
X02654Y04212*
X02655Y04203*
X0266Y04196*
X02668Y04191*
X02677Y04189*
X02686Y04191*
X02693Y04196*
X02698Y04203*
X027Y04212*
X02698Y04221*
X02693Y04228*
X02686Y04233*
X02677Y04235*
G37*
G36*
X03157Y04212D02*
X03148Y0421D01*
X03141Y04205*
X03136Y04197*
X03134Y04189*
X03136Y0418*
X03141Y04172*
X03148Y04167*
X03157Y04165*
X03166Y04167*
X03173Y04172*
X03178Y0418*
X0318Y04189*
X03178Y04197*
X03173Y04205*
X03166Y0421*
X03157Y04212*
G37*
G36*
X03019D02*
X0301Y0421D01*
X03003Y04205*
X02998Y04197*
X02996Y04189*
X02998Y0418*
X03003Y04172*
X0301Y04167*
X03019Y04165*
X03028Y04167*
X03036Y04172*
X03041Y0418*
X03042Y04189*
X03041Y04197*
X03036Y04205*
X03028Y0421*
X03019Y04212*
G37*
G36*
X02917Y04164D02*
X02908Y04163D01*
X02901Y04158*
X02896Y0415*
X02894Y04141*
X02896Y04132*
X02901Y04125*
X02908Y0412*
X02917Y04118*
X02926Y0412*
X02933Y04125*
X02938Y04132*
X0294Y04141*
X02938Y0415*
X02933Y04158*
X02926Y04163*
X02917Y04164*
G37*
G36*
X02468Y04256D02*
X02453Y04254D01*
X0244Y0425*
X02427Y04243*
X02416Y04234*
X02407Y04223*
X024Y04211*
X02396Y04197*
X02395Y04183*
X02396Y04168*
X024Y04155*
X02407Y04142*
X02416Y04131*
X02427Y04122*
X0244Y04115*
X02453Y04111*
X02468Y04109*
X02482Y04111*
X02496Y04115*
X02508Y04122*
X02519Y04131*
X02529Y04142*
X02535Y04155*
X02539Y04168*
X02541Y04183*
X02539Y04197*
X02535Y04211*
X02529Y04223*
X02519Y04234*
X02508Y04243*
X02496Y0425*
X02482Y04254*
X02468Y04256*
G37*
G36*
X03422Y04278D02*
X03408Y04277D01*
X03394Y04273*
X03382Y04266*
X03371Y04257*
X03362Y04246*
X03355Y04233*
X03351Y04219*
X03349Y04205*
X03351Y04191*
X03355Y04177*
X03362Y04164*
X03371Y04153*
X03382Y04144*
X03394Y04137*
X03408Y04133*
X03422Y04132*
X0343Y04133*
X03434Y04129*
X03433Y04126*
X03435Y04117*
X0344Y04109*
X03447Y04104*
X03456Y04102*
X03465Y04104*
X03473Y04109*
X03478Y04117*
X03479Y04126*
X03478Y04134*
X03473Y04142*
X03469Y04144*
X03469Y04149*
X03474Y04153*
X03483Y04164*
X0349Y04177*
X03494Y04191*
X03496Y04205*
X03494Y04219*
X0349Y04233*
X03483Y04246*
X03474Y04257*
X03463Y04266*
X0345Y04273*
X03437Y04277*
X03422Y04278*
G37*
G36*
X03382Y04101D02*
X03373Y04099D01*
X03366Y04094*
X03361Y04087*
X03359Y04078*
X03361Y04069*
X03366Y04061*
X03373Y04056*
X03382Y04055*
X03391Y04056*
X03398Y04061*
X03403Y04069*
X03405Y04078*
X03403Y04087*
X03398Y04094*
X03391Y04099*
X03382Y04101*
G37*
G36*
X03019Y04074D02*
X0301Y04072D01*
X03003Y04067*
X02998Y0406*
X02996Y04051*
X02998Y04042*
X03003Y04034*
X0301Y04029*
X03019Y04028*
X03028Y04029*
X03036Y04034*
X03041Y04042*
X03042Y04051*
X03041Y0406*
X03036Y04067*
X03028Y04072*
X03019Y04074*
G37*
G36*
X02917Y0407D02*
X02908Y04068D01*
X02901Y04063*
X02896Y04056*
X02894Y04047*
X02896Y04038*
X02901Y0403*
X02908Y04025*
X02917Y04024*
X02926Y04025*
X02933Y0403*
X02938Y04038*
X0294Y04047*
X02938Y04056*
X02933Y04063*
X02926Y04068*
X02917Y0407*
G37*
G36*
X02539Y04019D02*
X0253Y04017D01*
X02523Y04012*
X02518Y04004*
X02516Y03996*
X02518Y03987*
X02523Y03979*
X0253Y03974*
X02539Y03973*
X02548Y03974*
X02555Y03979*
X0256Y03987*
X02562Y03996*
X0256Y04004*
X02555Y04012*
X02548Y04017*
X02539Y04019*
G37*
G36*
X03457Y03982D02*
X03448Y03981D01*
X03441Y03976*
X03436Y03968*
X03434Y03959*
X03436Y0395*
X03441Y03943*
X03448Y03938*
X03457Y03936*
X03466Y03938*
X03474Y03943*
X03479Y0395*
X0348Y03959*
X03479Y03968*
X03474Y03976*
X03466Y03981*
X03457Y03982*
G37*
G36*
X03424Y03914D02*
X03415Y03913D01*
X03407Y03908*
X03402Y039*
X03401Y03891*
X03402Y03882*
X03407Y03875*
X03415Y0387*
X03424Y03868*
X03433Y0387*
X0344Y03875*
X03445Y03882*
X03447Y03891*
X03445Y039*
X0344Y03908*
X03433Y03913*
X03424Y03914*
G37*
G36*
X02244Y03842D02*
X02235Y0384D01*
X02227Y03835*
X02222Y03827*
X02221Y03818*
X02222Y0381*
X02227Y03802*
X02235Y03797*
X02244Y03795*
X02252Y03797*
X0226Y03802*
X02265Y0381*
X02267Y03818*
X02265Y03827*
X0226Y03835*
X02252Y0384*
X02244Y03842*
G37*
G36*
X02543Y03723D02*
X02534Y03722D01*
X02527Y03717*
X02522Y03709*
X0252Y037*
X02522Y03692*
X02527Y03684*
X02534Y03679*
X02543Y03677*
X02552Y03679*
X02559Y03684*
X02564Y03692*
X02566Y037*
X02564Y03709*
X02559Y03717*
X02552Y03722*
X02543Y03723*
G37*
G36*
X0248D02*
X02471Y03722D01*
X02464Y03717*
X02459Y03709*
X02457Y037*
X02459Y03692*
X02464Y03684*
X02471Y03679*
X0248Y03677*
X02489Y03679*
X02496Y03684*
X02501Y03692*
X02503Y037*
X02501Y03709*
X02496Y03717*
X02489Y03722*
X0248Y03723*
G37*
G36*
X02417Y03719D02*
X02408Y03718D01*
X02401Y03713*
X02396Y03705*
X02394Y03696*
X02396Y03688*
X02401Y0368*
X02408Y03675*
X02417Y03673*
X02426Y03675*
X02433Y0368*
X02438Y03688*
X0244Y03696*
X02438Y03705*
X02433Y03713*
X02426Y03718*
X02417Y03719*
G37*
G36*
X02289Y03648D02*
X0228Y03646D01*
X02273Y03641*
X02268Y03633*
X02266Y03625*
X02268Y03616*
X02273Y03608*
X0228Y03603*
X02289Y03601*
X02298Y03603*
X02305Y03608*
X0231Y03616*
X02312Y03625*
X0231Y03633*
X02305Y03641*
X02298Y03646*
X02289Y03648*
G37*
G36*
X02497Y0357D02*
X02489Y03568D01*
X02481Y03563*
X02476Y03555*
X02474Y03546*
X02476Y03538*
X02481Y0353*
X02489Y03525*
X02497Y03523*
X02506Y03525*
X02514Y0353*
X02519Y03538*
X02521Y03546*
X02519Y03555*
X02514Y03563*
X02506Y03568*
X02497Y0357*
G37*
G36*
X02586Y03507D02*
X02577Y03505D01*
X0257Y035*
X02565Y03493*
X02563Y03484*
X02564Y03481*
X02563Y03479*
X02554Y03478*
X02546Y03473*
X02541Y03465*
X02539Y03456*
X02541Y03447*
X02546Y0344*
X02554Y03435*
X02563Y03433*
X02571Y03435*
X02579Y0344*
X02584Y03447*
X02586Y03456*
X02585Y0346*
X02586Y03461*
X02595Y03462*
X02602Y03467*
X02607Y03475*
X02609Y03484*
X02607Y03493*
X02602Y035*
X02595Y03505*
X02586Y03507*
G37*
G36*
X0235Y03416D02*
X02341Y03415D01*
X02334Y0341*
X02329Y03402*
X02327Y03393*
X02329Y03384*
X02334Y03377*
X02341Y03372*
X0235Y0337*
X02359Y03372*
X02366Y03377*
X02371Y03384*
X02373Y03393*
X02371Y03402*
X02366Y0341*
X02359Y03415*
X0235Y03416*
G37*
G36*
X02582Y03381D02*
X02573Y03379D01*
X02566Y03374*
X02561Y03367*
X02559Y03358*
X02561Y03349*
X02566Y03341*
X02573Y03336*
X02582Y03335*
X02591Y03336*
X02599Y03341*
X02604Y03349*
X02605Y03358*
X02604Y03367*
X02599Y03374*
X02591Y03379*
X02582Y03381*
G37*
G36*
X02421Y03365D02*
X02412Y03363D01*
X02404Y03358*
X02399Y03351*
X02398Y03342*
X02399Y03333*
X02404Y03326*
X02412Y03321*
X02421Y03319*
X0243Y03321*
X02437Y03326*
X02442Y03333*
X02444Y03342*
X02442Y03351*
X02437Y03358*
X0243Y03363*
X02421Y03365*
G37*
G36*
X02362Y03345D02*
X02353Y03344D01*
X02345Y03339*
X0234Y03331*
X02339Y03322*
X0234Y03314*
X02345Y03306*
X02353Y03301*
X02362Y03299*
X02371Y03301*
X02378Y03306*
X02383Y03314*
X02385Y03322*
X02383Y03331*
X02378Y03339*
X02371Y03344*
X02362Y03345*
G37*
G36*
X0259Y03311D02*
X02581Y03309D01*
X02574Y03304*
X02569Y03297*
X02567Y03288*
X02569Y03279*
X02574Y03272*
X02581Y03267*
X0259Y03265*
X02599Y03267*
X02606Y03272*
X02611Y03279*
X02613Y03288*
X02611Y03297*
X02606Y03304*
X02599Y03309*
X0259Y03311*
G37*
G36*
X02501Y0334D02*
X02492Y03338D01*
X02484Y03333*
X02479Y03325*
X02477Y03316*
X02479Y03308*
X02484Y033*
X02492Y03295*
X02501Y03293*
X02509Y03295*
X0251Y03295*
X02513Y03292*
X02513Y03291*
X02511Y03282*
X02513Y03273*
X02518Y03266*
X02525Y03261*
X02534Y03259*
X02543Y03261*
X0255Y03266*
X02555Y03273*
X02557Y03282*
X02555Y03291*
X0255Y03298*
X02543Y03303*
X02534Y03305*
X02525Y03303*
X02525Y03303*
X02521Y03307*
X02522Y03308*
X02524Y03316*
X02522Y03325*
X02517Y03333*
X02509Y03338*
X02501Y0334*
G37*
G36*
X02244Y03302D02*
X02235Y033D01*
X02227Y03295*
X02222Y03288*
X02221Y03279*
X02222Y0327*
X02227Y03263*
X02235Y03258*
X02244Y03256*
X02252Y03258*
X0226Y03263*
X02265Y0327*
X02267Y03279*
X02265Y03288*
X0226Y03295*
X02252Y033*
X02244Y03302*
G37*
G36*
X02299Y03298D02*
X0229Y03296D01*
X02282Y03291*
X02277Y03284*
X02276Y03275*
X02277Y03266*
X02282Y03259*
X0229Y03254*
X02299Y03252*
X02308Y03254*
X02315Y03259*
X0232Y03266*
X02322Y03275*
X0232Y03284*
X02315Y03291*
X02308Y03296*
X02299Y03298*
G37*
G36*
X02366Y03279D02*
X02357Y03277D01*
X02349Y03272*
X02344Y03264*
X02343Y03255*
X02344Y03247*
X02349Y03239*
X02357Y03234*
X02366Y03232*
X02375Y03234*
X02382Y03239*
X02387Y03247*
X02389Y03255*
X02387Y03264*
X02382Y03272*
X02375Y03277*
X02366Y03279*
G37*
G36*
X02559Y03015D02*
X0255Y03013D01*
X02542Y03008*
X02537Y03001*
X02536Y02992*
X02537Y02983*
X02542Y02975*
X0255Y0297*
X02559Y02969*
X02567Y0297*
X02575Y02975*
X0258Y02983*
X02582Y02992*
X0258Y03001*
X02575Y03008*
X02567Y03013*
X02559Y03015*
G37*
G36*
Y02877D02*
X0255Y02875D01*
X02542Y0287*
X02537Y02863*
X02536Y02854*
X02537Y02845*
X02542Y02838*
X0255Y02833*
X02559Y02831*
X02567Y02833*
X02575Y02838*
X0258Y02845*
X02582Y02854*
X0258Y02863*
X02575Y0287*
X02567Y02875*
X02559Y02877*
G37*
G36*
Y02739D02*
X0255Y02737D01*
X02542Y02732*
X02537Y02725*
X02536Y02716*
X02537Y02707*
X02542Y027*
X0255Y02695*
X02559Y02693*
X02567Y02695*
X02575Y027*
X0258Y02707*
X02582Y02716*
X0258Y02725*
X02575Y02732*
X02567Y02737*
X02559Y02739*
G37*
G36*
Y02582D02*
X0255Y0258D01*
X02542Y02575*
X02537Y02567*
X02536Y02559*
X02537Y0255*
X02542Y02542*
X0255Y02537*
X02559Y02536*
X02567Y02537*
X02575Y02542*
X0258Y0255*
X02582Y02559*
X0258Y02567*
X02575Y02575*
X02567Y0258*
X02559Y02582*
G37*
G36*
X02421D02*
X02412Y0258D01*
X02404Y02575*
X02399Y02567*
X02398Y02559*
X02399Y0255*
X02404Y02542*
X02412Y02537*
X02421Y02536*
X0243Y02537*
X02437Y02542*
X02442Y0255*
X02444Y02559*
X02442Y02567*
X02437Y02575*
X0243Y0258*
X02421Y02582*
G37*
G36*
X02342Y02578D02*
X02333Y02576D01*
X02326Y02571*
X02321Y02564*
X02319Y02555*
X02321Y02546*
X02326Y02538*
X02333Y02533*
X02342Y02532*
X02351Y02533*
X02358Y02538*
X02363Y02546*
X02365Y02555*
X02363Y02564*
X02358Y02571*
X02351Y02576*
X02342Y02578*
G37*
G36*
X02259D02*
X02251Y02576D01*
X02243Y02571*
X02238Y02564*
X02236Y02555*
X02238Y02546*
X02243Y02538*
X02251Y02533*
X02259Y02532*
X02268Y02533*
X02276Y02538*
X02281Y02546*
X02282Y02555*
X02281Y02564*
X02276Y02571*
X02268Y02576*
X02259Y02578*
G37*
G36*
X02559Y02444D02*
X0255Y02442D01*
X02542Y02437*
X02537Y0243*
X02536Y02421*
X02537Y02412*
X02542Y02404*
X0255Y02399*
X02559Y02398*
X02567Y02399*
X02575Y02404*
X0258Y02412*
X02582Y02421*
X0258Y0243*
X02575Y02437*
X02567Y02442*
X02559Y02444*
G37*
G36*
X02421D02*
X02412Y02442D01*
X02404Y02437*
X02399Y0243*
X02398Y02421*
X02399Y02412*
X02404Y02404*
X02412Y02399*
X02421Y02398*
X0243Y02399*
X02437Y02404*
X02442Y02412*
X02444Y02421*
X02442Y0243*
X02437Y02437*
X0243Y02442*
X02421Y02444*
G37*
G36*
X02559Y02306D02*
X0255Y02304D01*
X02542Y02299*
X02537Y02292*
X02536Y02283*
X02537Y02274*
X02542Y02267*
X0255Y02262*
X02559Y0226*
X02567Y02262*
X02575Y02267*
X0258Y02274*
X02582Y02283*
X0258Y02292*
X02575Y02299*
X02567Y02304*
X02559Y02306*
G37*
G36*
X02421D02*
X02412Y02304D01*
X02404Y02299*
X02399Y02292*
X02398Y02283*
X02399Y02274*
X02404Y02267*
X02412Y02262*
X02421Y0226*
X0243Y02262*
X02437Y02267*
X02442Y02274*
X02444Y02283*
X02442Y02292*
X02437Y02299*
X0243Y02304*
X02421Y02306*
G37*
G36*
X02261Y02337D02*
X02247Y02335D01*
X02233Y02331*
X0222Y02324*
X02209Y02315*
X022Y02304*
X02193Y02291*
X02189Y02278*
X02188Y02263*
X02189Y02249*
X02193Y02235*
X022Y02223*
X02209Y02212*
X0222Y02202*
X02233Y02196*
X02247Y02192*
X02261Y0219*
X02275Y02192*
X02289Y02196*
X02302Y02202*
X02313Y02212*
X02322Y02223*
X02329Y02235*
X02333Y02249*
X02334Y02263*
X02333Y02278*
X02329Y02291*
X02322Y02304*
X02313Y02315*
X02302Y02324*
X02289Y02331*
X02275Y02335*
X02261Y02337*
G37*
G36*
X03172Y02139D02*
X03163Y02137D01*
X03155Y02132*
X03151Y02125*
X0315Y02124*
X03146Y02122*
X03144Y02123*
X03135Y02125*
X03127Y02123*
X03119Y02118*
X03114Y02111*
X03112Y02102*
X03114Y02093*
X03119Y02086*
X03127Y02081*
X03128Y02077*
X03128Y02075*
X03127Y0207*
X03122Y02066*
X03113Y02064*
X03106Y0206*
X03099Y02064*
X0309Y02066*
X03081Y02064*
X03074Y02059*
X03069Y02052*
X03067Y02043*
X03069Y02034*
X03074Y02027*
X03081Y02022*
X0309Y0202*
X03099Y02022*
X03106Y02026*
X03113Y02022*
X03122Y0202*
X0313Y02022*
X03138Y02027*
X03143Y02034*
X03143Y02036*
X03149Y0204*
X03149Y02039*
X0315Y02038*
X0315Y02035*
X03151Y02026*
X03156Y02019*
X03164Y02014*
X03173Y02012*
X03182Y02014*
X03189Y02019*
X03194Y02026*
X03196Y02035*
X03194Y02044*
X03189Y02051*
X03182Y02056*
X03175Y02058*
X03173Y02058*
X03172Y02063*
X03172Y02066*
X0317Y02075*
X03165Y02083*
X03158Y02088*
X03157Y02089*
X03158Y02091*
X03163Y02094*
X03172Y02093*
X03181Y02094*
X03188Y02099*
X03193Y02107*
X03195Y02116*
X03193Y02125*
X03188Y02132*
X03181Y02137*
X03172Y02139*
G37*
G36*
X02834Y02168D02*
X02825Y02167D01*
X02818Y02162*
X02813Y02154*
X02811Y02145*
X02813Y02136*
X02818Y02129*
X02825Y02124*
X02834Y02122*
X02843Y02124*
X02851Y02129*
X02856Y02136*
X02857Y02145*
X02856Y02154*
X02851Y02162*
X02843Y02167*
X02834Y02168*
G37*
G36*
X02696D02*
X02688Y02167D01*
X0268Y02162*
X02675Y02154*
X02673Y02145*
X02675Y02136*
X0268Y02129*
X02688Y02124*
X02696Y02122*
X02705Y02124*
X02713Y02129*
X02718Y02136*
X02719Y02145*
X02718Y02154*
X02713Y02162*
X02705Y02167*
X02696Y02168*
G37*
G36*
X02559D02*
X0255Y02167D01*
X02542Y02162*
X02537Y02154*
X02536Y02145*
X02537Y02136*
X02542Y02129*
X0255Y02124*
X02559Y02122*
X02567Y02124*
X02575Y02129*
X0258Y02136*
X02582Y02145*
X0258Y02154*
X02575Y02162*
X02567Y02167*
X02559Y02168*
G37*
G36*
X02421D02*
X02412Y02167D01*
X02404Y02162*
X02399Y02154*
X02398Y02145*
X02399Y02136*
X02404Y02129*
X02412Y02124*
X02421Y02122*
X0243Y02124*
X02437Y02129*
X02442Y02136*
X02444Y02145*
X02442Y02154*
X02437Y02162*
X0243Y02167*
X02421Y02168*
G37*
G36*
Y02031D02*
X02412Y02029D01*
X02404Y02024*
X02399Y02016*
X02398Y02007*
X02399Y01999*
X02404Y01991*
X02412Y01986*
X02421Y01984*
X0243Y01986*
X02437Y01991*
X02442Y01999*
X02444Y02007*
X02442Y02016*
X02437Y02024*
X0243Y02029*
X02421Y02031*
G37*
G36*
X02886Y03948D02*
X02878Y03946D01*
X0287Y03941*
X02865Y03934*
X02863Y03925*
X02865Y03916*
X0287Y03908*
X02878Y03903*
X02886Y03902*
X02895Y03903*
X02903Y03908*
X02908Y03916*
X02909Y03925*
X02908Y03934*
X02903Y03941*
X02895Y03946*
X02886Y03948*
G37*
G36*
X03236Y03885D02*
X03227Y03883D01*
X03219Y03878*
X03214Y03871*
X03213Y03862*
X03214Y03853*
X03219Y03845*
X03227Y0384*
X03236Y03839*
X03245Y0384*
X03252Y03845*
X03257Y03853*
X03259Y03862*
X03257Y03871*
X03252Y03878*
X03245Y03883*
X03236Y03885*
G37*
G36*
X02979Y03805D02*
X0297Y03803D01*
X02963Y03798*
X02958Y03791*
X02956Y03782*
X02958Y03773*
X02963Y03766*
X0297Y03761*
X02979Y03759*
X02988Y03761*
X02995Y03766*
X03Y03773*
X03002Y03782*
X03Y03791*
X02995Y03798*
X02988Y03803*
X02979Y03805*
G37*
G36*
X03287Y03802D02*
X03278Y038D01*
X03271Y03795*
X03266Y03788*
X03264Y03779*
X03266Y0377*
X03271Y03763*
X03278Y03758*
X03287Y03756*
X03296Y03758*
X03303Y03763*
X03308Y0377*
X0331Y03779*
X03308Y03788*
X03303Y03795*
X03296Y038*
X03287Y03802*
G37*
G36*
X02878Y03794D02*
X02869Y03793D01*
X02861Y03788*
X02856Y0378*
X02854Y03771*
X02856Y03762*
X02861Y03755*
X02869Y0375*
X02878Y03748*
X02886Y0375*
X02894Y03755*
X02899Y03762*
X02901Y03771*
X02899Y0378*
X02894Y03788*
X02886Y03793*
X02878Y03794*
G37*
G36*
X02771Y03798D02*
X02762Y03796D01*
X02755Y03791*
X0275Y03784*
X02748Y03775*
X0275Y03766*
X02755Y03759*
X02762Y03754*
X02771Y03752*
X0278Y03754*
X02788Y03759*
X02788Y0376*
X02794Y0376*
X02798Y03754*
X02805Y03749*
X02814Y03748*
X02823Y03749*
X0283Y03754*
X02835Y03762*
X02837Y03771*
X02835Y0378*
X0283Y03787*
X02823Y03792*
X02814Y03794*
X02805Y03792*
X02798Y03787*
X02797Y03786*
X02791Y03786*
X02788Y03791*
X0278Y03796*
X02771Y03798*
G37*
G36*
X03208Y03723D02*
X03199Y03722D01*
X03192Y03717*
X03187Y03709*
X03185Y037*
X03187Y03692*
X03192Y03684*
X03199Y03679*
X03208Y03677*
X03217Y03679*
X03225Y03684*
X0323Y03692*
X03231Y037*
X0323Y03709*
X03225Y03717*
X03217Y03722*
X03208Y03723*
G37*
G36*
X03098Y03743D02*
X03089Y03741D01*
X03082Y03736*
X03077Y03729*
X03075Y0372*
X03077Y03711*
X0308Y03706*
X03077Y03701*
X03075Y03692*
X03077Y03684*
X03082Y03676*
X03089Y03671*
X03098Y03669*
X03107Y03671*
X03114Y03676*
X03119Y03684*
X0312Y03688*
X03125Y03689*
X03129Y03684*
X03136Y03679*
X03145Y03677*
X03154Y03679*
X03162Y03684*
X03167Y03692*
X03168Y037*
X03167Y03709*
X03162Y03717*
X03154Y03722*
X03145Y03723*
X03136Y03722*
X03129Y03717*
X03124Y03709*
X03124Y03709*
X03118Y03708*
X03118Y03709*
X03119Y03711*
X03121Y0372*
X03119Y03729*
X03114Y03736*
X03107Y03741*
X03098Y03743*
G37*
G36*
X02782Y03646D02*
X02773Y03644D01*
X02765Y03639*
X0276Y03632*
X0276Y03629*
X02755Y03627*
X02751Y03629*
X02743Y03631*
X02734Y03629*
X02726Y03624*
X02721Y03617*
X0272Y03608*
X02721Y03599*
X02726Y03591*
X02734Y03586*
X02743Y03585*
X02751Y03586*
X02759Y03591*
X02764Y03599*
X02765Y03602*
X02769Y03604*
X02773Y03602*
X02782Y036*
X0279Y03602*
X02798Y03607*
X02803Y03614*
X02805Y03623*
X02803Y03632*
X02798Y03639*
X0279Y03644*
X02782Y03646*
G37*
G36*
X03425Y03664D02*
X03416Y03663D01*
X03408Y03658*
X03403Y0365*
X03402Y03641*
X03403Y03632*
X03408Y03625*
X03416Y0362*
X03425Y03618*
X03434Y0362*
X03441Y03625*
X03446Y03632*
X03448Y03641*
X03446Y0365*
X03441Y03658*
X03434Y03663*
X03425Y03664*
G37*
G36*
X03287D02*
X03278Y03663D01*
X03271Y03658*
X03266Y0365*
X03264Y03641*
X03266Y03632*
X03271Y03625*
X03278Y0362*
X03287Y03618*
X03296Y0362*
X03303Y03625*
X03308Y03632*
X0331Y03641*
X03308Y0365*
X03303Y03658*
X03296Y03663*
X03287Y03664*
G37*
G36*
X02961Y0361D02*
X02952Y03608D01*
X02945Y03603*
X02943Y036*
X02939Y03603*
X0293Y03605*
X02921Y03603*
X02914Y03598*
X02909Y03591*
X02907Y03582*
X02909Y03573*
X02914Y03566*
X02921Y03561*
X0293Y03559*
X02939Y03561*
X02946Y03566*
X02948Y03568*
X02952Y03565*
X02961Y03563*
X0297Y03565*
X02978Y0357*
X02983Y03578*
X02984Y03587*
X02983Y03595*
X02978Y03603*
X0297Y03608*
X02961Y0361*
G37*
G36*
X02835Y03636D02*
X02826Y03635D01*
X02819Y0363*
X02814Y03622*
X02812Y03613*
X02814Y03604*
X02819Y03597*
X02826Y03592*
X02835Y0359*
X02844Y03592*
X02852Y03597*
X02857Y03604*
X02858Y03613*
X02857Y03622*
X02852Y0363*
X02844Y03635*
X02835Y03636*
G37*
G36*
X0333Y03617D02*
X03321Y03615D01*
X03314Y0361*
X03309Y03603*
X03307Y03594*
X03309Y03585*
X03314Y03578*
X03321Y03573*
X0333Y03571*
X03339Y03573*
X03347Y03578*
X03352Y03585*
X03353Y03594*
X03352Y03603*
X03347Y0361*
X03339Y03615*
X0333Y03617*
G37*
G36*
X03396Y03573D02*
X03387Y03571D01*
X0338Y03566*
X03375Y03559*
X03373Y0355*
X03375Y03541*
X0338Y03533*
X03387Y03528*
X03394Y03527*
X03397Y03522*
X03396Y0352*
X03394Y03511*
X03396Y03503*
X034Y03496*
X03396Y03489*
X03394Y0348*
X03396Y03471*
X03401Y03464*
X03408Y03459*
X03417Y03457*
X03426Y03459*
X03433Y03464*
X03438Y03471*
X0344Y0348*
X03438Y03489*
X03434Y03496*
X03438Y03503*
X0344Y03511*
X03438Y0352*
X03433Y03528*
X03426Y03533*
X03419Y03534*
X03416Y03539*
X03418Y03541*
X03419Y0355*
X03418Y03559*
X03413Y03566*
X03405Y03571*
X03396Y03573*
G37*
G36*
X02929Y03444D02*
X0292Y03442D01*
X02912Y03437*
X02907Y0343*
X02907Y03426*
X02902Y03424*
X02899Y03426*
X0289Y03428*
X02882Y03426*
X02874Y03421*
X02869Y03414*
X02867Y03405*
X02869Y03396*
X02874Y03388*
X02882Y03383*
X0289Y03382*
X02899Y03383*
X02907Y03388*
X02912Y03396*
X02912Y03399*
X02917Y03401*
X0292Y03399*
X02929Y03398*
X02938Y03399*
X02945Y03404*
X0295Y03412*
X02952Y03421*
X0295Y0343*
X02945Y03437*
X02938Y03442*
X02929Y03444*
G37*
G36*
X02793Y03428D02*
X02784Y03426D01*
X02776Y03421*
X02774Y03417*
X02767Y03422*
X02758Y03423*
X02749Y03422*
X02742Y03417*
X02737Y03409*
X02735Y034*
X02737Y03391*
X02742Y03384*
X02749Y03379*
X02758Y03377*
X02767Y03379*
X02774Y03384*
X02777Y03388*
X02784Y03383*
X02793Y03382*
X02801Y03383*
X02809Y03388*
X02814Y03396*
X02816Y03405*
X02814Y03414*
X02809Y03421*
X02801Y03426*
X02793Y03428*
G37*
G36*
X03072Y03443D02*
X03064Y03441D01*
X03056Y03436*
X03051Y03429*
X03049Y0342*
X03051Y03411*
X03056Y03404*
X03064Y03399*
X03072Y03397*
X03081Y03399*
X03089Y03404*
X03094Y03411*
X03095Y0342*
X03094Y03429*
X03089Y03436*
X03081Y03441*
X03072Y03443*
G37*
G36*
X03267Y03448D02*
X03258Y03446D01*
X03251Y03441*
X03246Y03434*
X03244Y03425*
X03246Y03416*
X03249Y03411*
X03246Y03406*
X03244Y03397*
X03246Y03388*
X03249Y03383*
X03246Y03378*
X03244Y0337*
X03246Y03361*
X03251Y03353*
X03258Y03348*
X03267Y03347*
X03268Y03347*
X0327Y03341*
X03275Y03334*
X03282Y03329*
X03291Y03327*
X033Y03329*
X03307Y03334*
X03312Y03341*
X03314Y0335*
X03312Y03359*
X03307Y03366*
X033Y03371*
X03291Y03373*
X0329Y03373*
X03289Y03378*
X03285Y03383*
X03289Y03388*
X0329Y03397*
X03289Y03406*
X03285Y03411*
X03289Y03416*
X0329Y03425*
X03289Y03434*
X03284Y03441*
X03276Y03446*
X03267Y03448*
G37*
G36*
X02862Y03353D02*
X02853Y03352D01*
X02845Y03347*
X0284Y03339*
X02839Y0333*
X0284Y03321*
X02845Y03314*
X02853Y03309*
X02862Y03307*
X02871Y03309*
X02878Y03314*
X02883Y03321*
X02885Y0333*
X02883Y03339*
X02878Y03347*
X02871Y03352*
X02862Y03353*
G37*
G36*
X03067Y03219D02*
X03059Y03218D01*
X03051Y03213*
X03044Y03218*
X03035Y03219*
X03026Y03218*
X03019Y03213*
X03011Y03218*
X03003Y03219*
X02994Y03218*
X02986Y03213*
X02981Y03205*
X02979Y03196*
X02981Y03188*
X02986Y0318*
X02994Y03175*
X03003Y03173*
X03011Y03175*
X03019Y0318*
X03026Y03175*
X03035Y03173*
X03044Y03175*
X03051Y0318*
X03059Y03175*
X03067Y03173*
X03076Y03175*
X03084Y0318*
X03089Y03188*
X03091Y03196*
X03089Y03205*
X03084Y03213*
X03076Y03218*
X03067Y03219*
G37*
G36*
X03409Y03251D02*
X034Y03249D01*
X03393Y03244*
X03388Y03237*
X03386Y03228*
X03388Y03219*
X03393Y03212*
X034Y03207*
X03409Y03205*
X03418Y03207*
X03425Y03212*
X0343Y03219*
X03432Y03228*
X0343Y03237*
X03425Y03244*
X03418Y03249*
X03409Y03251*
G37*
G36*
X02753Y03177D02*
X02745Y03175D01*
X02737Y0317*
X02732Y03163*
X0273Y03154*
X02732Y03145*
X02737Y03138*
X02745Y03133*
X02753Y03131*
X02762Y03133*
X0277Y03138*
X02775Y03145*
X02777Y03154*
X02775Y03163*
X0277Y0317*
X02762Y03175*
X02753Y03177*
G37*
G36*
X02944Y03156D02*
X02936Y03155D01*
X02928Y0315*
X02923Y03142*
X02921Y03133*
X02923Y03125*
X02926Y0312*
X02923Y03116*
X02918Y03119*
X02909Y03121*
X029Y03119*
X02893Y03114*
X02888Y03107*
X02886Y03098*
X02888Y03089*
X02893Y03082*
X029Y03077*
X02909Y03075*
X02918Y03077*
X02925Y03082*
X0293Y03089*
X02932Y03098*
X0293Y03107*
X02927Y03112*
X02931Y03115*
X02936Y03112*
X02944Y0311*
X02953Y03112*
X02961Y03117*
X02966Y03125*
X02968Y03133*
X02966Y03142*
X02961Y0315*
X02953Y03155*
X02944Y03156*
G37*
G36*
X03228D02*
X03219Y03155D01*
X03212Y0315*
X03207Y03142*
X03205Y03133*
X03207Y03125*
X03212Y03117*
X03219Y03112*
X03228Y0311*
X03237Y03112*
X03244Y03117*
X03249Y03125*
X03251Y03133*
X03249Y03142*
X03244Y0315*
X03237Y03155*
X03228Y03156*
G37*
G36*
X03409Y03145D02*
X034Y03143D01*
X03393Y03138*
X03388Y0313*
X03386Y03122*
X03388Y03113*
X03393Y03105*
X034Y031*
X03409Y03099*
X03418Y031*
X03425Y03105*
X0343Y03113*
X03432Y03122*
X0343Y0313*
X03425Y03138*
X03418Y03143*
X03409Y03145*
G37*
G36*
X02938Y03056D02*
X02929Y03054D01*
X02921Y03049*
X02916Y03042*
X02914Y03033*
X02916Y03024*
X02921Y03017*
X02929Y03012*
X02938Y0301*
X02946Y03012*
X02954Y03017*
X02959Y03024*
X02961Y03033*
X02959Y03042*
X02954Y03049*
X02946Y03054*
X02938Y03056*
G37*
G36*
X03248Y03015D02*
X03239Y03013D01*
X03231Y03008*
X03226Y03001*
X03225Y02992*
X03226Y02983*
X03231Y02975*
X03239Y0297*
X03248Y02969*
X03256Y0297*
X03264Y02975*
X03269Y02983*
X03271Y02992*
X03269Y03001*
X03264Y03008*
X03256Y03013*
X03248Y03015*
G37*
G36*
Y02877D02*
X03239Y02875D01*
X03231Y0287*
X03226Y02863*
X03225Y02854*
X03226Y02845*
X03231Y02838*
X03239Y02833*
X03248Y02831*
X03256Y02833*
X03264Y02838*
X03269Y02845*
X03271Y02854*
X03269Y02863*
X03264Y0287*
X03256Y02875*
X03248Y02877*
G37*
G36*
X03149Y02826D02*
X0314Y02824D01*
X03133Y02819*
X03128Y02812*
X03126Y02803*
X03128Y02794*
X03133Y02786*
X0314Y02781*
X03149Y0278*
X03158Y02781*
X03165Y02786*
X0317Y02794*
X03172Y02803*
X0317Y02812*
X03165Y02819*
X03158Y02824*
X03149Y02826*
G37*
G36*
X03248Y02739D02*
X03239Y02737D01*
X03231Y02732*
X03226Y02725*
X03225Y02716*
X03226Y02707*
X03231Y027*
X03239Y02695*
X03248Y02693*
X03256Y02695*
X03264Y027*
X03269Y02707*
X03271Y02716*
X03269Y02725*
X03264Y02732*
X03256Y02737*
X03248Y02739*
G37*
G36*
X02834D02*
X02825Y02737D01*
X02818Y02732*
X02813Y02725*
X02811Y02716*
X02813Y02707*
X02818Y027*
X02825Y02695*
X02834Y02693*
X02843Y02695*
X02851Y027*
X02856Y02707*
X02857Y02716*
X02856Y02725*
X02851Y02732*
X02843Y02737*
X02834Y02739*
G37*
G36*
X03059Y02668D02*
X0305Y02667D01*
X03042Y02662*
X03037Y02654*
X03036Y02645*
X03037Y02636*
X03042Y02629*
X0305Y02624*
X03054Y02623*
X03059Y02622*
X0306Y02617*
X03061Y02613*
X03066Y02605*
X03073Y026*
X03082Y02599*
X03091Y026*
X03099Y02605*
X03104Y02613*
X03105Y02622*
X03104Y0263*
X03099Y02638*
X03091Y02643*
X03087Y02644*
X03082Y02645*
X03081Y0265*
X0308Y02654*
X03075Y02662*
X03067Y02667*
X03059Y02668*
G37*
G36*
X03011Y02534D02*
X03003Y02533D01*
X02995Y02528*
X0299Y0252*
X02988Y02511*
X0299Y02503*
X02995Y02495*
X03003Y0249*
X03011Y02488*
X03013Y02483*
X03014Y02479*
X03019Y02471*
X03026Y02466*
X03035Y02465*
X03044Y02466*
X03051Y02471*
X03056Y02479*
X03058Y02488*
X03056Y02497*
X03051Y02504*
X03044Y02509*
X03035Y02511*
X03034Y02516*
X03033Y0252*
X03028Y02528*
X0302Y02533*
X03011Y02534*
G37*
G36*
X02964Y02503D02*
X02955Y02501D01*
X02948Y02496*
X02943Y02489*
X02941Y0248*
X02943Y02471*
X02948Y02464*
X02955Y02459*
X02964Y02457*
X02973Y02459*
X0298Y02464*
X02985Y02471*
X02987Y0248*
X02985Y02489*
X0298Y02496*
X02973Y02501*
X02964Y02503*
G37*
G36*
X02803Y02452D02*
X02794Y0245D01*
X02786Y02445*
X02781Y02438*
X0278Y02429*
X02781Y0242*
X02786Y02412*
X02794Y02407*
X02803Y02406*
X02806Y02406*
X02811Y02405*
X02812Y02403*
X02813Y02396*
X02818Y02389*
X02824Y02385*
X02823Y02379*
X02821Y02379*
X02814Y02374*
X02809Y02367*
X02807Y02358*
X02809Y02349*
X02814Y02341*
X02821Y02336*
X0283Y02335*
X02839Y02336*
X02847Y02341*
X02852Y02349*
X02853Y02357*
X02855Y02359*
X02858Y0236*
X02866Y02358*
X02875Y0236*
X02882Y02365*
X02887Y02373*
X02889Y02381*
X02887Y0239*
X02882Y02398*
X02875Y02403*
X02866Y02405*
X02862Y02404*
X02857Y02405*
X02857Y02407*
X02856Y02414*
X02851Y02421*
X02843Y02426*
X02834Y02428*
X02831Y02427*
X02826Y02429*
X02825Y02431*
X02824Y02438*
X02819Y02445*
X02812Y0245*
X02803Y02452*
G37*
G36*
X03444Y02141D02*
X03436Y02139D01*
X03428Y02134*
X03423Y02126*
X03421Y02118*
X03423Y02109*
X03428Y02101*
X03436Y02096*
X03444Y02095*
X03453Y02096*
X03461Y02101*
X03466Y02109*
X03468Y02118*
X03466Y02126*
X03461Y02134*
X03453Y02139*
X03444Y02141*
G37*
G36*
X03397Y02034D02*
X03388Y02033D01*
X03381Y02028*
X03376Y0202*
X03374Y02011*
X03376Y02003*
X03379Y01998*
X03376Y01993*
X03374Y01984*
X03376Y01975*
X03379Y0197*
X03376Y01965*
X03374Y01956*
X03376Y01947*
X03379Y01942*
X03376Y01938*
X03374Y01929*
X03376Y0192*
X03381Y01912*
X03388Y01907*
X03397Y01906*
X03406Y01907*
X03414Y01912*
X03419Y0192*
X0342Y01929*
X03419Y01938*
X03415Y01942*
X03419Y01947*
X0342Y01956*
X03419Y01965*
X03415Y0197*
X03419Y01975*
X0342Y01984*
X03419Y01993*
X03415Y01998*
X03419Y02003*
X0342Y02011*
X03419Y0202*
X03414Y02028*
X03406Y02033*
X03397Y02034*
G37*
G36*
X03173Y01861D02*
X03164Y01859D01*
X03156Y01854*
X03151Y01847*
X0315Y01838*
X03151Y01829*
X03156Y01823*
X03152Y01819*
X03152*
X03143Y01821*
X03134Y01819*
X03127Y01814*
X03122Y01807*
X03121Y01802*
X03118Y01798*
X03116Y01798*
X03109Y01796*
X03104Y01793*
X03099Y01796*
X0309Y01798*
X03081Y01796*
X03074Y01791*
X03069Y01784*
X03067Y01775*
X03069Y01766*
X03074Y01759*
X03081Y01754*
X0309Y01752*
X03099Y01754*
X03104Y01757*
X03109Y01754*
X03118Y01752*
X03126Y01754*
X03134Y01759*
X03139Y01766*
X0314Y0177*
X0314Y01771*
X03143Y01775*
X03145Y01775*
X03146Y01775*
X03152Y01777*
X0316Y01782*
X03165Y01789*
X03166Y01798*
X03165Y01807*
X0316Y01813*
X03164Y01817*
X03164*
X03173Y01815*
X03182Y01817*
X03189Y01822*
X03194Y01829*
X03196Y01838*
X03194Y01847*
X03189Y01854*
X03182Y01859*
X03173Y01861*
G37*
G36*
X03362Y01826D02*
X03353Y01824D01*
X03345Y01819*
X0334Y01812*
X03339Y01803*
X0334Y01794*
X03343Y0179*
X0334Y01785*
X03339Y01785*
X03332Y0178*
X03327Y01772*
X03325Y01763*
X03327Y01754*
X03332Y01747*
X03339Y01742*
X03348Y0174*
X03357Y01742*
X03364Y01747*
X03369Y01754*
X03371Y01763*
X03369Y01772*
X03367Y01776*
X03369Y01781*
X03371Y01781*
X03378Y01786*
X03383Y01794*
X03385Y01803*
X03383Y01812*
X03378Y01819*
X03371Y01824*
X03362Y01826*
G37*
G36*
X02421Y01751D02*
X02412Y01749D01*
X02404Y01744*
X02399Y01737*
X02398Y01728*
X02399Y01719*
X02404Y01712*
X02412Y01707*
X02421Y01705*
X0243Y01707*
X02437Y01712*
X02442Y01719*
X02444Y01728*
X02442Y01737*
X02437Y01744*
X0243Y01749*
X02421Y01751*
G37*
G36*
X02378Y0168D02*
X02369Y01678D01*
X02361Y01673*
X02356Y01666*
X02354Y01657*
X02356Y01648*
X02361Y01641*
X02369Y01636*
X02378Y01634*
X02386Y01636*
X02394Y01641*
X02399Y01648*
X02401Y01657*
X02399Y01666*
X02394Y01673*
X02386Y01678*
X02378Y0168*
G37*
G36*
X03118Y01633D02*
X03109Y01631D01*
X03104Y01628*
X03099Y01631*
X0309Y01633*
X03081Y01631*
X03074Y01626*
X03069Y01619*
X03067Y0161*
X03069Y01601*
X03074Y01593*
X03081Y01588*
X0309Y01587*
X03099Y01588*
X03104Y01592*
X03109Y01588*
X03118Y01587*
X03126Y01588*
X03134Y01593*
X03139Y01601*
X03141Y0161*
X03139Y01619*
X03134Y01626*
X03126Y01631*
X03118Y01633*
G37*
G36*
X02925Y01621D02*
X02916Y01619D01*
X02908Y01614*
X02903Y01607*
X02902Y01598*
X02903Y01589*
X02908Y01582*
X02916Y01577*
X02925Y01575*
X02934Y01577*
X02941Y01582*
X02946Y01589*
X02948Y01598*
X02946Y01607*
X02941Y01614*
X02934Y01619*
X02925Y01621*
G37*
G36*
X03326Y01499D02*
X03317Y01497D01*
X0331Y01492*
X03305Y01485*
X03303Y01476*
X03305Y01467*
X0331Y0146*
X03317Y01455*
X03326Y01453*
X03335Y01455*
X03343Y0146*
X03348Y01467*
X03349Y01476*
X03348Y01485*
X03343Y01492*
X03335Y01497*
X03326Y01499*
G37*
G36*
X0305Y01565D02*
X03041Y01564D01*
X03034Y01559*
X03029Y01551*
X03027Y01542*
X03029Y01533*
X03031Y01529*
X03031Y01528*
X03029Y01524*
X03022Y01523*
X03014Y01518*
X03009Y0151*
X03007Y01501*
X03009Y01493*
X03014Y01485*
X03022Y0148*
X0303Y01478*
X03036Y01479*
X03039Y01475*
X03037Y01468*
X03035Y01457*
X03037Y01446*
X03039Y01439*
X03036Y01435*
X0303Y01436*
X03022Y01434*
X03014Y01429*
X03009Y01421*
X03007Y01413*
X03009Y01404*
X03014Y01396*
X03022Y01391*
X0303Y0139*
X03039Y01391*
X03047Y01396*
X03052Y01404*
X03053Y01413*
X03053Y01417*
X03055Y01419*
X03057Y0142*
X03067Y01416*
X03078Y01414*
X03089Y01416*
X03099Y0142*
X03108Y01427*
X03115Y01436*
X03119Y01446*
X03121Y01457*
X03119Y01468*
X03115Y01478*
X03108Y01487*
X03099Y01494*
X03089Y01498*
X03078Y015*
X03067Y01498*
X03057Y01494*
X03055Y01496*
X03053Y01497*
X03054Y01501*
X03052Y0151*
X03049Y01514*
X03049Y01516*
X03052Y0152*
X03059Y01521*
X03066Y01526*
X03071Y01533*
X03073Y01542*
X03071Y01551*
X03066Y01559*
X03059Y01564*
X0305Y01565*
G37*
G36*
X02782Y01416D02*
X02783D01*
X02783Y01416*
X02782Y01416*
G37*
G36*
X02881Y015D02*
X0287Y01498D01*
X0286Y01494*
X02851Y01487*
X02844Y01478*
X0284Y01468*
X02838Y01457*
X0284Y01446*
X02844Y01436*
X02851Y01427*
X0286Y0142*
X0287Y01416*
X02881Y01414*
X02892Y01416*
X02902Y0142*
X02911Y01427*
X02918Y01436*
X02922Y01446*
X02924Y01457*
X02922Y01468*
X02918Y01478*
X02911Y01487*
X02902Y01494*
X02892Y01498*
X02881Y015*
G37*
G36*
X03422Y01481D02*
X03408Y0148D01*
X03394Y01476*
X03382Y01469*
X03371Y0146*
X03362Y01449*
X03355Y01436*
X03351Y01422*
X03349Y01408*
X03351Y01394*
X03355Y0138*
X03362Y01367*
X03371Y01356*
X03382Y01347*
X03394Y0134*
X03408Y01336*
X03422Y01335*
X03437Y01336*
X0345Y0134*
X03463Y01347*
X03474Y01356*
X03483Y01367*
X0349Y0138*
X03494Y01394*
X03496Y01408*
X03494Y01422*
X0349Y01436*
X03483Y01449*
X03474Y0146*
X03463Y01469*
X0345Y01476*
X03437Y0148*
X03422Y01481*
G37*
G36*
X03232Y01452D02*
X03223Y0145D01*
X03216Y01445*
X03211Y01438*
X03209Y01429*
X03211Y0142*
X03214Y01415*
X03215Y01411*
X03214Y01407*
X03211Y01402*
X03209Y01393*
X03211Y01384*
X03216Y01377*
X03217Y01376*
Y01371*
X03216Y0137*
X03211Y01363*
X03209Y01354*
X03211Y01345*
X03216Y01338*
X03223Y01333*
X03232Y01331*
X03241Y01333*
X03248Y01338*
X03253Y01345*
X03255Y01354*
X03253Y01363*
X03248Y0137*
X03247Y01371*
Y01376*
X03248Y01377*
X03253Y01384*
X03255Y01393*
X03253Y01402*
X0325Y01407*
X03249Y01411*
X0325Y01415*
X03253Y0142*
X03255Y01429*
X03253Y01438*
X03248Y01445*
X03241Y0145*
X03232Y01452*
G37*
%LNleft_board-3*%
%LPD*%
G54D87*
X02744Y03641D03*
X02695Y03722D03*
X02727Y03186D03*
X02753D03*
X03426Y04115D03*
X03123Y03905D03*
X03096D03*
Y03933D03*
X03123D03*
X03027Y0335D03*
X03074Y03389D03*
X0294Y03323D03*
X02236Y01878D03*
X02208D03*
Y0185D03*
X02236D03*
Y01822D03*
X02208D03*
X03425Y02173D03*
X03397D03*
Y02228D03*
Y022D03*
X03338Y02173D03*
X03425Y022D03*
Y02228D03*
X03338Y022D03*
X03366D03*
X03338Y02145D03*
X02275Y03381D03*
X02248D03*
Y03354D03*
X02275D03*
X03204Y03418D03*
X03206Y02215D03*
Y02188D03*
X03234D03*
Y02215D03*
M02*