%FSTAX23Y23*%
%MOIN*%
%SFA1B1*%

%IPPOS*%
%ADD9500C,0.007900*%
%ADD9501C,0.033500*%
%ADD9502C,0.080000*%
%ADD9503C,0.031500*%
%LNleft_board-roundholes-1*%
%LPD*%
G54D9500*
X02311Y01519D03*
X02338D03*
Y01492D03*
X02366D03*
Y01519D03*
Y01464D03*
X02409Y01425D03*
X02437D03*
X02464D03*
Y01397D03*
X02492D03*
X02519D03*
Y01425D03*
X02492D03*
Y01452D03*
X02519D03*
Y0148D03*
Y01507D03*
X02492D03*
Y0148D03*
X02755Y01417D03*
X02783Y01393D03*
X02811Y01417D03*
X0303Y01413D03*
X0303Y01501D03*
X0305Y01542D03*
X03232Y01429D03*
Y01393D03*
Y01354D03*
X03326Y01476D03*
X03348Y01763D03*
X03362Y01803D03*
X03345Y01855D03*
X03342Y01893D03*
X03327Y0194D03*
X0334Y01964D03*
X03328Y01993D03*
X0333Y02025D03*
X03311Y02049D03*
Y02081D03*
Y02111D03*
X03339Y02105D03*
X03341Y02066D03*
X03338Y02145D03*
Y02173D03*
Y022D03*
X03366D03*
X03397D03*
Y02173D03*
X03425D03*
Y022D03*
Y02228D03*
X03397D03*
X03444Y02118D03*
X03503Y02063D03*
X03397Y02011D03*
Y01984D03*
Y01956D03*
Y01929D03*
X03173Y01838D03*
X03143Y01798D03*
X03126Y01878D03*
X03173Y02035D03*
X03149Y02066D03*
X03135Y02102D03*
X03172Y02116D03*
X03255Y02129D03*
X03234Y02188D03*
X03206D03*
Y02215D03*
X03234D03*
X03248Y02716D03*
Y02854D03*
Y02992D03*
X03149Y02803D03*
X03409Y03122D03*
X02909Y03098D03*
X02938Y03033D03*
X02696Y02854D03*
Y02716D03*
X02834D03*
X02559D03*
Y02854D03*
Y02992D03*
Y02559D03*
X02421D03*
X02342Y02555D03*
X02259D03*
X02421Y02421D03*
Y02283D03*
Y02145D03*
Y02007D03*
X02559D03*
X02696D03*
Y02145D03*
X02559D03*
Y02283D03*
Y02421D03*
X02696D03*
X02803Y02429D03*
X02834Y02405D03*
X0283Y02358D03*
X02866Y02381D03*
X02964Y0248D03*
X03011Y02511D03*
X03035Y02488D03*
X03059Y02645D03*
X03082Y02622D03*
X0309Y02043D03*
X03122D03*
X03094Y01878D03*
X03043Y01889D03*
X0309Y01775D03*
X03118D03*
Y0161D03*
X0309D03*
X02925Y01598D03*
X02893Y01992D03*
X02834Y02007D03*
Y02145D03*
X02696Y02283D03*
X02421Y01866D03*
X02374Y01858D03*
Y01889D03*
X02342Y01818D03*
X02328Y01736D03*
X02297D03*
X02259Y01737D03*
X02227Y0176D03*
X02194Y01737D03*
X02208Y01822D03*
Y0185D03*
Y01878D03*
X02236D03*
Y0185D03*
Y01822D03*
X02421Y01728D03*
X02378Y01657D03*
X02366Y03255D03*
X02362Y03322D03*
X02421Y03342D03*
X02501Y03316D03*
X02534Y03282D03*
X0259Y03288D03*
X02582Y03358D03*
X02563Y03456D03*
X02586Y03484D03*
X02497Y03546D03*
X0248Y037D03*
X02543D03*
X02608Y03688D03*
X02602Y03755D03*
Y03815D03*
X02695Y03722D03*
X02771Y03775D03*
X02814Y03771D03*
X02878Y03771D03*
X02979Y03782D03*
X03098Y0372D03*
Y03692D03*
X03096Y03905D03*
X03123D03*
Y03933D03*
X03096D03*
X03019Y04051D03*
X02917Y04047D03*
Y04141D03*
X03019Y04189D03*
X02815Y04212D03*
Y0435D03*
X02677D03*
Y04212D03*
X0273Y03992D03*
X02789Y03995D03*
X02852D03*
X02886Y03925D03*
X02835Y03613D03*
X02782Y03623D03*
X02743Y03608D03*
X02744Y03641D03*
X02625Y03609D03*
X02417Y03696D03*
X02289Y03625D03*
X02244Y03818D03*
X02248Y03381D03*
X02275D03*
Y03354D03*
X02248D03*
X02244Y03279D03*
X02299Y03275D03*
X0235Y03393D03*
X02758Y034D03*
X02793Y03405D03*
X0289D03*
X02929Y03421D03*
X0294Y03323D03*
X02862Y0333D03*
X03027Y0335D03*
X03074Y03389D03*
X03072Y0342D03*
X03067Y03196D03*
X03035D03*
X03003D03*
X02944Y03133D03*
X02753Y03154D03*
Y03186D03*
X02727D03*
X02692Y03248D03*
X02661D03*
X0293Y03582D03*
X02961Y03587D03*
X02539Y03996D03*
X02527Y04456D03*
X02614Y04503D03*
X02677Y04488D03*
X02815D03*
X03007Y04429D03*
X03047D03*
X03086D03*
X02437Y04401D03*
X02354Y04354D03*
X03157Y04189D03*
Y04051D03*
X03153Y04007D03*
X03236Y03862D03*
X03287Y03779D03*
Y03641D03*
X0333Y03594D03*
X03396Y0355D03*
X03417Y03511D03*
Y0348D03*
X03425Y03641D03*
Y03779D03*
X03424Y03891D03*
X03457Y03959D03*
X03456Y04126D03*
X03426Y04115D03*
X03382Y04078D03*
X0335Y04429D03*
X03315D03*
X03279D03*
X03208Y037D03*
X03145D03*
X03204Y03418D03*
X03267Y03425D03*
Y03397D03*
Y0337D03*
X03291Y0335D03*
X03409Y03228D03*
X03228Y03133D03*
G54D9501*
X02881Y01457D03*
X03078D03*
G54D9502*
X03422Y01408D03*
X02261Y02263D03*
X02468Y04183D03*
X03422Y04205D03*
G54D9503*
X02522Y04359D03*
X02469Y04451D03*
M02*