%FSTAX23Y23*%
%MOIN*%
%SFA1B1*%

%IPPOS*%
%AMD23*
4,1,8,-0.009800,0.008300,-0.009800,-0.008300,-0.007300,-0.010800,0.007300,-0.010800,0.009800,-0.008300,0.009800,0.008300,0.007300,0.010800,-0.007300,0.010800,-0.009800,0.008300,0.0*
1,1,0.005000,-0.007300,0.008300*
1,1,0.005000,-0.007300,-0.008300*
1,1,0.005000,0.007300,-0.008300*
1,1,0.005000,0.007300,0.008300*
%
%AMD24*
4,1,4,-0.014800,-0.031300,0.034500,-0.002800,0.014800,0.031300,-0.034500,0.002800,-0.014800,-0.031300,0.0*
%
%AMD28*
4,1,8,0.008300,0.009800,-0.008300,0.009800,-0.010800,0.007300,-0.010800,-0.007300,-0.008300,-0.009800,0.008300,-0.009800,0.010800,-0.007300,0.010800,0.007300,0.008300,0.009800,0.0*
1,1,0.005000,0.008300,0.007300*
1,1,0.005000,-0.008300,0.007300*
1,1,0.005000,-0.008300,-0.007300*
1,1,0.005000,0.008300,-0.007300*
%
%AMD38*
4,1,8,0.013000,-0.011600,0.013000,0.011600,0.009700,0.014900,-0.009700,0.014900,-0.013000,0.011600,-0.013000,-0.011600,-0.009700,-0.014900,0.009700,-0.014900,0.013000,-0.011600,0.0*
1,1,0.006600,0.009700,-0.011600*
1,1,0.006600,0.009700,0.011600*
1,1,0.006600,-0.009700,0.011600*
1,1,0.006600,-0.009700,-0.011600*
%
%AMD40*
4,1,8,0.011600,0.013000,-0.011600,0.013000,-0.014900,0.009700,-0.014900,-0.009700,-0.011600,-0.013000,0.011600,-0.013000,0.014900,-0.009700,0.014900,0.009700,0.011600,0.013000,0.0*
1,1,0.006600,0.011600,0.009700*
1,1,0.006600,-0.011600,0.009700*
1,1,0.006600,-0.011600,-0.009700*
1,1,0.006600,0.011600,-0.009700*
%
%AMD46*
4,1,8,-0.014900,0.021900,-0.014900,-0.021900,-0.011200,-0.025600,0.011200,-0.025600,0.014900,-0.021900,0.014900,0.021900,0.011200,0.025600,-0.011200,0.025600,-0.014900,0.021900,0.0*
1,1,0.007400,-0.011200,0.021900*
1,1,0.007400,-0.011200,-0.021900*
1,1,0.007400,0.011200,-0.021900*
1,1,0.007400,0.011200,0.021900*
%
%ADD16C,0.019700*%
%ADD17R,0.019300X0.038800*%
%ADD18R,0.059100X0.074800*%
%ADD19R,0.015700X0.053100*%
%ADD20R,0.066900X0.047200*%
%ADD21R,0.039400X0.019700*%
%ADD22R,0.022800X0.021300*%
G04~CAMADD=23~8~0.0~0.0~217.0~197.0~25.0~0.0~15~0.0~0.0~0.0~0.0~0~0.0~0.0~0.0~0.0~0~0.0~0.0~0.0~90.0~196.0~216.0*
%ADD23D23*%
G04~CAMADD=24~9~0.0~0.0~571.0~394.0~0.0~0.0~0~0.0~0.0~0.0~0.0~0~0.0~0.0~0.0~0.0~0~0.0~0.0~0.0~210.0~690.0~625.0*
%ADD24D24*%
%ADD25R,0.016500X0.009100*%
%ADD26R,0.029500X0.011800*%
%ADD27R,0.025200X0.016500*%
G04~CAMADD=28~8~0.0~0.0~217.0~197.0~25.0~0.0~15~0.0~0.0~0.0~0.0~0~0.0~0.0~0.0~0.0~0~0.0~0.0~0.0~0.0~217.0~197.0*
%ADD28D28*%
%ADD29R,0.031500X0.066900*%
%ADD30O,0.023600X0.080700*%
%ADD31O,0.080700X0.023600*%
%ADD32R,0.013800X0.029500*%
%ADD33R,0.057100X0.025600*%
%ADD34R,0.021300X0.022800*%
%ADD35R,0.047200X0.055100*%
%ADD36R,0.011800X0.039400*%
%ADD37R,0.011800X0.027600*%
G04~CAMADD=38~8~0.0~0.0~299.0~260.0~33.0~0.0~15~0.0~0.0~0.0~0.0~0~0.0~0.0~0.0~0.0~0~0.0~0.0~0.0~270.0~260.0~298.0*
%ADD38D38*%
%ADD39R,0.039400X0.039400*%
G04~CAMADD=40~8~0.0~0.0~299.0~260.0~33.0~0.0~15~0.0~0.0~0.0~0.0~0~0.0~0.0~0.0~0.0~0~0.0~0.0~0.0~0.0~299.0~260.0*
%ADD40D40*%
%ADD41R,0.033500X0.033500*%
%ADD42R,0.033500X0.033500*%
%ADD43R,0.024000X0.016000*%
%ADD44R,0.013000X0.011000*%
%ADD45R,0.011000X0.013000*%
G04~CAMADD=46~8~0.0~0.0~512.0~299.0~37.0~0.0~15~0.0~0.0~0.0~0.0~0~0.0~0.0~0.0~0.0~0~0.0~0.0~0.0~90.0~298.0~512.0*
%ADD46D46*%
%ADD47R,0.090600X0.098400*%
%ADD48R,0.014200X0.013000*%
%LNleft_board-1*%
%LPD*%
G36*
X02838Y01333D02*
X02818D01*
Y01368*
X02838*
Y01333*
G37*
G36*
X03141D02*
X03121D01*
Y01368*
X03141*
Y01333*
G37*
G54D16*
X03119Y01343D02*
D01*
X03118Y01342*
X03118Y01342*
X03117Y01342*
X03116Y01342*
X03116Y01341*
X03115Y01341*
X03115Y0134*
X03114Y0134*
X03114Y0134*
X03113Y01339*
X03113Y01338*
X03112Y01338*
X03112Y01337*
X03112Y01337*
X03112Y01336*
X03111Y01335*
X03111Y01335*
X03111Y01334*
X03111Y01333*
X03111Y01333*
X03111Y01332*
X03111Y01331*
X03111Y01331*
X03112Y0133*
X03112Y01329*
X03112Y01329*
X03113Y01328*
X03113Y01327*
X03113Y01327*
X03114Y01326*
X03114Y01326*
X03115Y01325*
X03115Y01325*
X03116Y01325*
X03116Y01324*
X03117Y01324*
X03118Y01324*
X03118Y01324*
X03119Y01323*
X0312Y01323*
X0312Y01323*
X03121Y01323*
X03122Y01323*
X03122Y01323*
X03123Y01323*
X03124Y01324*
X03124Y01324*
X03125Y01324*
X03126Y01324*
X03126Y01325*
X03127Y01325*
X03127Y01326*
X03128Y01326*
X03128Y01326*
X03129Y01327*
X03129Y01328*
X0313Y01328*
X0313Y01329*
X0313Y01329*
X0313Y0133*
X03131Y01331*
X03131Y01331*
X03131Y01332*
X03131Y01333*
X03131Y01333*
D01*
X03131Y01334*
X03131Y01334*
X03131Y01335*
X03131Y01336*
X0313Y01336*
X0313Y01337*
X0313Y01338*
X03129Y01338*
X03129Y01339*
X03129Y01339*
X03128Y0134*
X03128Y0134*
X03127Y01341*
X03127Y01341*
X03126Y01341*
X03125Y01342*
X03125Y01342*
X03124Y01342*
X03123Y01343*
X03123Y01343*
X03122Y01343*
X03121Y01343*
X03121*
X0312Y01343*
X03119Y01343*
X03119Y01343*
X03131Y01368D02*
D01*
X03131Y01369*
X03131Y0137*
X03131Y0137*
X03131Y01371*
X0313Y01372*
X0313Y01372*
X0313Y01373*
X03129Y01374*
X03129Y01374*
X03129Y01375*
X03128Y01375*
X03128Y01376*
X03127Y01376*
X03127Y01377*
X03126Y01377*
X03125Y01377*
X03125Y01377*
X03124Y01378*
X03123Y01378*
X03123Y01378*
X03122Y01378*
X03121Y01378*
X03121*
X0312Y01378*
X03119Y01378*
X03119Y01378*
X03118Y01378*
X03117Y01377*
X03117Y01377*
X03116Y01377*
X03116Y01377*
X03115Y01376*
X03115Y01376*
X03114Y01375*
X03114Y01375*
X03113Y01374*
X03113Y01374*
X03112Y01373*
X03112Y01372*
X03112Y01372*
X03112Y01371*
X03112Y0137*
X03111Y0137*
X03111Y01369*
X03111Y01368*
X03111Y01368*
X03111Y01367*
X03112Y01366*
X03112Y01366*
X03112Y01365*
X03112Y01364*
X03112Y01364*
X03113Y01363*
X03113Y01363*
X03114Y01362*
X03114Y01362*
X03115Y01361*
X03115Y01361*
X03116Y0136*
X03116Y0136*
X03117Y0136*
X03117Y01359*
X03118Y01359*
X03119Y01359*
X03119Y01359*
X0312Y01359*
X03121Y01359*
X03121*
X03122Y01359*
X03123Y01359*
X03123Y01359*
X03124Y01359*
X03125Y01359*
X03125Y0136*
X03126Y0136*
X03127Y0136*
X03127Y01361*
X03128Y01361*
X03128Y01362*
X03129Y01362*
X03129Y01363*
X03129Y01363*
X0313Y01364*
X0313Y01364*
X0313Y01365*
X03131Y01366*
X03131Y01366*
X03131Y01367*
X03131Y01368*
X03131Y01368*
X02848D02*
D01*
X02847Y01369*
X02847Y0137*
X02847Y0137*
X02847Y01371*
X02847Y01372*
X02847Y01372*
X02846Y01373*
X02846Y01374*
X02846Y01374*
X02845Y01375*
X02845Y01375*
X02844Y01376*
X02844Y01376*
X02843Y01377*
X02843Y01377*
X02842Y01377*
X02841Y01377*
X02841Y01378*
X0284Y01378*
X02839Y01378*
X02839Y01378*
X02838Y01378*
X02837*
X02837Y01378*
X02836Y01378*
X02835Y01378*
X02835Y01378*
X02834Y01377*
X02833Y01377*
X02833Y01377*
X02832Y01377*
X02832Y01376*
X02831Y01376*
X02831Y01375*
X0283Y01375*
X0283Y01374*
X02829Y01374*
X02829Y01373*
X02829Y01372*
X02828Y01372*
X02828Y01371*
X02828Y0137*
X02828Y0137*
X02828Y01369*
X02828Y01368*
X02828Y01368*
X02828Y01367*
X02828Y01366*
X02828Y01366*
X02828Y01365*
X02829Y01364*
X02829Y01364*
X02829Y01363*
X0283Y01363*
X0283Y01362*
X02831Y01362*
X02831Y01361*
X02832Y01361*
X02832Y0136*
X02833Y0136*
X02833Y0136*
X02834Y01359*
X02835Y01359*
X02835Y01359*
X02836Y01359*
X02837Y01359*
X02837Y01359*
X02838*
X02839Y01359*
X02839Y01359*
X0284Y01359*
X02841Y01359*
X02841Y01359*
X02842Y0136*
X02843Y0136*
X02843Y0136*
X02844Y01361*
X02844Y01361*
X02845Y01362*
X02845Y01362*
X02846Y01363*
X02846Y01363*
X02846Y01364*
X02847Y01364*
X02847Y01365*
X02847Y01366*
X02847Y01366*
X02847Y01367*
X02847Y01368*
X02848Y01368*
Y01333D02*
D01*
X02847Y01334*
X02847Y01334*
X02847Y01335*
X02847Y01336*
X02847Y01336*
X02847Y01337*
X02846Y01338*
X02846Y01338*
X02846Y01339*
X02845Y01339*
X02845Y0134*
X02844Y0134*
X02844Y01341*
X02843Y01341*
X02843Y01341*
X02842Y01342*
X02841Y01342*
X02841Y01342*
X0284Y01343*
X02839Y01343*
X02839Y01343*
X02838Y01343*
X02837*
X02837Y01343*
X02836Y01343*
X02835Y01343*
X02835Y01342*
X02834Y01342*
X02833Y01342*
X02833Y01341*
X02832Y01341*
X02832Y01341*
X02831Y0134*
X02831Y0134*
X0283Y01339*
X0283Y01339*
X02829Y01338*
X02829Y01338*
X02829Y01337*
X02828Y01336*
X02828Y01336*
X02828Y01335*
X02828Y01334*
X02828Y01334*
X02828Y01333*
X02828Y01332*
X02828Y01332*
X02828Y01331*
X02828Y0133*
X02828Y0133*
X02829Y01329*
X02829Y01328*
X02829Y01328*
X0283Y01327*
X0283Y01327*
X02831Y01326*
X02831Y01326*
X02832Y01325*
X02832Y01325*
X02833Y01325*
X02833Y01324*
X02834Y01324*
X02835Y01324*
X02835Y01323*
X02836Y01323*
X02837Y01323*
X02837Y01323*
X02838*
X02839Y01323*
X02839Y01323*
X0284Y01323*
X02841Y01324*
X02841Y01324*
X02842Y01324*
X02843Y01325*
X02843Y01325*
X02844Y01325*
X02844Y01326*
X02845Y01326*
X02845Y01327*
X02846Y01327*
X02846Y01328*
X02846Y01328*
X02847Y01329*
X02847Y0133*
X02847Y0133*
X02847Y01331*
X02847Y01332*
X02847Y01332*
X02848Y01333*
G54D17*
X02783Y01522D03*
Y0143D03*
G54D18*
X03019Y01351D03*
X0294D03*
X02859D03*
X03099D03*
G54D19*
X03031Y01457D03*
X03005D03*
X02979D03*
X02954D03*
X02928D03*
G54D20*
X02222Y02503D03*
Y02732D03*
G54D21*
X02299Y02555D03*
Y02586D03*
Y02618D03*
Y02649D03*
Y02681D03*
G54D22*
X03204Y01431D03*
X03173D03*
X03203Y01392D03*
X03173D03*
X03236Y03389D03*
X03206D03*
X03323Y03355D03*
X03353D03*
X03368Y03552D03*
X03338D03*
X0258Y03326D03*
X0261D03*
X0258Y03389D03*
X0261D03*
X0231Y01818D03*
X02279D03*
G54D23*
X03206Y01354D03*
X03171D03*
X02312Y01653D03*
X02347D03*
X02257Y03539D03*
X02293D03*
X03348Y01685D03*
X03313D03*
X02261Y03681D03*
X02297D03*
X03313Y01732D03*
X03348D03*
X03422Y03991D03*
X03457D03*
G54D24*
X02391Y04383D03*
X02425Y04325D03*
X02567Y04485D03*
X026Y04427D03*
G54D25*
X03369Y02034D03*
Y0205D03*
X03283Y01877D03*
X03369D03*
X03283Y01892D03*
X03369D03*
X03283Y01908D03*
X03369D03*
X03283Y01924D03*
X03369D03*
X03283Y0194D03*
X03369D03*
X03283Y01955D03*
X03369D03*
X03283Y01971D03*
X03369D03*
X03283Y01987D03*
X03369D03*
X03283Y02003D03*
X03369D03*
X03283Y02018D03*
X03369D03*
X03283Y02034D03*
Y0205D03*
Y02066D03*
X03369D03*
X03283Y02081D03*
X03369D03*
X03283Y02097D03*
X03369D03*
X03283Y02113D03*
X03369D03*
X03283Y02129D03*
X03369D03*
X03283Y02144D03*
X03369D03*
X03283Y0216D03*
X03369D03*
X03283Y02176D03*
X03369D03*
G54D26*
X0329Y01829D03*
X03363D03*
X0329Y02223D03*
X03363D03*
G54D27*
X0323Y03267D03*
X03289D03*
G54D28*
X03228Y03198D03*
Y03163D03*
X03457Y04093D03*
Y04058D03*
X03237Y0345D03*
Y03486D03*
X02813Y03111D03*
Y03075D03*
X02845Y03111D03*
Y03075D03*
G54D29*
X03409Y03176D03*
X03275D03*
G54D30*
X02751Y03259D03*
X02782D03*
X02814D03*
X02845D03*
X02877D03*
X02908D03*
X0294D03*
X02971D03*
X03003D03*
X03034D03*
X03065D03*
Y03708D03*
X03034D03*
X03003D03*
X02971D03*
X0294D03*
X02908D03*
X02877D03*
X02845D03*
X02814D03*
X02782D03*
X02751D03*
G54D31*
X03132Y03326D03*
Y03358D03*
Y03389D03*
Y03421D03*
Y03452D03*
Y03484D03*
Y03515D03*
Y03547D03*
Y03578D03*
Y0361D03*
Y03641D03*
X02684D03*
Y0361D03*
Y03578D03*
Y03547D03*
Y03515D03*
Y03484D03*
Y03452D03*
Y03421D03*
Y03389D03*
Y03358D03*
Y03326D03*
G54D32*
X02287Y01696D03*
X02313D03*
X02338D03*
Y01775D03*
X02313D03*
X02287D03*
G54D33*
X02313Y01736D03*
G54D34*
X02228Y01697D03*
Y01728D03*
X02782Y03155D03*
Y03186D03*
X02925Y0157D03*
Y01539D03*
G54D35*
X03376Y03496D03*
Y03409D03*
X03309D03*
Y03496D03*
G54D36*
X02411Y03251D03*
X0227D03*
G54D37*
X0236Y03356D03*
X02301D03*
X02321D03*
X02341D03*
X0238D03*
G54D38*
X02694Y03689D03*
X02639D03*
X03036Y03783D03*
X03091D03*
G54D39*
X03122Y0384D03*
X03043D03*
G54D40*
X02907Y03187D03*
Y03131D03*
G54D41*
X02602Y03247D03*
X02533D03*
G54D42*
X02533Y03318D03*
Y03387D03*
G54D43*
X02204Y03684D03*
Y03645D03*
Y03574D03*
Y03535D03*
G54D44*
X03407Y04077D03*
X03427Y04059D03*
G54D45*
X03408Y04058D03*
X03426Y04078D03*
G54D46*
X0234Y01873D03*
X0227D03*
G54D47*
X02429Y01492D03*
X02673D03*
G54D48*
X03075Y01543D03*
X03121Y01529D03*
Y01557D03*
M02*