%FSTAX23Y23*%
%MOIN*%
%SFA1B1*%

%IPPOS*%
%ADD13C,0.005900*%
%LNmain_board-1*%
%LPD*%
G54D13*
X02389Y01161D02*
D01*
X02389Y01158*
X0239Y01155*
X0239Y01153*
X02391Y0115*
X02392Y01147*
X02393Y01145*
X02394Y01142*
X02395Y0114*
X02397Y01138*
X02399Y01136*
X024Y01134*
X02402Y01132*
X02404Y0113*
X02407Y01128*
X02409Y01127*
X02411Y01125*
X02414Y01124*
X02417Y01123*
X02419Y01123*
X02422Y01122*
X02425Y01122*
X02427Y01122*
X02429Y04507D02*
D01*
X02426Y04507*
X02423Y04507*
X0242Y04507*
X02418Y04506*
X02415Y04505*
X02413Y04504*
X0241Y04503*
X02408Y04501*
X02405Y045*
X02403Y04498*
X02401Y04496*
X02399Y04494*
X02398Y04492*
X02396Y0449*
X02394Y04488*
X02393Y04485*
X02392Y04483*
X02391Y0448*
X0239Y04478*
X0239Y04475*
X02389Y04472*
X02389Y0447*
X02597Y04217D02*
D01*
X02595Y04217*
X02594Y04216*
X02592Y04216*
X0259Y04216*
X02589Y04215*
X02587Y04214*
X02586Y04213*
X02585Y04212*
X02583Y04211*
X02582Y0421*
X02581Y04209*
X0258Y04208*
X02579Y04206*
X02578Y04205*
X02577Y04203*
X02577Y04202*
X02576Y042*
X02576Y04199*
X02576Y04197*
X02575Y04196*
X02575Y04194*
X02575Y04192*
X02575Y04191*
X02576Y04189*
X02576Y04187*
X02576Y04186*
X02577Y04184*
X02578Y04183*
X02579Y04181*
X02579Y0418*
X0258Y04179*
X02582Y04177*
X02583Y04176*
X02584Y04175*
X02585Y04174*
X02587Y04173*
X02588Y04172*
X0259Y04172*
X02591Y04171*
X02593Y04171*
X02594Y0417*
X02596Y0417*
X02597Y0417*
X02617Y04022D02*
D01*
X02617Y04021*
X02617Y0402*
X02617Y04018*
X02618Y04017*
X02618Y04016*
X02619Y04015*
X0262Y04013*
X02621Y04012*
X02621Y04011*
X02622Y0401*
X02623Y04009*
X02624Y04008*
X02626Y04008*
X02627Y04007*
X02628Y04006*
X02629Y04006*
X02631Y04005*
X02632Y04005*
X02633Y04005*
X02635Y04005*
X02636Y04004*
X02637Y04004*
X02639Y04005*
X0264Y04005*
X02641Y04005*
X02643Y04005*
X02644Y04006*
X02645Y04007*
X02646Y04007*
X02648Y04008*
X02649Y04009*
X0265Y0401*
X02651Y04011*
X02652Y04012*
X02652Y04013*
X02653Y04014*
X02654Y04015*
X02654Y04016*
X02655Y04018*
X02655Y04019*
X02656Y0402*
X02826Y04018D02*
D01*
X02827Y04017*
X02827Y04016*
X02828Y04014*
X02829Y04013*
X02829Y04012*
X0283Y04011*
X02831Y0401*
X02832Y04009*
X02833Y04008*
X02834Y04007*
X02836Y04007*
X02837Y04006*
X02838Y04006*
X02839Y04005*
X02841Y04005*
X02842Y04005*
X02843Y04004*
X02845Y04004*
X02846Y04004*
X02848Y04005*
X02849Y04005*
X0285Y04005*
X02852Y04006*
X02853Y04006*
X02854Y04007*
X02855Y04007*
X02856Y04008*
X02858Y04009*
X02859Y0401*
X0286Y04011*
X0286Y04012*
X02861Y04013*
X02862Y04014*
X02863Y04015*
X02863Y04017*
X02864Y04018*
X02864Y04019*
X02864Y0402*
X02865Y04022*
X02865Y04022*
X02884Y0417D02*
D01*
X02886Y0417*
X02888Y0417*
X02889Y04171*
X02891Y04171*
X02892Y04172*
X02894Y04173*
X02895Y04174*
X02897Y04174*
X02898Y04175*
X02899Y04177*
X029Y04178*
X02901Y04179*
X02902Y0418*
X02903Y04182*
X02904Y04183*
X02904Y04185*
X02905Y04186*
X02905Y04188*
X02906Y0419*
X02906Y04191*
X02906Y04193*
X02906Y04195*
X02906Y04196*
X02906Y04198*
X02905Y04199*
X02905Y04201*
X02904Y04203*
X02904Y04204*
X02903Y04206*
X02902Y04207*
X02901Y04208*
X029Y0421*
X02899Y04211*
X02897Y04212*
X02896Y04213*
X02895Y04214*
X02893Y04214*
X02892Y04215*
X0289Y04216*
X02889Y04216*
X02887Y04217*
X02885Y04217*
X02884Y04217*
X05145Y0447D02*
D01*
X05145Y04473*
X05144Y04476*
X05144Y04478*
X05143Y04481*
X05142Y04484*
X05141Y04486*
X05139Y04488*
X05138Y04491*
X05136Y04493*
X05134Y04495*
X05133Y04497*
X0513Y04499*
X05128Y045*
X05126Y04502*
X05124Y04503*
X05121Y04504*
X05118Y04505*
X05116Y04506*
X05113Y04507*
X0511Y04507*
X05108Y04507*
X05107Y04507*
X05145Y04135D02*
D01*
X05145Y04132*
X05146Y04129*
X05147Y04126*
X05148Y04123*
X05149Y0412*
X0515Y04118*
X05151Y04115*
X05153Y04112*
X05155Y0411*
X05157Y04108*
X05159Y04106*
X05161Y04104*
X05164Y04102*
X05166Y041*
X05169Y04099*
X05172Y04097*
X05175Y04096*
X05177Y04095*
X0518Y04095*
X05183Y04094*
X05186Y04094*
X05187Y04094*
X0524Y03897D02*
D01*
X05246Y03897*
X05253Y03898*
X0526Y03899*
X05267Y03901*
X05273Y03903*
X0528Y03906*
X05286Y03909*
X05292Y03913*
X05297Y03916*
X05303Y03921*
X05308Y03925*
X05312Y0393*
X05317Y03936*
X05321Y03941*
X05324Y03947*
X05328Y03953*
X0533Y03959*
X05333Y03966*
X05334Y03973*
X05336Y03979*
X05337Y03986*
X05337Y03993*
X05337Y04*
X05336Y04007*
X05335Y04013*
X05334Y0402*
X05332Y04027*
X0533Y04033*
X05327Y04039*
X05323Y04045*
X0532Y04051*
X05316Y04057*
X05311Y04062*
X05306Y04067*
X05301Y04071*
X05296Y04076*
X0529Y04079*
X05284Y04083*
X05278Y04086*
X05272Y04088*
X05265Y0409*
X05258Y04092*
X05252Y04093*
X05245Y04094*
X05239Y04094*
X05186Y03897D02*
D01*
X05183Y03897*
X0518Y03896*
X05177Y03896*
X05174Y03895*
X05172Y03894*
X05169Y03892*
X05166Y03891*
X05164Y03889*
X05161Y03887*
X05159Y03885*
X05157Y03883*
X05155Y03881*
X05153Y03879*
X05151Y03876*
X0515Y03873*
X05149Y03871*
X05147Y03868*
X05147Y03865*
X05146Y03862*
X05145Y03859*
X05145Y03856*
X05145Y03855*
Y02274D02*
D01*
X05145Y02271*
X05146Y02268*
X05147Y02265*
X05148Y02262*
X05149Y02259*
X0515Y02257*
X05151Y02254*
X05153Y02251*
X05155Y02249*
X05157Y02247*
X05159Y02245*
X05161Y02243*
X05164Y02241*
X05166Y02239*
X05169Y02238*
X05172Y02236*
X05173Y02236*
X05178Y02049D02*
D01*
X05185Y02051*
X05191Y02054*
X05197Y02058*
X05203Y02061*
X05208Y02066*
X05213Y0207*
X05218Y02075*
X05222Y0208*
X05227Y02086*
X0523Y02092*
X05233Y02098*
X05236Y02104*
X05239Y0211*
X05241Y02117*
X05242Y02124*
X05243Y02131*
X05244Y02137*
X05244Y02144*
X05243Y02151*
X05242Y02158*
X05241Y02165*
X05239Y02171*
X05237Y02178*
X05234Y02184*
X05231Y0219*
X05227Y02196*
X05223Y02202*
X05219Y02207*
X05214Y02212*
X05209Y02216*
X05203Y02221*
X05198Y02225*
X05192Y02228*
X05186Y02231*
X05179Y02234*
X05174Y02235*
X05178Y02048D02*
D01*
X05175Y02047*
X05172Y02046*
X05169Y02045*
X05167Y02044*
X05164Y02042*
X05162Y0204*
X05159Y02038*
X05157Y02036*
X05155Y02034*
X05153Y02031*
X05152Y02029*
X0515Y02026*
X05149Y02024*
X05148Y02021*
X05147Y02018*
X05146Y02015*
X05145Y02012*
X05145Y02009*
X05145Y02009*
X05108Y01122D02*
D01*
X05111Y01122*
X05113Y01122*
X05116Y01123*
X05119Y01124*
X05121Y01125*
X05124Y01126*
X05126Y01127*
X05128Y01129*
X05131Y0113*
X05133Y01132*
X05135Y01134*
X05136Y01136*
X05138Y01138*
X0514Y01141*
X05141Y01143*
X05142Y01146*
X05143Y01148*
X05144Y01151*
X05144Y01154*
X05145Y01156*
X05145Y01159*
X05145Y0116*
X02389Y01161D02*
Y0447D01*
X02429Y04507D02*
X02596D01*
X02617Y04487*
X02613Y04217D02*
X02617Y04221D01*
Y04487*
X02598Y04217D02*
X02612D01*
X02598Y0417D02*
X02614D01*
X02617Y04167*
Y04023D02*
Y04167D01*
X02656Y0402D02*
X0266Y04024D01*
X02663*
X02817*
X0282D02*
X02826Y04018D01*
X02865Y04025D02*
Y04164D01*
Y04167D02*
X02868Y0417D01*
X02884*
X02865Y04222D02*
X0287Y04217D01*
X02883*
X02865Y04222D02*
Y04487D01*
Y04488D02*
X02884Y04507D01*
X05106*
X05145Y04135D02*
Y0447D01*
X05187Y04094D02*
X05239D01*
X05186Y03897D02*
X0524D01*
X05145Y02274D02*
Y03855D01*
Y01161D02*
Y0201D01*
X02427Y01122D02*
X05108D01*
M02*