%FSTAX23Y23*%
%MOIN*%
%SFA1B1*%

%IPPOS*%
%ADD10C,0.009800*%
%ADD11C,0.007900*%
%ADD12C,0.003900*%
%ADD13C,0.005900*%
%ADD15C,0.015700*%
%ADD16C,0.006000*%
%ADD17C,0.005100*%
%ADD208C,0.019700*%
%ADD213C,0.023600*%
%ADD335C,0.012800*%
%LNmain_board-1*%
%LPD*%
G54D10*
X03681Y03912D02*
D01*
X03681Y03912*
X03681Y03913*
X03681Y03913*
X03681Y03913*
X0368Y03914*
X0368Y03914*
X0368Y03914*
X0368Y03914*
X0368Y03915*
X0368Y03915*
X03679Y03915*
X03679Y03916*
X03679Y03916*
X03679Y03916*
X03678Y03916*
X03678Y03916*
X03678Y03916*
X03677Y03917*
X03677Y03917*
X03677Y03917*
X03676Y03917*
X03676Y03917*
X03676*
X03675Y03917*
X03675Y03917*
X03675Y03917*
X03674Y03917*
X03674Y03916*
X03674Y03916*
X03673Y03916*
X03673Y03916*
X03673Y03916*
X03673Y03916*
X03672Y03915*
X03672Y03915*
X03672Y03915*
X03672Y03914*
X03671Y03914*
X03671Y03914*
X03671Y03914*
X03671Y03913*
X03671Y03913*
X03671Y03913*
X03671Y03912*
X03671Y03912*
X03671Y03912*
X03671Y03911*
X03671Y03911*
X03671Y03911*
X03671Y0391*
X03671Y0391*
X03671Y0391*
X03672Y03909*
X03672Y03909*
X03672Y03909*
X03672Y03908*
X03673Y03908*
X03673Y03908*
X03673Y03908*
X03673Y03908*
X03674Y03907*
X03674Y03907*
X03674Y03907*
X03675Y03907*
X03675Y03907*
X03675Y03907*
X03676Y03907*
X03676*
X03676Y03907*
X03677Y03907*
X03677Y03907*
X03677Y03907*
X03678Y03907*
X03678Y03907*
X03678Y03908*
X03679Y03908*
X03679Y03908*
X03679Y03908*
X03679Y03908*
X0368Y03909*
X0368Y03909*
X0368Y03909*
X0368Y0391*
X0368Y0391*
X0368Y0391*
X03681Y03911*
X03681Y03911*
X03681Y03911*
X03681Y03912*
X03681Y03912*
X04384Y03524D02*
D01*
X04384Y03524*
X04384Y03524*
X04384Y03525*
X04384Y03525*
X04384Y03525*
X04384Y03526*
X04383Y03526*
X04383Y03526*
X04383Y03527*
X04383Y03527*
X04383Y03527*
X04382Y03527*
X04382Y03528*
X04382Y03528*
X04382Y03528*
X04381Y03528*
X04381Y03528*
X04381Y03528*
X0438Y03529*
X0438Y03529*
X0438Y03529*
X04379Y03529*
X04379*
X04379Y03529*
X04378Y03529*
X04378Y03529*
X04378Y03528*
X04377Y03528*
X04377Y03528*
X04377Y03528*
X04376Y03528*
X04376Y03528*
X04376Y03527*
X04376Y03527*
X04375Y03527*
X04375Y03527*
X04375Y03526*
X04375Y03526*
X04375Y03526*
X04374Y03525*
X04374Y03525*
X04374Y03525*
X04374Y03524*
X04374Y03524*
X04374Y03524*
X04374Y03523*
X04374Y03523*
X04374Y03523*
X04374Y03522*
X04374Y03522*
X04375Y03522*
X04375Y03521*
X04375Y03521*
X04375Y03521*
X04375Y03521*
X04376Y0352*
X04376Y0352*
X04376Y0352*
X04376Y0352*
X04377Y0352*
X04377Y03519*
X04377Y03519*
X04378Y03519*
X04378Y03519*
X04378Y03519*
X04379Y03519*
X04379Y03519*
X04379*
X0438Y03519*
X0438Y03519*
X0438Y03519*
X04381Y03519*
X04381Y03519*
X04381Y03519*
X04382Y0352*
X04382Y0352*
X04382Y0352*
X04382Y0352*
X04383Y0352*
X04383Y03521*
X04383Y03521*
X04383Y03521*
X04383Y03521*
X04384Y03522*
X04384Y03522*
X04384Y03522*
X04384Y03523*
X04384Y03523*
X04384Y03523*
X04384Y03524*
X03132Y03792D02*
D01*
X03132Y03792*
X03132Y03792*
X03132Y03793*
X03132Y03793*
X03132Y03793*
X03132Y03794*
X03132Y03794*
X03132Y03794*
X03131Y03795*
X03131Y03795*
X03131Y03795*
X03131Y03795*
X03131Y03796*
X0313Y03796*
X0313Y03796*
X0313Y03796*
X03129Y03796*
X03129Y03796*
X03129Y03797*
X03128Y03797*
X03128Y03797*
X03128Y03797*
X03127*
X03127Y03797*
X03127Y03797*
X03126Y03797*
X03126Y03796*
X03126Y03796*
X03125Y03796*
X03125Y03796*
X03125Y03796*
X03124Y03796*
X03124Y03795*
X03124Y03795*
X03124Y03795*
X03124Y03795*
X03123Y03794*
X03123Y03794*
X03123Y03794*
X03123Y03793*
X03123Y03793*
X03123Y03793*
X03123Y03792*
X03123Y03792*
X03123Y03792*
X03123Y03791*
X03123Y03791*
X03123Y03791*
X03123Y0379*
X03123Y0379*
X03123Y0379*
X03123Y03789*
X03123Y03789*
X03124Y03789*
X03124Y03789*
X03124Y03788*
X03124Y03788*
X03124Y03788*
X03125Y03788*
X03125Y03788*
X03125Y03787*
X03126Y03787*
X03126Y03787*
X03126Y03787*
X03127Y03787*
X03127Y03787*
X03127Y03787*
X03128*
X03128Y03787*
X03128Y03787*
X03129Y03787*
X03129Y03787*
X03129Y03787*
X0313Y03787*
X0313Y03788*
X0313Y03788*
X03131Y03788*
X03131Y03788*
X03131Y03788*
X03131Y03789*
X03131Y03789*
X03132Y03789*
X03132Y03789*
X03132Y0379*
X03132Y0379*
X03132Y0379*
X03132Y03791*
X03132Y03791*
X03132Y03791*
X03132Y03792*
X02629Y01914D02*
D01*
X02629Y01915*
X02629Y01915*
X02628Y01915*
X02628Y01916*
X02628Y01916*
X02628Y01916*
X02628Y01917*
X02628Y01917*
X02628Y01917*
X02627Y01918*
X02627Y01918*
X02627Y01918*
X02627Y01918*
X02626Y01918*
X02626Y01919*
X02626Y01919*
X02626Y01919*
X02625Y01919*
X02625Y01919*
X02625Y01919*
X02624Y01919*
X02624Y01919*
X02624*
X02623Y01919*
X02623Y01919*
X02623Y01919*
X02622Y01919*
X02622Y01919*
X02622Y01919*
X02621Y01919*
X02621Y01918*
X02621Y01918*
X0262Y01918*
X0262Y01918*
X0262Y01918*
X0262Y01917*
X0262Y01917*
X02619Y01917*
X02619Y01916*
X02619Y01916*
X02619Y01916*
X02619Y01915*
X02619Y01915*
X02619Y01915*
X02619Y01914*
X02619Y01914*
X02619Y01914*
X02619Y01913*
X02619Y01913*
X02619Y01913*
X02619Y01912*
X02619Y01912*
X0262Y01912*
X0262Y01912*
X0262Y01911*
X0262Y01911*
X0262Y01911*
X02621Y01911*
X02621Y0191*
X02621Y0191*
X02622Y0191*
X02622Y0191*
X02622Y0191*
X02623Y0191*
X02623Y0191*
X02623Y0191*
X02624Y0191*
X02624*
X02624Y0191*
X02625Y0191*
X02625Y0191*
X02625Y0191*
X02626Y0191*
X02626Y0191*
X02626Y0191*
X02626Y0191*
X02627Y01911*
X02627Y01911*
X02627Y01911*
X02627Y01911*
X02628Y01912*
X02628Y01912*
X02628Y01912*
X02628Y01912*
X02628Y01913*
X02628Y01913*
X02628Y01913*
X02629Y01914*
X02629Y01914*
X02629Y01914*
X03802Y0399D02*
D01*
X03802Y0399*
X03802Y0399*
X03802Y03991*
X03802Y03991*
X03801Y03991*
X03801Y03992*
X03801Y03992*
X03801Y03992*
X03801Y03993*
X03801Y03993*
X038Y03993*
X038Y03993*
X038Y03994*
X038Y03994*
X03799Y03994*
X03799Y03994*
X03799Y03994*
X03798Y03994*
X03798Y03994*
X03798Y03995*
X03797Y03995*
X03797Y03995*
X03797*
X03796Y03995*
X03796Y03995*
X03796Y03994*
X03795Y03994*
X03795Y03994*
X03795Y03994*
X03794Y03994*
X03794Y03994*
X03794Y03994*
X03794Y03993*
X03793Y03993*
X03793Y03993*
X03793Y03993*
X03793Y03992*
X03792Y03992*
X03792Y03992*
X03792Y03991*
X03792Y03991*
X03792Y03991*
X03792Y0399*
X03792Y0399*
X03792Y0399*
X03792Y03989*
X03792Y03989*
X03792Y03989*
X03792Y03988*
X03792Y03988*
X03792Y03988*
X03792Y03987*
X03793Y03987*
X03793Y03987*
X03793Y03987*
X03793Y03986*
X03794Y03986*
X03794Y03986*
X03794Y03986*
X03794Y03985*
X03795Y03985*
X03795Y03985*
X03795Y03985*
X03796Y03985*
X03796Y03985*
X03796Y03985*
X03797Y03985*
X03797*
X03797Y03985*
X03798Y03985*
X03798Y03985*
X03798Y03985*
X03799Y03985*
X03799Y03985*
X03799Y03985*
X038Y03986*
X038Y03986*
X038Y03986*
X038Y03986*
X03801Y03987*
X03801Y03987*
X03801Y03987*
X03801Y03987*
X03801Y03988*
X03801Y03988*
X03802Y03988*
X03802Y03989*
X03802Y03989*
X03802Y03989*
X03802Y0399*
X0328Y04075D02*
D01*
X0328Y04076*
X0328Y04076*
X0328Y04076*
X0328Y04077*
X0328Y04077*
X03279Y04077*
X03279Y04078*
X03279Y04078*
X03279Y04078*
X03279Y04078*
X03278Y04079*
X03278Y04079*
X03278Y04079*
X03278Y04079*
X03277Y0408*
X03277Y0408*
X03277Y0408*
X03276Y0408*
X03276Y0408*
X03276Y0408*
X03275Y0408*
X03275Y0408*
X03275*
X03274Y0408*
X03274Y0408*
X03274Y0408*
X03273Y0408*
X03273Y0408*
X03273Y0408*
X03272Y0408*
X03272Y04079*
X03272Y04079*
X03272Y04079*
X03271Y04079*
X03271Y04078*
X03271Y04078*
X03271Y04078*
X03271Y04078*
X0327Y04077*
X0327Y04077*
X0327Y04077*
X0327Y04076*
X0327Y04076*
X0327Y04076*
X0327Y04075*
X0327Y04075*
X0327Y04075*
X0327Y04074*
X0327Y04074*
X0327Y04074*
X0327Y04073*
X03271Y04073*
X03271Y04073*
X03271Y04072*
X03271Y04072*
X03271Y04072*
X03272Y04072*
X03272Y04071*
X03272Y04071*
X03272Y04071*
X03273Y04071*
X03273Y04071*
X03273Y04071*
X03274Y04071*
X03274Y0407*
X03274Y0407*
X03275Y0407*
X03275*
X03275Y0407*
X03276Y0407*
X03276Y04071*
X03276Y04071*
X03277Y04071*
X03277Y04071*
X03277Y04071*
X03278Y04071*
X03278Y04071*
X03278Y04072*
X03278Y04072*
X03279Y04072*
X03279Y04072*
X03279Y04073*
X03279Y04073*
X03279Y04073*
X0328Y04074*
X0328Y04074*
X0328Y04074*
X0328Y04075*
X0328Y04075*
X0328Y04075*
G54D11*
X03393Y02187D02*
D01*
X03393Y02186*
X03393Y02186*
X03393Y02186*
X03393Y02186*
X03393Y02186*
X03393Y02186*
X03393Y02186*
X03394Y02185*
X03394Y02185*
X03394Y02185*
X03394Y02185*
X03394Y02185*
X03394Y02185*
X03394Y02185*
X03394Y02185*
X03394Y02185*
X03394Y02185*
X03395Y02185*
X03395Y02185*
X03395Y02185*
X03395Y02185*
X03395Y02185*
X03395*
X03395Y02185*
X03396Y02185*
X03396Y02185*
X03396Y02185*
X03396Y02185*
X03396Y02185*
X03396Y02185*
X03396Y02185*
X03396Y02185*
X03397Y02185*
X03397Y02185*
X03397Y02185*
X03397Y02185*
X03397Y02185*
X03397Y02186*
X03397Y02186*
X03397Y02186*
X03397Y02186*
X03397Y02186*
X03397Y02186*
X03397Y02186*
X03397Y02187*
D01*
X03397Y02187*
X03397Y02187*
X03397Y02187*
X03397Y02187*
X03397Y02187*
X03397Y02187*
X03397Y02187*
X03397Y02188*
X03397Y02188*
X03397Y02188*
X03397Y02188*
X03396Y02188*
X03396Y02188*
X03396Y02188*
X03396Y02188*
X03396Y02188*
X03396Y02188*
X03396Y02188*
X03396Y02188*
X03395Y02188*
X03395Y02188*
X03395Y02188*
X03395*
X03395Y02188*
X03395Y02188*
X03395Y02188*
X03394Y02188*
X03394Y02188*
X03394Y02188*
X03394Y02188*
X03394Y02188*
X03394Y02188*
X03394Y02188*
X03394Y02188*
X03394Y02188*
X03393Y02188*
X03393Y02188*
X03393Y02187*
X03393Y02187*
X03393Y02187*
X03393Y02187*
X03393Y02187*
X03393Y02187*
X03393Y02187*
X03393Y02187*
D01*
X03393Y02186*
X03393Y02186*
X03393Y02186*
X03393Y02186*
X03393Y02186*
X03393Y02186*
X03393Y02186*
X03394Y02185*
X03394Y02185*
X03394Y02185*
X03394Y02185*
X03394Y02185*
X03394Y02185*
X03394Y02185*
X03394Y02185*
X03394Y02185*
X03394Y02185*
X03395Y02185*
X03395Y02185*
X03395Y02185*
X03395Y02185*
X03395Y02185*
X03395*
X03395Y02185*
X03396Y02185*
X03396Y02185*
X03396Y02185*
X03396Y02185*
X03396Y02185*
X03396Y02185*
X03396Y02185*
X03396Y02185*
X03397Y02185*
X03397Y02185*
X03397Y02185*
X03397Y02185*
X03397Y02185*
X03397Y02186*
X03397Y02186*
X03397Y02186*
X03397Y02186*
X03397Y02186*
X03397Y02186*
X03397Y02186*
X03397Y02187*
X05045Y04128D02*
Y04011D01*
Y04128D02*
X05133D01*
Y04011D02*
Y04128D01*
X04135Y03483D02*
Y036D01*
X04224*
Y03483D02*
Y036D01*
X04353Y03336D02*
Y03453D01*
X04264D02*
X04353D01*
X04264Y03336D02*
Y03453D01*
X0504Y03349D02*
Y03466D01*
X05128*
Y03349*
X04372Y03352D02*
Y03449D01*
X04442Y03352D02*
Y03449D01*
X03037Y03419D02*
X03075D01*
X03214D02*
X03251D01*
Y03205D02*
Y03419D01*
X03037Y03205D02*
X03075D01*
X03214D02*
X03251D01*
X03037D02*
Y03419D01*
X03544Y03545D02*
Y03946D01*
X03402Y03545D02*
X03544D01*
X03402D02*
Y03946D01*
X03544*
X04441Y03528D02*
Y04051D01*
X04965*
Y03528D02*
Y04051D01*
X04441Y03528D02*
X04965D01*
X02468Y01141D02*
Y01161D01*
Y01141D02*
X03027D01*
Y01161*
X02468Y01318D02*
Y01692D01*
X03027Y01378D02*
Y01633D01*
X03001Y03016D02*
Y02871D01*
X03099Y0284D02*
Y03016D01*
X02551Y03588D02*
Y03694D01*
X02621Y03589D02*
Y0367D01*
X04853Y02687D02*
Y02695D01*
X0476Y02687D02*
Y02695D01*
Y02634D02*
Y02643D01*
X04853Y02623D02*
Y02648D01*
X02586Y035D02*
X0261D01*
X03022Y03636D02*
Y03762D01*
X03166Y03636D02*
Y03762D01*
X04331Y04133D02*
X04428D01*
X04331Y04202D02*
X04428D01*
X0503Y03347D02*
Y03444D01*
X04961Y03347D02*
Y03444D01*
X04892Y02741D02*
Y02766D01*
X048Y02753D02*
Y02761D01*
Y02805D02*
Y02814D01*
X04892Y02805D02*
Y02814D01*
X02515Y01956D02*
Y0198D01*
X02536Y01821D02*
Y01935D01*
Y01821D02*
X02542D01*
Y01935*
X02536D02*
X02542D01*
X03263Y03472D02*
Y03496D01*
X03249Y04045D02*
X03346D01*
X03249Y03976D02*
X03346D01*
X03208Y02844D02*
X03366D01*
X03208Y02974D02*
X03366D01*
X0332Y03159D02*
Y03169D01*
Y03232D02*
Y03242D01*
X03415Y03232D02*
Y03242D01*
Y03159D02*
Y03192D01*
X03225Y03931D02*
Y03978D01*
X03108Y03992D02*
X03222D01*
X03108D02*
Y04D01*
X03222*
Y03992D02*
Y04D01*
X03586Y04016D02*
X0361D01*
Y0413*
X03586D02*
X0361D01*
X03586Y04016D02*
Y0413D01*
X03525Y04014D02*
X03572D01*
X04573Y02779D02*
X04582D01*
X04573Y02687D02*
X04582D01*
X04626D02*
X04634D01*
X04621Y02779D02*
X04646D01*
X03852Y04195D02*
X0397D01*
X03852Y03995D02*
X0397D01*
Y04195*
X03852D02*
Y03995D01*
X02649Y01885D02*
X02673D01*
X03311Y04147D02*
X03389D01*
X03311Y04055D02*
X03389D01*
X03437Y04101D02*
X0346D01*
X03216Y03877D02*
Y039D01*
X03229Y04101D02*
X03253D01*
X04286Y03503D02*
Y036D01*
X04355Y03503D02*
Y036D01*
X03129Y03568D02*
X03195D01*
X03129Y0351D02*
X03195D01*
X03129Y03513D02*
X03195D01*
X03129Y03455D02*
X03195D01*
X03224Y03559D02*
X03248D01*
G54D12*
X03164Y03103D02*
D01*
X03164Y03103*
X03164Y03103*
X03164Y03103*
X03164Y03103*
X03164Y03103*
X03164Y03104*
X03164Y03104*
X03164Y03104*
X03164Y03104*
X03164Y03104*
X03164Y03104*
X03164Y03104*
X03164Y03104*
X03164Y03104*
X03163Y03105*
X03163Y03105*
X03163Y03105*
X03163Y03105*
X03163Y03105*
X03163Y03105*
X03163Y03105*
X03162Y03105*
X03162*
X03162Y03105*
X03162Y03105*
X03162Y03105*
X03162Y03105*
X03162Y03105*
X03162Y03105*
X03161Y03105*
X03161Y03104*
X03161Y03104*
X03161Y03104*
X03161Y03104*
X03161Y03104*
X03161Y03104*
X03161Y03104*
X03161Y03104*
X03161Y03104*
X03161Y03103*
X0316Y03103*
X0316Y03103*
X0316Y03103*
X0316Y03103*
X0316Y03103*
D01*
X0316Y03103*
X0316Y03103*
X0316Y03102*
X0316Y03102*
X03161Y03102*
X03161Y03102*
X03161Y03102*
X03161Y03102*
X03161Y03102*
X03161Y03102*
X03161Y03101*
X03161Y03101*
X03161Y03101*
X03161Y03101*
X03161Y03101*
X03162Y03101*
X03162Y03101*
X03162Y03101*
X03162Y03101*
X03162Y03101*
X03162Y03101*
X03162Y03101*
X03162*
X03163Y03101*
X03163Y03101*
X03163Y03101*
X03163Y03101*
X03163Y03101*
X03163Y03101*
X03163Y03101*
X03164Y03101*
X03164Y03101*
X03164Y03101*
X03164Y03101*
X03164Y03102*
X03164Y03102*
X03164Y03102*
X03164Y03102*
X03164Y03102*
X03164Y03102*
X03164Y03102*
X03164Y03102*
X03164Y03103*
X03164Y03103*
X03164Y03103*
X03293Y03104D02*
D01*
X03293Y03104*
X03293Y03104*
X03292Y03104*
X03292Y03104*
X03292Y03104*
X03292Y03104*
X03292Y03104*
X03292Y03103*
X03292Y03103*
X03292Y03103*
X03291Y03103*
X03291Y03103*
X03291Y03103*
X03291Y03103*
X03291Y03103*
X03291Y03103*
X03291Y03103*
X03291Y03102*
X03291Y03102*
X03291Y03102*
X03291Y03102*
X03291Y03102*
Y03102*
X03291Y03102*
X03291Y03101*
X03291Y03101*
X03291Y03101*
X03291Y03101*
X03291Y03101*
X03291Y03101*
X03291Y03101*
X03291Y03101*
X03291Y031*
X03291Y031*
X03292Y031*
X03292Y031*
X03292Y031*
X03292Y031*
X03292Y031*
X03292Y031*
X03292Y031*
X03292Y031*
X03293Y031*
X03293Y031*
X03293Y031*
D01*
X03293Y031*
X03293Y031*
X03293Y031*
X03293Y031*
X03293Y031*
X03294Y031*
X03294Y031*
X03294Y031*
X03294Y031*
X03294Y031*
X03294Y031*
X03294Y03101*
X03294Y03101*
X03294Y03101*
X03295Y03101*
X03295Y03101*
X03295Y03101*
X03295Y03101*
X03295Y03101*
X03295Y03102*
X03295Y03102*
X03295Y03102*
Y03102*
X03295Y03102*
X03295Y03102*
X03295Y03102*
X03295Y03103*
X03295Y03103*
X03295Y03103*
X03295Y03103*
X03294Y03103*
X03294Y03103*
X03294Y03103*
X03294Y03103*
X03294Y03103*
X03294Y03104*
X03294Y03104*
X03294Y03104*
X03294Y03104*
X03293Y03104*
X03293Y03104*
X03293Y03104*
X03293Y03104*
X03293Y03104*
X03293Y03104*
X03252Y03065D02*
D01*
X03251Y03065*
X03251Y03065*
X03251Y03065*
X03251Y03065*
X03251Y03065*
X03251Y03065*
X03251Y03065*
X03251Y03066*
X03251Y03066*
X03251Y03066*
X03251Y03066*
X03251Y03066*
X03251Y03066*
X03251Y03066*
X03251Y03066*
X0325Y03066*
X0325Y03066*
X0325Y03066*
X0325Y03066*
X0325Y03066*
X0325Y03066*
X0325Y03066*
X03249*
X03249Y03066*
X03249Y03066*
X03249Y03066*
X03249Y03066*
X03249Y03066*
X03249Y03066*
X03249Y03066*
X03248Y03066*
X03248Y03066*
X03248Y03066*
X03248Y03066*
X03248Y03066*
X03248Y03066*
X03248Y03066*
X03248Y03065*
X03248Y03065*
X03248Y03065*
X03248Y03065*
X03248Y03065*
X03248Y03065*
X03248Y03065*
X03248Y03065*
D01*
X03248Y03064*
X03248Y03064*
X03248Y03064*
X03248Y03064*
X03248Y03064*
X03248Y03064*
X03248Y03064*
X03248Y03063*
X03248Y03063*
X03248Y03063*
X03248Y03063*
X03248Y03063*
X03248Y03063*
X03248Y03063*
X03249Y03063*
X03249Y03063*
X03249Y03063*
X03249Y03063*
X03249Y03063*
X03249Y03063*
X03249Y03063*
X03249Y03063*
X0325*
X0325Y03063*
X0325Y03063*
X0325Y03063*
X0325Y03063*
X0325Y03063*
X0325Y03063*
X03251Y03063*
X03251Y03063*
X03251Y03063*
X03251Y03063*
X03251Y03063*
X03251Y03063*
X03251Y03063*
X03251Y03063*
X03251Y03064*
X03251Y03064*
X03251Y03064*
X03251Y03064*
X03251Y03064*
X03251Y03064*
X03251Y03064*
X03252Y03065*
X03181Y01377D02*
D01*
X03181Y01376*
X03181Y01376*
X03181Y01376*
X03181Y01376*
X03181Y01376*
X03181Y01376*
X03181Y01376*
X03181Y01375*
X03181Y01375*
X03182Y01375*
X03182Y01375*
X03182Y01375*
X03182Y01375*
X03182Y01375*
X03182Y01375*
X03182Y01375*
X03182Y01375*
X03182Y01375*
X03183Y01375*
X03183Y01375*
X03183Y01375*
X03183Y01375*
X03183*
X03183Y01375*
X03183Y01375*
X03184Y01375*
X03184Y01375*
X03184Y01375*
X03184Y01375*
X03184Y01375*
X03184Y01375*
X03184Y01375*
X03184Y01375*
X03185Y01375*
X03185Y01375*
X03185Y01375*
X03185Y01375*
X03185Y01376*
X03185Y01376*
X03185Y01376*
X03185Y01376*
X03185Y01376*
X03185Y01376*
X03185Y01376*
X03185Y01377*
D01*
X03185Y01377*
X03185Y01377*
X03185Y01377*
X03185Y01377*
X03185Y01377*
X03185Y01377*
X03185Y01377*
X03185Y01378*
X03185Y01378*
X03185Y01378*
X03184Y01378*
X03184Y01378*
X03184Y01378*
X03184Y01378*
X03184Y01378*
X03184Y01378*
X03184Y01378*
X03184Y01378*
X03183Y01378*
X03183Y01378*
X03183Y01378*
X03183Y01378*
X03183*
X03183Y01378*
X03183Y01378*
X03183Y01378*
X03182Y01378*
X03182Y01378*
X03182Y01378*
X03182Y01378*
X03182Y01378*
X03182Y01378*
X03182Y01378*
X03182Y01378*
X03181Y01378*
X03181Y01378*
X03181Y01378*
X03181Y01377*
X03181Y01377*
X03181Y01377*
X03181Y01377*
X03181Y01377*
X03181Y01377*
X03181Y01377*
X03181Y01377*
X04768Y04393D02*
D01*
X04768Y04393*
X04768Y04393*
X04768Y04393*
X04768Y04393*
X04768Y04393*
X04768Y04392*
X04768Y04392*
X04768Y04392*
X04768Y04392*
X04768Y04392*
X04768Y04392*
X04768Y04392*
X04768Y04392*
X04768Y04392*
X04769Y04391*
X04769Y04391*
X04769Y04391*
X04769Y04391*
X04769Y04391*
X04769Y04391*
X04769Y04391*
X04769Y04391*
X0477*
X0477Y04391*
X0477Y04391*
X0477Y04391*
X0477Y04391*
X0477Y04391*
X0477Y04391*
X04771Y04391*
X04771Y04392*
X04771Y04392*
X04771Y04392*
X04771Y04392*
X04771Y04392*
X04771Y04392*
X04771Y04392*
X04771Y04392*
X04771Y04392*
X04771Y04393*
X04771Y04393*
X04771Y04393*
X04771Y04393*
X04771Y04393*
X04772Y04393*
D01*
X04771Y04393*
X04771Y04393*
X04771Y04394*
X04771Y04394*
X04771Y04394*
X04771Y04394*
X04771Y04394*
X04771Y04394*
X04771Y04394*
X04771Y04394*
X04771Y04395*
X04771Y04395*
X04771Y04395*
X04771Y04395*
X04771Y04395*
X0477Y04395*
X0477Y04395*
X0477Y04395*
X0477Y04395*
X0477Y04395*
X0477Y04395*
X0477Y04395*
X04769*
X04769Y04395*
X04769Y04395*
X04769Y04395*
X04769Y04395*
X04769Y04395*
X04769Y04395*
X04769Y04395*
X04768Y04395*
X04768Y04395*
X04768Y04395*
X04768Y04395*
X04768Y04394*
X04768Y04394*
X04768Y04394*
X04768Y04394*
X04768Y04394*
X04768Y04394*
X04768Y04394*
X04768Y04394*
X04768Y04393*
X04768Y04393*
X04768Y04393*
X02633Y01787D02*
D01*
X02634Y01787*
X02634Y01787*
X02634Y01787*
X02634Y01787*
X02634Y01787*
X02634Y01787*
X02634Y01788*
X02634Y01788*
X02635Y01788*
X02635Y01788*
X02635Y01788*
X02635Y01788*
X02635Y01788*
X02635Y01788*
X02635Y01788*
X02635Y01788*
X02635Y01789*
X02635Y01789*
X02635Y01789*
X02635Y01789*
X02635Y01789*
X02635Y01789*
Y01789*
X02635Y0179*
X02635Y0179*
X02635Y0179*
X02635Y0179*
X02635Y0179*
X02635Y0179*
X02635Y0179*
X02635Y0179*
X02635Y01791*
X02635Y01791*
X02635Y01791*
X02635Y01791*
X02635Y01791*
X02634Y01791*
X02634Y01791*
X02634Y01791*
X02634Y01791*
X02634Y01791*
X02634Y01791*
X02634Y01791*
X02634Y01791*
X02633Y01791*
D01*
X02633Y01791*
X02633Y01791*
X02633Y01791*
X02633Y01791*
X02633Y01791*
X02633Y01791*
X02632Y01791*
X02632Y01791*
X02632Y01791*
X02632Y01791*
X02632Y01791*
X02632Y01791*
X02632Y0179*
X02632Y0179*
X02632Y0179*
X02632Y0179*
X02632Y0179*
X02631Y0179*
X02631Y0179*
X02631Y0179*
X02631Y01789*
X02631Y01789*
Y01789*
X02631Y01789*
X02631Y01789*
X02631Y01789*
X02631Y01789*
X02632Y01788*
X02632Y01788*
X02632Y01788*
X02632Y01788*
X02632Y01788*
X02632Y01788*
X02632Y01788*
X02632Y01788*
X02632Y01788*
X02632Y01788*
X02632Y01787*
X02633Y01787*
X02633Y01787*
X02633Y01787*
X02633Y01787*
X02633Y01787*
X02633Y01787*
X02633Y01787*
X04417Y04393D02*
D01*
X04417Y04393*
X04417Y04393*
X04417Y04394*
X04417Y04394*
X04417Y04394*
X04417Y04394*
X04417Y04394*
X04417Y04394*
X04417Y04394*
X04417Y04394*
X04417Y04395*
X04416Y04395*
X04416Y04395*
X04416Y04395*
X04416Y04395*
X04416Y04395*
X04416Y04395*
X04416Y04395*
X04416Y04395*
X04415Y04395*
X04415Y04395*
X04415Y04395*
X04415*
X04415Y04395*
X04415Y04395*
X04415Y04395*
X04414Y04395*
X04414Y04395*
X04414Y04395*
X04414Y04395*
X04414Y04395*
X04414Y04395*
X04414Y04395*
X04414Y04395*
X04414Y04394*
X04413Y04394*
X04413Y04394*
X04413Y04394*
X04413Y04394*
X04413Y04394*
X04413Y04394*
X04413Y04394*
X04413Y04393*
X04413Y04393*
X04413Y04393*
D01*
X04413Y04393*
X04413Y04393*
X04413Y04393*
X04413Y04393*
X04413Y04393*
X04413Y04392*
X04413Y04392*
X04414Y04392*
X04414Y04392*
X04414Y04392*
X04414Y04392*
X04414Y04392*
X04414Y04392*
X04414Y04392*
X04414Y04391*
X04414Y04391*
X04414Y04391*
X04415Y04391*
X04415Y04391*
X04415Y04391*
X04415Y04391*
X04415Y04391*
X04415*
X04415Y04391*
X04416Y04391*
X04416Y04391*
X04416Y04391*
X04416Y04391*
X04416Y04391*
X04416Y04391*
X04416Y04392*
X04416Y04392*
X04417Y04392*
X04417Y04392*
X04417Y04392*
X04417Y04392*
X04417Y04392*
X04417Y04392*
X04417Y04392*
X04417Y04393*
X04417Y04393*
X04417Y04393*
X04417Y04393*
X04417Y04393*
X04417Y04393*
X03126D02*
D01*
X03126Y04393*
X03126Y04393*
X03126Y04394*
X03126Y04394*
X03126Y04394*
X03126Y04394*
X03126Y04394*
X03125Y04394*
X03125Y04394*
X03125Y04394*
X03125Y04395*
X03125Y04395*
X03125Y04395*
X03125Y04395*
X03125Y04395*
X03125Y04395*
X03125Y04395*
X03124Y04395*
X03124Y04395*
X03124Y04395*
X03124Y04395*
X03124Y04395*
X03124*
X03124Y04395*
X03123Y04395*
X03123Y04395*
X03123Y04395*
X03123Y04395*
X03123Y04395*
X03123Y04395*
X03123Y04395*
X03123Y04395*
X03122Y04395*
X03122Y04395*
X03122Y04394*
X03122Y04394*
X03122Y04394*
X03122Y04394*
X03122Y04394*
X03122Y04394*
X03122Y04394*
X03122Y04394*
X03122Y04393*
X03122Y04393*
X03122Y04393*
D01*
X03122Y04393*
X03122Y04393*
X03122Y04393*
X03122Y04393*
X03122Y04393*
X03122Y04392*
X03122Y04392*
X03122Y04392*
X03122Y04392*
X03122Y04392*
X03122Y04392*
X03123Y04392*
X03123Y04392*
X03123Y04392*
X03123Y04391*
X03123Y04391*
X03123Y04391*
X03123Y04391*
X03123Y04391*
X03124Y04391*
X03124Y04391*
X03124Y04391*
X03124*
X03124Y04391*
X03124Y04391*
X03124Y04391*
X03125Y04391*
X03125Y04391*
X03125Y04391*
X03125Y04391*
X03125Y04392*
X03125Y04392*
X03125Y04392*
X03125Y04392*
X03125Y04392*
X03126Y04392*
X03126Y04392*
X03126Y04392*
X03126Y04392*
X03126Y04393*
X03126Y04393*
X03126Y04393*
X03126Y04393*
X03126Y04393*
X03126Y04393*
X0484Y04237D02*
D01*
X0484Y04237*
X0484Y04237*
X0484Y04237*
X0484Y04237*
X04839Y04237*
X04839Y04237*
X04839Y04236*
X04839Y04236*
X04839Y04236*
X04839Y04236*
X04839Y04236*
X04839Y04236*
X04839Y04236*
X04838Y04236*
X04838Y04236*
X04838Y04236*
X04838Y04235*
X04838Y04235*
X04838Y04235*
X04838Y04235*
X04838Y04235*
X04838Y04235*
Y04235*
X04838Y04234*
X04838Y04234*
X04838Y04234*
X04838Y04234*
X04838Y04234*
X04838Y04234*
X04838Y04234*
X04838Y04234*
X04839Y04233*
X04839Y04233*
X04839Y04233*
X04839Y04233*
X04839Y04233*
X04839Y04233*
X04839Y04233*
X04839Y04233*
X04839Y04233*
X0484Y04233*
X0484Y04233*
X0484Y04233*
X0484Y04233*
X0484Y04233*
D01*
X0484Y04233*
X0484Y04233*
X04841Y04233*
X04841Y04233*
X04841Y04233*
X04841Y04233*
X04841Y04233*
X04841Y04233*
X04841Y04233*
X04841Y04233*
X04841Y04233*
X04842Y04233*
X04842Y04234*
X04842Y04234*
X04842Y04234*
X04842Y04234*
X04842Y04234*
X04842Y04234*
X04842Y04234*
X04842Y04234*
X04842Y04235*
X04842Y04235*
Y04235*
X04842Y04235*
X04842Y04235*
X04842Y04235*
X04842Y04235*
X04842Y04236*
X04842Y04236*
X04842Y04236*
X04842Y04236*
X04842Y04236*
X04842Y04236*
X04841Y04236*
X04841Y04236*
X04841Y04236*
X04841Y04236*
X04841Y04237*
X04841Y04237*
X04841Y04237*
X04841Y04237*
X04841Y04237*
X0484Y04237*
X0484Y04237*
X0484Y04237*
X03976Y01129D02*
D01*
X03976Y01129*
X03976Y01129*
X03976Y01129*
X03976Y01129*
X03977Y0113*
X03977Y0113*
X03977Y0113*
X03977Y0113*
X03977Y0113*
X03977Y0113*
X03977Y0113*
X03977Y0113*
X03977Y0113*
X03978Y0113*
X03978Y0113*
X03978Y01131*
X03978Y01131*
X03978Y01131*
X03978Y01131*
X03978Y01131*
X03978Y01131*
X03978Y01131*
Y01131*
X03978Y01132*
X03978Y01132*
X03978Y01132*
X03978Y01132*
X03978Y01132*
X03978Y01132*
X03978Y01132*
X03978Y01133*
X03977Y01133*
X03977Y01133*
X03977Y01133*
X03977Y01133*
X03977Y01133*
X03977Y01133*
X03977Y01133*
X03977Y01133*
X03977Y01133*
X03976Y01133*
X03976Y01133*
X03976Y01133*
X03976Y01133*
X03976Y01133*
D01*
X03976Y01133*
X03976Y01133*
X03975Y01133*
X03975Y01133*
X03975Y01133*
X03975Y01133*
X03975Y01133*
X03975Y01133*
X03975Y01133*
X03975Y01133*
X03975Y01133*
X03974Y01133*
X03974Y01133*
X03974Y01133*
X03974Y01132*
X03974Y01132*
X03974Y01132*
X03974Y01132*
X03974Y01132*
X03974Y01132*
X03974Y01132*
X03974Y01131*
Y01131*
X03974Y01131*
X03974Y01131*
X03974Y01131*
X03974Y01131*
X03974Y01131*
X03974Y01131*
X03974Y0113*
X03974Y0113*
X03974Y0113*
X03974Y0113*
X03975Y0113*
X03975Y0113*
X03975Y0113*
X03975Y0113*
X03975Y0113*
X03975Y0113*
X03975Y0113*
X03975Y01129*
X03975Y01129*
X03976Y01129*
X03976Y01129*
X03976Y01129*
X0426Y03813D02*
D01*
X0426Y03813*
X0426Y03813*
X0426Y03813*
X0426Y03813*
X0426Y03813*
X0426Y03813*
X0426Y03813*
X0426Y03814*
X0426Y03814*
X0426Y03814*
X0426Y03814*
X0426Y03814*
X0426Y03814*
X04259Y03814*
X04259Y03814*
X04259Y03814*
X04259Y03814*
X04259Y03814*
X04259Y03814*
X04259Y03814*
X04259Y03814*
X04258Y03814*
X04258*
X04258Y03814*
X04258Y03814*
X04258Y03814*
X04258Y03814*
X04258Y03814*
X04257Y03814*
X04257Y03814*
X04257Y03814*
X04257Y03814*
X04257Y03814*
X04257Y03814*
X04257Y03814*
X04257Y03814*
X04257Y03814*
X04257Y03813*
X04256Y03813*
X04256Y03813*
X04256Y03813*
X04256Y03813*
X04256Y03813*
X04256Y03813*
X04256Y03813*
D01*
X04256Y03812*
X04256Y03812*
X04256Y03812*
X04256Y03812*
X04257Y03812*
X04257Y03812*
X04257Y03812*
X04257Y03811*
X04257Y03811*
X04257Y03811*
X04257Y03811*
X04257Y03811*
X04257Y03811*
X04257Y03811*
X04257Y03811*
X04258Y03811*
X04258Y03811*
X04258Y03811*
X04258Y03811*
X04258Y03811*
X04258Y03811*
X04258Y03811*
X04258*
X04259Y03811*
X04259Y03811*
X04259Y03811*
X04259Y03811*
X04259Y03811*
X04259Y03811*
X04259Y03811*
X0426Y03811*
X0426Y03811*
X0426Y03811*
X0426Y03811*
X0426Y03811*
X0426Y03811*
X0426Y03811*
X0426Y03812*
X0426Y03812*
X0426Y03812*
X0426Y03812*
X0426Y03812*
X0426Y03812*
X0426Y03812*
X0426Y03813*
X04256Y03928D02*
D01*
X04256Y03927*
X04256Y03927*
X04256Y03927*
X04256Y03927*
X04257Y03927*
X04257Y03927*
X04257Y03927*
X04257Y03927*
X04257Y03926*
X04257Y03926*
X04257Y03926*
X04257Y03926*
X04257Y03926*
X04257Y03926*
X04257Y03926*
X04258Y03926*
X04258Y03926*
X04258Y03926*
X04258Y03926*
X04258Y03926*
X04258Y03926*
X04258Y03926*
X04258*
X04259Y03926*
X04259Y03926*
X04259Y03926*
X04259Y03926*
X04259Y03926*
X04259Y03926*
X04259Y03926*
X0426Y03926*
X0426Y03926*
X0426Y03926*
X0426Y03926*
X0426Y03926*
X0426Y03926*
X0426Y03927*
X0426Y03927*
X0426Y03927*
X0426Y03927*
X0426Y03927*
X0426Y03927*
X0426Y03927*
X0426Y03927*
X0426Y03928*
D01*
X0426Y03928*
X0426Y03928*
X0426Y03928*
X0426Y03928*
X0426Y03928*
X0426Y03928*
X0426Y03929*
X0426Y03929*
X0426Y03929*
X0426Y03929*
X0426Y03929*
X0426Y03929*
X0426Y03929*
X04259Y03929*
X04259Y03929*
X04259Y03929*
X04259Y03929*
X04259Y0393*
X04259Y0393*
X04259Y0393*
X04259Y0393*
X04258Y0393*
X04258*
X04258Y0393*
X04258Y0393*
X04258Y0393*
X04258Y0393*
X04258Y03929*
X04257Y03929*
X04257Y03929*
X04257Y03929*
X04257Y03929*
X04257Y03929*
X04257Y03929*
X04257Y03929*
X04257Y03929*
X04257Y03929*
X04257Y03929*
X04256Y03928*
X04256Y03928*
X04256Y03928*
X04256Y03928*
X04256Y03928*
X04256Y03928*
X04256Y03928*
X04541Y04233D02*
D01*
X04541Y04233*
X04541Y04233*
X04541Y04233*
X04541Y04233*
X04541Y04233*
X04542Y04233*
X04542Y04233*
X04542Y04233*
X04542Y04233*
X04542Y04233*
X04542Y04233*
X04542Y04233*
X04542Y04234*
X04542Y04234*
X04543Y04234*
X04543Y04234*
X04543Y04234*
X04543Y04234*
X04543Y04234*
X04543Y04234*
X04543Y04235*
X04543Y04235*
Y04235*
X04543Y04235*
X04543Y04235*
X04543Y04235*
X04543Y04235*
X04543Y04236*
X04543Y04236*
X04543Y04236*
X04542Y04236*
X04542Y04236*
X04542Y04236*
X04542Y04236*
X04542Y04236*
X04542Y04236*
X04542Y04236*
X04542Y04237*
X04542Y04237*
X04541Y04237*
X04541Y04237*
X04541Y04237*
X04541Y04237*
X04541Y04237*
X04541Y04237*
D01*
X04541Y04237*
X04541Y04237*
X0454Y04237*
X0454Y04237*
X0454Y04237*
X0454Y04237*
X0454Y04236*
X0454Y04236*
X0454Y04236*
X0454Y04236*
X04539Y04236*
X04539Y04236*
X04539Y04236*
X04539Y04236*
X04539Y04236*
X04539Y04236*
X04539Y04235*
X04539Y04235*
X04539Y04235*
X04539Y04235*
X04539Y04235*
X04539Y04235*
Y04235*
X04539Y04234*
X04539Y04234*
X04539Y04234*
X04539Y04234*
X04539Y04234*
X04539Y04234*
X04539Y04234*
X04539Y04234*
X04539Y04233*
X04539Y04233*
X04539Y04233*
X0454Y04233*
X0454Y04233*
X0454Y04233*
X0454Y04233*
X0454Y04233*
X0454Y04233*
X0454Y04233*
X0454Y04233*
X04541Y04233*
X04541Y04233*
X04541Y04233*
X0426Y04013D02*
D01*
X0426Y04013*
X0426Y04014*
X0426Y04014*
X0426Y04014*
X0426Y04014*
X0426Y04014*
X0426Y04014*
X0426Y04014*
X0426Y04014*
X0426Y04015*
X0426Y04015*
X0426Y04015*
X0426Y04015*
X04259Y04015*
X04259Y04015*
X04259Y04015*
X04259Y04015*
X04259Y04015*
X04259Y04015*
X04259Y04015*
X04259Y04015*
X04258Y04015*
X04258*
X04258Y04015*
X04258Y04015*
X04258Y04015*
X04258Y04015*
X04258Y04015*
X04257Y04015*
X04257Y04015*
X04257Y04015*
X04257Y04015*
X04257Y04015*
X04257Y04015*
X04257Y04015*
X04257Y04014*
X04257Y04014*
X04257Y04014*
X04256Y04014*
X04256Y04014*
X04256Y04014*
X04256Y04014*
X04256Y04014*
X04256Y04013*
X04256Y04013*
D01*
X04256Y04013*
X04256Y04013*
X04256Y04013*
X04256Y04013*
X04257Y04013*
X04257Y04012*
X04257Y04012*
X04257Y04012*
X04257Y04012*
X04257Y04012*
X04257Y04012*
X04257Y04012*
X04257Y04012*
X04257Y04012*
X04257Y04012*
X04258Y04012*
X04258Y04011*
X04258Y04011*
X04258Y04011*
X04258Y04011*
X04258Y04011*
X04258Y04011*
X04258*
X04259Y04011*
X04259Y04011*
X04259Y04011*
X04259Y04011*
X04259Y04011*
X04259Y04012*
X04259Y04012*
X0426Y04012*
X0426Y04012*
X0426Y04012*
X0426Y04012*
X0426Y04012*
X0426Y04012*
X0426Y04012*
X0426Y04012*
X0426Y04012*
X0426Y04013*
X0426Y04013*
X0426Y04013*
X0426Y04013*
X0426Y04013*
X0426Y04013*
Y03727D02*
D01*
X0426Y03727*
X0426Y03727*
X0426Y03727*
X0426Y03727*
X0426Y03728*
X0426Y03728*
X0426Y03728*
X0426Y03728*
X0426Y03728*
X0426Y03728*
X0426Y03728*
X0426Y03728*
X0426Y03728*
X04259Y03729*
X04259Y03729*
X04259Y03729*
X04259Y03729*
X04259Y03729*
X04259Y03729*
X04259Y03729*
X04259Y03729*
X04258Y03729*
X04258*
X04258Y03729*
X04258Y03729*
X04258Y03729*
X04258Y03729*
X04258Y03729*
X04257Y03729*
X04257Y03729*
X04257Y03729*
X04257Y03728*
X04257Y03728*
X04257Y03728*
X04257Y03728*
X04257Y03728*
X04257Y03728*
X04257Y03728*
X04256Y03728*
X04256Y03728*
X04256Y03727*
X04256Y03727*
X04256Y03727*
X04256Y03727*
X04256Y03727*
D01*
X04256Y03727*
X04256Y03727*
X04256Y03726*
X04256Y03726*
X04257Y03726*
X04257Y03726*
X04257Y03726*
X04257Y03726*
X04257Y03726*
X04257Y03726*
X04257Y03726*
X04257Y03725*
X04257Y03725*
X04257Y03725*
X04257Y03725*
X04258Y03725*
X04258Y03725*
X04258Y03725*
X04258Y03725*
X04258Y03725*
X04258Y03725*
X04258Y03725*
X04258*
X04259Y03725*
X04259Y03725*
X04259Y03725*
X04259Y03725*
X04259Y03725*
X04259Y03725*
X04259Y03725*
X0426Y03725*
X0426Y03725*
X0426Y03725*
X0426Y03726*
X0426Y03726*
X0426Y03726*
X0426Y03726*
X0426Y03726*
X0426Y03726*
X0426Y03726*
X0426Y03726*
X0426Y03726*
X0426Y03727*
X0426Y03727*
X0426Y03727*
X04627Y04233D02*
D01*
X04627Y04233*
X04627Y04233*
X04627Y04233*
X04627Y04233*
X04627Y04233*
X04627Y04233*
X04627Y04233*
X04628Y04233*
X04628Y04233*
X04628Y04233*
X04628Y04233*
X04628Y04233*
X04628Y04234*
X04628Y04234*
X04628Y04234*
X04628Y04234*
X04628Y04234*
X04628Y04234*
X04628Y04234*
X04628Y04234*
X04628Y04235*
X04628Y04235*
Y04235*
X04628Y04235*
X04628Y04235*
X04628Y04235*
X04628Y04235*
X04628Y04236*
X04628Y04236*
X04628Y04236*
X04628Y04236*
X04628Y04236*
X04628Y04236*
X04628Y04236*
X04628Y04236*
X04628Y04236*
X04628Y04236*
X04627Y04237*
X04627Y04237*
X04627Y04237*
X04627Y04237*
X04627Y04237*
X04627Y04237*
X04627Y04237*
X04627Y04237*
D01*
X04626Y04237*
X04626Y04237*
X04626Y04237*
X04626Y04237*
X04626Y04237*
X04626Y04237*
X04626Y04236*
X04625Y04236*
X04625Y04236*
X04625Y04236*
X04625Y04236*
X04625Y04236*
X04625Y04236*
X04625Y04236*
X04625Y04236*
X04625Y04236*
X04625Y04235*
X04625Y04235*
X04625Y04235*
X04625Y04235*
X04625Y04235*
X04625Y04235*
Y04235*
X04625Y04234*
X04625Y04234*
X04625Y04234*
X04625Y04234*
X04625Y04234*
X04625Y04234*
X04625Y04234*
X04625Y04234*
X04625Y04233*
X04625Y04233*
X04625Y04233*
X04625Y04233*
X04625Y04233*
X04625Y04233*
X04626Y04233*
X04626Y04233*
X04626Y04233*
X04626Y04233*
X04626Y04233*
X04626Y04233*
X04626Y04233*
X04627Y04233*
X03628Y01341D02*
D01*
X03627Y01341*
X03627Y01341*
X03627Y01341*
X03627Y01342*
X03627Y01342*
X03627Y01342*
X03627Y01342*
X03627Y01342*
X03627Y01342*
X03627Y01342*
X03627Y01342*
X03627Y01342*
X03627Y01343*
X03627Y01343*
X03627Y01343*
X03626Y01343*
X03626Y01343*
X03626Y01343*
X03626Y01343*
X03626Y01343*
X03626Y01343*
X03626Y01343*
X03625*
X03625Y01343*
X03625Y01343*
X03625Y01343*
X03625Y01343*
X03625Y01343*
X03625Y01343*
X03625Y01343*
X03624Y01343*
X03624Y01343*
X03624Y01342*
X03624Y01342*
X03624Y01342*
X03624Y01342*
X03624Y01342*
X03624Y01342*
X03624Y01342*
X03624Y01342*
X03624Y01342*
X03624Y01341*
X03624Y01341*
X03624Y01341*
X03624Y01341*
D01*
X03624Y01341*
X03624Y01341*
X03624Y01341*
X03624Y0134*
X03624Y0134*
X03624Y0134*
X03624Y0134*
X03624Y0134*
X03624Y0134*
X03624Y0134*
X03624Y0134*
X03624Y0134*
X03624Y01339*
X03624Y01339*
X03625Y01339*
X03625Y01339*
X03625Y01339*
X03625Y01339*
X03625Y01339*
X03625Y01339*
X03625Y01339*
X03625Y01339*
X03626*
X03626Y01339*
X03626Y01339*
X03626Y01339*
X03626Y01339*
X03626Y01339*
X03626Y01339*
X03627Y01339*
X03627Y01339*
X03627Y01339*
X03627Y0134*
X03627Y0134*
X03627Y0134*
X03627Y0134*
X03627Y0134*
X03627Y0134*
X03627Y0134*
X03627Y0134*
X03627Y0134*
X03627Y01341*
X03627Y01341*
X03627Y01341*
X03628Y01341*
G54D13*
X03111Y02247D02*
X03127D01*
X03177Y03089D02*
D01*
X03171Y03083D02*
X03177Y03089D01*
X04223Y03452D02*
X04228Y03447D01*
X04152Y03452D02*
X04223D01*
X04143Y03461D02*
X04152Y03452D01*
X04124Y03461D02*
X04143D01*
X03156Y03083D02*
X03171D01*
X03364Y0299D02*
X03373Y02999D01*
X03346Y0299D02*
X03364D01*
X03262D02*
X03346D01*
X03258Y02994D02*
X03262Y0299D01*
X0422Y03421D02*
Y03437D01*
X04185Y03351D02*
Y03367D01*
X0422Y03385D02*
Y03401D01*
X04159Y03412D02*
X04175D01*
X04653Y01503D02*
Y01519D01*
X02976Y03529D02*
X03D01*
X02976Y03486D02*
X03D01*
X04535Y0135D02*
X04551D01*
X03897Y03972D02*
X03905D01*
X03826Y03944D02*
X03832Y03939D01*
X03791Y03964D02*
Y03948D01*
X03718Y0394D02*
Y03955D01*
Y03908D02*
Y03924D01*
X0248Y02107D02*
Y02091D01*
X0253Y02081D02*
X02546D01*
X02593Y0241D02*
Y02394D01*
X02997Y03838D02*
Y03854D01*
X04598Y0135D02*
X04614D01*
X04566D02*
X04582D01*
X0485Y01187D02*
X04866D01*
X03725Y04038D02*
X03741D01*
X03351Y02249D02*
Y02264D01*
X04234Y01791D02*
Y01768D01*
X0419Y01791D02*
Y01768D01*
X02846Y03675D02*
X02869D01*
X02846Y03631D02*
X02869D01*
X027D02*
X02724D01*
X027Y03675D02*
X02724D01*
X03181Y03719D02*
X03196D01*
X04801Y04215D02*
Y04272D01*
X04792D02*
X04801D01*
X04746Y04404D02*
Y04412D01*
Y04392D02*
Y04404D01*
X03228Y04027D02*
D01*
X03206D02*
X03228D01*
X03206D02*
Y04057D01*
X0309Y04043D02*
Y04059D01*
X04385Y0445D02*
X04401D01*
X04082Y01177D02*
X04098D01*
X03925D02*
X0394D01*
X02437Y01858D02*
X02452D01*
X03413Y04032D02*
X03437D01*
X03413Y03989D02*
X03437D01*
X0474Y0445D02*
X04755D01*
X03968Y02966D02*
Y02982D01*
X03716Y03707D02*
Y03723D01*
X03718Y03877D02*
Y03892D01*
X0328Y0314D02*
X03296D01*
X03425Y03301D02*
X03448D01*
X03425Y03344D02*
X03448D01*
X03184Y03756D02*
Y03802D01*
X03228Y04027D02*
X03237D01*
X03228D02*
D01*
X04337Y03695D02*
X04338Y03697D01*
X04341Y037*
X04344Y03701*
X04349*
X04352Y037*
X04354Y03697*
X04356Y03695*
X04357Y03691*
Y03684*
X04356Y0368*
X04354Y03678*
X04352Y03675*
X04349Y03674*
X04344*
X04341Y03675*
X04338Y03678*
X04337Y0368*
X04314Y03697D02*
X04315Y037D01*
X04319Y03701*
X04322*
X04325Y037*
X04328Y03696*
X04329Y0369*
Y03683*
X04328Y03678*
X04325Y03675*
X04322Y03674*
X0432*
X04316Y03675*
X04314Y03678*
X04312Y03682*
Y03683*
X04314Y03687*
X04316Y0369*
X0432Y03691*
X04322*
X04325Y0369*
X04328Y03687*
X04329Y03683*
X04288Y03701D02*
X04301Y03674D01*
X04306Y03701D02*
X04288D01*
X0353Y03172D02*
Y03144D01*
Y03172D02*
X03519D01*
X03515Y0317*
X03513Y03169*
X03512Y03167*
Y03164*
X03513Y03161*
X03515Y0316*
X03519Y03159*
X0353*
X03521D02*
X03512Y03144D01*
X03503Y03172D02*
X03489D01*
X03497Y03161*
X03493*
X0349Y0316*
X03489Y03159*
X03487Y03155*
Y03152*
X03489Y03148*
X03491Y03146*
X03495Y03144*
X03499*
X03503Y03146*
X03504Y03147*
X03506Y03149*
X0348Y03165D02*
Y03167D01*
X03479Y03169*
X03477Y0317*
X03475Y03172*
X03469*
X03467Y0317*
X03466Y03169*
X03464Y03167*
Y03164*
X03466Y03161*
X03468Y03157*
X03481Y03144*
X03463*
X0345Y03019D02*
Y02992D01*
Y03019D02*
X03438D01*
X03434Y03018*
X03433Y03017*
X03431Y03014*
Y03011*
X03433Y03009*
X03434Y03007*
X03438Y03006*
X0345*
X0344D02*
X03431Y02992D01*
X03424Y03013D02*
Y03014D01*
X03422Y03017*
X03421Y03018*
X03419Y03019*
X03413*
X03411Y03018*
X03409Y03017*
X03408Y03014*
Y03011*
X03409Y03009*
X03412Y03005*
X03425Y02992*
X03407*
X03398Y03019D02*
X03383D01*
X03391Y03009*
X03387*
X03385Y03007*
X03383Y03006*
X03382Y03002*
Y03*
X03383Y02996*
X03386Y02993*
X0339Y02992*
X03394*
X03398Y02993*
X03399Y02994*
X03401Y02997*
X04461Y0333D02*
X04463Y03332D01*
X04465Y03335*
X04468Y03336*
X04473*
X04476Y03335*
X04479Y03332*
X0448Y0333*
X04481Y03326*
Y03319*
X0448Y03315*
X04479Y03313*
X04476Y0331*
X04473Y03309*
X04468*
X04465Y0331*
X04463Y03313*
X04461Y03315*
X04438Y03332D02*
X04439Y03335D01*
X04443Y03336*
X04446*
X0445Y03335*
X04452Y03331*
X04454Y03324*
Y03318*
X04452Y03313*
X0445Y0331*
X04446Y03309*
X04445*
X04441Y0331*
X04438Y03313*
X04437Y03316*
Y03318*
X04438Y03322*
X04441Y03324*
X04445Y03326*
X04446*
X0445Y03324*
X04452Y03322*
X04454Y03318*
X04414Y03327D02*
X04415Y03323D01*
X04418Y0332*
X04421Y03319*
X04423*
X04427Y0332*
X04429Y03323*
X04431Y03327*
Y03328*
X04429Y03332*
X04427Y03335*
X04423Y03336*
X04421*
X04418Y03335*
X04415Y03332*
X04414Y03327*
Y0332*
X04415Y03314*
X04418Y0331*
X04421Y03309*
X04424*
X04428Y0331*
X04429Y03313*
X04513Y03433D02*
X04515Y03436D01*
X04517Y03438*
X0452Y0344*
X04525*
X04528Y03438*
X0453Y03436*
X04532Y03433*
X04533Y03429*
Y03422*
X04532Y03419*
X0453Y03416*
X04528Y03413*
X04525Y03412*
X0452*
X04517Y03413*
X04515Y03416*
X04513Y03419*
X0449Y03436D02*
X04491Y03438D01*
X04495Y0344*
X04498*
X04502Y03438*
X04504Y03434*
X04506Y03428*
Y03421*
X04504Y03416*
X04502Y03413*
X04498Y03412*
X04496*
X04492Y03413*
X0449Y03416*
X04489Y0342*
Y03421*
X0449Y03425*
X04492Y03428*
X04496Y03429*
X04498*
X04502Y03428*
X04504Y03425*
X04506Y03421*
X04476Y0344D02*
X0448Y03438D01*
X04481Y03436*
Y03433*
X0448Y0343*
X04477Y03429*
X04472Y03428*
X04468Y03426*
X04465Y03424*
X04464Y03421*
Y03417*
X04465Y03415*
X04467Y03413*
X04471Y03412*
X04476*
X0448Y03413*
X04481Y03415*
X04482Y03417*
Y03421*
X04481Y03424*
X04479Y03426*
X04475Y03428*
X04469Y03429*
X04467Y0343*
X04465Y03433*
Y03436*
X04467Y03438*
X04471Y0344*
X04476*
X03131Y03059D02*
X03134Y03058D01*
X03136Y03055*
X03138Y03052*
X03139Y03048*
Y03042*
X03138Y03038*
X03136Y03035*
X03134Y03033*
X03131Y03031*
X03126*
X03123Y03033*
X03121Y03035*
X03119Y03038*
X03118Y03042*
Y03048*
X03119Y03052*
X03121Y03055*
X03123Y03058*
X03126Y03059*
X03131*
X03127Y03037D02*
X03119Y03029D01*
X03096Y03055D02*
X03097Y03058D01*
X03101Y03059*
X03104*
X03108Y03058*
X0311Y03054*
X03111Y03047*
Y03041*
X0311Y03035*
X03108Y03033*
X03104Y03031*
X03102*
X03098Y03033*
X03096Y03035*
X03094Y03039*
Y03041*
X03096Y03044*
X03098Y03047*
X03102Y03048*
X03104*
X03108Y03047*
X0311Y03044*
X03111Y03041*
X03408Y03068D02*
X03411Y03066D01*
X03414Y03064*
X03415Y03061*
X03416Y03057*
Y03051*
X03415Y03047*
X03414Y03044*
X03411Y03042*
X03408Y0304*
X03403*
X034Y03042*
X03398Y03044*
X03396Y03047*
X03395Y03051*
Y03057*
X03396Y03061*
X03398Y03064*
X034Y03066*
X03403Y03068*
X03408*
X03404Y03045D02*
X03396Y03038D01*
X03373Y03068D02*
X03386D01*
X03387Y03056*
X03386Y03057*
X03382Y03059*
X03378*
X03374Y03057*
X03372Y03055*
X0337Y03051*
Y03048*
X03372Y03044*
X03374Y03042*
X03378Y0304*
X03382*
X03386Y03042*
X03387Y03043*
X03389Y03045*
X03138Y03106D02*
X03141Y03105D01*
X03144Y03102*
X03145Y031*
X03146Y03096*
Y03089*
X03145Y03085*
X03144Y03083*
X03141Y0308*
X03138Y03079*
X03133*
X0313Y0308*
X03128Y03083*
X03126Y03085*
X03125Y03089*
Y03096*
X03126Y031*
X03128Y03102*
X0313Y03105*
X03133Y03106*
X03138*
X03134Y03084D02*
X03126Y03076D01*
X03106Y03106D02*
X03119Y03088D01*
X03099*
X03106Y03106D02*
Y03079D01*
X05108Y03518D02*
X05109Y0352D01*
X05112Y03523*
X05114Y03524*
X0512*
X05122Y03523*
X05125Y0352*
X05126Y03518*
X05128Y03514*
Y03507*
X05126Y03503*
X05125Y03501*
X05122Y03498*
X0512Y03497*
X05114*
X05112Y03498*
X05109Y03501*
X05108Y03503*
X05084Y0352D02*
X05086Y03523D01*
X0509Y03524*
X05092*
X05096Y03523*
X05099Y03519*
X051Y03513*
Y03506*
X05099Y03501*
X05096Y03498*
X05092Y03497*
X05091*
X05087Y03498*
X05084Y03501*
X05083Y03505*
Y03506*
X05084Y0351*
X05087Y03513*
X05091Y03514*
X05092*
X05096Y03513*
X05099Y0351*
X051Y03506*
X05061Y03524D02*
X05074D01*
X05076Y03513*
X05074Y03514*
X0507Y03515*
X05067*
X05063Y03514*
X0506Y03511*
X05059Y03507*
Y03505*
X0506Y03501*
X05063Y03498*
X05067Y03497*
X0507*
X05074Y03498*
X05076Y03499*
X05077Y03502*
X05105Y04165D02*
X05106Y04168D01*
X05108Y0417*
X05111Y04172*
X05116*
X05119Y0417*
X05122Y04168*
X05123Y04165*
X05124Y04161*
Y04155*
X05123Y04151*
X05122Y04148*
X05119Y04146*
X05116Y04144*
X05111*
X05108Y04146*
X05106Y04148*
X05105Y04151*
X05081Y04168D02*
X05082Y0417D01*
X05086Y04172*
X05089*
X05093Y0417*
X05095Y04167*
X05097Y0416*
Y04153*
X05095Y04148*
X05093Y04146*
X05089Y04144*
X05088*
X05084Y04146*
X05081Y04148*
X0508Y04152*
Y04153*
X05081Y04157*
X05084Y0416*
X05088Y04161*
X05089*
X05093Y0416*
X05095Y04157*
X05097Y04153*
X05061Y04172D02*
X05074Y04153D01*
X05054*
X05061Y04172D02*
Y04144D01*
X04198Y03639D02*
X042Y03641D01*
X04202Y03644*
X04205Y03645*
X0421*
X04213Y03644*
X04215Y03641*
X04217Y03639*
X04218Y03635*
Y03628*
X04217Y03624*
X04215Y03622*
X04213Y03619*
X0421Y03618*
X04205*
X04202Y03619*
X042Y03622*
X04198Y03624*
X04175Y03641D02*
X04176Y03644D01*
X0418Y03645*
X04183*
X04187Y03644*
X04189Y0364*
X04191Y03633*
Y03627*
X04189Y03622*
X04187Y03619*
X04183Y03618*
X04181*
X04178Y03619*
X04175Y03622*
X04174Y03626*
Y03627*
X04175Y03631*
X04178Y03633*
X04181Y03635*
X04183*
X04187Y03633*
X04189Y03631*
X04191Y03627*
X04165Y03645D02*
X0415D01*
X04158Y03635*
X04154*
X04152Y03633*
X0415Y03632*
X04149Y03628*
Y03626*
X0415Y03622*
X04153Y03619*
X04157Y03618*
X04161*
X04165Y03619*
X04166Y0362*
X04168Y03623*
X03056Y02806D02*
X03058Y02809D01*
X0306Y02811*
X03063Y02813*
X03068*
X03071Y02811*
X03073Y02809*
X03075Y02806*
X03076Y02802*
Y02795*
X03075Y02792*
X03073Y02789*
X03071Y02786*
X03068Y02785*
X03063*
X0306Y02786*
X03058Y02789*
X03056Y02792*
X03047Y02806D02*
Y02807D01*
X03046Y0281*
X03045Y02811*
X03042Y02813*
X03037*
X03034Y02811*
X03033Y0281*
X03032Y02807*
Y02805*
X03033Y02802*
X03036Y02798*
X03049Y02785*
X0303*
X03023Y02806D02*
Y02807D01*
X03021Y0281*
X0302Y02811*
X03018Y02813*
X03012*
X0301Y02811*
X03008Y0281*
X03007Y02807*
Y02805*
X03008Y02802*
X03011Y02798*
X03024Y02785*
X03006*
G54D15*
X04031Y01131D02*
X04063D01*
X03063Y03911D02*
X03094D01*
G54D16*
X0358Y03497D02*
X03577Y03499D01*
X03572Y03504*
Y0347*
X03556Y03484D02*
X03527D01*
X03582Y03405D02*
X03564D01*
X03574Y03392*
X03569*
X03566Y03391*
X03564Y03389*
X03563Y03384*
Y03381*
X03564Y03376*
X03568Y03373*
X03572Y03372*
X03577*
X03582Y03373*
X03584Y03375*
X03585Y03378*
X03555Y03386D02*
X03527D01*
X03584Y03446D02*
Y03448D01*
X03582Y03451*
X0358Y03453*
X03577Y03454*
X03571*
X03568Y03453*
X03566Y03451*
X03564Y03448*
Y03445*
X03566Y03442*
X03569Y03437*
X03585Y03421*
X03563*
X03555Y03435D02*
X03527D01*
X03239Y03835D02*
X03235Y03836D01*
X03231Y03841*
Y03808*
X03242Y0373D02*
Y03731D01*
X0324Y03735*
X03239Y03736*
X03236Y03738*
X03229*
X03226Y03736*
X03224Y03735*
X03223Y03731*
Y03728*
X03224Y03725*
X03228Y0372*
X03244Y03704*
X03221*
X03196Y03638D02*
X03179D01*
X03188Y03626*
X03183*
X0318Y03624*
X03179Y03622*
X03177Y03618*
Y03615*
X03179Y0361*
X03182Y03607*
X03187Y03605*
X03191*
X03196Y03607*
X03198Y03608*
X03199Y03611*
X04324Y03305D02*
X04325Y03308D01*
X04328Y0331*
X0433Y03312*
X04336*
X04338Y0331*
X04341Y03308*
X04342Y03305*
X04343Y03301*
Y03294*
X04342Y03291*
X04341Y03288*
X04338Y03285*
X04336Y03284*
X0433*
X04328Y03285*
X04325Y03288*
X04324Y03291*
X043Y03308D02*
X04302Y0331D01*
X04305Y03312*
X04308*
X04312Y0331*
X04315Y03306*
X04316Y033*
Y03293*
X04315Y03288*
X04312Y03285*
X04308Y03284*
X04307*
X04303Y03285*
X043Y03288*
X04299Y03292*
Y03293*
X043Y03297*
X04303Y033*
X04307Y03301*
X04308*
X04312Y033*
X04315Y03297*
X04316Y03293*
X04277Y03308D02*
X04278Y0331D01*
X04282Y03312*
X04285*
X04289Y0331*
X04292Y03306*
X04293Y033*
Y03293*
X04292Y03288*
X04289Y03285*
X04285Y03284*
X04284*
X0428Y03285*
X04277Y03288*
X04276Y03292*
Y03293*
X04277Y03297*
X0428Y033*
X04284Y03301*
X04285*
X04289Y033*
X04292Y03297*
X04293Y03293*
X04557Y01452D02*
X04584D01*
X04557D02*
Y01441D01*
X04558Y01437*
X04559Y01435*
X04562Y01434*
X04565*
X04567Y01435*
X04568Y01437*
X0457Y01441*
Y01452*
Y01443D02*
X04584Y01434D01*
X04562Y01428D02*
X04561Y01425D01*
X04557Y01421*
X04584*
X04557Y01405D02*
Y01391D01*
X04567Y01398*
Y01395*
X04568Y01392*
X0457Y01391*
X04574Y01389*
X04576*
X0458Y01391*
X04583Y01393*
X04584Y01397*
Y01401*
X04583Y01405*
X04582Y01406*
X04579Y01408*
X04599Y01458D02*
X04626D01*
X04599D02*
Y01446D01*
X046Y01442*
X04602Y01441*
X04604Y0144*
X04607*
X04609Y01441*
X04611Y01442*
X04612Y01446*
Y01458*
Y01449D02*
X04626Y0144D01*
X04604Y01433D02*
X04603Y01431D01*
X04599Y01427*
X04626*
X04605Y01412D02*
X04604D01*
X04602Y01411*
X046Y01409*
X04599Y01407*
Y01401*
X046Y01399*
X04602Y01397*
X04604Y01396*
X04607*
X04609Y01397*
X04613Y014*
X04626Y01413*
Y01395*
X04844Y01278D02*
X04872D01*
X04844D02*
Y01266D01*
X04845Y01262*
X04847Y01261*
X04849Y0126*
X04852*
X04855Y01261*
X04856Y01262*
X04857Y01266*
Y01278*
Y01269D02*
X04872Y0126D01*
X04853Y01237D02*
X04857Y01238D01*
X0486Y01241*
X04861Y01245*
Y01246*
X0486Y0125*
X04857Y01252*
X04853Y01254*
X04852*
X04848Y01252*
X04845Y0125*
X04844Y01246*
Y01245*
X04845Y01241*
X04848Y01238*
X04853Y01237*
X0486*
X04866Y01238*
X0487Y01241*
X04872Y01245*
Y01247*
X0487Y01251*
X04868Y01252*
X0375Y04104D02*
Y04076D01*
Y04104D02*
X03739D01*
X03735Y04103*
X03733Y04101*
X03732Y04099*
Y04096*
X03733Y04093*
X03735Y04092*
X03739Y04091*
X0375*
X03741D02*
X03732Y04076D01*
X0371Y04104D02*
X03723D01*
X03725Y04092*
X03723Y04093*
X03719Y04095*
X03715*
X03711Y04093*
X03709Y04091*
X03708Y04087*
Y04084*
X03709Y0408*
X03711Y04078*
X03715Y04076*
X03719*
X03723Y04078*
X03725Y04079*
X03726Y04082*
X03688Y04104D02*
X03701Y04086D01*
X03682*
X03688Y04104D02*
Y04076D01*
X03903Y03931D02*
Y03903D01*
Y03931D02*
X03892D01*
X03888Y03929*
X03886Y03928*
X03885Y03925*
Y03923*
X03886Y0392*
X03888Y03919*
X03892Y03918*
X03903*
X03894D02*
X03885Y03903D01*
X03863Y03931D02*
X03876D01*
X03878Y03919*
X03876Y0392*
X03872Y03921*
X03868*
X03864Y0392*
X03862Y03918*
X0386Y03914*
Y03911*
X03862Y03907*
X03864Y03904*
X03868Y03903*
X03872*
X03876Y03904*
X03878Y03906*
X03879Y03908*
X03852Y03931D02*
X03837D01*
X03845Y0392*
X03841*
X03839Y03919*
X03837Y03918*
X03836Y03914*
Y03911*
X03837Y03907*
X0384Y03904*
X03844Y03903*
X03848*
X03852Y03904*
X03853Y03906*
X03854Y03908*
X03154Y02187D02*
X03156Y0219D01*
X03158Y02192*
X03161Y02193*
X03166*
X03169Y02192*
X03172Y0219*
X03173Y02187*
X03174Y02183*
Y02176*
X03173Y02172*
X03172Y0217*
X03169Y02167*
X03166Y02166*
X03161*
X03158Y02167*
X03156Y0217*
X03154Y02172*
X0314Y02193D02*
X03144Y02192D01*
X03145Y0219*
Y02187*
X03144Y02184*
X03141Y02183*
X03136Y02182*
X03132Y0218*
X0313Y02178*
X03128Y02175*
Y02171*
X0313Y02169*
X03131Y02167*
X03135Y02166*
X0314*
X03144Y02167*
X03145Y02169*
X03147Y02171*
Y02175*
X03145Y02178*
X03143Y0218*
X03139Y02182*
X03134Y02183*
X03131Y02184*
X0313Y02187*
Y0219*
X03131Y02192*
X03135Y02193*
X0314*
X03109D02*
X03122Y02175D01*
X03103*
X03109Y02193D02*
Y02166D01*
X03171Y02063D02*
X03172Y02065D01*
X03174Y02068*
X03177Y02069*
X03182*
X03185Y02068*
X03188Y02065*
X03189Y02063*
X0319Y02059*
Y02052*
X03189Y02048*
X03188Y02046*
X03185Y02043*
X03182Y02042*
X03177*
X03174Y02043*
X03172Y02046*
X03171Y02048*
X03156Y02069D02*
X0316Y02068D01*
X03161Y02065*
Y02063*
X0316Y0206*
X03158Y02059*
X03152Y02058*
X03148Y02056*
X03146Y02054*
X03144Y02051*
Y02047*
X03146Y02045*
X03147Y02043*
X03151Y02042*
X03156*
X0316Y02043*
X03161Y02045*
X03163Y02047*
Y02051*
X03161Y02054*
X03159Y02056*
X03155Y02058*
X0315Y02059*
X03147Y0206*
X03146Y02063*
Y02065*
X03147Y02068*
X03151Y02069*
X03156*
X03132D02*
X03136Y02068D01*
X03137Y02065*
Y02063*
X03136Y0206*
X03133Y02059*
X03128Y02058*
X03124Y02056*
X03121Y02054*
X0312Y02051*
Y02047*
X03121Y02045*
X03123Y02043*
X03126Y02042*
X03132*
X03136Y02043*
X03137Y02045*
X03138Y02047*
Y02051*
X03137Y02054*
X03134Y02056*
X0313Y02058*
X03125Y02059*
X03123Y0206*
X03121Y02063*
Y02065*
X03123Y02068*
X03126Y02069*
X03132*
X04228Y01711D02*
X0423Y01714D01*
X04232Y01717*
X04235Y01718*
X0424*
X04243Y01717*
X04245Y01714*
X04247Y01711*
X04248Y01708*
Y01701*
X04247Y01697*
X04245Y01694*
X04243Y01692*
X0424Y0169*
X04235*
X04232Y01692*
X0423Y01694*
X04228Y01697*
X04207Y01718D02*
X04221Y017D01*
X04201*
X04207Y01718D02*
Y0169D01*
X04183Y01718D02*
X04196Y017D01*
X04176*
X04183Y01718D02*
Y0169D01*
X02957Y03431D02*
Y03411D01*
X02956Y03407*
X02953Y03404*
X02949Y03403*
X02947*
X02943Y03404*
X0294Y03407*
X02939Y03411*
Y03431*
X02931Y03425D02*
X02928Y03427D01*
X02924Y03431*
Y03403*
X02903Y03431D02*
X02907Y03429D01*
X0291Y03425*
X02911Y03419*
Y03415*
X0291Y03408*
X02907Y03404*
X02903Y03403*
X029*
X02896Y03404*
X02894Y03408*
X02892Y03415*
Y03419*
X02894Y03425*
X02896Y03429*
X029Y03431*
X02903*
X03013Y03336D02*
Y03309D01*
Y03336D02*
X02994Y03309D01*
Y03336D02*
Y03309D01*
X02978Y03336D02*
Y03309D01*
X02987Y03336D02*
X02969D01*
X02964Y0333D02*
Y03331D01*
X02963Y03334*
X02961Y03335*
X02959Y03336*
X02953*
X02951Y03335*
X02949Y03334*
X02948Y03331*
Y03328*
X02949Y03326*
X02952Y03322*
X02965Y03309*
X02947*
X02724Y03715D02*
X02725Y03718D01*
X02728Y03721*
X0273Y03722*
X02736*
X02738Y03721*
X02741Y03718*
X02742Y03715*
X02743Y03711*
Y03705*
X02742Y03701*
X02741Y03698*
X02738Y03696*
X02736Y03694*
X0273*
X02728Y03696*
X02725Y03698*
X02724Y03701*
X027Y03722D02*
X02713D01*
X02715Y0371*
X02713Y03711*
X02709Y03713*
X02705*
X02702Y03711*
X02699Y03709*
X02698Y03705*
Y03702*
X02699Y03698*
X02702Y03696*
X02705Y03694*
X02709*
X02713Y03696*
X02715Y03697*
X02716Y037*
X02676Y03722D02*
X02689D01*
X0269Y0371*
X02689Y03711*
X02685Y03713*
X02681*
X02677Y03711*
X02674Y03709*
X02673Y03705*
Y03702*
X02674Y03698*
X02677Y03696*
X02681Y03694*
X02685*
X02689Y03696*
X0269Y03697*
X02691Y037*
X0261Y0344D02*
X02611Y03442D01*
X02614Y03445*
X02617Y03446*
X02622*
X02625Y03445*
X02627Y03442*
X02629Y0344*
X0263Y03436*
Y03429*
X02629Y03425*
X02627Y03423*
X02625Y0342*
X02622Y03419*
X02617*
X02614Y0342*
X02611Y03423*
X0261Y03425*
X02587Y03446D02*
X026D01*
X02601Y03435*
X026Y03436*
X02596Y03437*
X02592*
X02588Y03436*
X02585Y03433*
X02584Y03429*
Y03427*
X02585Y03423*
X02588Y0342*
X02592Y03419*
X02596*
X026Y0342*
X02601Y03421*
X02602Y03424*
X02565Y03446D02*
X02578Y03428D01*
X02558*
X02565Y03446D02*
Y03419D01*
X02602Y03731D02*
X02603Y03734D01*
X02606Y03736*
X02608Y03738*
X02613*
X02616Y03736*
X02619Y03734*
X0262Y03731*
X02621Y03727*
Y03721*
X0262Y03717*
X02619Y03714*
X02616Y03711*
X02613Y0371*
X02608*
X02606Y03711*
X02603Y03714*
X02602Y03717*
X02578Y03738D02*
X02591D01*
X02593Y03726*
X02591Y03727*
X02587Y03729*
X02583*
X02579Y03727*
X02577Y03725*
X02576Y03721*
Y03718*
X02577Y03714*
X02579Y03711*
X02583Y0371*
X02587*
X02591Y03711*
X02593Y03713*
X02594Y03715*
X02567Y03738D02*
X02552D01*
X0256Y03727*
X02556*
X02554Y03726*
X02552Y03725*
X02551Y03721*
Y03718*
X02552Y03714*
X02555Y03711*
X02559Y0371*
X02563*
X02567Y03711*
X02568Y03713*
X02569Y03715*
X02988Y03565D02*
X0299Y03567D01*
X02992Y0357*
X02995Y03571*
X03*
X03003Y0357*
X03006Y03567*
X03007Y03565*
X03008Y03561*
Y03554*
X03007Y0355*
X03006Y03548*
X03003Y03545*
X03Y03544*
X02995*
X02992Y03545*
X0299Y03548*
X02988Y0355*
X02965Y03571D02*
X02978D01*
X02979Y0356*
X02978Y03561*
X02974Y03562*
X0297*
X02966Y03561*
X02964Y03558*
X02962Y03554*
Y03552*
X02964Y03548*
X02966Y03545*
X0297Y03544*
X02974*
X02978Y03545*
X02979Y03546*
X02981Y03549*
X02955Y03565D02*
Y03566D01*
X02954Y03569*
X02952Y0357*
X0295Y03571*
X02944*
X02942Y0357*
X0294Y03569*
X02939Y03566*
Y03564*
X0294Y03561*
X02943Y03557*
X02956Y03544*
X02938*
X02872Y03716D02*
X02874Y03719D01*
X02876Y03722*
X02879Y03723*
X02884*
X02887Y03722*
X02889Y03719*
X02891Y03716*
X02892Y03712*
Y03706*
X02891Y03702*
X02889Y03699*
X02887Y03697*
X02884Y03695*
X02879*
X02876Y03697*
X02874Y03699*
X02872Y03702*
X02849Y03723D02*
X02862D01*
X02863Y03711*
X02862Y03712*
X02858Y03714*
X02854*
X0285Y03712*
X02848Y0371*
X02846Y03706*
Y03703*
X02848Y03699*
X0285Y03697*
X02854Y03695*
X02858*
X02862Y03697*
X02863Y03698*
X02865Y03701*
X0284Y03718D02*
X02838Y03719D01*
X02834Y03723*
Y03695*
X04146Y01247D02*
Y01219D01*
Y01247D02*
X04134D01*
X0413Y01245*
X04129Y01244*
X04127Y01241*
Y01239*
X04129Y01236*
X0413Y01235*
X04134Y01233*
X04146*
X04137D02*
X04127Y01219D01*
X0412Y0124D02*
Y01241D01*
X04119Y01244*
X04117Y01245*
X04115Y01247*
X04109*
X04107Y01245*
X04106Y01244*
X04104Y01241*
Y01239*
X04106Y01236*
X04108Y01232*
X04121Y01219*
X04103*
X04081Y01243D02*
X04082Y01245D01*
X04086Y01247*
X04089*
X04093Y01245*
X04095Y01241*
X04097Y01235*
Y01228*
X04095Y01223*
X04093Y0122*
X04089Y01219*
X04088*
X04084Y0122*
X04081Y01223*
X0408Y01227*
Y01228*
X04081Y01232*
X04084Y01235*
X04088Y01236*
X04089*
X04093Y01235*
X04095Y01232*
X04097Y01228*
X03938Y01247D02*
Y01219D01*
Y01247D02*
X03926D01*
X03922Y01245*
X03921Y01244*
X03919Y01241*
Y01239*
X03921Y01236*
X03922Y01235*
X03926Y01233*
X03938*
X03929D02*
X03919Y01219D01*
X03912Y0124D02*
Y01241D01*
X03911Y01244*
X03909Y01245*
X03907Y01247*
X03901*
X03899Y01245*
X03898Y01244*
X03896Y01241*
Y01239*
X03898Y01236*
X039Y01232*
X03913Y01219*
X03895*
X03889Y01241D02*
X03886Y01243D01*
X03882Y01247*
Y01219*
X04098Y01285D02*
X04101Y01288D01*
X04105Y01289*
X0411*
X04114Y01288*
X04116Y01285*
Y01282*
X04115Y0128*
X04114Y01278*
X04111Y01277*
X04103Y01274*
X04101Y01273*
X04099Y01272*
X04098Y01269*
Y01265*
X04101Y01263*
X04105Y01261*
X0411*
X04114Y01263*
X04116Y01265*
X04083Y01289D02*
Y01261D01*
X04092Y01289D02*
X04073D01*
X04049Y01261D02*
X0406Y01289D01*
X0407Y01261*
X04066Y01271D02*
X04053D01*
X04034Y01289D02*
Y01261D01*
X04043Y01289D02*
X04024D01*
X03993D02*
Y01261D01*
X03977*
X03974Y01289D02*
Y01261D01*
Y01289D02*
X03962D01*
X03958Y01288*
X03957Y01286*
X03955Y01284*
Y01281*
X03957Y01278*
X03958Y01277*
X03962Y01276*
X03974D02*
X03962D01*
X03958Y01274*
X03957Y01273*
X03955Y01271*
Y01267*
X03957Y01264*
X03958Y01263*
X03962Y01261*
X03974*
X04757Y04239D02*
X04758Y04242D01*
X04761Y04244*
X04764Y04246*
X04769*
X04772Y04244*
X04774Y04242*
X04776Y04239*
X04777Y04235*
Y04229*
X04776Y04225*
X04774Y04222*
X04772Y04219*
X04769Y04218*
X04764*
X04761Y04219*
X04758Y04222*
X04757Y04225*
X04731Y04246D02*
X04744Y04218D01*
X04749Y04246D02*
X04731D01*
X04725Y0424D02*
X04722Y04242D01*
X04718Y04246*
Y04218*
X05104Y03758D02*
X05105Y0376D01*
X05108Y03763*
X0511Y03764*
X05115*
X05118Y03763*
X05121Y0376*
X05122Y03758*
X05123Y03754*
Y03747*
X05122Y03743*
X05121Y03741*
X05118Y03738*
X05115Y03737*
X0511*
X05108Y03738*
X05105Y03741*
X05104Y03743*
X05078Y03764D02*
X05091Y03737D01*
X05096Y03764D02*
X05078D01*
X05063D02*
X05067Y03763D01*
X0507Y03759*
X05071Y03753*
Y03749*
X0507Y03742*
X05067Y03738*
X05063Y03737*
X05061*
X05057Y03738*
X05054Y03742*
X05053Y03749*
Y03753*
X05054Y03759*
X05057Y03763*
X05061Y03764*
X05063*
X02634Y0197D02*
Y0195D01*
X02633Y01946*
X0263Y01944*
X02626Y01942*
X02624*
X0262Y01944*
X02617Y01946*
X02616Y0195*
Y0197*
X02608Y01965D02*
X02606Y01966D01*
X02602Y0197*
Y01942*
X02572Y0197D02*
X02585D01*
X02587Y01958*
X02585Y0196*
X02581Y01961*
X02578*
X02574Y0196*
X02571Y01957*
X0257Y01953*
Y0195*
X02571Y01946*
X02574Y01944*
X02578Y01942*
X02581*
X02585Y01944*
X02587Y01945*
X02588Y01948*
X02431Y01963D02*
X02458D01*
X02431D02*
Y01952D01*
X02432Y01948*
X02433Y01946*
X02436Y01945*
X02439*
X02441Y01946*
X02442Y01948*
X02444Y01952*
Y01963*
Y01954D02*
X02458Y01945D01*
X02431Y01923D02*
Y01936D01*
X02442Y01938*
X02441Y01936*
X0244Y01932*
Y01928*
X02441Y01924*
X02444Y01922*
X02448Y0192*
X0245*
X02454Y01922*
X02457Y01924*
X02458Y01928*
Y01932*
X02457Y01936*
X02456Y01938*
X02453Y01939*
X02431Y01896D02*
X02458Y01909D01*
X02431Y01914D02*
Y01896D01*
X03015Y01807D02*
Y01794D01*
X03014Y0179*
X03011Y01789*
X03007*
X03005Y0179*
X03001Y01794*
Y01807D02*
Y01789D01*
X02975Y01813D02*
X02978Y01815D01*
X02982Y01816*
X02987*
X02991Y01815*
X02993Y01813*
Y0181*
X02992Y01807*
X02991Y01806*
X02988Y01805*
X0298Y01802*
X02978Y01801*
X02976Y01799*
X02975Y01797*
Y01793*
X02978Y0179*
X02982Y01789*
X02987*
X02991Y0179*
X02993Y01793*
X02969Y01816D02*
Y01789D01*
Y01816D02*
X0296D01*
X02956Y01815*
X02953Y01813*
X02952Y0181*
X02951Y01806*
Y01799*
X02952Y01795*
X02953Y01793*
X02956Y0179*
X0296Y01789*
X02969*
X02768Y01864D02*
X02769Y01867D01*
X02772Y01869*
X02775Y01871*
X0278*
X02782Y01869*
X02785Y01867*
X02786Y01864*
X02788Y0186*
Y01854*
X02786Y0185*
X02785Y01847*
X02782Y01844*
X0278Y01843*
X02775*
X02772Y01844*
X02769Y01847*
X02768Y0185*
X02754Y01871D02*
X02758Y01869D01*
X02759Y01867*
Y01864*
X02758Y01861*
X02755Y0186*
X0275Y01859*
X02746Y01857*
X02743Y01855*
X02742Y01852*
Y01848*
X02743Y01846*
X02744Y01844*
X02748Y01843*
X02754*
X02758Y01844*
X02759Y01846*
X0276Y01848*
Y01852*
X02759Y01855*
X02756Y01857*
X02752Y01859*
X02747Y0186*
X02744Y01861*
X02743Y01864*
Y01867*
X02744Y01869*
X02748Y01871*
X02754*
X02717D02*
X0273Y01843D01*
X02736Y01871D02*
X02717D01*
X02672Y01826D02*
X02673Y01829D01*
X02676Y01832*
X02678Y01833*
X02684*
X02686Y01832*
X02689Y01829*
X0269Y01826*
X02692Y01822*
Y01816*
X0269Y01812*
X02689Y01809*
X02686Y01807*
X02684Y01805*
X02678*
X02676Y01807*
X02673Y01809*
X02672Y01812*
X02658Y01833D02*
X02661Y01832D01*
X02663Y01829*
Y01826*
X02661Y01824*
X02659Y01822*
X02654Y01821*
X0265Y0182*
X02647Y01817*
X02646Y01814*
Y01811*
X02647Y01808*
X02648Y01807*
X02652Y01805*
X02658*
X02661Y01807*
X02663Y01808*
X02664Y01811*
Y01814*
X02663Y01817*
X0266Y0182*
X02656Y01821*
X02651Y01822*
X02648Y01824*
X02647Y01826*
Y01829*
X02648Y01832*
X02652Y01833*
X02658*
X02624Y01829D02*
X02625Y01832D01*
X02629Y01833*
X02632*
X02636Y01832*
X02638Y01828*
X0264Y01821*
Y01814*
X02638Y01809*
X02636Y01807*
X02632Y01805*
X0263*
X02626Y01807*
X02624Y01809*
X02623Y01813*
Y01814*
X02624Y01818*
X02626Y01821*
X0263Y01822*
X02632*
X02636Y01821*
X02638Y01818*
X0264Y01814*
X02532Y02019D02*
X02533Y02021D01*
X02536Y02024*
X02538Y02025*
X02544*
X02546Y02024*
X02549Y02021*
X0255Y02019*
X02551Y02015*
Y02008*
X0255Y02004*
X02549Y02002*
X02546Y01999*
X02544Y01998*
X02538*
X02536Y01999*
X02533Y02002*
X02532Y02004*
X02517Y02025D02*
X02521Y02024D01*
X02523Y02021*
Y02019*
X02521Y02016*
X02519Y02015*
X02514Y02013*
X0251Y02012*
X02507Y02009*
X02506Y02007*
Y02003*
X02507Y02*
X02508Y01999*
X02512Y01998*
X02517*
X02521Y01999*
X02523Y02*
X02524Y02003*
Y02007*
X02523Y02009*
X0252Y02012*
X02516Y02013*
X02511Y02015*
X02508Y02016*
X02507Y02019*
Y02021*
X02508Y02024*
X02512Y02025*
X02517*
X02484D02*
X02497D01*
X02498Y02013*
X02497Y02015*
X02493Y02016*
X02489*
X02485Y02015*
X02482Y02012*
X02481Y02008*
Y02005*
X02482Y02002*
X02485Y01999*
X02489Y01998*
X02493*
X02497Y01999*
X02498Y02*
X02499Y02003*
X05094Y04357D02*
X05083Y04329D01*
X05073Y04357D02*
X05083Y04329D01*
X05062Y04357D02*
X05064Y04356D01*
X05067Y04353*
X05068Y0435*
X05069Y04346*
Y0434*
X05068Y04336*
X05067Y04333*
X05064Y04331*
X05062Y04329*
X05056*
X05054Y04331*
X05051Y04333*
X0505Y04336*
X05048Y0434*
Y04346*
X0505Y0435*
X05051Y04353*
X05054Y04356*
X05056Y04357*
X05062*
X05042D02*
Y04329D01*
X05026*
X05023Y04341D02*
X05D01*
X04406Y04408D02*
X04395Y0438D01*
X04385Y04408D02*
X04395Y0438D01*
X04374Y04408D02*
X04376Y04407D01*
X04379Y04404*
X0438Y04401*
X04381Y04398*
Y04391*
X0438Y04387*
X04379Y04384*
X04376Y04382*
X04374Y0438*
X04368*
X04366Y04382*
X04363Y04384*
X04362Y04387*
X0436Y04391*
Y04398*
X04362Y04401*
X04363Y04404*
X04366Y04407*
X04368Y04408*
X04374*
X04354D02*
Y0438D01*
X04338*
X04323Y04404D02*
Y0438D01*
X04335Y04392D02*
X04312D01*
X0349Y0439D02*
X03478D01*
X03474Y04391*
X03473Y04392*
X03471Y04395*
Y04399*
X03473Y04401*
X03474Y04403*
X03478Y04404*
X0349*
Y04377*
X03465Y04404D02*
X03459Y04377D01*
X03452Y04404D02*
X03459Y04377D01*
X03452Y04404D02*
X03445Y04377D01*
X03439Y04404D02*
X03445Y04377D01*
X03433Y04404D02*
Y04377D01*
Y04404D02*
X03422D01*
X03418Y04403*
X03416Y04401*
X03415Y04399*
Y04396*
X03416Y04394*
X03418Y04392*
X03422Y04391*
X03433*
X03424D02*
X03415Y04377D01*
X03113Y03494D02*
Y03466D01*
Y03494D02*
X03096D01*
X03113Y03481D02*
X03103D01*
X03093Y03494D02*
Y03466D01*
Y03494D02*
X03081D01*
X03077Y03492*
X03076Y03491*
X03075Y03488*
Y03486*
X03076Y03483*
X03077Y03482*
X03081Y03481*
X03093D02*
X03081D01*
X03077Y03479*
X03076Y03478*
X03075Y03475*
Y03471*
X03076Y03469*
X03077Y03467*
X03081Y03466*
X03093*
X03051Y03484D02*
X03053Y03481D01*
X03055Y03478*
X03059Y03477*
X03061*
X03064Y03478*
X03067Y03481*
X03068Y03484*
Y03486*
X03067Y0349*
X03064Y03492*
X03061Y03494*
X03059*
X03055Y03492*
X03053Y0349*
X03051Y03484*
Y03478*
X03053Y03471*
X03055Y03467*
X03059Y03466*
X03062*
X03066Y03467*
X03067Y0347*
X03113Y03552D02*
Y03524D01*
Y03552D02*
X03096D01*
X03113Y03539D02*
X03102D01*
X03093Y03552D02*
Y03524D01*
Y03552D02*
X03081D01*
X03077Y0355*
X03076Y03549*
X03074Y03546*
Y03544*
X03076Y03541*
X03077Y0354*
X03081Y03539*
X03093D02*
X03081D01*
X03077Y03537*
X03076Y03536*
X03074Y03533*
Y03529*
X03076Y03527*
X03077Y03525*
X03081Y03524*
X03093*
X03061Y03552D02*
X03065Y0355D01*
X03067Y03548*
Y03545*
X03065Y03543*
X03063Y03541*
X03058Y0354*
X03054Y03539*
X03051Y03536*
X0305Y03533*
Y03529*
X03051Y03527*
X03052Y03525*
X03056Y03524*
X03061*
X03065Y03525*
X03067Y03527*
X03068Y03529*
Y03533*
X03067Y03536*
X03064Y03539*
X0306Y0354*
X03055Y03541*
X03052Y03543*
X03051Y03545*
Y03548*
X03052Y0355*
X03056Y03552*
X03061*
X03005Y03663D02*
X02987Y03635D01*
Y03663D02*
X03005Y03635D01*
X02981Y03658D02*
X02978Y03659D01*
X02974Y03663*
Y03635*
X04839Y02613D02*
Y02593D01*
X04838Y02589*
X04835Y02586*
X04831Y02585*
X04829*
X04825Y02586*
X04822Y02589*
X04821Y02593*
Y02613*
X04812Y02606D02*
Y02607D01*
X04811Y0261*
X04809Y02611*
X04807Y02613*
X04801*
X04799Y02611*
X04797Y0261*
X04796Y02607*
Y02605*
X04797Y02602*
X048Y02598*
X04813Y02585*
X04795*
X0477Y02613D02*
X04783Y02585D01*
X04789Y02613D02*
X0477D01*
X04893Y02861D02*
Y02841D01*
X04892Y02837*
X04889Y02835*
X04885Y02833*
X04883*
X04879Y02835*
X04876Y02837*
X04875Y02841*
Y02861*
X04866Y02854D02*
Y02856D01*
X04865Y02858*
X04863Y02859*
X04861Y02861*
X04855*
X04853Y02859*
X04852Y02858*
X0485Y02856*
Y02853*
X04852Y0285*
X04854Y02846*
X04867Y02833*
X04849*
X04827Y02861D02*
X0484D01*
X04841Y02849*
X0484Y0285*
X04836Y02852*
X04832*
X04828Y0285*
X04826Y02848*
X04824Y02844*
Y02841*
X04826Y02837*
X04828Y02835*
X04832Y02833*
X04836*
X0484Y02835*
X04841Y02836*
X04843Y02838*
X04638Y0267D02*
Y0265D01*
X04637Y02646*
X04634Y02644*
X0463Y02642*
X04627*
X04624Y02644*
X04621Y02646*
X0462Y0265*
Y0267*
X04611Y02663D02*
Y02665D01*
X04609Y02667*
X04608Y02669*
X04605Y0267*
X046*
X04598Y02669*
X04596Y02667*
X04595Y02665*
Y02662*
X04596Y02659*
X04599Y02655*
X04612Y02642*
X04594*
X04574Y0267D02*
X04587Y02651D01*
X04568*
X04574Y0267D02*
Y02642D01*
X03647Y03552D02*
Y03532D01*
X03646Y03528*
X03643Y03525*
X03639Y03524*
X03637*
X03633Y03525*
X0363Y03528*
X03629Y03532*
Y03552*
X0362Y03545D02*
Y03546D01*
X03619Y03549*
X03617Y0355*
X03615Y03552*
X03609*
X03607Y0355*
X03605Y03549*
X03604Y03546*
Y03544*
X03605Y03541*
X03608Y03537*
X03621Y03524*
X03603*
X03597Y03546D02*
X03594Y03548D01*
X0359Y03552*
Y03524*
X04144Y04175D02*
Y04155D01*
X04142Y04151*
X0414Y04149*
X04136Y04147*
X04133*
X04129Y04149*
X04127Y04151*
X04125Y04155*
Y04175*
X04118Y04169D02*
X04115Y04171D01*
X04111Y04175*
Y04147*
X04084Y04175D02*
X04098Y04156D01*
X04078*
X04084Y04175D02*
Y04147D01*
X05026Y03499D02*
Y03479D01*
X05025Y03475*
X05022Y03472*
X05018Y03471*
X05015*
X05011Y03472*
X05009Y03475*
X05008Y03479*
Y03499*
X05Y03493D02*
X04997Y03495D01*
X04993Y03499*
Y03471*
X0498Y03493D02*
X04977Y03495D01*
X04973Y03499*
Y03471*
X03391Y0419D02*
Y04171D01*
X0339Y04167*
X03387Y04164*
X03383Y04163*
X0338*
X03376Y04164*
X03374Y04167*
X03372Y04171*
Y0419*
X03358D02*
X03362Y04189D01*
X03364Y04187*
Y04184*
X03362Y04181*
X0336Y0418*
X03354Y04179*
X0335Y04177*
X03348Y04175*
X03346Y04172*
Y04168*
X03348Y04166*
X03349Y04164*
X03353Y04163*
X03358*
X03362Y04164*
X03364Y04166*
X03365Y04168*
Y04172*
X03364Y04175*
X03361Y04177*
X03357Y04179*
X03352Y0418*
X03349Y04181*
X03348Y04184*
Y04187*
X03349Y04189*
X03353Y0419*
X03358*
X03473Y0324D02*
Y0322D01*
X03472Y03216*
X0347Y03213*
X03466Y03212*
X03463*
X03459Y03213*
X03456Y03216*
X03455Y0322*
Y0324*
X03432D02*
X03445D01*
X03446Y03228*
X03445Y03229*
X03441Y03231*
X03437*
X03433Y03229*
X0343Y03227*
X03429Y03223*
Y0322*
X0343Y03216*
X03433Y03213*
X03437Y03212*
X03441*
X03445Y03213*
X03446Y03215*
X03448Y03217*
X03685Y01362D02*
Y01342D01*
X03684Y01338*
X03681Y01336*
X03677Y01334*
X03675*
X03671Y01336*
X03668Y01338*
X03667Y01342*
Y01362*
X03658Y01355D02*
Y01357D01*
X03657Y01359*
X03655Y0136*
X03653Y01362*
X03647*
X03645Y0136*
X03643Y01359*
X03642Y01357*
Y01354*
X03643Y01351*
X03646Y01347*
X03659Y01334*
X03641*
X04919Y04253D02*
Y04225D01*
Y04253D02*
X04907D01*
X04903Y04251*
X04902Y0425*
X049Y04247*
Y04245*
X04902Y04242*
X04903Y04241*
X04907Y04239*
X04919*
X0491D02*
X049Y04225D01*
X04894Y04253D02*
Y04225D01*
Y04253D02*
X04876Y04225D01*
Y04253D02*
Y04225D01*
X0485Y04253D02*
X04863Y04225D01*
X04868Y04253D02*
X0485D01*
X04697Y04275D02*
Y04248D01*
Y04275D02*
X04685D01*
X04681Y04274*
X0468Y04273*
X04678Y0427*
Y04267*
X0468Y04265*
X04681Y04263*
X04685Y04262*
X04697*
X04688D02*
X04678Y04248D01*
X04672Y04275D02*
Y04248D01*
Y04275D02*
X04654Y04248D01*
Y04275D02*
Y04248D01*
X0463Y04271D02*
X04632Y04274D01*
X04636Y04275*
X04638*
X04642Y04274*
X04645Y0427*
X04646Y04263*
Y04257*
X04645Y04252*
X04642Y04249*
X04638Y04248*
X04637*
X04633Y04249*
X0463Y04252*
X04629Y04255*
Y04257*
X0463Y04261*
X04633Y04263*
X04637Y04265*
X04638*
X04642Y04263*
X04645Y04261*
X04646Y04257*
X04613Y04275D02*
Y04248D01*
Y04275D02*
X04601D01*
X04597Y04274*
X04596Y04273*
X04594Y0427*
Y04267*
X04596Y04265*
X04597Y04263*
X04601Y04262*
X04613*
X04604D02*
X04594Y04248D01*
X04588Y04275D02*
Y04248D01*
Y04275D02*
X0457Y04248D01*
Y04275D02*
Y04248D01*
X04546Y04275D02*
X0456D01*
X04561Y04263*
X0456Y04265*
X04556Y04266*
X04552*
X04548Y04265*
X04545Y04262*
X04544Y04258*
Y04255*
X04545Y04252*
X04548Y04249*
X04552Y04248*
X04556*
X0456Y04249*
X04561Y0425*
X04562Y04253*
X04263Y04076D02*
Y04049D01*
Y04076D02*
X04251D01*
X04247Y04075*
X04246Y04074*
X04245Y04071*
Y04068*
X04246Y04066*
X04247Y04065*
X04251Y04063*
X04263*
X04254D02*
X04245Y04049D01*
X04238Y04076D02*
Y04049D01*
Y04076D02*
X0422Y04049D01*
Y04076D02*
Y04049D01*
X04199Y04076D02*
X04212Y04058D01*
X04193*
X04199Y04076D02*
Y04049D01*
X04265Y03989D02*
Y03961D01*
Y03989D02*
X04253D01*
X0425Y03987*
X04248Y03986*
X04247Y03983*
Y03981*
X04248Y03978*
X0425Y03977*
X04253Y03976*
X04265*
X04256D02*
X04247Y03961D01*
X04241Y03989D02*
Y03961D01*
Y03989D02*
X04222Y03961D01*
Y03989D02*
Y03961D01*
X04212Y03989D02*
X04198D01*
X04206Y03978*
X04202*
X04199Y03977*
X04198Y03976*
X04196Y03972*
Y03969*
X04198Y03965*
X042Y03962*
X04204Y03961*
X04208*
X04212Y03962*
X04213Y03964*
X04215Y03966*
X04265Y03872D02*
Y03844D01*
Y03872D02*
X04253D01*
X0425Y0387*
X04248Y03869*
X04247Y03866*
Y03864*
X04248Y03861*
X0425Y0386*
X04253Y03858*
X04265*
X04256D02*
X04247Y03844D01*
X04241Y03872D02*
Y03844D01*
Y03872D02*
X04222Y03844D01*
Y03872D02*
Y03844D01*
X04213Y03865D02*
Y03866D01*
X04212Y03869*
X04211Y0387*
X04208Y03872*
X04203*
X042Y0387*
X04199Y03869*
X04198Y03866*
Y03864*
X04199Y03861*
X04202Y03857*
X04215Y03844*
X04196*
X04265Y0379D02*
Y03762D01*
Y0379D02*
X04253D01*
X0425Y03789*
X04248Y03787*
X04247Y03785*
Y03782*
X04248Y03779*
X0425Y03778*
X04253Y03777*
X04265*
X04256D02*
X04247Y03762D01*
X04241Y0379D02*
Y03762D01*
Y0379D02*
X04222Y03762D01*
Y0379D02*
Y03762D01*
X04215Y03785D02*
X04212Y03786D01*
X04208Y0379*
Y03762*
X0375Y03769D02*
Y03742D01*
Y03769D02*
X03738D01*
X03734Y03768*
X03733Y03767*
X03731Y03764*
Y03761*
X03733Y03759*
X03734Y03757*
X03738Y03756*
X0375*
X03741D02*
X03731Y03742D01*
X03707Y03769D02*
X0372Y03742D01*
X03725Y03769D02*
X03707D01*
X03698D02*
X03684D01*
X03692Y03759*
X03688*
X03685Y03757*
X03684Y03756*
X03682Y03752*
Y0375*
X03684Y03746*
X03686Y03743*
X0369Y03742*
X03694*
X03698Y03743*
X03699Y03744*
X03701Y03747*
X03049Y04065D02*
Y04037D01*
Y04065D02*
X03037D01*
X03033Y04063*
X03032Y04062*
X03031Y04059*
Y04057*
X03032Y04054*
X03033Y04053*
X03037Y04051*
X03049*
X0304D02*
X03031Y04037D01*
X03006Y04065D02*
X03019Y04037D01*
X03024Y04065D02*
X03006D01*
X02999Y04058D02*
Y04059D01*
X02997Y04062*
X02996Y04063*
X02993Y04065*
X02988*
X02986Y04063*
X02984Y04062*
X02983Y04059*
Y04057*
X02984Y04054*
X02987Y0405*
X03Y04037*
X02982*
X03193Y03841D02*
Y03814D01*
Y03841D02*
X03181D01*
X03177Y0384*
X03176Y03838*
X03174Y03836*
Y03833*
X03176Y03831*
X03177Y03829*
X03181Y03828*
X03193*
X03184D02*
X03174Y03814D01*
X0315Y03841D02*
X03163Y03814D01*
X03168Y03841D02*
X0315D01*
X03144Y03836D02*
X03141Y03837D01*
X03137Y03841*
Y03814*
X0375Y0386D02*
Y03832D01*
Y0386D02*
X03738D01*
X03734Y03858*
X03733Y03857*
X03731Y03855*
Y03852*
X03733Y03849*
X03734Y03848*
X03738Y03847*
X0375*
X03741D02*
X03731Y03832D01*
X03707Y0386D02*
X0372Y03832D01*
X03725Y0386D02*
X03707D01*
X03693D02*
X03697Y03858D01*
X03699Y03855*
X03701Y03848*
Y03844*
X03699Y03837*
X03697Y03834*
X03693Y03832*
X0369*
X03686Y03834*
X03684Y03837*
X03682Y03844*
Y03848*
X03684Y03855*
X03686Y03858*
X0369Y0386*
X03693*
X03819Y03931D02*
Y03903D01*
Y03931D02*
X03807D01*
X03804Y03929*
X03802Y03928*
X03801Y03925*
Y03923*
X03802Y0392*
X03804Y03919*
X03807Y03918*
X03819*
X0381D02*
X03801Y03903D01*
X03779Y03927D02*
X0378Y03929D01*
X03784Y03931*
X03787*
X03791Y03929*
X03793Y03925*
X03795Y03919*
Y03912*
X03793Y03907*
X03791Y03904*
X03787Y03903*
X03786*
X03782Y03904*
X03779Y03907*
X03778Y03911*
Y03912*
X03779Y03916*
X03782Y03919*
X03786Y0392*
X03787*
X03791Y03919*
X03793Y03916*
X03795Y03912*
X03755Y03921D02*
X03756Y03918D01*
X03759Y03915*
X03762Y03914*
X03764*
X03768Y03915*
X0377Y03918*
X03772Y03921*
Y03923*
X0377Y03927*
X03768Y03929*
X03764Y03931*
X03762*
X03759Y03929*
X03756Y03927*
X03755Y03921*
Y03915*
X03756Y03908*
X03759Y03904*
X03762Y03903*
X03765*
X03769Y03904*
X0377Y03907*
X03749Y03994D02*
Y03966D01*
Y03994D02*
X03737D01*
X03733Y03992*
X03732Y03991*
X03731Y03988*
Y03986*
X03732Y03983*
X03733Y03982*
X03737Y03981*
X03749*
X0374D02*
X03731Y03966D01*
X03709Y0399D02*
X0371Y03992D01*
X03714Y03994*
X03717*
X03721Y03992*
X03723Y03988*
X03725Y03982*
Y03975*
X03723Y0397*
X03721Y03967*
X03717Y03966*
X03715*
X03711Y03967*
X03709Y0397*
X03707Y03974*
Y03975*
X03709Y03979*
X03711Y03982*
X03715Y03983*
X03717*
X03721Y03982*
X03723Y03979*
X03725Y03975*
X03683Y03994D02*
X03696Y03966D01*
X03701Y03994D02*
X03683D01*
X04762Y04381D02*
Y04354D01*
Y04381D02*
X0475D01*
X04746Y0438*
X04745Y04379*
X04744Y04376*
Y04374*
X04745Y04371*
X04746Y0437*
X0475Y04368*
X04762*
X04753D02*
X04744Y04354D01*
X04722Y04378D02*
X04723Y0438D01*
X04727Y04381*
X04729*
X04733Y0438*
X04736Y04376*
X04737Y0437*
Y04363*
X04736Y04358*
X04733Y04355*
X04729Y04354*
X04728*
X04724Y04355*
X04722Y04358*
X0472Y04362*
Y04363*
X04722Y04367*
X04724Y0437*
X04728Y04371*
X04729*
X04733Y0437*
X04736Y04367*
X04737Y04363*
X04699Y04381D02*
X04712D01*
X04713Y0437*
X04712Y04371*
X04708Y04372*
X04704*
X047Y04371*
X04697Y04368*
X04696Y04364*
Y04362*
X04697Y04358*
X047Y04355*
X04704Y04354*
X04708*
X04712Y04355*
X04713Y04357*
X04714Y04359*
X04372Y04474D02*
Y04446D01*
Y04474D02*
X0436D01*
X04356Y04473*
X04355Y04471*
X04353Y04469*
Y04466*
X04355Y04463*
X04356Y04462*
X0436Y04461*
X04372*
X04363D02*
X04353Y04446D01*
X04332Y0447D02*
X04333Y04473D01*
X04337Y04474*
X04339*
X04343Y04473*
X04346Y04469*
X04347Y04462*
Y04456*
X04346Y0445*
X04343Y04448*
X04339Y04446*
X04338*
X04334Y04448*
X04332Y0445*
X0433Y04454*
Y04456*
X04332Y0446*
X04334Y04462*
X04338Y04463*
X04339*
X04343Y04462*
X04346Y0446*
X04347Y04456*
X04311Y04474D02*
X04324Y04456D01*
X04304*
X04311Y04474D02*
Y04446D01*
X04001Y03024D02*
Y02997D01*
Y03024D02*
X03989D01*
X03985Y03023*
X03984Y03022*
X03982Y03019*
Y03016*
X03984Y03014*
X03985Y03012*
X03989Y03011*
X04001*
X03992D02*
X03982Y02997D01*
X03961Y03024D02*
X03974D01*
X03975Y03012*
X03974Y03014*
X0397Y03015*
X03966*
X03962Y03014*
X03959Y03011*
X03958Y03007*
Y03004*
X03959Y03001*
X03962Y02998*
X03966Y02997*
X0397*
X03974Y02998*
X03975Y02999*
X03976Y03002*
X03945Y03024D02*
X03949Y03023D01*
X0395Y0302*
Y03018*
X03949Y03015*
X03946Y03014*
X03941Y03012*
X03937Y03011*
X03935Y03008*
X03933Y03006*
Y03002*
X03935Y02999*
X03936Y02998*
X0394Y02997*
X03945*
X03949Y02998*
X0395Y02999*
X03952Y03002*
Y03006*
X0395Y03008*
X03948Y03011*
X03944Y03012*
X03939Y03014*
X03936Y03015*
X03935Y03018*
Y0302*
X03936Y03023*
X0394Y03024*
X03945*
X03311Y02271D02*
Y02244D01*
Y02271D02*
X03299D01*
X03295Y0227*
X03294Y02269*
X03293Y02266*
Y02263*
X03294Y02261*
X03295Y02259*
X03299Y02258*
X03311*
X03302D02*
X03293Y02244D01*
X03271Y02271D02*
X03284D01*
X03285Y02259*
X03284Y02261*
X0328Y02262*
X03276*
X03272Y02261*
X0327Y02258*
X03268Y02254*
Y02252*
X0327Y02248*
X03272Y02245*
X03276Y02244*
X0328*
X03284Y02245*
X03285Y02246*
X03287Y02249*
X03246Y02267D02*
X03248Y0227D01*
X03252Y02271*
X03254*
X03258Y0227*
X03261Y02266*
X03262Y02259*
Y02253*
X03261Y02248*
X03258Y02245*
X03254Y02244*
X03253*
X03249Y02245*
X03246Y02248*
X03245Y02252*
Y02253*
X03246Y02257*
X03249Y02259*
X03253Y02261*
X03254*
X03258Y02259*
X03261Y02257*
X03262Y02253*
X03208Y02271D02*
Y02244D01*
Y02271D02*
X03197D01*
X03193Y0227*
X03191Y02269*
X0319Y02266*
Y02263*
X03191Y02261*
X03193Y02259*
X03197Y02258*
X03208*
X03199D02*
X0319Y02244D01*
X03168Y02271D02*
X03181D01*
X03183Y02259*
X03181Y02261*
X03177Y02262*
X03173*
X03169Y02261*
X03167Y02258*
X03166Y02254*
Y02252*
X03167Y02248*
X03169Y02245*
X03173Y02244*
X03177*
X03181Y02245*
X03183Y02246*
X03184Y02249*
X03144Y02271D02*
X03157D01*
X03158Y02259*
X03157Y02261*
X03153Y02262*
X03149*
X03145Y02261*
X03142Y02258*
X03141Y02254*
Y02252*
X03142Y02248*
X03145Y02245*
X03149Y02244*
X03153*
X03157Y02245*
X03158Y02246*
X03159Y02249*
X04252Y0333D02*
Y03303D01*
Y0333D02*
X0424D01*
X04236Y03329*
X04235Y03328*
X04233Y03325*
Y03322*
X04235Y0332*
X04236Y03318*
X0424Y03317*
X04252*
X04243D02*
X04233Y03303D01*
X04211Y0333D02*
X04225D01*
X04226Y03318*
X04225Y0332*
X04221Y03321*
X04217*
X04213Y0332*
X0421Y03317*
X04209Y03313*
Y03311*
X0421Y03307*
X04213Y03304*
X04217Y03303*
X04221*
X04225Y03304*
X04226Y03305*
X04227Y03308*
X04195Y0333D02*
X04199Y03329D01*
X04201Y03325*
X04203Y03318*
Y03315*
X04201Y03308*
X04199Y03304*
X04195Y03303*
X04192*
X04188Y03304*
X04186Y03308*
X04184Y03315*
Y03318*
X04186Y03325*
X04188Y03329*
X04192Y0333*
X04195*
X04145Y03377D02*
Y03349D01*
Y03377D02*
X04133D01*
X04129Y03375*
X04128Y03374*
X04126Y03371*
Y03369*
X04128Y03366*
X04129Y03365*
X04133Y03363*
X04145*
X04136D02*
X04126Y03349D01*
X04107Y03377D02*
X0412Y03358D01*
X04101*
X04107Y03377D02*
Y03349D01*
X04079Y03367D02*
X0408Y03363D01*
X04083Y03361*
X04087Y03359*
X04088*
X04092Y03361*
X04094Y03363*
X04096Y03367*
Y03369*
X04094Y03373*
X04092Y03375*
X04088Y03377*
X04087*
X04083Y03375*
X0408Y03373*
X04079Y03367*
Y03361*
X0408Y03354*
X04083Y0335*
X04087Y03349*
X04089*
X04093Y0335*
X04094Y03353*
X04112Y03485D02*
Y03457D01*
Y03485D02*
X041D01*
X04096Y03483*
X04095Y03482*
X04094Y0348*
Y03477*
X04095Y03474*
X04096Y03473*
X041Y03472*
X04112*
X04103D02*
X04094Y03457D01*
X04074Y03485D02*
X04087Y03466D01*
X04068*
X04074Y03485D02*
Y03457D01*
X04056Y03485D02*
X0406Y03483D01*
X04062Y03481*
Y03478*
X0406Y03476*
X04058Y03474*
X04052Y03473*
X04049Y03472*
X04046Y03469*
X04045Y03466*
Y03462*
X04046Y0346*
X04047Y03459*
X04051Y03457*
X04056*
X0406Y03459*
X04062Y0346*
X04063Y03462*
Y03466*
X04062Y03469*
X04059Y03472*
X04055Y03473*
X0405Y03474*
X04047Y03476*
X04046Y03478*
Y03481*
X04047Y03483*
X04051Y03485*
X04056*
X04144Y03437D02*
Y03409D01*
Y03437D02*
X04133D01*
X04129Y03435*
X04127Y03434*
X04126Y03431*
Y03429*
X04127Y03426*
X04129Y03425*
X04133Y03423*
X04144*
X04135D02*
X04126Y03409D01*
X04107Y03437D02*
X0412Y03418D01*
X041*
X04107Y03437D02*
Y03409D01*
X04077Y03437D02*
X0409Y03409D01*
X04095Y03437D02*
X04077D01*
X03138Y03163D02*
Y03135D01*
Y03163D02*
X03126D01*
X03122Y03162*
X03121Y0316*
X03119Y03158*
Y03155*
X03121Y03152*
X03122Y03151*
X03126Y0315*
X03138*
X03128D02*
X03119Y03135D01*
X03112Y03156D02*
Y03158D01*
X0311Y0316*
X03109Y03162*
X03107Y03163*
X03101*
X03099Y03162*
X03097Y0316*
X03096Y03158*
Y03155*
X03097Y03152*
X031Y03149*
X03113Y03135*
X03095*
X0307Y03163D02*
X03083Y03135D01*
X03089Y03163D02*
X0307D01*
X03476Y02886D02*
X03448D01*
X03476D02*
Y02898D01*
X03475Y02902*
X03473Y02903*
X03471Y02904*
X03468*
X03465Y02903*
X03464Y02902*
X03463Y02898*
Y02886*
Y02895D02*
X03448Y02904D01*
X03476Y02913D02*
Y02928D01*
X03465Y0292*
Y02924*
X03464Y02926*
X03463Y02928*
X03459Y02929*
X03456*
X03452Y02928*
X0345Y02925*
X03448Y02921*
Y02917*
X0345Y02913*
X03451Y02912*
X03454Y02911*
X03471Y02935D02*
X03472Y02938D01*
X03476Y02942*
X03448*
X03273Y03255D02*
X03301D01*
X03273D02*
Y03244D01*
X03274Y0324*
X03276Y03238*
X03278Y03237*
X03281*
X03284Y03238*
X03285Y0324*
X03286Y03244*
Y03255*
Y03246D02*
X03301Y03237D01*
X0328Y0323D02*
X03278D01*
X03276Y03228*
X03274Y03227*
X03273Y03224*
Y03219*
X03274Y03216*
X03276Y03215*
X03278Y03214*
X03281*
X03284Y03215*
X03288Y03218*
X03301Y03231*
Y03212*
X03273Y03193D02*
X03292Y03206D01*
Y03187*
X03273Y03193D02*
X03301D01*
X0328Y03959D02*
X03283Y03957D01*
X03286Y03955*
X03287Y03952*
X03288Y03948*
Y03941*
X03287Y03938*
X03286Y03935*
X03283Y03932*
X0328Y03931*
X03275*
X03272Y03932*
X0327Y03935*
X03269Y03938*
X03267Y03941*
Y03948*
X03269Y03952*
X0327Y03955*
X03272Y03957*
X03275Y03959*
X0328*
X03276Y03936D02*
X03269Y03928D01*
X03242Y03959D02*
X03256Y03931D01*
X03261Y03959D02*
X03242D01*
X03028Y04013D02*
X03031Y04016D01*
X03034Y04017*
X0304*
X03044Y04016*
X03046Y04013*
Y04011*
X03045Y04008*
X03044Y04007*
X03041Y04005*
X03033Y04003*
X03031Y04002*
X03029Y04*
X03028Y03998*
Y03994*
X03031Y03991*
X03034Y0399*
X0304*
X03044Y03991*
X03046Y03994*
X03022Y04017D02*
Y03998D01*
X0302Y03994*
X03018Y03991*
X03014Y0399*
X03011*
X03007Y03991*
X03005Y03994*
X03003Y03998*
Y04017*
X02977Y04013D02*
X0298Y04016D01*
X02984Y04017*
X02989*
X02993Y04016*
X02996Y04013*
Y04011*
X02994Y04008*
X02993Y04007*
X0299Y04005*
X02983Y04003*
X0298Y04002*
X02979Y04*
X02977Y03998*
Y03994*
X0298Y03991*
X02984Y0399*
X02989*
X02993Y03991*
X02996Y03994*
X02971Y04003D02*
X02959D01*
X02955Y04004*
X02954Y04005*
X02953Y04008*
Y04012*
X02954Y04015*
X02955Y04016*
X02959Y04017*
X02971*
Y0399*
X03018Y03234D02*
Y03206D01*
X03002*
X02997Y03234D02*
X02982D01*
X0299Y03223*
X02986*
X02984Y03222*
X02982Y03221*
X02981Y03217*
Y03214*
X02982Y0321*
X02985Y03208*
X02989Y03206*
X02993*
X02997Y03208*
X02998Y03209*
X02999Y03211*
X03668Y04175D02*
Y04155D01*
X03667Y04151*
X03664Y04149*
X0366Y04147*
X03657*
X03654Y04149*
X03651Y04151*
X0365Y04155*
Y04175*
X03642Y04169D02*
X03639Y04171D01*
X03635Y04175*
Y04147*
X03605Y04166D02*
X03606Y04162D01*
X03609Y04159*
X03613Y04158*
X03614*
X03618Y04159*
X0362Y04162*
X03622Y04166*
Y04167*
X0362Y04171*
X03618Y04173*
X03614Y04175*
X03613*
X03609Y04173*
X03606Y04171*
X03605Y04166*
Y04159*
X03606Y04152*
X03609Y04149*
X03613Y04147*
X03615*
X03619Y04149*
X0362Y04151*
X03206Y041D02*
Y04072D01*
Y041D02*
X03189D01*
X03206Y04087D02*
X03196D01*
X03186Y041D02*
Y04072D01*
Y041D02*
X03174D01*
X0317Y04099*
X03169Y04097*
X03168Y04095*
Y04092*
X03169Y04089*
X0317Y04088*
X03174Y04087*
X03186D02*
X03174D01*
X0317Y04086*
X03169Y04084*
X03168Y04082*
Y04078*
X03169Y04075*
X0317Y04074*
X03174Y04072*
X03186*
X03143Y041D02*
X03156Y04072D01*
X03162Y041D02*
X03143D01*
X04436Y03497D02*
Y03469D01*
Y03497D02*
X04419D01*
X04436Y03483D02*
X04425D01*
X04415Y03497D02*
Y03469D01*
Y03497D02*
X04404D01*
X044Y03495*
X04398Y03494*
X04397Y03491*
Y03489*
X04398Y03486*
X044Y03485*
X04404Y03483*
X04415D02*
X04404D01*
X044Y03482*
X04398Y03481*
X04397Y03478*
Y03474*
X04398Y03472*
X044Y0347*
X04404Y03469*
X04415*
X04375Y03497D02*
X04388D01*
X0439Y03485*
X04388Y03486*
X04384Y03487*
X0438*
X04376Y03486*
X04374Y03483*
X04373Y0348*
Y03477*
X04374Y03473*
X04376Y0347*
X0438Y03469*
X04384*
X04388Y0347*
X0439Y03472*
X04391Y03474*
X05021Y03331D02*
Y03304D01*
Y03331D02*
X05004D01*
X05021Y03318D02*
X0501D01*
X05001Y03331D02*
Y03304D01*
Y03331D02*
X04989D01*
X04985Y0333*
X04984Y03329*
X04982Y03326*
Y03323*
X04984Y03321*
X04985Y03319*
X04989Y03318*
X05001D02*
X04989D01*
X04985Y03317*
X04984Y03315*
X04982Y03313*
Y03309*
X04984Y03306*
X04985Y03305*
X04989Y03304*
X05001*
X04963Y03331D02*
X04976Y03313D01*
X04957*
X04963Y03331D02*
Y03304D01*
X04412Y04248D02*
Y0422D01*
Y04248D02*
X04395D01*
X04412Y04234D02*
X04402D01*
X04392Y04248D02*
Y0422D01*
Y04248D02*
X0438D01*
X04376Y04246*
X04375Y04245*
X04373Y04242*
Y0424*
X04375Y04237*
X04376Y04236*
X0438Y04234*
X04392D02*
X0438D01*
X04376Y04233*
X04375Y04232*
X04373Y04229*
Y04225*
X04375Y04223*
X04376Y04221*
X0438Y0422*
X04392*
X04365Y04248D02*
X0435D01*
X04358Y04237*
X04354*
X04352Y04236*
X0435Y04234*
X04349Y04231*
Y04228*
X0435Y04224*
X04353Y04221*
X04357Y0422*
X04361*
X04365Y04221*
X04366Y04223*
X04367Y04225*
X04241Y03581D02*
X04268D01*
X04241D02*
Y03564D01*
X04254Y03581D02*
Y03571D01*
X04241Y03561D02*
X04268D01*
X04241D02*
Y03549D01*
X04242Y03545*
X04243Y03544*
X04246Y03543*
X04249*
X04251Y03544*
X04253Y03545*
X04254Y03549*
Y03561D02*
Y03549D01*
X04255Y03545*
X04256Y03544*
X04259Y03543*
X04263*
X04266Y03544*
X04267Y03545*
X04268Y03549*
Y03561*
X04247Y03535D02*
X04246D01*
X04243Y03534*
X04242Y03533*
X04241Y0353*
Y03525*
X04242Y03522*
X04243Y03521*
X04246Y0352*
X04249*
X04251Y03521*
X04255Y03523*
X04268Y03537*
Y03518*
X03072Y03088D02*
Y03061D01*
Y03088D02*
X03063D01*
X03059Y03087*
X03056Y03084*
X03055Y03082*
X03053Y03078*
Y03071*
X03055Y03067*
X03056Y03065*
X03059Y03062*
X03063Y03061*
X03072*
X03034Y03088D02*
X03047Y0307D01*
X03028*
X03034Y03088D02*
Y03061D01*
X04972Y0265D02*
X04973Y02653D01*
X04976Y02656*
X04979Y02657*
X04984*
X04986Y02656*
X04989Y02653*
X0499Y0265*
X04992Y02647*
Y0264*
X0499Y02636*
X04989Y02633*
X04986Y02631*
X04984Y02629*
X04979*
X04976Y02631*
X04973Y02633*
X04972Y02636*
X04964Y02652D02*
X04962Y02653D01*
X04958Y02657*
Y02629*
X04941Y02657D02*
X04927D01*
X04935Y02647*
X04931*
X04928Y02645*
X04927Y02644*
X04926Y0264*
Y02637*
X04927Y02633*
X0493Y02631*
X04934Y02629*
X04937*
X04941Y02631*
X04943Y02632*
X04944Y02635*
X04917Y02657D02*
X04902D01*
X0491Y02647*
X04906*
X04904Y02645*
X04902Y02644*
X04901Y0264*
Y02637*
X04902Y02633*
X04905Y02631*
X04909Y02629*
X04913*
X04917Y02631*
X04918Y02632*
X0492Y02635*
X04973Y0272D02*
X04974Y02723D01*
X04977Y02726*
X0498Y02727*
X04985*
X04987Y02726*
X0499Y02723*
X04991Y0272*
X04993Y02716*
Y0271*
X04991Y02706*
X0499Y02703*
X04987Y02701*
X04985Y02699*
X0498*
X04977Y02701*
X04974Y02703*
X04973Y02706*
X04965Y02722D02*
X04963Y02723D01*
X04959Y02727*
Y02699*
X04942Y02727D02*
X04928D01*
X04936Y02716*
X04932*
X04929Y02715*
X04928Y02714*
X04927Y0271*
Y02707*
X04928Y02703*
X04931Y02701*
X04935Y02699*
X04938*
X04942Y02701*
X04944Y02702*
X04945Y02705*
X04919Y0272D02*
Y02722D01*
X04918Y02724*
X04917Y02726*
X04914Y02727*
X04909*
X04906Y02726*
X04905Y02724*
X04903Y02722*
Y02719*
X04905Y02716*
X04907Y02712*
X0492Y02699*
X04902*
X04645Y02848D02*
X04647Y02851D01*
X04649Y02854*
X04652Y02855*
X04657*
X0466Y02854*
X04662Y02851*
X04664Y02848*
X04665Y02844*
Y02838*
X04664Y02834*
X04662Y02831*
X0466Y02829*
X04657Y02827*
X04652*
X04649Y02829*
X04647Y02831*
X04645Y02834*
X04637Y0285D02*
X04635Y02851D01*
X04631Y02855*
Y02827*
X04615Y02855D02*
X046D01*
X04608Y02844*
X04604*
X04602Y02843*
X046Y02842*
X04599Y02838*
Y02835*
X046Y02831*
X04603Y02829*
X04607Y02827*
X04611*
X04615Y02829*
X04616Y0283*
X04617Y02833*
X04585Y02855D02*
X04589Y02854D01*
X04591Y0285*
X04593Y02843*
Y02839*
X04591Y02833*
X04589Y02829*
X04585Y02827*
X04582*
X04578Y02829*
X04576Y02833*
X04574Y02839*
Y02843*
X04576Y0285*
X04578Y02854*
X04582Y02855*
X04585*
X0374Y03546D02*
X03741Y03549D01*
X03743Y03551*
X03746Y03553*
X03751*
X03754Y03551*
X03757Y03549*
X03758Y03546*
X03759Y03542*
Y03536*
X03758Y03532*
X03757Y03529*
X03754Y03526*
X03751Y03525*
X03746*
X03743Y03526*
X03741Y03529*
X0374Y03532*
X03732Y03547D02*
X03729Y03549D01*
X03725Y03553*
Y03525*
X03712Y03547D02*
X03709Y03549D01*
X03705Y03553*
Y03525*
X03676Y03553D02*
X03689D01*
X0369Y03541*
X03689Y03542*
X03685Y03544*
X03681*
X03677Y03542*
X03674Y0354*
X03673Y03536*
Y03533*
X03674Y03529*
X03677Y03526*
X03681Y03525*
X03685*
X03689Y03526*
X0369Y03528*
X03691Y0353*
X03142Y03885D02*
X03143Y03887D01*
X03146Y0389*
X03148Y03891*
X03154*
X03156Y0389*
X03159Y03887*
X0316Y03885*
X03161Y03881*
Y03874*
X0316Y0387*
X03159Y03868*
X03156Y03865*
X03154Y03864*
X03148*
X03146Y03865*
X03143Y03868*
X03142Y0387*
X03134Y03886D02*
X03131Y03887D01*
X03127Y03891*
Y03864*
X03114Y03886D02*
X03111Y03887D01*
X03107Y03891*
Y03864*
X0308Y03891D02*
X03094Y03873D01*
X03074*
X0308Y03891D02*
Y03864D01*
X03489Y03492D02*
X0349Y03495D01*
X03492Y03497*
X03495Y03499*
X035*
X03503Y03497*
X03506Y03495*
X03507Y03492*
X03508Y03488*
Y03482*
X03507Y03478*
X03506Y03475*
X03503Y03472*
X035Y03471*
X03495*
X03492Y03472*
X0349Y03475*
X03489Y03478*
X03481Y03493D02*
X03478Y03495D01*
X03474Y03499*
Y03471*
X03461Y03493D02*
X03458Y03495D01*
X03454Y03499*
Y03471*
X03438Y03499D02*
X03423D01*
X03431Y03488*
X03427*
X03425Y03487*
X03423Y03485*
X03422Y03482*
Y03479*
X03423Y03475*
X03426Y03472*
X0343Y03471*
X03434*
X03438Y03472*
X03439Y03474*
X0344Y03476*
X0374Y03648D02*
X03741Y03651D01*
X03743Y03654*
X03746Y03655*
X03751*
X03754Y03654*
X03757Y03651*
X03758Y03648*
X03759Y03645*
Y03638*
X03758Y03634*
X03757Y03631*
X03754Y03629*
X03751Y03628*
X03746*
X03743Y03629*
X03741Y03631*
X0374Y03634*
X03732Y0365D02*
X03729Y03651D01*
X03725Y03655*
Y03628*
X03712Y0365D02*
X03709Y03651D01*
X03705Y03655*
Y03628*
X0369Y03648D02*
Y0365D01*
X03689Y03652*
X03687Y03654*
X03685Y03655*
X0368*
X03677Y03654*
X03676Y03652*
X03674Y0365*
Y03647*
X03676Y03645*
X03678Y03641*
X03691Y03628*
X03673*
X03489Y03395D02*
X0349Y03397D01*
X03492Y034*
X03495Y03401*
X035*
X03503Y034*
X03506Y03397*
X03507Y03395*
X03508Y03391*
Y03384*
X03507Y0338*
X03506Y03378*
X03503Y03375*
X035Y03374*
X03495*
X03492Y03375*
X0349Y03378*
X03489Y0338*
X03481Y03396D02*
X03478Y03397D01*
X03474Y03401*
Y03374*
X03461Y03396D02*
X03458Y03397D01*
X03454Y03401*
Y03374*
X0344Y03396D02*
X03438Y03397D01*
X03434Y03401*
Y03374*
X03489Y03443D02*
X0349Y03445D01*
X03492Y03448*
X03495Y03449*
X035*
X03503Y03448*
X03506Y03445*
X03507Y03443*
X03508Y03439*
Y03432*
X03507Y03428*
X03506Y03426*
X03503Y03423*
X035Y03422*
X03495*
X03492Y03423*
X0349Y03426*
X03489Y03428*
X03481Y03444D02*
X03478Y03445D01*
X03474Y03449*
Y03422*
X03461Y03444D02*
X03458Y03445D01*
X03454Y03449*
Y03422*
X03432Y03449D02*
X03436Y03448D01*
X03439Y03444*
X0344Y03438*
Y03434*
X03439Y03427*
X03436Y03423*
X03432Y03422*
X0343*
X03426Y03423*
X03423Y03427*
X03422Y03434*
Y03438*
X03423Y03444*
X03426Y03448*
X0343Y03449*
X03432*
X03492Y04073D02*
X0349Y04074D01*
X03487Y04077*
X03486Y04079*
Y04085*
X03487Y04087*
X0349Y0409*
X03492Y04091*
X03496Y04092*
X03503*
X03507Y04091*
X03509Y0409*
X03512Y04087*
X03513Y04085*
Y04079*
X03512Y04077*
X03509Y04074*
X03507Y04073*
X03491Y04065D02*
X0349Y04062D01*
X03486Y04058*
X03513*
X03486Y04037D02*
X03487Y04041D01*
X03491Y04043*
X03498Y04045*
X03502*
X03508Y04043*
X03512Y04041*
X03513Y04037*
Y04034*
X03512Y0403*
X03508Y04028*
X03502Y04026*
X03498*
X03491Y04028*
X03487Y0403*
X03486Y04034*
Y04037*
X03495Y04003D02*
X03499Y04004D01*
X03502Y04007*
X03503Y04011*
Y04012*
X03502Y04016*
X03499Y04019*
X03495Y0402*
X03494*
X0349Y04019*
X03487Y04016*
X03486Y04012*
Y04011*
X03487Y04007*
X0349Y04004*
X03495Y04003*
X03502*
X03508Y04004*
X03512Y04007*
X03513Y04011*
Y04014*
X03512Y04018*
X03509Y04019*
X03035Y03604D02*
X03037Y03607D01*
X03039Y03609*
X03042Y03611*
X03047*
X0305Y03609*
X03052Y03607*
X03054Y03604*
X03055Y036*
Y03594*
X03054Y0359*
X03052Y03587*
X0305Y03585*
X03047Y03583*
X03042*
X03039Y03585*
X03037Y03587*
X03035Y0359*
X03028Y03606D02*
X03025Y03607D01*
X03021Y03611*
Y03583*
X02999Y03611D02*
X03003Y03609D01*
X03006Y03606*
X03007Y03599*
Y03595*
X03006Y03588*
X03003Y03585*
X02999Y03583*
X02997*
X02993Y03585*
X0299Y03588*
X02989Y03595*
Y03599*
X0299Y03606*
X02993Y03609*
X02997Y03611*
X02999*
X02967Y03607D02*
X02968Y03609D01*
X02972Y03611*
X02975*
X02979Y03609*
X02982Y03606*
X02983Y03599*
Y03592*
X02982Y03587*
X02979Y03585*
X02975Y03583*
X02974*
X0297Y03585*
X02967Y03587*
X02966Y03591*
Y03592*
X02967Y03596*
X0297Y03599*
X02974Y036*
X02975*
X02979Y03599*
X02982Y03596*
X02983Y03592*
X03096Y03845D02*
X03097Y03848D01*
X031Y03851*
X03103Y03852*
X03108*
X0311Y03851*
X03113Y03848*
X03114Y03845*
X03116Y03841*
Y03835*
X03114Y03831*
X03113Y03828*
X0311Y03826*
X03108Y03824*
X03103*
X031Y03826*
X03097Y03828*
X03096Y03831*
X03088Y03847D02*
X03086Y03848D01*
X03082Y03852*
Y03824*
X0306Y03852D02*
X03064Y03851D01*
X03067Y03847*
X03068Y0384*
Y03836*
X03067Y0383*
X03064Y03826*
X0306Y03824*
X03058*
X03054Y03826*
X03051Y0383*
X0305Y03836*
Y0384*
X03051Y03847*
X03054Y03851*
X03058Y03852*
X0306*
X03028D02*
X03041D01*
X03042Y0384*
X03041Y03841*
X03037Y03843*
X03033*
X03029Y03841*
X03026Y03839*
X03025Y03835*
Y03832*
X03026Y03828*
X03029Y03826*
X03033Y03824*
X03037*
X03041Y03826*
X03042Y03827*
X03044Y0383*
X03387Y03492D02*
X03389Y03495D01*
X03391Y03497*
X03394Y03499*
X03399*
X03402Y03497*
X03404Y03495*
X03406Y03492*
X03407Y03488*
Y03482*
X03406Y03478*
X03404Y03475*
X03402Y03472*
X03399Y03471*
X03394*
X03391Y03472*
X03389Y03475*
X03387Y03478*
X0338Y03493D02*
X03377Y03495D01*
X03373Y03499*
Y03471*
X03352Y03499D02*
X03355Y03497D01*
X03358Y03493*
X03359Y03487*
Y03483*
X03358Y03476*
X03355Y03472*
X03352Y03471*
X03349*
X03345Y03472*
X03342Y03476*
X03341Y03483*
Y03487*
X03342Y03493*
X03345Y03497*
X03349Y03499*
X03352*
X03327D02*
X03331Y03497D01*
X03334Y03493*
X03335Y03487*
Y03483*
X03334Y03476*
X03331Y03472*
X03327Y03471*
X03324*
X0332Y03472*
X03318Y03476*
X03316Y03483*
Y03487*
X03318Y03493*
X0332Y03497*
X03324Y03499*
X03327*
X03641Y03962D02*
X03643Y03965D01*
X03645Y03968*
X03648Y03969*
X03653*
X03656Y03968*
X03658Y03965*
X0366Y03962*
X03661Y03959*
Y03952*
X0366Y03948*
X03658Y03945*
X03656Y03943*
X03653Y03941*
X03648*
X03645Y03943*
X03643Y03945*
X03641Y03948*
X03617Y0396D02*
X03618Y03956D01*
X0362Y03953*
X03624Y03952*
X03626*
X0363Y03953*
X03632Y03956*
X03634Y0396*
Y03961*
X03632Y03965*
X0363Y03968*
X03626Y03969*
X03624*
X0362Y03968*
X03618Y03965*
X03617Y0396*
Y03953*
X03618Y03947*
X0362Y03943*
X03624Y03941*
X03627*
X03631Y03943*
X03632Y03945*
X03592Y0396D02*
X03593Y03956D01*
X03596Y03953*
X036Y03952*
X03601*
X03605Y03953*
X03608Y03956*
X03609Y0396*
Y03961*
X03608Y03965*
X03605Y03968*
X03601Y03969*
X036*
X03596Y03968*
X03593Y03965*
X03592Y0396*
Y03953*
X03593Y03947*
X03596Y03943*
X036Y03941*
X03603*
X03606Y03943*
X03608Y03945*
X03313Y03542D02*
X03315Y03545D01*
X03317Y03547*
X0332Y03549*
X03325*
X03328Y03547*
X0333Y03545*
X03332Y03542*
X03333Y03538*
Y03532*
X03332Y03528*
X0333Y03525*
X03328Y03523*
X03325Y03521*
X0332*
X03317Y03523*
X03315Y03525*
X03313Y03528*
X03288Y0354D02*
X0329Y03536D01*
X03292Y03533*
X03296Y03532*
X03298*
X03302Y03533*
X03304Y03536*
X03306Y0354*
Y03541*
X03304Y03545*
X03302Y03547*
X03298Y03549*
X03296*
X03292Y03547*
X0329Y03545*
X03288Y0354*
Y03533*
X0329Y03526*
X03292Y03523*
X03296Y03521*
X03299*
X03303Y03523*
X03304Y03525*
X03274Y03549D02*
X03278Y03547D01*
X0328Y03545*
Y03542*
X03278Y0354*
X03276Y03538*
X0327Y03537*
X03267Y03536*
X03264Y03533*
X03263Y0353*
Y03526*
X03264Y03524*
X03265Y03523*
X03269Y03521*
X03274*
X03278Y03523*
X0328Y03524*
X03281Y03526*
Y0353*
X0328Y03533*
X03277Y03536*
X03273Y03537*
X03268Y03538*
X03265Y0354*
X03264Y03542*
Y03545*
X03265Y03547*
X03269Y03549*
X03274*
X03281Y01957D02*
X03282Y01959D01*
X03285Y01962*
X03287Y01963*
X03293*
X03295Y01962*
X03298Y01959*
X03299Y01957*
X033Y01953*
Y01946*
X03299Y01942*
X03298Y0194*
X03295Y01937*
X03293Y01936*
X03287*
X03285Y01937*
X03282Y0194*
X03281Y01942*
X03256Y01954D02*
X03257Y0195D01*
X0326Y01947*
X03264Y01946*
X03265*
X03269Y01947*
X03272Y0195*
X03273Y01954*
Y01955*
X03272Y01959*
X03269Y01962*
X03265Y01963*
X03264*
X0326Y01962*
X03257Y01959*
X03256Y01954*
Y01947*
X03257Y01941*
X0326Y01937*
X03264Y01936*
X03266*
X0327Y01937*
X03272Y0194*
X03249Y01958D02*
X03246Y01959D01*
X03242Y01963*
Y01936*
X03383Y02009D02*
X03384Y02011D01*
X03387Y02014*
X0339Y02015*
X03395*
X03398Y02014*
X034Y02011*
X03402Y02009*
X03403Y02005*
Y01998*
X03402Y01994*
X034Y01992*
X03398Y01989*
X03395Y01988*
X0339*
X03387Y01989*
X03384Y01992*
X03383Y01994*
X03358Y02006D02*
X0336Y02002D01*
X03362Y02*
X03366Y01998*
X03368*
X03371Y02*
X03374Y02002*
X03375Y02006*
Y02007*
X03374Y02011*
X03371Y02014*
X03368Y02015*
X03366*
X03362Y02014*
X0336Y02011*
X03358Y02006*
Y02*
X0336Y01993*
X03362Y01989*
X03366Y01988*
X03369*
X03373Y01989*
X03374Y01992*
X03343Y02015D02*
X03347Y02014D01*
X0335Y0201*
X03351Y02003*
Y02*
X0335Y01993*
X03347Y01989*
X03343Y01988*
X0334*
X03336Y01989*
X03334Y01993*
X03332Y02*
Y02003*
X03334Y0201*
X03336Y02014*
X0334Y02015*
X03343*
X04128Y04028D02*
X0413Y04031D01*
X04132Y04034*
X04135Y04035*
X0414*
X04143Y04034*
X04145Y04031*
X04147Y04028*
X04148Y04024*
Y04018*
X04147Y04014*
X04145Y04011*
X04143Y04009*
X0414Y04007*
X04135*
X04132Y04009*
X0413Y04011*
X04128Y04014*
X04114Y04035D02*
X04118Y04034D01*
X04119Y04031*
Y04028*
X04118Y04026*
X04115Y04024*
X0411Y04023*
X04106Y04022*
X04103Y04019*
X04102Y04017*
Y04013*
X04103Y0401*
X04105Y04009*
X04109Y04007*
X04114*
X04118Y04009*
X04119Y0401*
X0412Y04013*
Y04017*
X04119Y04019*
X04117Y04022*
X04113Y04023*
X04107Y04024*
X04105Y04026*
X04103Y04028*
Y04031*
X04105Y04034*
X04109Y04035*
X04114*
X04093D02*
X04079D01*
X04087Y04024*
X04083*
X0408Y04023*
X04079Y04022*
X04078Y04018*
Y04015*
X04079Y04011*
X04082Y04009*
X04085Y04007*
X04089*
X04093Y04009*
X04095Y0401*
X04096Y04013*
X04552Y03328D02*
X04553Y03331D01*
X04556Y03334*
X04558Y03335*
X04564*
X04566Y03334*
X04569Y03331*
X0457Y03328*
X04571Y03325*
Y03318*
X0457Y03314*
X04569Y03311*
X04566Y03309*
X04564Y03308*
X04558*
X04556Y03309*
X04553Y03311*
X04552Y03314*
X04538Y03335D02*
X04541Y03334D01*
X04543Y03331*
Y03328*
X04541Y03326*
X04539Y03325*
X04534Y03323*
X0453Y03322*
X04527Y03319*
X04526Y03317*
Y03313*
X04527Y0331*
X04528Y03309*
X04532Y03308*
X04538*
X04541Y03309*
X04543Y0331*
X04544Y03313*
Y03317*
X04543Y03319*
X0454Y03322*
X04536Y03323*
X04531Y03325*
X04528Y03326*
X04527Y03328*
Y03331*
X04528Y03334*
X04532Y03335*
X04538*
X04512D02*
X04516Y03334D01*
X04518Y0333*
X0452Y03323*
Y03319*
X04518Y03313*
X04516Y03309*
X04512Y03308*
X04509*
X04505Y03309*
X04502Y03313*
X04501Y03319*
Y03323*
X04502Y0333*
X04505Y03334*
X04509Y03335*
X04512*
X04894Y03391D02*
X04896Y03393D01*
X04898Y03396*
X04901Y03397*
X04906*
X04909Y03396*
X04911Y03393*
X04913Y03391*
X04914Y03387*
Y0338*
X04913Y03376*
X04911Y03374*
X04909Y03371*
X04906Y0337*
X04901*
X04898Y03371*
X04896Y03374*
X04894Y03376*
X04868Y03397D02*
X04881Y0337D01*
X04887Y03397D02*
X04868D01*
X04845Y03388D02*
X04846Y03384D01*
X04849Y03381*
X04853Y0338*
X04854*
X04858Y03381*
X04861Y03384*
X04862Y03388*
Y03389*
X04861Y03393*
X04858Y03396*
X04854Y03397*
X04853*
X04849Y03396*
X04846Y03393*
X04845Y03388*
Y03381*
X04846Y03375*
X04849Y03371*
X04853Y0337*
X04855*
X04859Y03371*
X04861Y03374*
X0464Y03391D02*
X04641Y03393D01*
X04644Y03396*
X04647Y03397*
X04652*
X04654Y03396*
X04657Y03393*
X04658Y03391*
X0466Y03387*
Y0338*
X04658Y03376*
X04657Y03374*
X04654Y03371*
X04652Y0337*
X04647*
X04644Y03371*
X04641Y03374*
X0464Y03376*
X04614Y03397D02*
X04627Y0337D01*
X04632Y03397D02*
X04614D01*
X04601D02*
X04605Y03396D01*
X04606Y03393*
Y03391*
X04605Y03388*
X04603Y03387*
X04597Y03385*
X04593Y03384*
X04591Y03381*
X04589Y03379*
Y03375*
X04591Y03372*
X04592Y03371*
X04596Y0337*
X04601*
X04605Y03371*
X04606Y03372*
X04608Y03375*
Y03379*
X04606Y03381*
X04604Y03384*
X046Y03385*
X04595Y03387*
X04592Y03388*
X04591Y03391*
Y03393*
X04592Y03396*
X04596Y03397*
X04601*
X04709Y03329D02*
X0471Y03331D01*
X04713Y03334*
X04715Y03335*
X04721*
X04723Y03334*
X04726Y03331*
X04727Y03329*
X04729Y03325*
Y03318*
X04727Y03314*
X04726Y03312*
X04723Y03309*
X04721Y03308*
X04715*
X04713Y03309*
X0471Y03312*
X04709Y03314*
X04683Y03335D02*
X04696Y03308D01*
X04701Y03335D02*
X04683D01*
X04658D02*
X04671Y03308D01*
X04677Y03335D02*
X04658D01*
X04798Y03329D02*
X04799Y03331D01*
X04802Y03334*
X04804Y03335*
X0481*
X04812Y03334*
X04815Y03331*
X04816Y03329*
X04818Y03325*
Y03318*
X04816Y03314*
X04815Y03312*
X04812Y03309*
X0481Y03308*
X04804*
X04802Y03309*
X04799Y03312*
X04798Y03314*
X04772Y03335D02*
X04785Y03308D01*
X0479Y03335D02*
X04772D01*
X0475Y03331D02*
X04751Y03334D01*
X04755Y03335*
X04758*
X04762Y03334*
X04764Y0333*
X04766Y03323*
Y03317*
X04764Y03312*
X04762Y03309*
X04758Y03308*
X04756*
X04752Y03309*
X0475Y03312*
X04749Y03315*
Y03317*
X0475Y03321*
X04752Y03323*
X04756Y03325*
X04758*
X04762Y03323*
X04764Y03321*
X04766Y03317*
X04759Y04278D02*
X0476Y04281D01*
X04763Y04284*
X04766Y04285*
X04771*
X04774Y04284*
X04776Y04281*
X04777Y04278*
X04779Y04274*
Y04268*
X04777Y04264*
X04776Y04261*
X04774Y04259*
X04771Y04257*
X04766*
X04763Y04259*
X0476Y04261*
X04759Y04264*
X04733Y04285D02*
X04746Y04257D01*
X04751Y04285D02*
X04733D01*
X04711D02*
X04724D01*
X04726Y04273*
X04724Y04274*
X0472Y04276*
X04716*
X04712Y04274*
X0471Y04272*
X04708Y04268*
Y04265*
X0471Y04261*
X04712Y04259*
X04716Y04257*
X0472*
X04724Y04259*
X04726Y0426*
X04727Y04263*
X04187Y03907D02*
X04188Y0391D01*
X04191Y03913*
X04194Y03914*
X04199*
X04201Y03913*
X04204Y0391*
X04205Y03907*
X04207Y03903*
Y03897*
X04205Y03893*
X04204Y0389*
X04201Y03888*
X04199Y03886*
X04194*
X04191Y03888*
X04188Y0389*
X04187Y03893*
X04161Y03914D02*
X04174Y03886D01*
X04179Y03914D02*
X04161D01*
X04142D02*
X04155Y03896D01*
X04135*
X04142Y03914D02*
Y03886D01*
X04507Y04238D02*
X04508Y04241D01*
X04511Y04243*
X04514Y04245*
X04519*
X04522Y04243*
X04524Y04241*
X04526Y04238*
X04527Y04234*
Y04228*
X04526Y04224*
X04524Y04221*
X04522Y04218*
X04519Y04217*
X04514*
X04511Y04218*
X04508Y04221*
X04507Y04224*
X04481Y04245D02*
X04494Y04217D01*
X04499Y04245D02*
X04481D01*
X04472D02*
X04458D01*
X04466Y04234*
X04462*
X04459Y04233*
X04458Y04232*
X04457Y04228*
Y04225*
X04458Y04221*
X0446Y04218*
X04464Y04217*
X04468*
X04472Y04218*
X04474Y0422*
X04475Y04222*
X05101Y03954D02*
X05102Y03956D01*
X05105Y03959*
X05107Y0396*
X05112*
X05115Y03959*
X05118Y03956*
X05119Y03954*
X0512Y0395*
Y03943*
X05119Y03939*
X05118Y03937*
X05115Y03934*
X05112Y03933*
X05107*
X05105Y03934*
X05102Y03937*
X05101Y03939*
X05075Y0396D02*
X05088Y03933D01*
X05093Y0396D02*
X05075D01*
X05067Y03954D02*
Y03955D01*
X05066Y03958*
X05064Y03959*
X05062Y0396*
X05057*
X05054Y03959*
X05053Y03958*
X05051Y03955*
Y03952*
X05053Y0395*
X05055Y03946*
X05068Y03933*
X0505*
X03255Y04174D02*
X03257Y04177D01*
X03259Y04179*
X03262Y04181*
X03267*
X0327Y04179*
X03272Y04177*
X03274Y04174*
X03275Y0417*
Y04164*
X03274Y0416*
X03272Y04157*
X0327Y04154*
X03267Y04153*
X03262*
X03259Y04154*
X03257Y04157*
X03255Y0416*
X03232Y04181D02*
X03245D01*
X03246Y04169*
X03245Y0417*
X03241Y04171*
X03237*
X03233Y0417*
X0323Y04168*
X03229Y04164*
Y04161*
X0323Y04157*
X03233Y04154*
X03237Y04153*
X03241*
X03245Y04154*
X03246Y04156*
X03247Y04158*
X03205Y04181D02*
X03218Y04153D01*
X03223Y04181D02*
X03205D01*
X03463Y04174D02*
X03465Y04177D01*
X03467Y04179*
X0347Y04181*
X03475*
X03478Y04179*
X0348Y04177*
X03482Y04174*
X03483Y0417*
Y04164*
X03482Y0416*
X0348Y04157*
X03478Y04154*
X03475Y04153*
X0347*
X03467Y04154*
X03465Y04157*
X03463Y0416*
X0344Y04181D02*
X03453D01*
X03454Y04169*
X03453Y0417*
X03449Y04171*
X03445*
X03441Y0417*
X03438Y04168*
X03437Y04164*
Y04161*
X03438Y04157*
X03441Y04154*
X03445Y04153*
X03449*
X03453Y04154*
X03454Y04156*
X03455Y04158*
X03415Y04177D02*
X03416Y04179D01*
X0342Y04181*
X03423*
X03427Y04179*
X0343Y04175*
X03431Y04169*
Y04162*
X0343Y04157*
X03427Y04154*
X03423Y04153*
X03422*
X03418Y04154*
X03415Y04157*
X03414Y04161*
Y04162*
X03415Y04166*
X03418Y04169*
X03422Y0417*
X03423*
X03427Y04169*
X0343Y04166*
X03431Y04162*
X03432Y03109D02*
X03434Y03112D01*
X03436Y03114*
X03439Y03116*
X03444*
X03447Y03114*
X03449Y03112*
X03451Y03109*
X03452Y03105*
Y03099*
X03451Y03095*
X03449Y03092*
X03447Y03089*
X03444Y03088*
X03439*
X03436Y03089*
X03434Y03092*
X03432Y03095*
X03422Y03116D02*
X03408D01*
X03415Y03105*
X03411*
X03409Y03104*
X03408Y03103*
X03406Y03099*
Y03096*
X03408Y03092*
X0341Y03089*
X03414Y03088*
X03418*
X03422Y03089*
X03423Y03091*
X03425Y03093*
X03399Y03109D02*
Y0311D01*
X03397Y03113*
X03396Y03114*
X03394Y03116*
X03388*
X03386Y03114*
X03384Y03113*
X03383Y0311*
Y03108*
X03384Y03105*
X03387Y03101*
X034Y03088*
X03382*
X0355Y0333D02*
X03552Y03332D01*
X03554Y03335*
X03557Y03336*
X03562*
X03565Y03335*
X03568Y03332*
X03569Y0333*
X0357Y03326*
Y03319*
X03569Y03315*
X03568Y03313*
X03565Y0331*
X03562Y03309*
X03557*
X03554Y0331*
X03552Y03313*
X0355Y03315*
X03541Y0333D02*
Y03331D01*
X0354Y03334*
X03539Y03335*
X03536Y03336*
X03531*
X03528Y03335*
X03527Y03334*
X03526Y03331*
Y03328*
X03527Y03326*
X0353Y03322*
X03543Y03309*
X03524*
X03516Y03336D02*
X03501D01*
X03509Y03326*
X03505*
X03502Y03324*
X03501Y03323*
X035Y03319*
Y03316*
X03501Y03313*
X03504Y0331*
X03508Y03309*
X03512*
X03516Y0331*
X03517Y03311*
X03518Y03314*
X03596Y01202D02*
X03597Y01205D01*
X036Y01207*
X03602Y01209*
X03608*
X0361Y01207*
X03613Y01205*
X03614Y01202*
X03615Y01198*
Y01192*
X03614Y01188*
X03613Y01185*
X0361Y01183*
X03608Y01181*
X03602*
X036Y01183*
X03597Y01185*
X03596Y01188*
X03587Y01202D02*
Y01204D01*
X03585Y01206*
X03584Y01207*
X03581Y01209*
X03576*
X03574Y01207*
X03572Y01206*
X03571Y01204*
Y01201*
X03572Y01198*
X03575Y01194*
X03588Y01181*
X0357*
X03563Y01204D02*
X03561Y01205D01*
X03557Y01209*
Y01181*
X04807Y01283D02*
X04805Y01284D01*
X04802Y01286*
X04801Y01289*
Y01294*
X04802Y01297*
X04805Y013*
X04807Y01301*
X04811Y01302*
X04818*
X04822Y01301*
X04824Y013*
X04827Y01297*
X04828Y01294*
Y01289*
X04827Y01286*
X04824Y01284*
X04822Y01283*
X04806Y01275D02*
X04805Y01272D01*
X04801Y01268*
X04828*
X04801Y01239D02*
Y01252D01*
X04813Y01253*
X04811Y01252*
X0481Y01248*
Y01244*
X04811Y0124*
X04814Y01238*
X04818Y01236*
X0482*
X04824Y01238*
X04827Y0124*
X04828Y01244*
Y01248*
X04827Y01252*
X04826Y01253*
X04823Y01255*
X04762Y01285D02*
X04759Y01286D01*
X04757Y01289*
X04755Y01292*
Y01297*
X04757Y013*
X04759Y01302*
X04762Y01304*
X04766Y01305*
X04773*
X04776Y01304*
X04779Y01302*
X04782Y013*
X04783Y01297*
Y01292*
X04782Y01289*
X04779Y01286*
X04776Y01285*
X04761Y01277D02*
X04759Y01275D01*
X04755Y01271*
X04783*
X04755Y01244D02*
X04774Y01257D01*
Y01238*
X04755Y01244D02*
X04783D01*
X03227Y01999D02*
X03237Y02026D01*
X03248Y01999*
X03244Y02008D02*
X03231D01*
X03201Y0202D02*
X03202Y02022D01*
X03205Y02025*
X03207Y02026*
X03212*
X03215Y02025*
X03218Y02022*
X03219Y0202*
X0322Y02016*
Y02009*
X03219Y02005*
X03218Y02003*
X03215Y02*
X03212Y01999*
X03207*
X03205Y02*
X03202Y02003*
X03201Y02005*
X03193Y02021D02*
X0319Y02022D01*
X03186Y02026*
Y01999*
G54D17*
X04683Y01582D02*
Y01555D01*
Y01582D02*
X04671D01*
X04667Y01581*
X04666Y0158*
X04664Y01577*
Y01575*
X04666Y01572*
X04667Y01571*
X04671Y01569*
X04683*
X04673D02*
X04664Y01555D01*
X04645Y01582D02*
X04658Y01564D01*
X04638*
X04645Y01582D02*
Y01555D01*
X04515Y01453D02*
X04542D01*
X04515D02*
Y01442D01*
X04516Y01438*
X04517Y01436*
X0452Y01435*
X04523*
X04525Y01436*
X04527Y01438*
X04528Y01442*
Y01453*
Y01444D02*
X04542Y01435D01*
X0452Y01429D02*
X04519Y01426D01*
X04515Y01422*
X04542*
X04515Y01396D02*
X04533Y01409D01*
Y01389*
X04515Y01396D02*
X04542D01*
X03968Y03967D02*
X03969Y0397D01*
X03972Y03973*
X03974Y03974*
X0398*
X03982Y03973*
X03985Y0397*
X03986Y03967*
X03987Y03963*
Y03957*
X03986Y03953*
X03985Y0395*
X03982Y03948*
X0398Y03946*
X03974*
X03972Y03948*
X03969Y0395*
X03968Y03953*
X03953Y03974D02*
X03957Y03973D01*
X03959Y0397*
Y03967*
X03957Y03965*
X03955Y03963*
X0395Y03962*
X03946Y03961*
X03943Y03958*
X03942Y03956*
Y03952*
X03943Y03949*
X03944Y03948*
X03948Y03946*
X03953*
X03957Y03948*
X03959Y03949*
X0396Y03952*
Y03956*
X03959Y03958*
X03956Y03961*
X03952Y03962*
X03947Y03963*
X03944Y03965*
X03943Y03967*
Y0397*
X03944Y03973*
X03948Y03974*
X03953*
X03934Y03967D02*
Y03969D01*
X03933Y03971*
X03932Y03973*
X03929Y03974*
X03924*
X03921Y03973*
X0392Y03971*
X03918Y03969*
Y03966*
X0392Y03963*
X03922Y0396*
X03936Y03946*
X03917*
X02569Y02147D02*
Y0212D01*
Y02147D02*
X02557D01*
X02553Y02146*
X02552Y02145*
X0255Y02142*
Y02139*
X02552Y02137*
X02553Y02135*
X02557Y02134*
X02569*
X0256D02*
X0255Y0212D01*
X02543Y02141D02*
Y02142D01*
X02542Y02145*
X0254Y02146*
X02538Y02147*
X02532*
X0253Y02146*
X02528Y02145*
X02527Y02142*
Y02139*
X02528Y02137*
X02531Y02133*
X02544Y0212*
X02526*
X02512Y02147D02*
X02516Y02146D01*
X02518Y02142*
X0252Y02135*
Y02131*
X02518Y02125*
X02516Y02121*
X02512Y0212*
X02509*
X02505Y02121*
X02503Y02125*
X02501Y02131*
Y02135*
X02503Y02142*
X02505Y02146*
X02509Y02147*
X02512*
X02506Y02072D02*
Y02045D01*
Y02072D02*
X02494D01*
X0249Y02071*
X02488Y0207*
X02487Y02067*
Y02065*
X02488Y02062*
X0249Y02061*
X02494Y02059*
X02506*
X02496D02*
X02487Y02045D01*
X02481Y02067D02*
X02478Y02068D01*
X02474Y02072*
Y02045*
X02461Y02067D02*
X02458Y02068D01*
X02454Y02072*
Y02045*
X02625Y02452D02*
Y02425D01*
Y02452D02*
X02613D01*
X02609Y02451*
X02608Y0245*
X02607Y02447*
Y02444*
X02608Y02442*
X02609Y0244*
X02613Y02439*
X02625*
X02616D02*
X02607Y02425D01*
X02598Y02452D02*
X02584D01*
X02591Y02442*
X02587*
X02585Y0244*
X02584Y02439*
X02582Y02435*
Y02433*
X02584Y02429*
X02586Y02426*
X0259Y02425*
X02594*
X02598Y02426*
X02599Y02427*
X02601Y0243*
X02559Y02443D02*
X0256Y02439D01*
X02563Y02437*
X02567Y02435*
X02568*
X02572Y02437*
X02575Y02439*
X02576Y02443*
Y02444*
X02575Y02448*
X02572Y02451*
X02568Y02452*
X02567*
X02563Y02451*
X0256Y02448*
X02559Y02443*
Y02437*
X0256Y0243*
X02563Y02426*
X02567Y02425*
X0257*
X02573Y02426*
X02575Y02429*
X03371Y01333D02*
Y01306D01*
Y01333D02*
X03362D01*
X03358Y01332*
X03356Y01329*
X03354Y01327*
X03353Y01323*
Y01316*
X03354Y01312*
X03356Y0131*
X03358Y01307*
X03362Y01306*
X03371*
X03346Y01327D02*
Y01328D01*
X03344Y01331*
X03343Y01332*
X0334Y01333*
X03335*
X03332Y01332*
X03331Y01331*
X0333Y01328*
Y01325*
X03331Y01323*
X03334Y01319*
X03347Y01306*
X03328*
G54D208*
X03524Y03917D02*
D01*
X03524Y03917*
X03524Y03918*
X03524Y03919*
X03524Y0392*
X03524Y0392*
X03523Y03921*
X03523Y03921*
X03523Y03922*
X03522Y03923*
X03522Y03923*
X03521Y03924*
X03521Y03924*
X0352Y03925*
X0352Y03925*
X03519Y03925*
X03519Y03926*
X03518Y03926*
X03517Y03926*
X03517Y03926*
X03516Y03926*
X03515Y03927*
X03515Y03927*
X03514*
X03513Y03927*
X03513Y03926*
X03512Y03926*
X03511Y03926*
X03511Y03926*
X0351Y03926*
X03509Y03925*
X03509Y03925*
X03508Y03925*
X03508Y03924*
X03507Y03924*
X03507Y03923*
X03506Y03923*
X03506Y03922*
X03506Y03921*
X03505Y03921*
X03505Y0392*
X03505Y0392*
X03505Y03919*
X03505Y03918*
X03505Y03917*
X03505Y03917*
X03505Y03916*
X03505Y03915*
X03505Y03915*
X03505Y03914*
X03505Y03913*
X03505Y03913*
X03506Y03912*
X03506Y03912*
X03506Y03911*
X03507Y03911*
X03507Y0391*
X03508Y0391*
X03508Y03909*
X03509Y03909*
X03509Y03908*
X0351Y03908*
X03511Y03908*
X03511Y03907*
X03512Y03907*
X03513Y03907*
X03513Y03907*
X03514Y03907*
X03515*
X03515Y03907*
X03516Y03907*
X03517Y03907*
X03517Y03907*
X03518Y03908*
X03519Y03908*
X03519Y03908*
X0352Y03909*
X0352Y03909*
X03521Y0391*
X03521Y0391*
X03522Y03911*
X03522Y03911*
X03523Y03912*
X03523Y03912*
X03523Y03913*
X03524Y03913*
X03524Y03914*
X03524Y03915*
X03524Y03915*
X03524Y03916*
X03524Y03917*
G54D213*
X03903Y04034D02*
D01*
X03903Y04035*
X03903Y04036*
X03903Y04036*
X03903Y04037*
X03902Y04038*
X03902Y04039*
X03902Y04039*
X03901Y0404*
X03901Y04041*
X039Y04041*
X039Y04042*
X03899Y04043*
X03898Y04043*
X03898Y04044*
X03897Y04044*
X03896Y04045*
X03896Y04045*
X03895Y04045*
X03894Y04045*
X03893Y04046*
X03892Y04046*
X03892Y04046*
X03891*
X0389Y04046*
X03889Y04046*
X03888Y04045*
X03888Y04045*
X03887Y04045*
X03886Y04045*
X03885Y04044*
X03885Y04044*
X03884Y04043*
X03883Y04043*
X03883Y04042*
X03882Y04041*
X03882Y04041*
X03881Y0404*
X03881Y04039*
X0388Y04039*
X0388Y04038*
X0388Y04037*
X0388Y04036*
X0388Y04036*
X03879Y04035*
X03879Y04034*
X03879Y04033*
X0388Y04032*
X0388Y04031*
X0388Y04031*
X0388Y0403*
X0388Y04029*
X03881Y04028*
X03881Y04028*
X03882Y04027*
X03882Y04026*
X03883Y04026*
X03883Y04025*
X03884Y04025*
X03885Y04024*
X03885Y04024*
X03886Y04023*
X03887Y04023*
X03888Y04023*
X03888Y04022*
X03889Y04022*
X0389Y04022*
X03891Y04022*
X03892*
X03892Y04022*
X03893Y04022*
X03894Y04022*
X03895Y04023*
X03896Y04023*
X03896Y04023*
X03897Y04024*
X03898Y04024*
X03898Y04025*
X03899Y04025*
X039Y04026*
X039Y04026*
X03901Y04027*
X03901Y04028*
X03902Y04028*
X03902Y04029*
X03902Y0403*
X03903Y04031*
X03903Y04031*
X03903Y04032*
X03903Y04033*
X03903Y04034*
G54D335*
X02895Y03591D02*
D01*
X02895Y03591*
X02895Y03592*
X02895Y03592*
X02894Y03593*
X02894Y03593*
X02894Y03594*
X02894Y03594*
X02894Y03594*
X02893Y03595*
X02893Y03595*
X02893Y03595*
X02893Y03596*
X02892Y03596*
X02892Y03596*
X02892Y03597*
X02891Y03597*
X02891Y03597*
X0289Y03597*
X0289Y03597*
X02889Y03597*
X02889Y03597*
X02889Y03597*
X02888*
X02888Y03597*
X02887Y03597*
X02887Y03597*
X02886Y03597*
X02886Y03597*
X02885Y03597*
X02885Y03597*
X02885Y03596*
X02884Y03596*
X02884Y03596*
X02884Y03595*
X02883Y03595*
X02883Y03595*
X02883Y03594*
X02883Y03594*
X02882Y03594*
X02882Y03593*
X02882Y03593*
X02882Y03592*
X02882Y03592*
X02882Y03591*
X02882Y03591*
X02882Y03591*
X02882Y0359*
X02882Y0359*
X02882Y03589*
X02882Y03589*
X02882Y03588*
X02883Y03588*
X02883Y03588*
X02883Y03587*
X02883Y03587*
X02884Y03587*
X02884Y03586*
X02884Y03586*
X02885Y03586*
X02885Y03585*
X02885Y03585*
X02886Y03585*
X02886Y03585*
X02887Y03585*
X02887Y03585*
X02888Y03585*
X02888Y03585*
X02889*
X02889Y03585*
X02889Y03585*
X0289Y03585*
X0289Y03585*
X02891Y03585*
X02891Y03585*
X02892Y03585*
X02892Y03586*
X02892Y03586*
X02893Y03586*
X02893Y03587*
X02893Y03587*
X02893Y03587*
X02894Y03588*
X02894Y03588*
X02894Y03588*
X02894Y03589*
X02894Y03589*
X02895Y0359*
X02895Y0359*
X02895Y03591*
X02895Y03591*
M02*