%FSTAX23Y23*%
%MOIN*%
%SFA1B1*%

%IPPOS*%
%ADD9500C,0.007900*%
%ADD9501C,0.080000*%
%ADD9502C,0.031500*%
%ADD9503C,0.035400*%
%LNmain_board-roundholes-1*%
%LPD*%
G54D9500*
X02523Y01145D03*
Y01173D03*
Y012D03*
Y01228D03*
X02551D03*
X02578D03*
X02606D03*
X02633D03*
X02661D03*
Y012D03*
X02633D03*
Y01173D03*
X02661D03*
Y01145D03*
X02633D03*
X02606D03*
X02578D03*
Y01173D03*
X02551D03*
Y01145D03*
Y012D03*
X02578D03*
X02606D03*
Y01173D03*
X02689Y01145D03*
X0272D03*
X02722Y01173D03*
X0275D03*
X02752Y01145D03*
X02783D03*
X02811D03*
Y01173D03*
Y012D03*
Y01228D03*
X02838D03*
X02866D03*
X02893D03*
Y012D03*
Y01173D03*
Y01145D03*
X02921D03*
Y01173D03*
X02948D03*
Y01145D03*
Y012D03*
X02921D03*
Y01228D03*
X02948D03*
X02866Y012D03*
X02838D03*
Y01173D03*
X02866D03*
Y01145D03*
X02838D03*
X0275Y01204D03*
X02722D03*
Y01275D03*
Y01303D03*
X0275D03*
Y01275D03*
X027Y01374D03*
X02637D03*
X02626Y01427D03*
X02551Y01425D03*
Y01456D03*
X02697Y01543D03*
X02726D03*
X02787Y01413D03*
X02988Y01552D03*
X03208Y01432D03*
X03249Y01454D03*
X03413Y01405D03*
X0346Y01437D03*
Y01521D03*
X0342D03*
X03436Y01549D03*
X03547Y01488D03*
Y01448D03*
X03587D03*
X03586Y01488D03*
X03641Y01531D03*
X03744Y01456D03*
X03791Y0144D03*
X03842Y01456D03*
Y01482D03*
Y01507D03*
X03909Y01496D03*
Y01468D03*
X03921Y01555D03*
X03854Y01405D03*
X0387Y01381D03*
X03858Y01299D03*
X03885D03*
Y01271D03*
Y01244D03*
X03925Y01239D03*
X03956Y01285D03*
X03996D03*
X04066Y01299D03*
X04094D03*
X04106Y01381D03*
Y01409D03*
X04078D03*
Y01381D03*
X04133D03*
Y01409D03*
X04198Y01389D03*
X04275Y01405D03*
X0425Y01342D03*
X04249Y01295D03*
X04338Y01338D03*
X0437Y01401D03*
X04371Y01477D03*
X0441Y01441D03*
X04446Y01477D03*
X04448Y01401D03*
X04485Y0136D03*
X04519Y01386D03*
X04547Y01399D03*
X04563Y01429D03*
X04539Y01449D03*
X04559Y01476D03*
X04586D03*
X04614D03*
X04641D03*
X04637Y01437D03*
X04641Y01401D03*
X0461Y01413D03*
X04606Y01307D03*
X04574D03*
X04543D03*
X04579Y01217D03*
X04492Y01215D03*
X04448D03*
X04409D03*
X04338Y01181D03*
X04294D03*
X04208D03*
X04012Y01197D03*
X03858Y01271D03*
X03707Y01305D03*
X03583Y01349D03*
Y01377D03*
X03548Y01346D03*
X03547Y01318D03*
X0356Y01264D03*
X03586Y01196D03*
X04149Y01555D03*
X04307Y01534D03*
X04362Y01559D03*
X04508Y01542D03*
X04641Y01543D03*
X0475Y01555D03*
X04782D03*
X04817Y0154D03*
X04845D03*
X04859Y0151D03*
X04917D03*
X04932Y0154D03*
X04959D03*
X04974Y0151D03*
X05037Y01544D03*
X05Y01342D03*
X04917Y01342D03*
X04871Y01341D03*
X04827D03*
X04775Y01342D03*
X04728Y01342D03*
X04791Y01417D03*
X04813Y0123D03*
X04769D03*
X04858D03*
X04877Y01568D03*
X04904D03*
X0492Y01589D03*
X04972D03*
X04992Y01568D03*
X05019D03*
X05045Y01668D03*
X05034Y01697D03*
X05035Y01762D03*
Y01792D03*
X05037Y01834D03*
X05035Y01876D03*
Y01903D03*
Y01934D03*
Y01958D03*
X05036Y01988D03*
X04974Y01977D03*
Y0195D03*
X04975Y01923D03*
X04974Y01856D03*
Y01828D03*
X04975Y018D03*
X04945Y01788D03*
X04977Y01755D03*
X04948Y01702D03*
X04825Y01733D03*
X04712Y01734D03*
X04709Y01793D03*
Y01859D03*
X04711Y01928D03*
X04801Y01939D03*
X04826Y02011D03*
X04854D03*
Y01984D03*
X04881D03*
Y02011D03*
X04909D03*
X04946Y02014D03*
X04982D03*
X04881Y02039D03*
X04854D03*
X04826D03*
Y02122D03*
X04799D03*
X04763Y02101D03*
X04734Y02094D03*
X04711Y02176D03*
X04847Y02162D03*
X04864Y02114D03*
X04931Y02161D03*
X04956Y02156D03*
X04985Y02155D03*
X05Y02177D03*
X05007Y02201D03*
X05036Y02222D03*
X04925Y02207D03*
X04952Y02311D03*
Y02338D03*
X04921Y02425D03*
X04925Y02464D03*
X04952D03*
Y02492D03*
X04925D03*
X0491Y02571D03*
X04937Y0258D03*
X04893Y02593D03*
X04866Y02588D03*
X04843Y02601D03*
X04811Y02592D03*
X04727Y02587D03*
X04723Y02556D03*
X04767Y02539D03*
X04771Y02452D03*
X0474D03*
Y02405D03*
X04771D03*
X04803D03*
X04834D03*
Y02362D03*
X04803D03*
X04771D03*
X0474D03*
X04803Y02452D03*
X04834D03*
X04811Y02261D03*
X04881Y02639D03*
X04923Y02642D03*
X04913Y02673D03*
X04857Y02696D03*
X04842Y02728D03*
X04815Y02728D03*
X04779Y02783D03*
X04795Y02806D03*
X04811Y02878D03*
X04838Y02887D03*
Y02918D03*
X04758Y0288D03*
X04745Y03039D03*
X04964Y03032D03*
X04996Y0302D03*
X05017Y03039D03*
X05045Y03029D03*
X05064Y03119D03*
X05024D03*
X05103D03*
X05095Y02895D03*
X05093Y0285D03*
X05066Y02851D03*
X05047Y0287D03*
X04953Y02784D03*
X04938Y02752D03*
X04977Y02751D03*
X04984Y02726D03*
X04984Y02699D03*
X04995Y0267D03*
X04913Y02809D03*
X04755Y02685D03*
X04804Y01573D03*
X0486Y01589D03*
X04684Y01734D03*
X04685Y01793D03*
Y01859D03*
X04681Y01956D03*
X04653D03*
X04626D03*
Y01984D03*
X04653D03*
Y02011D03*
X04626D03*
X04599D03*
X04598Y01984D03*
Y01956D03*
X04681Y01984D03*
Y02011D03*
X04677Y02126D03*
X04683Y02176D03*
X04645Y02247D03*
X04558Y0224D03*
X04529D03*
X04565Y02283D03*
X04568Y02342D03*
X04649D03*
X04658Y02448D03*
X04649Y02497D03*
X04684Y02565D03*
X0466Y02634D03*
X04664Y02698D03*
X04665Y02726D03*
X04685Y02682D03*
X04604Y02669D03*
X04556Y02665D03*
X04551Y027D03*
X04574Y02803D03*
X04544Y0283D03*
X04534Y02861D03*
X04492Y02846D03*
X0448Y02917D03*
X0444Y03015D03*
X04562Y02985D03*
X04661Y02803D03*
X04474Y0261D03*
Y02584D03*
X04452Y02476D03*
X04472Y02452D03*
X0444Y02413D03*
X04511Y02378D03*
X04593Y02448D03*
X04354Y02492D03*
X0435Y02531D03*
X04321Y02552D03*
X04236Y02645D03*
X04244Y02744D03*
X04137Y0274D03*
X04105D03*
X04086Y02778D03*
X04058Y02781D03*
X0412Y02792D03*
X04154Y02858D03*
X04159Y02924D03*
X04172Y02956D03*
X04199Y02956D03*
X04232D03*
X04266D03*
X04294D03*
X04311Y02933D03*
X04246Y0293D03*
X04218D03*
X04213Y02835D03*
X04263Y02857D03*
X0408Y02857D03*
X0402Y0286D03*
X04009Y02834D03*
X03982D03*
X03962Y02807D03*
X03935D03*
X03914Y02852D03*
X03887D03*
X03868Y02827D03*
X0384D03*
X03823Y02804D03*
X03742Y02802D03*
X03702D03*
X03663D03*
X03624D03*
X03584D03*
X03545D03*
X03505Y02801D03*
X03464Y02802D03*
X03425D03*
X03386D03*
X03345Y028D03*
X03342Y0272D03*
X03368Y02736D03*
X03374Y02704D03*
X03413D03*
X03407Y02736D03*
X03447D03*
X03452Y02704D03*
X03492D03*
X03485Y02736D03*
X03525D03*
X03531Y02704D03*
X0357D03*
X03565Y02736D03*
X03604D03*
X0361Y02704D03*
X03649D03*
X03643Y02736D03*
X03683D03*
X03722D03*
X0373Y02703D03*
X03759Y02698D03*
X03692Y02704D03*
X03715Y02669D03*
X03724Y02546D03*
Y02511D03*
X03763D03*
Y02546D03*
X03685D03*
Y02511D03*
X03645D03*
X03644Y02546D03*
X03606D03*
Y02511D03*
X03566D03*
Y02546D03*
X03527D03*
Y02511D03*
X03488D03*
X03487Y02546D03*
X03448D03*
Y02511D03*
X03409D03*
Y02546D03*
X0337D03*
Y02511D03*
X0333D03*
Y02546D03*
X03291D03*
Y02511D03*
X03252D03*
Y02546D03*
X03212D03*
Y02511D03*
X03173D03*
Y02546D03*
X03132D03*
X03133Y02511D03*
X03169Y02736D03*
X0323Y02734D03*
X03228Y02704D03*
X03303Y02708D03*
X03306Y02736D03*
X03244Y02803D03*
X03201Y02806D03*
X03169Y02803D03*
X03129Y02811D03*
X03163Y0291D03*
Y02954D03*
X0317Y02992D03*
X03197Y02992D03*
X03243Y02941D03*
X03286Y02941D03*
X03223Y02914D03*
X03263Y0283D03*
X03253Y03071D03*
X03224Y03118D03*
X0316Y03122D03*
X03335Y03104D03*
X03368Y03078D03*
Y03053D03*
Y03028D03*
X03447Y0305D03*
X0365Y02931D03*
X03678D03*
X03698Y02958D03*
X03726D03*
X03746Y02939D03*
X03773D03*
X03793Y02958D03*
X0382D03*
X03841Y02979D03*
X03872Y0304D03*
X03793Y03075D03*
X03749Y03103D03*
X03776Y02858D03*
X0369Y02857D03*
X03657D03*
X03932Y02919D03*
X03971Y02918D03*
X03966Y02943D03*
X03995Y02939D03*
X04019Y0292D03*
X04015Y02972D03*
X04082Y02976D03*
X04114D03*
X04137Y02957D03*
X04109Y02921D03*
X04082D03*
X04079Y03041D03*
X04117Y03042D03*
X04161D03*
X04208D03*
X04255D03*
X043D03*
X04141Y0307D03*
X03921Y02645D03*
X03873Y02666D03*
X03834Y02692D03*
X03878Y02532D03*
X03906D03*
Y02504D03*
X03878D03*
X03861Y02204D03*
Y02169D03*
Y02134D03*
Y02099D03*
X039D03*
Y02134D03*
Y02169D03*
Y02204D03*
X03821D03*
Y02169D03*
Y02134D03*
Y02099D03*
X03852Y02031D03*
X03879D03*
X03911D03*
X03939D03*
X03944Y01893D03*
Y01866D03*
X03972D03*
Y01838D03*
X04D03*
Y01866D03*
Y01893D03*
X03972D03*
X03944Y01838D03*
X04007Y01791D03*
X04197Y01846D03*
X04226D03*
X04256Y01771D03*
Y01745D03*
X04288Y01743D03*
X04289Y01771D03*
X04391Y01729D03*
X04382Y01701D03*
X04413Y01706D03*
X04448Y01685D03*
X04436Y01619D03*
X0441Y01603D03*
X04396Y01629D03*
X04358Y01649D03*
X04318Y01626D03*
X04279Y01564D03*
X04389Y01576D03*
X04464Y01594D03*
X04492Y0159D03*
X04537Y01591D03*
X04535Y02038D03*
X04563D03*
X04577Y02062D03*
X04524Y02063D03*
X04351Y01991D03*
X04289Y02017D03*
X04235Y02129D03*
X04165Y02086D03*
X04083Y02122D03*
X04083Y02198D03*
X04094Y02224D03*
X04098Y02263D03*
X04168Y02259D03*
X04195Y02301D03*
X04145Y02338D03*
X04091Y0237D03*
X04251Y02254D03*
X04393Y02212D03*
X03781Y02204D03*
X03782Y02169D03*
X03743D03*
Y02204D03*
X03703D03*
Y02169D03*
X03664D03*
Y02204D03*
X03624D03*
X03625Y02169D03*
X03585D03*
Y02204D03*
X03434Y02218D03*
X0337Y02221D03*
X03393Y02149D03*
X03315Y02169D03*
X03279Y02137D03*
X03311Y02106D03*
X03244D03*
Y02169D03*
X03169Y02187D03*
X03161Y02153D03*
Y01996D03*
X03165Y01901D03*
X03137D03*
X03212D03*
X0324D03*
X03242Y01961D03*
X03271D03*
X03309D03*
X03236Y02025D03*
X03467Y02109D03*
X03539Y02D03*
X03594D03*
X03614Y01877D03*
X03688Y01852D03*
X03728D03*
X03708Y01881D03*
X03689Y01909D03*
X03728D03*
X03818Y01968D03*
X03873Y0158D03*
X03641Y01568D03*
X03531Y01563D03*
X0346Y01588D03*
X03468Y0183D03*
X0344D03*
X03496D03*
X03259Y01712D03*
X03232D03*
X03204D03*
X03177D03*
X03157Y01732D03*
X03137Y01752D03*
X03145Y01633D03*
X0318Y01636D03*
X03204Y01602D03*
X03114Y01594D03*
Y01655D03*
X03089Y01717D03*
X0309Y01771D03*
X03118D03*
X03102Y01841D03*
Y01881D03*
Y01909D03*
Y0196D03*
Y01988D03*
X03119Y02052D03*
X03054Y02203D03*
X02974Y02197D03*
X02944Y02192D03*
X02976Y02232D03*
X02938Y02272D03*
X02876Y02211D03*
X02905Y02145D03*
X02906Y02094D03*
X0294D03*
X02774Y02105D03*
X02775Y02007D03*
Y0198D03*
Y01952D03*
X02748D03*
X0272D03*
Y0198D03*
Y02007D03*
X02748D03*
Y0198D03*
X02744Y01858D03*
X02709Y01823D03*
X02679Y01791D03*
X0263Y01792D03*
X02578Y01795D03*
X02566Y01736D03*
X02553Y01685D03*
X02551Y01618D03*
X02625D03*
X02669Y01689D03*
X0271Y01676D03*
X0274Y01681D03*
X02766Y01621D03*
X02874Y01598D03*
X02925Y01639D03*
Y01665D03*
Y0169D03*
X02851Y01698D03*
X0285Y01787D03*
X02838Y01815D03*
X02833Y01854D03*
X02799Y01843D03*
X02739Y01788D03*
X02627Y01854D03*
X02626Y01881D03*
X02582Y01943D03*
X02574Y01968D03*
X0257Y02035D03*
X02566Y02063D03*
X02571Y02133D03*
X02623Y02108D03*
X02638Y02079D03*
X02645Y02208D03*
X02677D03*
X02708D03*
Y02248D03*
X02677D03*
X02645D03*
X02614D03*
Y02287D03*
X02645D03*
X02677D03*
X02708D03*
X02803Y02255D03*
X02787Y02347D03*
X02853Y02332D03*
X02855Y024D03*
X02829Y02398D03*
X02836Y02424D03*
X0281Y02427D03*
X02783Y02476D03*
X02759Y025D03*
X02708Y02519D03*
X02712Y02456D03*
X02677D03*
X02637D03*
X02584Y02484D03*
X025Y02512D03*
X02425Y02503D03*
Y02547D03*
X0248Y02657D03*
X02518Y02708D03*
X02566Y02626D03*
Y02598D03*
X02594D03*
Y02626D03*
X02791Y02656D03*
X02834Y02626D03*
X02807Y02531D03*
X02781Y02721D03*
X02889Y02706D03*
X03059Y02724D03*
X03094Y02811D03*
X03109Y03031D03*
X03102Y03061D03*
X02716Y03055D03*
X02687Y03106D03*
X02689Y02948D03*
X02822Y02925D03*
X02629Y02846D03*
Y02818D03*
X02611Y02368D03*
X02578Y02368D03*
X02527Y0233D03*
X02532Y02303D03*
X02511Y02285D03*
X0251Y02252D03*
X02515Y02169D03*
X02614Y02208D03*
X02437Y02106D03*
X02476Y02035D03*
Y01881D03*
X02503Y01874D03*
X025Y01755D03*
X02984Y01747D03*
X03005Y01756D03*
X02996Y01799D03*
X02952Y01807D03*
Y01834D03*
X03055Y01838D03*
X02988Y01582D03*
X02496Y02429D03*
X02646Y0317D03*
X02687Y03142D03*
X02745Y03192D03*
X02815Y03151D03*
X02859Y03131D03*
X02891Y03181D03*
X0294Y0318D03*
X02988Y03326D03*
X02992Y03437D03*
X02956Y03444D03*
Y03417D03*
X02991Y03492D03*
X02992Y03519D03*
X03011Y03555D03*
X03039D03*
X0307Y03519D03*
Y03484D03*
X0294Y03551D03*
X02913D03*
X02822D03*
X02791D03*
Y03519D03*
Y03488D03*
X02822D03*
Y03519D03*
X02759D03*
Y03488D03*
X02728D03*
Y03519D03*
Y03551D03*
X02759D03*
Y03456D03*
X02791D03*
X02777Y03371D03*
X0275D03*
X02727Y0331D03*
X02593Y03365D03*
X02594Y03441D03*
X02637Y03476D03*
Y03502D03*
X02624Y03571D03*
Y03597D03*
X02594Y03712D03*
Y0374D03*
X02622D03*
X02778Y03704D03*
X02783Y03665D03*
Y03637D03*
X02988Y03629D03*
Y0366D03*
X03019Y03724D03*
Y03755D03*
X02993D03*
X02823Y03841D03*
X02824Y03868D03*
X02484Y03878D03*
X02452D03*
Y03846D03*
X02421D03*
Y03815D03*
Y03878D03*
Y03909D03*
Y0394D03*
Y03972D03*
Y04003D03*
Y04035D03*
Y04066D03*
X02452D03*
Y04035D03*
Y04098D03*
X02421D03*
Y04129D03*
Y04161D03*
X02452D03*
Y04129D03*
Y04192D03*
Y04224D03*
X02421D03*
Y04192D03*
Y04255D03*
X02452D03*
X02484D03*
Y04287D03*
Y04318D03*
X02452D03*
Y04287D03*
X02421D03*
Y04318D03*
X02531Y04346D03*
Y04374D03*
X03039Y04385D03*
X03059Y04405D03*
X03112Y04379D03*
X02987Y04486D03*
X02972Y0418D03*
Y04145D03*
X03185Y04118D03*
X03194Y04082D03*
Y04047D03*
Y0402D03*
X03275Y03972D03*
Y03885D03*
Y03858D03*
X03189Y03857D03*
X03216Y03814D03*
X03146Y03899D03*
X03173Y03661D03*
X03216Y03656D03*
X03189Y03628D03*
X03137Y03597D03*
X03397Y03656D03*
Y03758D03*
Y03858D03*
X03413Y03886D03*
X03447Y03967D03*
X03474D03*
X0348Y04073D03*
X03507D03*
Y04105D03*
X0348D03*
X03493Y04145D03*
X03553Y0414D03*
X0358Y04144D03*
X03592Y04086D03*
X03665Y04065D03*
X03733Y04082D03*
X03732Y04177D03*
X03784Y04196D03*
X03846Y04196D03*
X03889Y04177D03*
X03917Y0419D03*
X03912Y04258D03*
X03878Y04259D03*
X03846D03*
X03842Y04291D03*
X03816Y04304D03*
X03791Y04315D03*
X03764Y04316D03*
X03712Y04303D03*
X03681D03*
Y04263D03*
X03712D03*
X03631Y04259D03*
X03594Y04259D03*
X0344Y04263D03*
X03436Y0437D03*
X03416Y04468D03*
X03322D03*
X03212D03*
X03157Y04275D03*
X03126Y04283D03*
X03322Y04267D03*
X0335Y04124D03*
Y04101D03*
Y04077D03*
X03274Y04128D03*
X03582Y03995D03*
X03545Y03861D03*
X03547Y03826D03*
X03535Y03752D03*
X03677Y03755D03*
Y03787D03*
X03673Y03835D03*
X03732Y03806D03*
X03755Y03818D03*
X03756Y03792D03*
X0377Y03767D03*
X0376Y03715D03*
X03759Y0368D03*
X03732Y03606D03*
X03509Y03625D03*
X03527Y03464D03*
X03527Y03435D03*
X03501Y03422D03*
X03458Y03421D03*
X03435Y03393D03*
X03456Y03366D03*
X03488D03*
X03389Y03381D03*
Y03409D03*
Y03437D03*
X03362D03*
Y03409D03*
X03334D03*
Y03437D03*
Y03381D03*
X03362D03*
X03368Y03265D03*
X0344Y03255D03*
X03441Y03196D03*
X03472Y03171D03*
X03389Y032D03*
X03346D03*
X03288Y03184D03*
X03248Y03176D03*
X03221D03*
X03235Y03197D03*
X03159Y03157D03*
X03699Y03126D03*
X03551Y03477D03*
X04028Y0352D03*
X041Y034D03*
X0411Y03374D03*
X04122Y03339D03*
X04086Y0335D03*
X04202Y03394D03*
X04194Y03482D03*
X04226D03*
X04219Y03511D03*
X0429Y03522D03*
X04315D03*
X04386Y0353D03*
X04454Y03542D03*
X04452Y0361D03*
Y03637D03*
X04507Y03574D03*
X04625Y03532D03*
X04684D03*
X04663Y0371D03*
Y0375D03*
X04623D03*
Y0371D03*
Y0379D03*
X04663D03*
Y0383D03*
X04623D03*
Y0387D03*
X04663D03*
X04447Y03908D03*
X04346Y03898D03*
X0426Y03872D03*
X04241Y03853D03*
X0424Y03812D03*
X04262Y03831D03*
Y03786D03*
X04263Y03746D03*
X0424Y03725D03*
Y03766D03*
X04236Y03645D03*
X04196D03*
X04157D03*
X04118D03*
X04136Y03622D03*
X04176D03*
X04217D03*
X04258D03*
X04306Y03628D03*
X04283Y03574D03*
X04291Y03375D03*
X04317Y03367D03*
X04336Y03386D03*
X04362D03*
X04461Y03329D03*
X04495Y0333D03*
X04533Y0333D03*
X04565Y0333D03*
X04565Y03434D03*
X04506Y04047D03*
Y04218D03*
X04561Y0423D03*
X046Y04231D03*
X04581Y04253D03*
X04541D03*
X04627Y04253D03*
X04646Y04232D03*
X0435Y04263D03*
X04303D03*
X04255Y04259D03*
X04192D03*
X04159Y04266D03*
X04124Y04257D03*
X04114Y04196D03*
X0409Y04177D03*
Y04145D03*
Y04116D03*
X04133Y04118D03*
X04173D03*
X04212D03*
X04192Y04141D03*
X04153D03*
X04232D03*
X04275Y04118D03*
X04255Y04094D03*
X04301Y04141D03*
X04329Y04121D03*
X0436Y0412D03*
X04344Y04098D03*
X04397Y04118D03*
X0435Y04378D03*
X04303D03*
X04255D03*
X04139Y04411D03*
X04108Y04386D03*
X04048Y04401D03*
X03978Y04387D03*
X0395Y04407D03*
X03966Y04444D03*
X03893Y04417D03*
X03895Y0439D03*
X03905Y04315D03*
Y04287D03*
X03936Y04305D03*
X03968Y04303D03*
X04032Y04287D03*
X04063Y04279D03*
X04041Y04257D03*
X04169Y04315D03*
X03968Y04145D03*
Y0412D03*
Y04094D03*
Y04066D03*
X03972Y04031D03*
X03869Y04043D03*
X0387Y04082D03*
X03866Y04126D03*
X03807Y03988D03*
X03846Y03948D03*
X03815Y03917D03*
X04001Y03843D03*
X04196Y03899D03*
X03797Y0428D03*
X03787Y04433D03*
Y0446D03*
X03815D03*
Y04433D03*
Y04488D03*
X03787D03*
X03759D03*
X03732D03*
X03704D03*
Y0446D03*
Y04433D03*
X03732D03*
Y0446D03*
X03759D03*
Y04433D03*
X03608Y04426D03*
X03515Y04456D03*
X04718Y0422D03*
X04771Y04192D03*
Y04161D03*
X0473Y04047D03*
X0484D03*
X04937Y04153D03*
X04905Y04228D03*
Y04267D03*
X04858Y04263D03*
X0486Y04232D03*
X04944Y03921D03*
X04956Y03881D03*
X05096D03*
X05102Y0374D03*
X04956Y03681D03*
X0494Y03594D03*
X04936Y03531D03*
X049Y03548D03*
X04874Y03531D03*
X04801Y03532D03*
X04723D03*
X04702Y03434D03*
X04783D03*
X04818D03*
X04904D03*
X04901Y03318D03*
X04927D03*
X0494Y03269D03*
X04972D03*
X05005D03*
X05024Y03189D03*
Y03154D03*
X05064D03*
Y03189D03*
Y03226D03*
X05103D03*
Y03189D03*
Y03154D03*
Y03263D03*
X0509Y03377D03*
X05065D03*
X05038Y03351D03*
X04817Y0333D03*
X04785D03*
X04702D03*
X04703Y0371D03*
X04743D03*
X04783D03*
Y0375D03*
X04743D03*
X04703D03*
Y0379D03*
X04743D03*
X04783D03*
Y0383D03*
X04743D03*
X04703D03*
Y0387D03*
X04743D03*
X04783D03*
G54D9501*
X05145Y02141D03*
X02464Y04433D03*
X05239Y03996D03*
G54D9502*
X03267Y04374D03*
Y0448D03*
X04559D03*
Y04374D03*
X04913D03*
Y0448D03*
G54D9503*
X03406Y02098D03*
X03524D03*
X044Y02132D03*
Y0225D03*
M02*