%FSTAX23Y23*%
%MOIN*%
%SFA1B1*%

%IPPOS*%
%ADD11C,0.007900*%
%ADD12C,0.003900*%
%ADD13C,0.005900*%
%ADD15C,0.015700*%
%ADD18O,0.047200X0.074800*%
%ADD19O,0.047200X0.066900*%
%ADD203C,0.006900*%
%ADD204C,0.011800*%
%ADD205C,0.006700*%
%ADD206C,0.004700*%
%ADD207C,0.013800*%
%ADD208C,0.019700*%
%ADD210C,0.010000*%
%ADD211C,0.021300*%
%ADD213C,0.023600*%
%ADD219C,0.027600*%
%ADD221O,0.049200X0.078700*%
%ADD222C,0.015700*%
%ADD223C,0.118100*%
%ADD224C,0.017700*%
%ADD225C,0.004300*%
%LNmain_board-1*%
%LPD*%
G36*
X05107Y04497D02*
X0511Y04497D01*
X05115Y04496*
X0512Y04494*
X05124Y04491*
X05128Y04487*
X05131Y04483*
X05134Y04478*
X05135Y04472*
X05135Y0447*
Y04289*
X0513Y04287*
X04983Y04435*
X04977Y04439*
X0497Y0444*
X04505*
X04499Y04439*
X04493Y04435*
X04366Y04308*
X04184*
X04177Y04307*
X04171Y04303*
X04157Y04289*
X0415Y04288*
X04143Y04283*
X04138Y04275*
X04132Y04279*
X04124Y04281*
X04115Y04279*
X04107Y04274*
X04102Y04266*
X04101Y0426*
X04041Y042*
X04037Y04194*
X04036Y04188*
Y04022*
X0402Y04005*
X03983*
X03982Y04006*
X03982Y0401*
X03988Y04015*
X03993Y04022*
X03993Y04023*
X04021Y0405*
X04026Y04057*
X04027Y04065*
Y04233*
X04026Y04241*
X04021Y04248*
X04016Y04253*
Y04265*
X04021Y04267*
X04024Y04266*
X04032Y04264*
X04041Y04266*
X04043Y04267*
X04046Y04263*
X04054Y04258*
X04063Y04256*
X04071Y04258*
X04079Y04263*
X04084Y0427*
X04086Y04279*
X04084Y04288*
X0408Y04294*
Y04387*
X04078Y04393*
X04075Y04399*
X04071Y04403*
X04069Y0441*
X04064Y04417*
X04057Y04422*
X04048Y04424*
X04039Y04422*
X04031Y04417*
X04026Y0441*
X04025Y04401*
X04026Y04392*
X04031Y04385*
X04039Y0438*
X04045Y04379*
Y04311*
X04044Y0431*
X0404Y04308*
X04032Y0431*
X04024Y04308*
X04021Y04307*
X04016Y04309*
Y04319*
X04014Y04327*
X0401Y04334*
X03983Y04361*
X03985Y04366*
X03987Y04366*
X03994Y04371*
X03999Y04379*
X04001Y04387*
X03999Y04396*
X03994Y04404*
X03987Y04409*
X03978Y0441*
X03969Y04409*
X03962Y04404*
X03957Y04396*
X03955Y04387*
X03956Y04384*
X03951Y04379*
X0392*
X03917Y04384*
X03918Y0439*
X03917Y04399*
X03913Y04405*
X03915Y04408*
X03916Y04417*
X03915Y04426*
X0391Y04433*
X03902Y04438*
X03893Y0444*
X03884Y04438*
X03877Y04433*
X03872Y04426*
X0387Y04417*
X03872Y04408*
X03876Y04402*
X03874Y04399*
X03872Y0439*
X03873Y04384*
X0387Y04379*
X03732*
X03724Y04377*
X03717Y04373*
X03697Y04353*
X03693Y04346*
X03691Y04338*
Y04334*
X03683*
X03657Y0436*
Y044*
X03656Y04409*
X0365Y04417*
X03625Y04443*
X03617Y04448*
X03608Y0445*
X03284*
X03284Y04451*
X03283Y04455*
X03288Y04459*
X03293Y04465*
X03296Y04472*
X03297Y0448*
X03296Y04488*
X03294Y04492*
X03297Y04497*
X03678*
X03682Y04492*
X03681Y04488*
X03683Y04479*
X03686Y04474*
X03683Y04469*
X03681Y0446*
X03683Y04451*
X03686Y04447*
X03683Y04442*
X03681Y04433*
X03683Y04424*
X03688Y04417*
X03695Y04412*
X03704Y0441*
X03713Y04412*
X03718Y04415*
X03723Y04412*
X03732Y0441*
X03741Y04412*
X03746Y04415*
X03751Y04412*
X03759Y0441*
X03768Y04412*
X03773Y04415*
X03778Y04412*
X03787Y0441*
X03796Y04412*
X03801Y04415*
X03806Y04412*
X03815Y0441*
X03823Y04412*
X03831Y04417*
X03836Y04424*
X03838Y04433*
X03836Y04442*
X03833Y04447*
X03836Y04451*
X03838Y0446*
X03836Y04469*
X03833Y04474*
X03836Y04479*
X03838Y04488*
X03837Y04492*
X03841Y04497*
X04529*
X04532Y04492*
X0453Y04488*
X04529Y0448*
X0453Y04472*
X04533Y04465*
X04538Y04459*
X04544Y04454*
X04551Y04451*
X04559Y0445*
X04566Y04451*
X04573Y04454*
X0458Y04459*
X04584Y04465*
X04587Y04472*
X04588Y0448*
X04587Y04488*
X04585Y04492*
X04588Y04497*
X04883*
X04886Y04492*
X04884Y04488*
X04883Y0448*
X04884Y04472*
X04887Y04465*
X04892Y04459*
X04898Y04454*
X04905Y04451*
X04913Y0445*
X04921Y04451*
X04928Y04454*
X04934Y04459*
X04939Y04465*
X04942Y04472*
X04943Y0448*
X04942Y04488*
X0494Y04492*
X04943Y04497*
X05106*
X05107*
G37*
G36*
X03609Y0439D02*
Y0435D01*
X03611Y04341*
X03616Y04333*
X03654Y04295*
Y04274*
X03649Y04273*
X03647Y04275*
X0364Y0428*
X03633Y04281*
X03615Y04299*
X03609Y04303*
X03603Y04305*
X03464*
X03457Y04303*
X03452Y04299*
X03439Y04286*
X03431Y04285*
X03423Y0428*
X03418Y04272*
X03417Y04264*
X03414Y04261*
X0318*
X03178Y04266*
X03178Y04266*
X0318Y04275*
X03178Y04284*
X03173Y04291*
X03166Y04296*
X03157Y04298*
X03148Y04296*
X03145Y04294*
X03142Y04299*
X03134Y04304*
X03126Y04306*
X03117Y04304*
X03109Y04299*
X03104Y04292*
X03102Y04283*
X03104Y04274*
X03109Y04267*
X03117Y04262*
X03126Y0426*
X03134Y04262*
X03137Y04264*
X03141Y04259*
X03139Y04254*
X031Y04216*
X03096Y04218*
Y04339*
X03114Y04357*
X03121Y04358*
X03128Y04363*
X03133Y04371*
X03135Y04379*
X03133Y04388*
X03128Y04396*
X03127Y04397*
X03128Y04402*
X03247*
X03249Y04397*
X03246Y04395*
X03241Y04388*
X03238Y04381*
X03237Y04374*
X03238Y04366*
X03241Y04359*
X03246Y04353*
X03252Y04348*
X0326Y04345*
X03267Y04344*
X03275Y04345*
X03282Y04348*
X03288Y04353*
X03293Y04359*
X03296Y04366*
X03297Y04374*
X03296Y04381*
X03293Y04388*
X03288Y04395*
X03286Y04397*
X03287Y04402*
X03598*
X03609Y0439*
G37*
G36*
X02606Y04483D02*
Y04227D01*
X02597*
X02596Y04227*
X02595Y04227*
X02591Y04226*
X0259Y04226*
X02588Y04225*
X0258Y04222*
X02579Y0422*
X02577Y04219*
X02571Y04213*
X0257Y04211*
X02569Y0421*
X02566Y04202*
X02566Y042*
X02566Y04198*
Y04189*
X02566Y04187*
X02566Y04185*
X02569Y04177*
X0257Y04176*
X02571Y04174*
X02577Y04168*
X02579Y04167*
X0258Y04165*
X02588Y04162*
X0259Y04161*
X02591Y04161*
X02595Y0416*
X02596*
X02596Y0416*
X02597Y0416*
X02598*
X02598*
X02606*
Y04023*
X02607Y04023*
Y04022*
X02607Y04021*
X02607Y04021*
Y04021*
X02607Y04017*
X02608Y04016*
X02608Y04015*
X02611Y04008*
X02612Y04007*
X02613Y04005*
X02618Y04001*
X0262Y04*
X02621Y03999*
X02626Y03996*
X02627Y03992*
X02627Y03991*
X02452Y03815*
X02448Y03809*
X02447Y03803*
Y02736*
X0242Y0271*
X02416Y02704*
X02415Y02697*
Y02568*
X02408Y02563*
X02405Y02557*
X024Y02559*
Y04389*
X02405Y0439*
X02412Y04381*
X02423Y04372*
X02436Y04365*
X0245Y04361*
X02464Y04359*
X02478Y04361*
X02492Y04365*
X02503Y04371*
X02508Y0437*
X02509Y04369*
X0251Y04365*
X02513Y0436*
X0251Y04355*
X02508Y04346*
X0251Y04337*
X02515Y0433*
X02522Y04325*
X02531Y04323*
X0254Y04325*
X02547Y0433*
X02552Y04337*
X02554Y04346*
X02552Y04355*
X02549Y0436*
X02552Y04365*
X02554Y04374*
X02552Y04382*
X02547Y0439*
X0254Y04395*
X02533Y04396*
X0253Y04401*
X02532Y04405*
X02536Y04418*
X02537Y04433*
X02536Y04447*
X02532Y04461*
X02525Y04473*
X02516Y04484*
X02506Y04492*
X02508Y04497*
X02592*
X02606Y04483*
G37*
G36*
X03974Y0431D02*
Y04244D01*
X03975Y04236*
X0398Y04229*
X03985Y04224*
Y04167*
X0398Y04164*
X03977Y04167*
X03968Y04168*
X03959Y04167*
X03952Y04162*
X03947Y04154*
X03945Y04145*
X03947Y04136*
X03949Y04132*
X03947Y04128*
X03945Y0412*
X03945Y04117*
X03941Y04116*
X03937Y04121*
X03893Y04166*
X03887Y04169*
X0388Y04171*
X0368*
X03666Y04185*
X03666Y04187*
X03668Y0419*
X03763*
X0377Y04191*
X03776Y04195*
X03831Y0425*
X03835Y04256*
X03836Y04263*
Y04265*
X0384Y04268*
X03842Y04268*
X03851Y0427*
X03852Y0427*
X03852Y0427*
X03856Y04267*
X03854Y04259*
X03856Y04251*
X03861Y04243*
X03869Y04238*
X03878Y04236*
X03886Y04238*
X0389Y04241*
X03896Y04242*
X03903Y04237*
X03912Y04235*
X03921Y04237*
X03928Y04242*
X03933Y0425*
X03935Y04258*
X03933Y04267*
X03928Y04275*
X03925Y04277*
X03926Y04278*
X03927Y04283*
X03936Y04282*
X03944Y04283*
X03952Y04288*
X03957Y04296*
X03959Y04305*
X03957Y04314*
X03952Y04321*
X03944Y04326*
X03936Y04328*
X03927Y04326*
X03919Y04321*
X03914Y04314*
X03913Y04308*
X03905Y0431*
X03896Y04308*
X03889Y04303*
X03884Y04296*
X03882Y04287*
X03882Y04286*
X03879Y04282*
X03878Y04282*
X03869Y04281*
X03868Y0428*
X03867Y0428*
X03864Y04283*
X03865Y04291*
X03863Y043*
X03858Y04307*
X03851Y04312*
X03842Y04314*
X03837Y04313*
X03833Y0432*
X03825Y04325*
X03816Y04327*
X03808Y04325*
X038Y0432*
X03795Y04313*
X03793Y04304*
X03795Y04295*
X038Y04287*
X03801Y04287*
Y0427*
X03786Y04254*
X03781Y04257*
X03782Y04261*
Y04302*
X03786Y04308*
X03787Y04316*
X03786Y04325*
X03781Y04332*
X03783Y04337*
X03948*
X03974Y0431*
G37*
G36*
X03728Y04316D02*
Y04254D01*
X03724Y04251*
X03672*
X0367Y04251*
X03669Y04253*
X03668Y04254*
Y04255*
Y04315*
X03673Y0432*
X03724*
X03728Y04316*
G37*
G36*
X03608Y04256D02*
X0361Y0425D01*
X03612Y04247*
X03609Y04242*
X03457*
X03456Y04247*
X03461Y04254*
X03462Y0426*
X03471Y04269*
X03595*
X03608Y04256*
G37*
G36*
X049Y044D02*
X04898Y04399D01*
X04892Y04395*
X04887Y04388*
X04884Y04381*
X04883Y04374*
X04884Y04366*
X04887Y04359*
X04892Y04353*
X04898Y04348*
X04904Y04345*
X04903Y0434*
X04854*
X04847Y04339*
X04841Y04335*
X04794Y04288*
X0479Y04282*
X04789Y04275*
Y0424*
X0479Y04233*
X04794Y04227*
X04828Y04192*
X04834Y04189*
X04841Y04187*
X04882*
X04889Y04189*
X04895Y04192*
X04908Y04205*
X04914Y04207*
X04921Y04212*
X04926Y04219*
X04928Y04228*
X04926Y04237*
X04921Y04244*
X04923Y04249*
X04933*
X04966Y04216*
Y03938*
X04961Y03937*
X04961Y03937*
X04953Y03942*
X04944Y03944*
X04936Y03942*
X04928Y03937*
X04923Y0393*
X04921Y03921*
X04923Y03912*
X04928Y03904*
X04936Y03899*
X04944Y03898*
X04953Y03899*
X04961Y03904*
X04961Y03905*
X04966Y03903*
Y03606*
X04961Y03604*
X04957Y0361*
X04949Y03615*
X0494Y03617*
X04932Y03615*
X04926Y03612*
X04633*
X0456Y03684*
Y03885*
X04559Y03892*
X04555Y03898*
X045Y03953*
X04494Y03957*
X04488Y03958*
X04079*
Y04015*
X04071Y04023*
Y04125*
X04076Y04127*
X04081Y04124*
X0409Y04122*
X04099Y04124*
X04106Y04129*
X04111Y04136*
X04113Y04145*
X04111Y04154*
X04107Y04161*
X04111Y04168*
X04113Y04177*
X04111Y04186*
X04106Y04193*
X04099Y04198*
X04096Y04199*
X04094Y04203*
X04126Y04235*
X04132Y04236*
X0414Y04241*
X04145Y04249*
X0415Y04245*
X04159Y04243*
X04168Y04245*
X04175Y0425*
X0418Y04257*
X04182Y04264*
X04191Y04273*
X04374*
X04375Y04274*
X04381Y0427*
X04381Y04269*
X04358Y04246*
X04236*
X04229Y04245*
X04223Y04241*
X0416Y04178*
X04156Y04172*
X04156Y04169*
X04153Y04164*
X04144Y04163*
X04137Y04158*
X04132Y0415*
X0413Y04141*
X0413Y0414*
X04125Y04139*
X04117Y04134*
X04112Y04126*
X0411Y04118*
X04112Y04109*
X04117Y04101*
X04125Y04096*
X04133Y04095*
X04142Y04096*
X0415Y04101*
X04151Y04103*
X04156*
X04156Y04101*
X04164Y04096*
X04173Y04095*
X04182Y04096*
X04189Y04101*
X0419Y04103*
X04195*
X04196Y04101*
X04203Y04096*
X04212Y04095*
X04221Y04096*
X04228Y04101*
X04233Y04109*
X04235Y04118*
X04235Y04119*
X04241Y0412*
X04248Y04125*
X04249Y04126*
X04253Y04124*
X04252Y04118*
X04254Y04109*
X04259Y04101*
X04266Y04096*
X04275Y04095*
X04284Y04096*
X04291Y04101*
X04296Y04109*
X04297Y04114*
X04301Y04118*
X04306Y04119*
X04308Y04112*
X04313Y04104*
X0432Y04099*
X04321Y04099*
X04321Y04098*
X04323Y04089*
X04328Y04082*
X04335Y04077*
X04344Y04075*
X04353Y04077*
X04361Y04082*
X04366Y04089*
X04367Y04098*
Y04098*
X04369Y04098*
X04375Y04103*
X04381Y04102*
X04381Y04101*
X04388Y04096*
X04397Y04095*
X04406Y04096*
X04414Y04101*
X04419Y04109*
X0442Y04118*
X04419Y04126*
X04414Y04134*
X04418Y04136*
X04516Y04234*
X04527*
X04532Y04231*
X04538Y0423*
X04537Y0423*
X04539Y04221*
X04544Y04214*
X04552Y04209*
X04561Y04207*
X04569Y04209*
X04577Y04214*
X04578Y04215*
X04583*
X04584Y04215*
X04591Y0421*
X046Y04208*
X04609Y0421*
X04616Y04215*
X04621Y04221*
X04625Y04221*
X04626Y04221*
X0463Y04216*
X04637Y04211*
X04646Y04209*
X04655Y04211*
X04663Y04216*
X04668Y04223*
X04669Y04232*
X04669Y04233*
X0467Y04234*
X04671Y04241*
Y04271*
X0467Y04278*
X04666Y04284*
X04595Y04355*
X04589Y04359*
X04589Y04359*
X04586Y04363*
X04587Y04366*
X04588Y04374*
X04587Y04381*
X04584Y04388*
X0458Y04395*
X04573Y04399*
X04572Y044*
X04573Y04405*
X04899*
X049Y044*
G37*
G36*
X0324Y04492D02*
X03238Y04488D01*
X03237Y0448*
X03238Y04472*
X03241Y04465*
X03246Y04459*
X03251Y04455*
X03251Y04451*
X0325Y0445*
X03079*
X0307Y04448*
X03062Y04443*
X03022Y04402*
X03017Y04395*
X03015Y04385*
X03017Y04376*
X03022Y04368*
X0303Y04363*
X03039Y04361*
X03048Y04363*
X03056Y04368*
X03089Y04402*
X03095*
X03097Y04397*
X03095Y04396*
X0309Y04388*
X03089Y04382*
X03066Y04358*
X03062Y04353*
X03061Y04346*
Y04204*
X03Y04143*
X02995Y04145*
Y04145*
X02993Y04154*
X0299Y04159*
X02989Y04163*
X0299Y04166*
X02993Y04171*
X02995Y0418*
X02993Y04189*
X02988Y04197*
X02981Y04202*
X02972Y04203*
X02963Y04202*
X02956Y04197*
X02951Y04189*
X02949Y0418*
X02951Y04171*
X02954Y04166*
X02955Y04163*
X02954Y04159*
X02951Y04154*
X02949Y04145*
X02951Y04136*
X02956Y04129*
X02963Y04124*
X02972Y04122*
X02972*
X02975Y04118*
X0288Y04023*
X02875Y04025*
Y04025*
X02875Y04025*
Y0416*
X02884*
X02885Y0416*
X02886*
X02891Y04161*
X02892Y04161*
X02893Y04161*
X02901Y04165*
X02903Y04166*
X02904Y04168*
X0291Y04174*
X02911Y04176*
X02912Y04177*
X02915Y04185*
X02916Y04187*
X02916Y04189*
Y04198*
X02916Y042*
X02915Y04202*
X02912Y0421*
X02911Y04211*
X0291Y04213*
X02904Y04219*
X02903Y0422*
X02901Y04222*
X02893Y04225*
X02892Y04226*
X02891Y04226*
X02886Y04227*
X02886*
X02885Y04227*
X02884*
X02884*
X02883*
X02875*
Y04484*
X02889Y04497*
X03237*
X0324Y04492*
G37*
G36*
X03471Y0415D02*
X0347Y04145D01*
X03471Y04136*
X03474Y04132*
X03472Y04126*
X03471Y04126*
X03464Y04121*
X03459Y04114*
X03457Y04105*
X03459Y04096*
X03463Y04089*
X03459Y04082*
X03457Y04073*
X03459Y04065*
X03464Y04057*
X03471Y04052*
X0348Y0405*
X03489Y04052*
X03494Y04055*
X03499Y04052*
X03507Y0405*
X03516Y04052*
X03524Y04057*
X03529Y04065*
X03531Y04073*
X03529Y04082*
X03524Y04089*
X03529Y04096*
X0353Y041*
X03535Y04102*
X03542Y04094*
X03548Y04091*
X03555Y04089*
X03651*
X03652Y04084*
X03649Y04082*
X03644Y04074*
X03642Y04065*
X03644Y04057*
X03649Y04049*
X03656Y04044*
X03665Y04042*
X03674Y04044*
X03681Y04049*
X03686Y04057*
X03688Y04065*
X03686Y04074*
X03681Y04082*
X03678Y04084*
X03679Y04089*
X03729*
X03803Y04015*
X03802Y0401*
X03798Y04009*
X0379Y04004*
X03785Y03997*
X03784Y03991*
X03762Y03969*
X03758Y03963*
X03757Y03956*
Y03889*
X03758Y03882*
X03762Y03877*
X03784Y03855*
Y03793*
X03779Y03793*
X03778Y03795*
X03777Y03801*
X03774Y03805*
X03777Y0381*
X03779Y03818*
X03777Y03827*
X03772Y03835*
X03764Y0384*
X03755Y03842*
X03747Y0384*
X03739Y03835*
X03734Y03827*
X03732Y03818*
X03734Y0381*
X03737Y03805*
X03734Y03801*
X03733Y03792*
X03734Y03783*
X03739Y03775*
X03747Y0377*
X03756Y03769*
X03765Y0377*
X03772Y03775*
X03777Y03783*
X03778Y03788*
X03779Y03791*
X03784Y0379*
Y03697*
X0376Y03673*
X03708*
X03701Y03672*
X03695Y03668*
X03642Y03614*
X03535*
X03531Y03619*
X03532Y03625*
X03531Y03633*
X03526Y0364*
Y03706*
X03525Y03713*
X03521Y03719*
X03436Y03805*
X0343Y03809*
X03423Y0381*
X03341*
X03334Y03809*
X03328Y03805*
X03315Y03791*
X03208*
X03164Y03835*
Y03885*
X03168Y0389*
X03169Y03899*
X03168Y03908*
X03164Y03913*
Y04072*
X03168Y04076*
X03173Y04074*
X03173Y04073*
X03178Y04066*
X03186Y04061*
X03194Y04059*
X03203Y04061*
X03211Y04066*
X03216Y04073*
X03218Y04082*
X03216Y04091*
X03211Y04099*
X03207Y04101*
X03205Y04108*
X03206Y04109*
X03208Y04118*
X03206Y04126*
X03201Y04134*
X03193Y04139*
X03188Y0414*
X03186Y04146*
X03196Y04155*
X03467*
X03471Y0415*
G37*
G36*
X04525Y03878D02*
Y03677D01*
X04527Y0367*
X0453Y03664*
X04613Y03582*
X04619Y03578*
X04626Y03576*
X04926*
X04932Y03573*
X0494Y03571*
X04949Y03573*
X04957Y03578*
X04961Y03584*
X04966Y03582*
Y03461*
X04931Y03426*
X04926Y03428*
X04927Y03434*
X04925Y03442*
X0492Y0345*
X04913Y03455*
X04904Y03457*
X04895Y03455*
X04888Y0345*
X04883Y03442*
X04881Y03434*
X04883Y03425*
X04884Y03424*
X04881Y03419*
X04841*
X04839Y03424*
X0484Y03425*
X04842Y03434*
X0484Y03442*
X04835Y0345*
X04827Y03455*
X04818Y03457*
X0481Y03455*
X04804Y03451*
X04801Y0345*
X04797Y03451*
X04792Y03455*
X04783Y03457*
X04774Y03455*
X04767Y0345*
X04762Y03442*
X0476Y03434*
X04762Y03425*
X04762Y03424*
X0476Y03419*
X04725*
X04723Y03424*
X04724Y03425*
X04725Y03434*
X04724Y03442*
X04719Y0345*
X04711Y03455*
X04702Y03457*
X04693Y03455*
X04686Y0345*
X04681Y03442*
X04679Y03434*
X04681Y03425*
X04682Y03424*
X04679Y03419*
X04588*
X04586Y03424*
X04587Y03425*
X04589Y03434*
X04587Y03442*
X04582Y0345*
X04574Y03455*
X04565Y03457*
X04557Y03455*
X04549Y0345*
X04544Y03442*
X04542Y03434*
X04544Y03425*
X04545Y03424*
X04543Y03419*
X04426*
X04419Y03418*
X04413Y03414*
X04389Y0339*
X04384Y03392*
X04383Y03395*
X04378Y03403*
X04371Y03408*
X04362Y03409*
X04353Y03408*
X04349Y03405*
X04345Y03408*
X04336Y03409*
X04327Y03408*
X0432Y03403*
X04315Y03395*
X04313Y03386*
X04315Y03378*
X0432Y0337*
X04321Y03369*
X0432Y03364*
X04196*
X04146Y03414*
X0414Y03418*
X04133Y03419*
X04121*
X04119Y03424*
X04258Y03563*
X04264Y03562*
X04267Y03558*
X04274Y03553*
X04283Y03551*
X04292Y03553*
X04299Y03558*
X04304Y03566*
X04306Y03574*
X04304Y03583*
X04299Y03591*
X04292Y03596*
X04283Y03597*
X0428Y03597*
X04276Y036*
Y03608*
X0428Y03613*
X04281Y03622*
X0428Y0363*
X04275Y03638*
X04267Y03643*
X04259Y03645*
X04259Y03645*
X04257Y03654*
X04252Y03662*
X04245Y03667*
X04236Y03668*
X04227Y03667*
X04219Y03662*
X04219Y0366*
X04214*
X04213Y03662*
X04205Y03667*
X04196Y03668*
X04188Y03667*
X0418Y03662*
X04179Y0366*
X04174*
X04173Y03662*
X04166Y03667*
X04157Y03668*
X04148Y03667*
X04141Y03662*
X0414Y0366*
X04135*
X04134Y03662*
X04126Y03667*
X04118Y03668*
X04109Y03667*
X04104Y03663*
X04088*
X04081Y03662*
X04075Y03658*
X04072Y03662*
X04118Y03708*
X04225*
X04231Y03704*
X0424Y03702*
X04249Y03704*
X04256Y03709*
X04261Y03716*
X04262Y03723*
X04263Y03723*
X04272Y03724*
X0428Y03729*
X04285Y03737*
X04286Y03746*
X04285Y03754*
X0428Y03762*
X04277Y03764*
Y03769*
X04279Y0377*
X04284Y03777*
X04285Y03786*
X04284Y03795*
X04279Y03802*
X04274Y03806*
Y03812*
X04279Y03815*
X04284Y03822*
X04285Y03831*
X04284Y0384*
X04279Y03848*
X04276Y0385*
Y03855*
X04277Y03855*
X04282Y03863*
X04283Y03872*
X04282Y0388*
X04277Y03888*
X04269Y03893*
X0426Y03895*
X04258Y03894*
X04252Y03896*
X04072*
X04065Y03894*
X0406Y0389*
X04024Y03855*
X04019Y03856*
X04017Y03859*
X04009Y03864*
X04003Y03866*
X0395Y03918*
X03952Y03923*
X04333*
X04335Y03918*
X0433Y03914*
X04325Y03907*
X04323Y03898*
X04325Y03889*
X0433Y03882*
X04337Y03877*
X04346Y03875*
X04355Y03877*
X04362Y03882*
X04367Y03889*
X04369Y03898*
X04367Y03907*
X04362Y03914*
X04357Y03918*
X04359Y03923*
X0448*
X04525Y03878*
G37*
G36*
X03128Y04081D02*
X03128Y04079D01*
Y03913*
X03125Y03908*
X03123Y03899*
X03125Y0389*
X03128Y03885*
Y03827*
X0313Y0382*
X03133Y03815*
X0318Y03768*
X03178Y03763*
X02948*
X02901Y03716*
Y03614*
X02905Y0361*
X02935*
X02986Y03559*
Y03505*
X02968Y03487*
X02928*
X0292Y03486*
X02914Y03482*
X02731Y03299*
X02727Y03292*
X02725Y03285*
Y03203*
X02724Y032*
X02722Y03192*
X02724Y03183*
X02729Y03175*
X02735Y03171*
X02737Y03165*
X02733Y03161*
X02699*
X02695Y03164*
X02687Y03165*
X02678Y03164*
X02676Y03162*
X02671Y03164*
Y0317*
X02669Y03179*
X02664Y03187*
X02656Y03193*
X02646Y03195*
X02637Y03193*
X02634Y03191*
X0263Y03194*
Y03295*
X02715Y0338*
X02784*
X02794Y03382*
X02802Y03387*
X02872Y03457*
X02877Y03465*
X02879Y03475*
Y03512*
X02893Y03526*
X0294*
X0295Y03528*
X02958Y03533*
X02964Y03541*
X02965Y03551*
X02964Y0356*
X02958Y03568*
X0295Y03574*
X0294Y03576*
X02882*
X02873Y03574*
X02865Y03568*
X02836Y0354*
X02831Y03532*
X02829Y03522*
Y03485*
X02774Y0343*
X02704*
X02695Y03428*
X02687Y03423*
X02619Y03355*
X02615Y03358*
X02616Y03363*
X02701Y03448*
X02705Y03453*
X02706Y0346*
Y03646*
X02747Y03687*
X02764*
X02769Y03683*
X02778Y03681*
X02787Y03683*
X02794Y03688*
X02799Y03695*
X02801Y03704*
X02799Y03713*
X02794Y03721*
X02787Y03726*
X02778Y03727*
X02769Y03726*
X02764Y03722*
X0274*
X02733Y0372*
X02727Y03717*
X02676Y03666*
X02673Y03661*
X02673*
X02668Y03661*
X02668Y03661*
X02665Y03665*
X02618Y03712*
X02621Y03717*
X02622Y03717*
X0263Y03718*
X02638Y03723*
X02643Y03731*
X02645Y0374*
X02643Y03749*
X02638Y03756*
X0263Y03761*
X02622Y03763*
X02613Y03761*
X02608Y03758*
X02603Y03761*
X02594Y03763*
X02589Y03762*
X02586Y03766*
X02692Y03872*
X02905*
X02912Y03873*
X02917Y03877*
X03124Y04083*
X03128Y04081*
G37*
G36*
X03978Y03841D02*
X03979Y03834D01*
X03984Y03827*
X03988Y03824*
X03989Y03819*
X03847Y03678*
X03842Y0368*
Y03907*
X03841Y03914*
X03837Y03919*
X03836Y03926*
X03831Y03933*
X03823Y03938*
X03815Y0394*
X03806Y03938*
X03798Y03933*
X03798Y03933*
X03793Y03934*
Y03949*
X0381Y03965*
X03815Y03966*
X03823Y03971*
X03828Y03979*
X03829Y03983*
X03834Y03985*
X03978Y03841*
G37*
G36*
X03779Y0361D02*
X035Y0333D01*
X03496Y03324*
X03494Y03317*
Y03082*
X03473Y03061*
X03467Y03061*
X03464Y03066*
X03456Y03071*
X03447Y03073*
X03439Y03071*
X03431Y03066*
X03426Y03059*
X03426Y03058*
X03421*
X03417Y03064*
X03391Y03089*
X03386Y03093*
Y03114*
X03446Y03174*
X0345Y03175*
X03458Y0318*
X03463Y03188*
X03464Y03192*
X03483Y03211*
X03487Y03217*
X03488Y03224*
Y03306*
X03487Y03313*
X03483Y03318*
X03439Y03362*
Y03371*
X03443Y03372*
X03451Y03377*
X03456Y03384*
X03458Y03393*
X03456Y03402*
X03451Y0341*
X03443Y03415*
X03435Y03416*
X03426Y03415*
X03418Y0341*
X03417Y03408*
X03414Y03409*
X03412Y0341*
X03411Y03418*
X03407Y03423*
X03411Y03428*
X03412Y03437*
X03411Y03445*
X03406Y03453*
X03398Y03458*
X03389Y0346*
X0338Y03458*
X03376Y03455*
X03371Y03458*
X03362Y0346*
X03353Y03458*
X03348Y03455*
X03343Y03458*
X03334Y0346*
X03325Y03458*
X03318Y03453*
X03313Y03445*
X03311Y03437*
X03313Y03428*
X03316Y03423*
X03313Y03418*
X03311Y03409*
X03313Y034*
X03316Y03395*
X03313Y0339*
X03311Y03381*
X03313Y03373*
X03318Y03365*
X03325Y0336*
X03334Y03358*
X03343Y0336*
X03348Y03363*
X03353Y0336*
X03362Y03358*
X03371Y0336*
X03376Y03363*
X0338Y0336*
X03389Y03358*
X03398Y0336*
X03399Y0336*
X03403Y03358*
Y03355*
X03404Y03348*
X03408Y03342*
X03452Y03298*
Y03281*
X03447Y03277*
X0344Y03279*
X03432Y03277*
X03424Y03272*
X03419Y03264*
X03417Y03255*
X03419Y03247*
X03424Y03239*
X03432Y03234*
X0344Y03232*
X03447Y03234*
X03447Y03234*
X0345Y03229*
X0344Y03219*
X03433Y03218*
X03425Y03213*
X0342Y03205*
X03419Y03198*
X03355Y03134*
X03351Y03129*
X0335Y03122*
Y03092*
X03346Y03087*
X03345Y03078*
X03346Y03069*
X03351Y03062*
X03359Y03057*
X03368Y03055*
X03373Y03056*
X03386Y03043*
Y03032*
X03309Y02955*
X03304Y02955*
X03303Y02957*
X03295Y02962*
X03286Y02964*
X03278Y02962*
X0327Y02957*
X03268Y02954*
X03262*
X03259Y02958*
X03251Y02963*
X03243Y02965*
X03234Y02963*
X03229Y0296*
X0321*
X03204Y02958*
X03198Y02955*
X0318Y02937*
X03177Y02931*
X03175Y02925*
Y02815*
X03177Y02808*
X03178Y02806*
X03178Y02806*
X0318Y02797*
X03185Y02789*
X03192Y02784*
X03201Y02783*
X03207Y02784*
X03207Y02783*
X03211Y02778*
X03213Y02776*
Y02749*
X03209Y02743*
X03207Y02734*
X03209Y02725*
X03214Y02717*
X03221Y02712*
X0323Y02711*
X03239Y02712*
X03246Y02717*
X03251Y02725*
X03253Y02734*
X03251Y02743*
X03247Y02749*
Y0278*
X03253Y02781*
X03261Y02786*
X03264Y02791*
X03269Y0279*
Y02725*
X0327Y02718*
X03274Y02713*
X0328Y02707*
X03281Y02699*
X03286Y02692*
X03294Y02687*
X03303Y02685*
X03312Y02687*
X03319Y02692*
X03324Y02699*
X03329Y02701*
X03333Y02699*
X03342Y02697*
X03351Y02699*
X03358Y02704*
X03363Y02711*
X03364Y02713*
X03368Y02713*
X03376Y02714*
X03384Y02719*
X03385Y02721*
X0339*
X03391Y02719*
X03398Y02714*
X03407Y02713*
X03416Y02714*
X03423Y02719*
X03425Y02721*
X0343*
X03431Y02719*
X03439Y02714*
X03447Y02713*
X03456Y02714*
X03464Y02719*
X03468*
X03476Y02714*
X03485Y02713*
X03494Y02714*
X03501Y02719*
X03502Y02721*
X03507*
X03509Y02719*
X03516Y02714*
X03525Y02713*
X03534Y02714*
X03541Y02719*
X03542Y02721*
X03547*
X03548Y02719*
X03556Y02714*
X03565Y02713*
X03573Y02714*
X03581Y02719*
X03582Y02721*
X03587*
X03588Y02719*
X03595Y02714*
X03604Y02713*
X03613Y02714*
X0362Y02719*
X03621Y02721*
X03626*
X03627Y02719*
X03634Y02714*
X03643Y02713*
X03652Y02714*
X0366Y02719*
X0366Y02721*
X03665*
X03666Y02719*
X03674Y02714*
X03683Y02713*
X03691Y02714*
X03699Y02719*
X037Y02721*
X03705*
X03706Y02719*
X03711Y02716*
X03709Y02712*
X03707Y02703*
X03709Y02694*
X03708Y02693*
X03706Y0269*
X03699Y02685*
X03694Y02678*
X03692Y02669*
X03694Y0266*
X03699Y02653*
X03706Y02648*
X03715Y02646*
X03724Y02648*
X03731Y02653*
X03736Y0266*
X03738Y02669*
X03736Y02677*
X03738Y02681*
X03743Y02682*
X03743Y02682*
X03751Y02677*
X03759Y02675*
X03768Y02677*
X03776Y02682*
X03781Y0269*
X03782Y02695*
X0382Y02733*
X03997*
X04004Y02735*
X0401Y02739*
X04059Y02788*
X04065Y02787*
X04065Y02786*
X04064Y0278*
X04063Y0278*
X04059Y02774*
X04058Y02767*
Y02727*
X04059Y0272*
X04063Y02714*
X04096Y02681*
Y02584*
X04092Y02582*
X04059Y02614*
X04054Y02618*
X04047Y02619*
X03215*
X03147Y02688*
Y02796*
X03151Y02802*
X03153Y02811*
X03151Y02819*
X03146Y02827*
X03138Y02832*
X03129Y02834*
X03121Y02832*
X03115Y02828*
X03112Y02827*
X03108Y02828*
X03103Y02832*
X03094Y02834*
X03085Y02832*
X03078Y02827*
X03073Y02819*
X03071Y02811*
X03073Y02802*
X03076Y02796*
Y02745*
X03071Y02743*
X03067Y02745*
X03059Y02747*
X0305Y02745*
X03049Y02745*
X03045Y02747*
Y02957*
X03099Y03011*
X031Y0301*
X03109Y03008*
X03118Y0301*
X03125Y03015*
X0313Y03022*
X03132Y03031*
X0313Y0304*
X03125Y03047*
X03122Y0305*
X03123Y03052*
X03125Y03061*
X03123Y03069*
X03118Y03077*
X03111Y03082*
X03102Y03084*
X03093Y03082*
X03086Y03077*
X03081Y03069*
X03079Y03063*
X03004Y02988*
X02999Y02989*
Y03015*
X03133Y03148*
X03139Y03147*
X03143Y03141*
X0315Y03136*
X03159Y03134*
X03168Y03136*
X03175Y03141*
X0318Y03148*
X03182Y03157*
X0318Y03166*
X03175Y03173*
X03169Y03177*
X03168Y03183*
X03216Y03231*
X03219Y03236*
X03221Y03243*
Y03379*
X0333Y03488*
X03412*
X03467Y03434*
X03472Y03431*
X03478Y03429*
X03505*
X03505Y03426*
X0351Y03418*
X03518Y03413*
X03527Y03412*
X03535Y03413*
X03543Y03418*
X03548Y03426*
X0355Y03435*
X03548Y03444*
X03544Y03449*
X03548Y03455*
X0355Y03464*
X03548Y03473*
X03543Y0348*
X03536Y03485*
X03527Y03487*
X03518Y03485*
X03511Y0348*
X03506Y03473*
X03505Y0347*
X03488*
X03434Y03525*
X03429Y03528*
X03423Y0353*
X03319*
X03313Y03528*
X03308Y03525*
X03184Y03401*
X03181Y03396*
X03179Y0339*
Y03253*
X02963Y03037*
X0296Y03031*
X02958Y03025*
Y02554*
X02847Y02443*
X02844Y02445*
X02836Y02447*
X02827Y02445*
X02819Y0244*
X02814Y02433*
X02813Y02424*
X02814Y02415*
X02819Y02408*
X02827Y02403*
X02832Y02402*
X02832Y024*
X02834Y02392*
X02839Y02384*
X02847Y02379*
X02855Y02377*
X02864Y02379*
X02872Y02384*
X02877Y02392*
X02878Y024*
X02877Y02409*
X02875Y02412*
X02989Y02527*
X02994Y02525*
Y02507*
X02888Y02401*
X02884Y02395*
X02883Y02388*
Y02237*
X02879Y02234*
X02876Y02234*
X02874Y02234*
X0287Y02237*
Y02318*
X02874Y02323*
X02876Y02332*
X02874Y02341*
X02869Y02349*
X02862Y02354*
X02853Y02355*
X02849Y02355*
X02844Y02357*
X02844Y02358*
X02843Y02364*
X02839Y02369*
X02801Y02407*
Y02429*
X02933Y02562*
X02937Y02568*
X02938Y02574*
Y03042*
X03138Y03242*
X03142Y03248*
X03143Y03254*
Y03381*
X03316Y03554*
X03663*
X0367Y03555*
X03675Y03559*
X03731Y03615*
X03777*
X03779Y0361*
G37*
G36*
X02585Y03691D02*
X02593Y03689D01*
X02636Y03646*
Y03526*
X02634Y03524*
X02629Y03523*
X02621Y03518*
X02616Y0351*
X02614Y03502*
X02616Y03493*
X02621Y03485*
X02629Y0348*
X02637Y03478*
X02646Y0348*
X02654Y03485*
X02659Y03493*
X0266Y03502*
X0266Y03502*
X02665Y03507*
X02666Y03508*
X02671Y03506*
Y03467*
X02591Y03387*
X02584Y03386*
X02578Y03382*
X02573Y03384*
Y03694*
X02578Y03695*
X02585Y03691*
G37*
G36*
X05108Y0426D02*
Y03335D01*
X05031Y03257*
X05027Y0326*
X05029Y03269*
X05027Y03278*
X05022Y03286*
X05014Y03291*
X05005Y03292*
X04997Y03291*
X04989Y03286*
X04988*
X04981Y03291*
X04972Y03292*
X04963Y03291*
X04956Y03286*
X04949Y03291*
X0494Y03292*
X04932Y03291*
X04924Y03286*
X04919Y03278*
X04917Y03269*
X04919Y0326*
X04924Y03253*
X04932Y03248*
X0494Y03246*
X04949Y03248*
X04956Y03253*
X04963Y03248*
X04972Y03246*
X04981Y03248*
X04988Y03253*
X04989*
X04997Y03248*
X05005Y03246*
X05014Y03248*
X05017Y03244*
X0483Y03056*
X04759*
X04753Y0306*
X04745Y03062*
X04736Y0306*
X04728Y03055*
X04723Y03048*
X04722Y03039*
X04723Y0303*
X04728Y03023*
X04736Y03018*
X04745Y03016*
X04753Y03018*
X04759Y03021*
X04837*
X04844Y03023*
X0485Y03027*
X0513Y03307*
X05135Y03305*
Y02274*
X05135Y02273*
Y02273*
X05136Y02267*
X05136Y02266*
X05136Y02264*
X05141Y02253*
X05141Y02251*
X05142Y0225*
X05149Y0224*
X0515Y02239*
X05151Y02238*
X05161Y0223*
X05162Y0223*
X05163Y02229*
X05169Y02227*
X05169Y02226*
X0517Y02226*
X05171Y02226*
X05178Y02224*
X0519Y02218*
X05201Y0221*
X05211Y022*
X0522Y02189*
X05226Y02177*
X05231Y02164*
X05233Y0215*
X05234Y02136*
X05232Y02123*
X05228Y0211*
X05222Y02097*
X05214Y02086*
X05205Y02076*
X05194Y02067*
X05181Y02061*
X05175Y02058*
X05175Y02058*
X05171Y02057*
X05171Y02057*
X0517Y02057*
X05164Y02054*
X05163Y02054*
X05163Y02053*
X05157Y0205*
X05156Y02049*
X05156Y02049*
X0515Y02044*
X0515Y02043*
X05149Y02043*
X05145Y02038*
X05145Y02037*
X05144Y02036*
X05141Y0203*
X0514Y02029*
X05138Y02029*
X05134Y02028*
X05088Y02075*
Y02089*
X05093Y0209*
X05093Y0209*
X05105Y0208*
X05117Y02074*
X05131Y0207*
X05145Y02068*
X05159Y0207*
X05173Y02074*
X05186Y0208*
X05197Y0209*
X05206Y02101*
X05213Y02113*
X05217Y02127*
X05218Y02141*
X05217Y02156*
X05213Y02169*
X05206Y02182*
X05197Y02193*
X05186Y02202*
X05173Y02209*
X05159Y02213*
X05145Y02214*
X05131Y02213*
X05117Y02209*
X05109Y02204*
X05104Y02207*
Y0274*
X05102Y02746*
X05099Y02752*
X04886Y02965*
X0488Y02969*
X04874Y0297*
X04584*
X04582Y02974*
X04583Y02976*
X04585Y02985*
X04583Y02994*
X04578Y03001*
X0457Y03006*
X04564Y03007*
X04479Y03092*
Y03315*
X04482Y0332*
X04484Y03329*
X04484Y03332*
X04487Y03336*
X04879*
X04882Y03331*
X0488Y03327*
X04878Y03318*
X0488Y0331*
X04885Y03302*
X04892Y03297*
X04901Y03295*
X0491Y03297*
X04914Y033*
X04918Y03297*
X04927Y03295*
X04936Y03297*
X04943Y03302*
X04948Y0331*
X0495Y03318*
X04948Y03327*
X04946Y03331*
X04948Y03336*
X04955*
X04962Y03337*
X04968Y03341*
X05044Y03417*
X05048Y03423*
X05049Y0343*
Y04259*
X05048Y04266*
X05044Y04272*
X04981Y04335*
X04975Y04339*
X04968Y0434*
X04923*
X04922Y04345*
X04928Y04348*
X04934Y04353*
X04939Y04359*
X04942Y04366*
X04943Y04374*
X04942Y04381*
X04939Y04388*
X04934Y04395*
X04928Y04399*
X04926Y044*
X04927Y04405*
X04963*
X05108Y0426*
G37*
G36*
X04442Y03317D02*
X04444Y03315D01*
Y03094*
X04439Y03092*
X04434Y03095*
X04428Y03096*
X04151*
X04144Y03095*
X04142Y03093*
X04141Y03093*
X04132Y03092*
X04125Y03087*
X0412Y03079*
X04118Y0307*
X0412Y03062*
X04125Y03054*
X04132Y03049*
X04141Y03047*
X0415Y03049*
X04158Y03054*
X04162Y03061*
X0442*
X04438Y03043*
X04436Y03038*
X04432Y03037*
X04424Y03032*
X04419Y03024*
X04417Y03015*
X04419Y03006*
X04424Y02999*
X04432Y02994*
X0444Y02992*
X04449Y02994*
X04457Y02999*
X04462Y03006*
X04463Y03011*
X04468Y03013*
X04541Y0294*
Y0294*
X0454Y02935*
X04494*
X04489Y02938*
X0448Y0294*
X04471Y02938*
X04464Y02933*
X04459Y02926*
X04457Y02917*
X04459Y02908*
X04464Y02901*
X04471Y02896*
X0448Y02894*
X04489Y02896*
X04496Y02901*
X04496Y02901*
X04648*
X0469Y02859*
Y02738*
X04685Y02736*
X04681Y02742*
X04674Y02747*
X04665Y02749*
X04656Y02747*
X04649Y02742*
X04644Y02735*
X04642Y02726*
X04644Y02717*
X04646Y02713*
X04643Y02707*
X04641Y02698*
X04643Y0269*
X04648Y02682*
X04655Y02677*
X04664Y02675*
X04673Y02677*
X0468Y02682*
X04685Y0269*
X0469Y02689*
Y02652*
X04691Y02646*
X04695Y0264*
X04722Y02614*
X0472Y02609*
X04718Y02608*
X04711Y02603*
X04706Y02596*
X04704Y02587*
X04706Y02578*
X04709Y02573*
X04707Y02572*
X04702Y02564*
X047Y02556*
X04702Y02547*
X04707Y02539*
X04714Y02534*
X04723Y02533*
X04732Y02534*
X04739Y02539*
X04741Y02539*
X04744Y02537*
X04746Y0253*
X04751Y02523*
X04758Y02518*
X04767Y02516*
X04776Y02518*
X04783Y02523*
X04788Y0253*
X0479Y02538*
X04794Y02541*
X04859Y02476*
Y02141*
X04861Y02135*
X04864Y02129*
X04929Y02064*
Y02031*
X04927Y02029*
X04925Y02028*
X04918Y02033*
X04909Y02034*
X04908Y02034*
X04904Y02038*
X04905Y02039*
X04903Y02048*
X04898Y02055*
X0489Y0206*
X04881Y02062*
X04873Y0206*
X04868Y02057*
X04863Y0206*
X04854Y02062*
X04845Y0206*
X0484Y02057*
X04835Y0206*
X04826Y02062*
X04817Y0206*
X0481Y02055*
X04805Y02048*
X04803Y02039*
X04805Y0203*
X04808Y02025*
X04805Y0202*
X04803Y02011*
X04805Y02003*
X0481Y01995*
X04817Y0199*
X04817Y01985*
X04792*
X04727Y0205*
X04725Y02052*
X04726Y02056*
X04724Y02064*
X0472Y0207*
X04724Y02074*
X04725Y02073*
X04734Y02071*
X04743Y02073*
X0475Y02078*
X04752Y02081*
X04754Y0208*
X04763Y02078*
X04772Y0208*
X0478Y02085*
X04785Y02092*
X04786Y02097*
X0479Y021*
X04791Y021*
X04799Y02099*
X04808Y021*
X04813Y02104*
X04817Y021*
X04826Y02099*
X04835Y021*
X04843Y02105*
X04848Y02113*
X04849Y02122*
X04848Y0213*
X04843Y02138*
X04835Y02143*
X04826Y02145*
X04817Y02143*
X04813Y0214*
X04808Y02143*
X04799Y02145*
X0479Y02143*
X04786Y0214*
X04781Y02143*
Y02297*
X0478Y02304*
X04776Y02309*
X0472Y02365*
Y02507*
X04719Y02514*
X04715Y0252*
X04625Y02609*
X04619Y02613*
X04613Y02615*
X04592*
X04535Y02672*
Y02805*
X04539Y02808*
X04544Y02807*
X04547Y02807*
X04551Y02803*
X04551Y02803*
X04553Y02794*
X04558Y02786*
X04566Y02781*
X04574Y0278*
X04583Y02781*
X04591Y02786*
X04596Y02794*
X04597Y02803*
X04596Y02812*
X04591Y02819*
X04583Y02824*
X04574Y02826*
X04571Y02825*
X04567Y02829*
X04567Y0283*
X04565Y02839*
X0456Y02846*
X04554Y0285*
X04555Y02852*
X04557Y02861*
X04555Y0287*
X0455Y02877*
X04543Y02882*
X04534Y02884*
X04525Y02882*
X04518Y02877*
X04513Y0287*
X04512Y02865*
X04511Y02865*
X04507Y02863*
X04501Y02867*
X04492Y02869*
X04483Y02867*
X04475Y02862*
X0447Y02855*
X04469Y02846*
X0447Y02837*
X04474Y02832*
Y02661*
X04475Y02654*
X04479Y02649*
X04562Y02566*
X04568Y02562*
X04574Y02561*
X04595*
X04663Y02492*
Y02474*
X04659Y02471*
X04658Y02471*
X04649Y02469*
X04641Y02464*
X04636Y02457*
X04635Y02448*
X04636Y02439*
X04641Y02432*
X04649Y02427*
X04658Y02425*
X04659Y02425*
X04663Y02422*
Y02365*
X04659Y02363*
X04658Y02363*
X04649Y02365*
X0464Y02363*
X04634Y02359*
X04629Y02361*
Y02378*
X04628Y02384*
X04624Y02389*
X04422Y02591*
Y02792*
X04421Y02798*
X04418Y02804*
X04301Y02921*
Y02935*
X04303Y02935*
X0431Y0294*
X04315Y02947*
X04317Y02956*
X04315Y02965*
X0431Y02973*
X04303Y02978*
X04294Y02979*
X04285Y02978*
X0428Y02974*
X04275Y02978*
X04266Y02979*
X04257Y02978*
X0425Y02973*
X04245Y02965*
X04243Y02956*
X04244Y02952*
X04237Y02951*
X04232Y02948*
X04227Y02951*
X04222Y02952*
X04222Y02956*
X04221Y02965*
X04216Y02973*
X04208Y02978*
X04199Y02979*
X04191Y02978*
X04185Y02974*
X04181Y02977*
X04172Y02979*
X04164Y02977*
X04159Y02974*
X04154Y02974*
X04146Y02979*
X04137Y0298*
X04129Y02979*
X04121Y02974*
X04116Y02966*
X04114Y02957*
X04116Y02948*
X04121Y02942*
X04118Y02939*
X04114Y02933*
X04113Y02927*
Y02833*
X04114Y02826*
X04118Y02821*
X04155Y02784*
Y02761*
X0415Y02758*
X04146Y02761*
X04137Y02763*
X04129Y02761*
X04121Y02756*
X04114Y02761*
X04109Y02762*
X04106Y02768*
X04107Y02769*
X04109Y02778*
X04107Y02787*
X04102Y02794*
X04095Y02799*
X04086Y02801*
X04077Y02799*
X04077Y02799*
X04073Y02802*
X04075Y02806*
X04077Y02813*
Y03308*
X04081Y0331*
X04105Y03286*
X04111Y03282*
X04118Y03281*
X04393*
X044Y03282*
X04406Y03286*
X04437Y03317*
X04442Y03317*
G37*
G36*
X02964Y03393D02*
X02771Y032D01*
X02766Y03201*
X02764Y03204*
Y03277*
X02936Y03449*
X02964*
Y03393*
G37*
G36*
X04025Y03371D02*
Y02998D01*
X0402Y02994*
X04015Y02995*
X04006Y02993*
X03999Y02988*
X03994Y02981*
X03992Y02972*
X03994Y02963*
X03999Y02956*
X04006Y02951*
X04015Y02949*
X0402Y0295*
X04025Y02946*
Y02856*
X0402Y02854*
X04018Y02856*
X04009Y02857*
X04001Y02856*
X03996Y02852*
X03991Y02856*
X03982Y02857*
X03973Y02856*
X03966Y02851*
X03961Y02843*
X03959Y02834*
X0396Y02829*
X03953Y02828*
X03948Y02825*
X03943Y02828*
X03935Y0283*
X0393Y02829*
X03928Y02833*
X03931Y02835*
X03936Y02843*
X03937Y02852*
X03936Y02861*
X03931Y02868*
X03923Y02873*
X03914Y02875*
X03905Y02873*
X039Y0287*
X03895Y02873*
X03888Y02875*
X03885Y02879*
X0394Y02934*
X03946Y02933*
X0395Y02927*
X03957Y02922*
X03966Y0292*
X03975Y02922*
X03982Y02927*
X03987Y02934*
X03989Y02943*
X03987Y02952*
X03982Y02959*
X03975Y02964*
X03966Y02966*
X03962Y02969*
Y03315*
X0402Y03373*
X04025Y03371*
G37*
G36*
X04009Y03508D02*
X04012Y03504D01*
X04018Y035*
X0402Y03494*
X03884Y03359*
X0388Y03353*
X03879Y03346*
Y02995*
X03847Y02963*
X03842Y02965*
X03842Y02967*
X03837Y02975*
X03829Y0298*
X0382Y02981*
X03812Y0298*
X03807Y02976*
X03802Y0298*
X03793Y02981*
X03784Y0298*
X03777Y02975*
X03772Y02967*
X0377Y02961*
X03764Y0296*
X03759Y02957*
X03754Y0296*
X03748Y02961*
X03747Y02967*
X03742Y02975*
X03735Y0298*
X03726Y02981*
X03717Y0298*
X03712Y02976*
X03707Y0298*
X03698Y02981*
X0369Y0298*
X03682Y02975*
X03677Y02967*
X03675Y02958*
X03676Y02953*
X03669Y02952*
X03664Y02949*
X03659Y02952*
X0365Y02954*
X03641Y02952*
X03634Y02947*
X03629Y02939*
X03627Y02931*
X03629Y02922*
X03634Y02914*
X03641Y02909*
X0365Y02908*
X03659Y02909*
X03664Y02913*
X03669Y02909*
X03678Y02908*
X03687Y02909*
X03694Y02914*
X03699Y02922*
X03701Y02931*
X037Y02935*
X03707Y02937*
X03712Y0294*
X03717Y02937*
X03723Y02936*
X03724Y0293*
X03729Y02922*
X03737Y02917*
X03745Y02916*
X03748Y02911*
X0367Y02834*
X03616Y02888*
Y02937*
X03677Y02998*
X03681Y03003*
X03682Y0301*
Y03188*
X04003Y03509*
X04009Y03508*
G37*
G36*
X05069Y02732D02*
Y0222D01*
X05064Y02219*
X05063Y0222*
X05059Y02224*
X05057Y02231*
X05052Y02238*
X05045Y02243*
X05036Y02245*
X05027Y02243*
X0502Y02238*
X05015Y02231*
X05013Y02223*
X05007Y02224*
X04999Y02223*
X04991Y02218*
X04986Y0221*
X04984Y02201*
X04986Y02192*
X04991Y02185*
X04999Y0218*
X05005Y02179*
X05013Y0217*
Y0207*
X05009Y02068*
X04947Y0213*
X0495Y02134*
X04956Y02133*
X04965Y02135*
X0497Y02138*
X04976Y02134*
X04985Y02132*
X04994Y02134*
X05002Y02139*
X05007Y02146*
X05008Y02155*
X05007Y02164*
X05002Y02172*
X04994Y02177*
X04985Y02178*
X04976Y02177*
X04971Y02173*
X04965Y02177*
X04956Y02179*
X04947Y02177*
X0494Y02172*
X04935Y02165*
X04933Y02156*
X04934Y0215*
X0493Y02147*
X04917Y0216*
Y02396*
X04923Y02402*
X0493Y02403*
X04937Y02408*
X04942Y02416*
X04944Y02425*
X04942Y02434*
X0494Y02436*
X04942Y02443*
X04943Y02443*
X04943Y02443*
X04952Y02441*
X04961Y02443*
X04969Y02448*
X04974Y02455*
X04975Y02464*
X04974Y02473*
X0497Y02478*
X04974Y02483*
X04975Y02492*
X04974Y02501*
X04969Y02508*
X04961Y02513*
X04952Y02515*
X04943Y02513*
X04939Y0251*
X04934Y02513*
X04925Y02515*
X04916Y02513*
X04908Y02508*
X04903Y02501*
X04902Y02492*
X04903Y02483*
X04907Y02478*
X04903Y02473*
X04902Y02464*
X04903Y02455*
X04908Y02449*
X04907Y02443*
X04904Y02441*
X04899Y02434*
X04899Y02429*
X04894Y0243*
Y02483*
X04892Y02489*
X04889Y02495*
X04818Y02566*
X04819Y0257*
X0482Y02571*
X04827Y02576*
X04831Y02581*
X04834Y0258*
X04843Y02578*
X04851Y0258*
X04859Y02585*
X04864Y02592*
X04866Y02601*
X04864Y0261*
X04859Y02617*
X04851Y02622*
X04843Y02624*
X04834Y02622*
X04826Y02617*
X04822Y02612*
X0482Y02613*
X04811Y02615*
X04802Y02613*
X04795Y02608*
X0479Y02601*
X0479Y026*
X04785Y02599*
X04724Y02659*
Y02866*
X04723Y02872*
X04719Y02878*
X04667Y0293*
Y0293*
X04669Y02935*
X04816*
X04819Y0293*
X04817Y02926*
X04815Y02918*
X04817Y02909*
X04821Y02902*
X04817Y02896*
X04815Y02887*
X04817Y02879*
X04822Y02871*
X04829Y02866*
X04838Y02864*
X04847Y02866*
X04854Y02871*
X04859Y02879*
X04861Y02887*
X04859Y02896*
X04855Y02902*
X04859Y02909*
X04861Y02918*
X04859Y02926*
X04857Y0293*
X0486Y02935*
X04866*
X05069Y02732*
G37*
G36*
X03905Y0283D02*
X03914Y02829D01*
X03919Y0283*
X03921Y02825*
X03918Y02823*
X03913Y02815*
X03912Y02807*
X03913Y02798*
X03918Y0279*
X03919Y0279*
X03917Y02785*
X03794*
X03787Y02784*
X03781Y0278*
X03748Y02747*
X03742Y02747*
X03741Y02747*
X03739Y02751*
Y02776*
X03742Y02779*
X03751Y0278*
X03758Y02785*
X03763Y02793*
X03764Y02799*
X03771Y02805*
X03804*
X03811Y02807*
X03816Y02811*
X03818Y02812*
X03823Y02812*
X03824Y02811*
X03831Y02806*
X0384Y02804*
X03849Y02806*
X03854Y02809*
X03859Y02806*
X03868Y02804*
X03877Y02806*
X03884Y02811*
X03889Y02819*
X03891Y02827*
X0389Y02829*
X03895Y0283*
X039Y02834*
X03905Y0283*
G37*
G36*
X03076Y02703D02*
Y02681D01*
X03078Y02674*
X03082Y02668*
X03184Y02566*
X0319Y02562*
X03196Y02561*
X03866*
X03866Y02556*
X03864Y02555*
X03859Y02552*
X03857Y0255*
X03854Y02545*
X03853Y0254*
Y02497*
X03854Y02491*
X03857Y02487*
X03861Y02483*
X03865Y0248*
X0387Y02479*
X0387Y02474*
X03054*
X03053*
X03046*
X03044Y02473*
X03043*
X0304Y02473*
X03037Y02477*
X0304Y02479*
X03043Y02485*
X03045Y02492*
Y02701*
X03049Y02703*
X0305Y02703*
X03059Y02701*
X03067Y02703*
X03071Y02705*
X03076Y02703*
G37*
G36*
X02596Y0266D02*
X02594Y02655D01*
X02555*
X02549Y02654*
X02545Y02651*
X02541Y02647*
X02538Y02643*
X02537Y02637*
Y02615*
X02523Y02601*
X02519Y02596*
X02516Y02589*
X02515Y02582*
Y02496*
X02472*
X02465Y02495*
X02458Y02492*
X02452Y02488*
X02407Y02442*
X02405Y02439*
X024Y02441*
Y02492*
X02405Y02493*
X02408Y02487*
X02416Y02482*
X02425Y0248*
X02434Y02482*
X02441Y02487*
X02446Y02495*
X02447Y02501*
X02465Y02519*
X02469Y02524*
X0247Y02531*
Y02677*
X02492Y027*
X02498Y02698*
X02502Y02692*
X02509Y02687*
X02518Y02685*
X02527Y02687*
X02535Y02692*
X0254Y02699*
X02541Y02707*
X02546Y0271*
X02596Y0266*
G37*
G36*
X0261Y02636D02*
Y02586D01*
X02606Y02582*
X02551*
Y02637*
X02555Y02641*
X02605*
X0261Y02636*
G37*
G36*
X04261Y02904D02*
X04264Y02899D01*
X04381Y02782*
Y02581*
X04382Y02574*
X04386Y02569*
X04588Y02367*
Y02138*
X04589Y02131*
X04593Y02126*
X04679Y02039*
X04678Y02034*
X04672Y02033*
X04667Y02029*
X04662Y02033*
X04653Y02034*
X04644Y02033*
X04639Y02029*
X04634Y02033*
X04626Y02034*
X04617Y02033*
X04612Y0203*
X04608Y02033*
X04599Y02034*
X0459Y02033*
X0459Y02032*
X04585Y02035*
X04586Y02038*
X04584Y02047*
X04579Y02054*
X04571Y02059*
X04563Y02061*
X04554Y02059*
X04549Y02056*
X04544Y02059*
X04535Y02061*
X04526Y02059*
X04521Y02056*
X04516Y02058*
Y02064*
X04519Y02066*
X04524Y02073*
X04526Y02081*
X04524Y0209*
X04519Y02096*
X04516Y02099*
Y02221*
Y02301*
X04514Y02307*
X04511Y02312*
X04307Y02516*
Y02529*
X04311Y02532*
X04312Y02531*
X04321Y02529*
X04327Y0253*
X04329Y02522*
X04334Y02515*
X04341Y0251*
X0435Y02508*
X04359Y0251*
X04366Y02515*
X04371Y02522*
X04373Y02531*
X04371Y0254*
X04366Y02547*
X04359Y02552*
X0435Y02554*
X04344Y02553*
X04343Y02561*
X04338Y02569*
X0433Y02574*
X04321Y02575*
X04312Y02574*
X04311Y02573*
X04307Y02575*
Y02799*
X04306Y02805*
X04302Y0281*
X04252Y0286*
Y02904*
X04256Y02906*
X04261Y02904*
G37*
G36*
X02742Y026D02*
Y02514D01*
X02738Y02508*
X02736Y025*
X02738Y02491*
X02742Y02485*
Y02208*
X02649Y02115*
X02646Y02116*
X02644Y02117*
X0264Y02124*
X02632Y02129*
X02623Y02131*
X02614Y02129*
X02607Y02124*
X02602Y02117*
X02601Y0211*
X02597Y02107*
X02594Y02101*
X02592Y02094*
Y01969*
X02587Y01965*
X02582Y01966*
X02573Y01964*
X02569Y01961*
X02564Y01964*
Y02055*
X02563Y02061*
X02559Y02067*
X02529Y02097*
Y02118*
X02543Y02133*
X02549Y02131*
X0255Y02125*
X02555Y02117*
X02563Y02112*
X02571Y0211*
X0258Y02112*
X02588Y02117*
X02593Y02125*
X02594Y02133*
X02593Y02142*
X02588Y0215*
X0258Y02155*
X02574Y02156*
X02572Y02161*
X02579Y02168*
X02583Y02174*
X02584Y02181*
Y02303*
X02622Y02341*
X02626Y02347*
X02627Y02351*
X02627Y02351*
X02632Y02359*
X02634Y02368*
X02632Y02376*
X02627Y02384*
X0262Y02389*
X02611Y02391*
X02602Y02389*
X02599Y02387*
X02594Y02384*
X02587Y02389*
X02578Y02391*
X02569Y02389*
X02563Y02386*
X02551*
X02549Y0239*
X0265Y02491*
X02654Y02497*
X02655Y02503*
Y02623*
X0266Y02625*
X02691Y02594*
Y02534*
X02687Y02528*
X02685Y02519*
X02687Y0251*
X02692Y02503*
X02699Y02498*
X02708Y02496*
X02717Y02498*
X02725Y02503*
X0273Y0251*
X02731Y02519*
X0273Y02528*
X02726Y02534*
Y02601*
X02724Y02608*
X02721Y02613*
X02544Y0279*
Y0279*
X0255Y02792*
X02742Y026*
G37*
G36*
X03918Y0254D02*
Y02497D01*
X03914Y02493*
X03871*
X03867Y02497*
Y0254*
X03869Y02542*
X03915*
X03918Y0254*
G37*
G36*
X02618Y02571D02*
X0262Y02569D01*
Y02511*
X0246Y0235*
X02455Y02353*
Y02411*
X02484Y0244*
X02527*
X02534Y02441*
X02541Y02444*
X02546Y02448*
X02563Y02465*
X02567Y0247*
X0257Y02477*
X02571Y02484*
Y02568*
X02606*
X02611Y02569*
X02615Y02572*
X02618Y02571*
G37*
G36*
X04719Y0228D02*
Y02201D01*
X04715Y02198*
X04711Y02199*
X04702Y02197*
X04697Y02193*
X04691Y02197*
X04683Y02199*
X04674Y02197*
X04666Y02192*
X04661Y02185*
X0466Y02176*
X04661Y02167*
X04666Y02159*
X04674Y02154*
X04683Y02153*
X04691Y02154*
X04697Y02158*
X04702Y02154*
X04711Y02153*
X04715Y02153*
X04719Y0215*
Y02112*
X04717Y0211*
X04712Y02103*
X04711Y02094*
X04712Y02085*
X04717Y02078*
X04715Y02074*
X04713Y02075*
X04706Y02076*
X04702Y02075*
X0465Y02127*
X04648Y02129*
X04629Y02148*
Y02225*
X04633Y02227*
X04636Y02225*
X04645Y02224*
X04654Y02225*
X04662Y0223*
X04667Y02238*
X04668Y02247*
X04667Y02255*
X04662Y02263*
X04654Y02268*
X04645Y0227*
X04636Y02268*
X04633Y02266*
X04629Y02268*
Y02323*
X04634Y02325*
X0464Y02321*
X04649Y02319*
X04658Y02321*
X04665Y02326*
X04666Y02327*
X04671Y02328*
X04719Y0228*
G37*
G36*
X03989Y02361D02*
Y01923D01*
X03936*
X0393Y01922*
X03926Y01919*
X03824*
X03755Y01988*
X03748Y01992*
X0374Y01994*
X03359*
X03348Y02005*
X03341Y0201*
X03332Y02012*
X03239*
X03183Y02067*
X03176Y02072*
X03168Y02074*
X03124*
X03119Y02075*
X0311Y02073*
X03102Y02068*
X03097Y02061*
X03096Y02052*
X03097Y02043*
X03102Y02035*
X0311Y0203*
X03119Y02029*
X03124Y0203*
X03159*
X03165Y02023*
X03163Y02018*
X03161Y02019*
X03152Y02017*
X03145Y02012*
X0314Y02004*
X03138Y01996*
X0314Y01987*
X03145Y01979*
X03152Y01974*
X03161Y01973*
X0317Y01974*
X03177Y01979*
X03182Y01987*
X03184Y01996*
X03184Y01998*
X03188Y02*
X03214Y01974*
X03221Y01969*
X0323Y01968*
X03323*
X03334Y01956*
X03341Y01952*
X0335Y0195*
X03731*
X03799Y01882*
X03806Y01877*
X03815Y01875*
X03915*
Y01837*
X03812Y01734*
X03808Y01728*
X03806Y0172*
Y01577*
X03808Y0157*
X03812Y01563*
X03853Y01522*
Y01436*
X03855Y01428*
X03859Y01421*
X03889Y01392*
Y01254*
X0389Y01247*
X03895Y0124*
X03903Y01232*
X03903Y0123*
X03908Y01222*
X03909Y01222*
X03907Y01217*
X03893*
X03848Y01262*
X03842Y01266*
X03834Y01268*
X03829*
X03827Y01273*
X03833Y01277*
X03839Y01286*
X03843Y01295*
X03845Y01305*
Y01334*
X03843Y01344*
X03839Y01354*
X03833Y01362*
X03825Y01368*
X03816Y01372*
X03806Y01373*
X03796Y01372*
X03786Y01368*
X03778Y01362*
X03772Y01354*
X03768Y01344*
X03767Y01334*
Y01305*
X03768Y01295*
X03772Y01286*
X03778Y01277*
X03785Y01273*
X03783Y01268*
X03731*
X03694Y01305*
X03687Y01309*
X0368Y01311*
X03546*
X03535Y01322*
Y01533*
X03534Y0154*
X0354Y01541*
X03547Y01546*
X03552Y01554*
X03554Y01563*
X03552Y01571*
X03547Y01579*
X0354Y01584*
X03531Y01586*
X03522Y01584*
X03515Y01579*
X03511Y01573*
X03505Y01572*
X03482Y01595*
X03482Y01597*
X03477Y01604*
X03469Y01609*
X0346Y01611*
X03451Y01609*
X03444Y01604*
X03439Y01597*
X03437Y01588*
X03439Y01579*
X03444Y01572*
X03451Y01567*
X03454Y01566*
X03476Y01544*
X03473Y0154*
X03469Y01543*
X0346Y01544*
X03451Y01543*
X03444Y01538*
X03439Y0153*
X03437Y01521*
X03439Y01512*
X03444Y01505*
X03451Y015*
X0346Y01498*
X03469Y015*
X03477Y01505*
X03482Y01512*
X03483Y01521*
X03482Y0153*
X03479Y01534*
X03483Y01537*
X03495Y01525*
Y01314*
X03497Y01306*
X03501Y01299*
X03524Y01277*
X0353Y01272*
X03538Y01271*
X03671*
X03709Y01233*
X03715Y01229*
X03723Y01228*
X03791*
X03792Y01223*
X03786Y0122*
X03778Y01214*
X03772Y01206*
X03768Y01197*
X03767Y01187*
Y01157*
X03768Y01147*
X03772Y01138*
X03774Y01136*
X03771Y01132*
X02428Y01132*
X02425Y01132*
X02419Y01133*
X02414Y01135*
X0241Y01139*
X02406Y01143*
X02403Y01147*
X02401Y01153*
X024Y01158*
Y01161*
Y02098*
X02405Y02099*
X02407Y02096*
X02417Y02086*
X02423Y02082*
X02429Y02079*
X02437Y02078*
X02444Y02079*
X02446Y0208*
X02451Y02077*
X02452Y02077*
X02453Y02071*
X02457Y02065*
X02463Y02058*
X02463Y02053*
X0246Y02051*
X02455Y02044*
X02453Y02035*
X02455Y02026*
X0246Y02019*
X02467Y02014*
X02476Y02012*
X02481Y02013*
X02486Y02009*
Y01888*
X02482Y01882*
X0248Y01874*
X02482Y01865*
X02487Y01857*
X02495Y01852*
X02503Y0185*
X02506Y01851*
X0251Y01848*
Y0171*
X02511Y01703*
X02515Y01698*
X0253Y01682*
X02531Y01676*
X02536Y01668*
X02544Y01663*
X02553Y01662*
X02562Y01663*
X02569Y01668*
X02574Y01676*
X02576Y01685*
X02574Y01693*
X02569Y01701*
X02562Y01706*
X02555Y01707*
X02548Y01714*
X02548Y01715*
X02554Y01717*
X02558Y01714*
X02566Y01713*
X02575Y01714*
X02583Y01719*
X02588Y01727*
X0259Y01736*
X02588Y01745*
X02583Y01752*
X02575Y01757*
X02569Y01758*
X02564Y01763*
Y01772*
X02569Y01774*
X02569Y01774*
X02578Y01772*
X02583Y01773*
X02588Y01769*
Y01767*
X0259Y01761*
X02593Y01755*
X02597Y01751*
Y01668*
X02572Y01643*
X02568Y01637*
X02567Y0163*
Y01497*
X02549Y01479*
X02542Y01478*
X02534Y01473*
X02529Y01465*
X02528Y01456*
X02529Y01447*
X02534Y0144*
X02542Y01435*
X02551Y01433*
X0256Y01435*
X02567Y0144*
X02572Y01447*
X02573Y01454*
X02597Y01477*
X026Y01483*
X02602Y0149*
Y01623*
X02627Y01649*
X02631Y01654*
X02632Y01661*
Y01758*
X02631Y01765*
X02634Y0177*
X02639Y01771*
X02646Y01776*
X02651Y01783*
X02652Y01787*
X02657*
X02658Y01782*
X02663Y01775*
X0267Y0177*
X02677Y01768*
X02679Y01763*
X02658Y01742*
X02655Y01737*
X02653Y0173*
Y01705*
X02653Y01705*
X02648Y01697*
X02646Y01689*
X02648Y0168*
X02653Y01672*
X0266Y01667*
X02669Y01665*
X02677Y01667*
X02678*
X02682Y01665*
Y0163*
X02683Y01625*
X02686Y01621*
X02691Y01616*
X02696Y01613*
X02701Y01611*
X02734*
Y0155*
X02734Y01549*
Y01547*
X02735Y01543*
X02734Y01538*
Y01537*
X02734Y01536*
Y01441*
X02735Y01436*
X02738Y01432*
X02743Y01427*
X02747Y01424*
X02753Y01423*
X02761*
X02765Y01418*
X02764Y01413*
X02766Y01404*
X02771Y01397*
X02778Y01392*
X02787Y0139*
X02796Y01392*
X02803Y01397*
X02808Y01404*
X0281Y01413*
X02809Y01418*
X02813Y01423*
X03155*
X0316Y01424*
X03165Y01427*
X03171Y01433*
X03174Y01437*
X03175Y01442*
Y0147*
X03234Y01529*
X03237Y01534*
X03238Y01539*
Y0168*
X03237Y01685*
X03237Y01686*
X03238Y0169*
X03241Y01691*
X03246Y01694*
X03251Y01691*
X03259Y01689*
X03268Y01691*
X03276Y01696*
X03281Y01703*
X03282Y01712*
X03281Y01721*
X03276Y01728*
X03268Y01733*
X03259Y01735*
X03251Y01733*
X03246Y0173*
X03241Y01733*
X03232Y01735*
X03223Y01733*
X03218Y0173*
X03213Y01733*
X03204Y01735*
X03195Y01733*
X0319Y0173*
X03186Y01733*
X0318Y01735*
X03178Y01741*
X03173Y01748*
X03166Y01753*
X0316Y01754*
X03159Y0176*
X03154Y01768*
X03146Y01773*
X0314Y01774*
X03139Y0178*
X03134Y01788*
X03126Y01793*
X03118Y01794*
X03109Y01793*
X03104Y01789*
X03099Y01793*
X0309Y01794*
X03081Y01793*
X03074Y01788*
X03069Y0178*
X03067Y01771*
X03069Y01762*
X03074Y01755*
X0308Y01751*
X03078Y01746*
X03074*
X03069Y01745*
X03064Y01742*
X0306Y01738*
X03057Y01733*
X03056Y01728*
Y01652*
X03057Y01647*
X0306Y01642*
X03067Y01635*
X03072Y01632*
X03077Y01631*
X03123*
X03124Y01625*
X03129Y01617*
X03126Y01613*
X03123Y01615*
X03114Y01617*
X03105Y01615*
X03097Y0161*
X03092Y01603*
X03091Y01594*
X03091Y01592*
X03088Y01588*
X03049*
X03043Y01587*
X03039Y01584*
X03033Y01578*
X0303Y01574*
X03029Y01568*
Y01529*
X02797*
Y01692*
X02796Y01698*
X02793Y01702*
X02788Y01707*
X02783Y0171*
X02778Y01711*
X02769*
Y01792*
X02767Y01797*
X02766Y01799*
X02769Y018*
X02781Y01812*
X02784Y01818*
X02785Y0182*
X02789Y01822*
X0279*
X02799Y0182*
X02808Y01822*
X02812Y01824*
X02816Y01821*
X02815Y01815*
X02817Y01807*
X02822Y01799*
X02829Y01794*
X02838Y01792*
X02847Y01794*
X02854Y01799*
X02856Y01801*
X02861Y01805*
X0291Y01853*
X02913Y01859*
X02915Y01866*
Y02012*
X02925Y02022*
X0296*
X02967Y02024*
X02973Y02027*
X03032Y02087*
X03035Y02092*
X03037Y02099*
Y02181*
X03042Y02184*
X03045Y02182*
X03054Y0218*
X03063Y02182*
X0307Y02187*
X03075Y02194*
X03077Y02203*
X03075Y02212*
X0307Y0222*
X03063Y02225*
X03054Y02226*
X03045Y02225*
X03042Y02223*
X03037Y02225*
Y02231*
X03035Y02238*
X03032Y02243*
X02974Y02301*
Y02331*
X02979Y02333*
X02981Y02329*
X02982Y02328*
X02983Y02327*
X02993Y02317*
X02994Y02316*
X02995Y02315*
X03007Y02307*
X03008Y02306*
X03009Y02306*
X03022Y023*
X03024Y023*
X03025Y02299*
X03039Y02296*
X0304*
X03042Y02296*
X03049*
X03049*
X03049*
X03899*
X03906*
X03907Y02296*
X03909*
X03923Y02299*
X03925Y02299*
X03926Y023*
X03939Y02305*
X03941Y02306*
X03942Y02307*
X03954Y02315*
X03955Y02316*
X03956Y02317*
X03967Y02327*
X03967Y02328*
X03968Y02329*
X03976Y02341*
X03977Y02342*
X03978Y02344*
X03983Y02357*
X03984Y02359*
X03984Y0236*
X03984Y02362*
X03989Y02361*
G37*
G36*
X02967Y02211D02*
X02976Y02209D01*
X02977Y02209*
X02981Y02205*
X02984Y02202*
Y02114*
X02945Y02075*
X02908*
X02901Y02074*
X02896Y0207*
X02888Y02062*
X02883Y02064*
Y02128*
X02888Y0213*
X02889Y02129*
X02896Y02124*
X02905Y02122*
X02914Y02124*
X02921Y02129*
X02926Y02136*
X02928Y02145*
X02926Y02154*
X02921Y02162*
X02918Y02164*
X02917Y0217*
X02924Y02177*
X02928Y02176*
X02936Y02171*
X02944Y02169*
X02953Y02171*
X02961Y02176*
X02966Y02184*
X02968Y02192*
X02966Y02201*
X02961Y02209*
X02964Y02213*
X02967Y02211*
G37*
G36*
X02801Y02155D02*
Y02018D01*
X028Y02018*
X02796Y02017*
X02791Y02024*
X02784Y02029*
X02775Y02031*
X02766Y02029*
X02761Y02025*
X02756Y02029*
X02748Y02031*
X02739Y02029*
X02734Y02025*
X02729Y02029*
X0272Y02031*
X02711Y02029*
X0271Y02028*
X02706Y02031*
Y02067*
X02796Y02157*
X02801Y02155*
G37*
G36*
X05059Y01969D02*
Y01917D01*
X05054Y01916*
X05051Y01919*
X05044Y01924*
X05035Y01926*
X05026Y01924*
X05019Y01919*
X05014Y01912*
X05013Y0191*
X04998*
X04995Y01914*
X04996Y01915*
X04998Y01923*
X04996Y01932*
X04993Y01937*
X04995Y01942*
X04997Y0195*
X04995Y01959*
X0499Y01967*
X04983Y01972*
X04974Y01973*
X04965Y01972*
X04958Y01967*
X04953Y01959*
X04952Y01958*
X04891*
X0489Y01962*
X04898Y01967*
X04903Y01975*
X04905Y01984*
X04904Y01985*
X04908Y01989*
X04909Y01988*
X04918Y0199*
X04925Y01995*
X04927Y01998*
X0493*
X04938Y01993*
X04946Y01991*
X04955Y01993*
X0496Y01997*
X04964Y01998*
X04968Y01997*
X04973Y01993*
X04982Y01991*
X04991Y01993*
X04998Y01998*
X05003Y02005*
X05005Y02014*
X05005Y02016*
X05009Y02018*
X05059Y01969*
G37*
G36*
X04369Y01969D02*
Y01827D01*
X0437Y01821*
X04374Y01815*
X0446Y01729*
X0446Y01727*
X04458Y01724*
X04427*
X04422Y01728*
X04413Y01729*
X04404Y01728*
X04397Y01723*
X04395Y0172*
X04391Y01723*
X04382Y01724*
X04374Y01723*
X04368Y01719*
X04364*
X04334Y01749*
Y01969*
X04339Y01971*
X04342Y01969*
X04351Y01968*
X0436Y01969*
X04364Y01972*
X04369Y01969*
G37*
G36*
X04526Y02017D02*
X04535Y02015D01*
X04544Y02017*
X04549Y0202*
X04554Y02017*
X04563Y02015*
X04571Y02017*
X04572Y02017*
X04576Y02014*
X04576Y02011*
X04578Y02003*
X0458Y01998*
X04577Y01993*
X04575Y01984*
X04577Y01975*
X0458Y0197*
X04577Y01965*
X04575Y01956*
X04577Y01947*
X04582Y0194*
X04589Y01935*
X04598Y01933*
X04607Y01935*
X04612Y01938*
X04617Y01935*
X04626Y01933*
X04634Y01935*
X04639Y01938*
X04644Y01935*
X04653Y01933*
X04662Y01935*
X04667Y01938*
X04672Y01935*
X04681Y01933*
X04689Y01935*
X04697Y0194*
X04702Y01947*
X04704Y01956*
X04702Y01965*
X04699Y0197*
X04702Y01975*
X04704Y01984*
X04702Y01993*
X04699Y01998*
X04702Y02003*
X04703Y02009*
X04709Y0201*
X0477Y01949*
X04775Y01945*
X04782Y01944*
X04807*
X0483Y01921*
X04835Y01918*
X04842Y01916*
X04949*
X0495Y01915*
X04948Y0191*
X04575*
X04516Y01969*
Y02018*
X04521Y0202*
X04526Y02017*
G37*
G36*
X04015Y01827D02*
X0401Y01822D01*
X03934*
X03929Y01827*
Y01902*
X03936Y01909*
X04015*
Y01827*
G37*
G36*
X02697Y01952D02*
Y01952D01*
X02699Y01943*
X02704Y01936*
X02711Y01931*
X02714Y0193*
X02716Y01925*
X02646Y01854*
X02642Y01849*
X0264Y01842*
Y01827*
X02628Y01815*
X02626Y01816*
X02623Y01818*
Y01886*
X02692Y01955*
X02697Y01952*
G37*
G36*
X05014Y01867D02*
X05019Y01859D01*
X05026Y01854*
X05035Y01852*
X05044Y01854*
X05051Y01859*
X05054Y01863*
X05059Y01861*
Y01806*
X05054Y01805*
X05051Y01808*
X05044Y01813*
X05035Y01815*
X05026Y01813*
X05019Y01808*
X05014Y01801*
X05012Y01792*
X05014Y01783*
X05018Y01777*
X05014Y01771*
X05012Y01762*
X05014Y01754*
X05019Y01746*
X05026Y01741*
X05035Y01739*
X05044Y01741*
X05051Y01746*
X05054Y0175*
X05059Y01748*
Y01692*
X05055Y01689*
X05054Y01689*
X05045Y01691*
X05036Y01689*
X05029Y01684*
X05024Y01676*
X05023Y0167*
X05007Y01654*
X04536*
X04531Y01659*
X04531Y01661*
X04533Y01664*
X04871*
X04877Y01665*
X04883Y01669*
X04987Y01774*
X04991Y01779*
X04992Y01785*
X04996Y01791*
X04998Y018*
X04996Y01809*
X04992Y01815*
X04995Y01819*
X04997Y01828*
X04995Y01837*
X04992Y01842*
X04995Y01847*
X04997Y01856*
X04996Y01863*
X04998Y01868*
X05013*
X05014Y01867*
G37*
G36*
X04384Y02105D02*
X04392Y02101D01*
X044Y021*
X04407Y02101*
X04412Y02099*
X04412Y02099*
Y01917*
X04414Y01911*
X04417Y01905*
X0451Y01813*
X04515Y0181*
X04521Y01808*
X04926*
X04927Y01807*
X04928Y01803*
X04924Y01797*
X04922Y01788*
X04924Y01779*
X04929Y01772*
X0493Y01771*
X0493Y01766*
X04863Y01699*
X04539*
X04404Y01835*
Y02013*
X04403Y0202*
X04399Y02026*
X04379Y02045*
Y02103*
X04384Y02105*
X04384Y02105*
G37*
G36*
X05075Y01625D02*
Y01537D01*
X04973Y01434*
X04805*
X048Y01438*
X04791Y0144*
X04782Y01438*
X04775Y01433*
X0477Y01426*
X04768Y01417*
X0477Y01408*
X04775Y01401*
X04782Y01396*
X04791Y01394*
X048Y01396*
X04805Y01399*
X0498*
X04987Y01401*
X04992Y01404*
X05001Y01413*
X05006Y01411*
Y01334*
X05Y01328*
X04814*
X04798Y01344*
X04796Y01351*
X04791Y01358*
X04784Y01363*
X04775Y01365*
X04766Y01363*
X04759Y01358*
X04754Y01352*
X04751Y01351*
X04749Y01352*
X04744Y01359*
X04737Y01364*
X04728Y01365*
X04719Y01364*
X04712Y01359*
X04707Y01351*
X04705Y01342*
X04707Y01334*
X04712Y01326*
X04719Y01321*
X04726Y0132*
X04771Y01275*
X04777Y01271*
X04783Y01269*
X05015*
X05022Y01271*
X05028Y01275*
X05053Y01299*
X05056Y01302*
X0506Y013*
X05064Y01297*
X05073Y01293*
X05083Y01292*
X05093Y01293*
X05102Y01297*
X0511Y01303*
X05116Y0131*
X0512Y0132*
X05121Y01329*
Y01357*
X0512Y01367*
X05116Y01376*
X0511Y01384*
X05102Y0139*
X05093Y01393*
X05083Y01395*
X05073Y01393*
X05065Y0139*
X0506Y01392*
Y01406*
X0513Y01476*
X05135Y01474*
Y0116*
X05135Y01157*
X05134Y01152*
X05132Y01147*
X05129Y01143*
X05125Y01139*
X0512Y01136*
X05117Y01139*
X0512Y01146*
X05121Y01156*
Y01176*
X0512Y01185*
X05116Y01195*
X0511Y01202*
X05102Y01208*
X05093Y01212*
X05083Y01213*
X05073Y01212*
X05064Y01208*
X05057Y01202*
X05051Y01195*
X05047Y01185*
X05045Y01176*
Y01156*
X05047Y01146*
X05051Y01137*
X05051Y01136*
X05049Y01132*
X0469*
X04688Y01136*
X04689Y01137*
X04692Y01146*
X04694Y01156*
Y01176*
X04692Y01185*
X04689Y01195*
X04683Y01202*
X04675Y01208*
X04666Y01212*
X04656Y01213*
X04646Y01212*
X04637Y01208*
X04629Y01202*
X04623Y01195*
X0462Y01185*
X04618Y01176*
Y01156*
X0462Y01146*
X04623Y01137*
X04624Y01136*
X04622Y01132*
X04181*
X04178Y01136*
X0418Y01138*
X04183Y01147*
X04185Y01157*
Y01187*
X04183Y01197*
X04181Y01202*
X04185Y01207*
X04244*
X04252Y01208*
X04259Y01213*
X04304Y01258*
X04308Y01265*
X0431Y01273*
Y01322*
X04314Y01326*
X0432Y01325*
X0432Y01324*
Y01232*
X04291Y01203*
X04285Y01202*
X04278Y01197*
X04273Y01189*
X04271Y01181*
X04273Y01172*
X04278Y01164*
X04285Y01159*
X04294Y01158*
X04303Y01159*
X0431Y01164*
X04315Y01172*
X04316Y01178*
X04351Y01212*
X04355Y01218*
X04356Y01225*
Y0132*
X04425*
X04449Y01296*
X04474Y01272*
Y01229*
X0447Y01224*
X04469Y01215*
X0447Y01206*
X04475Y01199*
X04483Y01194*
X04492Y01192*
X04501Y01194*
X04508Y01199*
X04513Y01206*
X04515Y01215*
X04513Y01224*
X0451Y01229*
Y01279*
X04508Y01286*
X04504Y01292*
X04488Y01309*
X04493Y01314*
X04572*
X04579Y01316*
X04585Y01319*
X04614Y01348*
X04618Y01346*
Y01329*
X0462Y0132*
X04623Y0131*
X04629Y01303*
X04637Y01297*
X04646Y01293*
X04656Y01292*
X04666Y01293*
X04675Y01297*
X04683Y01303*
X04689Y0131*
X04692Y0132*
X04694Y01329*
Y01357*
X04692Y01367*
X04689Y01376*
X04683Y01384*
X04675Y0139*
X04666Y01393*
X04663Y01397*
X04664Y01401*
X04663Y0141*
X04658Y01417*
X0465Y01422*
X04641Y01424*
X04632Y01422*
X04625Y01417*
X0462Y0141*
X04619Y01404*
X04565Y0135*
X04486*
X04479Y01349*
X04473Y01345*
X04462Y01334*
X04445Y01351*
X0444Y01355*
X04433Y01356*
X04352*
X04351Y01357*
X04351Y01358*
X0435Y01363*
X04354Y01368*
X04355Y01377*
Y01533*
X04359Y01536*
X04362Y01536*
X04367Y01537*
X04409*
X04451Y01495*
Y01436*
X04452Y01429*
X04456Y01423*
X04483Y01396*
X04489Y01392*
X04496Y01391*
X04525*
X04525Y0139*
X0453Y01383*
X04538Y01378*
X04547Y01376*
X04556Y01378*
X04563Y01383*
X04568Y0139*
X0457Y01399*
X04568Y01407*
X04571Y01407*
X04579Y01412*
X04584Y0142*
X04586Y01429*
X04584Y01438*
X04579Y01445*
X04571Y0145*
X04571Y0145*
X0457Y01455*
X04573Y01457*
X04577Y01455*
X04586Y01453*
X04595Y01455*
X046Y01458*
X04605Y01455*
X04614Y01453*
X04623Y01455*
X04628Y01458*
X04632Y01455*
X04641Y01453*
X0465Y01455*
X04658Y0146*
X04663Y01467*
X04664Y01476*
X04663Y01485*
X04658Y01492*
X0465Y01497*
X04641Y01499*
X04632Y01497*
X04628Y01494*
X04623Y01497*
X04614Y01499*
X04605Y01497*
X046Y01494*
X04595Y01497*
X04586Y01499*
X04577Y01497*
X04572Y01494*
X04567Y01497*
X04559Y01499*
X0455Y01497*
X04542Y01492*
X04537Y01485*
X04536Y01476*
X04537Y01467*
X04542Y0146*
X0455Y01455*
X0455Y01455*
X04551Y01449*
X04548Y01447*
X04519*
X04515Y0145*
Y01513*
X04515Y01515*
X04517Y0152*
X04518Y01521*
X04519Y01522*
X04525Y01525*
X0453Y01533*
X04531Y01542*
X0453Y0155*
X04525Y01558*
X04517Y01563*
X04508Y01565*
X04499Y01563*
X04492Y01558*
X04489Y01553*
X04483Y01553*
X04468Y01567*
X04469Y01572*
X04473Y01573*
X0448Y01578*
X04485Y01585*
X04487Y01594*
X04485Y01603*
X04484Y01605*
Y01622*
X04489Y01624*
X04508Y01605*
X04513Y01601*
X0452Y016*
X05037*
X05044Y01601*
X05049Y01605*
X05071Y01627*
X05075Y01625*
G37*
G36*
X04049Y02544D02*
Y02429D01*
X0405Y02422*
X04054Y02417*
X04101Y0237*
Y02256*
X04092Y02247*
X04085Y02245*
X04078Y0224*
X04073Y02233*
X04071Y02224*
X04073Y02215*
X04078Y02208*
X04085Y02203*
X04094Y02201*
X04103Y02203*
X0411Y02208*
X04115Y02215*
X04117Y02222*
X04131Y02236*
X04135Y02242*
X04136Y02248*
Y02312*
X04141Y02316*
X04145Y02315*
X04154Y02317*
X04162Y02322*
X04167Y02329*
X04168Y02338*
X04167Y02347*
X04163Y02353*
Y02375*
X04168Y02377*
X04271Y02274*
Y02032*
X04268Y02026*
X04266Y02017*
X04268Y02008*
X04273Y02001*
X0428Y01996*
X04289Y01994*
X04294Y01995*
X04299Y01991*
Y01742*
X043Y01735*
X04304Y01729*
X04336Y01697*
X04334Y01693*
X04263*
X04256Y01691*
X04249Y01687*
X04182Y0162*
X03892*
X03885Y01618*
X03878Y01614*
X03866Y01602*
X03864Y01602*
X03856Y01597*
X03851Y01589*
X03851*
X03846Y01591*
Y01712*
X03943Y01808*
X0401*
X04016Y01809*
X0402Y01812*
X04025Y01817*
X04028Y01822*
X04029Y01827*
Y01887*
X04034Y01891*
X04038Y01896*
X0404Y01902*
X04041Y01909*
Y02444*
X0404Y02451*
X04038Y02457*
X04034Y02463*
X03962Y02535*
X03956Y02539*
X0395Y02541*
X03943Y02542*
X03931*
X03931Y02545*
X03928Y0255*
X03925Y02552*
X03921Y02555*
X03918Y02556*
X03919Y02561*
X04032*
X04049Y02544*
G37*
G36*
X04383Y01648D02*
X0438Y01646D01*
X04375Y01638*
X04375Y01638*
X04319Y01582*
X04315Y01576*
X04313Y01567*
Y0156*
X04309Y01557*
X04307Y01557*
X04298Y01555*
X0429Y0155*
X04285Y01543*
X04284Y01534*
X04285Y01525*
X04286Y01525*
Y01431*
X04281Y01427*
X04275Y01428*
X04266Y01426*
X04259Y01421*
X04254Y01414*
X04252Y01405*
X04253Y01401*
X0425Y01398*
X04242*
X04234Y01396*
X04227Y01391*
X04202Y01367*
X04198Y0136*
X04196Y01352*
Y01305*
X04189Y01297*
X04184Y013*
X04185Y01305*
Y01334*
X04183Y01344*
X0418Y01354*
X04173Y01362*
X04165Y01368*
X04156Y01372*
X04146Y01373*
X04136Y01372*
X04127Y01368*
X04119Y01362*
X04112Y01354*
X04109Y01344*
X04107Y01334*
Y01305*
X04109Y01295*
X04111Y01289*
X04108Y01284*
X04026*
X04017Y01294*
X04017Y01294*
X04012Y01302*
X04004Y01307*
X03996Y01308*
X03987Y01307*
X03979Y01302*
X03978Y013*
X03973*
X03973Y01302*
X03965Y01307*
X03956Y01308*
X03947Y01307*
X0394Y01302*
X03935Y01294*
X03934Y0129*
X03929Y0129*
Y014*
X03928Y01408*
X03923Y01414*
X03894Y01444*
Y0153*
X03892Y01538*
X03888Y01544*
X03878Y01554*
X0388Y01559*
X03881Y01559*
X03889Y01564*
X03894Y01571*
X03894Y01574*
X03901Y0158*
X03909*
X0391Y01575*
X03904Y01571*
X03899Y01564*
X03898Y01555*
X03899Y01546*
X03904Y01538*
X03912Y01533*
X03921Y01532*
X0393Y01533*
X03937Y01538*
X03942Y01546*
X03944Y01555*
X03942Y01564*
X03937Y01571*
X03931Y01575*
X03933Y0158*
X04137*
X04139Y01575*
X04133Y01571*
X04128Y01564*
X04126Y01555*
X04128Y01546*
X04133Y01538*
X0414Y01533*
X04149Y01532*
X04158Y01533*
X04165Y01538*
X0417Y01546*
X04172Y01555*
X0417Y01564*
X04165Y01571*
X0416Y01575*
X04161Y0158*
X0419*
X04198Y01581*
X04205Y01586*
X04272Y01653*
X04381*
X04383Y01648*
G37*
G36*
X02754Y01792D02*
Y01701D01*
X02758Y01697*
X02778*
X02783Y01692*
Y0152*
X02788Y01515*
X03037*
X03043Y01521*
Y01568*
X03049Y01574*
X03102*
X03105Y01573*
X03114Y01571*
X03123Y01573*
X03125Y01574*
X0316*
X03165Y01579*
Y01622*
X03167Y01625*
X03168Y01633*
X03167Y01642*
X03162Y0165*
X03154Y01655*
X03145Y01656*
X03136Y01655*
X03129Y0165*
X03126Y01645*
X03077*
X0307Y01652*
Y01728*
X03074Y01732*
X03102*
X03106Y01728*
Y0169*
X03111Y01685*
X03219*
X03224Y0168*
Y01539*
X03161Y01476*
Y01442*
X03155Y01437*
X02753*
X02748Y01441*
Y01536*
X02749Y01543*
X02748Y0155*
Y01622*
X02744Y01626*
X02701*
X02696Y0163*
Y01731*
X02722Y01756*
X02725Y01762*
X02727Y01768*
Y01785*
X02737Y01795*
X02751*
X02754Y01792*
G37*
G36*
X04279Y01351D02*
X04274Y01346D01*
X04269Y01339*
X04268Y01331*
Y01282*
X04235Y01249*
X04207*
X04205Y01254*
X04232Y01281*
X04237Y01288*
X04238Y01296*
Y01343*
X0425Y01355*
X04277*
X04279Y01351*
G37*
%LNmain_board-2*%
%LPC*%
G36*
X03966Y04468D02*
X03957Y04466D01*
X0395Y04461*
X03945Y04453*
X03943Y04444*
X03945Y04436*
X0395Y04428*
X03957Y04423*
X03966Y04421*
X03975Y04423*
X03982Y04428*
X03987Y04436*
X03989Y04444*
X03987Y04453*
X03982Y04461*
X03975Y04466*
X03966Y04468*
G37*
G36*
X04139Y04434D02*
X0413Y04432D01*
X04123Y04427*
X04118Y0442*
X04117Y04412*
X04116Y04411*
X04112Y04409*
X04108Y04409*
X04099Y04408*
X04091Y04403*
X04086Y04395*
X04085Y04386*
X04086Y04378*
X04091Y0437*
X04099Y04365*
X04108Y04363*
X04117Y04365*
X04124Y0437*
X04129Y04378*
X04131Y04385*
X04131Y04386*
X04136Y04389*
X04139Y04388*
X04148Y0439*
X04156Y04395*
X04161Y04402*
X04162Y04411*
X04161Y0442*
X04156Y04427*
X04148Y04432*
X04139Y04434*
G37*
G36*
X03436Y04393D02*
X03427Y04391D01*
X03419Y04386*
X03414Y04378*
X03412Y0437*
X03414Y04361*
X03419Y04353*
X03427Y04348*
X03436Y04347*
X03444Y04348*
X03452Y04353*
X03457Y04361*
X03459Y0437*
X03457Y04378*
X03452Y04386*
X03444Y04391*
X03436Y04393*
G37*
G36*
X03917Y04213D02*
X03908Y04211D01*
X03901Y04206*
X03896Y04198*
X03894Y0419*
X03896Y04181*
X03901Y04173*
X03908Y04168*
X03917Y04166*
X03926Y04168*
X03933Y04173*
X03938Y04181*
X0394Y0419*
X03938Y04198*
X03933Y04206*
X03926Y04211*
X03917Y04213*
G37*
G36*
X04771Y04184D02*
X04762Y04182D01*
X04755Y04177*
X0475Y0417*
X04748Y04161*
X0475Y04152*
X04755Y04145*
X04762Y0414*
X04771Y04138*
X0478Y0414*
X04788Y04145*
X04793Y04152*
X04794Y04161*
X04793Y0417*
X04788Y04177*
X0478Y04182*
X04771Y04184*
G37*
G36*
X04937Y04176D02*
X04928Y04174D01*
X0492Y04169*
X04915Y04162*
X04913Y04153*
X04915Y04144*
X0492Y04137*
X04928Y04132*
X04937Y0413*
X04945Y04132*
X04953Y04137*
X04958Y04144*
X0496Y04153*
X04958Y04162*
X04953Y04169*
X04945Y04174*
X04937Y04176*
G37*
G36*
X03275Y03996D02*
X03266Y03994D01*
X03258Y03989*
X03253Y03981*
X03251Y03972*
Y03885*
X03253Y03876*
X03258Y03868*
X03266Y03863*
X03275Y03861*
X03284Y03863*
X03292Y03868*
X03297Y03876*
X03299Y03885*
Y03972*
X03297Y03981*
X03292Y03989*
X03284Y03994*
X03275Y03996*
G37*
G36*
X03413Y03909D02*
X03404Y03908D01*
X03397Y03903*
X03392Y03895*
X0339Y03886*
X03392Y03878*
X03397Y0387*
X03404Y03865*
X03413Y03863*
X03418Y03864*
X03482*
X03494Y03852*
Y03816*
X03496Y03807*
X03501Y038*
X03513Y03788*
Y03757*
X03512Y03752*
X03514Y03743*
X03519Y03735*
X03526Y0373*
X03535Y03728*
X03544Y0373*
X03551Y03735*
X03556Y03743*
X03558Y03752*
X03557Y03757*
Y03797*
X03555Y03806*
X03551Y03813*
X03538Y03825*
Y03834*
X03543Y03838*
X03545Y03838*
X03554Y03839*
X03561Y03844*
X03566Y03852*
X03568Y03861*
X03566Y0387*
X03561Y03877*
X03554Y03882*
X03545Y03884*
X0354Y03883*
X03525*
X03506Y03902*
X03499Y03907*
X03491Y03908*
X03418*
X03413Y03909*
G37*
G36*
X03677Y0381D02*
X03668Y03808D01*
X0366Y03803*
X03655Y03796*
X03654Y03787*
X03655Y03778*
X0366Y03771*
X03655Y03764*
X03654Y03755*
X03655Y03747*
X0366Y03739*
X03668Y03734*
X03677Y03732*
X03686Y03734*
X03693Y03739*
X03698Y03747*
X037Y03755*
X03698Y03764*
X03693Y03771*
X03698Y03778*
X037Y03787*
X03698Y03796*
X03693Y03803*
X03686Y03808*
X03677Y0381*
G37*
G36*
X04507Y03597D02*
X04499Y03596D01*
X04491Y03591*
X04486Y03583*
X04484Y03574*
X04486Y03566*
X04491Y03558*
X04499Y03553*
X04507Y03551*
X04516Y03553*
X04524Y03558*
X04529Y03566*
X04531Y03574*
X04529Y03583*
X04524Y03591*
X04516Y03596*
X04507Y03597*
G37*
G36*
X04315Y03545D02*
X04307Y03544D01*
X04303Y03541*
X04299Y03544*
X0429Y03545*
X04281Y03544*
X04274Y03539*
X04269Y03531*
X04267Y03522*
X04269Y03513*
X04274Y03506*
X04281Y03501*
X0429Y03499*
X04299Y03501*
X04303Y03504*
X04307Y03501*
X04315Y03499*
X04324Y03501*
X04332Y03506*
X04337Y03513*
X04339Y03522*
X04337Y03531*
X04332Y03539*
X04324Y03544*
X04315Y03545*
G37*
G36*
X049Y03571D02*
X04891Y03569D01*
X04883Y03564*
X04878Y03557*
X04877Y03548*
X04878Y03539*
X04883Y03531*
X04891Y03526*
X049Y03525*
X04909Y03526*
X04916Y03531*
X04921Y03539*
X04923Y03548*
X04921Y03557*
X04916Y03564*
X04909Y03569*
X049Y03571*
G37*
G36*
X03368Y03288D02*
X03359Y03287D01*
X03351Y03282*
X03346Y03274*
X03345Y03268*
X03297Y0322*
X03293Y03214*
X03292Y03211*
X03288Y03207*
X03279Y03205*
X03272Y032*
X03267Y03192*
X03265Y03184*
X03267Y03175*
X03272Y03167*
X03279Y03162*
X03288Y03161*
X03292Y03158*
Y03138*
X03289Y03136*
X03238*
X03233Y03139*
X03224Y03141*
X03215Y03139*
X03208Y03134*
X03203Y03126*
X03201Y03118*
X03203Y03109*
X03208Y03101*
X03215Y03096*
X03224Y03095*
X03233Y03096*
X03238Y031*
X03297*
X03304Y03101*
X0331Y03105*
X03322Y03118*
X03326Y03124*
X03328Y0313*
Y032*
X03371Y03243*
X03376Y03244*
X03384Y03249*
X03389Y03256*
X03391Y03265*
X03389Y03274*
X03384Y03282*
X03376Y03287*
X03368Y03288*
G37*
G36*
X03253Y03094D02*
X03245Y03093D01*
X03237Y03088*
X03232Y0308*
X0323Y03071*
X03232Y03063*
X03237Y03055*
X03245Y0305*
X03253Y03048*
X03262Y0305*
X0327Y03055*
X03275Y03063*
X03277Y03071*
X03275Y0308*
X0327Y03088*
X03262Y03093*
X03253Y03094*
G37*
G36*
X03834Y02716D02*
X03825Y02714D01*
X03818Y02709*
X03813Y02701*
X03811Y02692*
X03813Y02684*
X03818Y02676*
X03825Y02671*
X03834Y02669*
X03843Y02671*
X03846Y02673*
X0385Y0267*
X0385Y02666*
X03851Y02657*
X03856Y0265*
X03864Y02645*
X03873Y02643*
X03881Y02645*
X03889Y0265*
X03894Y02657*
X03896Y02666*
X03894Y02675*
X03889Y02682*
X03881Y02687*
X03873Y02689*
X03864Y02687*
X03861Y02685*
X03856Y02688*
X03857Y02692*
X03856Y02701*
X03851Y02709*
X03843Y02714*
X03834Y02716*
G37*
G36*
X05017Y03062D02*
X05008Y03061D01*
X05Y03056*
X04995Y03048*
X04994Y03043*
X04987Y03042*
X0498Y03037*
X04975Y03029*
X04973Y0302*
X04975Y03011*
X0498Y03004*
X04987Y02999*
X04996Y02997*
X05005Y02999*
X05012Y03004*
X05017Y03011*
X05018Y03017*
X05025Y03018*
X05033Y03023*
X05038Y0303*
X0504Y03039*
X05038Y03048*
X05033Y03056*
X05025Y03061*
X05017Y03062*
G37*
G36*
X05066Y02874D02*
X05057Y02872D01*
X05049Y02867*
X05044Y02859*
X05043Y02851*
X05044Y02842*
X05049Y02834*
X05057Y02829*
X05066Y02828*
X05075Y02829*
X05079Y02832*
X05084Y02829*
X05093Y02827*
X05102Y02829*
X05109Y02834*
X05114Y02841*
X05116Y0285*
X05114Y02859*
X05109Y02867*
X05102Y02872*
X05093Y02873*
X05084Y02872*
X0508Y02869*
X05075Y02872*
X05066Y02874*
G37*
G36*
X04811Y02284D02*
X04802Y02283D01*
X04794Y02278*
X04789Y0227*
X04787Y02261*
X04789Y02253*
X04794Y02245*
X04802Y0224*
X04811Y02238*
X04819Y0224*
X04827Y02245*
X04832Y02253*
X04834Y02261*
X04832Y0227*
X04827Y02278*
X04819Y02283*
X04811Y02284*
G37*
G36*
X04758Y02904D02*
X0475Y02902D01*
X04742Y02897*
X04737Y02889*
X04735Y0288*
X04737Y02872*
X04742Y02864*
X0475Y02859*
X04758Y02857*
X04767Y02859*
X04775Y02864*
X0478Y02872*
X04781Y0288*
X0478Y02889*
X04775Y02897*
X04767Y02902*
X04758Y02904*
G37*
G36*
X04913Y02832D02*
X04904Y0283D01*
X04897Y02825*
X04892Y02817*
X0489Y02809*
X04892Y028*
X04897Y02792*
X04904Y02787*
X04913Y02786*
X04922Y02787*
X04926Y0279*
X04931Y02787*
X0493Y02784*
X04932Y02775*
X04937Y02768*
X04944Y02763*
X04953Y02761*
X04962Y02763*
X0497Y02768*
X04975Y02775*
X04976Y02784*
X04975Y02793*
X0497Y028*
X04962Y02805*
X04953Y02807*
X04944Y02805*
X0494Y02802*
X04935Y02805*
X04936Y02809*
X04934Y02817*
X04929Y02825*
X04922Y0283*
X04913Y02832*
G37*
G36*
X04984Y02749D02*
X04975Y02747D01*
X04968Y02742*
X04963Y02734*
X04961Y02726*
X04963Y02717*
X04966Y02712*
X04963Y02708*
X04961Y02699*
X04963Y0269*
X04968Y02683*
X04975Y02678*
X04984Y02676*
X04993Y02678*
X05001Y02683*
X05006Y0269*
X05007Y02699*
X05006Y02708*
X05002Y02712*
X05005Y02717*
X05007Y02726*
X05005Y02734*
X05Y02742*
X04993Y02747*
X04984Y02749*
G37*
G36*
X04815Y02751D02*
X04806Y0275D01*
X04799Y02745*
X04794Y02737*
X04792Y02728*
X04794Y0272*
X04799Y02712*
X04806Y02707*
X04815Y02705*
X04824Y02707*
X04828Y0271*
X04832Y02708*
X04833Y02706*
X04835Y02701*
X04834Y02696*
X04836Y02687*
X04841Y02679*
X04848Y02674*
X04857Y02673*
X04866Y02674*
X04873Y02679*
X04878Y02687*
X0488Y02696*
X04878Y02705*
X04873Y02712*
X04866Y02717*
X04864Y02717*
X04863Y02719*
X04865Y02728*
X04863Y02737*
X04858Y02744*
X04851Y02749*
X04842Y02751*
X04833Y02749*
X04829Y02746*
X04824Y0275*
X04815Y02751*
G37*
G36*
X04913Y02696D02*
X04904Y02694D01*
X04897Y02689*
X04892Y02682*
X0489Y02673*
X04892Y02664*
X04897Y02656*
X04902Y02653*
X04901Y02651*
X049Y02642*
X04901Y02633*
X04906Y02626*
X04914Y02621*
X04923Y02619*
X04932Y02621*
X04939Y02626*
X04944Y02633*
X04946Y02642*
X04944Y02651*
X04939Y02659*
X04933Y02662*
X04934Y02664*
X04936Y02673*
X04934Y02682*
X04929Y02689*
X04922Y02694*
X04913Y02696*
G37*
G36*
X04893Y02616D02*
X04884Y02614D01*
X04877Y02609*
X04872Y02602*
X0487Y02593*
X04872Y02584*
X04877Y02577*
X04884Y02572*
X04887Y02571*
X04887Y02571*
X04889Y02562*
X04894Y02554*
X04901Y02549*
X0491Y02547*
X04919Y02549*
X04927Y02554*
X04932Y02562*
X04933Y02571*
X04932Y02579*
X04927Y02587*
X04919Y02592*
X04916Y02592*
X04916Y02593*
X04915Y02602*
X0491Y02609*
X04902Y02614*
X04893Y02616*
G37*
G36*
X04511Y02401D02*
X04503Y02399D01*
X04495Y02394*
X0449Y02386*
X04488Y02378*
X0449Y02369*
X04495Y02361*
X04503Y02356*
X04511Y02354*
X0452Y02356*
X04528Y02361*
X04533Y02369*
X04534Y02378*
X04533Y02386*
X04528Y02394*
X0452Y02399*
X04511Y02401*
G37*
G36*
X0337Y02244D02*
X03361Y02242D01*
X03353Y02237*
X03348Y0223*
X03347Y02221*
X03348Y02212*
X03353Y02205*
X03361Y022*
X0337Y02198*
X03378Y022*
X03386Y02205*
X03391Y02212*
X03393Y02221*
X03391Y0223*
X03386Y02237*
X03378Y02242*
X0337Y02244*
G37*
G36*
X03467Y02132D02*
X03458Y0213D01*
X03451Y02125*
X03446Y02118*
X03444Y02109*
X03446Y021*
X03451Y02092*
X03458Y02087*
X03467Y02086*
X03476Y02087*
X03483Y02092*
X03487Y02098*
X03489Y02098*
X03492Y02097*
X03493Y0209*
X03496Y02082*
X03501Y02075*
X03508Y0207*
X03516Y02067*
X03524Y02066*
X03532Y02067*
X0354Y0207*
X03546Y02075*
X03551Y02082*
X03555Y0209*
X03556Y02098*
X03555Y02106*
X03551Y02114*
X03546Y0212*
X0354Y02125*
X03532Y02129*
X03524Y0213*
X03516Y02129*
X03508Y02125*
X03501Y0212*
X03496Y02114*
X03495Y0211*
X0349Y02111*
X03488Y02118*
X03483Y02125*
X03476Y0213*
X03467Y02132*
G37*
G36*
X03406Y0213D02*
X03398Y02129D01*
X0339Y02125*
X03383Y0212*
X03378Y02114*
X03375Y02106*
X03374Y02098*
X03375Y0209*
X03378Y02082*
X03383Y02075*
X0339Y0207*
X03398Y02067*
X03406Y02066*
X03414Y02067*
X03422Y0207*
X03428Y02075*
X03433Y02082*
X03437Y0209*
X03438Y02098*
X03437Y02106*
X03433Y02114*
X03428Y0212*
X03422Y02125*
X03414Y02129*
X03406Y0213*
G37*
G36*
X03614Y019D02*
X03605Y01898D01*
X03597Y01893*
X03592Y01885*
X03591Y01877*
X03592Y01868*
X03597Y0186*
X03605Y01855*
X03614Y01853*
X03623Y01855*
X0363Y0186*
X03635Y01868*
X03637Y01877*
X03635Y01885*
X0363Y01893*
X03623Y01898*
X03614Y019*
G37*
G36*
X02952Y01857D02*
X02943Y01856D01*
X02936Y01851*
X02931Y01843*
X02929Y01834*
X02931Y01825*
X02934Y0182*
X02931Y01815*
X02929Y01807*
X02931Y01798*
X02936Y0179*
X02943Y01785*
X02952Y01784*
X02961Y01785*
X02969Y0179*
X02974Y01798*
X02975Y01807*
X02974Y01815*
X0297Y0182*
X02974Y01825*
X02975Y01834*
X02974Y01843*
X02969Y01851*
X02961Y01856*
X02952Y01857*
G37*
G36*
X02925Y01714D02*
X02916Y01712D01*
X02908Y01707*
X02903Y01699*
X02902Y0169*
X02903Y01682*
X02906Y01678*
X02903Y01674*
X02902Y01665*
X02903Y01656*
X02906Y01652*
X02903Y01648*
X02902Y01639*
X02903Y0163*
X02908Y01623*
X02916Y01618*
X02925Y01616*
X02934Y01618*
X02941Y01623*
X02946Y0163*
X02948Y01639*
X02946Y01648*
X02943Y01652*
X02946Y01656*
X02948Y01665*
X02946Y01674*
X02943Y01678*
X02946Y01682*
X02948Y0169*
X02946Y01699*
X02941Y01707*
X02934Y01712*
X02925Y01714*
G37*
G36*
X02874Y01621D02*
X02865Y01619D01*
X02857Y01614*
X02852Y01607*
X0285Y01598*
X02852Y01589*
X02857Y01582*
X02865Y01577*
X02874Y01575*
X02882Y01577*
X0289Y01582*
X02895Y01589*
X02897Y01598*
X02895Y01607*
X0289Y01614*
X02882Y01619*
X02874Y01621*
G37*
G36*
X03641Y01554D02*
X03632Y01552D01*
X03625Y01547*
X0362Y0154*
X03618Y01531*
X0362Y01522*
X03625Y01515*
X03632Y0151*
X03641Y01508*
X0365Y0151*
X03658Y01515*
X03663Y01522*
X03664Y01531*
X03663Y0154*
X03658Y01547*
X0365Y01552*
X03641Y01554*
G37*
G36*
X03249Y01477D02*
X0324Y01476D01*
X03232Y01471*
X03227Y01463*
X03225Y01454*
X03227Y01445*
X03232Y01438*
X0324Y01433*
X03249Y01431*
X03257Y01433*
X03265Y01438*
X0327Y01445*
X03272Y01454*
X0327Y01463*
X03265Y01471*
X03257Y01476*
X03249Y01477*
G37*
G36*
X03102Y01864D02*
X03093Y01862D01*
X03086Y01857*
X03081Y0185*
X03079Y01841*
X03081Y01832*
X03086Y01825*
X03093Y0182*
X03102Y01818*
X03111Y0182*
X03116Y01823*
X03264*
X03361Y01725*
Y01517*
X03363Y0151*
X03367Y01504*
X03438Y01433*
X03439Y01428*
X03444Y0142*
X03451Y01415*
X0346Y01413*
X03469Y01415*
X03477Y0142*
X03482Y01428*
X03483Y01437*
X03482Y01445*
X03477Y01453*
X03469Y01458*
X03463Y01459*
X03398Y01525*
Y01733*
X03396Y0174*
X03392Y01746*
X03284Y01854*
X03278Y01858*
X03271Y01859*
X03116*
X03111Y01862*
X03102Y01864*
G37*
G36*
X0275Y01326D02*
X02741Y01324D01*
X02736Y01321*
X02731Y01324*
X02722Y01326*
X02713Y01324*
X02706Y01319*
X02701Y01312*
X02699Y01303*
X02701Y01294*
X02704Y01289*
X02701Y01284*
X02699Y01275*
X02701Y01266*
X02706Y01259*
X02713Y01254*
X02722Y01252*
X02731Y01254*
X02736Y01257*
X02741Y01254*
X0275Y01252*
X02758Y01254*
X02766Y01259*
X02771Y01266*
X02773Y01275*
X02771Y01284*
X02768Y01289*
X02771Y01294*
X02773Y01303*
X02771Y01312*
X02766Y01319*
X02758Y01324*
X0275Y01326*
G37*
G36*
X03586Y01219D02*
X03577Y01218D01*
X0357Y01213*
X03565Y01205*
X03563Y01196*
X03565Y01188*
X0357Y0118*
X03577Y01175*
X03586Y01173*
X03595Y01175*
X03602Y0118*
X03607Y01188*
X03609Y01196*
X03607Y01205*
X03602Y01213*
X03595Y01218*
X03586Y01219*
G37*
G36*
X05019Y01592D02*
X0501Y0159D01*
X05005Y01586*
X05001Y0159*
X04992Y01592*
X04983Y0159*
X04975Y01585*
X0497Y01577*
X04969Y01568*
X04969Y01566*
X04965Y01562*
X04959Y01563*
X0495Y01561*
X04945Y01558*
X0494Y01561*
X04932Y01563*
X0493Y01563*
X04927Y01566*
X04927Y01568*
X04925Y01577*
X0492Y01585*
X04913Y0159*
X04904Y01592*
X04895Y0159*
X0489Y01586*
X04885Y0159*
X04877Y01592*
X04868Y0159*
X0486Y01585*
X04855Y01577*
X04853Y01568*
X04854Y01566*
X0485Y01562*
X04845Y01563*
X04836Y01561*
X04831Y01558*
X04826Y01561*
X04817Y01563*
X04809Y01561*
X04801Y01556*
X04796Y01549*
X04794Y0154*
X04796Y01531*
X04801Y01524*
X04809Y01519*
X04817Y01517*
X04826Y01519*
X04831Y01522*
X04836Y01519*
X04845Y01517*
X04854Y01519*
X04861Y01524*
X04866Y01531*
X04868Y0154*
X04868Y01542*
X04872Y01546*
X04877Y01545*
X04885Y01547*
X0489Y0155*
X04895Y01547*
X04904Y01545*
X04905Y01546*
X04909Y01542*
X04909Y0154*
X0491Y01531*
X04915Y01524*
X04923Y01519*
X04932Y01517*
X0494Y01519*
X04945Y01522*
X0495Y01519*
X04959Y01517*
X04968Y01519*
X04976Y01524*
X04981Y01531*
X04982Y0154*
X04982Y01542*
X04986Y01546*
X04992Y01545*
X05001Y01547*
X05005Y0155*
X0501Y01547*
X05019Y01545*
X05028Y01547*
X05036Y01552*
X05041Y0156*
X05042Y01568*
X05041Y01577*
X05036Y01585*
X05028Y0159*
X05019Y01592*
G37*
G36*
X04165Y0211D02*
X04156Y02108D01*
X04148Y02103*
X04143Y02095*
X04141Y02086*
Y0196*
X04143Y01951*
X04148Y01943*
X04233Y01859*
Y0182*
X04232Y01819*
Y01771*
X04234Y01762*
X04237Y01757*
X04235Y01753*
X04233Y01745*
X04235Y01736*
X0424Y01728*
X04248Y01723*
X04256Y01722*
X04265Y01723*
X04273Y01728*
X04278Y01736*
X0428Y01745*
X04278Y01753*
X04275Y01757*
X04279Y01762*
X04281Y01771*
Y01818*
X04281Y01819*
Y01868*
X04279Y01878*
X04274Y01886*
X04189Y0197*
Y02086*
X04187Y02095*
X04182Y02103*
X04174Y02108*
X04165Y0211*
G37*
%LNmain_board-3*%
%LPD*%
G54D11*
X03775Y03956D02*
X03807Y03988D01*
X04529Y0166D02*
X04544D01*
X0446Y01729D02*
X04529Y0166D01*
X04455Y01729D02*
X0446D01*
X03944Y02964D02*
Y03322D01*
X04216Y03594D02*
Y03621D01*
X03944Y03322D02*
X04216Y03594D01*
X02897Y03065D02*
X03095Y03263D01*
Y034D02*
X03291Y03596D01*
X03095Y03263D02*
Y034D01*
X02897Y02759D02*
Y03065D01*
X03368Y03122D02*
X0347Y03224D01*
X0331Y03207D02*
X03365Y03262D01*
Y03265*
X03508Y03623D02*
Y03706D01*
X03341Y03792D02*
X03423D01*
X032Y03773D02*
X03322D01*
X03341Y03792*
X03423D02*
X03508Y03706D01*
X03146Y03827D02*
X032Y03773D01*
X03146Y03827D02*
Y03899D01*
X04189Y03346D02*
X04371D01*
X04426Y03401D02*
X04932D01*
X04371Y03346D02*
X04426Y03401D01*
X04173Y0333D02*
X04378D01*
X04434Y03385D02*
X04939D01*
X04378Y0333D02*
X04434Y03385D01*
X0444Y0337D02*
X04947D01*
X04145Y03315D02*
X04385D01*
X0444Y0337*
X04448Y03354D02*
X04955D01*
X04118Y03299D02*
X04393D01*
X04448Y03354*
X04133Y03401D02*
X04189Y03346D01*
X03326Y02811D02*
Y02888D01*
X03512Y03074*
Y03317*
X03263Y0283D02*
Y02883D01*
X03404Y03024D02*
Y03051D01*
X03263Y02883D02*
X03404Y03024D01*
X03297Y03118D02*
X0331Y0313D01*
Y03207*
X03224Y03118D02*
X03297D01*
X03368Y0308D02*
X03369Y03079D01*
X0337Y03078D02*
X03372Y03076D01*
X03379*
X03404Y03051*
X03368Y0308D02*
Y03122D01*
X0347Y03224D02*
Y03306D01*
X04955Y03354D02*
X05031Y0343D01*
Y04259*
X0409Y03622D02*
X04136D01*
X03421Y03355D02*
X0347Y03306D01*
X03421Y03355D02*
Y03379D01*
X03435Y03393*
X046Y04231D02*
X04602Y04233D01*
Y04244*
X04603Y04245*
X04232Y04141D02*
X04234Y04144D01*
X04192Y04141D02*
Y04161D01*
X04234Y04144D02*
Y04155D01*
X04173Y04152D02*
Y04165D01*
X04603Y04245D02*
Y04274D01*
X04234Y04155D02*
X04259Y04181D01*
X04389*
X04212Y04157D02*
X04252Y04196D01*
X04381*
X04192Y04161D02*
X04244Y04212D01*
X04374*
X04238Y0363D02*
Y03643D01*
X04238Y03614D02*
Y0363D01*
X04059Y03389D02*
X04258Y03589D01*
X04236Y03645D02*
X04238Y03643D01*
X04236Y03612D02*
X04238Y03614D01*
X04258Y03589D02*
Y03622D01*
X04238Y0363D02*
X04238Y0363D01*
X04216Y03621D02*
X04217Y03622D01*
X04177Y03602D02*
Y03621D01*
X04196Y03598D02*
Y03645D01*
X04176Y03622D02*
X04177Y03621D01*
X0424Y03852D02*
X04241Y03853D01*
X04239Y03813D02*
X0424Y03812D01*
X04074Y03852D02*
X0424D01*
X0409Y03813D02*
X04239D01*
X04082Y03832D02*
X0426D01*
X03529Y03307D02*
X04074Y03852D01*
X04239Y03726D02*
X0424Y03725D01*
X04111Y03726D02*
X04239D01*
X04099Y03766D02*
X0424D01*
X0426Y03788D02*
X04262Y03786D01*
X04255Y03788D02*
X0426D01*
X04253Y0379D02*
X04255Y03788D01*
X04095Y0379D02*
X04253D01*
X04261Y03832D02*
X04262Y03831D01*
X03647Y03204D02*
X04088Y03645D01*
X03647Y03017D02*
Y03204D01*
X04088Y03645D02*
X04118D01*
X0363Y03024D02*
Y03246D01*
X04111Y03726*
X03596Y03037D02*
Y03263D01*
X04099Y03766*
X03579Y03044D02*
Y03274D01*
X04095Y0379*
X03563Y03051D02*
Y03285D01*
X0409Y03813*
X03529Y03065D02*
Y03307D01*
X03546Y03058D02*
Y03296D01*
X04082Y03832*
X04072Y03878D02*
X04252D01*
X03512Y03317D02*
X04072Y03878D01*
X03291Y03596D02*
X03649D01*
X03708Y03655D02*
X03767D01*
X03649Y03596D02*
X03708Y03655D01*
X03802Y0369D02*
Y03863D01*
X03767Y03655D02*
X03802Y0369D01*
X03325Y02791D02*
Y02809D01*
X03326Y02811*
X03325Y02791D02*
X03326Y02789D01*
X03346Y02801D02*
Y02882D01*
X03345Y028D02*
X03346Y02801D01*
X03326Y02736D02*
Y02789D01*
X03346Y02882D02*
X03529Y03065D01*
X03664Y0301D02*
Y03195D01*
X0409Y03622*
X04236Y0359D02*
Y03612D01*
X04157Y03606D02*
Y03612D01*
X03913Y03338D02*
X04177Y03602D01*
X04043Y03397D02*
X04236Y0359D01*
X03929Y0333D02*
X04196Y03598D01*
X03913Y0298D02*
Y03338D01*
X03929Y02972D02*
Y0333D01*
X04043Y02818D02*
Y03397D01*
X04104Y03746D02*
X04263D01*
X04566Y04311D02*
X04603Y04274D01*
X04627Y04253D02*
Y04274D01*
X04574Y04326D02*
X04627Y04274D01*
X04581Y04253D02*
Y04272D01*
X04258Y03872D02*
X0426D01*
X04252Y03878D02*
X04258Y03872D01*
X04582Y04342D02*
X04653Y04271D01*
X04646Y04232D02*
Y04234D01*
X04653Y04241*
Y04271*
X03813Y02752D02*
X03997D01*
X04059Y02813D02*
Y03389D01*
X03997Y02752D02*
X04059Y02813D01*
X03759Y02698D02*
X03813Y02752D01*
X03759Y02732D02*
X03794Y02767D01*
X03759Y02732D02*
D01*
X03992Y02767D02*
X04043Y02818D01*
X03794Y02767D02*
X03992D01*
X0373Y02703D02*
X03759Y02732D01*
X03804Y02823D02*
X03944Y02964D01*
X03763Y02823D02*
X03804D01*
X03742Y02802D02*
X03763Y02823D01*
X03722Y02813D02*
X03747Y02837D01*
X03722Y02794D02*
D01*
X03747Y02837D02*
X03794D01*
X03929Y02972*
X03835Y02902D02*
X03913Y0298D01*
X03702Y02802D02*
X03703Y02802D01*
Y02821*
X03784Y02902*
X03835*
X03779Y02916D02*
X03826D01*
X03897Y02988D02*
Y03346D01*
X04157Y03606*
X03826Y02916D02*
X03897Y02988D01*
X03683Y0282D02*
X03779Y02916D01*
X03598Y0288D02*
X03663Y02815D01*
X03598Y0288D02*
Y02944D01*
X03664Y0301*
X03663Y02802D02*
Y02815D01*
X03582Y02873D02*
Y02952D01*
X03647Y03017*
X03582Y02873D02*
X03643Y02812D01*
X041Y034D02*
X04101Y03401D01*
X04133*
X04984Y03453D02*
Y04224D01*
X04932Y03401D02*
X04984Y03453D01*
X04905Y04267D02*
X0494D01*
X04984Y04224*
X05Y03446D02*
Y04236D01*
X04885Y04291D02*
X04944D01*
X04131Y03372D02*
X04173Y0333D01*
X04939Y03385D02*
X05Y03446D01*
X04858Y04263D02*
X04885Y04291D01*
X04944D02*
X05Y04236D01*
X0411Y03374D02*
X04112Y03372D01*
X04131*
X04846Y04232D02*
X0486D01*
X0483Y04248D02*
X04846Y04232D01*
X04956Y04307D02*
X05015Y04248D01*
X0483Y04271D02*
X04866Y04307D01*
X04122Y03338D02*
X04145Y03315D01*
X04866Y04307D02*
X04956D01*
X04122Y03338D02*
Y03339D01*
X05015Y03438D02*
Y04248D01*
X04947Y0337D02*
X05015Y03438D01*
X0483Y04248D02*
Y04271D01*
X04088Y03328D02*
Y03348D01*
X04968Y04322D02*
X05031Y04259D01*
X04807Y0424D02*
X04841Y04205D01*
X04807Y0424D02*
Y04275D01*
X04088Y03328D02*
X04118Y03299D01*
X04854Y04322D02*
X04968D01*
X04807Y04275D02*
X04854Y04322D01*
X04086Y0335D02*
X04088Y03348D01*
X04841Y04205D02*
X04882D01*
X0448Y04342D02*
X04582D01*
X04366Y04228D02*
X0448Y04342D01*
X04236Y04228D02*
X04366D01*
X04173Y04165D02*
X04236Y04228D01*
X04488Y04326D02*
X04574D01*
X04374Y04212D02*
X04488Y04326D01*
X04381Y04196D02*
X04496Y04311D01*
X04566*
X04559Y04295D02*
X04581Y04272D01*
X04389Y04181D02*
X04503Y04295D01*
X04559*
X04551Y04279D02*
X04561Y04269D01*
X04275Y04118D02*
Y04149D01*
X04511Y04279D02*
X04551D01*
X04275Y04149D02*
X04291Y04165D01*
X04397D02*
X04511Y04279D01*
X04291Y04165D02*
X04397D01*
X04405Y04149D02*
X04508Y04253D01*
X04312Y04149D02*
X04405D01*
X04508Y04253D02*
X04541D01*
X04301Y04141D02*
X04304D01*
X04312Y04149*
X03464Y02858D02*
X0363Y03024D01*
X03464Y02802D02*
Y02858D01*
X03445Y02862D02*
X03613Y0303D01*
X03445Y02739D02*
X03447Y02736D01*
X03613Y0303D02*
Y03254D01*
X04104Y03746*
X03425Y02866D02*
X03596Y03037D01*
X03425Y02802D02*
Y02866D01*
X03405Y02738D02*
X03407Y02736D01*
X03405Y0287D02*
X03579Y03044D01*
X03386Y02802D02*
Y02874D01*
X03563Y03051*
X03326Y02736D02*
X03342Y0272D01*
X03366Y02738D02*
X03368Y02736D01*
X03366Y02878D02*
X03546Y03058D01*
X04882Y04205D02*
X04905Y04228D01*
X03869Y04282D02*
Y04296D01*
X03872Y04299*
X03846Y04259D02*
X03869Y04282D01*
X03146Y04079D02*
X03184Y04117D01*
X03146Y03899D02*
Y04079D01*
X04572Y01332D02*
X04641Y01401D01*
X04338Y01225D02*
Y01338D01*
X04462Y01309D02*
X04486Y01332D01*
X04433Y01338D02*
X04462Y01309D01*
X04294Y01181D02*
X04338Y01225D01*
X04462Y01309D02*
X04492Y01279D01*
Y01215D02*
Y01279D01*
X04338Y01338D02*
X04433D01*
X04486Y01332D02*
X04572D01*
X04362Y01559D02*
X04366Y01555D01*
X04417*
X04469Y01503*
X04433Y01576D02*
X04497Y01513D01*
Y01443D02*
X04511Y01429D01*
X04497Y01443D02*
Y01513D01*
X04511Y01429D02*
X04563D01*
X04389Y01576D02*
X04433D01*
X04469Y01436D02*
Y01503D01*
X04496Y01409D02*
X04537D01*
X04545Y01401D02*
X04547D01*
X04537Y01409D02*
X04545Y01401D01*
X04469Y01436D02*
X04496Y01409D01*
X03775Y03889D02*
Y03956D01*
Y03889D02*
X03802Y03863D01*
X02794Y02656D02*
X02897Y02759D01*
X02791Y02656D02*
X02794D01*
X03379Y01517D02*
Y01733D01*
X03271Y01841D02*
X03379Y01733D01*
X03102Y01841D02*
X03271D01*
X03379Y01517D02*
X0346Y01437D01*
G54D12*
X0373Y04084D02*
X03733Y04081D01*
X03682Y04084D02*
X0373D01*
X03656Y04089D02*
X03677D01*
X03682Y04084*
X03651D02*
X03656Y04089D01*
X03799Y04012D02*
X03811D01*
X03829Y03994*
Y03986D02*
Y03994D01*
X03846Y03948D02*
Y03969D01*
X03829Y03986D02*
X03846Y03969D01*
X03782Y03611D02*
X03845Y03674D01*
Y03689*
X03776Y03611D02*
X03782D01*
X03481Y01534D02*
Y01536D01*
X03472Y01545D02*
X03481Y01536D01*
X04948Y01913D02*
X04957Y01904D01*
X04991D02*
X05Y01913D01*
X04957Y01904D02*
X04991D01*
X05Y01913D02*
Y01916D01*
X0501Y0338D02*
X0504Y03411D01*
X04586Y02026D02*
Y02034D01*
X04569Y02009D02*
X04586Y02026D01*
X04529Y02009D02*
X04569D01*
X04586Y02034D02*
X04588Y02037D01*
X04529Y02009D02*
Y0201D01*
X04514Y02025D02*
X04529Y0201D01*
X04514Y02025D02*
Y02053D01*
X04524Y02063*
X04377Y04099D02*
X04379Y04102D01*
Y04109*
X04378Y0411D02*
X04379Y04109D01*
X04378Y0411D02*
Y04129D01*
X04385Y04136D02*
X04417D01*
X04378Y04129D02*
X04385Y04136D01*
X04417D02*
X04418Y04136D01*
X04014Y04271D02*
X04023Y04261D01*
X04014Y04303D02*
X04021Y0431D01*
X04014Y04271D02*
Y04303D01*
X04021Y0431D02*
Y04312D01*
X04069Y04126D02*
X04075Y0412D01*
X04069Y04126D02*
Y04183D01*
X04088Y04202*
X04099*
X03926Y02558D02*
X03929Y02556D01*
X03859Y02558D02*
X03926D01*
X04165Y02368D02*
Y02383D01*
X04099Y02449D02*
X04165Y02383D01*
X04099Y02449D02*
Y0258D01*
X04094Y02585D02*
X04099Y0258D01*
X05057Y01859D02*
Y01917D01*
X05055Y01919D02*
X05057Y01917D01*
X05037Y01834D02*
X05057Y01814D01*
Y01748D02*
Y01814D01*
X04362Y03921D02*
X04365Y03918D01*
X04332Y03921D02*
X04362D01*
X03558Y03554D02*
X03567Y03545D01*
X03539Y03554D02*
X03558D01*
X03535Y0355D02*
X03539Y03554D01*
X03524Y0355D02*
X03535D01*
X03103Y03098D02*
X0313Y03125D01*
X03103Y03098D02*
Y03098D01*
X04539Y02939D02*
X04542Y02936D01*
X04665D02*
X04676Y02924D01*
X04542Y02936D02*
X04665D01*
X04931Y02149D02*
X04951Y02128D01*
X04931Y02149D02*
Y02161D01*
X04668Y0233D02*
X0468Y02318D01*
X04668Y0233D02*
Y0236D01*
X04661Y02367D02*
X04668Y0236D01*
X0463Y02324D02*
X04634Y0232D01*
X0463Y02324D02*
Y02361D01*
X04632Y02362*
X04717Y02077D02*
X04726Y02067D01*
X04716Y02077D02*
X04717D01*
X04675Y02041D02*
X04685Y0203D01*
X04688*
X04708Y0201*
Y02007D02*
Y0201D01*
X04893Y0196D02*
X04893Y0196D01*
X04847Y0196D02*
X04893D01*
X04821Y01986D02*
X04847Y0196D01*
X04816Y01986D02*
X04821D01*
G54D13*
X03223Y0279D02*
Y02914D01*
X03286Y02725D02*
Y02876D01*
X03447Y03037*
Y0305D02*
X03447Y0305D01*
X03447Y03037D02*
Y0305D01*
X03244Y02897D02*
X03286Y0294D01*
Y02941*
X04173Y04118D02*
Y04152D01*
X04212Y04118D02*
Y04157D01*
X04156Y03644D02*
X04157Y03645D01*
X04156Y03613D02*
Y03644D01*
Y03613D02*
X04157Y03612D01*
X0426Y03832D02*
X04261Y03831D01*
X03244Y02804D02*
Y02897D01*
X03286Y02725D02*
X03303Y02708D01*
X03722Y02794D02*
Y02813D01*
Y02736D02*
Y02794D01*
X03683Y02736D02*
Y0282D01*
X03643Y02736D02*
Y02812D01*
X04561Y0423D02*
Y04269D01*
X03445Y02739D02*
Y02862D01*
X03405Y02738D02*
Y0287D01*
X03366Y02738D02*
Y02878D01*
X0435Y04263D02*
X04372D01*
X04381Y04272D02*
X04384D01*
X04372Y04263D02*
X04381Y04272D01*
X04514Y04402D02*
X04577D01*
X04384Y04272D02*
X04514Y04402D01*
X03943Y04019D02*
X03955Y04007D01*
X03899Y04172D02*
X03943Y04128D01*
Y04019D02*
Y04128D01*
X03893Y04177D02*
X03897Y04172D01*
X03899*
X03889Y04177D02*
X03893D01*
X03955Y04007D02*
X03989D01*
X0399Y04008*
X04481Y02918D02*
X04655D01*
X0448Y02917D02*
X04481Y02918D01*
X04893Y04402D02*
X0493D01*
X03836Y04415D02*
Y04436D01*
X03841Y04441*
Y04443*
X03129Y04401D02*
X03131Y04398D01*
X03126Y04401D02*
X03129D01*
X03126Y04401D02*
X03126Y04401D01*
X03094Y04401D02*
X03126D01*
X02541Y02796D02*
X0255Y02788D01*
X02541Y02796D02*
Y03771D01*
X02677Y03907*
X02896*
X03181Y04192*
X03662*
X03669Y04185*
X04877Y02141D02*
X04946Y02071D01*
Y02014D02*
Y02071D01*
X02829Y02398D02*
X02832Y02395D01*
X02783Y02507D02*
X02807Y02531D01*
X02783Y02476D02*
Y02507D01*
X02849Y02369D02*
X02877D01*
X02832Y02385D02*
Y02395D01*
Y02385D02*
X02849Y02369D01*
X02594Y03712D02*
X02653Y03653D01*
Y03519D02*
Y03653D01*
X02637Y03503D02*
X02653Y03519D01*
X04655Y02918D02*
X04707Y02866D01*
Y02652D02*
Y02866D01*
Y02652D02*
X04877Y02483D01*
X02637Y03502D02*
Y03503D01*
X04877Y02141D02*
Y02483D01*
X04048Y04401D02*
X04063Y04387D01*
X04048Y04401D02*
X04048D01*
X04063Y04279D02*
Y04387D01*
X03223Y0279D02*
X0323Y02783D01*
Y02734D02*
Y02783D01*
X03244Y02804D02*
X03244Y02803D01*
X0321Y02942D02*
X03242D01*
X03243Y02941*
X03192Y02925D02*
X0321Y02942D01*
X03192Y02815D02*
Y02925D01*
Y02815D02*
X03201Y02806D01*
Y02806D02*
Y02806D01*
G54D15*
X03168Y02052D02*
X0323Y0199D01*
X03332D02*
X0335Y01972D01*
X0323Y0199D02*
X03332D01*
X03119Y02052D02*
X03168D01*
X0335Y01972D02*
X0374D01*
X03815Y01897*
X0394D02*
X03944Y01893D01*
X03815Y01897D02*
X0394D01*
X03491Y03886D02*
X03516Y03861D01*
X03413Y03886D02*
X03491D01*
X03535Y03752D02*
Y03797D01*
X03516Y03816D02*
X03535Y03797D01*
X03516Y03816D02*
Y03861D01*
X03545*
G54D18*
X04656Y01343D03*
X05083D03*
G54D19*
X04656Y01166D03*
X05083D03*
G54D203*
X04105Y0274D02*
X04133Y02711D01*
Y02464D02*
Y02711D01*
X02979Y02232D02*
X02984Y02227D01*
X02976Y02232D02*
X02979D01*
X02921Y02255D02*
X02938Y02272D01*
X03011Y0297D02*
X03102Y03061D01*
X03094Y03031D02*
X03109D01*
X02921Y0305D02*
X03126Y03254D01*
X02921Y02574D02*
Y0305D01*
X03126Y03254D02*
Y03388D01*
X05126Y03327D02*
Y04267D01*
X04745Y03039D02*
X04837D01*
X05126Y03327*
X0497Y04423D02*
X05126Y04267D01*
X04461Y03085D02*
Y03329D01*
Y03085D02*
X04562Y02985D01*
X03027Y02492D02*
Y02964D01*
X03094Y03031*
X03011Y025D02*
Y0297D01*
X02956Y02421D02*
X03027Y02492D01*
X029Y02388D02*
X03011Y025D01*
X03555Y04107D02*
X03737D01*
X04001Y03843*
X0378Y03632D02*
X03824Y03677D01*
X03815Y03917D02*
X03824Y03907D01*
Y03677D02*
Y03907D01*
X03724Y03632D02*
X0378D01*
X03663Y03571D02*
X03724Y03632D01*
X03309Y03571D02*
X03663D01*
X03126Y03388D02*
X03309Y03571D01*
X04505Y04423D02*
X0497D01*
X04184Y04291D02*
X04374D01*
X04505Y04423*
X03925Y04007D02*
X03944Y03988D01*
X0388Y04153D02*
X03925Y04109D01*
Y04007D02*
Y04109D01*
X03673Y04153D02*
X0388D01*
X04448Y01685D02*
X04453D01*
X0452Y01618*
X04357Y01701D02*
X04382D01*
X02578Y01795D02*
Y01897D01*
X0261Y01929*
Y02094*
X02623Y02108*
X02606Y01767D02*
Y01893D01*
X02689Y01976*
X02606Y01767D02*
X02615Y01758D01*
Y01661D02*
Y01758D01*
X02584Y0163D02*
X02615Y01661D01*
X02689Y01976D02*
Y02074D01*
X02527Y0171D02*
X02553Y01685D01*
X02527Y0171D02*
Y02047D01*
X02759Y025D02*
Y02607D01*
X02638Y02079D02*
X02759Y022D01*
Y025*
X04492Y02661D02*
Y02846D01*
Y02661D02*
X04574Y02578D01*
X04791Y01417D02*
X0498D01*
X04289Y02017D02*
Y02281D01*
Y02017D02*
X04289Y02017D01*
X04114Y02456D02*
X04289Y02281D01*
X04529Y01636D02*
X05014D01*
X05045Y01668*
X05076Y01657D02*
Y01976D01*
X05037Y01618D02*
X05076Y01657D01*
X0452Y01618D02*
X05037D01*
X04054Y04014D02*
Y04188D01*
X04027Y03988D02*
X04054Y04014D01*
Y04188D02*
X04124Y04257D01*
X04047Y02602D02*
X04084Y02564D01*
Y02442D02*
Y02564D01*
Y02442D02*
X04145Y02381D01*
X04066Y02429D02*
X04118Y02377D01*
X04039Y02578D02*
X04066Y02551D01*
Y02429D02*
Y02551D01*
X05007Y02201D02*
X05031Y02178D01*
X03631Y04144D02*
X03643Y04132D01*
X0358Y04144D02*
X03631D01*
X03643Y04132D02*
X03745D01*
X03516Y04145D02*
X03555Y04107D01*
X0413Y02833D02*
X04173Y02791D01*
X0413Y02833D02*
Y02927D01*
X04138Y02935*
Y02956*
X04137Y02957D02*
X04138Y02956D01*
X02685Y03889D02*
X02905D01*
X03189Y04173D02*
X03653D01*
X02905Y03889D02*
X03189Y04173D01*
X02889Y03925D02*
X03172Y04207D01*
X02669Y03925D02*
X02889D01*
X03172Y04207D02*
X03763D01*
X02661Y03944D02*
X02881D01*
X03162Y04225D02*
X03728D01*
X02881Y03944D02*
X03162Y04225D01*
X02874Y03964D02*
X03153Y04244D01*
X03421*
X02653Y03964D02*
X02874D01*
X02523Y03779D02*
X02669Y03925D01*
X02503Y03787D02*
X02661Y03944D01*
X02484Y03795D02*
X02653Y03964D01*
X02464Y03803D02*
X02645Y03984D01*
X02866D02*
X03078Y04196D01*
X02645Y03984D02*
X02866D01*
X02556Y0376D02*
X02685Y03889D01*
X03078Y04196D02*
Y04346D01*
X02556Y02811D02*
X02759Y02607D01*
X02556Y02811D02*
Y0376D01*
X03208Y02602D02*
X04047D01*
X03129Y02681D02*
X03208Y02602D01*
X03094Y02681D02*
Y02811D01*
Y02681D02*
X03196Y02578D01*
X03129Y02681D02*
Y02811D01*
X04145Y02338D02*
Y02381D01*
X04118Y02248D02*
Y02377D01*
X03196Y02578D02*
X04039D01*
X04681Y02343D02*
Y025D01*
Y02343D02*
X04737Y02287D01*
X04602Y02578D02*
X04681Y025D01*
X03937Y0394D02*
X04488D01*
X03745Y04132D02*
X03937Y0394D01*
X02503Y02777D02*
X02637Y02643D01*
X02469Y02335D02*
X02637Y02503D01*
Y02643*
X03493Y04145D02*
X03516D01*
X0274Y03704D02*
X02778D01*
X02689Y03653D02*
X0274Y03704D01*
X03764Y04261D02*
Y04316D01*
X03728Y04225D02*
X03764Y04261D01*
X04316Y01742D02*
X04357Y01701D01*
X02584Y0149D02*
Y0163D01*
X02551Y01456D02*
X02584Y0149D01*
X03603Y04287D02*
X03631Y04259D01*
X03464Y04287D02*
X03603D01*
X03421Y04244D02*
X0344Y04263D01*
X03464Y04287*
X02874Y02199D02*
Y0221D01*
X02876Y02211*
X02834Y02159D02*
X02874Y02199D01*
X02834Y01945D02*
Y02159D01*
X02853Y02213D02*
Y02332D01*
X02818Y01956D02*
Y02179D01*
X02853Y02213*
X02866Y02143D02*
X02921Y02198D01*
X02866Y01924D02*
Y02143D01*
X02921Y02198D02*
Y02255D01*
X029Y02203D02*
Y02388D01*
X0285Y01935D02*
Y02153D01*
X029Y02203*
X02671Y01692D02*
Y0173D01*
X02593Y03365D02*
X02689Y0346D01*
Y03653*
Y02074D02*
X02826Y02212D01*
Y02357*
X02785Y01923D02*
X02818Y01956D01*
X02794Y01905D02*
X02834Y01945D01*
X02768Y01853D02*
X0285Y01935D01*
X02799Y01857D02*
X02866Y01924D01*
X02881Y01877D02*
Y02031D01*
X02908Y02058*
X02857Y01852D02*
X02881Y01877D01*
X02897Y02019D02*
X02918Y0204D01*
X02897Y01866D02*
Y02019D01*
X02849Y01817D02*
X02897Y01866D01*
X02908Y02058D02*
X02952D01*
X02918Y0204D02*
X0296D01*
X02952Y02058D02*
X03002Y02107D01*
Y02209*
X02993Y02217D02*
X03002Y02209D01*
X02984Y02227D02*
X02993Y02217D01*
X02783Y024D02*
X02826Y02357D01*
X02783Y024D02*
Y02437D01*
X02921Y02574*
X02956Y02294D02*
Y02421D01*
X02488Y02326D02*
X02529Y02368D01*
X02488Y02086D02*
Y02326D01*
Y02086D02*
X02527Y02047D01*
X02469Y02077D02*
X02503Y02043D01*
X02469Y02077D02*
Y02335D01*
X02511Y02126D02*
X02566Y02181D01*
X02511Y0209D02*
Y02126D01*
X02529Y02368D02*
X02578D01*
X02566Y02181D02*
Y02311D01*
X04159Y04266D02*
X04184Y04291D01*
X03944Y03988D02*
X04027D01*
X04488Y0394D02*
X04543Y03885D01*
Y03677D02*
Y03885D01*
X03653Y04173D02*
X03673Y04153D01*
X0273Y01813D02*
X02757D01*
X02709Y01792D02*
X0273Y01813D01*
X02757D02*
X02768Y01825D01*
X02709Y01768D02*
Y01792D01*
X02838Y01815D02*
X0284Y01817D01*
X02849*
X02835Y01852D02*
X02857D01*
X02833Y01854D02*
X02835Y01852D01*
X02658Y0182D02*
Y01842D01*
X0263Y01792D02*
X02658Y0182D01*
X02679Y01791D02*
Y0183D01*
X02754Y01905*
X04554Y02952D02*
X04874D01*
X04428Y03078D02*
X04554Y02952D01*
X04874D02*
X05086Y0274D01*
X04613Y02597D02*
X04702Y02507D01*
X04585Y02597D02*
X04613D01*
X04517Y02665D02*
X04585Y02597D01*
X04517Y02665D02*
Y02844D01*
X04702Y02358D02*
Y02507D01*
X04574Y02578D02*
X04602D01*
X05031Y0205D02*
Y02178D01*
Y0205D02*
X05093Y01988D01*
X05051Y02059D02*
Y02207D01*
Y02059D02*
X0511Y02D01*
X05036Y02222D02*
X05051Y02207D01*
X0507Y02067D02*
X05126Y02012D01*
X0507Y02067D02*
Y02181D01*
X05086Y02196*
X02956Y02294D02*
X03019Y02231D01*
X02464Y02729D02*
Y03803D01*
X02433Y02697D02*
X02464Y02729D01*
X02523Y02786D02*
Y03779D01*
X02503Y02777D02*
Y03787D01*
X02708Y02519D02*
Y02601D01*
X02523Y02786D02*
X02708Y02601D01*
X02671Y0173D02*
X02709Y01768D01*
X02768Y01825D02*
Y01853D01*
X02503Y01874D02*
Y02043D01*
X02547Y01755D02*
X02566Y01736D01*
X02547Y01755D02*
Y02055D01*
X02658Y01842D02*
X02739Y01923D01*
X02785*
X02754Y01905D02*
X02794D01*
X02799Y01843D02*
Y01857D01*
X02799Y01843D02*
X02799Y01843D01*
X04151Y03078D02*
X04428D01*
X04517Y02844D02*
X04534Y02861D01*
X04736Y02096D02*
Y02103D01*
X04737Y02103D02*
Y02287D01*
X04734Y02094D02*
X04736Y02096D01*
Y02103D02*
X04737Y02103D01*
X04899Y02403D02*
X04921Y02425D01*
X04899Y02153D02*
X05076Y01976D01*
X04899Y02153D02*
Y02403D01*
X04871Y01682D02*
X04975Y01786D01*
Y018*
X04532Y01682D02*
X04871D01*
X04362Y02038D02*
Y02295D01*
Y02038D02*
X04386Y02013D01*
X04173Y02484D02*
X04362Y02295D01*
X04386Y01827D02*
X04532Y01682D01*
X04341Y02001D02*
Y02288D01*
X04153Y02476D02*
X04341Y02288D01*
Y02001D02*
X04351Y01991D01*
X04413Y01706D02*
X04459D01*
X04529Y01636*
X04386Y01827D02*
Y02013D01*
X04316Y01742D02*
Y02281D01*
X04133Y02464D02*
X04316Y02281D01*
X04153Y02476D02*
Y02724D01*
X04173Y02484D02*
Y02791D01*
X04702Y02358D02*
X04763Y02297D01*
Y02101D02*
Y02297D01*
X03763Y04207D02*
X03819Y04263D01*
Y04301*
X03816Y04304D02*
X03819Y04301D01*
X03078Y04346D02*
X03112Y04379D01*
X02484Y02729D02*
Y03795D01*
X0511Y01511D02*
Y02D01*
X05126Y01496D02*
Y02012D01*
X05093Y0153D02*
Y01988D01*
X05086Y02196D02*
Y0274D01*
X02452Y02685D02*
X02484Y02716D01*
Y02728*
X04075Y02767D02*
X04086Y02778D01*
X04075Y02727D02*
X04114Y02689D01*
X04075Y02727D02*
Y02767D01*
X04137Y0274D02*
X04153Y02724D01*
X02511Y0209D02*
X02547Y02055D01*
X02984Y02227D02*
D01*
X04141Y0307D02*
X04143D01*
X04151Y03078*
X02425Y02548D02*
X02433Y02556D01*
X02425Y02547D02*
Y02548D01*
X02433Y02556D02*
Y02697D01*
X02452Y02531D02*
Y02685D01*
X02425Y02503D02*
X02452Y02531D01*
X02566Y02311D02*
X0261Y02354D01*
Y02366*
X03019Y02099D02*
Y02231D01*
X04626Y03594D02*
X0494D01*
X04543Y03677D02*
X04626Y03594D01*
X0296Y0204D02*
X03019Y02099D01*
X04094Y02224D02*
X04118Y02248D01*
X04114Y02456D02*
Y02689D01*
X0498Y01417D02*
X05093Y0153D01*
X04783Y01287D02*
X05015D01*
X05043Y01315D02*
Y01413D01*
X05015Y01287D02*
X05043Y01315D01*
X05023Y01326D02*
Y01425D01*
X05007Y01311D02*
X05023Y01326D01*
Y01425D02*
X0511Y01511D01*
X04728Y01342D02*
X04783Y01287D01*
X04807Y01311D02*
X05007D01*
X04775Y01342D02*
X04807Y01311D01*
X05043Y01413D02*
X05126Y01496D01*
G54D204*
X0346Y01588D02*
X03515Y01533D01*
Y01314D02*
Y01533D01*
Y01314D02*
X03538Y01291D01*
X0368D02*
X03723Y01248D01*
X03834*
X03884Y01197D02*
X04012D01*
X03834Y01248D02*
X03884Y01197D01*
X03538Y01291D02*
X0368D01*
X03909Y01254D02*
X03925Y01239D01*
X03874Y01436D02*
X03909Y014D01*
Y01254D02*
Y014D01*
X03874Y01436D02*
Y0153D01*
X03826Y01577D02*
X03874Y0153D01*
X03826Y0172D02*
X03944Y01838D01*
X03826Y01577D02*
Y0172D01*
X03873Y0158D02*
X03892Y016D01*
X0419*
X04263Y01673D02*
X04421D01*
X0419Y016D02*
X04263Y01673D01*
X04421D02*
X04464Y01629D01*
Y01594D02*
Y01629D01*
G54D205*
X05041Y01934D02*
X05055Y01919D01*
X05035Y01934D02*
X05041D01*
G54D206*
X0288Y02393D02*
Y02403D01*
X02879Y02392D02*
X0288Y02393D01*
X02879Y02371D02*
Y02392D01*
X02877Y02369D02*
X02879Y02371D01*
G54D207*
X03956Y04358D02*
X03995Y04319D01*
X03732Y04358D02*
X03956D01*
X03712Y04338D02*
X03732Y04358D01*
X03995Y04244D02*
Y04319D01*
X03712Y04303D02*
Y04338D01*
X04334Y01377D02*
Y01567D01*
X04396Y01629*
X04018Y01263D02*
X04185D01*
X03996Y01285D02*
X04018Y01263D01*
X04185D02*
X04217Y01296D01*
X03956Y01265D02*
X03994Y01228D01*
X03956Y01265D02*
Y01285D01*
X03994Y01228D02*
X04244D01*
X04289Y01273*
X04217Y01296D02*
Y01352D01*
X03995Y04244D02*
X04006Y04233D01*
Y04065D02*
Y04233D01*
X03972Y04031D02*
X04006Y04065D01*
X04289Y01331D02*
X04334Y01377D01*
X04284D02*
X04307Y01399D01*
Y01534*
X04289Y01273D02*
Y01331D01*
X04242Y01377D02*
X04284D01*
X04217Y01352D02*
X04242Y01377D01*
G54D208*
X03039Y04385D02*
X03079Y04426D01*
X03608D02*
X03633Y044D01*
X03079Y04426D02*
X03608D01*
X03275Y03885D02*
Y03972D01*
X03633Y0435D02*
X03681Y04303D01*
X03633Y0435D02*
Y044D01*
X04256Y01771D02*
Y01819D01*
X04257Y01819*
Y01868*
X04165Y0196D02*
X04257Y01868D01*
X04165Y0196D02*
Y02086D01*
G54D210*
X03069Y03483D02*
X0307Y03484D01*
X02741Y03142D02*
X03069Y03471D01*
Y03483*
X02687Y03142D02*
X02741D01*
X02745Y03285D02*
X02928Y03468D01*
X03007*
X03058Y03518*
X03069*
X0307Y03519*
X02745Y0319D02*
Y03285D01*
X02687Y03106D02*
X02833D01*
X02859Y03131*
G54D211*
X02791Y02997D02*
X02905Y03111D01*
Y0315*
X02891Y03164D02*
Y0323D01*
X02988Y03606D02*
Y03673D01*
X02791Y02731D02*
Y02997D01*
X03041Y03686D02*
X03065Y0371D01*
X03239*
X03304Y03645*
X03386*
X03397Y03656*
X02891Y0323D02*
X02988Y03326D01*
Y03342D02*
X03121Y03475D01*
X02988Y03326D02*
Y03342D01*
X03121Y03475D02*
Y03545D01*
X02781Y02721D02*
X02791Y02731D01*
X02988Y03606D02*
X03006Y03587D01*
X03078*
X02988Y03673D02*
X03Y03686D01*
X03041*
X03078Y03587D02*
X03121Y03545D01*
X02913Y03551D02*
X0294D01*
X02854Y03475D02*
Y03522D01*
X02882Y03551D02*
X02913D01*
X02784Y03405D02*
X02854Y03475D01*
Y03522D02*
X02882Y03551D01*
X03397Y03656D02*
Y03758D01*
X02751Y02721D02*
X02781D01*
X02891Y03164D02*
X02905Y0315D01*
X02646Y0301D02*
Y0317D01*
Y0301D02*
X02689Y02968D01*
Y02948D02*
Y02968D01*
X02629Y02818D02*
Y02846D01*
X02605Y03306D02*
X02704Y03405D01*
X02605Y02871D02*
X02629Y02846D01*
X02605Y02871D02*
Y03306D01*
X02689Y02783D02*
X02751Y02721D01*
X02704Y03405D02*
X02784D01*
X02689Y02783D02*
Y02948D01*
G54D213*
X03972Y01866D02*
X04015Y01909D01*
Y02444*
X03943Y02516D02*
X04015Y02444D01*
X03906Y02516D02*
X03943D01*
X03968Y01862D02*
X03972Y01866D01*
G54D219*
X02427Y02116D02*
X02437Y02106D01*
X02427Y02116D02*
Y02423D01*
X02472Y02468*
X02527*
X02559Y02598D02*
X02566D01*
X02527Y02468D02*
X02543Y02484D01*
Y02582D02*
X02559Y02598D01*
X02543Y02484D02*
Y02582D01*
G54D221*
X03806Y01172D03*
Y0132D03*
X04146D03*
Y01172D03*
G54D222*
X04913Y0448D03*
Y04374D03*
X04559D03*
Y0448D03*
X03267Y04374D03*
Y0448D03*
G54D223*
X05145Y02141D03*
X05239Y03996D03*
X02464Y04433D03*
G54D224*
X03807Y03988D03*
X04105Y0274D03*
X03137Y03597D03*
X03547Y01318D03*
X04975Y01923D03*
X02518Y02708D03*
X02948Y01228D03*
Y012D03*
X02921Y01173D03*
X03223Y02914D03*
X03197Y02992D03*
X05035Y01762D03*
X05034Y01697D03*
X02976Y02232D03*
X02938Y02272D03*
X03159Y03157D03*
X03102Y03061D03*
X03109Y03031D03*
X03885Y01271D03*
Y01299D03*
X03842Y01507D03*
X04937Y04153D03*
X0509Y03377D03*
X05038Y03351D03*
X05065Y03377D03*
X04386Y0353D03*
X03447Y0305D03*
X03368Y03028D03*
X03472Y03171D03*
X03441Y03196D03*
X0344Y03255D03*
X03368Y03265D03*
X03509Y03625D03*
X03216Y03656D03*
X0307Y03484D03*
X03216Y03814D03*
X03397Y03656D03*
X03189Y03857D03*
X04362Y03386D03*
X04336D03*
X04317Y03367D03*
X03286Y02941D03*
X03224Y03118D03*
X03368Y03078D03*
X04291Y03375D03*
X04226Y03482D03*
X04202Y03394D03*
X0429Y03522D03*
X04315D03*
X04219Y03511D03*
X04194Y03482D03*
X04745Y03039D03*
X0494Y03269D03*
X05005D03*
X04927Y03318D03*
X04901D03*
X04972Y03269D03*
X04461Y03329D03*
X04495Y0333D03*
X04136Y03622D03*
X03368Y03053D03*
X03235Y03197D03*
X03248Y03176D03*
X03221D03*
X0316Y03122D03*
X03163Y0291D03*
X03288Y03184D03*
X03253Y03071D03*
X03435Y03393D03*
X03389Y03381D03*
X03059Y02724D03*
X04153Y04141D03*
X04192D03*
X04232D03*
X04258Y03622D03*
X04217D03*
X04176D03*
X0424Y03812D03*
X04241Y03853D03*
X0424Y03725D03*
Y03766D03*
X04001Y03843D03*
X0317Y02992D03*
X03345Y028D03*
X03306Y02736D03*
X04028Y0352D03*
X04627Y04253D03*
X04581Y04253D03*
X03872Y0304D03*
X0402Y0286D03*
X03895Y0439D03*
X03893Y04417D03*
X03704Y04433D03*
X03732D03*
X03759D03*
X03787D03*
X03815D03*
X03608Y04426D03*
X03515Y04456D03*
X03436Y0437D03*
X03212Y04468D03*
X03194Y04082D03*
X03185Y04118D03*
X03274Y04128D03*
X0335Y04124D03*
Y04101D03*
X03146Y03899D03*
X03966Y04444D03*
X0395Y04407D03*
X03978Y04387D03*
X03936Y04305D03*
X03912Y04258D03*
X03917Y0419D03*
X0486Y04232D03*
X04646D03*
X04937Y0258D03*
X04984Y02726D03*
X04984Y02699D03*
X04938Y02752D03*
X04953Y02784D03*
X04857Y02696D03*
X0441Y01441D03*
X04446Y01477D03*
X04539Y01449D03*
X04709Y01859D03*
Y01793D03*
X04685Y01859D03*
X04653Y01956D03*
Y01984D03*
X02988Y0366D03*
X04362Y01559D03*
X0441Y01603D03*
X04358Y01649D03*
X04318Y01626D03*
X04448Y01685D03*
X04396Y01629D03*
X04382Y01701D03*
X02972Y04145D03*
X03059Y04405D03*
X03039Y04385D03*
X02972Y0418D03*
X02531Y04346D03*
Y04374D03*
X04066Y01299D03*
X03996Y01285D03*
X03956D03*
X04094Y01299D03*
X0387Y01381D03*
X03858Y01271D03*
X03885Y01244D03*
X04133Y01409D03*
X04106D03*
X04078D03*
X04133Y01381D03*
X04106D03*
X04078D03*
X04012Y01197D03*
X03019Y03755D03*
X027Y01374D03*
X02637D03*
X02578Y01795D03*
X02626Y01881D03*
X03145Y01633D03*
X0318Y01636D03*
X02787Y01413D03*
X02437Y02106D03*
X02553Y01685D03*
X02551Y01618D03*
X02708Y02208D03*
Y02287D03*
Y02248D03*
X02787Y02347D03*
X04641Y01401D03*
X0461Y01413D03*
X04637Y01437D03*
X04641Y01476D03*
X04606Y01307D03*
X04579Y01217D03*
X04508Y01542D03*
X04464Y01594D03*
X04492Y0159D03*
Y02846D03*
X0448Y02917D03*
X02822Y02925D03*
X02956Y03417D03*
Y03444D03*
X02988Y03629D03*
X02992Y03519D03*
Y03437D03*
X0307Y03519D03*
X04275Y01405D03*
X04519Y01386D03*
X04563Y01429D03*
X04543Y01307D03*
X04547Y01399D03*
X04641Y01543D03*
X04614Y01476D03*
X03842Y01482D03*
Y01456D03*
X03909Y01496D03*
Y01468D03*
X02661Y01173D03*
X02689Y01145D03*
X02661D03*
X04791Y01417D03*
X04904Y01568D03*
X0486Y01589D03*
X04845Y0154D03*
X04817D03*
X04804Y01573D03*
X04877Y01568D03*
X04289Y02017D03*
X05045Y01668D03*
X04826Y02011D03*
X04854D03*
X04826Y02039D03*
X04854Y01984D03*
X04535Y02038D03*
X04626Y02011D03*
X04599D03*
X04598Y01984D03*
X0436Y0412D03*
X04397Y04118D03*
X04032Y04287D03*
X03698Y02958D03*
X03678Y02931D03*
X04577Y02062D03*
X04563Y02038D03*
X04681Y02011D03*
X04974Y01856D03*
X05066Y02851D03*
X041Y034D03*
X04169Y04315D03*
X04815Y02728D03*
X04842Y02728D03*
X02727Y0331D03*
X05103Y03263D03*
Y03226D03*
X05064D03*
X05103Y03154D03*
X05064D03*
X05024D03*
X05103Y03189D03*
X05064D03*
X05024D03*
Y03119D03*
X05064D03*
X05103D03*
X0377Y03767D03*
X0281Y02427D03*
X04524Y02063D03*
X03551Y03477D03*
X03527Y03464D03*
X03527Y03435D03*
X04956Y02156D03*
X04931Y02161D03*
X04925Y02207D03*
X05Y02177D03*
X05007Y02201D03*
X04985Y02155D03*
X04974Y01977D03*
X04946Y02014D03*
X05095Y02895D03*
X05047Y0287D03*
X05093Y0285D03*
X04964Y03032D03*
X04996Y0302D03*
X039Y02099D03*
X03861D03*
X03821D03*
X039Y02134D03*
X03861D03*
X03821D03*
X03743Y02169D03*
X03703D03*
X03664D03*
X03625D03*
X03585D03*
X03743Y02204D03*
X03624D03*
X03585D03*
X03703D03*
X03664D03*
X03821D03*
X03861D03*
X03781D03*
X039D03*
X03782Y02169D03*
X03821D03*
X03861D03*
X039D03*
X03252Y02511D03*
X03212D03*
X03173D03*
X03133D03*
X03252Y02546D03*
X03132D03*
X03212D03*
X03173D03*
X03763Y02511D03*
X03724D03*
X03685D03*
X03645D03*
X03763Y02546D03*
X03644D03*
X03724D03*
X03685D03*
X03592Y04086D03*
X02774Y02105D03*
X02638Y02079D03*
X04159Y02924D03*
X04172Y02956D03*
X04109Y02921D03*
X04154Y02858D03*
X04137Y02957D03*
X04009Y02834D03*
X03962Y02807D03*
X03935D03*
X02578Y01228D03*
Y012D03*
Y01173D03*
Y01145D03*
X02523Y01173D03*
Y01228D03*
Y012D03*
Y01145D03*
X02551D03*
Y01228D03*
Y01173D03*
Y012D03*
X02948Y01173D03*
Y01145D03*
X02893Y01173D03*
Y01228D03*
Y012D03*
Y01145D03*
X02921D03*
Y01228D03*
Y012D03*
X02866Y01228D03*
Y012D03*
Y01173D03*
Y01145D03*
X02811Y01173D03*
Y01228D03*
Y012D03*
Y01145D03*
X02838D03*
Y01228D03*
Y01173D03*
Y012D03*
X02633D03*
Y01173D03*
Y01228D03*
Y01145D03*
X02606D03*
Y012D03*
Y01228D03*
Y01173D03*
X02661Y012D03*
Y01228D03*
X02722Y01204D03*
X0275Y01275D03*
X02722D03*
Y01303D03*
X0275D03*
X03657Y02857D03*
X02824Y03868D03*
X04196Y03899D03*
X03194Y0402D03*
X03873Y02666D03*
X03586Y01196D03*
X03834Y02692D03*
X03921Y02645D03*
X03094Y02811D03*
X03129D03*
X03169Y02803D03*
X03527Y02546D03*
X03566D03*
X03448D03*
X03487D03*
X0333D03*
X03606D03*
X03291D03*
X0337D03*
X03409D03*
X04649Y02342D03*
X03846Y03948D03*
X03815Y03917D03*
X03665Y04065D03*
X03869Y04043D03*
X03759Y0368D03*
X0376Y03715D03*
X03732Y03606D03*
X02791Y02656D03*
X02571Y02133D03*
X03906Y02532D03*
X03878D03*
X03906Y02504D03*
X03878D03*
X03966Y02943D03*
X03971Y02918D03*
X04015Y02972D03*
X04019Y0292D03*
X03759Y02698D03*
X03434Y02218D03*
X03488Y03366D03*
X03553Y0414D03*
X0358Y04144D03*
X03968Y04303D03*
X02823Y03841D03*
X03275Y03858D03*
Y03885D03*
X03493Y04145D03*
X03507Y04105D03*
X02778Y03704D03*
X02993Y03755D03*
X03501Y03422D03*
X03389Y03409D03*
Y03437D03*
X03362D03*
Y03381D03*
Y03409D03*
X04389Y01576D03*
X04436Y01619D03*
X0437Y01401D03*
X04769Y0123D03*
X04813D03*
X04858D03*
X04574Y01307D03*
X04485Y0136D03*
X04289Y01771D03*
X04279Y01564D03*
X04307Y01534D03*
X03249Y01454D03*
X04338Y01338D03*
X03547Y01488D03*
X03641Y01568D03*
Y01531D03*
X03925Y01239D03*
X03102Y0196D03*
X03242Y01961D03*
X03119Y02052D03*
X03102Y01881D03*
Y01909D03*
X03137Y01901D03*
X03271Y01961D03*
X03309D03*
X03548Y01346D03*
X03583Y01349D03*
Y01377D03*
X03854Y01405D03*
X03791Y0144D03*
X02625Y01618D03*
X02626Y01427D03*
X02759Y025D03*
X02712Y02456D03*
X02629Y02818D03*
X0344Y04263D03*
X03467Y02109D03*
X0337Y02221D03*
X0294Y02094D03*
X02906D03*
X02876Y02211D03*
X03236Y02025D03*
X03055Y01838D03*
X02803Y02255D03*
X03208Y01432D03*
X03468Y0183D03*
X03496D03*
X0344D03*
X03259Y01712D03*
X02669Y01689D03*
X02566Y02063D03*
X04294Y01181D03*
X03545Y02802D03*
X03505Y02801D03*
X03464Y02802D03*
X03584Y02802D03*
X03624D03*
X03663D03*
X03702D03*
X03742D03*
X0365Y02931D03*
X02988Y03326D03*
X02889Y02706D03*
X02781Y02721D03*
X02891Y03181D03*
X0294Y0318D03*
X02687Y03106D03*
Y03142D03*
X02646Y0317D03*
X02859Y03131D03*
X02815Y03151D03*
X02593Y03365D03*
X02944Y02192D03*
X02623Y02108D03*
X02677Y02287D03*
X02645D03*
X02614D03*
X02677Y02208D03*
X02645D03*
X02614D03*
X02677Y02248D03*
X02645D03*
X02614D03*
X02532Y02303D03*
X02775Y02007D03*
Y0198D03*
Y01952D03*
X03102Y01841D03*
X03161Y02153D03*
Y01996D03*
X02748Y02007D03*
X03311Y02106D03*
X03279Y02137D03*
X03244Y02106D03*
X03315Y02169D03*
X03244D03*
X03169Y02187D03*
X02582Y01943D03*
X02574Y01968D03*
X02952Y01834D03*
X02996Y01799D03*
X03089Y01717D03*
X0272Y01952D03*
X03054Y02203D03*
X03393Y02149D03*
X02974Y02197D03*
X02905Y02145D03*
X02829Y02398D03*
X02855Y024D03*
X02807Y02531D03*
X02783Y02476D03*
X02527Y0233D03*
X02511Y02285D03*
X0251Y02252D03*
X02515Y02169D03*
X04197Y01846D03*
X04226D03*
X04256Y01745D03*
X04288Y01743D03*
X04256Y01771D03*
X02952Y01807D03*
X0309Y01771D03*
X03118D03*
X02988Y01552D03*
Y01582D03*
X02984Y01747D03*
X03005Y01756D03*
X04124Y04257D03*
X04159Y04266D03*
X04114Y04196D03*
X03968Y04066D03*
X03972Y04031D03*
X0409Y04145D03*
Y04116D03*
Y04177D03*
X03712Y04303D03*
X03968Y04145D03*
X03866Y04126D03*
X0387Y04082D03*
X03732Y04177D03*
X03889D03*
X04783Y0371D03*
X04663D03*
Y0375D03*
X04743Y0371D03*
X04623Y0375D03*
Y0371D03*
X04703D03*
Y0375D03*
X04743D03*
X04783D03*
X04623Y0379D03*
X04663D03*
X04703D03*
X04743D03*
X04783D03*
X04743Y0383D03*
X04783D03*
X04703D03*
X04663D03*
X04623D03*
Y0387D03*
X04663D03*
X04703D03*
X04743D03*
X04783D03*
X0285Y01787D03*
X02739Y01788D03*
X025Y01755D03*
X02833Y01854D03*
X02838Y01815D03*
X0263Y01792D03*
X02679Y01791D03*
X02594Y03441D03*
X02624Y03597D03*
X02777Y03371D03*
X0275D03*
X02551Y01456D03*
X04474Y0261D03*
Y02584D03*
X04684Y02565D03*
X04913Y02809D03*
X04838Y02918D03*
Y02887D03*
X04758Y0288D03*
X04811Y02878D03*
X04847Y02162D03*
X0466Y02634D03*
X0491Y02571D03*
X04866Y02588D03*
X04893Y02593D03*
X04843Y02601D03*
X04923Y02642D03*
X04881Y02639D03*
X04913Y02673D03*
X04977Y02751D03*
X04995Y0267D03*
X04811Y02592D03*
X03732Y03806D03*
X03673Y03835D03*
X03756Y03792D03*
X03755Y03818D03*
X04232Y02956D03*
X04246Y0293D03*
X04685Y02682D03*
X03594Y02D03*
X03539D03*
X03291Y02511D03*
X0333D03*
X0337D03*
X03409D03*
X03448D03*
X03488D03*
X03527D03*
X03566D03*
X03606D03*
X02421Y03815D03*
X02452Y03846D03*
X02484Y03878D03*
X02452D03*
X02421Y03846D03*
Y03878D03*
Y03909D03*
Y0394D03*
Y03972D03*
Y04003D03*
X02452Y04035D03*
X02421D03*
X02452Y04066D03*
X02421D03*
X02452Y04098D03*
X02421D03*
X02452Y04129D03*
X02421D03*
X02452Y04161D03*
X02421D03*
X02452Y04192D03*
X02421D03*
X02452Y04224D03*
X02421D03*
X02484Y04255D03*
X02452D03*
X02484Y04287D03*
X02452D03*
X02484Y04318D03*
X02452D03*
X02421D03*
Y04255D03*
X03322Y04267D03*
X02421Y04287D03*
X02987Y04486D03*
X05017Y03039D03*
X02624Y03571D03*
X03173Y03661D03*
X04041Y04257D03*
X02728Y03488D03*
Y03519D03*
X02791D03*
X02822Y03551D03*
X02759Y03456D03*
X02822Y03488D03*
X02759Y03551D03*
X02791Y03488D03*
X02822Y03519D03*
X02759Y03488D03*
X02728Y03551D03*
X02759Y03519D03*
X02791Y03456D03*
Y03551D03*
X02622Y0374D03*
X02594D03*
X0294Y03551D03*
X02913D03*
X02716Y03055D03*
X02629Y02846D03*
X02637Y03502D03*
Y03476D03*
X03039Y03555D03*
X03011D03*
X02991Y03492D03*
X02594Y03712D03*
X02783Y03665D03*
Y03637D03*
X02689Y02948D03*
X02551Y01425D03*
X02566Y01736D03*
X0271Y01676D03*
X02726Y01543D03*
X02627Y01854D03*
X02709Y01823D03*
X04562Y02985D03*
X04534Y02861D03*
X04734Y02094D03*
X04945Y01788D03*
X04974Y0195D03*
X04977Y01755D03*
X04975Y018D03*
X04982Y02014D03*
X02476Y01881D03*
X02851Y01698D03*
X03587Y01448D03*
X04864Y02114D03*
X04684Y01734D03*
X04712D03*
X04925Y02464D03*
Y02492D03*
X04952D03*
X05045Y03029D03*
X04681Y01956D03*
X04653Y02011D03*
X04909D03*
X04854Y02039D03*
X04681Y01984D03*
X04881Y02011D03*
Y02039D03*
Y01984D03*
X04801Y01939D03*
X04711Y01928D03*
X04974Y01828D03*
X04825Y01733D03*
X05035Y01903D03*
X04685Y01793D03*
X04626Y01984D03*
Y01956D03*
X04351Y01991D03*
X04413Y01706D03*
X05035Y01792D03*
Y01958D03*
X05036Y01988D03*
X05035Y01876D03*
X05037Y01834D03*
X05035Y01934D03*
X04763Y02101D03*
X04948Y01702D03*
X04598Y01956D03*
X03416Y04468D03*
X03688Y01852D03*
X03728D03*
X03228Y02704D03*
X03692D03*
X03649D03*
X0357D03*
X03531D03*
X03492D03*
X03452D03*
X03413D03*
X03374D03*
X04235Y02129D03*
X02925Y0169D03*
X0342Y01521D03*
X02925Y01665D03*
X0346Y01588D03*
X0272Y02007D03*
X02503Y01874D03*
X04952Y02464D03*
X04727Y02587D03*
X04723Y02556D03*
X02836Y02424D03*
X04511Y02378D03*
X04568Y02342D03*
X04199Y02956D03*
X04218Y0293D03*
X04266Y02956D03*
X04294D03*
X04263Y02857D03*
X04393Y02212D03*
X04537Y01591D03*
X04213Y02835D03*
X0412Y02792D03*
X04236Y02645D03*
X04711Y02176D03*
X04683D03*
X04565Y02283D03*
X04645Y02247D03*
X03784Y04196D03*
X03797Y0428D03*
X03447Y03967D03*
X04275Y04118D03*
X03112Y04379D03*
X03157Y04275D03*
X03126Y04283D03*
X02874Y01598D03*
X03137Y01752D03*
X02722Y01173D03*
X0275D03*
X0272Y01145D03*
X02752D03*
X0275Y01204D03*
X03776Y02858D03*
X04782Y01555D03*
X0492Y01589D03*
X03458Y03421D03*
X03699Y03126D03*
X03749Y03103D03*
X03793Y03075D03*
X03995Y02939D03*
X04114Y02976D03*
X04079Y03041D03*
X04311Y02933D03*
X0408Y02857D03*
X04058Y02781D03*
X04086Y02778D03*
X04137Y0274D03*
X03932Y02919D03*
X0369Y02857D03*
X0373Y02703D03*
X03722Y02736D03*
X0382Y02958D03*
X03773Y02939D03*
X03746D03*
X03726Y02958D03*
X03793D03*
X03823Y02804D03*
X0384Y02827D03*
X04301Y04141D03*
X04329Y04121D03*
X04904Y03434D03*
X04344Y04098D03*
X05037Y01544D03*
X04972Y01589D03*
X04917Y0151D03*
X04391Y01729D03*
X05036Y02222D03*
X04Y01893D03*
X03972Y01866D03*
X04251Y02254D03*
X03733Y04082D03*
X04255Y04094D03*
X03846Y04196D03*
X02476Y02035D03*
X03764Y04316D03*
X03791Y04315D03*
X04795Y02806D03*
X05096Y03881D03*
X03631Y04259D03*
X04559Y01476D03*
X04586D03*
X02744Y01858D03*
X03846Y04259D03*
X03816Y04304D03*
X04244Y02744D03*
X04165Y02086D03*
X0257Y02035D03*
X02578Y02368D03*
X02611Y02368D03*
X04139Y04411D03*
X04108Y04386D03*
X04048Y04401D03*
X04063Y04279D03*
X0444Y03015D03*
X0435Y02531D03*
X03413Y03886D03*
X03397Y03858D03*
X0348Y04073D03*
X03535Y03752D03*
X03968Y0412D03*
X03677Y03787D03*
Y03755D03*
X04303Y04378D03*
X04255D03*
X0435D03*
X03905Y04315D03*
Y04287D03*
X03334Y03437D03*
Y03409D03*
X03163Y02954D03*
X02425Y02503D03*
X0248Y02657D03*
X02708Y02519D03*
X02425Y02547D03*
X03878Y04259D03*
X02584Y02484D03*
X025Y02512D03*
X02637Y02456D03*
X02566Y02598D03*
X02594Y02626D03*
Y02598D03*
X02566Y02626D03*
X02496Y02429D03*
X03842Y04291D03*
X049Y03548D03*
X04874Y03531D03*
X0494Y03594D03*
X04956Y03881D03*
X04944Y03921D03*
X04507Y03574D03*
X04454Y03542D03*
X04283Y03574D03*
X04565Y03434D03*
X04818D03*
X04783D03*
X04702D03*
X04817Y0333D03*
X04771Y04161D03*
X04346Y03898D03*
X03275Y03972D03*
X0335Y04077D03*
X03681Y04303D03*
X02853Y02332D03*
X02677Y02456D03*
X03712Y04263D03*
X03681D03*
X03194Y04047D03*
X0348Y04105D03*
X03507Y04073D03*
X03474Y03967D03*
X03189Y03628D03*
X02799Y01843D03*
X03547Y03826D03*
X02745Y03192D03*
X04321Y02552D03*
X04544Y0283D03*
X04472Y02452D03*
X0444Y02413D03*
X04593Y02448D03*
X04767Y02539D03*
X0474Y02452D03*
X04771D03*
X04649Y02497D03*
X04658Y02448D03*
X0474Y02405D03*
X04556Y02665D03*
X04799Y02122D03*
X0474Y02362D03*
X03704Y0446D03*
X03787Y04488D03*
X03759D03*
X03939Y02031D03*
X03879D03*
X04083Y02198D03*
X03303Y02708D03*
X0361Y02704D03*
X03594Y04259D03*
X03334Y03381D03*
X03968Y04094D03*
X03911Y02031D03*
X03852D03*
X04161Y03042D03*
X04208D03*
X04255D03*
X043D03*
X04208Y01181D03*
X04492Y01215D03*
X04249Y01295D03*
X04198Y01389D03*
X0425Y01342D03*
X04371Y01477D03*
X03873Y0158D03*
X02748Y0198D03*
Y01952D03*
X0272Y0198D03*
X03858Y01299D03*
X02834Y02626D03*
X04541Y04253D03*
X04263Y03746D03*
X04306Y03628D03*
X0484Y04047D03*
X04956Y03681D03*
X04771Y04192D03*
X04082Y02921D03*
X04826Y02122D03*
X04952Y02311D03*
Y02338D03*
X04755Y02685D03*
X03944Y01893D03*
X04811Y02261D03*
X04561Y0423D03*
X04236Y03645D03*
X03232Y01712D03*
X03204D03*
X03157Y01732D03*
X03177Y01712D03*
X04905Y04267D03*
X0323Y02734D03*
X02925Y01639D03*
X03531Y01563D03*
X04665Y02726D03*
X04664Y02698D03*
X04118Y03645D03*
X04133Y04118D03*
X03643Y02736D03*
X04173Y04118D03*
X04157Y03645D03*
X03683Y02736D03*
X04212Y04118D03*
X04196Y03645D03*
X046Y04231D03*
X04921Y02425D03*
X0411Y03374D03*
X04858Y04263D03*
X0346Y01437D03*
X03114Y01594D03*
X0346Y01521D03*
X03244Y02803D03*
X04086Y0335D03*
X04905Y04228D03*
X05019Y01568D03*
X03982Y02834D03*
X04992Y01568D03*
X04959Y0154D03*
X04932D03*
X03914Y02852D03*
X03887D03*
X03868Y02827D03*
X04094Y02224D03*
X04145Y02338D03*
X04775Y01342D03*
X04141Y0307D03*
X04728Y01342D03*
X02697Y01543D03*
X03102Y01988D03*
X03212Y01901D03*
X03165D03*
X0324D03*
X02783Y01145D03*
X0356Y01264D03*
X03413Y01405D03*
X03707Y01305D03*
X03547Y01448D03*
X03586Y01488D03*
X03436Y01549D03*
X03744Y01456D03*
X03689Y01909D03*
X03708Y01881D03*
X03728Y01909D03*
X03818Y01968D03*
X03169Y02736D03*
X03335Y03104D03*
X03346Y032D03*
X03389D03*
X03456Y03366D03*
X03841Y02979D03*
X03397Y03758D03*
X03582Y03995D03*
X04338Y01181D03*
X04448Y01215D03*
X04409D03*
X04448Y01401D03*
X04007Y01791D03*
X04083Y02122D03*
X04091Y0237D03*
X04098Y02263D03*
X04168Y02259D03*
X04195Y02301D03*
X04529Y0224D03*
X04558D03*
X04827Y01341D03*
X04871D03*
X04859Y0151D03*
X0475Y01555D03*
X04917Y01342D03*
X05Y01342D03*
X04974Y0151D03*
X04677Y02126D03*
X04771Y02362D03*
Y02405D03*
X04803Y02362D03*
Y02405D03*
X04834D03*
Y02362D03*
X04082Y02976D03*
X04117Y03042D03*
X04354Y02492D03*
X04452Y02476D03*
X04533Y0333D03*
X04255Y04259D03*
X04192D03*
X04452Y03637D03*
X04447Y03908D03*
X04452Y0361D03*
X04506Y04047D03*
X04303Y04263D03*
X04506Y04218D03*
X0435Y04263D03*
X04551Y027D03*
X04565Y0333D03*
X04604Y02669D03*
X04661Y02803D03*
X04702Y0333D03*
X04803Y02452D03*
X04834D03*
X04779Y02783D03*
X04785Y0333D03*
X04625Y03532D03*
X04684D03*
X04723D03*
X0473Y04047D03*
X04718Y0422D03*
X04801Y03532D03*
X04936Y03531D03*
X05102Y0374D03*
X03019Y03724D03*
X03322Y04468D03*
X04149Y01555D03*
X03921D03*
X03485Y02736D03*
X03525D03*
X03565D03*
X03604D03*
X03614Y01877D03*
X03243Y02941D03*
X03201Y02806D03*
X04122Y03339D03*
X03342Y0272D03*
X0426Y03872D03*
X04262Y03831D03*
X03368Y02736D03*
X03386Y02802D03*
X04262Y03786D03*
X03407Y02736D03*
X03425Y02802D03*
X03447Y02736D03*
X0274Y01681D03*
X02766Y01621D03*
X03114Y01655D03*
X03204Y01602D03*
X03263Y0283D03*
X03715Y02669D03*
X03704Y04488D03*
X03759Y0446D03*
X03787D03*
X03815Y04488D03*
Y0446D03*
X03732D03*
Y04488D03*
X03944Y01838D03*
Y01866D03*
X03972Y01838D03*
X04D03*
X03972Y01893D03*
X04Y01866D03*
X04574Y02803D03*
X03545Y03861D03*
G54D225*
X04437Y02063D02*
D01*
X04437Y02063*
X04437Y02063*
X04437Y02062*
X04437Y02062*
X04438Y02062*
X04438Y02061*
X04438Y02061*
X04438Y02061*
X04438Y02061*
X04438Y0206*
X04439Y0206*
X04439Y0206*
X04439Y0206*
X04439Y0206*
X04439Y02059*
X0444Y02059*
X0444Y02059*
X0444Y02059*
X04441Y02059*
X04441Y02059*
X04441Y02059*
X04441Y02059*
X04442Y02059*
X04445Y02055D02*
D01*
X04445Y02056*
X04445Y02056*
X04445Y02056*
X04445Y02056*
X04445Y02057*
X04445Y02057*
X04445Y02057*
X04444Y02057*
X04444Y02057*
X04444Y02058*
X04444Y02058*
X04444Y02058*
X04444Y02058*
X04444Y02058*
X04443Y02058*
X04443Y02058*
X04443Y02058*
X04443Y02059*
X04442Y02059*
X04442Y02059*
X04442Y02059*
X04442Y02059*
X04442Y02059*
Y02052D02*
D01*
X04442Y02052*
X04442Y02052*
X04442Y02052*
X04443Y02052*
X04443Y02052*
X04443Y02052*
X04443Y02052*
X04443Y02053*
X04444Y02053*
X04444Y02053*
X04444Y02053*
X04444Y02053*
X04444Y02053*
X04444Y02054*
X04445Y02054*
X04445Y02054*
X04445Y02054*
X04445Y02054*
X04445Y02055*
X04445Y02055*
X04445Y02055*
X04445Y02055*
X04445Y02055*
X04442Y02052D02*
D01*
X04441Y02052*
X04441Y02052*
X04441Y02052*
X0444Y02052*
X0444Y02052*
X0444Y02052*
X0444Y02052*
X04439Y02051*
X04439Y02051*
X04439Y02051*
X04439Y02051*
X04438Y02051*
X04438Y0205*
X04438Y0205*
X04438Y0205*
X04438Y0205*
X04438Y02049*
X04438Y02049*
X04437Y02049*
X04437Y02049*
X04437Y02048*
X04437Y02048*
X04437Y02048*
X04696Y02058D02*
D01*
X04696Y02058*
X04696Y02058*
X04697Y02057*
X04697Y02057*
X04697Y02057*
X04697Y02057*
X04698Y02057*
X04698Y02057*
X04698Y02057*
X04699Y02057*
X04699Y02057*
X04699Y02057*
X047Y02057*
X047Y02057*
X047Y02057*
X047Y02057*
X04701Y02057*
X04701Y02057*
X04701Y02057*
X04702Y02058*
X04702Y02058*
X04702Y02058*
X04702Y02058*
X04708Y02059D02*
D01*
X04708Y02059*
X04708Y02059*
X04708Y02059*
X04707Y02059*
X04707Y02059*
X04707Y0206*
X04707Y0206*
X04706Y0206*
X04706Y0206*
X04706Y0206*
X04706Y0206*
X04705Y0206*
X04705Y0206*
X04705Y0206*
X04704Y0206*
X04704Y0206*
X04704Y02059*
X04704Y02059*
X04703Y02059*
X04703Y02059*
X04703Y02059*
X04703Y02059*
X04703Y02059*
X04708Y02053D02*
D01*
X04709Y02053*
X04709Y02053*
X04709Y02053*
X04709Y02054*
X04709Y02054*
X04709Y02054*
X04709Y02054*
X04709Y02055*
X0471Y02055*
X0471Y02055*
X0471Y02056*
X0471Y02056*
X0471Y02056*
X0471Y02056*
X04709Y02057*
X04709Y02057*
X04709Y02057*
X04709Y02057*
X04709Y02058*
X04709Y02058*
X04709Y02058*
X04708Y02058*
X04708Y02059*
X04708Y02052D02*
D01*
X04708Y02052*
X04707Y02052*
X04707Y02051*
X04707Y02051*
X04707Y02051*
X04707Y02051*
X04707Y0205*
X04707Y0205*
X04707Y0205*
X04707Y02049*
X04707Y02049*
X04707Y02049*
X04707Y02049*
X04707Y02048*
X04707Y02048*
X04707Y02048*
X04707Y02047*
X04707Y02047*
X04707Y02047*
X04707Y02047*
X04708Y02046*
X04708Y02046*
X04708Y02046*
X04499Y02091D02*
D01*
X04499Y02091*
X04499Y02091*
X04499Y0209*
X04499Y0209*
X045Y0209*
X045Y02089*
X045Y02089*
X045Y02089*
X045Y02088*
X045Y02088*
X04501Y02088*
X04501Y02088*
X04501Y02087*
X04501Y02087*
X04502Y02087*
X04502Y02087*
X04502Y02087*
X04503Y02087*
X04503Y02086*
X04503Y02086*
X04504Y02086*
X04504Y02086*
X04504Y02086*
X04509Y02081D02*
D01*
X04509Y02082*
X04509Y02082*
X04509Y02082*
X04509Y02083*
X04509Y02083*
X04509Y02083*
X04509Y02084*
X04509Y02084*
X04508Y02084*
X04508Y02085*
X04508Y02085*
X04508Y02085*
X04507Y02085*
X04507Y02085*
X04507Y02086*
X04507Y02086*
X04506Y02086*
X04506Y02086*
X04506Y02086*
X04505Y02086*
X04505Y02086*
X04505Y02086*
X04504Y02086*
Y02077D02*
D01*
X04505Y02077*
X04505Y02077*
X04505Y02077*
X04506Y02077*
X04506Y02077*
X04506Y02077*
X04507Y02077*
X04507Y02077*
X04507Y02077*
X04508Y02078*
X04508Y02078*
X04508Y02078*
X04508Y02078*
X04508Y02079*
X04509Y02079*
X04509Y02079*
X04509Y0208*
X04509Y0208*
X04509Y0208*
X04509Y02081*
X04509Y02081*
X04509Y02081*
X04509Y02081*
X04504Y02077D02*
D01*
X04504Y02076*
X04504Y02076*
X04503Y02076*
X04503Y02076*
X04503Y02076*
X04502Y02076*
X04502Y02076*
X04502Y02076*
X04501Y02076*
X04501Y02075*
X04501Y02075*
X04501Y02075*
X045Y02075*
X045Y02074*
X045Y02074*
X045Y02074*
X045Y02073*
X045Y02073*
X04499Y02073*
X04499Y02072*
X04499Y02072*
X04499Y02072*
X04499Y02072*
X04842Y01933D02*
X04965D01*
X04972Y01925*
Y01923D02*
X04975D01*
X04604Y02138D02*
X04782Y0196D01*
X04974Y0195D02*
D01*
X04818Y01969D02*
X04845Y01941D01*
X04814Y0196D02*
X04842Y01933D01*
X04965Y01941D02*
X04974Y0195D01*
X04972Y01923D02*
Y01925D01*
X04845Y01941D02*
X04965D01*
X02983Y03022D02*
X03204Y03243D01*
Y03386*
X02983Y02544D02*
Y03022D01*
X02975Y03025D02*
X03196Y03246D01*
X02975Y02547D02*
Y03025D01*
X03196Y03246D02*
Y0339D01*
X04941Y01846D02*
X04964D01*
X04965Y01837D02*
X04973Y01828D01*
X04974*
X04429Y01917D02*
Y02293D01*
X04964Y01846D02*
X04974Y01856D01*
X04945Y01837D02*
X04965D01*
X05026Y01885D02*
X05035Y01876D01*
X04499Y01962D02*
X04568Y01893D01*
X04491Y01959D02*
X04565Y01885D01*
X05026*
X04568Y01893D02*
X05025D01*
X04491Y01959D02*
Y02297D01*
X05025Y01893D02*
X05035Y01903D01*
X03527Y03464D02*
Y03464D01*
X03517Y03454D02*
X03527Y03464D01*
X03517Y03446D02*
X03527Y03436D01*
Y03435D02*
Y03436D01*
X04172Y02956D02*
X04182Y02946D01*
X04199Y02956D02*
Y02956D01*
X04182Y02819D02*
Y02946D01*
X0419Y02823D02*
Y02947D01*
X04182Y02819D02*
X04202Y02799D01*
X0419Y02947D02*
X04199Y02956D01*
X0419Y02823D02*
X04211Y02802D01*
X03196Y0339D02*
X03319Y03513D01*
X03204Y03386D02*
X03323Y03505D01*
X03419*
X03319Y03513D02*
X03423D01*
X03419Y03505D02*
X03478Y03446D01*
X03423Y03513D02*
X03482Y03454D01*
X03517*
X03478Y03446D02*
X03517D01*
X02836Y02424D02*
X02851D01*
X02855Y02416D02*
X02983Y02544D01*
X02851Y02424D02*
X02975Y02547D01*
X02855Y024D02*
Y02416D01*
X04218Y0293D02*
X04228Y0292D01*
X04236D02*
X04246Y0293D01*
X04236Y02853D02*
Y0292D01*
X04228Y0285D02*
Y0292D01*
X04604Y02138D02*
Y02374D01*
X04782Y0196D02*
X04814D01*
X04406Y02584D02*
X04613Y02378D01*
X04397Y02581D02*
Y02789D01*
Y02581D02*
X04604Y02374D01*
X04284Y02914D02*
Y02947D01*
X04406Y02584D02*
Y02792D01*
X04276Y0291D02*
X04397Y02789D01*
X04284Y02914D02*
X04406Y02792D01*
X04276Y0291D02*
Y02947D01*
X04437Y02063D02*
Y02196D01*
X04442Y02059D02*
X04442D01*
X04445Y02055D02*
D01*
X04442Y02052D02*
X04442D01*
X04437Y02039D02*
Y02048D01*
Y02196D02*
Y02296D01*
Y0192D02*
Y02039D01*
Y0192D02*
X04525Y01833D01*
X04202Y02519D02*
X04429Y02293D01*
Y01917D02*
X04521Y01825D01*
X04211Y02523D02*
X04437Y02296D01*
X04715Y02039D02*
X04785Y01969D01*
X04637Y02117D02*
X04638Y02116D01*
X04696Y02058*
D01*
X04702D02*
X04703Y02059D01*
X04708D02*
D01*
X04708Y02052D02*
X04708Y02053D01*
X04708Y02046D02*
D01*
X04714Y0204*
X04715Y02039D01*
X04613Y02141D02*
X04637Y02117D01*
X04499Y02091D02*
Y02221D01*
X04504Y02086D02*
X04504D01*
X04509Y02081D02*
D01*
X04504Y02077D02*
X04504D01*
X04499Y0206D02*
Y02072D01*
Y02221D02*
Y02301D01*
Y01962D02*
Y0206D01*
X04785Y01969D02*
X04818D01*
X04613Y02141D02*
Y02378D01*
X04932Y01825D02*
X04945Y01837D01*
X04521Y01825D02*
X04932D01*
X04202Y02519D02*
Y02799D01*
X04929Y01833D02*
X04941Y01846D01*
X04525Y01833D02*
X04929D01*
X04211Y02523D02*
Y02802D01*
X04291Y0251D02*
Y02799D01*
X04236Y02853D02*
X04291Y02799D01*
Y0251D02*
X04499Y02301D01*
X04282Y02506D02*
Y02795D01*
X04228Y0285D02*
X04282Y02795D01*
Y02506D02*
X04491Y02297D01*
X04266Y02956D02*
X04276Y02947D01*
X04284D02*
X04294Y02956D01*
M02*