%FSTAX23Y23*%
%MOIN*%
%SFA1B1*%

%IPPOS*%
%ADD10C,0.003900*%
%ADD15C,0.009800*%
%ADD18C,0.006700*%
%ADD19C,0.005900*%
%ADD20C,0.004700*%
%ADD21C,0.013800*%
%LNright_flex-1*%
%LPD*%
G36*
X02201Y01615D02*
X02203D01*
X02204Y01615*
X02205Y01614*
X02207Y01611*
X02209Y01608*
X02209Y01604*
Y01533*
X02209Y01532*
X02208Y01531*
X02208Y0153*
X02207Y01529*
X02207Y01529*
X02206Y01528*
X02204Y01527*
X02203Y01527*
X02196*
X02195Y01528*
X0219Y01531*
X02185Y01532*
X02131*
Y01555*
Y01555*
X02131Y01557*
X02131Y01558*
X0213Y01559*
X02129Y0156*
X02129Y0156*
X02128Y01561*
X02127Y01561*
X02125Y01562*
X02125*
X01762*
X01761*
X01759Y01561*
X01757Y0156*
X01755Y01559*
X01754Y01559*
X01754Y01558*
X01753Y01556*
X01752Y01554*
X01752Y01552*
Y01551*
Y01532*
X01751Y01531*
X01751Y01531*
X01684*
X01681Y01531*
X01679Y01532*
Y01532*
X01677Y01534*
X01677Y01534*
Y01589*
X01677Y01591*
X01678Y01593*
X01679Y01594*
X0168Y01595*
X0168Y01596*
X01681Y01597*
X01681Y01598*
X01682Y01599*
Y016*
Y0161*
X01682Y01612*
X01683Y01613*
X01684Y01615*
X01684Y01615*
X022*
X02201Y01615*
G37*
G54D10*
X02182Y01362D02*
X02183Y01363D01*
X02186*
X02178Y01362D02*
X02182D01*
G54D15*
X02195Y01501D02*
X02206Y01512D01*
X02196Y01512D02*
X02203D01*
X02195Y01491D02*
Y01512D01*
X02207Y01436D02*
Y01512D01*
X02195Y01503D02*
X02207Y01491D01*
X02194Y01473D02*
X02207Y01486D01*
X02189Y01486D02*
X02195Y01491D01*
X02189Y01486D02*
X02194Y01481D01*
X02144Y01478D02*
X02151Y01485D01*
X0213D02*
X0214Y01474D01*
X02102Y01485D02*
X02126Y0146D01*
X02194Y01476D02*
X02207Y01463D01*
X02194Y01445D02*
X02207Y01458D01*
X02194Y01459D02*
Y01481D01*
X02198Y01445D02*
X02207Y01436D01*
X02194Y01445D02*
X02198D01*
X02189Y01454D02*
X02194Y01459D01*
X02189Y01454D02*
X02194Y0145D01*
X02144Y01478D02*
X02151Y01485D01*
X02194Y01448D02*
X02197Y01445D01*
X02194D02*
Y0145D01*
X02116Y01532D02*
Y01546D01*
X02096D02*
X02121Y01522D01*
X02075Y0152D02*
X02101Y01546D01*
X02047Y0152D02*
X02073Y01546D01*
X02068D02*
X02094Y0152D01*
X0204Y01546D02*
X02066Y0152D01*
X01963D02*
X01989Y01546D01*
X01963Y0152D02*
X01989Y01546D01*
X01957D02*
X01983Y0152D01*
X02019D02*
X02045Y01546D01*
X01984D02*
X0201Y0152D01*
X02116Y01532D02*
X02117Y01526D01*
X02121Y01521*
X02102Y0152D02*
X02116Y01534D01*
X02074Y01485D02*
X02112Y01446D01*
X02046Y01485D02*
X02098Y01432D01*
X02012Y01546D02*
X02038Y0152D01*
X02033Y01423D02*
X02094Y01485D01*
X01991Y0152D02*
X02017Y01546D01*
X01991Y01485D02*
X02052Y01423D01*
X01977D02*
X02039Y01485D01*
X02207Y01368D02*
Y01379D01*
X02204Y01371D02*
X02207Y01374D01*
X02203Y01372D02*
X02207Y01368D01*
Y01311D02*
Y01332D01*
X02203Y01328D02*
X02207Y01332D01*
X02203Y01328D02*
X02207Y01324D01*
X022Y01372D02*
X02207Y01379D01*
X022Y01372D02*
X02203D01*
X02195Y01328D02*
X02203D01*
X02198Y0132D02*
X02207Y01311D01*
X02195Y01324D02*
Y01328D01*
X02203Y01315D02*
X02207Y01319D01*
X02198Y01276D02*
X02207Y01284D01*
X02199Y01276D02*
X02207Y01268D01*
Y01259D02*
X02207Y01284D01*
X02198Y01268D02*
Y01276D01*
X02194Y0132D02*
X02198D01*
X02197Y01253D02*
X02207Y01263D01*
X02187Y01257D02*
X02198Y01268D01*
X02178Y01253D02*
X02201D01*
X02189Y01258D02*
X02194Y01253D01*
X02088Y01423D02*
X0215Y01485D01*
X02089Y01423D02*
X02144Y01478D01*
X02091Y01328D02*
X02103Y01317D01*
X02109D02*
X0212Y01328D01*
X02094Y01317D02*
X02105Y01328D01*
X02005Y01423D02*
X02067Y01485D01*
X02018D02*
X0208Y01423D01*
X01963Y01485D02*
X02024Y01423D01*
X02061D02*
X02122Y01485D01*
X02066Y01317D02*
X02077Y01328D01*
X02038Y01317D02*
X02049Y01328D01*
X02063D02*
X02075Y01317D01*
X02036Y01328D02*
X02047Y01317D01*
X02181Y01257D02*
X02187D01*
X02178Y01253D02*
X02181Y01257D01*
X0198Y01328D02*
X01991Y01317D01*
X01982D02*
X01994Y01328D01*
X01954Y01317D02*
X01966Y01328D01*
X0201Y01317D02*
X02022Y01328D01*
X02008D02*
X02019Y01317D01*
X0188Y0152D02*
X01906Y01546D01*
X01901D02*
X01927Y0152D01*
X01873Y01546D02*
X01899Y0152D01*
X01929Y01546D02*
X01955Y0152D01*
X01935D02*
X01961Y01546D01*
X01907Y0152D02*
X01934Y01546D01*
X01824Y0152D02*
X0185Y01546D01*
X01767D02*
X02116D01*
X01817D02*
X01843Y0152D01*
X01852D02*
X01878Y01546D01*
X01845D02*
X01871Y0152D01*
X01838Y01423D02*
X019Y01485D01*
X01907D02*
X01969Y01423D01*
X01796Y0152D02*
X01822Y01546D01*
X01824Y01485D02*
X01885Y01423D01*
X01796Y01485D02*
X01857Y01423D01*
X01762Y0152D02*
X02122D01*
X01732Y01485D02*
X02151D01*
X0177Y01439D02*
X01816Y01485D01*
X01786Y01423D02*
X02089D01*
X01784Y01425D02*
X01844Y01485D01*
X01768Y0152D02*
X01794Y01546D01*
X0179D02*
X01816Y0152D01*
X01767Y01532D02*
Y01546D01*
X01756Y01453D02*
X01788Y01485D01*
X01767Y01541D02*
X01788Y0152D01*
X01677Y0149D02*
X01686Y01481D01*
X01732Y01485D02*
X01738Y01479D01*
X01677Y01485D02*
X0168Y01487D01*
X01742Y01467D02*
X0176Y01485D01*
X01677Y0149D02*
Y0145D01*
X01694Y01479D02*
X01697Y01481D01*
X01738Y01471D02*
Y01479D01*
X01688Y01481D02*
X01694Y01475D01*
Y0146D02*
Y01479D01*
X01687Y0146D02*
X01694D01*
X01686Y01481D02*
X01697D01*
X01677Y01457D02*
X01694Y01474D01*
X01677Y01464D02*
X01684Y01457D01*
X01677Y0145D02*
X01687Y0146D01*
X01676Y01428D02*
Y01449D01*
X01879Y01485D02*
X01941Y01423D01*
X01894D02*
X01955Y01485D01*
X01866Y01423D02*
X01927Y01485D01*
X01935D02*
X01997Y01423D01*
X01949D02*
X02011Y01485D01*
X01921Y01423D02*
X01983Y01485D01*
X01851D02*
X01913Y01423D01*
X01866D02*
X01927Y01485D01*
X01768D02*
X01829Y01423D01*
X0181D02*
X01872Y01485D01*
X01843Y01317D02*
X01854Y01328D01*
X01899Y01317D02*
X0191Y01328D01*
X01924D02*
X01936Y01317D01*
X01896Y01328D02*
X01908Y01317D01*
X01952Y01328D02*
X01964Y01317D01*
X01927D02*
X01938Y01328D01*
X01761D02*
X0212D01*
X01772Y01317D02*
X02109D01*
X01841Y01328D02*
X01852Y01317D01*
X01871D02*
X01882Y01328D01*
X01869D02*
X0188Y01317D01*
X0174Y01485D02*
X01802Y01423D01*
X01738Y01471D02*
X01786Y01423D01*
X01766Y01323D02*
X01771Y01328D01*
X01785D02*
X01797Y01317D01*
X01766Y01323D02*
X01771Y01328D01*
X01677Y01427D02*
X01681Y01423D01*
X01677Y01419D02*
X01681Y01423D01*
X01677Y01419D02*
Y01427D01*
Y01391D02*
Y01395D01*
X01676Y01396D02*
Y01418D01*
X01813Y01328D02*
X01824Y01317D01*
X01815D02*
X01827Y01328D01*
X01787Y01317D02*
X01799Y01328D01*
X01761D02*
X01772Y01317D01*
X0169Y0126D02*
X01696Y01253D01*
X01677Y01266D02*
X01684Y0126D01*
X0169*
X01677Y01262D02*
Y01266D01*
X01687Y01253D02*
X01696D01*
X01687Y0126D02*
X01694Y01253D01*
G54D18*
X01679Y01326D02*
Y01361D01*
Y01326D02*
X0168Y01325D01*
X01679Y01298D02*
X0168Y01297D01*
X01678Y01327D02*
X01679Y01326D01*
Y01298D02*
Y01326D01*
X0168Y01391D02*
Y01423D01*
Y01467*
X01679Y01361D02*
X0168Y01362D01*
Y01391*
Y01265D02*
Y01298D01*
X0172Y01359D02*
X01749Y0133D01*
X0168Y01359D02*
X0172D01*
X01949Y0132D02*
X02123D01*
X01763Y0133D02*
X01769Y01324D01*
X01945*
X01749Y0133D02*
X01763D01*
X01945Y01324D02*
X01949Y0132D01*
X02123D02*
X02164Y01362D01*
X02095Y01518D02*
X02095Y01519D01*
X01699Y01486D02*
X01735D01*
X01683Y0147D02*
X01699Y01486D01*
X02095Y01519D02*
X02185D01*
X02191Y01513D02*
X02192D01*
X02185Y01519D02*
X02191Y01513D01*
G54D19*
X0168Y01487D02*
Y01514D01*
X01684Y01518*
X01765*
X01716Y01313D02*
X01753Y01275D01*
X02134*
X0172Y01326D02*
X01759Y01287D01*
X0172Y01342D02*
X01763Y01299D01*
X01694Y01342D02*
X0172D01*
X0171Y01285D02*
Y01296D01*
Y01285D02*
X01732Y01263D01*
X01695Y01313D02*
X01716D01*
X01695Y01281D02*
X01726Y0125D01*
X01712Y01326D02*
X0172D01*
X0171Y01328D02*
X01712Y01326D01*
X01759Y01287D02*
X02125D01*
X01732Y01263D02*
X02141D01*
X02158Y01393D02*
X02189D01*
X02123Y01358D02*
X02158Y01393D01*
X01754Y01358D02*
X02123D01*
X02159Y01377D02*
X02168D01*
X01749Y01346D02*
X02128D01*
X02168Y01377D02*
X02169Y01378D01*
X02128Y01346D02*
X02159Y01377D01*
X02154Y01406D02*
X0217D01*
X02117Y0137D02*
X02154Y01406D01*
X01759Y0137D02*
X02117D01*
X02151Y01423D02*
X02187D01*
X01765Y01381D02*
X0211D01*
X02151Y01423*
X01771Y01393D02*
X02104D01*
X02149Y01439D02*
X02172D01*
X02104Y01393D02*
X02149Y01439D01*
X02162Y01469D02*
X02171D01*
X02098Y01405D02*
X02162Y01469D01*
X01777Y01405D02*
X02098D01*
X02171Y01469D02*
X02172Y0147D01*
X01695Y01376D02*
X01719D01*
X01749Y01346*
X01722Y0139D02*
X01754Y01358D01*
X01714Y0139D02*
X01722D01*
X01713Y01391D02*
X01714Y0139D01*
X01763Y01299D02*
X02118D01*
X01722Y01407D02*
X01759Y0137D01*
X01698Y01407D02*
X01722D01*
X01724Y01423D02*
X01765Y01381D01*
X01713Y01423D02*
X01724D01*
X01726Y01439D02*
X01771Y01393D01*
X01698Y01439D02*
X01726D01*
X01716Y01466D02*
X01777Y01405D01*
X01765Y01518D02*
X01765Y01518D01*
X0168Y01487D02*
X01683Y01485D01*
X02172Y01502D02*
X02173Y01502D01*
X01697Y01503D02*
X01697Y01502D01*
X02172*
X02169Y0135D02*
X02192D01*
X02173Y01334D02*
D01*
X02172Y01313D02*
X02172D01*
X02176Y01298D02*
X02188D01*
X02125Y01287D02*
X02173Y01334D01*
X02134Y01275D02*
X02172Y01313D01*
X02147Y0125D02*
X02176Y01279D01*
X02141Y01263D02*
X02176Y01298D01*
X02176Y01279D02*
D01*
X02118Y01299D02*
X02169Y0135D01*
X0217Y01406D02*
X02172Y01408D01*
X01716Y01466D02*
Y01468D01*
X01726Y0125D02*
X02147D01*
G54D20*
X02164Y01362D02*
X02178D01*
X02148Y01484D02*
X0215Y01486D01*
X02187*
X02202Y01471*
Y01455D02*
Y01471D01*
Y01452D02*
X02207Y01448D01*
Y01384D02*
Y01448D01*
X02186Y01363D02*
X02207Y01384D01*
X02202Y01452D02*
Y01455D01*
X02197Y01263D02*
X02207Y01272D01*
Y0137*
X02197Y01261D02*
Y01263D01*
G54D21*
X01678Y01327D03*
X0168Y01297D03*
X01681Y01423D03*
X0168Y01391D03*
X02206Y01408D03*
X02202Y01373D03*
X0168Y01359D03*
X01691Y01255D03*
X02199Y01324D03*
X02202Y01499D03*
Y01475D03*
X02116Y01452D03*
Y01478D03*
Y01524D03*
X0177Y01532D03*
X01769Y01439D03*
X02051Y01454D03*
X02031D03*
X02011D03*
X01992D03*
X01972D03*
X01952D03*
X01933D03*
X01913D03*
X01893D03*
X01874D03*
X01854D03*
X01834D03*
X02117Y01325D03*
X0177Y01324D03*
X01769Y01469D03*
X01695Y01281D03*
X0171Y01296D03*
X01697Y01503D03*
X01689Y01539D03*
X01695Y01313D03*
X01694Y01342D03*
X0171Y01328D03*
X01695Y01376D03*
X02192Y0135D03*
X02172Y01313D03*
X02188Y01298D03*
X02176Y01279D03*
X02173Y01334D03*
X02197Y01261D03*
X01716Y01468D03*
X02169Y01378D03*
X02172Y01408D03*
X02187Y01423D03*
X02172Y01439D03*
X02172Y0147D03*
X02173Y01502D03*
X02189Y01393D03*
X01713Y01423D03*
X01712Y01539D03*
X01683Y0147D03*
X01698Y01439D03*
X01713Y01391D03*
X01698Y01407D03*
X02202Y01455D03*
X02175Y01586D03*
Y01563D03*
X02198D03*
Y01586D03*
X02175Y01539D03*
X02198D03*
X01712Y01563D03*
X01689D03*
Y01586D03*
X01712D03*
M02*