%FSTAX23Y23*%
%MOIN*%
%SFA1B1*%

%IPPOS*%
%ADD87C,0.017700*%
%LNleft_board-1*%
%LPD*%
G36*
X02592Y04524D02*
X02593Y04524D01*
X02593Y04524*
X02687*
X03487*
X0349Y04524*
X03495Y04522*
X035Y0452*
X03504Y04517*
X03508Y04513*
X03511Y04509*
X03513Y04504*
X03514Y04499*
X03515Y04496*
Y01343*
X03514Y01341*
X03513Y01336*
X03511Y01331*
X03508Y01326*
X03504Y01322*
X03499Y01319*
X03495Y01317*
X03489Y01316*
X03487Y01316*
X03156Y01316*
X03152Y01321*
X03154Y01324*
X03155Y01333*
Y01368*
X03154Y01377*
X0315Y01385*
X03145Y01392*
X03138Y01398*
X0313Y01401*
X03121Y01402*
X03113*
X03105Y01401*
X03096Y01398*
X03089Y01392*
X03084Y01385*
X03081Y01377*
X03079Y01368*
Y01333*
X03081Y01324*
X03082Y01321*
X03079Y01316*
X0288*
X02877Y01321*
X02878Y01324*
X02879Y01333*
Y01368*
X02878Y01377*
X02875Y01385*
X02869Y01392*
X02862Y01398*
X02854Y01401*
X02845Y01402*
X02838*
X02829Y01401*
X02821Y01398*
X02814Y01392*
X02808Y01385*
X02805Y01377*
X02804Y01368*
Y01333*
X02805Y01324*
X02807Y01321*
X02803Y01316*
X02699*
X02699*
X02699*
X02679Y01316*
X02637Y01318*
X02596Y01324*
X02556Y01333*
X02517Y01346*
X02478Y01361*
X02441Y01379*
X02406Y01401*
X02372Y01425*
X0234Y01451*
X02311Y0148*
X02284Y01511*
X02259Y01545*
X02237Y0158*
X02218Y01616*
X02202Y01654*
X02189Y01694*
X02179Y01734*
X02173Y01774*
X02169Y01816*
X02169Y01836*
Y01836*
X02169Y01844*
X02172Y01858*
X02177Y01872*
X0218Y01878*
X02181*
X02185Y01876*
X02187Y01869*
X0219Y01864*
X02187Y01859*
X02185Y0185*
X02187Y01841*
X0219Y01836*
X02187Y01831*
X02185Y01822*
X02187Y01814*
X02192Y01806*
X02199Y01801*
X02208Y01799*
X02217Y01801*
X02222Y01804*
X02227Y01801*
X02236Y01799*
X02245Y01801*
X02252Y01806*
X02257Y01814*
X02259Y01822*
X02257Y01831*
X02254Y01836*
X02257Y01841*
X02259Y0185*
X02257Y01859*
X02254Y01864*
X02257Y01869*
X02259Y01878*
X02257Y01886*
X02252Y01894*
X02245Y01899*
X02236Y01901*
X02227Y01899*
X02222Y01896*
X02217Y01899*
X0221Y019*
X02209Y01905*
X0222Y01911*
X02234Y01914*
X02241Y01915*
X02242Y01915*
X02242Y01915*
X02251Y01916*
X02251Y01916*
X02252*
X02269Y0192*
X0227Y0192*
X02271Y0192*
X02288Y01926*
X02288Y01927*
X02289Y01927*
X02305Y01936*
X02305Y01936*
X02306Y01937*
X0232Y01948*
X0232Y01948*
X02321Y01949*
X02333Y01962*
X02334Y01962*
X02334Y01963*
X02345Y01978*
X02345Y01978*
X02345Y01979*
X02353Y01995*
X02353Y01996*
X02354Y01996*
X02359Y02013*
X02359Y02014*
X02359Y02015*
X02362Y02033*
X02362Y02033*
X02362Y02034*
X02362Y02052*
X02362Y02053*
Y02054*
X02359Y02071*
X02359Y02072*
X02359Y02073*
X02354Y0209*
X02353Y02091*
X02353Y02091*
X02345Y02107*
X02345Y02108*
X02344Y02109*
X02334Y02123*
X02334Y02124*
X02333Y02125*
X02321Y02138*
X0232Y02138*
X0232Y02139*
X02306Y0215*
X02305Y0215*
X02304Y0215*
X02289Y02159*
X02288Y02159*
X02287Y0216*
X0227Y02166*
X0227Y02166*
X02269Y02166*
X02251Y0217*
X02251*
X0225Y0217*
X02241Y02171*
X02241*
X02241Y02171*
X02234Y02171*
X0222Y02175*
X02207Y0218*
X02196Y02189*
X02186Y02199*
X02178Y02211*
X02173Y02224*
X0217Y02237*
Y02245*
X02169Y02759*
Y02762*
X02171Y02766*
X02175Y0277*
X0218Y02772*
X02182Y02772*
X02182*
X0243*
X02431Y02772*
X02431*
X02436Y02772*
X02437Y02772*
X02437*
X02447Y02774*
X02448Y02774*
X02449Y02775*
X02458Y02778*
X02459Y02779*
X0246Y02779*
X02468Y02785*
X02469Y02785*
X02469Y02786*
X02476Y02793*
X02477Y02794*
X02478Y02795*
X02483Y02803*
X02483Y02804*
X02484Y02804*
X02488Y02813*
X02488Y02814*
X02488Y02815*
X0249Y02825*
Y02826*
X0249Y02826*
X02491Y02831*
Y02832*
Y02832*
Y03161*
Y03161*
Y03162*
X0249Y03167*
X0249Y03167*
Y03168*
X02488Y03178*
X02488Y03179*
X02488Y0318*
X02484Y03189*
X02483Y0319*
X02483Y0319*
X02478Y03199*
X02477Y03199*
X02476Y032*
X02469Y03207*
X02469Y03208*
X02468Y03208*
X0246Y03214*
X02459Y03214*
X02458Y03215*
X02449Y03218*
X02448Y03219*
X02447Y03219*
X02437Y03221*
X02437*
X02436Y03221*
X02431Y03221*
X02431*
X0243*
X0221*
X02206*
X02198Y03223*
X02191Y03226*
X02184Y0323*
X02179Y03236*
X02174Y03242*
X02171Y0325*
X0217Y03257*
X0217Y03261*
Y03261*
Y03261*
X02169Y03884*
Y03889*
X02171Y03898*
X02174Y03906*
X02179Y03914*
X02186Y0392*
X02193Y03925*
X02202Y03929*
X02211Y03931*
X02215*
X02264Y03931*
X02264*
X02264*
X02274Y03931*
X02275Y03931*
X02276*
X02296Y03934*
X02297Y03934*
X02298Y03934*
X02318Y03941*
X02318Y03941*
X02319Y03942*
X02337Y03952*
X02338Y03952*
X02339Y03953*
X02355Y03966*
X02356Y03966*
X02356Y03967*
X0237Y03982*
X0237Y03983*
X02371Y03984*
X02382Y04001*
X02382Y04002*
X02383Y04003*
X0239Y04022*
X0239Y04023*
X02391Y04024*
X02395Y04044*
Y04045*
X02395Y04046*
X02395Y04067*
X02395Y04068*
Y04069*
X02392Y04089*
X02392Y0409*
X02391Y04091*
X02385Y0411*
X02384Y04111*
X02384Y04112*
X0238Y04121*
X02379Y04121*
X02379Y04121*
X02364Y04148*
X02364Y04149*
X02364Y04149*
X02359Y04156*
X02352Y04172*
X02347Y04189*
X02345Y04207*
X02345Y04215*
Y04216*
X02344Y04358*
Y04358*
Y04358*
X02344Y04362*
X02345Y04371*
X02347Y0438*
X02351Y04388*
X02355Y04396*
X0236Y04404*
X02366Y0441*
X02373Y04416*
X02377Y04418*
X02434Y04451*
X02435Y04451*
X0244Y04449*
X0244Y04443*
X02443Y04436*
X02448Y0443*
X02454Y04425*
X02461Y04422*
X02469Y04421*
X02477Y04422*
X02484Y04425*
X0249Y0443*
X02495Y04436*
X02498Y04443*
X02499Y04451*
X02498Y04459*
X02495Y04466*
X0249Y04472*
X02486Y04475*
X02485Y04478*
X02486Y04481*
X02537Y04511*
X02537Y04511*
X02537Y04511*
X02543Y04515*
X02557Y0452*
X02571Y04523*
X02585Y04525*
X02592Y04524*
G37*
%LNleft_board-2*%
%LPC*%
G36*
X02522Y04389D02*
X02515Y04388D01*
X02507Y04385*
X02501Y0438*
X02496Y04374*
X02493Y04367*
X02492Y04359*
X02493Y04351*
X02496Y04344*
X02501Y04338*
X02507Y04333*
X02515Y0433*
X02522Y04329*
X0253Y0433*
X02537Y04333*
X02543Y04338*
X02548Y04344*
X02551Y04351*
X02552Y04359*
X02551Y04367*
X02548Y04374*
X02543Y0438*
X02537Y04385*
X0253Y04388*
X02522Y04389*
G37*
G36*
X02468Y04256D02*
X02453Y04254D01*
X0244Y0425*
X02427Y04243*
X02416Y04234*
X02407Y04223*
X024Y04211*
X02396Y04197*
X02395Y04183*
X02396Y04168*
X024Y04155*
X02407Y04142*
X02416Y04131*
X02427Y04122*
X0244Y04115*
X02453Y04111*
X02468Y04109*
X02482Y04111*
X02496Y04115*
X02508Y04122*
X02519Y04131*
X02529Y04142*
X02535Y04155*
X02539Y04168*
X02541Y04183*
X02539Y04197*
X02535Y04211*
X02529Y04223*
X02519Y04234*
X02508Y04243*
X02496Y0425*
X02482Y04254*
X02468Y04256*
G37*
G36*
X03422Y04278D02*
X03408Y04277D01*
X03394Y04273*
X03382Y04266*
X03371Y04257*
X03362Y04246*
X03355Y04233*
X03351Y04219*
X03349Y04205*
X03351Y04191*
X03355Y04177*
X03362Y04164*
X03371Y04153*
X03382Y04144*
X03394Y04137*
X03406Y04134*
X03408Y04129*
X03408Y04128*
X03404Y04124*
X03403Y04115*
X03404Y04106*
X03409Y04098*
X03417Y04093*
X03426Y04092*
X03435Y04093*
X03442Y04098*
X03446Y04105*
X03447Y04104*
X03456Y04102*
X03465Y04104*
X03473Y04109*
X03478Y04117*
X03479Y04126*
X03478Y04134*
X03473Y04142*
X03469Y04144*
X03469Y04149*
X03474Y04153*
X03483Y04164*
X0349Y04177*
X03494Y04191*
X03496Y04205*
X03494Y04219*
X0349Y04233*
X03483Y04246*
X03474Y04257*
X03463Y04266*
X0345Y04273*
X03437Y04277*
X03422Y04278*
G37*
G36*
X03382Y04101D02*
X03373Y04099D01*
X03366Y04094*
X03361Y04087*
X03359Y04078*
X03361Y04069*
X03366Y04061*
X03373Y04056*
X03382Y04055*
X03391Y04056*
X03398Y04061*
X03403Y04069*
X03405Y04078*
X03403Y04087*
X03398Y04094*
X03391Y04099*
X03382Y04101*
G37*
G36*
X03153Y04031D02*
X03144Y04029D01*
X03137Y04024*
X03132Y04016*
X0313Y04007*
X03132Y03999*
X03137Y03991*
X03144Y03986*
X03153Y03984*
X03162Y03986*
X03169Y03991*
X03174Y03999*
X03176Y04007*
X03174Y04016*
X03169Y04024*
X03162Y04029*
X03153Y04031*
G37*
G36*
X03123Y03956D02*
X03115Y03954D01*
X0311Y03951*
X03105Y03954*
X03096Y03956*
X03087Y03954*
X0308Y03949*
X03075Y03941*
X03073Y03933*
X03075Y03924*
X03078Y03919*
X03075Y03914*
X03073Y03905*
X03075Y03896*
X0308Y03889*
X03087Y03884*
X03096Y03882*
X03105Y03884*
X0311Y03887*
X03115Y03884*
X03123Y03882*
X03132Y03884*
X0314Y03889*
X03145Y03896*
X03147Y03905*
X03145Y03914*
X03142Y03919*
X03145Y03924*
X03147Y03933*
X03145Y03941*
X0314Y03949*
X03132Y03954*
X03123Y03956*
G37*
G36*
X03457Y03982D02*
X03448Y03981D01*
X03441Y03976*
X03436Y03968*
X03434Y03959*
X03436Y0395*
X03441Y03943*
X03448Y03938*
X03457Y03936*
X03466Y03938*
X03474Y03943*
X03479Y0395*
X0348Y03959*
X03479Y03968*
X03474Y03976*
X03466Y03981*
X03457Y03982*
G37*
G36*
X02886Y03948D02*
X02878Y03946D01*
X0287Y03941*
X02865Y03934*
X02863Y03925*
X02865Y03916*
X0287Y03908*
X02878Y03903*
X02886Y03902*
X02895Y03903*
X02903Y03908*
X02908Y03916*
X02909Y03925*
X02908Y03934*
X02903Y03941*
X02895Y03946*
X02886Y03948*
G37*
G36*
X03424Y03914D02*
X03415Y03913D01*
X03407Y03908*
X03402Y039*
X03401Y03891*
X03402Y03882*
X03407Y03875*
X03415Y0387*
X03424Y03868*
X03433Y0387*
X0344Y03875*
X03445Y03882*
X03447Y03891*
X03445Y039*
X0344Y03908*
X03433Y03913*
X03424Y03914*
G37*
G36*
X03236Y03885D02*
X03227Y03883D01*
X03219Y03878*
X03214Y03871*
X03213Y03862*
X03214Y03853*
X03219Y03845*
X03227Y0384*
X03236Y03839*
X03245Y0384*
X03252Y03845*
X03257Y03853*
X03259Y03862*
X03257Y03871*
X03252Y03878*
X03245Y03883*
X03236Y03885*
G37*
G36*
X02979Y03805D02*
X0297Y03803D01*
X02963Y03798*
X02958Y03791*
X02956Y03782*
X02958Y03773*
X02963Y03766*
X0297Y03761*
X02979Y03759*
X02988Y03761*
X02995Y03766*
X03Y03773*
X03002Y03782*
X03Y03791*
X02995Y03798*
X02988Y03803*
X02979Y03805*
G37*
G36*
X02878Y03794D02*
X02869Y03793D01*
X02861Y03788*
X02856Y0378*
X02854Y03771*
X02856Y03762*
X02861Y03755*
X02869Y0375*
X02878Y03748*
X02886Y0375*
X02894Y03755*
X02899Y03762*
X02901Y03771*
X02899Y0378*
X02894Y03788*
X02886Y03793*
X02878Y03794*
G37*
G36*
X02771Y03798D02*
X02762Y03796D01*
X02755Y03791*
X0275Y03784*
X02748Y03775*
X0275Y03766*
X02755Y03759*
X02762Y03754*
X02771Y03752*
X0278Y03754*
X02788Y03759*
X02788Y0376*
X02794Y0376*
X02798Y03754*
X02805Y03749*
X02814Y03748*
X02823Y03749*
X0283Y03754*
X02835Y03762*
X02837Y03771*
X02835Y0378*
X0283Y03787*
X02823Y03792*
X02814Y03794*
X02805Y03792*
X02798Y03787*
X02797Y03786*
X02791Y03786*
X02788Y03791*
X0278Y03796*
X02771Y03798*
G37*
G36*
X02695Y03745D02*
X02686Y03744D01*
X02679Y03739*
X02674Y03731*
X02672Y03722*
X02674Y03713*
X02679Y03706*
X02686Y03701*
X02695Y03699*
X02704Y03701*
X02711Y03706*
X02716Y03713*
X02718Y03722*
X02716Y03731*
X02711Y03739*
X02704Y03744*
X02695Y03745*
G37*
G36*
X02289Y03648D02*
X0228Y03646D01*
X02273Y03641*
X02268Y03633*
X02266Y03625*
X02268Y03616*
X02273Y03608*
X0228Y03603*
X02289Y03601*
X02298Y03603*
X02305Y03608*
X0231Y03616*
X02312Y03625*
X0231Y03633*
X02305Y03641*
X02298Y03646*
X02289Y03648*
G37*
G36*
X02961Y0361D02*
X02952Y03608D01*
X02945Y03603*
X02943Y036*
X02939Y03603*
X0293Y03605*
X02921Y03603*
X02914Y03598*
X02909Y03591*
X02907Y03582*
X02909Y03573*
X02914Y03566*
X02921Y03561*
X0293Y03559*
X02939Y03561*
X02946Y03566*
X02948Y03568*
X02952Y03565*
X02961Y03563*
X0297Y03565*
X02978Y0357*
X02983Y03578*
X02984Y03587*
X02983Y03595*
X02978Y03603*
X0297Y03608*
X02961Y0361*
G37*
G36*
X02744Y03664D02*
X02735Y03663D01*
X02727Y03658*
X02722Y0365*
X02721Y03641*
X02722Y03632*
X02727Y03625*
X02735Y0362*
X02744Y03618*
X02753Y0362*
X02754Y03621*
X02759Y03618*
X0276Y03614*
X02765Y03607*
X02773Y03602*
X02782Y036*
X0279Y03602*
X02798Y03607*
X02803Y03614*
X02805Y03623*
X02803Y03632*
X02798Y03639*
X0279Y03644*
X02782Y03646*
X02773Y03644*
X02771Y03644*
X02766Y03646*
X02765Y0365*
X0276Y03658*
X02753Y03663*
X02744Y03664*
G37*
G36*
X02835Y03636D02*
X02826Y03635D01*
X02819Y0363*
X02814Y03622*
X02812Y03613*
X02814Y03604*
X02819Y03597*
X02826Y03592*
X02835Y0359*
X02844Y03592*
X02852Y03597*
X02857Y03604*
X02858Y03613*
X02857Y03622*
X02852Y0363*
X02844Y03635*
X02835Y03636*
G37*
G36*
X0333Y03617D02*
X03321Y03615D01*
X03314Y0361*
X03309Y03603*
X03307Y03594*
X03309Y03585*
X03314Y03578*
X03321Y03573*
X0333Y03571*
X03339Y03573*
X03347Y03578*
X03352Y03585*
X03353Y03594*
X03352Y03603*
X03347Y0361*
X03339Y03615*
X0333Y03617*
G37*
G36*
X02586Y03507D02*
X02577Y03505D01*
X0257Y035*
X02565Y03493*
X02563Y03484*
X02564Y03481*
X02563Y03479*
X02554Y03478*
X02546Y03473*
X02541Y03465*
X02539Y03456*
X02541Y03447*
X02546Y0344*
X02554Y03435*
X02563Y03433*
X02571Y03435*
X02579Y0344*
X02584Y03447*
X02586Y03456*
X02585Y0346*
X02586Y03461*
X02595Y03462*
X02602Y03467*
X02607Y03475*
X02609Y03484*
X02607Y03493*
X02602Y035*
X02595Y03505*
X02586Y03507*
G37*
G36*
X02275Y03405D02*
X02266Y03403D01*
X02261Y03399*
X02256Y03403*
X02248Y03405*
X02239Y03403*
X02231Y03398*
X02226Y0339*
X02225Y03381*
X02226Y03373*
X0223Y03368*
X02226Y03363*
X02225Y03354*
X02226Y03345*
X02231Y03338*
X02239Y03333*
X02248Y03331*
X02256Y03333*
X02261Y03336*
X02266Y03333*
X02275Y03331*
X02284Y03333*
X02291Y03338*
X02296Y03345*
X02298Y03354*
X02296Y03363*
X02293Y03368*
X02296Y03373*
X02298Y03381*
X02296Y0339*
X02291Y03398*
X02284Y03403*
X02275Y03405*
G37*
G36*
X02929Y03444D02*
X0292Y03442D01*
X02912Y03437*
X02907Y0343*
X02906Y03421*
X02907Y03412*
X02912Y03404*
X0292Y03399*
X02929Y03398*
X02938Y03399*
X02945Y03404*
X0295Y03412*
X02952Y03421*
X0295Y0343*
X02945Y03437*
X02938Y03442*
X02929Y03444*
G37*
G36*
X03204Y03441D02*
X03195Y03439D01*
X03188Y03434*
X03183Y03427*
X03181Y03418*
X03183Y03409*
X03188Y03402*
X03195Y03397*
X03204Y03395*
X03213Y03397*
X03221Y03402*
X03226Y03409*
X03227Y03418*
X03226Y03427*
X03221Y03434*
X03213Y03439*
X03204Y03441*
G37*
G36*
X03074Y03412D02*
X03066Y03411D01*
X03058Y03406*
X03053Y03398*
X03051Y03389*
X03053Y0338*
X03058Y03373*
X03066Y03368*
X03074Y03366*
X03083Y03368*
X03091Y03373*
X03096Y0338*
X03097Y03389*
X03096Y03398*
X03091Y03406*
X03083Y03411*
X03074Y03412*
G37*
G36*
X03027Y03373D02*
X03018Y03371D01*
X03011Y03366*
X03006Y03359*
X03004Y0335*
X03006Y03341*
X03011Y03334*
X03018Y03329*
X03027Y03327*
X03036Y03329*
X03043Y03334*
X03048Y03341*
X0305Y0335*
X03048Y03359*
X03043Y03366*
X03036Y03371*
X03027Y03373*
G37*
G36*
X02421Y03365D02*
X02412Y03363D01*
X02404Y03358*
X02399Y03351*
X02398Y03342*
X02399Y03333*
X02404Y03326*
X02412Y03321*
X02421Y03319*
X0243Y03321*
X02437Y03326*
X02442Y03333*
X02444Y03342*
X02442Y03351*
X02437Y03358*
X0243Y03363*
X02421Y03365*
G37*
G36*
X02862Y03353D02*
X02853Y03352D01*
X02845Y03347*
X0284Y03339*
X02839Y0333*
X0284Y03321*
X02845Y03314*
X02853Y03309*
X02862Y03307*
X02871Y03309*
X02878Y03314*
X02883Y03321*
X02885Y0333*
X02883Y03339*
X02878Y03347*
X02871Y03352*
X02862Y03353*
G37*
G36*
X0294Y03346D02*
X02931Y03345D01*
X02923Y0334*
X02918Y03332*
X02916Y03323*
X02918Y03315*
X02923Y03307*
X02931Y03302*
X0294Y033*
X02948Y03302*
X02956Y03307*
X02961Y03315*
X02963Y03323*
X02961Y03332*
X02956Y0334*
X02948Y03345*
X0294Y03346*
G37*
G36*
X0259Y03311D02*
X02581Y03309D01*
X02574Y03304*
X02569Y03297*
X02567Y03288*
X02569Y03279*
X02574Y03272*
X02581Y03267*
X0259Y03265*
X02599Y03267*
X02606Y03272*
X02611Y03279*
X02613Y03288*
X02611Y03297*
X02606Y03304*
X02599Y03309*
X0259Y03311*
G37*
G36*
X02692Y03271D02*
X02684Y03269D01*
X02677Y03264*
X0267Y03269*
X02661Y03271*
X02652Y03269*
X02645Y03264*
X0264Y03256*
X02638Y03248*
X0264Y03239*
X02645Y03231*
X02652Y03226*
X02661Y03225*
X0267Y03226*
X02677Y03231*
X02684Y03226*
X02692Y03225*
X02701Y03226*
X02709Y03231*
X02714Y03239*
X02716Y03248*
X02714Y03256*
X02709Y03264*
X02701Y03269*
X02692Y03271*
G37*
G36*
X02366Y03279D02*
X02357Y03277D01*
X02349Y03272*
X02344Y03264*
X02343Y03255*
X02344Y03247*
X02349Y03239*
X02357Y03234*
X02366Y03232*
X02375Y03234*
X02382Y03239*
X02387Y03247*
X02389Y03255*
X02387Y03264*
X02382Y03272*
X02375Y03277*
X02366Y03279*
G37*
G36*
X03067Y03219D02*
X03059Y03218D01*
X03051Y03213*
X03044Y03218*
X03035Y03219*
X03026Y03218*
X03019Y03213*
X03011Y03218*
X03003Y03219*
X02994Y03218*
X02986Y03213*
X02981Y03205*
X02979Y03196*
X02981Y03188*
X02986Y0318*
X02994Y03175*
X03003Y03173*
X03011Y03175*
X03019Y0318*
X03026Y03175*
X03035Y03173*
X03044Y03175*
X03051Y0318*
X03059Y03175*
X03067Y03173*
X03076Y03175*
X03084Y0318*
X03089Y03188*
X03091Y03196*
X03089Y03205*
X03084Y03213*
X03076Y03218*
X03067Y03219*
G37*
G36*
X02753Y03209D02*
X02745Y03207D01*
X0274Y03204*
X02736Y03207*
X02727Y03209*
X02718Y03207*
X02711Y03202*
X02706Y03194*
X02704Y03186*
X02706Y03177*
X02711Y03169*
X02718Y03164*
X02727Y03162*
X02736Y03164*
X0274Y03167*
X02745Y03164*
X02753Y03162*
X02762Y03164*
X0277Y03169*
X02775Y03177*
X02777Y03186*
X02775Y03194*
X0277Y03202*
X02762Y03207*
X02753Y03209*
G37*
G36*
X02944Y03156D02*
X02936Y03155D01*
X02928Y0315*
X02923Y03142*
X02921Y03133*
X02923Y03125*
X02926Y0312*
X02923Y03116*
X02918Y03119*
X02909Y03121*
X029Y03119*
X02893Y03114*
X02888Y03107*
X02886Y03098*
X02888Y03089*
X02893Y03082*
X029Y03077*
X02909Y03075*
X02918Y03077*
X02925Y03082*
X0293Y03089*
X02932Y03098*
X0293Y03107*
X02927Y03112*
X02931Y03115*
X02936Y03112*
X02944Y0311*
X02953Y03112*
X02961Y03117*
X02966Y03125*
X02968Y03133*
X02966Y03142*
X02961Y0315*
X02953Y03155*
X02944Y03156*
G37*
G36*
X03228D02*
X03219Y03155D01*
X03212Y0315*
X03207Y03142*
X03205Y03133*
X03207Y03125*
X03212Y03117*
X03219Y03112*
X03228Y0311*
X03237Y03112*
X03244Y03117*
X03249Y03125*
X03251Y03133*
X03249Y03142*
X03244Y0315*
X03237Y03155*
X03228Y03156*
G37*
G36*
X02938Y03056D02*
X02929Y03054D01*
X02921Y03049*
X02916Y03042*
X02914Y03033*
X02916Y03024*
X02921Y03017*
X02929Y03012*
X02938Y0301*
X02946Y03012*
X02954Y03017*
X02959Y03024*
X02961Y03033*
X02959Y03042*
X02954Y03049*
X02946Y03054*
X02938Y03056*
G37*
G36*
X03149Y02826D02*
X0314Y02824D01*
X03133Y02819*
X03128Y02812*
X03126Y02803*
X03128Y02794*
X03133Y02786*
X0314Y02781*
X03149Y0278*
X03158Y02781*
X03165Y02786*
X0317Y02794*
X03172Y02803*
X0317Y02812*
X03165Y02819*
X03158Y02824*
X03149Y02826*
G37*
G36*
X03059Y02668D02*
X0305Y02667D01*
X03042Y02662*
X03037Y02654*
X03036Y02645*
X03037Y02636*
X03042Y02629*
X0305Y02624*
X03054Y02623*
X03059Y02622*
X0306Y02617*
X03061Y02613*
X03066Y02605*
X03073Y026*
X03082Y02599*
X03091Y026*
X03099Y02605*
X03104Y02613*
X03105Y02622*
X03104Y0263*
X03099Y02638*
X03091Y02643*
X03087Y02644*
X03082Y02645*
X03081Y0265*
X0308Y02654*
X03075Y02662*
X03067Y02667*
X03059Y02668*
G37*
G36*
X03011Y02534D02*
X03003Y02533D01*
X02995Y02528*
X0299Y0252*
X02988Y02511*
X0299Y02503*
X02995Y02495*
X03003Y0249*
X03011Y02488*
X03013Y02483*
X03014Y02479*
X03019Y02471*
X03026Y02466*
X03035Y02465*
X03044Y02466*
X03051Y02471*
X03056Y02479*
X03058Y02488*
X03056Y02497*
X03051Y02504*
X03044Y02509*
X03035Y02511*
X03034Y02516*
X03033Y0252*
X03028Y02528*
X0302Y02533*
X03011Y02534*
G37*
G36*
X02964Y02503D02*
X02955Y02501D01*
X02948Y02496*
X02943Y02489*
X02941Y0248*
X02943Y02471*
X02948Y02464*
X02955Y02459*
X02964Y02457*
X02973Y02459*
X0298Y02464*
X02985Y02471*
X02987Y0248*
X02985Y02489*
X0298Y02496*
X02973Y02501*
X02964Y02503*
G37*
G36*
X02803Y02452D02*
X02794Y0245D01*
X02786Y02445*
X02781Y02438*
X0278Y02429*
X02781Y0242*
X02786Y02412*
X02794Y02407*
X02803Y02406*
X02806Y02406*
X02811Y02405*
X02812Y02403*
X02813Y02396*
X02818Y02389*
X02824Y02385*
X02823Y02379*
X02821Y02379*
X02814Y02374*
X02809Y02367*
X02807Y02358*
X02809Y02349*
X02814Y02341*
X02821Y02336*
X0283Y02335*
X02839Y02336*
X02847Y02341*
X02852Y02349*
X02853Y02357*
X02855Y02359*
X02858Y0236*
X02866Y02358*
X02875Y0236*
X02882Y02365*
X02887Y02373*
X02889Y02381*
X02887Y0239*
X02882Y02398*
X02875Y02403*
X02866Y02405*
X02862Y02404*
X02857Y02405*
X02857Y02407*
X02856Y02414*
X02851Y02421*
X02843Y02426*
X02834Y02428*
X02831Y02427*
X02826Y02429*
X02825Y02431*
X02824Y02438*
X02819Y02445*
X02812Y0245*
X02803Y02452*
G37*
G36*
X03425Y02251D02*
X03416Y02249D01*
X03411Y02246*
X03406Y02249*
X03397Y02251*
X03388Y02249*
X03381Y02244*
X03376Y02237*
X03374Y02228*
X03374Y02227*
X0337Y02223*
X03366Y02223*
X03357Y02222*
X03352Y02218*
X03347Y02222*
X03338Y02223*
X03329Y02222*
X03322Y02217*
X03317Y02209*
X03315Y022*
X03317Y02192*
X0332Y02187*
X03317Y02182*
X03315Y02173*
X03317Y02164*
X0332Y02159*
X03317Y02154*
X03315Y02145*
X03317Y02136*
X03322Y02129*
X03329Y02124*
X03338Y02122*
X03347Y02124*
X03354Y02129*
X03359Y02136*
X03361Y02145*
X03359Y02154*
X03356Y02159*
X03359Y02164*
X03361Y02173*
X03361Y02174*
X03365Y02177*
X03366Y02177*
X0337Y02178*
X03374Y02174*
X03374Y02173*
X03376Y02164*
X03381Y02156*
X03388Y02151*
X03397Y0215*
X03406Y02151*
X03411Y02155*
X03416Y02151*
X03425Y0215*
X03434Y02151*
X03441Y02156*
X03446Y02164*
X03448Y02173*
X03446Y02182*
X03443Y02187*
X03446Y02192*
X03448Y022*
X03446Y02209*
X03443Y02214*
X03446Y02219*
X03448Y02228*
X03446Y02237*
X03441Y02244*
X03434Y02249*
X03425Y02251*
G37*
G36*
X03234Y02238D02*
X03225Y02236D01*
X0322Y02233*
X03215Y02236*
X03206Y02238*
X03197Y02236*
X0319Y02231*
X03185Y02224*
X03183Y02215*
X03185Y02206*
X03188Y02201*
X03185Y02196*
X03183Y02188*
X03185Y02179*
X0319Y02171*
X03197Y02166*
X03206Y02164*
X03215Y02166*
X0322Y0217*
X03225Y02166*
X03234Y02164*
X03243Y02166*
X0325Y02171*
X03255Y02179*
X03257Y02188*
X03255Y02196*
X03252Y02201*
X03255Y02206*
X03257Y02215*
X03255Y02224*
X0325Y02231*
X03243Y02236*
X03234Y02238*
G37*
G36*
X02261Y02337D02*
X02247Y02335D01*
X02233Y02331*
X0222Y02324*
X02209Y02315*
X022Y02304*
X02193Y02291*
X02189Y02278*
X02188Y02263*
X02189Y02249*
X02193Y02235*
X022Y02223*
X02209Y02212*
X0222Y02202*
X02233Y02196*
X02247Y02192*
X02261Y0219*
X02275Y02192*
X02289Y02196*
X02302Y02202*
X02313Y02212*
X02322Y02223*
X02329Y02235*
X02333Y02249*
X02334Y02263*
X02333Y02278*
X02329Y02291*
X02322Y02304*
X02313Y02315*
X02302Y02324*
X02289Y02331*
X02275Y02335*
X02261Y02337*
G37*
G36*
X03172Y02139D02*
X03163Y02137D01*
X03155Y02132*
X0315Y02125*
X03149Y02116*
X0315Y02107*
X03155Y02099*
X03163Y02094*
X03172Y02093*
X03181Y02094*
X03188Y02099*
X03193Y02107*
X03195Y02116*
X03193Y02125*
X03188Y02132*
X03181Y02137*
X03172Y02139*
G37*
G36*
X03149Y0209D02*
X0314Y02088D01*
X03133Y02083*
X03128Y02075*
X03126Y02066*
X03128Y02058*
X03133Y0205*
X0314Y02045*
X03149Y02043*
X03158Y02045*
X03165Y0205*
X0317Y02058*
X03172Y02066*
X0317Y02075*
X03165Y02083*
X03158Y02088*
X03149Y0209*
G37*
G36*
X02893Y02015D02*
X02884Y02013D01*
X02877Y02008*
X02872Y02001*
X0287Y01992*
X02872Y01983*
X02877Y01976*
X02875Y01971*
X02593*
X02589*
X02587Y0197*
X02584Y0197*
X02576Y01967*
X02574Y01965*
X02572Y01964*
X02566Y01958*
X02563Y01953*
X0256Y01946*
X0256Y01944*
X02559Y01941*
Y01937*
Y0176*
Y01756*
X0256Y01751*
X02563Y01743*
X02566Y01739*
X02572Y01733*
X02576Y0173*
X02584Y01727*
X02589Y01726*
X02593*
X02927*
X02931*
X02937Y01727*
X02944Y0173*
X02948Y01733*
X02954Y01739*
X02957Y01743*
X0296Y01751*
X02961Y01756*
Y0176*
Y01937*
Y01941*
X0296Y01946*
X02957Y01953*
X02956Y01956*
X02954Y01958*
X02948Y01964*
X02946Y01965*
X02944Y01967*
X02937Y0197*
X02931Y01971*
X02911*
X0291Y01976*
X02915Y01983*
X02916Y01992*
X02915Y02001*
X0291Y02008*
X02902Y02013*
X02893Y02015*
G37*
G36*
X0333Y02048D02*
X03321Y02046D01*
X03314Y02041*
X03309Y02034*
X03307Y02025*
X03309Y02016*
X03313Y0201*
X03312Y02009*
X03307Y02001*
X03305Y01993*
X03307Y01984*
X03312Y01976*
X03319Y01971*
X03328Y0197*
X03337Y01971*
X03345Y01976*
X0335Y01984*
X03351Y01993*
X0335Y02001*
X03345Y02008*
X03347Y02009*
X03352Y02016*
X03353Y02025*
X03352Y02034*
X03347Y02041*
X03339Y02046*
X0333Y02048*
G37*
G36*
X03043Y01912D02*
X03034Y01911D01*
X03027Y01906*
X03022Y01898*
X0302Y01889*
X03022Y0188*
X03027Y01873*
X03034Y01868*
X03043Y01866*
X03052Y01868*
X03059Y01873*
X03064Y0188*
X03066Y01889*
X03064Y01898*
X03059Y01906*
X03052Y01911*
X03043Y01912*
G37*
G36*
X03345Y01878D02*
X03336Y01876D01*
X03329Y01871*
X03324Y01864*
X03322Y01855*
X03324Y01846*
X03329Y01839*
X03336Y01834*
X03345Y01832*
X03354Y01834*
X03361Y01839*
X03366Y01846*
X03368Y01855*
X03366Y01864*
X03361Y01871*
X03354Y01876*
X03345Y01878*
G37*
G36*
X03173Y01861D02*
X03164Y01859D01*
X03156Y01854*
X03151Y01847*
X0315Y01838*
X03151Y01829*
X03156Y01823*
X03152Y01819*
X03152*
X03143Y01821*
X03134Y01819*
X03127Y01814*
X03122Y01807*
X0312Y01798*
X03122Y01789*
X03127Y01782*
X03134Y01777*
X03143Y01775*
X03152Y01777*
X0316Y01782*
X03165Y01789*
X03166Y01798*
X03165Y01807*
X0316Y01813*
X03164Y01817*
X03164*
X03173Y01815*
X03182Y01817*
X03189Y01822*
X03194Y01829*
X03196Y01838*
X03194Y01847*
X03189Y01854*
X03182Y01859*
X03173Y01861*
G37*
G36*
X03348Y01786D02*
X03339Y01785D01*
X03332Y0178*
X03327Y01772*
X03325Y01763*
X03327Y01754*
X03332Y01747*
X03339Y01742*
X03348Y0174*
X03357Y01742*
X03364Y01747*
X03369Y01754*
X03371Y01763*
X03369Y01772*
X03364Y0178*
X03357Y01785*
X03348Y01786*
G37*
G36*
X03078Y015D02*
X03067Y01498D01*
X03056Y01494*
X03048Y01487*
X03041Y01478*
X03037Y01468*
X03035Y01457*
X03037Y01446*
X03041Y01436*
X03048Y01427*
X03056Y0142*
X03067Y01416*
X03078Y01414*
X03089Y01416*
X03099Y0142*
X03108Y01427*
X03115Y01436*
X03119Y01446*
X03121Y01457*
X03119Y01468*
X03115Y01478*
X03108Y01487*
X03099Y01494*
X03089Y01498*
X03078Y015*
G37*
G36*
X02881D02*
X0287Y01498D01*
X0286Y01494*
X02851Y01487*
X02844Y01478*
X0284Y01468*
X02838Y01457*
X0284Y01446*
X02844Y01436*
X02851Y01427*
X0286Y0142*
X0287Y01416*
X02881Y01414*
X02892Y01416*
X02902Y0142*
X02911Y01427*
X02918Y01436*
X02922Y01446*
X02924Y01457*
X02922Y01468*
X02918Y01478*
X02911Y01487*
X02902Y01494*
X02892Y01498*
X02881Y015*
G37*
G36*
X03422Y01481D02*
X03408Y0148D01*
X03394Y01476*
X03382Y01469*
X03371Y0146*
X03362Y01449*
X03355Y01436*
X03351Y01422*
X03349Y01408*
X03351Y01394*
X03355Y0138*
X03362Y01367*
X03371Y01356*
X03382Y01347*
X03394Y0134*
X03408Y01336*
X03422Y01335*
X03437Y01336*
X0345Y0134*
X03463Y01347*
X03474Y01356*
X03483Y01367*
X0349Y0138*
X03494Y01394*
X03496Y01408*
X03494Y01422*
X0349Y01436*
X03483Y01449*
X03474Y0146*
X03463Y01469*
X0345Y01476*
X03437Y0148*
X03422Y01481*
G37*
%LNleft_board-3*%
%LPD*%
G54D87*
X0303Y01413D03*
X02497Y03546D03*
X0303Y01501D03*
X02677Y04488D03*
X02815D03*
X02696Y02854D03*
Y02716D03*
Y02421D03*
X02501Y03316D03*
X02793Y03405D03*
X0289D03*
X02758Y034D03*
X02852Y03995D03*
X02789D03*
X0273Y03992D03*
X02608Y03688D03*
X02602Y03755D03*
X02244Y03818D03*
X02539Y03996D03*
X02677Y0435D03*
X02815D03*
X02677Y04212D03*
X02815D03*
X03287Y03779D03*
X03425D03*
X03287Y03641D03*
X03425D03*
X03019Y04189D03*
X03157D03*
X03019Y04051D03*
X03157D03*
X03326Y01476D03*
X03248Y02716D03*
Y02854D03*
Y02992D03*
X02559D03*
X02834Y02716D03*
X02421Y02559D03*
X02559D03*
Y02854D03*
Y02716D03*
X02421Y01866D03*
X02696Y02283D03*
X02421Y01728D03*
X02696Y02145D03*
X02834D03*
X02696Y02007D03*
X02834D03*
X02421Y02145D03*
X02559D03*
X02421Y02007D03*
X02559D03*
Y02283D03*
X02421D03*
X02559Y02421D03*
X02421D03*
X03232Y01429D03*
Y01393D03*
Y01354D03*
X03098Y0372D03*
X03396Y0355D03*
X03417Y03511D03*
Y0348D03*
X03409Y03122D03*
Y03228D03*
X03291Y0335D03*
X03267Y03425D03*
X03311Y02049D03*
X03327Y0194D03*
X03311Y02111D03*
Y02081D03*
X03255Y02129D03*
X03342Y01893D03*
X0334Y01964D03*
X02917Y04141D03*
X03397Y01984D03*
Y01956D03*
X03098Y03692D03*
X03362Y01803D03*
X0305Y01542D03*
X02534Y03282D03*
X02743Y03608D03*
X02753Y03154D03*
X03397Y02011D03*
X0309Y01775D03*
X03118D03*
X02417Y03696D03*
X0248Y037D03*
X02543D03*
X02259Y02555D03*
X02342D03*
X02925Y01598D03*
X03397Y01929D03*
X03173Y02035D03*
X02362Y03322D03*
X02299Y03275D03*
X03094Y01878D03*
X03135Y02102D03*
X03122Y02043D03*
X0309D03*
X03208Y037D03*
X03145D03*
X02602Y03815D03*
X02917Y04047D03*
X02437Y04401D03*
X02354Y04354D03*
X02527Y04456D03*
X02614Y04503D03*
X03007Y04429D03*
X03047D03*
X03086D03*
X03279D03*
X03315D03*
X0335D03*
X03126Y01878D03*
X03118Y0161D03*
X0309D03*
X03339Y02105D03*
X0235Y03393D03*
X02244Y03279D03*
X02492Y01397D03*
X02464D03*
X02519D03*
X02464Y01425D03*
X02437D03*
X02409D03*
X02519D03*
X02492D03*
X02519Y01507D03*
Y0148D03*
Y01452D03*
X02338Y01492D03*
Y01519D03*
X02311D03*
X02194Y01737D03*
X02227Y0176D03*
X03503Y02063D03*
X03444Y02118D03*
X03341Y02066D03*
X02811Y01417D03*
X02783Y01393D03*
X02755Y01417D03*
X02492Y0148D03*
Y01507D03*
Y01452D03*
X02366Y01464D03*
Y01492D03*
Y01519D03*
X02259Y01737D03*
X02374Y01858D03*
Y01889D03*
X02342Y01818D03*
X02378Y01657D03*
X02328Y01736D03*
X02297D03*
X03072Y0342D03*
X03267Y0337D03*
Y03397D03*
X02582Y03358D03*
X02625Y03609D03*
M02*