%FSTAX23Y23*%
%MOIN*%
%SFA1B1*%

%IPPOS*%
%ADD11C,0.003900*%
%ADD15C,0.006000*%
%ADD90C,0.015700*%
%ADD118C,0.010000*%
%LNleft_board-1*%
%LPD*%
G54D11*
X02387Y04303D02*
D01*
X02387Y04303*
X02387Y04303*
X02387Y04303*
X02387Y04303*
X02387Y04303*
X02387Y04303*
X02387Y04303*
X02387Y04302*
X02387Y04302*
X02388Y04302*
X02388Y04302*
X02388Y04302*
X02388Y04302*
X02388Y04302*
X02388Y04302*
X02388Y04302*
X02388Y04302*
X02389Y04302*
X02389Y04302*
X02389Y04302*
X02389Y04302*
X02389Y04302*
X02389Y04303*
X02389Y04303*
X02389Y04303*
X0239Y04303*
X0239Y04303*
X0239Y04303*
X0239Y04303*
X0239Y04303*
X0239Y04303*
X0239Y04303*
X0239Y04304*
X0239Y04304*
X0239Y04304*
X0239Y04304*
X0239Y04304*
X0239Y04304*
X0239Y04304*
X0239Y04305*
X0239Y04305*
X0239Y04305*
X0239Y04305*
X0239Y04305*
X0239Y04305*
D01*
X0239Y04305*
X0239Y04305*
X0239Y04306*
X0239Y04306*
X02389Y04306*
X02389Y04306*
X02389Y04306*
X02389Y04306*
X02389Y04306*
X02389Y04306*
X02389Y04306*
X02389Y04306*
X02388Y04306*
X02388Y04306*
X02388Y04306*
X02388Y04306*
X02388Y04306*
X02388Y04306*
X02388Y04306*
X02388Y04306*
X02387Y04306*
X02387Y04306*
X02387Y04306*
X02387Y04306*
X02387Y04306*
X02387Y04306*
X02387Y04306*
X02387Y04305*
X02387Y04305*
X02386Y04305*
X02386Y04305*
X02386Y04305*
X02386Y04305*
X02386Y04305*
X02386Y04305*
X02386Y04304*
X02386Y04304*
X02386Y04304*
X02386Y04304*
X02386Y04304*
X02386Y04304*
X02386Y04304*
X02386Y04303*
X02386Y04303*
X02387Y04303*
X03495Y03917D02*
D01*
X03494Y03917*
X03494Y03917*
X03494Y03917*
X03494Y03917*
X03494Y03917*
X03494Y03917*
X03494Y03917*
X03494Y03916*
X03493Y03916*
X03493Y03916*
X03493Y03916*
X03493Y03916*
X03493Y03916*
X03493Y03916*
X03493Y03916*
X03493Y03916*
X03493Y03916*
X03493Y03915*
X03493Y03915*
X03493Y03915*
X03493Y03915*
X03493Y03915*
Y03915*
X03493Y03915*
X03493Y03914*
X03493Y03914*
X03493Y03914*
X03493Y03914*
X03493Y03914*
X03493Y03914*
X03493Y03914*
X03493Y03914*
X03493Y03913*
X03493Y03913*
X03493Y03913*
X03493Y03913*
X03494Y03913*
X03494Y03913*
X03494Y03913*
X03494Y03913*
X03494Y03913*
X03494Y03913*
X03494Y03913*
X03494Y03913*
X03495Y03913*
D01*
X03495Y03913*
X03495Y03913*
X03495Y03913*
X03495Y03913*
X03495Y03913*
X03495Y03913*
X03496Y03913*
X03496Y03913*
X03496Y03913*
X03496Y03913*
X03496Y03913*
X03496Y03914*
X03496Y03914*
X03496Y03914*
X03496Y03914*
X03496Y03914*
X03496Y03914*
X03497Y03914*
X03497Y03914*
X03497Y03915*
X03497Y03915*
X03497Y03915*
Y03915*
X03497Y03915*
X03497Y03915*
X03497Y03915*
X03497Y03916*
X03496Y03916*
X03496Y03916*
X03496Y03916*
X03496Y03916*
X03496Y03916*
X03496Y03916*
X03496Y03916*
X03496Y03916*
X03496Y03917*
X03496Y03917*
X03496Y03917*
X03495Y03917*
X03495Y03917*
X03495Y03917*
X03495Y03917*
X03495Y03917*
X03495Y03917*
X03495Y03917*
G54D15*
X02522Y03703D02*
Y03676D01*
Y03703D02*
X0251D01*
X02506Y03702*
X02505Y03701*
X02503Y03698*
Y03695*
X02505Y03693*
X02506Y03691*
X0251Y0369*
X02522D02*
X0251D01*
X02506Y03689*
X02505Y03687*
X02503Y03685*
Y03681*
X02505Y03678*
X02506Y03677*
X0251Y03676*
X02522*
X03143Y03702D02*
X03125Y03674D01*
Y03702D02*
X03143Y03674D01*
X02834Y03999D02*
X02824Y03986D01*
Y03971*
X02813Y03999D02*
X02824Y03986D01*
X02547Y04308D02*
Y0428D01*
Y04308D02*
X02535D01*
X02531Y04307*
X0253Y04305*
X02528Y04303*
Y043*
X0253Y04298*
X02531Y04296*
X02535Y04295*
X02547*
X02537D02*
X02528Y0428D01*
X02522Y04303D02*
X02519Y04304D01*
X02516Y04308*
Y0428*
X03224Y01612D02*
X03227Y01614D01*
X03231Y01616*
X03236*
X0324Y01614*
X03243Y01612*
Y01609*
X03242Y01607*
X0324Y01605*
X03238Y01604*
X0323Y01601*
X03227Y016*
X03226Y01599*
X03224Y01596*
Y01592*
X03227Y01589*
X03231Y01588*
X03236*
X0324Y01589*
X03243Y01592*
X03209Y01616D02*
Y01588D01*
X03218Y01616D02*
X032D01*
X03176Y01588D02*
X03186Y01616D01*
X03197Y01588*
X03193Y01597D02*
X0318D01*
X03169Y01616D02*
Y01588D01*
Y01616D02*
X03157D01*
X03153Y01614*
X03152Y01613*
X03151Y0161*
Y01608*
X03152Y01605*
X03153Y01604*
X03157Y01603*
X03169*
X0316D02*
X03151Y01588D01*
X03136Y01616D02*
Y01588D01*
X03145Y01616D02*
X03126D01*
X03194Y04251D02*
X03197Y04254D01*
X03201Y04255*
X03206*
X0321Y04254*
X03213Y04251*
Y04248*
X03211Y04246*
X0321Y04244*
X03207Y04243*
X032Y04241*
X03197Y04239*
X03196Y04238*
X03194Y04235*
Y04231*
X03197Y04229*
X03201Y04227*
X03206*
X0321Y04229*
X03213Y04231*
X03188Y04255D02*
X03178Y04242D01*
Y04227*
X03167Y04255D02*
X03178Y04242D01*
X03145Y04251D02*
X03148Y04254D01*
X03152Y04255*
X03157*
X03161Y04254*
X03164Y04251*
Y04248*
X03162Y04246*
X03161Y04244*
X03158Y04243*
X03151Y04241*
X03148Y04239*
X03147Y04238*
X03145Y04235*
Y04231*
X03148Y04229*
X03152Y04227*
X03157*
X03161Y04229*
X03164Y04231*
X02813Y03381D02*
X02824Y03408D01*
X02834Y03381*
X02831Y0339D02*
X02817D01*
X03463Y04083D02*
X03452D01*
X03448Y04084*
X03446Y04085*
X03445Y04088*
Y04092*
X03446Y04094*
X03448Y04096*
X03452Y04097*
X03463*
Y04069*
X03439Y04097D02*
X03432Y04069D01*
X03426Y04097D02*
X03432Y04069D01*
X03426Y04097D02*
X03419Y04069D01*
X03413Y04097D02*
X03419Y04069D01*
X03407Y04097D02*
Y04069D01*
Y04097D02*
X03395D01*
X03391Y04096*
X0339Y04094*
X03389Y04092*
Y04089*
X0339Y04086*
X03391Y04085*
X03395Y04084*
X03407*
X03398D02*
X03389Y04069D01*
X03442Y03965D02*
X03453Y03993D01*
X03463Y03965*
X03459Y03974D02*
X03446D01*
X03416Y03986D02*
X03418Y03989D01*
X0342Y03991*
X03423Y03993*
X03428*
X03431Y03991*
X03433Y03989*
X03435Y03986*
X03436Y03982*
Y03976*
X03435Y03972*
X03433Y03969*
X03431Y03966*
X03428Y03965*
X03423*
X0342Y03966*
X03418Y03969*
X03416Y03972*
X03399Y03993D02*
Y03965D01*
X03408Y03993D02*
X0339D01*
X02313Y03301D02*
X02315Y03303D01*
X02317Y03306*
X0232Y03307*
X02325*
X02328Y03306*
X0233Y03303*
X02332Y03301*
X02333Y03297*
Y0329*
X02332Y03286*
X0233Y03284*
X02328Y03281*
X02325Y0328*
X0232*
X02317Y03281*
X02315Y03284*
X02313Y03286*
X02306Y03302D02*
X02303Y03303D01*
X02299Y03307*
Y0328*
G54D90*
X03478Y04149D02*
X03509D01*
G54D118*
X03301Y01604D02*
D01*
X03301Y01604*
X03301Y01604*
X03301Y01604*
X03301Y01605*
X03301Y01605*
X03301Y01605*
X03301Y01606*
X033Y01606*
X033Y01606*
X033Y01606*
X033Y01607*
X033Y01607*
X03299Y01607*
X03299Y01607*
X03299Y01607*
X03299Y01607*
X03298Y01608*
X03298Y01608*
X03298Y01608*
X03297Y01608*
X03297Y01608*
X03297Y01608*
X03297*
X03296Y01608*
X03296Y01608*
X03296Y01608*
X03295Y01608*
X03295Y01608*
X03295Y01607*
X03295Y01607*
X03294Y01607*
X03294Y01607*
X03294Y01607*
X03294Y01607*
X03293Y01606*
X03293Y01606*
X03293Y01606*
X03293Y01606*
X03293Y01605*
X03293Y01605*
X03292Y01605*
X03292Y01604*
X03292Y01604*
X03292Y01604*
X03292Y01604*
X03292Y01603*
X03292Y01603*
X03292Y01603*
X03292Y01602*
X03293Y01602*
X03293Y01602*
X03293Y01601*
X03293Y01601*
X03293Y01601*
X03293Y01601*
X03294Y016*
X03294Y016*
X03294Y016*
X03294Y016*
X03295Y016*
X03295Y016*
X03295Y01599*
X03295Y01599*
X03296Y01599*
X03296Y01599*
X03296Y01599*
X03297Y01599*
X03297*
X03297Y01599*
X03297Y01599*
X03298Y01599*
X03298Y01599*
X03298Y01599*
X03299Y016*
X03299Y016*
X03299Y016*
X03299Y016*
X033Y016*
X033Y016*
X033Y01601*
X033Y01601*
X033Y01601*
X03301Y01601*
X03301Y01602*
X03301Y01602*
X03301Y01602*
X03301Y01603*
X03301Y01603*
X03301Y01603*
X03301Y01604*
X02966Y04277D02*
D01*
X02966Y04277*
X02966Y04278*
X02966Y04278*
X02966Y04278*
X02965Y04279*
X02965Y04279*
X02965Y04279*
X02965Y04279*
X02965Y0428*
X02965Y0428*
X02964Y0428*
X02964Y0428*
X02964Y04281*
X02964Y04281*
X02964Y04281*
X02963Y04281*
X02963Y04281*
X02963Y04281*
X02962Y04281*
X02962Y04281*
X02962Y04281*
X02961Y04281*
X02961*
X02961Y04281*
X02961Y04281*
X0296Y04281*
X0296Y04281*
X0296Y04281*
X02959Y04281*
X02959Y04281*
X02959Y04281*
X02959Y04281*
X02958Y0428*
X02958Y0428*
X02958Y0428*
X02958Y0428*
X02958Y04279*
X02957Y04279*
X02957Y04279*
X02957Y04279*
X02957Y04278*
X02957Y04278*
X02957Y04278*
X02957Y04277*
X02957Y04277*
X02957Y04277*
X02957Y04276*
X02957Y04276*
X02957Y04276*
X02957Y04276*
X02957Y04275*
X02957Y04275*
X02958Y04275*
X02958Y04275*
X02958Y04274*
X02958Y04274*
X02958Y04274*
X02959Y04274*
X02959Y04273*
X02959Y04273*
X02959Y04273*
X0296Y04273*
X0296Y04273*
X0296Y04273*
X02961Y04273*
X02961Y04273*
X02961Y04273*
X02961*
X02962Y04273*
X02962Y04273*
X02962Y04273*
X02963Y04273*
X02963Y04273*
X02963Y04273*
X02964Y04273*
X02964Y04273*
X02964Y04274*
X02964Y04274*
X02964Y04274*
X02965Y04274*
X02965Y04275*
X02965Y04275*
X02965Y04275*
X02965Y04275*
X02965Y04276*
X02966Y04276*
X02966Y04276*
X02966Y04276*
X02966Y04277*
X02966Y04277*
X03301Y01698D02*
Y01953D01*
X03065Y01698D02*
Y01953D01*
X0314Y01698D02*
X03227D01*
X0314Y01953D02*
X03227D01*
X03311Y04347D02*
Y04434D01*
X03055Y04347D02*
Y04434D01*
Y04509D02*
X03311D01*
X03055Y04273D02*
X03311D01*
M02*