%FSTAX23Y23*%
%MOIN*%
%SFA1B1*%

%IPPOS*%
%ADD11C,0.007900*%
%ADD12C,0.005900*%
%ADD13R,0.023600X0.009100*%
%ADD15C,0.011800*%
%ADD16C,0.009800*%
%ADD17C,0.002000*%
%ADD18C,0.006700*%
%ADD19C,0.009100*%
%ADD20C,0.012600*%
%ADD21C,0.015700*%
%ADD22C,0.013800*%
%LNleft_flex-1*%
%LPD*%
G36*
X-00752Y01519D02*
Y01457D01*
X-00789*
Y01452*
X-00803*
X-00807Y01456*
Y01519*
X-00803Y01523*
X-00755*
X-00752Y01519*
G37*
G36*
X01779Y01783D02*
X02165Y01397D01*
X04015*
X04018Y01395*
X04024Y01392*
X0403*
X04035Y01394*
X04112*
X04118Y01395*
X04121Y01397*
X04147*
X0415Y01396*
X04156*
X04159Y01397*
X04161*
X04162Y01398*
X04163Y01399*
X04167Y01403*
X04168Y01404*
X04228Y01465*
X0423Y01465*
X04235Y01468*
X04242Y01475*
X04243*
X04244Y01475*
X04251*
X04254Y01476*
X04266*
X04266Y01476*
X04272Y01474*
X04309*
Y01446*
X0431Y0144*
X04311Y0144*
Y01429*
X04307Y01426*
X04273*
X04268Y01425*
X04236*
X04169Y01358*
X02141*
X01759Y0174*
X01755*
X01754Y0174*
X01749Y01741*
X00197*
X00195Y01742*
X0019Y01743*
X00184Y01742*
X00182Y01741*
X-00558*
X-00563Y0174*
X-00568Y01737*
X-00677Y01628*
X-0068Y01623*
X-00681Y01618*
Y01427*
X-00684*
X-00687Y01426*
X-00722*
X-00724Y01428*
Y01641*
X-00582Y01783*
X01779*
G37*
G36*
X04413Y01492D02*
Y01456D01*
X04409Y01452*
X04377*
Y01457*
X0434*
Y01484*
X04338Y0149*
X04338Y0149*
Y01492*
X04342Y01496*
X04409*
X04413Y01492*
G37*
G54D11*
X04271Y01255D02*
X04273Y01253D01*
X04297*
G54D12*
X04268Y01316D02*
X04297D01*
X04195Y01255D02*
X04207D01*
X04268Y01316*
X04269Y01301D02*
X04297D01*
X042Y01232D02*
X04269Y01301D01*
X0209Y01232D02*
X042D01*
X04207Y01216D02*
X04274Y01283D01*
X02082Y01216D02*
X04207D01*
X04274Y01283D02*
X04295D01*
X-00503Y01519D02*
X-00468Y01555D01*
X-00592Y01238D02*
X-00503Y01326D01*
Y01519*
X04326Y01303D02*
X0434Y01316D01*
X01712Y0161D02*
X0209Y01232D01*
X01704Y01594D02*
X02082Y01216D01*
X01664Y01524D02*
X02044Y01144D01*
X-00451Y01524D02*
X01664D01*
X04216Y01177D02*
X04277Y01238D01*
X02059Y01177D02*
X04216D01*
X01681Y01555D02*
X02059Y01177D01*
X01673Y01539D02*
X02051Y01161D01*
X04228*
X04273Y01206*
X04247Y01144D02*
X04278Y01175D01*
X02044Y01144D02*
X04247D01*
X-005Y0161D02*
X01712D01*
X-00492Y01594D02*
X01704D01*
X-00468Y01555D02*
X01681D01*
X-0046Y01539D02*
X01673D01*
X-00559Y01551D02*
X-005Y0161D01*
X-00543Y01543D02*
X-00492Y01594D01*
X-00488Y01511D02*
X-0046Y01539D01*
X-00559Y01358D02*
Y01551D01*
X-00543Y0135D02*
Y01543D01*
X-00488Y01318D02*
Y01511D01*
X-00472Y01503D02*
X-00451Y01524D01*
X-00472Y01311D02*
Y01503D01*
X-00616Y01301D02*
X-00559Y01358D01*
X-00608Y01285D02*
X-00543Y0135D01*
X-00709Y01301D02*
X-00616D01*
X-00709Y01285D02*
X-00608D01*
X-00709Y01238D02*
X-00592D01*
X-00709Y01206D02*
X-006D01*
X-00488Y01318*
X-00608Y01175D02*
X-00472Y01311D01*
X-00709Y01175D02*
X-00608D01*
X-00713Y01263D02*
Y01268D01*
X-00711Y01269*
X-00818Y0119D02*
X-00768D01*
X-00798Y01332D02*
X-00768D01*
X-00768Y01332*
X04408Y0119D02*
X04409Y0119D01*
X04355Y0119D02*
X04408D01*
X-00768Y01205D02*
X-00768Y01206D01*
X-00798Y01205D02*
X-00768D01*
X04273Y01206D02*
X04297D01*
X04295Y01283D02*
X04297Y01285D01*
X04277Y01238D02*
X04297D01*
X04278Y01175D02*
X04297D01*
X-00739Y01253D02*
X-00739Y01253D01*
X-00768Y01253D02*
X-00739D01*
X-00768Y013D02*
X-00768Y01301D01*
X-00798Y013D02*
X-00768D01*
X-00768Y01269D02*
X-00768Y01269D01*
X-00798Y01269D02*
X-00768D01*
Y01238D02*
X-00768Y01238D01*
X-00798Y01238D02*
X-00768D01*
X04384Y01332D02*
X04385Y01333D01*
X04355Y01332D02*
X04384D01*
X-00798Y01175D02*
Y01175D01*
X-00768*
X04355D02*
X04356Y01174D01*
X04384D02*
X04385Y01173D01*
X04356Y01174D02*
X04384D01*
X04355Y01206D02*
X04385D01*
X04355Y01238D02*
X04385D01*
X04337Y01252D02*
X04354D01*
X04327Y01242D02*
X04337Y01252D01*
X04327Y01232D02*
Y01242D01*
X04354Y01252D02*
X04355Y01253D01*
X04326Y01231D02*
X04327Y01232D01*
X0434Y01316D02*
X04355D01*
X04355Y01301D02*
X04385D01*
X04355Y01269D02*
X04355Y01269D01*
X04385*
X04355Y01301D02*
X04355Y01301D01*
X-00749Y01316D02*
X-00738Y01327D01*
X-00768Y01316D02*
X-00749D01*
G54D13*
X-00709Y01379D03*
Y01395D03*
X04297Y01379D03*
Y01395D03*
X04355Y01159D03*
X04297D03*
X04355Y0149D03*
X04297D03*
X04355Y01175D03*
X04297D03*
X04355Y0119D03*
X04297D03*
X04355Y01206D03*
X04297D03*
X04355Y01222D03*
X04297D03*
X04355Y01238D03*
X04297D03*
X04355Y01253D03*
X04297D03*
X04355Y01269D03*
X04297D03*
X04355Y01285D03*
X04297D03*
X04355Y01301D03*
X04297D03*
X04355Y01316D03*
X04297D03*
X04355Y01332D03*
X04297D03*
X04355Y01348D03*
X04297D03*
X04355Y01364D03*
X04297D03*
X04355Y01379D03*
Y01395D03*
Y01411D03*
X04297D03*
X04355Y01427D03*
X04297D03*
X04355Y01442D03*
X04297D03*
X04355Y01458D03*
X04297D03*
X04355Y01474D03*
X04297D03*
X-00768D03*
X-00709D03*
X-00768Y01458D03*
X-00709D03*
X-00768Y01442D03*
X-00709D03*
X-00768Y01427D03*
X-00709D03*
X-00768Y01411D03*
X-00709D03*
X-00768Y01395D03*
Y01379D03*
Y01364D03*
X-00709D03*
X-00768Y01348D03*
X-00709D03*
X-00768Y01332D03*
X-00709D03*
X-00768Y01316D03*
X-00709D03*
X-00768Y01301D03*
X-00709D03*
X-00768Y01285D03*
X-00709D03*
X-00768Y01269D03*
X-00709D03*
X-00768Y01253D03*
X-00709D03*
X-00768Y01238D03*
X-00709D03*
X-00768Y01222D03*
X-00709D03*
X-00768Y01206D03*
X-00709D03*
X-00768Y0119D03*
X-00709D03*
X-00768Y01175D03*
X-00709D03*
X-00768Y0149D03*
X-00709D03*
X-00768Y01159D03*
X-00709D03*
G54D15*
X04204Y01196D02*
D01*
X04206Y01196*
X04207Y01196*
X04208Y01197*
X04209Y01197*
X04211Y01197*
X04212Y01198*
X04213Y01199*
X04214Y01199*
X04215Y012*
X04216Y01201*
X04217Y01202*
X04218Y01202*
X04271Y01255D01*
X04279Y01263*
X-00716Y01262D02*
X-00712Y01257D01*
X-00641Y01257D02*
X-00634Y01264D01*
X04376Y01139D02*
Y0114D01*
X04379Y01143D02*
Y01149D01*
X04376Y0114D02*
X04379Y01143D01*
Y01149D02*
X04397D01*
X04311Y01263D02*
X04326Y01279D01*
X04224Y0148D02*
X04236Y01492D01*
X04248*
G54D16*
X01807Y01833D02*
D01*
X01806Y01834*
X01804Y01836*
X01802Y01837*
X01801Y01838*
X01799Y01839*
X01797Y0184*
X01795Y0184*
X01793Y01841*
X01791Y01841*
X01789Y01842*
X01787Y01842*
X01786Y01842*
X04254Y01491D02*
X04266D01*
X0427Y0149D02*
X04274Y0149D01*
X04248Y0149D02*
X04254Y01491D01*
X04428Y0149D02*
X0444Y01478D01*
X04428Y01456D02*
Y0149D01*
X04225Y01492D02*
X0427D01*
X04238D02*
X0424Y0149D01*
X04243Y01491D02*
X04246Y0149D01*
X04237Y0149D02*
X04242Y01491D01*
X04428Y0148D02*
X04433Y01485D01*
X04428Y01469D02*
X0444Y01457D01*
X04324Y01474D02*
Y01482D01*
Y01457D02*
Y01474D01*
Y01457D02*
Y01474D01*
X04324Y01486D02*
X04324Y01482D01*
X04232Y01486D02*
X04237Y0149D01*
X04323Y01479D02*
X04324Y01474D01*
X04323Y01479D02*
Y01486D01*
X04226Y0148D02*
X04232Y01486D01*
X04217Y01485D02*
X04223Y01479D01*
X04203Y01471D02*
X04208Y01466D01*
X03912Y01456D02*
X03916Y01452D01*
X039D02*
X03903Y01456D01*
X03857D02*
X0386Y01452D01*
X03844D02*
X03847Y01456D01*
X03885D02*
X03888Y01452D01*
X03872D02*
X03875Y01456D01*
X03801D02*
X03804Y01452D01*
X03788D02*
X03792Y01456D01*
X03829D02*
X03832Y01452D01*
X03816D02*
X03819Y01456D01*
X03745D02*
X03749Y01452D01*
X03733D02*
X03736Y01456D01*
X03773D02*
X03776Y01452D01*
X03761D02*
X03764Y01456D01*
X04427Y01451D02*
X0444Y01464D01*
X04427Y0145D02*
X04428Y01456D01*
X04324Y01457D02*
X04326Y01451D01*
X0444Y01438D02*
Y01478D01*
X04324Y01447D02*
Y01457D01*
X0419Y01457D02*
X04194Y01452D01*
X03982Y01452D02*
X03985Y01456D01*
X04145Y01412D02*
X04225Y01492D01*
X04157Y01415D02*
X04218Y01475D01*
X0394Y01456D02*
X03944Y01452D01*
X03928D02*
X03931Y01456D01*
X03968D02*
X03971Y01452D01*
X03955D02*
X03959Y01456D01*
X0369D02*
X03693Y01452D01*
X03677D02*
X0368Y01456D01*
X03718D02*
X03721Y01452D01*
X03705D02*
X03708Y01456D01*
X03634D02*
X03637Y01452D01*
X03621D02*
X03625Y01456D01*
X03606D02*
X03609Y01452D01*
X03662Y01456D02*
X03665Y01452D01*
X03649D02*
X03652Y01456D01*
X03566Y01452D02*
X03569Y01456D01*
X03551D02*
X03554Y01452D01*
X03593D02*
X03597Y01456D01*
X03578D02*
X03582Y01452D01*
X0351D02*
X03513Y01456D01*
X03495D02*
X03498Y01452D01*
X03538D02*
X03541Y01456D01*
X03523D02*
X03526Y01452D01*
X03454D02*
X03458Y01456D01*
X03439D02*
X03442Y01452D01*
X03482D02*
X03485Y01456D01*
X03467D02*
X0347Y01452D01*
X02925D02*
X02929Y01456D01*
X0291D02*
X02913Y01452D01*
X02898D02*
X02901Y01456D01*
X02953Y01452D02*
X02956Y01456D01*
X02938D02*
X02941Y01452D01*
X02223Y01456D02*
X03985D01*
X02842Y01452D02*
X02845Y01456D01*
X02882D02*
X02886Y01452D01*
X0287D02*
X02873Y01456D01*
X02814Y01452D02*
X02817Y01456D01*
X02799D02*
X02802Y01452D01*
X02855Y01456D02*
X02858Y01452D01*
X02827Y01456D02*
X0283Y01452D01*
X02758D02*
X02762Y01456D01*
X02743D02*
X02746Y01452D01*
X02786D02*
X02789Y01456D01*
X02771D02*
X02774Y01452D01*
X02688Y01456D02*
X02691Y01452D01*
X02703D02*
X02706Y01456D01*
X02675Y01452D02*
X02678Y01456D01*
X0273Y01452D02*
X02734Y01456D01*
X02715D02*
X02719Y01452D01*
X02632Y01456D02*
X02635Y01452D01*
X02619D02*
X02622Y01456D01*
X0266D02*
X02663Y01452D01*
X02647D02*
X0265Y01456D01*
X02576D02*
X02579Y01452D01*
X02563D02*
X02567Y01456D01*
X02604D02*
X02607Y01452D01*
X02591D02*
X02595Y01456D01*
X0252D02*
X02524Y01452D01*
X02493Y01456D02*
X02496Y01452D01*
X02548Y01456D02*
X02552Y01452D01*
X02536D02*
X02539Y01456D01*
X03399Y01452D02*
X03402Y01456D01*
X03383D02*
X03387Y01452D01*
X03371D02*
X03374Y01456D01*
X03426Y01452D02*
X0343Y01456D01*
X03411D02*
X03415Y01452D01*
X03328Y01456D02*
X03331Y01452D01*
X03315D02*
X03318Y01456D01*
X03356D02*
X03359Y01452D01*
X03343D02*
X03346Y01456D01*
X03272D02*
X03275Y01452D01*
X03259D02*
X03263Y01456D01*
X033D02*
X03303Y01452D01*
X03287D02*
X03291Y01456D01*
X03216D02*
X0322Y01452D01*
X03204D02*
X03207Y01456D01*
X03244D02*
X03248Y01452D01*
X03232D02*
X03235Y01456D01*
X03161D02*
X03164Y01452D01*
X03148D02*
X03151Y01456D01*
X03133D02*
X03136Y01452D01*
X03189Y01456D02*
X03192Y01452D01*
X03176D02*
X03179Y01456D01*
X03092Y01452D02*
X03096Y01456D01*
X03077D02*
X03081Y01452D01*
X0312D02*
X03123Y01456D01*
X03105D02*
X03108Y01452D01*
X03037D02*
X0304Y01456D01*
X03022D02*
X03025Y01452D01*
X03065D02*
X03068Y01456D01*
X03049D02*
X03053Y01452D01*
X02981D02*
X02984Y01456D01*
X02966D02*
X02969Y01452D01*
X03009D02*
X03012Y01456D01*
X02994D02*
X02997Y01452D01*
X04424Y01445D02*
X04427Y0145D01*
X0442Y01442D02*
X04424Y01445D01*
X04416Y01439D02*
X0442Y01442D01*
X04417Y01415D02*
X0444Y01438D01*
X04424Y01446D02*
X04435Y01434D01*
X04409Y01437D02*
X04412Y01438D01*
X04371Y01438D02*
X04377Y01437D01*
X04391Y01415D02*
X04414Y01438D01*
X04347Y01439D02*
X04371Y01415D01*
X04404Y01437D02*
X04422Y0142D01*
X04446Y01385D02*
X04458Y01397D01*
X04377Y01437D02*
X04409D01*
X04451Y0139D02*
X04458Y01383D01*
X04421Y01375D02*
X04437D01*
X04375Y01415D02*
X04417D01*
X04376Y01437D02*
X04399Y01415D01*
X04363Y01415D02*
X04385Y01437D01*
X04328Y01415D02*
X04375D01*
X04326Y01433D02*
X04331Y01439D01*
X04328D02*
X0437D01*
X04328D02*
Y01447D01*
X04335Y01415D02*
X04359Y01439D01*
X04326Y01432D02*
X04343Y01415D01*
X04326Y01451D02*
X04328Y01447D01*
X04324Y01447D02*
X04325Y01443D01*
X04326Y0144D02*
Y01429D01*
X04323Y01415D02*
Y01422D01*
X04328Y01408D02*
X04335Y01415D01*
X04328Y01383D02*
Y01415D01*
Y01376D02*
Y01383D01*
Y01376D02*
Y01383D01*
X04323Y01407D02*
X04328Y01402D01*
X04323Y01403D02*
X04328Y01408D01*
X04323Y01376D02*
Y01399D01*
Y01407*
X04437Y01375D02*
X04446Y01385D01*
X04437Y01375D02*
X04446Y01385D01*
X04432Y01368D02*
X04443Y01357D01*
Y01355D02*
X04458Y01371D01*
X04437Y01376D02*
X04458Y01355D01*
X04421Y01375D02*
X04437D01*
X04428Y01368D02*
X04435Y01375D01*
X04421D02*
X04429Y01368D01*
X04421Y01375D02*
X04429Y01368D01*
X04443Y01343D02*
X04458Y01327D01*
X04443Y01335D02*
Y01357D01*
X04433Y01325D02*
X04458Y013D01*
X04432Y01324D02*
X04443Y01335D01*
X0441Y01324D02*
X04432D01*
X04407Y01327D02*
X0441Y01324D01*
X04403Y01316D02*
X04412Y01324D01*
X04402Y01317D02*
X04407Y01312D01*
X04328Y01352D02*
Y01376D01*
X04323Y01352D02*
Y0136D01*
Y01367*
X04328Y01344D02*
Y01352D01*
X04323Y01328D02*
Y01352D01*
Y01379D02*
X04328Y01374D01*
X04323Y01375D02*
X04328Y0138D01*
X04323Y0136D02*
Y01367D01*
Y01376*
X04328Y01331D02*
Y01336D01*
Y01331D02*
Y01336D01*
X04402Y01317D02*
X04407Y01322D01*
Y01327*
X04328Y01336D02*
Y01344D01*
Y01352*
X04323Y01327D02*
X04328Y01331D01*
X04323Y01327D02*
X04328Y01331D01*
X04323Y01407D02*
Y01415D01*
Y01407D02*
Y01415D01*
X04271Y0141D02*
X04275Y0141D01*
X04265Y0141D02*
X04268Y01407D01*
X04244D02*
X04247Y0141D01*
X04176Y01443D02*
X0418Y01438D01*
X04162Y01429D02*
X04167Y01424D01*
X04242Y0141D02*
X04268D01*
X04233Y01399D02*
X04241Y01407D01*
X04323Y01376D02*
Y01399D01*
X0426Y01368D02*
X0427D01*
Y0136D02*
Y01367D01*
Y0136D02*
Y01367D01*
X04241Y01407D02*
X04257D01*
X04241D02*
X04257D01*
X0427*
X04233Y01399D02*
X04241Y01407D01*
X02508Y01452D02*
X02511Y01456D01*
X0248Y01452D02*
X02483Y01456D01*
X02465D02*
X02468Y01452D01*
X04005Y01412D02*
Y01416D01*
X04002Y01413D02*
X04005Y01416D01*
X0219Y01452D02*
X03982D01*
X02424D02*
X02428Y01456D01*
X02452Y01452D02*
X02455Y01456D01*
X02437D02*
X0244Y01452D01*
X04147Y01412D02*
X04151Y01412D01*
X04002Y01413D02*
X04005Y01416D01*
X04154Y01411D02*
X04156Y01414D01*
X04148Y01415D02*
X04152Y01411D01*
X03982Y01413D02*
X04002D01*
X0219D02*
X03982D01*
X02171Y01412D02*
X04005D01*
X03982Y01413D02*
X04002D01*
X0426Y01359D02*
X0427D01*
X0426D02*
X0427D01*
X04255Y01363D02*
X04259Y01359D01*
X04323Y01347D02*
X04328Y01352D01*
X04252Y01351D02*
X0426Y01359D01*
X04252Y01351D02*
X0426Y01359D01*
X0418Y01347D02*
X04242Y0141D01*
X04203Y01311D02*
X0426Y01368D01*
X04177Y01342D02*
X04233Y01399D01*
X04323Y01351D02*
X04328Y01346D01*
X04242Y01349D02*
X04246Y01345D01*
X04323Y01328D02*
Y01352D01*
X04228Y01335D02*
X04232Y01331D01*
X04214Y01322D02*
X04218Y01317D01*
X042Y01308D02*
X04204Y01304D01*
X04195Y01303D02*
X04203Y01311D01*
X04195Y01303D02*
X04203Y01311D01*
X04175Y01344D02*
X0418Y01347D01*
X04169Y01343D02*
X04175Y01344D01*
X03035Y01303D02*
X03041Y01297D01*
X03536Y01303D02*
X03542Y01297D01*
X03521D02*
X03528Y01303D01*
X02134Y01342D02*
X04177D01*
X02141Y01343D02*
X04169D01*
X02881Y01297D02*
X02888Y01303D01*
X02868D02*
X02874Y01297D01*
X0418Y01303D02*
X04195D01*
X0418D02*
X04195D01*
X04121D02*
X04127Y01297D01*
X03926Y01303D02*
X03932Y01297D01*
X0212D02*
X04197D01*
X02131Y01303D02*
X0418D01*
X03786D02*
X03793Y01297D01*
X03549D02*
X03556Y01303D01*
X01768Y01845D02*
X01774D01*
X01786Y01843*
X01742Y01845D02*
X01744Y01842D01*
X01769Y01845D02*
X01772Y01842D01*
X01756D02*
X01759Y01845D01*
X017Y01842D02*
X01703Y01845D01*
X01686D02*
X01689Y01842D01*
X01728D02*
X01731Y01845D01*
X01714D02*
X01716Y01842D01*
X0178D02*
X01787D01*
X0178D02*
X01787D01*
X0174Y01798D02*
X01744Y01803D01*
X01768Y01798D02*
X01772Y01803D01*
X01756D02*
X0176Y01798D01*
X017Y01803D02*
X01705Y01798D01*
X01684D02*
X01689Y01803D01*
X01728D02*
X01733Y01798D01*
X01712D02*
X01716Y01803D01*
X0163Y01845D02*
X01633Y01842D01*
X01645D02*
X01647Y01845D01*
X01617Y01842D02*
X0162Y01845D01*
X01673Y01842D02*
X01675Y01845D01*
X01658D02*
X01661Y01842D01*
X01575Y01845D02*
X01577Y01842D01*
X01561D02*
X01564Y01845D01*
X01602D02*
X01605Y01842D01*
X01589D02*
X01592Y01845D01*
X01645Y01803D02*
X01649Y01798D01*
X01629D02*
X01633Y01803D01*
X01673D02*
X01677Y01798D01*
X01656D02*
X01661Y01803D01*
X01589D02*
X01593Y01798D01*
X01573D02*
X01577Y01803D01*
X01617D02*
X01621Y01798D01*
X01601D02*
X01605Y01803D01*
X0178D02*
X01787Y01796D01*
X0179Y01794*
X01779Y01798D02*
X01785Y01797D01*
X0179Y01794D02*
X0216Y01424D01*
X01757Y01719D02*
X02134Y01342D01*
X01751Y01725D02*
X01757Y01719D01*
X01747Y01726D02*
X01751Y01725D01*
X01753Y01725D02*
X02131Y01347D01*
X01751Y01725D02*
X01757Y01719D01*
X01741Y01676D02*
X01749Y01668D01*
X01729Y01676D02*
X01736Y01682D01*
X0173Y01688D02*
X02107Y01311D01*
X01741Y01676D02*
X01749Y01668D01*
X01703Y01688D02*
X01716Y01676D01*
X01701D02*
X01713Y01688D01*
X01725Y01676D02*
X01741D01*
X01725D02*
X01741D01*
X0162Y01688D02*
X01632Y01676D01*
X01646D02*
X01658Y01688D01*
X01618Y01676D02*
X0163Y01688D01*
X01674Y01676D02*
X01686Y01688D01*
X01648D02*
X0166Y01676D01*
X01564Y01688D02*
X01576Y01676D01*
X01562D02*
X01574Y01688D01*
X01592D02*
X01604Y01676D01*
X0159D02*
X01602Y01688D01*
X01676D02*
X01688Y01676D01*
X01625Y01628D02*
X01635Y01637D01*
X01653Y01628D02*
X01662Y01637D01*
X01643D02*
X01653Y01628D01*
X01587Y01637D02*
X01597Y01628D01*
X01569D02*
X01579Y01637D01*
X01615D02*
X01625Y01628D01*
X01597D02*
X01607Y01637D01*
X01491Y01845D02*
X01494Y01842D01*
X01506D02*
X01508Y01845D01*
X01478Y01842D02*
X0148Y01845D01*
X01533Y01842D02*
X01536Y01845D01*
X01519D02*
X01522Y01842D01*
X01435Y01845D02*
X01438Y01842D01*
X01422D02*
X01425Y01845D01*
X01463D02*
X01466Y01842D01*
X0145D02*
X01453Y01845D01*
X01547D02*
X01549Y01842D01*
X01533Y01803D02*
X01538Y01798D01*
X01561Y01803D02*
X01566Y01798D01*
X01545D02*
X01549Y01803D01*
X01422D02*
X01426Y01798D01*
X01406D02*
X0141Y01803D01*
X01517Y01798D02*
X01522Y01803D01*
X01434Y01798D02*
X01438Y01803D01*
X01366Y01842D02*
X01369Y01845D01*
X0138D02*
X01382Y01842D01*
X01352Y01845D02*
X01354Y01842D01*
X01407Y01845D02*
X0141Y01842D01*
X01394D02*
X01397Y01845D01*
X01311Y01842D02*
X01313Y01845D01*
X01296D02*
X01299Y01842D01*
X01339D02*
X01341Y01845D01*
X01324D02*
X01327Y01842D01*
X01366Y01803D02*
X01371Y01798D01*
X0135D02*
X01355Y01803D01*
X01394D02*
X01398Y01798D01*
X01378D02*
X01382Y01803D01*
X01311D02*
X01315Y01798D01*
X01295D02*
X01299Y01803D01*
X01339D02*
X01343Y01798D01*
X01322D02*
X01327Y01803D01*
X01506Y01676D02*
X01519Y01688D01*
X01509D02*
X01521Y01676D01*
X01506Y01803D02*
X0151Y01798D01*
X01536Y01688D02*
X01548Y01676D01*
X01534D02*
X01546Y01688D01*
X01489Y01798D02*
X01494Y01803D01*
X01478D02*
X01482Y01798D01*
X01481Y01688D02*
X01493Y01676D01*
X01479D02*
X01491Y01688D01*
X01532Y01637D02*
X01541Y01628D01*
X01514D02*
X01523Y01637D01*
X0156D02*
X01569Y01628D01*
X01542D02*
X01551Y01637D01*
X01476D02*
X01486Y01628D01*
X01458D02*
X01468Y01637D01*
X01504D02*
X01513Y01628D01*
X01486D02*
X01495Y01637D01*
X0145Y01803D02*
X01454Y01798D01*
X01462D02*
X01466Y01803D01*
X01367Y01676D02*
X01379Y01688D01*
X01395Y01676D02*
X01407Y01688D01*
X01369D02*
X01381Y01676D01*
X01314Y01688D02*
X01326Y01676D01*
X01312D02*
X01324Y01688D01*
X01342D02*
X01354Y01676D01*
X01339D02*
X01352Y01688D01*
X01453D02*
X01465Y01676D01*
X01451D02*
X01463Y01688D01*
X01448Y01637D02*
X01458Y01628D01*
X0143D02*
X0144Y01637D01*
X01423Y01676D02*
X01435Y01688D01*
X01397D02*
X01409Y01676D01*
X01425Y01688D02*
X01437Y01676D01*
X0142Y01637D02*
X0143Y01628D01*
X02369Y01452D02*
X02372Y01456D01*
X02381D02*
X02385Y01452D01*
X02341D02*
X02344Y01456D01*
X02409D02*
X02412Y01452D01*
X02396D02*
X024Y01456D01*
X02215Y01456D02*
X02222Y01456D01*
X02197Y01459D02*
X02212Y01456D01*
X02214Y01456D02*
X02218Y01452D01*
X02202D02*
X02207Y01457D01*
X02313Y01452D02*
X02316Y01456D01*
X02298D02*
X02301Y01452D01*
X02285D02*
X02288Y01456D01*
X02353D02*
X02357Y01452D01*
X02326Y01456D02*
X02329Y01452D01*
X02242Y01456D02*
X02245Y01452D01*
X02229D02*
X02233Y01456D01*
X0227D02*
X02273Y01452D01*
X02257D02*
X0226Y01456D01*
X0217Y01472D02*
X02176Y01468D01*
X02179Y01466D02*
X02193Y0146D01*
X01882Y01467D02*
X01887Y01472D01*
X02171Y01472D02*
X0219Y01452D01*
X0217Y01472D02*
X0219Y01452D01*
X0184Y01509D02*
X01845Y01514D01*
X01826Y01523D02*
X01831Y01528D01*
X01868Y01481D02*
X01873Y01486D01*
X01854Y01495D02*
X01859Y015D01*
X02182Y0146D02*
X02185Y01464D01*
X0216Y01424D02*
X02171Y01413D01*
X0219*
X02171D02*
X0219D01*
X0191Y01439D02*
X01915Y01444D01*
X01896Y01453D02*
X01901Y01458D01*
X01924Y01425D02*
X01929Y0143D01*
X01839Y01424D02*
X01843Y01428D01*
X02131Y01347D02*
X02135Y01344D01*
X02141Y01343*
X02115Y01303D02*
X02131D01*
X0213Y01297D02*
X02136Y01303D01*
X02116D02*
X02123Y01297D01*
X02107Y01311D02*
X02115Y01303D01*
X02107Y01311D02*
X02115Y01303D01*
X02131*
X02049Y013D02*
X02054Y01305D01*
X02213Y01297D02*
X02219Y01303D01*
X022D02*
X02206Y01297D01*
X02241D02*
X02247Y01303D01*
X02227D02*
X02234Y01297D01*
X02157D02*
X02164Y01303D01*
X02144D02*
X0215Y01297D01*
X02185D02*
X02192Y01303D01*
X02172D02*
X02178Y01297D01*
X01951Y01397D02*
X01957Y01402D01*
X01965Y01383D02*
X01971Y01388D01*
X01938Y01411D02*
X01943Y01416D01*
X01993Y01356D02*
X01998Y01361D01*
X01979Y01369D02*
X01984Y01375D01*
X01866Y01396D02*
X01871Y014D01*
X01852Y0141D02*
X01857Y01414D01*
X01894Y01368D02*
X01899Y01373D01*
X0188Y01382D02*
X01885Y01386D01*
X02021Y01328D02*
X02026Y01333D01*
X02007Y01342D02*
X02012Y01347D01*
X02035Y01314D02*
X0204Y01319D01*
X01964Y01298D02*
X01969Y01303D01*
X01922Y0134D02*
X01927Y01345D01*
X01908Y01354D02*
X01913Y01359D01*
X0195Y01312D02*
X01955Y01317D01*
X01936Y01326D02*
X01941Y01331D01*
X01703Y01628D02*
X01721D01*
X01729Y0162D02*
X01734Y01625D01*
X01709Y01628D02*
X01718Y01637D01*
X01721Y01628D02*
X0173Y01619D01*
X01721Y01628D02*
X0173Y01619D01*
X01681Y01628D02*
X0169Y01637D01*
X01671D02*
X0168Y01628D01*
X01703D02*
X01721D01*
X01699Y01637D02*
X01708Y01628D01*
X01757Y01592D02*
X01762Y01597D01*
X01743Y01606D02*
X01748Y01611D01*
X01771Y01578D02*
X01776Y01583D01*
X01598Y01573D02*
X01601Y01576D01*
X01565D02*
X01569Y01573D01*
X01542D02*
X01546Y01576D01*
X01593D02*
X01596Y01573D01*
X0157D02*
X01574Y01576D01*
X01365Y01637D02*
X01374Y01628D01*
X01375D02*
X01384Y01637D01*
X01347Y01628D02*
X01356Y01637D01*
X01402Y01628D02*
X01412Y01637D01*
X01393D02*
X01402Y01628D01*
X01309Y01637D02*
X01319Y01628D01*
X01291D02*
X01301Y01637D01*
X01337D02*
X01346Y01628D01*
X01319D02*
X01328Y01637D01*
X01509Y01576D02*
X01513Y01573D01*
X01486D02*
X0149Y01576D01*
X01537D02*
X01541Y01573D01*
X01514D02*
X01518Y01576D01*
X01454D02*
X01457Y01573D01*
X01431D02*
X01434Y01576D01*
X01481D02*
X01485Y01573D01*
X01459D02*
X01462Y01576D01*
X01784Y01564D02*
X0179Y01569D01*
X01798Y0155D02*
X01804Y01556D01*
X01699Y01563D02*
X01704Y01567D01*
X01812Y01536D02*
X01817Y01542D01*
X01713Y01549D02*
X01718Y01554D01*
X01672Y01573D02*
X0169D01*
X01672D02*
X0169D01*
X01699Y01564*
X0169Y01573D02*
X01699Y01564D01*
X01797Y01465D02*
X01801Y0147D01*
X01783Y01479D02*
X01788Y01484D01*
X01825Y01437D02*
X01829Y01442D01*
X01811Y01451D02*
X01815Y01456D01*
X01741Y01521D02*
X01746Y01526D01*
X01727Y01535D02*
X01732Y0154D01*
X01769Y01493D02*
X01774Y01498D01*
X01755Y01507D02*
X0176Y01512D01*
X01347Y01573D02*
X01351Y01576D01*
X0137D02*
X01374Y01573D01*
X01342Y01576D02*
X01346Y01573D01*
X01398Y01576D02*
X01401Y01573D01*
X01375D02*
X01379Y01576D01*
X01292Y01573D02*
X01295Y01576D01*
X01286D02*
X0129Y01573D01*
X01319D02*
X01323Y01576D01*
X01314D02*
X01318Y01573D01*
X01653D02*
X01657Y01576D01*
X01648D02*
X01652Y01573D01*
X01681D02*
X01685Y01576D01*
X01676D02*
X0168Y01573D01*
X01426Y01576D02*
X01429Y01573D01*
X01403D02*
X01407Y01576D01*
X01626Y01573D02*
X01629Y01576D01*
X01621D02*
X01624Y01573D01*
X0419Y01297D02*
X0426Y01368D01*
X04407Y01292D02*
X04458Y01343D01*
X04197Y01297D02*
X04252Y01351D01*
X04407Y01323D02*
X04458Y01272D01*
X04407Y0129D02*
Y01312D01*
X04078Y01297D02*
X04085Y01303D01*
X04065D02*
X04071Y01297D01*
X04106D02*
X04112Y01303D01*
X04093D02*
X04099Y01297D01*
X04402Y01285D02*
X04407Y0129D01*
X04402Y01285D02*
X04407Y0128D01*
X04323Y01281D02*
X04328D01*
Y01273D02*
Y01281D01*
X04323Y01266D02*
X04328Y0127D01*
X04148Y01303D02*
X04155Y01297D01*
X04134D02*
X0414Y01303D01*
X04176D02*
X04183Y01297D01*
X04162D02*
X04168Y01303D01*
X03883Y01297D02*
X0389Y01303D01*
X03898D02*
X03904Y01297D01*
X0387Y01303D02*
X03876Y01297D01*
X03939D02*
X03945Y01303D01*
X03911Y01297D02*
X03918Y01303D01*
X03828Y01297D02*
X03834Y01303D01*
X03814D02*
X03821Y01297D01*
X03856D02*
X03862Y01303D01*
X03842D02*
X03849Y01297D01*
X04023D02*
X04029Y01303D01*
X04009D02*
X04016Y01297D01*
X0405D02*
X04057Y01303D01*
X04037D02*
X04043Y01297D01*
X03967D02*
X03973Y01303D01*
X03953D02*
X0396Y01297D01*
X03995D02*
X04001Y01303D01*
X03981D02*
X03988Y01297D01*
X04407Y01295D02*
X04458Y01244D01*
X04407Y01236D02*
X04458Y01287D01*
X04407Y01258D02*
Y0128D01*
X04458Y01143D02*
X04458Y01397D01*
X04407Y01267D02*
X04458Y01216D01*
X04323Y01266D02*
X04328Y0127D01*
X04323Y01266D02*
Y01281D01*
X04407Y01264D02*
X04458Y01315D01*
X04286Y01265D02*
X04304D01*
X04319Y01261D02*
X04323Y01265D01*
X04319Y01261D02*
X04323Y01265D01*
X0441Y01211D02*
X04458Y01259D01*
X04402Y01253D02*
X04407Y01258D01*
X04283Y01265D02*
X04323D01*
X04298D02*
X04306Y01257D01*
X04315D02*
X04318Y0126D01*
X04315Y01257D02*
X04318Y0126D01*
X04286Y01265D02*
X04304D01*
X04289Y01257D02*
X04297Y01265D01*
X04275Y01257D02*
X04283Y01265D01*
X03887Y01258D02*
X03896Y0125D01*
X03864D02*
X03872Y01258D01*
X03832D02*
X0384Y0125D01*
X03808D02*
X03817Y01258D01*
X0386D02*
X03868Y0125D01*
X03836D02*
X03844Y01258D01*
X04194D02*
X04197Y01255D01*
X03947Y0125D02*
X03956Y01258D01*
X04191Y0125D02*
X042Y01258D01*
X03971D02*
X03979Y0125D01*
X03915Y01258D02*
X03924Y0125D01*
X03892D02*
X039Y01258D01*
X03943D02*
X03951Y0125D01*
X0392D02*
X03928Y01258D01*
X03647Y01303D02*
X03654Y01297D01*
X03661D02*
X03667Y01303D01*
X03633Y01297D02*
X03639Y01303D01*
X03688Y01297D02*
X03695Y01303D01*
X03675D02*
X03681Y01297D01*
X03592Y01303D02*
X03598Y01297D01*
X03577D02*
X03584Y01303D01*
X03619D02*
X03626Y01297D01*
X03605D02*
X03611Y01303D01*
X03759D02*
X03765Y01297D01*
X03744D02*
X03751Y01303D01*
X038Y01297D02*
X03806Y01303D01*
X03772Y01297D02*
X03778Y01303D01*
X03716Y01297D02*
X03723Y01303D01*
X03703D02*
X03709Y01297D01*
X02117Y01258D02*
X042D01*
X03731Y01303D02*
X03737Y01297D01*
X03382D02*
X03389Y01303D01*
X03397D02*
X03403Y01297D01*
X03369Y01303D02*
X03375Y01297D01*
X03425Y01303D02*
X03431Y01297D01*
X0341D02*
X03417Y01303D01*
X03327Y01297D02*
X03333Y01303D01*
X03313D02*
X0332Y01297D01*
X03354D02*
X03361Y01303D01*
X03341D02*
X03347Y01297D01*
X03494D02*
X035Y01303D01*
X0348D02*
X03487Y01297D01*
X03564Y01303D02*
X0357Y01297D01*
X03508Y01303D02*
X03514Y01297D01*
X03452Y01303D02*
X03459Y01297D01*
X03438D02*
X03444Y01303D01*
X03466Y01297D02*
X03472Y01303D01*
X03363Y0125D02*
X03371Y01258D01*
X03641Y0125D02*
X0365Y01258D01*
X03665D02*
X03673Y0125D01*
X03637Y01258D02*
X03645Y0125D01*
X03693Y01258D02*
X03701Y0125D01*
X03669D02*
X03677Y01258D01*
X03586Y0125D02*
X03594Y01258D01*
X03581D02*
X0359Y0125D01*
X03613D02*
X03622Y01258D01*
X03609D02*
X03617Y0125D01*
X03776Y01258D02*
X03784Y0125D01*
X03753D02*
X03761Y01258D01*
X03804D02*
X03812Y0125D01*
X0378D02*
X03789Y01258D01*
X0372D02*
X03729Y0125D01*
X03697D02*
X03705Y01258D01*
X03748D02*
X03757Y0125D01*
X03725D02*
X03733Y01258D01*
X03414D02*
X03422Y0125D01*
X03419D02*
X03427Y01258D01*
X03391Y0125D02*
X03399Y01258D01*
X03446Y0125D02*
X03455Y01258D01*
X03442D02*
X0345Y0125D01*
X03335D02*
X03343Y01258D01*
X03331D02*
X03339Y0125D01*
X03386Y01258D02*
X03395Y0125D01*
X03359Y01258D02*
X03367Y0125D01*
X0353D02*
X03538Y01258D01*
X03526D02*
X03534Y0125D01*
X03558D02*
X03566Y01258D01*
X03553D02*
X03562Y0125D01*
X03474D02*
X03483Y01258D01*
X0347D02*
X03478Y0125D01*
X03502D02*
X0351Y01258D01*
X03498D02*
X03506Y0125D01*
X04407Y01211D02*
Y01217D01*
Y01211D02*
X0442D01*
X04407Y01227D02*
Y01249D01*
X04429Y01202D02*
X04458Y01232D01*
X04407Y01239D02*
X04458Y01188D01*
X04402Y01253D02*
X04407Y01249D01*
X04275Y01257D02*
X04315D01*
X04402Y01222D02*
X04407Y01217D01*
X04402Y01222D02*
X04407Y01227D01*
X0442Y01211D02*
X04431Y012D01*
X04328Y01187D02*
Y01194D01*
Y01209*
Y01187D02*
Y01194D01*
Y01187D02*
Y01194D01*
X04326Y01209D02*
X04328Y01207D01*
X04323Y01209D02*
X04328D01*
Y01194D02*
Y01209D01*
X04323Y01194D02*
Y01209D01*
X04142Y0125D02*
X04151Y01258D01*
X04166D02*
X04174Y0125D01*
X04138Y01258D02*
X04146Y0125D01*
X0417D02*
X04178Y01258D01*
X04142Y01198D02*
X04146Y01195D01*
X04115Y0125D02*
X04123Y01258D01*
X0411D02*
X04118Y0125D01*
X04115Y01195D02*
X04119Y01198D01*
X04114D02*
X04118Y01195D01*
X04198Y01198D02*
X04211D01*
X04198D02*
X04211D01*
X04207Y01195D02*
X04211Y01198D01*
X04199Y01195D02*
X04202Y01198D01*
X0417D02*
X04174Y01195D01*
X04143D02*
X04147Y01198D01*
X04198D02*
X04201Y01195D01*
X04171D02*
X04174Y01198D01*
X04431Y01188D02*
X04458Y0116D01*
X0442Y01168D02*
X04431Y01179D01*
Y012*
X0442Y01138D02*
X04458Y01176D01*
X04422Y01169D02*
X04453Y01138D01*
X04407Y01168D02*
X0442D01*
X04407Y01162D02*
Y01168D01*
X04392Y01138D02*
X04458Y01204D01*
X04396Y01151D02*
X04407Y01162D01*
X04384Y01151D02*
X04398Y01138D01*
X04374Y01151D02*
X04396D01*
X04448Y01138D02*
X04458Y01148D01*
X04404Y01159D02*
X04425Y01138D01*
X0437Y01155D02*
X04374Y01151D01*
X04328Y01155D02*
X0437D01*
X04268Y01138D02*
X04453D01*
X04364D02*
X04378Y01151D01*
X04328Y01171D02*
Y01187D01*
X04323Y01184D02*
X04328Y01179D01*
X04323Y0118D02*
X04328Y01185D01*
Y01155D02*
Y01171D01*
Y01187*
X04323D02*
Y01194D01*
Y01187D02*
Y01194D01*
X04309Y01138D02*
X04328Y01157D01*
X04323Y01155D02*
Y01187D01*
Y01156D02*
X04342Y01138D01*
X04296Y01155D02*
X04314Y01138D01*
X04352Y01155D02*
X0437Y01138D01*
X04336D02*
X04354Y01155D01*
X04285D02*
X04323D01*
X04268Y01138D02*
X04285Y01155D01*
X04281Y01138D02*
X04298Y01155D01*
X04277Y01147D02*
X04286Y01138D01*
X04055Y01258D02*
X04063Y0125D01*
X04059D02*
X04067Y01258D01*
X04031Y0125D02*
X04039Y01258D01*
X04087Y0125D02*
X04095Y01258D01*
X04082D02*
X04091Y0125D01*
X03999Y01258D02*
X04007Y0125D01*
X03975D02*
X03984Y01258D01*
X04027D02*
X04035Y0125D01*
X04003D02*
X04011Y01258D01*
X03725Y01198D02*
X03728Y01195D01*
X03698D02*
X03701Y01198D01*
X03752D02*
X03756Y01195D01*
X03725D02*
X03729Y01198D01*
X02091D02*
X04198D01*
X02099Y0125D02*
X04191D01*
X03697Y01198D02*
X037Y01195D01*
X0367D02*
X03673Y01198D01*
X03503Y01195D02*
X03506Y01198D01*
X0353D02*
X03533Y01195D01*
X03502Y01198D02*
X03505Y01195D01*
X03557Y01198D02*
X03561Y01195D01*
X0353D02*
X03534Y01198D01*
X03447Y01195D02*
X03451Y01198D01*
X03446D02*
X0345Y01195D01*
X03475D02*
X03478Y01198D01*
X03474D02*
X03478Y01195D01*
X03641Y01198D02*
X03645Y01195D01*
X03614D02*
X03618Y01198D01*
X03669D02*
X03672Y01195D01*
X03642D02*
X03645Y01198D01*
X03585D02*
X03589Y01195D01*
X03558D02*
X03562Y01198D01*
X03613D02*
X03617Y01195D01*
X03586D02*
X0359Y01198D01*
X03948Y01195D02*
X03952Y01198D01*
X03975D02*
X03979Y01195D01*
X03947Y01198D02*
X03951Y01195D01*
X04003Y01198D02*
X04007Y01195D01*
X03976D02*
X0398Y01198D01*
X03892Y01195D02*
X03896Y01198D01*
X03892D02*
X03895Y01195D01*
X0392D02*
X03924Y01198D01*
X03919D02*
X03923Y01195D01*
X04059D02*
X04063Y01198D01*
X04059D02*
X04062Y01195D01*
X04087D02*
X04091Y01198D01*
X04086D02*
X0409Y01195D01*
X02068D02*
X04207D01*
X04004D02*
X04007Y01198D01*
X04032Y01195D02*
X04035Y01198D01*
X04031D02*
X04034Y01195D01*
X03391D02*
X03395Y01198D01*
X03418D02*
X03422Y01195D01*
X0339Y01198D02*
X03394Y01195D01*
X03753D02*
X03757Y01198D01*
X03419Y01195D02*
X03423Y01198D01*
X03336Y01195D02*
X03339Y01198D01*
X03335D02*
X03338Y01195D01*
X03363D02*
X03367Y01198D01*
X03363D02*
X03366Y01195D01*
X03837D02*
X0384Y01198D01*
X03836D02*
X03839Y01195D01*
X03865D02*
X03868Y01198D01*
X03864D02*
X03867Y01195D01*
X03781D02*
X03785Y01198D01*
X0378D02*
X03784Y01195D01*
X03809D02*
X03812Y01198D01*
X03808D02*
X03812Y01195D01*
X02853Y01297D02*
X0286Y01303D01*
X02896D02*
X02902Y01297D01*
X0284Y01303D02*
X02846Y01297D01*
X02923Y01303D02*
X0293Y01297D01*
X02909D02*
X02915Y01303D01*
X02798Y01297D02*
X02804Y01303D01*
X02784D02*
X02791Y01297D01*
X02825D02*
X02832Y01303D01*
X02812D02*
X02818Y01297D01*
X03257Y01303D02*
X03264Y01297D01*
X03271D02*
X03277Y01303D01*
X03243Y01297D02*
X03249Y01303D01*
X03299Y01297D02*
X03305Y01303D01*
X03285D02*
X03292Y01297D01*
X03202Y01303D02*
X03208Y01297D01*
X02937D02*
X02943Y01303D01*
X0323D02*
X03236Y01297D01*
X03215D02*
X03222Y01303D01*
X02617D02*
X02624Y01297D01*
X02631D02*
X02637Y01303D01*
X02603Y01297D02*
X02609Y01303D01*
X02658Y01297D02*
X02665Y01303D01*
X02645D02*
X02651Y01297D01*
X02562Y01303D02*
X02568Y01297D01*
X02547D02*
X02554Y01303D01*
X02589D02*
X02596Y01297D01*
X02575D02*
X02581Y01303D01*
X02742Y01297D02*
X02748Y01303D01*
X02729D02*
X02735Y01297D01*
X0277D02*
X02776Y01303D01*
X02756D02*
X02763Y01297D01*
X02686D02*
X02693Y01303D01*
X02673D02*
X02679Y01297D01*
X02714D02*
X02721Y01303D01*
X02701D02*
X02707Y01297D01*
X0316D02*
X03166Y01303D01*
X03174D02*
X0318Y01297D01*
X03146Y01303D02*
X03153Y01297D01*
X03191Y01258D02*
X032Y0125D01*
X03187Y01297D02*
X03194Y01303D01*
X03104Y01297D02*
X0311Y01303D01*
X0309D02*
X03097Y01297D01*
X03132D02*
X03138Y01303D01*
X03118D02*
X03125Y01297D01*
X03275Y01258D02*
X03283Y0125D01*
X03252D02*
X0326Y01258D01*
X03303D02*
X03311Y0125D01*
X03279D02*
X03288Y01258D01*
X03219D02*
X03228Y0125D01*
X03196D02*
X03204Y01258D01*
X03247D02*
X03255Y0125D01*
X03224D02*
X03232Y01258D01*
X0302Y01297D02*
X03027Y01303D01*
X03048Y01297D02*
X03055Y01303D01*
X03007D02*
X03013Y01297D01*
X03076D02*
X03082Y01303D01*
X03063D02*
X03069Y01297D01*
X02965D02*
X02971Y01303D01*
X02951D02*
X02958Y01297D01*
X02993D02*
X02999Y01303D01*
X02979D02*
X02986Y01297D01*
X02611Y0125D02*
X0262Y01258D01*
X02607D02*
X02615Y0125D01*
X02639D02*
X02647Y01258D01*
X02635D02*
X02643Y0125D01*
X02556D02*
X02564Y01258D01*
X02551D02*
X02559Y0125D01*
X02583D02*
X02592Y01258D01*
X02579D02*
X02587Y0125D01*
X0238Y01297D02*
X02386Y01303D01*
X02394D02*
X02401Y01297D01*
X02367Y01303D02*
X02373Y01297D01*
X02422Y01303D02*
X02429Y01297D01*
X02408D02*
X02414Y01303D01*
X02324Y01297D02*
X02331Y01303D01*
X02311D02*
X02317Y01297D01*
X02352D02*
X02359Y01303D01*
X02339D02*
X02345Y01297D01*
X02506Y01303D02*
X02512Y01297D01*
X02491D02*
X02498Y01303D01*
X02534D02*
X0254Y01297D01*
X02519D02*
X02526Y01303D01*
X0245D02*
X02457Y01297D01*
X02436D02*
X02442Y01303D01*
X02478D02*
X02484Y01297D01*
X02464D02*
X0247Y01303D01*
X02269Y01297D02*
X02275Y01303D01*
X02283D02*
X0229Y01297D01*
X02255Y01303D02*
X02262Y01297D01*
X02297D02*
X02303Y01303D01*
X02077Y01272D02*
X02082Y01277D01*
X01749Y01668D02*
X0212Y01297D01*
X02063Y01286D02*
X02068Y01291D01*
X01722Y01637D02*
X02093Y01266D01*
X01978Y01284D02*
X01982Y01289D01*
X02101Y01258D02*
X02117D01*
X02093Y01266D02*
X02101Y01258D01*
X0211Y0125D02*
X02118Y01258D01*
X02101D02*
X02117D01*
X02091Y01258D02*
X02096Y01263D01*
X01992Y0127D02*
X01996Y01275D01*
X02093Y01266D02*
X02101Y01258D01*
X02006Y01257D02*
X0201Y01261D01*
X02384Y01258D02*
X02392Y0125D01*
X02389D02*
X02397Y01258D01*
X02361Y0125D02*
X02369Y01258D01*
X02416Y0125D02*
X02425Y01258D01*
X02412D02*
X0242Y0125D01*
X02328Y01258D02*
X02337Y0125D01*
X02305D02*
X02313Y01258D01*
X02356D02*
X02365Y0125D01*
X02333D02*
X02341Y01258D01*
X025Y0125D02*
X02508Y01258D01*
X02496D02*
X02504Y0125D01*
X02528D02*
X02536Y01258D01*
X02523D02*
X02532Y0125D01*
X02444D02*
X02452Y01258D01*
X0244D02*
X02448Y0125D01*
X02472D02*
X0248Y01258D01*
X02468D02*
X02476Y0125D01*
X02138D02*
X02146Y01258D01*
X02161D02*
X0217Y0125D01*
X02134Y01258D02*
X02142Y0125D01*
X02189Y01258D02*
X02198Y0125D01*
X02166D02*
X02174Y01258D01*
X02106D02*
X02114Y0125D01*
X0173Y01619D02*
X02099Y0125D01*
X01699Y01564D02*
X02068Y01195D01*
X01695Y01576D02*
X02064Y01207D01*
X02273Y01258D02*
X02281Y0125D01*
X02249D02*
X02258Y01258D01*
X02301D02*
X02309Y0125D01*
X02277D02*
X02285Y01258D01*
X02217D02*
X02225Y0125D01*
X02194D02*
X02202Y01258D01*
X02245D02*
X02253Y0125D01*
X02221D02*
X0223Y01258D01*
X03024D02*
X03033Y0125D01*
X03029D02*
X03037Y01258D01*
X03001Y0125D02*
X03009Y01258D01*
X03057Y0125D02*
X03065Y01258D01*
X03052D02*
X03061Y0125D01*
X02969Y01258D02*
X02977Y0125D01*
X02945D02*
X02954Y01258D01*
X02997D02*
X03005Y0125D01*
X02973D02*
X02981Y01258D01*
X0314Y0125D02*
X03148Y01258D01*
X03164D02*
X03172Y0125D01*
X03136Y01258D02*
X03144Y0125D01*
X03307D02*
X03315Y01258D01*
X03168Y0125D02*
X03176Y01258D01*
X03084Y0125D02*
X03093Y01258D01*
X0308D02*
X03088Y0125D01*
X03112D02*
X03121Y01258D01*
X03108D02*
X03116Y0125D01*
X02857Y01258D02*
X02866Y0125D01*
X02862D02*
X0287Y01258D01*
X02834Y0125D02*
X02842Y01258D01*
X0289Y0125D02*
X02898Y01258D01*
X02885D02*
X02894Y0125D01*
X02802Y01258D02*
X0281Y0125D01*
X02778D02*
X02787Y01258D01*
X0283D02*
X02838Y0125D01*
X02806D02*
X02814Y01258D01*
X02917Y0125D02*
X02926Y01258D01*
X02913D02*
X02921Y0125D01*
X02941Y01258D02*
X02949Y0125D01*
X02835Y01195D02*
X02838Y01198D01*
X02806D02*
X02809Y01195D01*
X02779D02*
X02782Y01198D01*
X02834D02*
X02837Y01195D01*
X02807D02*
X0281Y01198D01*
X03168D02*
X03171Y01195D01*
X03169D02*
X03172Y01198D01*
X03141Y01195D02*
X03144Y01198D01*
X03196Y01195D02*
X032Y01198D01*
X03196D02*
X03199Y01195D01*
X03112Y01198D02*
X03116Y01195D01*
X03085D02*
X03089Y01198D01*
X0314D02*
X03144Y01195D01*
X03113D02*
X03117Y01198D01*
X0328Y01195D02*
X03284Y01198D01*
X03279D02*
X03283Y01195D01*
X03308D02*
X03311Y01198D01*
X03307D02*
X03311Y01195D01*
X03224D02*
X03228Y01198D01*
X03223D02*
X03227Y01195D01*
X03252D02*
X03256Y01198D01*
X03251D02*
X03255Y01195D01*
X02918D02*
X02922Y01198D01*
X02945D02*
X02949Y01195D01*
X02917Y01198D02*
X02921Y01195D01*
X02973Y01198D02*
X02976Y01195D01*
X02946D02*
X02949Y01198D01*
X02862Y01195D02*
X02866Y01198D01*
X02862D02*
X02865Y01195D01*
X0289D02*
X02894Y01198D01*
X02889D02*
X02893Y01195D01*
X03056Y01198D02*
X0306Y01195D01*
X03029D02*
X03033Y01198D01*
X03084D02*
X03088Y01195D01*
X03057D02*
X03061Y01198D01*
X03001D02*
X03004Y01195D01*
X02974D02*
X02977Y01198D01*
X03029D02*
X03032Y01195D01*
X03002D02*
X03005Y01198D01*
X02723Y0125D02*
X02731Y01258D01*
X02746D02*
X02754Y0125D01*
X02718Y01258D02*
X02727Y0125D01*
X02774Y01258D02*
X02782Y0125D01*
X0275D02*
X02759Y01258D01*
X02667Y0125D02*
X02675Y01258D01*
X02663D02*
X02671Y0125D01*
X02695D02*
X02703Y01258D01*
X0269D02*
X02699Y0125D01*
X02389Y01195D02*
X02393Y01198D01*
X02388D02*
X02392Y01195D01*
X02417D02*
X02421Y01198D01*
X02416D02*
X0242Y01195D01*
X02333D02*
X02337Y01198D01*
X02333D02*
X02336Y01195D01*
X02361D02*
X02365Y01198D01*
X0236D02*
X02364Y01195D01*
X02064Y01207D02*
X02073Y01198D01*
X02091*
X02064Y01207D02*
X02073Y01198D01*
X02194Y01195D02*
X02198Y01198D01*
X02073D02*
X02091D01*
X02033Y01229D02*
X02038Y01233D01*
X0202Y01243D02*
X02024Y01247D01*
X02061Y01201D02*
X02066Y01206D01*
X02047Y01215D02*
X02052Y01219D01*
X02278Y01195D02*
X02281Y01198D01*
X02277D02*
X02281Y01195D01*
X02306D02*
X02309Y01198D01*
X02305D02*
X02308Y01195D01*
X02222D02*
X02226Y01198D01*
X02221D02*
X02225Y01195D01*
X0225D02*
X02254Y01198D01*
X02249D02*
X02253Y01195D01*
X02612D02*
X02615Y01198D01*
X02639D02*
X02642Y01195D01*
X02611Y01198D02*
X02615Y01195D01*
X02667Y01198D02*
X0267Y01195D01*
X0264D02*
X02643Y01198D01*
X02556Y01195D02*
X0256Y01198D01*
X02555D02*
X02559Y01195D01*
X02584D02*
X02588Y01198D01*
X02583D02*
X02587Y01195D01*
X0275Y01198D02*
X02754Y01195D01*
X02723D02*
X02727Y01198D01*
X02778D02*
X02782Y01195D01*
X02751D02*
X02755Y01198D01*
X02694D02*
X02698Y01195D01*
X02667D02*
X02671Y01198D01*
X02722D02*
X02726Y01195D01*
X02695D02*
X02699Y01198D01*
X02139Y01195D02*
X02142Y01198D01*
X02166D02*
X02169Y01195D01*
X02138Y01198D02*
X02141Y01195D01*
X02193Y01198D02*
X02197Y01195D01*
X02166D02*
X0217Y01198D01*
X02083Y01195D02*
X02086Y01198D01*
X02082D02*
X02086Y01195D01*
X02111D02*
X02114Y01198D01*
X0211D02*
X02113Y01195D01*
X025D02*
X02504Y01198D01*
X025D02*
X02503Y01195D01*
X02528D02*
X02532Y01198D01*
X02527D02*
X02531Y01195D01*
X02445D02*
X02448Y01198D01*
X02444D02*
X02448Y01195D01*
X02473D02*
X02476Y01198D01*
X02472D02*
X02475Y01195D01*
X0124Y01845D02*
X01243Y01842D01*
X01255D02*
X01258Y01845D01*
X01227Y01842D02*
X0123Y01845D01*
X01283Y01842D02*
X01286Y01845D01*
X01268D02*
X01271Y01842D01*
X01185Y01845D02*
X01187Y01842D01*
X00921D02*
X00924Y01845D01*
X01213D02*
X01215Y01842D01*
X01199D02*
X01202Y01845D01*
X01004Y01842D02*
X01007Y01845D01*
X01018D02*
X0102Y01842D01*
X0099Y01845D02*
X00993Y01842D01*
X01046Y01845D02*
X01048Y01842D01*
X01032D02*
X01035Y01845D01*
X00949Y01842D02*
X00952Y01845D01*
X00934D02*
X00937Y01842D01*
X00977D02*
X00979Y01845D01*
X00962D02*
X00965Y01842D01*
X00754D02*
X00757Y01845D01*
X00767D02*
X0077Y01842D01*
X00739Y01845D02*
X00742Y01842D01*
X00795Y01845D02*
X00798Y01842D01*
X00782D02*
X00784Y01845D01*
X00698Y01842D02*
X00701Y01845D01*
X00684D02*
X00686Y01842D01*
X00726D02*
X00729Y01845D01*
X00712D02*
X00714Y01842D01*
X00879Y01845D02*
X00881Y01842D01*
X00865D02*
X00868Y01845D01*
X00906D02*
X00909Y01842D01*
X00893D02*
X00896Y01845D01*
X00823D02*
X00826Y01842D01*
X0081D02*
X00812Y01845D01*
X00851D02*
X00853Y01842D01*
X00837D02*
X0084Y01845D01*
X01157D02*
X0116Y01842D01*
X01172D02*
X01174Y01845D01*
X01144Y01842D02*
X01146Y01845D01*
X01171Y01803D02*
X01176Y01798D01*
X01155D02*
X0116Y01803D01*
X01129Y01845D02*
X01132Y01842D01*
X01116Y01803D02*
X0112Y01798D01*
X01144Y01803D02*
X01148Y01798D01*
X01128D02*
X01132Y01803D01*
X01255D02*
X01259Y01798D01*
X01239D02*
X01243Y01803D01*
X01283D02*
X01287Y01798D01*
X01267D02*
X01271Y01803D01*
X01199D02*
X01204Y01798D01*
X01183D02*
X01188Y01803D01*
X01227D02*
X01231Y01798D01*
X01211D02*
X01215Y01803D01*
X01073Y01845D02*
X01076Y01842D01*
X01088D02*
X01091Y01845D01*
X0106Y01842D02*
X01063Y01845D01*
X01116Y01842D02*
X01119Y01845D01*
X01101D02*
X01104Y01842D01*
X00698Y01803D02*
X00703Y01798D01*
X00682D02*
X00686Y01803D01*
X00726D02*
X0073Y01798D01*
X0071D02*
X00714Y01803D01*
X01072Y01798D02*
X01076Y01803D01*
X0106D02*
X01064Y01798D01*
X011D02*
X01104Y01803D01*
X01088D02*
X01092Y01798D01*
X00754Y01803D02*
X00758Y01798D01*
X00738D02*
X00742Y01803D01*
X01044Y01798D02*
X01048Y01803D01*
X01032D02*
X01037Y01798D01*
X00531Y01842D02*
X00534Y01845D01*
X00544D02*
X00547Y01842D01*
X00517Y01845D02*
X00519Y01842D01*
X00572Y01845D02*
X00575Y01842D01*
X00559D02*
X00562Y01845D01*
X-00705D02*
X01768D01*
X00476Y01842D02*
X00478Y01845D01*
X00503Y01842D02*
X00506Y01845D01*
X00489D02*
X00491Y01842D01*
X00643D02*
X00645Y01845D01*
X00628D02*
X00631Y01842D01*
X0067D02*
X00673Y01845D01*
X00656D02*
X00659Y01842D01*
X-00663D02*
X0178D01*
X00587D02*
X0059Y01845D01*
X00615Y01842D02*
X00617Y01845D01*
X006D02*
X00603Y01842D01*
X00309D02*
X00311Y01845D01*
X00322D02*
X00324Y01842D01*
X00294Y01845D02*
X00297Y01842D01*
X0035Y01845D02*
X00352Y01842D01*
X00336D02*
X00339Y01845D01*
X00253Y01842D02*
X00256Y01845D01*
X00238D02*
X00241Y01842D01*
X00281D02*
X00283Y01845D01*
X00266D02*
X00269Y01842D01*
X00433Y01845D02*
X00436Y01842D01*
X0042D02*
X00423Y01845D01*
X00461D02*
X00464Y01842D01*
X00448D02*
X0045Y01845D01*
X00377D02*
X0038Y01842D01*
X00364D02*
X00367Y01845D01*
X00405D02*
X00408Y01842D01*
X00392D02*
X00395Y01845D01*
X00531Y01803D02*
X00535Y01798D01*
X00543D02*
X00547Y01803D01*
X00515Y01798D02*
X00519Y01803D01*
X00571Y01798D02*
X00575Y01803D01*
X00559D02*
X00563Y01798D01*
X00476Y01803D02*
X0048Y01798D01*
X00459D02*
X00464Y01803D01*
X00503D02*
X00508Y01798D01*
X00487D02*
X00492Y01803D01*
X00643D02*
X00647Y01798D01*
X00626D02*
X00631Y01803D01*
X0067D02*
X00675Y01798D01*
X00654D02*
X00659Y01803D01*
X-00663D02*
X0178D01*
X00587D02*
X00591Y01798D01*
X00615Y01803D02*
X00619Y01798D01*
X00599D02*
X00603Y01803D01*
X00292Y01798D02*
X00297Y01803D01*
X00308D02*
X00313Y01798D01*
X00281Y01803D02*
X00285Y01798D01*
X00336Y01803D02*
X00341Y01798D01*
X0032D02*
X00325Y01803D01*
X00237Y01798D02*
X00241Y01803D01*
X00225D02*
X00229Y01798D01*
X00265D02*
X00269Y01803D01*
X00253D02*
X00257Y01798D01*
X0042Y01803D02*
X00424Y01798D01*
X00404D02*
X00408Y01803D01*
X00448D02*
X00452Y01798D01*
X00432D02*
X00436Y01803D01*
X00364D02*
X00368Y01798D01*
X00348D02*
X00352Y01803D01*
X00392D02*
X00396Y01798D01*
X00376D02*
X0038Y01803D01*
X00977D02*
X00981Y01798D01*
X00988D02*
X00993Y01803D01*
X0096Y01798D02*
X00965Y01803D01*
X01016Y01798D02*
X0102Y01803D01*
X01004D02*
X01009Y01798D01*
X00921Y01803D02*
X00925Y01798D01*
X00905D02*
X00909Y01803D01*
X00949D02*
X00953Y01798D01*
X00933D02*
X00937Y01803D01*
X01256Y01676D02*
X01268Y01688D01*
X01258D02*
X0127Y01676D01*
X01174Y01688D02*
X01187Y01676D01*
X01286Y01688D02*
X01298Y01676D01*
X01284D02*
X01296Y01688D01*
X00896D02*
X00908Y01676D01*
X00894D02*
X00906Y01688D01*
X00924D02*
X00936Y01676D01*
X00922D02*
X00934Y01688D01*
X00849Y01798D02*
X00853Y01803D01*
X00865D02*
X0087Y01798D01*
X00837Y01803D02*
X00842Y01798D01*
X00893Y01803D02*
X00897Y01798D01*
X00877D02*
X00881Y01803D01*
X00793Y01798D02*
X00798Y01803D01*
X00782D02*
X00786Y01798D01*
X00821D02*
X00826Y01803D01*
X0081D02*
X00814Y01798D01*
X0084Y01688D02*
X00853Y01676D01*
X00838D02*
X0085Y01688D01*
X00868D02*
X0088Y01676D01*
X00866D02*
X00878Y01688D01*
X00785D02*
X00797Y01676D01*
X00783D02*
X00795Y01688D01*
X00813D02*
X00825Y01676D01*
X00811D02*
X00823Y01688D01*
X01063D02*
X01075Y01676D01*
X01089D02*
X01101Y01688D01*
X01061Y01676D02*
X01073Y01688D01*
X01117Y01676D02*
X01129Y01688D01*
X01091D02*
X01103Y01676D01*
X01007Y01688D02*
X0102Y01676D01*
X01005D02*
X01017Y01688D01*
X01035D02*
X01047Y01676D01*
X01033D02*
X01045Y01688D01*
X01202D02*
X01214Y01676D01*
X012D02*
X01212Y01688D01*
X0123D02*
X01242Y01676D01*
X01228D02*
X0124Y01688D01*
X01145Y01676D02*
X01157Y01688D01*
X01119D02*
X01131Y01676D01*
X01172D02*
X01185Y01688D01*
X01147D02*
X01159Y01676D01*
X00952Y01688D02*
X00964Y01676D01*
X00978D02*
X0099Y01688D01*
X0095Y01676D02*
X00962Y01688D01*
X0098D02*
X00992Y01676D01*
X00836Y01637D02*
X00845Y01628D01*
X0079D02*
X00799Y01637D01*
X0078D02*
X0079Y01628D01*
X00818D02*
X00827Y01637D01*
X00808D02*
X00817Y01628D01*
X00929D02*
X00939Y01637D01*
X00919D02*
X00929Y01628D01*
X00957D02*
X00966Y01637D01*
X00947D02*
X00957Y01628D01*
X00864Y01637D02*
X00873Y01628D01*
X00846D02*
X00855Y01637D01*
X00901Y01628D02*
X00911Y01637D01*
X00873Y01628D02*
X00883Y01637D01*
X00766Y01798D02*
X0077Y01803D01*
X00646Y01688D02*
X00658Y01676D01*
X0059Y01688D02*
X00602Y01676D01*
X00673Y01688D02*
X00685Y01676D01*
X00671D02*
X00683Y01688D01*
X-00582Y01798D02*
X01779D01*
X00451Y01688D02*
X00463Y01676D01*
X00479Y01688D02*
X00491Y01676D01*
X00476D02*
X00489Y01688D01*
X00729D02*
X00741Y01676D01*
X00727D02*
X00739Y01688D01*
X00757D02*
X00769Y01676D01*
X00755D02*
X00767Y01688D01*
X-00535D02*
X0173D01*
X-00515Y01676D02*
X01725D01*
X00701Y01688D02*
X00713Y01676D01*
X00699D02*
X00711Y01688D01*
X00284D02*
X00296Y01676D01*
X00309D02*
X00321Y01688D01*
X00282Y01676D02*
X00294Y01688D01*
X00337Y01676D02*
X00349Y01688D01*
X00311D02*
X00324Y01676D01*
X00228Y01688D02*
X0024Y01676D01*
X00226D02*
X00238Y01688D01*
X00256D02*
X00268Y01676D01*
X00254D02*
X00266Y01688D01*
X00421Y01676D02*
X00433Y01688D01*
X00395D02*
X00407Y01676D01*
X00449D02*
X00461Y01688D01*
X00423D02*
X00435Y01676D01*
X00365D02*
X00377Y01688D01*
X00339D02*
X00351Y01676D01*
X00393D02*
X00405Y01688D01*
X00367D02*
X00379Y01676D01*
X00643D02*
X00656Y01688D01*
X00651Y01628D02*
X0066Y01637D01*
X00641D02*
X0065Y01628D01*
X00679D02*
X00688Y01637D01*
X00669D02*
X00678Y01628D01*
X00618Y01688D02*
X0063Y01676D01*
X00616D02*
X00628Y01688D01*
X00623Y01628D02*
X00632Y01637D01*
X00613D02*
X00623Y01628D01*
X00734D02*
X00744Y01637D01*
X00724D02*
X00734Y01628D01*
X00762D02*
X00772Y01637D01*
X00752D02*
X00762Y01628D01*
X-00512Y01637D02*
X01722D01*
X-00491Y01628D02*
X01703D01*
X00706D02*
X00716Y01637D01*
X00697D02*
X00706Y01628D01*
X00534Y01688D02*
X00546Y01676D01*
X0056D02*
X00572Y01688D01*
X00532Y01676D02*
X00544Y01688D01*
X00588Y01676D02*
X006Y01688D01*
X00562D02*
X00574Y01676D01*
X00506Y01688D02*
X00518Y01676D01*
X00504D02*
X00516Y01688D01*
X00335Y01637D02*
X00344Y01628D01*
X00317D02*
X00326Y01637D01*
X00474D02*
X00483Y01628D01*
X00456D02*
X00465Y01637D01*
X00595Y01628D02*
X00605Y01637D01*
X00484Y01628D02*
X00493Y01637D01*
X00372Y01628D02*
X00382Y01637D01*
X00345Y01628D02*
X00354Y01637D01*
X00418D02*
X00428Y01628D01*
X0039Y01637D02*
X004Y01628D01*
X00002Y01842D02*
X00005Y01845D01*
X00016D02*
X00018Y01842D01*
X-00011Y01845D02*
X-00009Y01842D01*
X00043Y01845D02*
X00046Y01842D01*
X0003D02*
X00033Y01845D01*
X-00052Y01842D02*
X-0005Y01845D01*
X-00067D02*
X-00064Y01842D01*
X-00025D02*
X-00022Y01845D01*
X-00039D02*
X-00037Y01842D01*
X00127Y01845D02*
X0013Y01842D01*
X00141D02*
X00144Y01845D01*
X00114Y01842D02*
X00116Y01845D01*
X00225Y01842D02*
X00228Y01845D01*
X00155D02*
X00157Y01842D01*
X00071Y01845D02*
X00074Y01842D01*
X00058D02*
X00061Y01845D01*
X00099D02*
X00102Y01842D01*
X00086D02*
X00089Y01845D01*
X-0022Y01842D02*
X-00217Y01845D01*
X-00206D02*
X-00204Y01842D01*
X-00234Y01845D02*
X-00231Y01842D01*
X-0008D02*
X-00078Y01845D01*
X-00192Y01842D02*
X-00189Y01845D01*
X-00275Y01842D02*
X-00272Y01845D01*
X-0029D02*
X-00287Y01842D01*
X-00247D02*
X-00245Y01845D01*
X-00262D02*
X-00259Y01842D01*
X-00123Y01845D02*
X-0012Y01842D01*
X-00136D02*
X-00133Y01845D01*
X-00095D02*
X-00092Y01842D01*
X-00108D02*
X-00105Y01845D01*
X-00164Y01842D02*
X-00161Y01845D01*
X-00178D02*
X-00176Y01842D01*
X-00151Y01845D02*
X-00148Y01842D01*
X-00164D02*
X-00161Y01845D01*
X00183D02*
X00185Y01842D01*
X00197D02*
X002Y01845D01*
X00169Y01842D02*
X00172Y01845D01*
X0021D02*
X00213Y01842D01*
X00014Y01798D02*
X00018Y01803D01*
X-00025D02*
X-0002Y01798D01*
X-00041D02*
X-00036Y01803D01*
X00002D02*
X00007Y01798D01*
X-00013D02*
X-00009Y01803D01*
X00114D02*
X00118Y01798D01*
X00086Y01803D02*
X0009Y01798D01*
X00141Y01803D02*
X00146Y01798D01*
X00125D02*
X0013Y01803D01*
X00042Y01798D02*
X00046Y01803D01*
X0003D02*
X00034Y01798D01*
X0007D02*
X00074Y01803D01*
X00058D02*
X00062Y01798D01*
X-0022Y01803D02*
X-00215Y01798D01*
X-00208D02*
X-00204Y01803D01*
X-00236Y01798D02*
X-00231Y01803D01*
X-00192D02*
X-00187Y01798D01*
X-00208D02*
X-00204Y01803D01*
X-00275D02*
X-00271Y01798D01*
X-00291D02*
X-00287Y01803D01*
X-00247D02*
X-00243Y01798D01*
X-00264D02*
X-00259Y01803D01*
X-0008D02*
X-00076Y01798D01*
X-00096D02*
X-00092Y01803D01*
X-00053D02*
X-00048Y01798D01*
X-00069D02*
X-00064Y01803D01*
X-00164D02*
X-0016Y01798D01*
X-0018D02*
X-00176Y01803D01*
X-00108D02*
X-00104Y01798D01*
X-00152D02*
X-00148Y01803D01*
X-00457Y01845D02*
X-00454Y01842D01*
X-00442D02*
X-0044Y01845D01*
X-0047Y01842D02*
X-00467Y01845D01*
X-00414Y01842D02*
X-00412Y01845D01*
X-00429D02*
X-00426Y01842D01*
X-00512Y01845D02*
X-0051Y01842D01*
X-00526D02*
X-00523Y01845D01*
X-00485D02*
X-00482Y01842D01*
X-00498D02*
X-00495Y01845D01*
X-00331Y01842D02*
X-00328Y01845D01*
X-00345D02*
X-00343Y01842D01*
X-00303D02*
X-003Y01845D01*
X-00318D02*
X-00315Y01842D01*
X-00387D02*
X-00384Y01845D01*
X-00401D02*
X-00398Y01842D01*
X-00359D02*
X-00356Y01845D01*
X-00373D02*
X-00371Y01842D01*
X-00637D02*
X-00634Y01845D01*
X-00624D02*
X-00621Y01842D01*
X-00652Y01845D02*
X-00649Y01842D01*
X-00596Y01845D02*
X-00593Y01842D01*
X-00609D02*
X-00607Y01845D01*
X-00711D02*
X-00705D01*
X-00723Y01843D02*
X-00711Y01845D01*
X-00665Y01842D02*
X-00662Y01845D01*
X-0068D02*
X-00677Y01842D01*
X-00568Y01845D02*
X-00565Y01842D01*
X-00581D02*
X-00579Y01845D01*
X-0054D02*
X-00538Y01842D01*
X-00554D02*
X-00551Y01845D01*
X-00683Y01842D02*
X-00663D01*
X-00683D02*
X-00663D01*
X-00693Y01832D02*
X-00683Y01842D01*
X-00734Y01838D02*
X-00723Y01843D01*
X-00458Y01798D02*
X-00454Y01803D01*
X-00442D02*
X-00438Y01798D01*
X-0047Y01803D02*
X-00466Y01798D01*
X-00414Y01803D02*
X-0041Y01798D01*
X-00431D02*
X-00426Y01803D01*
X-00542Y01798D02*
X-00538Y01803D01*
X-00554D02*
X-00549Y01798D01*
X-00486D02*
X-00482Y01803D01*
X-00526D02*
X-00521Y01798D01*
X-00331Y01803D02*
X-00327Y01798D01*
X-00347D02*
X-00343Y01803D01*
X-00303D02*
X-00299Y01798D01*
X-00319D02*
X-00315Y01803D01*
X-00387D02*
X-00382Y01798D01*
X-00403D02*
X-00398Y01803D01*
X-00359D02*
X-00354Y01798D01*
X-00375D02*
X-00371Y01803D01*
X-00707Y01845D02*
X-00694Y01831D01*
X-00693Y01832D02*
X-00683Y01842D01*
X-00744Y01831D02*
X-00734Y01838D01*
X-0073Y0184D02*
X-00708Y01817D01*
X-00747Y01828D02*
X-00722Y01803D01*
X-00847Y01716D02*
X-0072Y01843D01*
X-00748Y01827D02*
X-00744Y01831D01*
X-00848Y01687D02*
X-0069Y01845D01*
X-00848Y01677D02*
X-00693Y01832D01*
X-0057Y01798D02*
X-00565Y01803D01*
X-00581D02*
X-00577Y01798D01*
X-00609Y01803D02*
X-00597Y0179D01*
X-00637Y01803D02*
X-00611Y01776D01*
X-0076Y01815D02*
X-00735Y01789D01*
X-00829Y01746D02*
X-00748Y01827D01*
X-00823Y01628D02*
X-00649Y01803D01*
X-00823Y01642D02*
X-00663Y01803D01*
X00169D02*
X00174Y01798D01*
X00181D02*
X00185Y01803D01*
X00153Y01798D02*
X00157Y01803D01*
X00209Y01798D02*
X00213Y01803D01*
X00197D02*
X00201Y01798D01*
X00097D02*
X00102Y01803D01*
X-00079Y01676D02*
X-00067Y01688D01*
X-00052Y01676D02*
X-0004Y01688D01*
X-00077D02*
X-00065Y01676D01*
X0017D02*
X00182Y01688D01*
X00172D02*
X00184Y01676D01*
X00144Y01688D02*
X00157Y01676D01*
X002Y01688D02*
X00212Y01676D01*
X00198D02*
X0021Y01688D01*
X-00024Y01676D02*
X-00012Y01688D01*
X-0005D02*
X-00037Y01676D01*
X00142D02*
X00154Y01688D01*
X-00022D02*
X-0001Y01676D01*
X-00136Y01803D02*
X-00132Y01798D01*
X-00124D02*
X-0012Y01803D01*
X-00244Y01688D02*
X-00232Y01676D01*
X-00217Y01688D02*
X-00204Y01676D01*
X-00219D02*
X-00207Y01688D01*
X-00274Y01676D02*
X-00262Y01688D01*
X-003D02*
X-00288Y01676D01*
X-00246D02*
X-00234Y01688D01*
X-00272D02*
X-0026Y01676D01*
X-00133Y01688D02*
X-00121Y01676D01*
X-00135D02*
X-00123Y01688D01*
X-00105D02*
X-00093Y01676D01*
X-00107D02*
X-00095Y01688D01*
X-00189D02*
X-00177Y01676D01*
X-00191D02*
X-00179Y01688D01*
X-00161D02*
X-00149Y01676D01*
X-00163D02*
X-00151Y01688D01*
X00089D02*
X00101Y01676D01*
X00115D02*
X00127Y01688D01*
X00087Y01676D02*
X00099Y01688D01*
X00117D02*
X00129Y01676D01*
X00094Y01628D02*
X00103Y01637D01*
X00061Y01688D02*
X00073Y01676D01*
X00059D02*
X00071Y01688D01*
X00084Y01637D02*
X00094Y01628D01*
X00066D02*
X00076Y01637D01*
X00177Y01628D02*
X00187Y01637D01*
X00168D02*
X00177Y01628D01*
X00205D02*
X00215Y01637D01*
X00195D02*
X00205Y01628D01*
X00122D02*
X00131Y01637D01*
X00112D02*
X00121Y01628D01*
X0015D02*
X00159Y01637D01*
X0014D02*
X00149Y01628D01*
X00005Y01688D02*
X00017Y01676D01*
X00031D02*
X00043Y01688D01*
X00003Y01676D02*
X00015Y01688D01*
X00033D02*
X00045Y01676D01*
X-00156Y01628D02*
X-00146Y01637D01*
X-00267Y01628D02*
X-00258Y01637D01*
X-00295Y01628D02*
X-00285Y01637D01*
X-00221D02*
X-00212Y01628D01*
X-00239D02*
X-0023Y01637D01*
X-00026D02*
X-00017Y01628D01*
X-00044D02*
X-00035Y01637D01*
X00001D02*
X0001Y01628D01*
X-00017D02*
X-00007Y01637D01*
X-001Y01628D02*
X-00091Y01637D01*
X-00128Y01628D02*
X-00118Y01637D01*
X-00054D02*
X-00045Y01628D01*
X-00072D02*
X-00063Y01637D01*
X-00514Y01798D02*
X-0051Y01803D01*
X-00498D02*
X-00494Y01798D01*
X-00588Y01797D02*
X-00582Y01798D01*
X-00562Y01719D02*
X-00555Y01726D01*
X-00562Y01719D02*
X-00555Y01726D01*
X-00593Y01794D02*
X-00588Y01797D01*
X-00664Y01801D02*
X-00625Y01762D01*
X-00678Y01788D02*
X-00639Y01748D01*
X-00692Y01774D02*
X-00652Y01734D01*
X-0033Y01676D02*
X-00318Y01688D01*
X-0033Y01676D02*
X-00318Y01688D01*
X-00302Y01676D02*
X-0029Y01688D01*
X-00328D02*
X-00316Y01676D01*
X-00384Y01688D02*
X-00371Y01676D01*
X-00386D02*
X-00374Y01688D01*
X-00356D02*
X-00344Y01676D01*
X-00358D02*
X-00346Y01688D01*
X-00774Y01801D02*
X-00749Y01776D01*
X-00788Y01787D02*
X-00763Y01762D01*
X-00802Y01773D02*
X-00777Y01748D01*
X-00706Y0176D02*
X-00666Y0172D01*
X-0072Y01746D02*
X-0068Y01706D01*
X-00816Y01759D02*
X-00791Y01734D01*
X-00834Y01741D02*
X-0083Y01745D01*
X-0083Y01745D02*
X-00805Y0172D01*
X-00841Y01731D02*
X-00834Y01741D01*
X-00842Y01729D02*
X-00819Y01706D01*
X-00846Y01719D02*
X-00841Y01731D01*
X-00734Y01732D02*
X-00694Y01693D01*
X-00747Y01718D02*
X-00708Y01679D01*
X-00848Y01707D02*
X-00846Y01719D01*
X-00848Y01707D02*
X-00848Y01701D01*
Y01708D02*
X-00833Y01692D01*
X-00848Y01677D02*
Y01701D01*
X-00441Y01676D02*
X-00429Y01688D01*
X-00439D02*
X-00427Y01676D01*
X-00467Y01688D02*
X-00455Y01676D01*
X-00411Y01688D02*
X-00399Y01676D01*
X-00413D02*
X-00401Y01688D01*
X-00495D02*
X-00483Y01676D01*
X-00497D02*
X-00485Y01688D01*
X-00469Y01676D02*
X-00457Y01688D01*
X-005Y01637D02*
X-0049Y01628D01*
X-00388Y01637D02*
X-00379Y01628D01*
X-00406D02*
X-00397Y01637D01*
X-00305D02*
X-00295Y01628D01*
X-0036Y01637D02*
X-00351Y01628D01*
X-00444Y01637D02*
X-00434Y01628D01*
X-0049D02*
X-0048Y01637D01*
X-00416D02*
X-00407Y01628D01*
X-00434D02*
X-00425Y01637D01*
X-00525Y01676D02*
X-00513Y01688D01*
X-00523D02*
X-00511Y01676D01*
X-00531D02*
X-00515D01*
X-00539Y01668D02*
X-00531Y01676D01*
X-00539Y01668D02*
X-00531Y01676D01*
X-00543Y0168D02*
X-00535Y01672D01*
X-00761Y01704D02*
X-00722Y01665D01*
X-00735Y01652D02*
X-00593Y01794D01*
X-00775Y0169D02*
X-00736Y01651D01*
X-00531Y01676D02*
X-00515D01*
X-00557Y01666D02*
X-00549Y01658D01*
X-00508Y01628D02*
X-00491D01*
X-00508D02*
X-00491D01*
X-00571Y01652D02*
X-00563Y01645D01*
X-00737Y01649D02*
X-00735Y01652D01*
X-00585Y01639D02*
X-00577Y01631D01*
X-00739Y01641D02*
X-00738Y01647D01*
X00975Y01637D02*
X00984Y01628D01*
X00985D02*
X00994Y01637D01*
X00891D02*
X00901Y01628D01*
X01013D02*
X01022Y01637D01*
X01003D02*
X01012Y01628D01*
X00557Y01637D02*
X00567Y01628D01*
X00539D02*
X00549Y01637D01*
X00585D02*
X00595Y01628D01*
X00567D02*
X00577Y01637D01*
X01235Y01628D02*
X01245Y01637D01*
X01253D02*
X01263Y01628D01*
X01226Y01637D02*
X01235Y01628D01*
X01281Y01637D02*
X01291Y01628D01*
X01263D02*
X01273Y01637D01*
X0104Y01628D02*
X0105Y01637D01*
X01031D02*
X0104Y01628D01*
X01208D02*
X01217Y01637D01*
X01198D02*
X01207Y01628D01*
X00251Y01637D02*
X00261Y01628D01*
X00261D02*
X0027Y01637D01*
X00233Y01628D02*
X00243Y01637D01*
X00289Y01628D02*
X00298Y01637D01*
X00279D02*
X00288Y01628D01*
X00038D02*
X00048Y01637D01*
X00028D02*
X00038Y01628D01*
X00223Y01637D02*
X00233Y01628D01*
X00056Y01637D02*
X00066Y01628D01*
X00502Y01637D02*
X00511Y01628D01*
X00446Y01637D02*
X00456Y01628D01*
X0053Y01637D02*
X00539Y01628D01*
X00512D02*
X00521Y01637D01*
X00363D02*
X00372Y01628D01*
X00307Y01637D02*
X00316Y01628D01*
X00428D02*
X00438Y01637D01*
X004Y01628D02*
X0041Y01637D01*
X0117D02*
X01179Y01628D01*
X0118D02*
X01189Y01637D01*
X01152Y01628D02*
X01161Y01637D01*
X01152Y01573D02*
X01156Y01576D01*
X01147D02*
X01151Y01573D01*
X01124Y01628D02*
X01133Y01637D01*
X01114D02*
X01124Y01628D01*
X01142Y01637D02*
X01151Y01628D01*
X01125Y01573D02*
X01128Y01576D01*
X01236Y01573D02*
X0124Y01576D01*
X01231D02*
X01234Y01573D01*
X01264D02*
X01267Y01576D01*
X01259D02*
X01262Y01573D01*
X0118D02*
X01184Y01576D01*
X01175D02*
X01179Y01573D01*
X01208D02*
X01212Y01576D01*
X01203D02*
X01207Y01573D01*
X01068Y01628D02*
X01078Y01637D01*
X01086D02*
X01096Y01628D01*
X01058Y01637D02*
X01068Y01628D01*
X01096D02*
X01106Y01637D01*
X01008Y01576D02*
X01012Y01573D01*
X00958D02*
X00961Y01576D01*
X00011Y01573D02*
X00015Y01576D01*
X00985Y01573D02*
X00989Y01576D01*
X0098D02*
X00984Y01573D01*
X01092Y01576D02*
X01095Y01573D01*
X01069D02*
X01072Y01576D01*
X01119D02*
X01123Y01573D01*
X01097D02*
X011Y01576D01*
X01036D02*
X0104Y01573D01*
X01013D02*
X01017Y01576D01*
X01064D02*
X01067Y01573D01*
X01041D02*
X01045Y01576D01*
X-00211Y01628D02*
X-00202Y01637D01*
X-00193D02*
X-00184Y01628D01*
X-00249Y01637D02*
X-0024Y01628D01*
X-00166Y01637D02*
X-00156Y01628D01*
X-00184D02*
X-00174Y01637D01*
X-00333D02*
X-00323Y01628D01*
X-00351D02*
X-00341Y01637D01*
X-00277D02*
X-00267Y01628D01*
X-00323D02*
X-00313Y01637D01*
X0001Y01628D02*
X0002Y01637D01*
X-00082D02*
X-00073Y01628D01*
X00006Y01576D02*
X0001Y01573D01*
X-00016D02*
X-00012Y01576D01*
X-0011Y01637D02*
X-001Y01628D01*
X-00138Y01637D02*
X-00128Y01628D01*
X-00483Y01576D02*
X01695D01*
X-0016D02*
X-00157Y01573D01*
X-00462Y01628D02*
X-00452Y01637D01*
X-00378Y01628D02*
X-00369Y01637D01*
X-00472D02*
X-00462Y01628D01*
X-00378D02*
X-00369Y01637D01*
X-0052Y0163D02*
X-00513Y01623D01*
X-00665Y01619D02*
X-00559Y01725D01*
X-0066Y01621D02*
X-00562Y01719D01*
X-00629Y01594D02*
X-00535Y01688D01*
X-00614Y01593D02*
X-00539Y01668D01*
X-00466Y01576D02*
X-00463Y01573D01*
X-00517Y01619D02*
X-00508Y01628D01*
X-00439Y01576D02*
X-00435Y01573D01*
X-00461D02*
X-00458Y01576D01*
X-00517Y01619D02*
X-00508Y01628D01*
X-00534Y01616D02*
X-00527Y01609D01*
X-00548Y01602D02*
X-00541Y01595D01*
X-00562Y01588D02*
X-00555Y01581D01*
X-00188Y01576D02*
X-00184Y01573D01*
X-00183D02*
X-00179Y01576D01*
X-00211Y01573D02*
X-00207Y01576D01*
X-00132D02*
X-00129Y01573D01*
X-00155D02*
X-00152Y01576D01*
X-00244D02*
X-0024Y01573D01*
X-00266D02*
X-00263Y01576D01*
X-00216D02*
X-00212Y01573D01*
X-00239D02*
X-00235Y01576D01*
X-00049D02*
X-00045Y01573D01*
X-00072D02*
X-00068Y01576D01*
X-00021D02*
X-00017Y01573D01*
X-00044D02*
X-0004Y01576D01*
X-00105D02*
X-00101Y01573D01*
X-00127D02*
X-00124Y01576D01*
X-00077D02*
X-00073Y01573D01*
X-00099D02*
X-00096Y01576D01*
X-00434Y01573D02*
X-0043Y01576D01*
X-00411D02*
X-00407Y01573D01*
X-00434D02*
X-0043Y01576D01*
X-00383D02*
X-00379Y01573D01*
X-00406D02*
X-00402Y01576D01*
X-00583Y01567D02*
X-00512Y01637D01*
X-00568Y01569D02*
X-00517Y01619D01*
X-00525Y01534D02*
X-00483Y01576D01*
X-00583Y01562D02*
X-00508Y01637D01*
X-00299Y01576D02*
X-00296Y01573D01*
X-00322D02*
X-00319Y01576D01*
X-00272D02*
X-00268Y01573D01*
X-00294D02*
X-00291Y01576D01*
X-00355D02*
X-00351Y01573D01*
X-00378D02*
X-00374Y01576D01*
X-00327D02*
X-00324Y01573D01*
X-0035D02*
X-00346Y01576D01*
X0034D02*
X00344Y01573D01*
X00345D02*
X00349Y01576D01*
X00317Y01573D02*
X00321Y01576D01*
X00373Y01573D02*
X00377Y01576D01*
X00368D02*
X00371Y01573D01*
X00284Y01576D02*
X00288Y01573D01*
X00262D02*
X00265Y01576D01*
X00312D02*
X00316Y01573D01*
X00289D02*
X00293Y01576D01*
X00451D02*
X00455Y01573D01*
X00456D02*
X0046Y01576D01*
X00429Y01573D02*
X00432Y01576D01*
X00952D02*
X00956Y01573D01*
X00479Y01576D02*
X00483Y01573D01*
X-00459D02*
X01672D01*
X00396Y01576D02*
X00399Y01573D01*
X00423Y01576D02*
X00427Y01573D01*
X00401D02*
X00404Y01576D01*
X00095Y01573D02*
X00098Y01576D01*
X00117D02*
X00121Y01573D01*
X00089Y01576D02*
X00093Y01573D01*
X00145Y01576D02*
X00149Y01573D01*
X00122D02*
X00126Y01576D01*
X00039Y01573D02*
X00042Y01576D01*
X00034D02*
X00037Y01573D01*
X00067D02*
X0007Y01576D01*
X00062D02*
X00065Y01573D01*
X00229Y01576D02*
X00232Y01573D01*
X00206D02*
X00209Y01576D01*
X00256D02*
X0026Y01573D01*
X00234D02*
X00237Y01576D01*
X00173D02*
X00177Y01573D01*
X0015D02*
X00154Y01576D01*
X00201D02*
X00204Y01573D01*
X00178D02*
X00182Y01576D01*
X00785D02*
X00789Y01573D01*
X0079D02*
X00794Y01576D01*
X00763Y01573D02*
X00766Y01576D01*
X00818Y01573D02*
X00822Y01576D01*
X00813D02*
X00817Y01573D01*
X0073Y01576D02*
X00733Y01573D01*
X00707D02*
X00711Y01576D01*
X00758D02*
X00761Y01573D01*
X00735D02*
X00738Y01576D01*
X00902Y01573D02*
X00905Y01576D01*
X00897D02*
X009Y01573D01*
X0093D02*
X00933Y01576D01*
X00925D02*
X00928Y01573D01*
X00846D02*
X0085Y01576D01*
X00841D02*
X00845Y01573D01*
X00874D02*
X00878Y01576D01*
X00869D02*
X00873Y01573D01*
X00563Y01576D02*
X00566Y01573D01*
X00568D02*
X00571Y01576D01*
X0054Y01573D02*
X00544Y01576D01*
X00596Y01573D02*
X00599Y01576D01*
X00591D02*
X00594Y01573D01*
X00507Y01576D02*
X00511Y01573D01*
X00484D02*
X00488Y01576D01*
X00535D02*
X00538Y01573D01*
X00512D02*
X00516Y01576D01*
X00674D02*
X00678Y01573D01*
X00651D02*
X00655Y01576D01*
X00702D02*
X00706Y01573D01*
X00679D02*
X00683Y01576D01*
X00623Y01573D02*
X00627Y01576D01*
X00618D02*
X00622Y01573D01*
X00646Y01576D02*
X0065Y01573D01*
X-00475Y01281D02*
Y01141D01*
X-00477Y01573D02*
X-00459D01*
X-00477D02*
X-00459D01*
X-00489Y0157D02*
X-00484Y01566D01*
X-00486Y01564D02*
X-00477Y01573D01*
X-00486Y01564D02*
X-00477Y01573D01*
X-00502Y01556D02*
X-00498Y01552D01*
X-00516Y01543D02*
X-00512Y01538D01*
X-00512Y01537D02*
X-00486Y01564D01*
X-00521Y01528D02*
X-00512Y01537D01*
X-00521Y01528D02*
X-00512Y01537D01*
X-00525Y01468D02*
X-00521Y01464D01*
X-00525Y01384D02*
X-00521Y01381D01*
X-00525Y01453D02*
X-00521Y01457D01*
X-00525Y01496D02*
X-00521Y01492D01*
X-00525Y01509D02*
X-00521Y01513D01*
X-00525Y01481D02*
X-00521Y01485D01*
X-00525Y01481D02*
X-00521Y01485D01*
X-00576Y01574D02*
X-00569Y01567D01*
X-00525Y01523D02*
X-00521Y0152D01*
X-00576Y01542D02*
Y0156D01*
X-00521Y0151D02*
Y01528D01*
Y0151D02*
Y01528D01*
X-00576Y0156D02*
X-00568Y01569D01*
X-00576Y0156D02*
X-00568Y01569D01*
X-00583Y01479D02*
X-00576Y01485D01*
X-00583Y01553D02*
X-00576Y01547D01*
X-00525Y01425D02*
X-00521Y01429D01*
X-00525Y0144D02*
X-00521Y01436D01*
X-00525Y01398D02*
X-00521Y01401D01*
X-00525Y01412D02*
X-00521Y01408D01*
X-00583Y01423D02*
X-00576Y0143D01*
X-00583Y01442D02*
X-00576Y01436D01*
X-00583Y01414D02*
X-00576Y01408D01*
X-00583Y01423D02*
X-00576Y0143D01*
X-00521Y01335D02*
Y0151D01*
X-0049Y01266D02*
X-00475Y01251D01*
X-00525Y01342D02*
X-00521Y01346D01*
X-00518Y01238D02*
X-00475Y01195D01*
X-00504Y01252D02*
X-00475Y01223D01*
X-0059Y01166D02*
X-00475Y01281D01*
X-00601Y01255D02*
X-00521Y01335D01*
X-0059Y01138D02*
X-00475Y01253D01*
X-00618Y01138D02*
X-00475Y0128D01*
X-00532Y01224D02*
X-00475Y01167D01*
X-00534Y01138D02*
X-00475Y01197D01*
X-00479Y01138D02*
X-00475Y01141D01*
X-00507Y01138D02*
X-00475Y01169D01*
X-00546Y0121D02*
X-00475Y0114D01*
X-00844Y01138D02*
X-00478D01*
X-00562D02*
X-00475Y01225D01*
X-0056Y01196D02*
X-00501Y01138D01*
X-00525Y0137D02*
X-00521Y01373D01*
X-00525Y01356D02*
X-00521Y01353D01*
X-00525Y01359D02*
Y01534D01*
Y01341D02*
Y01359D01*
Y01341D02*
Y01359D01*
X-00576Y01367D02*
Y01542D01*
X-00583Y01386D02*
X-00576Y0138D01*
X-006Y01267D02*
X-00525Y01342D01*
X-00534Y01332D02*
X-00525Y01341D01*
X-00534Y01332D02*
X-00525Y01341D01*
X-00531Y01335D02*
X-00527Y0133D01*
X-00545Y01321D02*
X-0054Y01316D01*
X-00559Y01307D02*
X-00554Y01302D01*
X-0059Y01276D02*
X-00534Y01332D01*
X-00573Y01293D02*
X-00568Y01288D01*
X-00574Y01182D02*
X-00529Y01138D01*
X-00587Y01168D02*
X-00557Y01138D01*
X-00598Y01625D02*
X-0059Y01617D01*
X-00576Y01542D02*
Y0156D01*
X-00612Y01611D02*
X-00604Y01603D01*
X-00583Y01526D02*
X-00576Y01519D01*
X-00583Y01535D02*
X-00576Y01541D01*
X-00622Y01585D02*
X-00614Y01593D01*
X-00626Y01597D02*
X-00618Y01589D01*
X-00622Y01585D02*
X-00614Y01593D01*
X-00629Y01516D02*
X-00622Y01509D01*
X-00583Y01498D02*
X-00576Y01491D01*
X-00583Y0147D02*
X-00576Y01463D01*
X-00583Y01507D02*
X-00576Y01513D01*
X-00583Y01451D02*
X-00576Y01457D01*
X-00629Y01433D02*
X-00622Y0144D01*
X-00629Y01488D02*
X-00622Y01481D01*
X-00629Y01488D02*
X-00622Y01496D01*
X-00629Y0146D02*
X-00622Y01453D01*
X-00629Y0146D02*
X-00622Y01468D01*
Y01569D02*
Y01585D01*
X-00629Y01572D02*
X-00622Y01564D01*
Y01569D02*
Y01585D01*
X-00629Y01544D02*
X-00622Y01537D01*
X-00629Y01544D02*
X-00622Y01551D01*
X-00666Y01615D02*
X-0066Y01621D01*
X-00666Y01615D02*
X-0066Y01621D01*
X-00629Y01572D02*
X-00622Y01579D01*
X-00629Y01412D02*
Y01594D01*
Y01433D02*
X-00622Y01425D01*
X-00629Y01516D02*
X-00622Y01523D01*
X-00668Y01415D02*
Y0142D01*
X-0067Y01416D02*
X-00668Y0142D01*
X-00675Y01413D02*
X-0067Y01416D01*
X-00681Y01412D02*
X-00675Y01413D01*
X-00683Y01407D02*
Y01411D01*
X-00687Y0141D02*
X-00683Y01411D01*
X-00629Y01405D02*
X-00622Y01397D01*
X-00583Y01395D02*
X-00576Y01402D01*
X-00629Y01396D02*
Y01412D01*
X-00583Y01388D02*
Y01567D01*
X-00622Y01391D02*
Y01569D01*
X-00629Y01405D02*
X-00622Y01412D01*
X-00637Y01388D02*
X-00629Y01396D01*
X-00653Y01359D02*
X-00622Y01391D01*
X-00637Y01388D02*
X-00629Y01396D01*
X-00583Y01372D02*
Y01388D01*
Y01372D02*
Y01388D01*
X-00591Y01364D02*
X-00583Y01372D01*
X-0059Y01365D02*
X-00584Y01359D01*
X-00591Y01364D02*
X-00583Y01372D01*
X-00626Y01328D02*
X-00591Y01364D01*
X-00625Y01318D02*
X-00576Y01367D01*
X-00632Y01318D02*
X-00576Y01374D01*
X-00629Y01396D02*
Y01412D01*
X-00639Y01387D02*
X-00632Y0138D01*
X-0065Y01376D02*
X-00637Y01388D01*
X-00657Y01368D02*
X-0065Y01376D01*
X-00657Y01368D02*
X-0065Y01376D01*
X-00683Y01407D02*
X-00677Y01412D01*
X-00683Y01407D02*
Y01411D01*
X-00676Y01407D02*
X-00668Y01415D01*
X-00683Y01407D02*
X-00676D01*
X-00673Y01368D02*
X-00657D01*
X-00673D02*
X-00657D01*
X-00653Y01373D02*
X-00646Y01366D01*
X-00674Y01359D02*
X-00666Y01368D01*
X-00683D02*
X-00673D01*
X-00683Y0136D02*
Y01367D01*
X-00676Y01368D02*
X-00667Y01359D01*
X-00683Y0136D02*
Y01367D01*
X-00803Y01662D02*
X-00739Y01598D01*
X-00817Y01648D02*
X-00739Y01571D01*
X-00789Y01676D02*
X-00739Y01626D01*
Y01528D02*
Y01641D01*
X-00802Y01538D02*
X-00739Y01601D01*
X-00823Y01573D02*
X-00593Y01803D01*
X-00823Y016D02*
X-00621Y01803D01*
X-00823Y01627D02*
X-00739Y01543D01*
X-00823Y01545D02*
X-00739Y01629D01*
X-00748Y01536D02*
X-00739Y01545D01*
X-0075Y01537D02*
X-00745Y01534D01*
X-00741Y0153*
X-00741Y01439D02*
Y01446D01*
X-00774Y01538D02*
X-00739Y01573D01*
X-00803Y01538D02*
X-00755D01*
X-00783Y01439D02*
X-00741D01*
X-00755Y01538D02*
X-0075Y01537D01*
X-00809D02*
X-00803Y01538D01*
X-00813Y01534D02*
X-0081Y01536D01*
X-00817Y0153D02*
X-00813Y01534D01*
X-00821Y01525D02*
X-00817Y0153D01*
X-00822Y01456D02*
Y01519D01*
X-00823Y01599D02*
X-00763Y01538D01*
X-00823Y01571D02*
X-00791Y01538D01*
X-00823Y01543D02*
X-00814Y01534D01*
X-00822Y01519D02*
X-00821Y01525D01*
X-00809Y01438D02*
X-00803Y01437D01*
X-00813Y01442D02*
X-00809Y01438D01*
X-00789Y01437D02*
X-00784Y01438D01*
X-00803Y01437D02*
X-00789D01*
X-00819Y01448D02*
X-00817Y01445D01*
X-00822Y01456D02*
X-00821Y0145D01*
X-00817Y01445D02*
X-00813Y01442D01*
X-00823Y01433D02*
X-00814Y01442D01*
X-00736Y01415D02*
Y01419D01*
Y01407D02*
Y01415D01*
X-00739Y01428D02*
X-00738Y01422D01*
X-00736Y01399D02*
Y01407D01*
Y01415*
X-00739Y01428D02*
Y01448D01*
X-00747Y01439D02*
X-00739Y01431D01*
X-00741Y01404D02*
X-00736Y01409D01*
X-00759Y01415D02*
X-00739Y01434D01*
X-00736Y01367D02*
Y01376D01*
Y01399*
Y0136D02*
Y01367D01*
Y0136D02*
Y01367D01*
X-00741Y01377D02*
X-00736Y01381D01*
X-00741Y01405D02*
X-00736Y014D01*
X-00741Y01377D02*
X-00736Y01373D01*
Y01376D02*
Y01399D01*
X-00785Y01416D02*
X-00762Y01439D01*
X-00801Y01437D02*
X-00778Y01415D01*
X-00809Y01417D02*
X-00787D01*
X-00774Y01439D02*
X-0075Y01415D01*
X-00787Y01417D02*
X-00784Y01415D01*
X-00823Y01432D02*
X-00808Y01417D01*
X-0082Y01406D02*
X-00809Y01417D01*
X-00823Y01406D02*
X-00792Y01437D01*
X-00823Y01387D02*
Y01642D01*
X-00741Y01376D02*
Y01383D01*
Y01415*
Y01352D02*
Y01376D01*
Y01383*
X-00784Y01415D02*
X-00741D01*
X-00823Y01404D02*
X-0082Y014D01*
X-00823Y01387D02*
X-00819Y01384D01*
X-0082Y01384D02*
Y01406D01*
X-00604Y01351D02*
X-00598Y01346D01*
X-00617Y01337D02*
X-00612Y01332D01*
X-00634Y01321D02*
X-00626Y01328D01*
X-00587Y01279D02*
X-00582Y01274D01*
X-00631Y01323D02*
X-00626Y01318D01*
X-0065Y01321D02*
X-00634D01*
X-0065D02*
X-00634D01*
X-00683Y01318D02*
X-00625D01*
X-00634Y01321D02*
X-00626Y01328D01*
X-00599Y01267D02*
X-0059Y01276D01*
X-00617Y01267D02*
X-00599D01*
X-0059Y01276*
X-00603Y01267D02*
X-00596Y0126D01*
X-00617Y01267D02*
X-00599D01*
X-00683D02*
X-00617D01*
X-00639Y01255D02*
X-00628Y01267D01*
X-00658D02*
X-00647Y01255D01*
X-00683Y01359D02*
X-00653D01*
X-00683Y01321D02*
X-0065D01*
X-00736Y01281D02*
Y01302D01*
Y01275D02*
Y01281D01*
Y01302*
X-00738Y01351D02*
X-00736Y01353D01*
Y01352D02*
Y0136D01*
X-0074Y01298D02*
X-00736Y01302D01*
X-0074Y01298D02*
X-00736Y01302D01*
X-00693Y01257D02*
X-00685Y01265D01*
X-00712D02*
X-00704Y01257D01*
X-00667Y01255D02*
X-00656Y01267D01*
X-00685Y01265D02*
X-00675Y01255D01*
X-00718Y01265D02*
X-00683D01*
X-00717Y01261D02*
X-00713Y01265D01*
X-00717Y01257D02*
X-00683D01*
X-00717D02*
Y01264D01*
X-00611Y01255D02*
X-006Y01267D01*
X-00599Y01157D02*
X-0059Y01166D01*
X-00631Y01267D02*
X-00619Y01255D01*
X-00599Y01157D02*
X-0059Y01166D01*
X-00646Y01138D02*
X-00627Y01157D01*
X-00683Y01255D02*
X-00601D01*
X-00683Y01157D02*
X-00617D01*
X-00659D02*
X-0064Y01138D01*
X-00674D02*
X-00654Y01157D01*
X-00617D02*
X-00599D01*
X-00617D02*
X-00599D01*
X-00604D02*
X-00585Y01138D01*
X-00632Y01157D02*
X-00612Y01138D01*
X-00736Y01155D02*
X-00683D01*
X-00714D02*
X-00696Y01138D01*
X-00686Y01155D02*
X-00668Y01138D01*
X-00701D02*
X-00684Y01155D01*
X-00736Y01218D02*
Y01226D01*
Y01218D02*
Y01226D01*
Y01232*
Y01194D02*
Y01218D01*
X-00741Y0121D02*
Y01218D01*
Y01232D02*
X-00736D01*
X-00741Y01226D02*
Y01232D01*
Y01218D02*
Y01226D01*
Y01218D02*
Y01226D01*
X-00736Y01187D02*
Y01194D01*
Y01187D02*
Y01194D01*
X-00729Y01138D02*
X-00712Y01155D01*
X-00736D02*
Y01187D01*
X-00741Y0121D02*
X-00736Y01206D01*
X-00741Y01209D02*
X-00736Y01214D01*
X-00741Y01182D02*
X-00736Y01178D01*
X-00741Y01194D02*
Y0121D01*
Y01293D02*
X-00736Y01298D01*
X-00741Y01294D02*
X-00736Y01289D01*
X-00741Y01351D02*
X-00736D01*
X-00741Y01281D02*
Y01289D01*
Y01297*
X-0082Y01321D02*
X-00814Y01316D01*
X-00848Y01346D02*
X-00816Y01314D01*
X-0082Y01311D02*
X-00814Y01316D01*
X-0082Y01289D02*
X-00815Y01284D01*
X-00741Y01275D02*
Y01281D01*
Y01289*
Y01275D02*
X-00736D01*
X-0082Y01216D02*
X-00814Y01221D01*
X-0082Y01258D02*
X-00815Y01253D01*
X-0082Y0128D02*
X-00815Y01284D01*
X-0082Y01227D02*
X-00814Y01221D01*
X-0082Y01249D02*
X-00815Y01253D01*
X-00839Y01344D02*
X-00819D01*
X-00839D02*
X-00819D01*
X-0082Y01321D02*
Y01343D01*
Y01289D02*
Y01311D01*
X-00848Y01318D02*
X-0082Y01289D01*
X-00848Y01353D02*
X-00839Y01344D01*
X-00848Y01353D02*
X-00839Y01344D01*
X-00848Y01297D02*
X-0082Y01326D01*
X-00848Y01325D02*
X-00829Y01344D01*
X-0082Y01227D02*
Y01249D01*
Y01258D02*
Y0128D01*
X-00848Y01213D02*
X-0082Y01242D01*
X-00848Y01234D02*
X-00826Y01212D01*
X-00848Y0129D02*
X-0082Y01261D01*
X-00848Y01269D02*
X-0082Y01298D01*
X-00848Y01262D02*
X-0082Y01233D01*
X-00848Y01241D02*
X-0082Y0127D01*
X-00741Y01171D02*
Y01187D01*
Y01182D02*
X-00736Y01186D01*
X-00741Y01187D02*
Y01194D01*
Y01155D02*
Y01171D01*
Y01187*
Y01194*
Y0121*
X-00757Y01138D02*
X-00736Y01159D01*
X-00741Y01187D02*
Y01194D01*
X-00786Y01155D02*
X-00741D01*
X-00785Y01138D02*
X-00767Y01155D01*
X-00741D02*
X-00724Y01138D01*
X-00769Y01155D02*
X-00752Y01138D01*
X-00788Y01153D02*
X-00786Y01155D01*
X-0081Y01153D02*
X-00788D01*
X-00795D02*
X-00779Y01138D01*
X-00813D02*
X-00797Y01153D01*
X-0082Y01212D02*
Y01216D01*
X-00822Y01212D02*
X-0082Y01214D01*
X-00829Y01212D02*
X-0082D01*
X-0084Y01179D02*
X-00829Y01169D01*
X-0084Y01179D02*
Y01201D01*
X-00829Y01212*
X-00848Y01206D02*
X-0084Y01198D01*
X-00848Y01186D02*
X-0084Y01194D01*
X-00848Y01142D02*
Y01353D01*
X-00821Y01164D02*
Y01169D01*
X-00829D02*
X-00821D01*
Y01164D02*
X-0081Y01153D01*
X-00841Y01138D02*
X-00817Y01161D01*
X-00848Y01158D02*
X-00833Y01173D01*
X-00848Y01158D02*
X-00833Y01173D01*
X-00848Y01179D02*
X-00807Y01138D01*
X-00848Y01151D02*
X-00835Y01138D01*
X-00843Y01378D02*
Y01652D01*
X-00673Y01822D02*
X0179D01*
X-00843Y01652D02*
X-00673Y01822D01*
X01807Y01833D02*
X02181Y01459D01*
X02197*
X0218Y01433D02*
X03992D01*
X0179Y01822D02*
X0218Y01433D01*
X04215Y01512D02*
X04215Y01512D01*
X04436*
X04027Y01409D02*
X04112D01*
X04215Y01512*
X0427Y01492D02*
X04272Y0149D01*
X04297*
X04324Y01446D02*
Y01484D01*
X04319Y0149D02*
X04324Y01484D01*
X04297Y0149D02*
X04319D01*
X04436Y01512D02*
X0446Y01488D01*
X01749Y01726D02*
X01753Y01721D01*
X00191Y01726D02*
X01749D01*
X0019Y01728D02*
X00191Y01726D01*
X00188D02*
X0019Y01728D01*
X-00558Y01726D02*
X00188D01*
X-00666Y01618D02*
X-00558Y01726D01*
X-00666Y01421D02*
Y01618D01*
X-00668Y01419D02*
X-00666Y01421D01*
X-00843Y01378D02*
X-00829Y01364D01*
X-00798*
X0446Y01428D02*
Y01488D01*
X04427Y01395D02*
X0446Y01428D01*
X03992Y01433D02*
X04007Y01448D01*
X04381Y01358D02*
X04409D01*
X04421Y01346*
X04007Y01448D02*
X04082D01*
X04385Y01395D02*
X04427D01*
G54D17*
X-00599Y01575D02*
X-0052Y01653D01*
X-00645Y01344D02*
X-00606Y01383D01*
Y01577*
X-00523Y0166*
X-00599Y0138D02*
Y01575D01*
X-00642Y01336D02*
X-00599Y0138D01*
X02109Y01274D02*
X04208D01*
X04271Y01336*
X04205Y01281D02*
X04268Y01344D01*
X02112Y01281D02*
X04205D01*
X04268Y01344D02*
X0428D01*
X04271Y01336D02*
X0428D01*
X04284Y01332D02*
X04297D01*
X0428Y01344D02*
X04284Y01348D01*
X04297*
X0428Y01336D02*
X04284Y01332D01*
X04188Y01319D02*
X04252Y01384D01*
X0428*
X04185Y01326D02*
X04249Y01391D01*
X0428*
X02126Y01326D02*
X04185D01*
X02123Y01319D02*
X04188D01*
X01741Y01711D02*
X02126Y01326D01*
X01738Y01704D02*
X02123Y01319D01*
X-00543Y01704D02*
X01738D01*
X-00546Y01711D02*
X01741D01*
X-00652Y01605D02*
X-00546Y01711D01*
X-00645Y01602D02*
X-00543Y01704D01*
X-00645Y01404D02*
Y01602D01*
X-00652Y01407D02*
Y01605D01*
X0428Y01391D02*
X04284Y01395D01*
X04297*
X0428Y01384D02*
X04284Y01379D01*
X04297*
X-00665Y01384D02*
X-00645Y01404D01*
X-00668Y01391D02*
X-00652Y01407D01*
X-00692Y01391D02*
X-00668D01*
X-00697Y01395D02*
X-00692Y01391D01*
X-00709Y01395D02*
X-00697D01*
X-00692Y01384D02*
X-00665D01*
X-00697Y01379D02*
X-00692Y01384D01*
X-00709Y01379D02*
X-00697D01*
X0173Y01653D02*
X02109Y01274D01*
X01733Y0166D02*
X02112Y01281D01*
X-0052Y01653D02*
X0173D01*
X-00523Y0166D02*
X01733D01*
X-00692Y01344D02*
X-00645D01*
X-00692Y01336D02*
X-00642D01*
X-00697Y01348D02*
X-00692Y01344D01*
X-00709Y01348D02*
X-00697D01*
Y01332D02*
X-00692Y01336D01*
X-00709Y01332D02*
X-00697D01*
G54D18*
X-00768Y01379D02*
X-00767Y01379D01*
X-00768Y01379D02*
D01*
X-00817Y01381D02*
X-00815Y01379D01*
X-00768*
X04004Y01415D02*
X04005D01*
X04019Y0143*
X-0074Y01385D02*
X-00738D01*
X-00682Y01411D02*
X-00681Y0141D01*
X04326Y01281D02*
X0433Y01285D01*
X04355Y01411D02*
Y01442D01*
X-00836Y01348D02*
X-00768D01*
X-00738Y01364D02*
Y01385D01*
X-00798Y01364D02*
X-00768D01*
X04326Y01364D02*
Y01379D01*
X-00686Y01364D02*
X-00686Y01364D01*
X-00818Y01222D02*
X-00768D01*
X-00818Y01222D02*
X-00818Y01222D01*
X-00842Y01303D02*
Y01342D01*
X-00836Y01348*
X-0084Y01183D02*
X-00817Y0116D01*
X-00812D02*
X-00811Y01158D01*
X-00817Y0116D02*
X-00812D01*
X-0084Y01183D02*
Y01281D01*
X-00503Y01161D02*
Y01185D01*
X-00505Y0116D02*
X-00503Y01161D01*
X-00768Y01158D02*
X-00768Y01159D01*
X-00836Y01285D02*
X-00818D01*
X-0084Y01281D02*
X-00836Y01285D01*
X-00739Y01285D02*
X-00731Y01277D01*
Y01273D02*
Y01277D01*
X04326Y01348D02*
Y01364D01*
Y01167D02*
Y0119D01*
Y01207*
X04297Y01222D02*
X04298Y01221D01*
X04313D02*
X04325Y01208D01*
X04298Y01221D02*
X04313D01*
X-00768Y01285D02*
X-00768Y01285D01*
X-00738Y01411D02*
D01*
Y01364D02*
D01*
Y01385D02*
Y01411D01*
Y01385D02*
Y01385D01*
D01*
X-0074Y01362D02*
X-00738Y01364D01*
X-0074Y01354D02*
Y01362D01*
X-00818Y01285D02*
X-00768D01*
X-00739Y01199D02*
X-00734Y01195D01*
X-00739Y01191D02*
X-00734Y01195D01*
X-00739Y01159D02*
Y01191D01*
Y01199D02*
Y01222D01*
X-0071Y01191D02*
X-00709Y0119D01*
X04326Y01209D02*
X04339Y01222D01*
X04355*
X04356Y01221D02*
X04412D01*
X04355Y01222D02*
X04356Y01221D01*
X04412D02*
X04413Y0122D01*
X-00739Y01159D02*
X-00739Y01159D01*
X-00739D02*
X-00739Y01159D01*
Y01222D02*
X-00739Y01222D01*
X-00739D02*
X-00739Y01222D01*
X-00709Y01316D02*
X-00671D01*
X-00768Y01427D02*
Y01442D01*
Y01411D02*
Y01427D01*
X04403Y01285D02*
X04403Y01285D01*
X04355Y01285D02*
X04403D01*
X04376Y01364D02*
X04381Y01358D01*
X04355Y01364D02*
X04376D01*
X04355Y01395D02*
X04385D01*
X04326Y01326D02*
Y01348D01*
X-0071Y01316D02*
X-00709Y01316D01*
X-00739Y01285D02*
Y01303D01*
X-00798Y01396D02*
X-00797Y01395D01*
X-00768*
G54D19*
X-00768Y01379D02*
X-00741D01*
X-0077D02*
X-00768D01*
X-00709Y01411D02*
X-00682D01*
X04326Y01379D02*
X0441D01*
X04297Y01159D02*
X04325D01*
X04326D02*
X04355D01*
X04326D02*
Y01167D01*
X04328Y01411D02*
X04355D01*
X04327Y01409D02*
X04328Y01411D01*
X04325Y01409D02*
X04327D01*
X-00598Y0116D02*
X-00505D01*
X-00599Y01161D02*
X-00598D01*
X-00739Y01159D02*
X-00601D01*
X-00599Y01161*
X-00768Y01348D02*
X-00746D01*
X-00738Y01364D02*
X-00738Y01364D01*
X-00709*
X-00686*
X04275D02*
X04297D01*
X04273Y01411D02*
X04297D01*
X-00727Y01269D02*
X-00709D01*
X-00811Y01158D02*
X-00768D01*
X-00768Y01159D02*
X-00739D01*
X-00731Y01273D02*
X-00727Y01269D01*
X04297Y01364D02*
X04326D01*
X04297Y0119D02*
X04326D01*
X-00768Y01285D02*
X-00739D01*
X-00746Y01348D02*
X-0074Y01354D01*
X-00734Y01195D02*
X-0073Y01191D01*
X-0071*
X04297Y01411D02*
X04318D01*
X-00739Y01222D02*
X-00709D01*
X-00768D02*
X-00739D01*
X-00738Y01411D02*
X-00709D01*
X-00768D02*
X-00738D01*
X0433Y01285D02*
X04355D01*
X04326Y01348D02*
X04355D01*
X04316Y01316D02*
X04326Y01326D01*
X04297Y01316D02*
X04316D01*
X-00739Y01303D02*
X-00726Y01316D01*
X-0071*
G54D20*
X04279Y01263D02*
X04311D01*
G54D21*
X-00713Y01257D02*
X-00641D01*
G54D22*
X-00716Y01815D03*
X-0074Y01791D03*
X-00763Y01767D03*
X-00787Y01744D03*
X-00811Y0172D03*
X-00822Y01637D03*
X-00799Y01661D03*
X-00728Y01732D03*
X-00681Y01779D03*
X-00704Y01755D03*
X-00657Y01803D03*
X-00752Y01708D03*
X-00775Y01685D03*
X04019Y0143D03*
X-00738Y01385D03*
Y01411D03*
X-00681Y0141D03*
X04153Y01413D03*
X04418Y01376D03*
X04326Y01303D03*
Y01281D03*
Y01337D03*
X-00728Y01708D03*
X04326Y01379D03*
X04325Y01409D03*
X-00818Y01222D03*
X04452Y0133D03*
Y01307D03*
Y01283D03*
Y01259D03*
Y01236D03*
Y01212D03*
Y01189D03*
X-00818Y0119D03*
X04405Y01141D03*
X04429D03*
X04433Y01468D03*
X04421Y01425D03*
X04397D03*
X04433Y01444D03*
X04405Y01311D03*
X04429Y01315D03*
Y01291D03*
Y01244D03*
X04409Y01255D03*
X04429Y01267D03*
X04433Y012D03*
X04429Y01165D03*
X04452D03*
Y01141D03*
X-00633Y01803D03*
X-00657Y01779D03*
X-00681Y01755D03*
X-00775Y01661D03*
X-00752Y01685D03*
X-00704Y01732D03*
X-00799Y01637D03*
X-00822Y01614D03*
X-00799D03*
Y0159D03*
X-00822D03*
X-00799Y01566D03*
X-00822D03*
X-00799Y01543D03*
X-00822D03*
X-00799Y01417D03*
X-00822D03*
Y0144D03*
X-00818Y01315D03*
X-00842Y01326D03*
Y01303D03*
Y01279D03*
Y01255D03*
Y01232D03*
Y01208D03*
Y01185D03*
Y01161D03*
X-00818Y01255D03*
Y01161D03*
X-00598D03*
X-00574D03*
X-00551D03*
X-00527D03*
X-00503Y01185D03*
Y01161D03*
X-0048D03*
X-00574Y01185D03*
X-00551Y01208D03*
Y01185D03*
X-0048Y01279D03*
Y01255D03*
X-00503D03*
X-00527Y01232D03*
Y01208D03*
X-00503D03*
X-0048Y01185D03*
X-00503Y01232D03*
X-0048D03*
Y01208D03*
X-00527Y01185D03*
X04376Y01139D03*
X-00798Y01332D03*
X04385Y01333D03*
X03982Y01453D03*
X-00738Y01364D03*
X-00798Y01205D03*
Y01238D03*
X-00799Y01175D03*
X04326Y01167D03*
X04385Y01173D03*
Y01206D03*
X04409Y0119D03*
X04413Y0122D03*
X04248Y01492D03*
X04381Y01464D03*
Y01484D03*
X04401D03*
Y01464D03*
X04421Y01346D03*
X04027Y01409D03*
X-00771Y01511D03*
X-00795Y01464D03*
Y01488D03*
Y01511D03*
X04385Y01238D03*
X04326Y01231D03*
X04385Y01269D03*
Y01301D03*
X04403Y01285D03*
X04082Y01448D03*
X-00738Y01329D03*
X-00739Y01285D03*
X-00818Y01285D03*
X-00739Y01253D03*
X-00798Y01269D03*
Y013D03*
Y01395D03*
M02*