%FSTAX23Y23*%
%MOIN*%
%SFA1B1*%

%IPPOS*%
%ADD10C,0.003900*%
%ADD11C,0.007900*%
%ADD12C,0.005900*%
%LNleft_flex-1*%
%LPD*%
G54D10*
X04267Y01474D02*
D01*
X04267Y01474*
X04267Y01474*
X04267Y01473*
X04267Y01473*
X04267Y01473*
X04267Y01473*
X04267Y01473*
X04267Y01473*
X04267Y01473*
X04267Y01473*
X04267Y01472*
X04267Y01472*
X04268Y01472*
X04268Y01472*
X04268Y01472*
X04268Y01472*
X04268Y01472*
X04268Y01472*
X04268Y01472*
X04268Y01472*
X04269Y01472*
X04269Y01472*
X04269*
X04269Y01472*
X04269Y01472*
X04269Y01472*
X04269Y01472*
X0427Y01472*
X0427Y01472*
X0427Y01472*
X0427Y01472*
X0427Y01472*
X0427Y01472*
X0427Y01472*
X0427Y01473*
X0427Y01473*
X0427Y01473*
X04271Y01473*
X04271Y01473*
X04271Y01473*
X04271Y01473*
X04271Y01473*
X04271Y01474*
X04271Y01474*
X04271Y01474*
D01*
X04271Y01474*
X04271Y01474*
X04271Y01474*
X04271Y01474*
X04271Y01474*
X04271Y01475*
X0427Y01475*
X0427Y01475*
X0427Y01475*
X0427Y01475*
X0427Y01475*
X0427Y01475*
X0427Y01475*
X0427Y01475*
X0427Y01476*
X0427Y01476*
X04269Y01476*
X04269Y01476*
X04269Y01476*
X04269Y01476*
X04269Y01476*
X04269Y01476*
X04269*
X04268Y01476*
X04268Y01476*
X04268Y01476*
X04268Y01476*
X04268Y01476*
X04268Y01476*
X04268Y01476*
X04268Y01475*
X04267Y01475*
X04267Y01475*
X04267Y01475*
X04267Y01475*
X04267Y01475*
X04267Y01475*
X04267Y01475*
X04267Y01475*
X04267Y01474*
X04267Y01474*
X04267Y01474*
X04267Y01474*
X04267Y01474*
X04267Y01474*
X-00794D02*
D01*
X-00794Y01474*
X-00794Y01474*
X-00794Y01474*
X-00794Y01474*
X-00794Y01474*
X-00794Y01475*
X-00794Y01475*
X-00794Y01475*
X-00794Y01475*
X-00794Y01475*
X-00794Y01475*
X-00794Y01475*
X-00794Y01475*
X-00794Y01475*
X-00795Y01476*
X-00795Y01476*
X-00795Y01476*
X-00795Y01476*
X-00795Y01476*
X-00795Y01476*
X-00795Y01476*
X-00796Y01476*
X-00796*
X-00796Y01476*
X-00796Y01476*
X-00796Y01476*
X-00796Y01476*
X-00796Y01476*
X-00796Y01476*
X-00797Y01476*
X-00797Y01475*
X-00797Y01475*
X-00797Y01475*
X-00797Y01475*
X-00797Y01475*
X-00797Y01475*
X-00797Y01475*
X-00797Y01475*
X-00797Y01475*
X-00797Y01474*
X-00798Y01474*
X-00798Y01474*
X-00798Y01474*
X-00798Y01474*
X-00798Y01474*
D01*
X-00797Y01474*
X-00797Y01474*
X-00797Y01473*
X-00797Y01473*
X-00797Y01473*
X-00797Y01473*
X-00797Y01473*
X-00797Y01473*
X-00797Y01473*
X-00797Y01473*
X-00797Y01472*
X-00797Y01472*
X-00797Y01472*
X-00797Y01472*
X-00797Y01472*
X-00796Y01472*
X-00796Y01472*
X-00796Y01472*
X-00796Y01472*
X-00796Y01472*
X-00796Y01472*
X-00796Y01472*
X-00795*
X-00795Y01472*
X-00795Y01472*
X-00795Y01472*
X-00795Y01472*
X-00795Y01472*
X-00795Y01472*
X-00795Y01472*
X-00794Y01472*
X-00794Y01472*
X-00794Y01472*
X-00794Y01472*
X-00794Y01473*
X-00794Y01473*
X-00794Y01473*
X-00794Y01473*
X-00794Y01473*
X-00794Y01473*
X-00794Y01473*
X-00794Y01473*
X-00794Y01474*
X-00794Y01474*
X-00794Y01474*
G54D11*
X0431Y01509D02*
X04342D01*
X0431Y01139D02*
X04342D01*
X-00754D02*
X-00723D01*
X-00754Y01509D02*
X-00723D01*
G54D12*
X04419Y01407D02*
X04392D01*
Y01391*
X04419Y01388D02*
X04392D01*
X04419D02*
Y01371D01*
X04406Y01388D02*
Y01377D01*
X04419Y01358D02*
X04392D01*
X04419Y01368D02*
Y01349D01*
X04383Y01346D02*
Y01325D01*
X04419Y01321D02*
X04392D01*
X04419D02*
Y0131D01*
X04418Y01306*
X04417Y01304*
X04414Y01303*
X04412*
X04409Y01304*
X04408Y01306*
X04406Y0131*
Y01321D02*
Y0131D01*
X04405Y01306*
X04404Y01304*
X04401Y01303*
X04397*
X04395Y01304*
X04393Y01306*
X04392Y0131*
Y01321*
X04419Y01297D02*
X04392D01*
X04419D02*
Y01285D01*
X04418Y01281*
X04417Y0128*
X04414Y01278*
X04412*
X04409Y0128*
X04408Y01281*
X04406Y01285*
Y01297*
Y01288D02*
X04392Y01278D01*
X04419Y01272D02*
X04392D01*
X04419D02*
Y01263D01*
X04418Y01259*
X04416Y01257*
X04413Y01255*
X04409Y01254*
X04402*
X04399Y01255*
X04396Y01257*
X04393Y01259*
X04392Y01263*
Y01272*
X-00639Y01405D02*
X-00666D01*
X-00639D02*
X-00666Y01394D01*
X-00639Y01384D02*
X-00666Y01394D01*
X-00639Y01384D02*
X-00666D01*
Y01355D02*
X-00639Y01365D01*
X-00666Y01376*
X-00657Y01372D02*
Y01359D01*
X-00639Y01348D02*
X-00666D01*
X-00639Y01342D02*
X-00666D01*
X-00639D02*
X-00666Y01324D01*
X-00639D02*
X-00666D01*
X-00675Y01316D02*
Y01295D01*
X-00639Y01292D02*
X-00666D01*
X-00639D02*
Y0128D01*
X-0064Y01276*
X-00641Y01275*
X-00644Y01274*
X-00647*
X-00649Y01275*
X-0065Y01276*
X-00652Y0128*
Y01292D02*
Y0128D01*
X-00653Y01276*
X-00654Y01275*
X-00657Y01274*
X-00661*
X-00664Y01275*
X-00665Y01276*
X-00666Y0128*
Y01292*
X-00639Y01267D02*
X-00666D01*
X-00639D02*
Y01256D01*
X-0064Y01252*
X-00641Y0125*
X-00644Y01249*
X-00647*
X-00649Y0125*
X-0065Y01252*
X-00652Y01256*
Y01267*
Y01258D02*
X-00666Y01249D01*
X-00639Y01243D02*
X-00666D01*
X-00639D02*
Y01234D01*
X-0064Y0123*
X-00643Y01227*
X-00645Y01226*
X-00649Y01225*
X-00656*
X-0066Y01226*
X-00662Y01227*
X-00665Y0123*
X-00666Y01234*
Y01243*
M02*