%FSTAX23Y23*%
%MOIN*%
%SFA1B1*%

%IPPOS*%
%ADD9500C,0.005900*%
%LNleft_flex-1*%
%LPD*%
G54D9500*
X03982Y01453D03*
X04019Y0143D03*
X04027Y01409D03*
X04082Y01448D03*
X04153Y01413D03*
X04248Y01492D03*
X04381Y01484D03*
X04401D03*
Y01464D03*
X04381D03*
X04397Y01425D03*
X04421D03*
X04433Y01444D03*
Y01468D03*
X04418Y01376D03*
X04421Y01346D03*
X04429Y01315D03*
Y01291D03*
Y01267D03*
Y01244D03*
X04452Y01236D03*
Y01259D03*
Y01283D03*
Y01307D03*
Y0133D03*
X04405Y01311D03*
X04403Y01285D03*
X04385Y01301D03*
Y01269D03*
Y01238D03*
Y01206D03*
Y01173D03*
X04409Y0119D03*
X04413Y0122D03*
X04409Y01255D03*
X04433Y012D03*
X04452Y01212D03*
Y01189D03*
Y01165D03*
X04429D03*
Y01141D03*
X04452D03*
X04405D03*
X04376Y01139D03*
X04326Y01167D03*
Y01231D03*
Y01281D03*
Y01303D03*
Y01337D03*
Y01379D03*
X04325Y01409D03*
X04385Y01333D03*
X-0048Y01279D03*
Y01255D03*
X-00503D03*
Y01232D03*
X-0048D03*
Y01208D03*
X-00503D03*
Y01185D03*
X-0048D03*
Y01161D03*
X-00503D03*
X-00527D03*
X-00551D03*
X-00574D03*
X-00598D03*
X-00574Y01185D03*
X-00551D03*
Y01208D03*
X-00527D03*
Y01185D03*
Y01232D03*
X-00739Y01253D03*
Y01285D03*
X-00738Y01329D03*
X-00738Y01364D03*
Y01385D03*
Y01411D03*
X-00681Y0141D03*
X-00799Y01417D03*
X-00798Y01395D03*
X-00822Y01417D03*
Y0144D03*
X-00795Y01464D03*
Y01488D03*
Y01511D03*
X-00771D03*
X-00799Y01543D03*
Y01566D03*
X-00822D03*
Y01543D03*
Y0159D03*
Y01614D03*
X-00799D03*
Y0159D03*
Y01637D03*
X-00822D03*
X-00799Y01661D03*
X-00775D03*
Y01685D03*
X-00752D03*
Y01708D03*
X-00728D03*
Y01732D03*
X-00704D03*
Y01755D03*
X-00681D03*
Y01779D03*
X-00657D03*
Y01803D03*
X-00633D03*
X-00716Y01815D03*
X-0074Y01791D03*
X-00763Y01767D03*
X-00787Y01744D03*
X-00811Y0172D03*
X-00798Y01332D03*
Y013D03*
Y01269D03*
Y01238D03*
Y01205D03*
X-00799Y01175D03*
X-00818Y01161D03*
X-00842D03*
Y01185D03*
Y01208D03*
Y01232D03*
Y01255D03*
Y01279D03*
Y01303D03*
Y01326D03*
X-00818Y01315D03*
Y01285D03*
Y01255D03*
Y01222D03*
Y0119D03*
M02*