%FSTAX23Y23*%
%MOIN*%
%SFA1B1*%

%IPPOS*%
%ADD10C,0.009800*%
%ADD11C,0.003900*%
%ADD12C,0.007900*%
%ADD13C,0.005900*%
%ADD14C,0.015700*%
%ADD15C,0.005100*%
%ADD16C,0.006000*%
%LNright_board-1*%
%LPD*%
G54D10*
X02945Y01379D02*
D01*
X02945Y01379*
X02945Y0138*
X02945Y0138*
X02945Y0138*
X02945Y01381*
X02945Y01381*
X02945Y01381*
X02944Y01381*
X02944Y01382*
X02944Y01382*
X02944Y01382*
X02943Y01383*
X02943Y01383*
X02943Y01383*
X02943Y01383*
X02942Y01383*
X02942Y01383*
X02942Y01384*
X02941Y01384*
X02941Y01384*
X02941Y01384*
X0294Y01384*
X0294*
X0294Y01384*
X02939Y01384*
X02939Y01384*
X02939Y01384*
X02938Y01383*
X02938Y01383*
X02938Y01383*
X02937Y01383*
X02937Y01383*
X02937Y01383*
X02937Y01382*
X02936Y01382*
X02936Y01382*
X02936Y01381*
X02936Y01381*
X02936Y01381*
X02936Y01381*
X02935Y0138*
X02935Y0138*
X02935Y0138*
X02935Y01379*
X02935Y01379*
X02935Y01379*
X02935Y01378*
X02935Y01378*
X02935Y01378*
X02936Y01377*
X02936Y01377*
X02936Y01377*
X02936Y01376*
X02936Y01376*
X02936Y01376*
X02937Y01375*
X02937Y01375*
X02937Y01375*
X02937Y01375*
X02938Y01375*
X02938Y01374*
X02938Y01374*
X02939Y01374*
X02939Y01374*
X02939Y01374*
X0294Y01374*
X0294Y01374*
X0294*
X02941Y01374*
X02941Y01374*
X02941Y01374*
X02942Y01374*
X02942Y01374*
X02942Y01374*
X02943Y01375*
X02943Y01375*
X02943Y01375*
X02943Y01375*
X02944Y01375*
X02944Y01376*
X02944Y01376*
X02944Y01376*
X02945Y01377*
X02945Y01377*
X02945Y01377*
X02945Y01378*
X02945Y01378*
X02945Y01378*
X02945Y01379*
X02945Y01379*
X02947Y02722D02*
D01*
X02947Y02722*
X02947Y02723*
X02947Y02723*
X02947Y02723*
X02947Y02724*
X02947Y02724*
X02947Y02724*
X02947Y02724*
X02946Y02725*
X02946Y02725*
X02946Y02725*
X02946Y02726*
X02945Y02726*
X02945Y02726*
X02945Y02726*
X02945Y02726*
X02944Y02726*
X02944Y02727*
X02944Y02727*
X02943Y02727*
X02943Y02727*
X02943Y02727*
X02942*
X02942Y02727*
X02942Y02727*
X02941Y02727*
X02941Y02727*
X02941Y02726*
X0294Y02726*
X0294Y02726*
X0294Y02726*
X02939Y02726*
X02939Y02726*
X02939Y02725*
X02939Y02725*
X02938Y02725*
X02938Y02724*
X02938Y02724*
X02938Y02724*
X02938Y02724*
X02938Y02723*
X02938Y02723*
X02938Y02723*
X02938Y02722*
X02938Y02722*
X02938Y02722*
X02938Y02721*
X02938Y02721*
X02938Y02721*
X02938Y0272*
X02938Y0272*
X02938Y0272*
X02938Y02719*
X02938Y02719*
X02939Y02719*
X02939Y02718*
X02939Y02718*
X02939Y02718*
X0294Y02718*
X0294Y02718*
X0294Y02717*
X02941Y02717*
X02941Y02717*
X02941Y02717*
X02942Y02717*
X02942Y02717*
X02942Y02717*
X02943*
X02943Y02717*
X02943Y02717*
X02944Y02717*
X02944Y02717*
X02944Y02717*
X02945Y02717*
X02945Y02718*
X02945Y02718*
X02945Y02718*
X02946Y02718*
X02946Y02718*
X02946Y02719*
X02946Y02719*
X02947Y02719*
X02947Y0272*
X02947Y0272*
X02947Y0272*
X02947Y02721*
X02947Y02721*
X02947Y02721*
X02947Y02722*
X02947Y02722*
X02925Y02187D02*
D01*
X02925Y02187*
X02925Y02187*
X02925Y02188*
X02925Y02188*
X02924Y02188*
X02924Y02188*
X02924Y02189*
X02924Y02189*
X02924Y02189*
X02924Y0219*
X02923Y0219*
X02923Y0219*
X02923Y0219*
X02923Y02191*
X02922Y02191*
X02922Y02191*
X02922Y02191*
X02921Y02191*
X02921Y02191*
X02921Y02191*
X0292Y02191*
X0292Y02191*
X0292*
X02919Y02191*
X02919Y02191*
X02919Y02191*
X02918Y02191*
X02918Y02191*
X02918Y02191*
X02917Y02191*
X02917Y02191*
X02917Y0219*
X02917Y0219*
X02916Y0219*
X02916Y0219*
X02916Y02189*
X02916Y02189*
X02915Y02189*
X02915Y02188*
X02915Y02188*
X02915Y02188*
X02915Y02188*
X02915Y02187*
X02915Y02187*
X02915Y02187*
X02915Y02186*
X02915Y02186*
X02915Y02185*
X02915Y02185*
X02915Y02185*
X02915Y02185*
X02915Y02184*
X02916Y02184*
X02916Y02184*
X02916Y02183*
X02916Y02183*
X02917Y02183*
X02917Y02183*
X02917Y02182*
X02917Y02182*
X02918Y02182*
X02918Y02182*
X02918Y02182*
X02919Y02182*
X02919Y02182*
X02919Y02182*
X0292Y02182*
X0292*
X0292Y02182*
X02921Y02182*
X02921Y02182*
X02921Y02182*
X02922Y02182*
X02922Y02182*
X02922Y02182*
X02923Y02182*
X02923Y02183*
X02923Y02183*
X02923Y02183*
X02924Y02183*
X02924Y02184*
X02924Y02184*
X02924Y02184*
X02924Y02185*
X02924Y02185*
X02925Y02185*
X02925Y02185*
X02925Y02186*
X02925Y02186*
X02925Y02187*
X02988Y02112D02*
D01*
X02988Y02112*
X02988Y02113*
X02987Y02113*
X02987Y02113*
X02987Y02114*
X02987Y02114*
X02987Y02114*
X02987Y02115*
X02987Y02115*
X02986Y02115*
X02986Y02115*
X02986Y02116*
X02986Y02116*
X02985Y02116*
X02985Y02116*
X02985Y02116*
X02985Y02117*
X02984Y02117*
X02984Y02117*
X02984Y02117*
X02983Y02117*
X02983Y02117*
X02983*
X02982Y02117*
X02982Y02117*
X02982Y02117*
X02981Y02117*
X02981Y02117*
X02981Y02116*
X0298Y02116*
X0298Y02116*
X0298Y02116*
X02979Y02116*
X02979Y02115*
X02979Y02115*
X02979Y02115*
X02979Y02115*
X02978Y02114*
X02978Y02114*
X02978Y02114*
X02978Y02113*
X02978Y02113*
X02978Y02113*
X02978Y02112*
X02978Y02112*
X02978Y02112*
X02978Y02111*
X02978Y02111*
X02978Y02111*
X02978Y0211*
X02978Y0211*
X02978Y0211*
X02979Y02109*
X02979Y02109*
X02979Y02109*
X02979Y02109*
X02979Y02108*
X0298Y02108*
X0298Y02108*
X0298Y02108*
X02981Y02108*
X02981Y02107*
X02981Y02107*
X02982Y02107*
X02982Y02107*
X02982Y02107*
X02983Y02107*
X02983*
X02983Y02107*
X02984Y02107*
X02984Y02107*
X02984Y02107*
X02985Y02107*
X02985Y02108*
X02985Y02108*
X02985Y02108*
X02986Y02108*
X02986Y02108*
X02986Y02109*
X02986Y02109*
X02987Y02109*
X02987Y02109*
X02987Y0211*
X02987Y0211*
X02987Y0211*
X02987Y02111*
X02987Y02111*
X02988Y02111*
X02988Y02112*
X02988Y02112*
X02774Y04037D02*
D01*
X02774Y04037*
X02774Y04037*
X02774Y04038*
X02774Y04038*
X02774Y04038*
X02773Y04039*
X02773Y04039*
X02773Y04039*
X02773Y0404*
X02773Y0404*
X02773Y0404*
X02772Y0404*
X02772Y04041*
X02772Y04041*
X02771Y04041*
X02771Y04041*
X02771Y04041*
X02771Y04041*
X0277Y04042*
X0277Y04042*
X0277Y04042*
X02769Y04042*
X02769*
X02768Y04042*
X02768Y04042*
X02768Y04042*
X02767Y04041*
X02767Y04041*
X02767Y04041*
X02767Y04041*
X02766Y04041*
X02766Y04041*
X02766Y0404*
X02765Y0404*
X02765Y0404*
X02765Y0404*
X02765Y04039*
X02765Y04039*
X02765Y04039*
X02764Y04038*
X02764Y04038*
X02764Y04038*
X02764Y04037*
X02764Y04037*
X02764Y04037*
X02764Y04036*
X02764Y04036*
X02764Y04036*
X02764Y04035*
X02764Y04035*
X02765Y04035*
X02765Y04034*
X02765Y04034*
X02765Y04034*
X02765Y04034*
X02765Y04033*
X02766Y04033*
X02766Y04033*
X02766Y04033*
X02767Y04033*
X02767Y04032*
X02767Y04032*
X02767Y04032*
X02768Y04032*
X02768Y04032*
X02768Y04032*
X02769Y04032*
X02769*
X0277Y04032*
X0277Y04032*
X0277Y04032*
X02771Y04032*
X02771Y04032*
X02771Y04032*
X02771Y04033*
X02772Y04033*
X02772Y04033*
X02772Y04033*
X02773Y04033*
X02773Y04034*
X02773Y04034*
X02773Y04034*
X02773Y04034*
X02773Y04035*
X02774Y04035*
X02774Y04035*
X02774Y04036*
X02774Y04036*
X02774Y04036*
X02774Y04037*
X03419Y02824D02*
D01*
X03419Y02825*
X03419Y02825*
X03419Y02825*
X03419Y02826*
X03419Y02826*
X03418Y02826*
X03418Y02827*
X03418Y02827*
X03418Y02827*
X03418Y02827*
X03417Y02828*
X03417Y02828*
X03417Y02828*
X03417Y02828*
X03416Y02829*
X03416Y02829*
X03416Y02829*
X03415Y02829*
X03415Y02829*
X03415Y02829*
X03414Y02829*
X03414Y02829*
X03414*
X03413Y02829*
X03413Y02829*
X03413Y02829*
X03412Y02829*
X03412Y02829*
X03412Y02829*
X03411Y02829*
X03411Y02828*
X03411Y02828*
X03411Y02828*
X0341Y02828*
X0341Y02827*
X0341Y02827*
X0341Y02827*
X0341Y02827*
X03409Y02826*
X03409Y02826*
X03409Y02826*
X03409Y02825*
X03409Y02825*
X03409Y02825*
X03409Y02824*
X03409Y02824*
X03409Y02824*
X03409Y02823*
X03409Y02823*
X03409Y02823*
X03409Y02822*
X0341Y02822*
X0341Y02822*
X0341Y02821*
X0341Y02821*
X0341Y02821*
X03411Y02821*
X03411Y0282*
X03411Y0282*
X03411Y0282*
X03412Y0282*
X03412Y0282*
X03412Y0282*
X03413Y0282*
X03413Y02819*
X03413Y02819*
X03414Y02819*
X03414*
X03414Y02819*
X03415Y02819*
X03415Y0282*
X03415Y0282*
X03416Y0282*
X03416Y0282*
X03416Y0282*
X03417Y0282*
X03417Y0282*
X03417Y02821*
X03417Y02821*
X03418Y02821*
X03418Y02821*
X03418Y02822*
X03418Y02822*
X03418Y02822*
X03419Y02823*
X03419Y02823*
X03419Y02823*
X03419Y02824*
X03419Y02824*
X03419Y02824*
X03677Y02954D02*
D01*
X03677Y02954*
X03677Y02955*
X03677Y02955*
X03677Y02955*
X03677Y02956*
X03677Y02956*
X03677Y02956*
X03676Y02957*
X03676Y02957*
X03676Y02957*
X03676Y02957*
X03676Y02958*
X03675Y02958*
X03675Y02958*
X03675Y02958*
X03674Y02958*
X03674Y02959*
X03674Y02959*
X03673Y02959*
X03673Y02959*
X03673Y02959*
X03672Y02959*
X03672*
X03672Y02959*
X03671Y02959*
X03671Y02959*
X03671Y02959*
X0367Y02959*
X0367Y02958*
X0367Y02958*
X0367Y02958*
X03669Y02958*
X03669Y02958*
X03669Y02957*
X03669Y02957*
X03668Y02957*
X03668Y02957*
X03668Y02956*
X03668Y02956*
X03668Y02956*
X03668Y02955*
X03668Y02955*
X03667Y02955*
X03667Y02954*
X03667Y02954*
X03667Y02954*
X03667Y02953*
X03668Y02953*
X03668Y02953*
X03668Y02952*
X03668Y02952*
X03668Y02952*
X03668Y02951*
X03668Y02951*
X03669Y02951*
X03669Y02951*
X03669Y0295*
X03669Y0295*
X0367Y0295*
X0367Y0295*
X0367Y0295*
X0367Y02949*
X03671Y02949*
X03671Y02949*
X03671Y02949*
X03672Y02949*
X03672Y02949*
X03672*
X03673Y02949*
X03673Y02949*
X03673Y02949*
X03674Y02949*
X03674Y02949*
X03674Y0295*
X03675Y0295*
X03675Y0295*
X03675Y0295*
X03676Y0295*
X03676Y02951*
X03676Y02951*
X03676Y02951*
X03676Y02951*
X03677Y02952*
X03677Y02952*
X03677Y02952*
X03677Y02953*
X03677Y02953*
X03677Y02953*
X03677Y02954*
X03677Y02954*
G54D11*
X02871Y02942D02*
D01*
X0287Y02942*
X0287Y02942*
X0287Y02942*
X0287Y02942*
X0287Y02942*
X0287Y02942*
X0287Y02942*
X0287Y02942*
X02869Y02942*
X02869Y02941*
X02869Y02941*
X02869Y02941*
X02869Y02941*
X02869Y02941*
X02869Y02941*
X02869Y02941*
X02869Y02941*
X02869Y02941*
X02869Y0294*
X02869Y0294*
X02869Y0294*
X02869Y0294*
Y0294*
X02869Y0294*
X02869Y0294*
X02869Y02939*
X02869Y02939*
X02869Y02939*
X02869Y02939*
X02869Y02939*
X02869Y02939*
X02869Y02939*
X02869Y02939*
X02869Y02938*
X02869Y02938*
X02869Y02938*
X0287Y02938*
X0287Y02938*
X0287Y02938*
X0287Y02938*
X0287Y02938*
X0287Y02938*
X0287Y02938*
X0287Y02938*
X02871Y02938*
D01*
X02871Y02938*
X02871Y02938*
X02871Y02938*
X02871Y02938*
X02871Y02938*
X02871Y02938*
X02872Y02938*
X02872Y02938*
X02872Y02938*
X02872Y02938*
X02872Y02939*
X02872Y02939*
X02872Y02939*
X02872Y02939*
X02872Y02939*
X02872Y02939*
X02872Y02939*
X02873Y02939*
X02873Y0294*
X02873Y0294*
X02873Y0294*
X02873Y0294*
Y0294*
X02873Y0294*
X02873Y0294*
X02873Y0294*
X02873Y02941*
X02872Y02941*
X02872Y02941*
X02872Y02941*
X02872Y02941*
X02872Y02941*
X02872Y02941*
X02872Y02941*
X02872Y02942*
X02872Y02942*
X02872Y02942*
X02872Y02942*
X02871Y02942*
X02871Y02942*
X02871Y02942*
X02871Y02942*
X02871Y02942*
X02871Y02942*
X02871Y02942*
X03318Y02333D02*
D01*
X03318Y02333*
X03318Y02333*
X03318Y02333*
X03317Y02333*
X03317Y02332*
X03317Y02332*
X03317Y02332*
X03317Y02332*
X03317Y02332*
X03317Y02332*
X03317Y02332*
X03317Y02332*
X03316Y02332*
X03316Y02332*
X03316Y02332*
X03316Y02331*
X03316Y02331*
X03316Y02331*
X03316Y02331*
X03316Y02331*
X03316Y02331*
X03316Y02331*
Y02331*
X03316Y0233*
X03316Y0233*
X03316Y0233*
X03316Y0233*
X03316Y0233*
X03316Y0233*
X03316Y0233*
X03316Y02329*
X03316Y02329*
X03317Y02329*
X03317Y02329*
X03317Y02329*
X03317Y02329*
X03317Y02329*
X03317Y02329*
X03317Y02329*
X03317Y02329*
X03317Y02329*
X03318Y02329*
X03318Y02329*
X03318Y02329*
X03318Y02329*
D01*
X03318Y02329*
X03318Y02329*
X03318Y02329*
X03319Y02329*
X03319Y02329*
X03319Y02329*
X03319Y02329*
X03319Y02329*
X03319Y02329*
X03319Y02329*
X03319Y02329*
X03319Y02329*
X0332Y02329*
X0332Y0233*
X0332Y0233*
X0332Y0233*
X0332Y0233*
X0332Y0233*
X0332Y0233*
X0332Y0233*
X0332Y0233*
X0332Y02331*
Y02331*
X0332Y02331*
X0332Y02331*
X0332Y02331*
X0332Y02331*
X0332Y02331*
X0332Y02332*
X0332Y02332*
X0332Y02332*
X0332Y02332*
X03319Y02332*
X03319Y02332*
X03319Y02332*
X03319Y02332*
X03319Y02332*
X03319Y02332*
X03319Y02333*
X03319Y02333*
X03319Y02333*
X03318Y02333*
X03318Y02333*
X03318Y02333*
X03318Y02333*
X03781Y0249D02*
D01*
X03781Y0249*
X03781Y0249*
X03781Y0249*
X0378Y0249*
X0378Y0249*
X0378Y0249*
X0378Y02489*
X0378Y02489*
X0378Y02489*
X0378Y02489*
X0378Y02489*
X0378Y02489*
X03779Y02489*
X03779Y02489*
X03779Y02489*
X03779Y02489*
X03779Y02488*
X03779Y02488*
X03779Y02488*
X03779Y02488*
X03779Y02488*
X03779Y02488*
Y02488*
X03779Y02487*
X03779Y02487*
X03779Y02487*
X03779Y02487*
X03779Y02487*
X03779Y02487*
X03779Y02487*
X03779Y02487*
X03779Y02486*
X0378Y02486*
X0378Y02486*
X0378Y02486*
X0378Y02486*
X0378Y02486*
X0378Y02486*
X0378Y02486*
X0378Y02486*
X0378Y02486*
X03781Y02486*
X03781Y02486*
X03781Y02486*
X03781Y02486*
D01*
X03781Y02486*
X03781Y02486*
X03781Y02486*
X03782Y02486*
X03782Y02486*
X03782Y02486*
X03782Y02486*
X03782Y02486*
X03782Y02486*
X03782Y02486*
X03782Y02486*
X03782Y02486*
X03783Y02486*
X03783Y02487*
X03783Y02487*
X03783Y02487*
X03783Y02487*
X03783Y02487*
X03783Y02487*
X03783Y02487*
X03783Y02487*
X03783Y02488*
Y02488*
X03783Y02488*
X03783Y02488*
X03783Y02488*
X03783Y02488*
X03783Y02488*
X03783Y02489*
X03783Y02489*
X03783Y02489*
X03783Y02489*
X03782Y02489*
X03782Y02489*
X03782Y02489*
X03782Y02489*
X03782Y02489*
X03782Y02489*
X03782Y0249*
X03782Y0249*
X03782Y0249*
X03781Y0249*
X03781Y0249*
X03781Y0249*
X03781Y0249*
X03581Y04178D02*
D01*
X03581Y04178*
X0358Y04178*
X0358Y04178*
X0358Y04178*
X0358Y04178*
X0358Y04178*
X0358Y04177*
X0358Y04177*
X0358Y04177*
X0358Y04177*
X0358Y04177*
X0358Y04177*
X0358Y04177*
X03581Y04177*
X03581Y04176*
X03581Y04176*
X03581Y04176*
X03581Y04176*
X03581Y04176*
X03581Y04176*
X03581Y04176*
X03581Y04176*
X03581Y04176*
X03581Y04176*
X03582Y04176*
X03582Y04176*
X03582Y04175*
X03582Y04175*
X03582Y04175*
X03582Y04175*
X03582Y04175*
X03583Y04175*
X03583Y04175*
X03583Y04175*
X03583Y04176*
X03583Y04176*
X03583Y04176*
X03583Y04176*
X03583Y04176*
X03584Y04176*
X03584Y04176*
X03584Y04176*
X03584Y04176*
X03584Y04176*
X03584Y04176*
D01*
X03584Y04177*
X03584Y04177*
X03584Y04177*
X03584Y04177*
X03584Y04177*
X03584Y04177*
X03584Y04177*
X03584Y04177*
X03584Y04178*
X03584Y04178*
X03584Y04178*
X03584Y04178*
X03584Y04178*
X03584Y04178*
X03584Y04178*
X03584Y04178*
X03584Y04179*
X03584Y04179*
X03584Y04179*
X03584Y04179*
X03583Y04179*
X03583Y04179*
X03583Y04179*
X03583Y04179*
X03583Y04179*
X03583Y04179*
X03583Y04179*
X03583Y04179*
X03582Y04179*
X03582Y04179*
X03582Y04179*
X03582Y04179*
X03582Y04179*
X03582Y04179*
X03582Y04179*
X03582Y04179*
X03581Y04179*
X03581Y04179*
X03581Y04179*
X03581Y04179*
X03581Y04179*
X03581Y04179*
X03581Y04179*
X03581Y04179*
X03581Y04178*
X03312Y02683D02*
X03371D01*
Y0247D02*
Y02683D01*
X02674Y02378D02*
X02737D01*
X02666Y02683D02*
X02729D01*
X02509D02*
X02564D01*
X02509D02*
Y02627D01*
Y02478D02*
Y02541D01*
X02556Y01693D02*
X02576D01*
X0252Y02067D02*
Y02077D01*
X02556Y02106D02*
X02576D01*
X02611Y02067D02*
Y02077D01*
Y01723D02*
Y01732D01*
X0252Y01723D02*
Y01732D01*
G54D12*
X02816Y03696D02*
D01*
X02816Y03688*
X02817Y03679*
X02819Y03671*
X02821Y03662*
X02823Y03654*
X02827Y03646*
X02831Y03638*
X02835Y03631*
X0284Y03623*
X02845Y03617*
X02851Y0361*
X02857Y03604*
X02864Y03599*
X02871Y03593*
X02878Y03589*
X02886Y03585*
X02894Y03581*
X02902Y03578*
X0291Y03576*
X02918Y03574*
X02927Y03573*
X02936Y03572*
X02944*
X02953Y03573*
X02962Y03574*
X0297Y03576*
X02978Y03578*
X02986Y03581*
X02994Y03585*
X03002Y03589*
X03009Y03593*
X03016Y03599*
X03023Y03604*
X03029Y0361*
X03035Y03617*
X0304Y03623*
X03045Y03631*
X03049Y03638*
X03053Y03646*
X03057Y03654*
X03059Y03662*
X03061Y03671*
X03063Y03679*
X03064Y03688*
X03064Y03696*
D01*
X03064Y03705*
X03063Y03714*
X03061Y03722*
X03059Y0373*
X03057Y03739*
X03053Y03747*
X0305Y03755*
X03045Y03762*
X0304Y03769*
X03035Y03776*
X03029Y03782*
X03023Y03788*
X03016Y03794*
X03009Y03799*
X03002Y03804*
X02994Y03808*
X02987Y03811*
X02978Y03814*
X0297Y03817*
X02962Y03818*
X02953Y0382*
X02944Y0382*
X02936*
X02927Y0382*
X02919Y03818*
X0291Y03817*
X02902Y03814*
X02894Y03811*
X02886Y03808*
X02878Y03804*
X02871Y03799*
X02864Y03794*
X02857Y03788*
X02851Y03782*
X02845Y03776*
X0284Y03769*
X02835Y03762*
X02831Y03755*
X02827Y03747*
X02824Y03739*
X02821Y0373*
X02819Y03722*
X02817Y03714*
X02816Y03705*
X02816Y03696*
X02645Y02049D02*
D01*
X02644Y02049*
X02644Y0205*
X02644Y0205*
X02644Y0205*
X02644Y0205*
X02644Y0205*
X02644Y0205*
X02644Y0205*
X02644Y0205*
X02644Y02051*
X02644Y02051*
X02644Y02051*
X02644Y02051*
X02644Y02051*
X02644Y02051*
X02643Y02051*
X02643Y02051*
X02643Y02051*
X02643Y02051*
X02643Y02051*
X02643Y02051*
X02643Y02051*
X02642*
X02642Y02051*
X02642Y02051*
X02642Y02051*
X02642Y02051*
X02642Y02051*
X02642Y02051*
X02642Y02051*
X02641Y02051*
X02641Y02051*
X02641Y02051*
X02641Y02051*
X02641Y02051*
X02641Y0205*
X02641Y0205*
X02641Y0205*
X02641Y0205*
X02641Y0205*
X02641Y0205*
X02641Y0205*
X02641Y0205*
X02641Y02049*
X02641Y02049*
D01*
X02641Y02049*
X02641Y02049*
X02641Y02049*
X02641Y02049*
X02641Y02049*
X02641Y02048*
X02641Y02048*
X02641Y02048*
X02641Y02048*
X02641Y02048*
X02641Y02048*
X02641Y02048*
X02641Y02048*
X02641Y02048*
X02642Y02048*
X02642Y02048*
X02642Y02047*
X02642Y02047*
X02642Y02047*
X02642Y02047*
X02642Y02047*
X02642Y02047*
X02643*
X02643Y02047*
X02643Y02047*
X02643Y02047*
X02643Y02047*
X02643Y02047*
X02643Y02048*
X02644Y02048*
X02644Y02048*
X02644Y02048*
X02644Y02048*
X02644Y02048*
X02644Y02048*
X02644Y02048*
X02644Y02048*
X02644Y02048*
X02644Y02048*
X02644Y02049*
X02644Y02049*
X02644Y02049*
X02644Y02049*
X02644Y02049*
X02645Y02049*
D01*
X02644Y02049*
X02644Y0205*
X02644Y0205*
X02644Y0205*
X02644Y0205*
X02644Y0205*
X02644Y0205*
X02644Y0205*
X02644Y0205*
X02644Y02051*
X02644Y02051*
X02644Y02051*
X02644Y02051*
X02644Y02051*
X02644Y02051*
X02643Y02051*
X02643Y02051*
X02643Y02051*
X02643Y02051*
X02643Y02051*
X02643Y02051*
X02643Y02051*
X02642*
X02642Y02051*
X02642Y02051*
X02642Y02051*
X02642Y02051*
X02642Y02051*
X02642Y02051*
X02642Y02051*
X02641Y02051*
X02641Y02051*
X02641Y02051*
X02641Y02051*
X02641Y02051*
X02641Y0205*
X02641Y0205*
X02641Y0205*
X02641Y0205*
X02641Y0205*
X02641Y0205*
X02641Y0205*
X02641Y0205*
X02641Y02049*
X02641Y02049*
X02844Y0114D02*
X03139D01*
Y01172D01*
Y01277D02*
Y01325D01*
X03134D02*
X03139D01*
X02844Y01325D02*
X02849D01*
X02844Y01277D02*
Y01325D01*
Y0114D02*
Y01172D01*
X03036Y02758D02*
Y02806D01*
X03004Y0274D02*
Y02806D01*
X02712Y04015D02*
Y04063D01*
X02681D02*
Y03997D01*
X02867Y02864D02*
X02914D01*
X02848Y02895D02*
X02914D01*
X02901Y0274D02*
X02917D01*
X02901Y02748D02*
Y0274D01*
Y02803D02*
X02917D01*
X02901D02*
Y02795D01*
X02853Y04241D02*
X02875D01*
X02805Y04186D02*
Y04223D01*
X0289Y04186D02*
X02923D01*
X02805D02*
X02837D01*
X02923D02*
Y04223D01*
X02961Y02106D02*
Y02114D01*
X02945Y02106D02*
X02961D01*
Y02169D02*
Y02161D01*
X02945Y02169D02*
X02961D01*
X03056Y02153D02*
X03063D01*
Y02137D02*
Y02153D01*
X03D02*
X03008D01*
X03Y02137D02*
Y02153D01*
X02817Y01447D02*
X02831D01*
X02845Y01397D02*
Y01437D01*
Y01397D02*
X02849D01*
Y01437*
X02845D02*
X02849D01*
X03401Y02309D02*
Y02596D01*
X03572Y02309D02*
Y0262D01*
X02804Y04012D02*
Y03978D01*
Y04093D02*
Y04127D01*
X02842*
X0291Y04081D02*
Y04024D01*
X02804Y03978D02*
X02842D01*
X03717Y03077D02*
Y02976D01*
X0358Y03141D02*
X0368D01*
X03543Y02976D02*
Y03077D01*
Y02976D02*
X03717D01*
G54D13*
X03604Y01466D02*
Y01978D01*
X02817Y01466D02*
Y01978D01*
X03604*
X02817Y01466D02*
X03604D01*
X02982Y02806D02*
Y02822D01*
X02708Y02748D02*
X02724D01*
X02972Y02771D02*
X02988D01*
X02931Y02951D02*
X02946D01*
X02871Y02909D02*
Y02925D01*
X02944Y04244D02*
X0296D01*
X02773Y01216D02*
Y01232D01*
X03083Y02143D02*
X03099D01*
X0296Y02212D02*
X02976D01*
X03772Y02763D02*
X03788D01*
X03393Y03002D02*
X03416Y02979D01*
X03393Y03002D02*
Y03003D01*
Y03113*
X034*
X03529Y02897D02*
X03545D01*
X03487Y02787D02*
Y02803D01*
X03456Y03044D02*
X0348D01*
X03456Y03001D02*
X0348D01*
X02509Y02702D02*
Y03696D01*
X03374D02*
Y02701D01*
X02509Y03696D02*
X02816D01*
X03064D02*
X03374D01*
X03443Y02718D02*
X03467D01*
X03443Y02761D02*
X03467D01*
X03772Y0245D02*
X03788D01*
X03443Y02694D02*
X03467D01*
X03443Y02651D02*
X03467D01*
X02768Y02747D02*
X02784D01*
X02714Y02307D02*
X0273D01*
X02821Y02747D02*
X02837D01*
G54D14*
X03765Y02722D02*
X03797D01*
G54D15*
X03049Y02766D02*
Y02739D01*
Y02766D02*
X03058D01*
X03062Y02765*
X03065Y02762*
X03066Y0276*
X03067Y02756*
Y02749*
X03066Y02745*
X03065Y02743*
X03062Y0274*
X03058Y02739*
X03049*
X03076Y02766D02*
X03091D01*
X03083Y02756*
X03087*
X03089Y02754*
X03091Y02753*
X03092Y02749*
Y02747*
X03091Y02743*
X03088Y0274*
X03084Y02739*
X0308*
X03076Y0274*
X03075Y02741*
X03074Y02744*
G54D16*
X02772Y02934D02*
Y02906D01*
Y02934D02*
X02784D01*
X02788Y02932*
X02789Y02931*
X0279Y02928*
Y02926*
X02789Y02923*
X02788Y02922*
X02784Y0292*
X02772*
X02781D02*
X0279Y02906D01*
X02796Y02928D02*
X02799Y0293D01*
X02803Y02934*
Y02906*
X02832Y0293D02*
X02831Y02932D01*
X02827Y02934*
X02824*
X0282Y02932*
X02818Y02928*
X02817Y02922*
Y02915*
X02818Y0291*
X0282Y02907*
X02824Y02906*
X02826*
X0283Y02907*
X02832Y0291*
X02834Y02914*
Y02915*
X02832Y02919*
X0283Y02922*
X02826Y02923*
X02824*
X0282Y02922*
X02818Y02919*
X02817Y02915*
X02929Y03014D02*
Y02987D01*
Y03014D02*
X02941D01*
X02945Y03013*
X02946Y03012*
X02947Y03009*
Y03006*
X02946Y03004*
X02945Y03003*
X02941Y03001*
X02929*
X02938D02*
X02947Y02987D01*
X02953Y03009D02*
X02956Y0301D01*
X0296Y03014*
Y02987*
X02987Y03014D02*
X02974Y02996D01*
X02993*
X02987Y03014D02*
Y02987D01*
X0296Y02862D02*
Y02834D01*
Y02862D02*
X02972D01*
X02976Y0286*
X02977Y02859*
X02978Y02857*
Y02854*
X02977Y02851*
X02976Y0285*
X02972Y02849*
X0296*
X02969D02*
X02978Y02834D01*
X02985Y02857D02*
X02987Y02858D01*
X02991Y02862*
Y02834*
X03013Y02862D02*
X03009Y0286D01*
X03006Y02857*
X03005Y0285*
Y02846*
X03006Y02839*
X03009Y02836*
X03013Y02834*
X03015*
X03019Y02836*
X03022Y02839*
X03023Y02846*
Y0285*
X03022Y02857*
X03019Y0286*
X03015Y02862*
X03013*
X029Y02845D02*
X02897Y02844D01*
X02895Y02841*
X02893Y02839*
X02892Y02835*
Y02828*
X02893Y02824*
X02895Y02822*
X02897Y02819*
X029Y02818*
X02905*
X02908Y02819*
X0291Y02822*
X02912Y02824*
X02913Y02828*
Y02835*
X02912Y02839*
X0291Y02841*
X02908Y02844*
X02905Y02845*
X029*
X02904Y02823D02*
X02912Y02815D01*
X02922Y02845D02*
X02936D01*
X02929Y02835*
X02933*
X02935Y02834*
X02936Y02832*
X02938Y02828*
Y02826*
X02936Y02822*
X02934Y02819*
X0293Y02818*
X02926*
X02922Y02819*
X02921Y0282*
X02919Y02823*
X02811Y02998D02*
Y02978D01*
X02812Y02974*
X02815Y02971*
X02819Y0297*
X02822*
X02825Y02971*
X02828Y02974*
X02829Y02978*
Y02998*
X02838Y02991D02*
Y02992D01*
X0284Y02995*
X02841Y02996*
X02844Y02998*
X02849*
X02851Y02996*
X02853Y02995*
X02854Y02992*
Y0299*
X02853Y02987*
X0285Y02983*
X02837Y0297*
X02855*
X02794Y0289D02*
Y02863D01*
Y0289D02*
X02804D01*
X02807Y02889*
X0281Y02886*
X02811Y02884*
X02813Y0288*
Y02873*
X02811Y02869*
X0281Y02867*
X02807Y02864*
X02804Y02863*
X02794*
X02832Y0289D02*
X02819Y02872D01*
X02839*
X02832Y0289D02*
Y02863D01*
X02827Y03041D02*
X02825Y03044D01*
X02823Y03046*
X0282Y03048*
X02815*
X02812Y03046*
X0281Y03044*
X02808Y03041*
X02807Y03037*
Y03031*
X02808Y03027*
X0281Y03024*
X02812Y03022*
X02815Y0302*
X0282*
X02823Y03022*
X02825Y03024*
X02827Y03027*
X02836Y03041D02*
Y03043D01*
X02837Y03045*
X02838Y03046*
X02841Y03048*
X02846*
X02849Y03046*
X0285Y03045*
X02851Y03043*
Y0304*
X0285Y03037*
X02847Y03033*
X02834Y0302*
X02853*
X02859Y03043D02*
X02861Y03044D01*
X02865Y03048*
Y0302*
X03681Y02238D02*
Y0221D01*
X03672Y02238D02*
X0369D01*
X03694Y02223D02*
X03705D01*
X03709Y02225*
X03711Y02226*
X03712Y02229*
Y02232*
X03711Y02235*
X03709Y02236*
X03705Y02238*
X03694*
Y0221*
X03719Y02231D02*
Y02232D01*
X03721Y02235*
X03722Y02236*
X03725Y02238*
X0373*
X03733Y02236*
X03734Y02235*
X03735Y02232*
Y0223*
X03734Y02227*
X03731Y02223*
X03718Y0221*
X03737*
X0314Y02076D02*
Y02049D01*
X03131Y02076D02*
X03149D01*
X03152Y02062D02*
X03164D01*
X03168Y02063*
X03169Y02065*
X03171Y02067*
Y02071*
X03169Y02074*
X03168Y02075*
X03164Y02076*
X03152*
Y02049*
X03177Y02071D02*
X03179Y02072D01*
X03183Y02076*
Y02049*
X0268Y01235D02*
Y01207D01*
Y01235D02*
X02691D01*
X02695Y01233*
X02697Y01232*
X02698Y0123*
Y01227*
X02697Y01224*
X02695Y01223*
X02691Y01222*
X0268*
X02689D02*
X02698Y01207D01*
X02704Y0123D02*
X02707Y01231D01*
X02711Y01235*
Y01207*
X02724Y0123D02*
X02727Y01231D01*
X02731Y01235*
Y01207*
X02685Y01271D02*
X02684Y01273D01*
X02681Y01276*
X02679Y01277*
X02673*
X02671Y01276*
X02668Y01273*
X02667Y01271*
X02666Y01267*
Y0126*
X02667Y01256*
X02668Y01253*
X02671Y01251*
X02673Y0125*
X02679*
X02681Y01251*
X02684Y01253*
X02685Y01256*
X02694Y01271D02*
Y01272D01*
X02696Y01274*
X02697Y01276*
X027Y01277*
X02705*
X02707Y01276*
X02709Y01274*
X0271Y01272*
Y01269*
X02709Y01267*
X02706Y01263*
X02693Y0125*
X02711*
X02725Y01277D02*
X02721Y01276D01*
X02719Y01272*
X02718Y01265*
Y01261*
X02719Y01255*
X02721Y01251*
X02725Y0125*
X02728*
X02732Y01251*
X02735Y01255*
X02736Y01261*
Y01265*
X02735Y01272*
X02732Y01276*
X02728Y01277*
X02725*
X02691Y01312D02*
X02689Y01315D01*
X02687Y01317*
X02684Y01318*
X02679*
X02676Y01317*
X02674Y01315*
X02672Y01312*
X02671Y01308*
Y01301*
X02672Y01297*
X02674Y01295*
X02676Y01292*
X02679Y01291*
X02684*
X02687Y01292*
X02689Y01295*
X02691Y01297*
X02698Y01313D02*
X02701Y01315D01*
X02705Y01318*
Y01291*
X02736Y01309D02*
X02734Y01305D01*
X02732Y01303*
X02728Y01301*
X02726*
X02723Y01303*
X0272Y01305*
X02719Y01309*
Y01311*
X0272Y01315*
X02723Y01317*
X02726Y01318*
X02728*
X02732Y01317*
X02734Y01315*
X02736Y01309*
Y01303*
X02734Y01296*
X02732Y01292*
X02728Y01291*
X02725*
X02721Y01292*
X0272Y01295*
X03407Y02803D02*
Y02783D01*
X03408Y02779*
X0341Y02776*
X03414Y02775*
X03417*
X03421Y02776*
X03424Y02779*
X03425Y02783*
Y02803*
X03432Y02797D02*
X03435Y02799D01*
X03439Y02803*
Y02775*
X03521Y0281D02*
Y02782D01*
Y0281D02*
X03533D01*
X03537Y02808*
X03538Y02807*
X0354Y02804*
Y02802*
X03538Y02799*
X03537Y02798*
X03533Y02796*
X03521*
X0353D02*
X0354Y02782D01*
X03546Y02804D02*
X03548Y02806D01*
X03552Y0281*
Y02782*
X03569Y0281D02*
X03583D01*
X03575Y02799*
X03579*
X03582Y02798*
X03583Y02796*
X03584Y02793*
Y0279*
X03583Y02786*
X0358Y02783*
X03576Y02782*
X03572*
X03569Y02783*
X03567Y02785*
X03566Y02787*
X03527Y02857D02*
Y02829D01*
Y02857D02*
X03539D01*
X03543Y02856*
X03544Y02854*
X03545Y02852*
Y02849*
X03544Y02846*
X03543Y02845*
X03539Y02844*
X03527*
X03536D02*
X03545Y02829D01*
X03552Y02852D02*
X03554Y02853D01*
X03558Y02857*
Y02829*
X03573Y0285D02*
Y02852D01*
X03574Y02854*
X03576Y02856*
X03578Y02857*
X03584*
X03586Y02856*
X03588Y02854*
X03589Y02852*
Y02849*
X03588Y02846*
X03585Y02842*
X03572Y02829*
X0359*
X03715Y02767D02*
Y0274D01*
Y02767D02*
X03727D01*
X03731Y02766*
X03732Y02765*
X03733Y02762*
Y02759*
X03732Y02757*
X03731Y02755*
X03727Y02754*
X03715*
X03724D02*
X03733Y0274D01*
X03755Y02763D02*
X03754Y02766D01*
X0375Y02767*
X03747*
X03743Y02766*
X03741Y02762*
X0374Y02755*
Y02749*
X03741Y02744*
X03743Y02741*
X03747Y0274*
X03749*
X03753Y02741*
X03755Y02744*
X03757Y02748*
Y02749*
X03755Y02753*
X03753Y02755*
X03749Y02757*
X03747*
X03743Y02755*
X03741Y02753*
X0374Y02749*
X03739Y02616D02*
Y02628D01*
X03738Y02632*
X03737Y02633*
X03734Y02634*
X0373*
X03728Y02633*
X03726Y02632*
X03725Y02628*
Y02616*
X03752*
X03725Y0264D02*
X03752Y02647D01*
X03725Y02653D02*
X03752Y02647D01*
X03725Y02653D02*
X03752Y0266D01*
X03725Y02667D02*
X03752Y0266D01*
X03725Y02672D02*
X03752D01*
X03725D02*
Y02684D01*
X03726Y02688*
X03728Y02689*
X0373Y0269*
X03733*
X03735Y02689*
X03737Y02688*
X03738Y02684*
Y02672*
Y02681D02*
X03752Y0269D01*
X03433Y03083D02*
X03432Y03085D01*
X03429Y03088*
X03427Y03089*
X03421*
X03419Y03088*
X03416Y03085*
X03415Y03083*
X03413Y03079*
Y03072*
X03415Y03068*
X03416Y03065*
X03419Y03063*
X03421Y03062*
X03427*
X03429Y03063*
X03432Y03065*
X03433Y03068*
X03441Y03084D02*
X03443Y03085D01*
X03447Y03089*
Y03062*
X03468Y03089D02*
X03464Y03088D01*
X03462Y03085*
Y03083*
X03464Y0308*
X03466Y03079*
X03472Y03077*
X03475Y03076*
X03478Y03073*
X03479Y03071*
Y03067*
X03478Y03064*
X03477Y03063*
X03473Y03062*
X03468*
X03464Y03063*
X03462Y03064*
X03461Y03067*
Y03071*
X03462Y03073*
X03465Y03076*
X03469Y03077*
X03474Y03079*
X03477Y0308*
X03478Y03083*
Y03085*
X03477Y03088*
X03473Y03089*
X03468*
X03433Y03122D02*
X03432Y03125D01*
X03429Y03127*
X03427Y03128*
X03421*
X03419Y03127*
X03416Y03125*
X03415Y03122*
X03413Y03118*
Y03111*
X03415Y03107*
X03416Y03105*
X03419Y03102*
X03421Y03101*
X03427*
X03429Y03102*
X03432Y03105*
X03433Y03107*
X03441Y03123D02*
X03443Y03125D01*
X03447Y03128*
Y03101*
X03479Y03128D02*
X03466Y03101D01*
X03461Y03128D02*
X03479D01*
X03407Y0295D02*
X0341Y02952D01*
X03413Y02954*
X03414Y02957*
Y02962*
X03413Y02965*
X0341Y02967*
X03407Y02969*
X03403Y0297*
X03397*
X03393Y02969*
X0339Y02967*
X03388Y02965*
X03386Y02962*
Y02957*
X03388Y02954*
X0339Y02952*
X03393Y0295*
X03409Y02942D02*
X0341Y0294D01*
X03414Y02936*
X03386*
X0341Y02907D02*
X03413Y02908D01*
X03414Y02912*
Y02914*
X03413Y02918*
X03409Y02921*
X03402Y02922*
X03396*
X0339Y02921*
X03388Y02918*
X03386Y02914*
Y02913*
X03388Y02909*
X0339Y02907*
X03394Y02905*
X03396*
X03399Y02907*
X03402Y02909*
X03403Y02913*
Y02914*
X03402Y02918*
X03399Y02921*
X03396Y02922*
X0343Y02264D02*
X03429Y02266D01*
X03426Y02269*
X03424Y0227*
X03418*
X03416Y02269*
X03413Y02266*
X03412Y02264*
X0341Y0226*
Y02253*
X03412Y02249*
X03413Y02247*
X03416Y02244*
X03418Y02243*
X03424*
X03426Y02244*
X03429Y02247*
X0343Y02249*
X03438Y02265D02*
X0344Y02266D01*
X03444Y0227*
Y02243*
X03474Y0227D02*
X03461D01*
X03459Y02258*
X03461Y0226*
X03465Y02261*
X03469*
X03473Y0226*
X03475Y02257*
X03476Y02253*
Y02251*
X03475Y02247*
X03473Y02244*
X03469Y02243*
X03465*
X03461Y02244*
X03459Y02245*
X03458Y02248*
X02898Y04312D02*
Y04284D01*
Y04312D02*
X0291D01*
X02914Y0431*
X02915Y04309*
X02916Y04306*
Y04304*
X02915Y04301*
X02914Y043*
X0291Y04298*
X02898*
X02907D02*
X02916Y04284D01*
X02923Y04306D02*
X02925Y04308D01*
X02929Y04312*
Y04284*
X02959Y04312D02*
X02945D01*
X02944Y043*
X02945Y04301*
X02949Y04302*
X02953*
X02957Y04301*
X0296Y04298*
X02961Y04294*
Y04292*
X0296Y04288*
X02957Y04285*
X02953Y04284*
X02949*
X02945Y04285*
X02944Y04287*
X02943Y04289*
X0273Y0283D02*
X02702D01*
X0273D02*
Y02818D01*
X02729Y02814*
X02727Y02813*
X02725Y02812*
X02722*
X02719Y02813*
X02718Y02814*
X02717Y02818*
Y0283*
Y02821D02*
X02702Y02812D01*
X0273Y02799D02*
X02729Y02803D01*
X02726Y02804*
X02723*
X02721Y02803*
X02719Y028*
X02718Y02795*
X02717Y02791*
X02714Y02788*
X02711Y02787*
X02708*
X02705Y02788*
X02704Y0279*
X02702Y02794*
Y02799*
X02704Y02803*
X02705Y02804*
X02708Y02806*
X02711*
X02714Y02804*
X02717Y02802*
X02718Y02798*
X02719Y02792*
X02721Y0279*
X02723Y02788*
X02726*
X02729Y0279*
X0273Y02794*
Y02799*
X02904Y02234D02*
Y02206D01*
Y02234D02*
X02916D01*
X0292Y02232*
X02921Y02231*
X02922Y02229*
Y02226*
X02921Y02223*
X0292Y02222*
X02916Y02221*
X02904*
X02913D02*
X02922Y02206D01*
X02946Y02225D02*
X02944Y02221D01*
X02942Y02218*
X02938Y02217*
X02936*
X02932Y02218*
X0293Y02221*
X02928Y02225*
Y02226*
X0293Y0223*
X02932Y02232*
X02936Y02234*
X02938*
X02942Y02232*
X02944Y0223*
X02946Y02225*
Y02218*
X02944Y02211*
X02942Y02208*
X02938Y02206*
X02935*
X02931Y02208*
X0293Y0221*
X02844Y02829D02*
X02816D01*
X02844D02*
Y02817D01*
X02843Y02813*
X02841Y02812*
X02839Y02811*
X02836*
X02834Y02812*
X02832Y02813*
X02831Y02817*
Y02829*
Y0282D02*
X02816Y02811D01*
X02844Y02789D02*
Y02802D01*
X02832Y02803*
X02834Y02802*
X02835Y02798*
Y02794*
X02834Y0279*
X02831Y02787*
X02827Y02786*
X02824*
X0282Y02787*
X02818Y0279*
X02816Y02794*
Y02798*
X02818Y02802*
X02819Y02803*
X02822Y02805*
X02746Y02327D02*
Y023D01*
Y02327D02*
X02758D01*
X02762Y02326*
X02763Y02325*
X02765Y02322*
Y02319*
X02763Y02317*
X02762Y02315*
X02758Y02314*
X02746*
X02755D02*
X02765Y023D01*
X02784Y02327D02*
X02771Y02309D01*
X0279*
X02784Y02327D02*
Y023D01*
X03114Y0217D02*
Y02142D01*
Y0217D02*
X03126D01*
X0313Y02169*
X03131Y02167*
X03132Y02165*
Y02162*
X03131Y02159*
X0313Y02158*
X03126Y02157*
X03114*
X03123D02*
X03132Y02142D01*
X0314Y02163D02*
Y02165D01*
X03141Y02167*
X03142Y02169*
X03145Y0217*
X0315*
X03153Y02169*
X03154Y02167*
X03156Y02165*
Y02162*
X03154Y02159*
X03152Y02155*
X03138Y02142*
X03157*
X02788Y02829D02*
X0276D01*
X02788D02*
Y02817D01*
X02787Y02813*
X02785Y02812*
X02783Y02811*
X0278*
X02777Y02812*
X02776Y02813*
X02775Y02817*
Y02829*
Y0282D02*
X0276Y02811D01*
X02788Y02802D02*
Y02787D01*
X02777Y02795*
Y02791*
X02776Y02789*
X02775Y02787*
X02771Y02786*
X02768*
X02764Y02787*
X02762Y0279*
X0276Y02794*
Y02798*
X02762Y02802*
X02763Y02803*
X02766Y02805*
X03724Y02453D02*
Y02426D01*
Y02453D02*
X03736D01*
X0374Y02452*
X03741Y02451*
X03743Y02448*
Y02445*
X03741Y02443*
X0374Y02441*
X03736Y0244*
X03724*
X03733D02*
X03743Y02426D01*
X03749Y02448D02*
X03751Y02449D01*
X03755Y02453*
Y02426*
X02861Y0214D02*
X02858Y02138D01*
X02855Y02136*
X02854Y02133*
X02853Y02129*
Y02123*
X02854Y02119*
X02855Y02116*
X02858Y02113*
X02861Y02112*
X02866*
X02868Y02113*
X02871Y02116*
X02872Y02119*
X02874Y02123*
Y02129*
X02872Y02133*
X02871Y02136*
X02868Y02138*
X02866Y0214*
X02861*
X02864Y02117D02*
X02872Y02109D01*
X02881Y02133D02*
Y02134D01*
X02883Y02137*
X02884Y02138*
X02887Y0214*
X02892*
X02894Y02138*
X02896Y02137*
X02897Y02134*
Y02132*
X02896Y02129*
X02893Y02125*
X0288Y02112*
X02898*
X03034Y02213D02*
X03031Y02212D01*
X03028Y0221*
X03027Y02207*
X03026Y02203*
Y02196*
X03027Y02192*
X03028Y0219*
X03031Y02187*
X03034Y02186*
X03039*
X03042Y02187*
X03044Y0219*
X03046Y02192*
X03047Y02196*
Y02203*
X03046Y02207*
X03044Y0221*
X03042Y02212*
X03039Y02213*
X03034*
X03038Y02191D02*
X03046Y02183D01*
X03053Y02208D02*
X03056Y0221D01*
X0306Y02213*
Y02186*
X03752Y02535D02*
X03725Y02525D01*
X03752Y02514*
X03743Y02518D02*
Y02531D01*
X03732Y02561D02*
X03729Y0256D01*
X03726Y02557*
X03725Y02555*
Y02549*
X03726Y02547*
X03729Y02544*
X03732Y02543*
X03735Y02542*
X03742*
X03746Y02543*
X03749Y02544*
X03751Y02547*
X03752Y02549*
Y02555*
X03751Y02557*
X03749Y0256*
X03746Y02561*
X03725Y02578D02*
X03752D01*
X03725Y02569D02*
Y02587D01*
X02678Y03984D02*
Y03956D01*
Y03984D02*
X02687D01*
X02691Y03982*
X02694Y0398*
X02695Y03977*
X02696Y03973*
Y03967*
X02695Y03963*
X02694Y0396*
X02691Y03958*
X02687Y03956*
X02678*
X02704Y03977D02*
Y03979D01*
X02705Y03981*
X02706Y03982*
X02709Y03984*
X02714*
X02717Y03982*
X02718Y03981*
X02719Y03979*
Y03976*
X02718Y03973*
X02716Y03969*
X02702Y03956*
X02721*
X02772Y0143D02*
Y01402D01*
Y0143D02*
X02782D01*
X02786Y01428*
X02788Y01426*
X02789Y01423*
X02791Y01419*
Y01413*
X02789Y01409*
X02788Y01406*
X02786Y01403*
X02782Y01402*
X02772*
X02797Y01424D02*
X028Y01426D01*
X02803Y0143*
Y01402*
X02664Y01881D02*
X02636D01*
X02664D02*
X02636Y0187D01*
X02664Y0186D02*
X02636Y0187D01*
X02664Y0186D02*
X02636D01*
Y01831D02*
X02664Y01842D01*
X02636Y01852*
X02645Y01848D02*
Y01835D01*
X02664Y01825D02*
X02636D01*
X02664Y01819D02*
X02636D01*
X02664D02*
X02636Y018D01*
X02664D02*
X02636D01*
X02627Y01793D02*
Y01772D01*
X02664Y01768D02*
X02636D01*
X02664D02*
Y01757D01*
X02662Y01753*
X02661Y01751*
X02658Y0175*
X02656*
X02653Y01751*
X02652Y01753*
X0265Y01757*
Y01768D02*
Y01757D01*
X02649Y01753*
X02648Y01751*
X02645Y0175*
X02641*
X02639Y01751*
X02637Y01753*
X02636Y01757*
Y01768*
X02664Y01744D02*
X02636D01*
X02664D02*
Y01732D01*
X02662Y01728*
X02661Y01727*
X02658Y01725*
X02656*
X02653Y01727*
X02652Y01728*
X0265Y01732*
Y01744*
Y01735D02*
X02636Y01725D01*
X02664Y01719D02*
X02636D01*
X02664D02*
Y0171D01*
X02662Y01706*
X0266Y01704*
X02657Y01702*
X02653Y01701*
X02647*
X02643Y01702*
X0264Y01704*
X02637Y01706*
X02636Y0171*
Y01719*
X03087Y02329D02*
Y02301D01*
Y02329D02*
X03098Y02301D01*
X03108Y02329D02*
X03098Y02301D01*
X03108Y02329D02*
Y02301D01*
X03117Y02304D02*
X03116Y02303D01*
X03117Y02301*
X03119Y02303*
X03117Y02304*
X03126Y02322D02*
Y02324D01*
X03127Y02326*
X03129Y02328*
X03131Y02329*
X03136*
X03139Y02328*
X0314Y02326*
X03142Y02324*
Y02321*
X0314Y02318*
X03138Y02315*
X03125Y02301*
X03143*
X03149Y02292D02*
X0317D01*
X03174Y02329D02*
Y02301D01*
X03192Y02329D02*
X03174Y02311D01*
X0318Y02317D02*
X03192Y02301D01*
X03215Y02329D02*
X03198D01*
Y02301*
X03215*
X03198Y02316D02*
X03209D01*
X0322Y02329D02*
X0323Y02316D01*
Y02301*
X03241Y02329D02*
X0323Y02316D01*
X03244Y02292D02*
X03265D01*
X03269Y02329D02*
Y02301D01*
Y02329D02*
X03279Y02301D01*
X0329Y02329D02*
X03279Y02301D01*
X0329Y02329D02*
Y02301D01*
X03569Y02957D02*
Y02936D01*
X03567Y02932*
X03566Y02931*
X03563Y02929*
X03561*
X03558Y02931*
X03557Y02932*
X03556Y02936*
Y02939*
X03584Y02957D02*
X03581Y02956D01*
X03578Y02953*
X03577Y0295*
X03576Y02946*
Y0294*
X03577Y02936*
X03578Y02933*
X03581Y02931*
X03584Y02929*
X03589*
X03591Y02931*
X03594Y02933*
X03595Y02936*
X03597Y0294*
Y02946*
X03595Y0295*
X03594Y02953*
X03591Y02956*
X03589Y02957*
X03584*
X03603D02*
X03614Y02944D01*
Y02929*
X03624Y02957D02*
X03614Y02944D01*
X03628Y0292D02*
X03649D01*
X03652Y02957D02*
Y02929D01*
X03668*
X02714Y04117D02*
X02713Y0412D01*
X0271Y04123*
X02707Y04124*
X02702*
X02699Y04123*
X02697Y0412*
X02696Y04117*
X02694Y04113*
Y04107*
X02696Y04103*
X02697Y041*
X02699Y04098*
X02702Y04096*
X02707*
X0271Y04098*
X02713Y041*
X02714Y04103*
X02722Y04119D02*
X02724Y0412D01*
X02728Y04124*
Y04096*
X02755Y04124D02*
X02742Y04106D01*
X02762*
X02755Y04124D02*
Y04096D01*
X03307Y02848D02*
X0331Y02849D01*
X03312Y02851*
X03314Y02854*
Y02859*
X03312Y02862*
X0331Y02865*
X03307Y02866*
X03303Y02867*
X03296*
X03293Y02866*
X0329Y02865*
X03287Y02862*
X03286Y02859*
Y02854*
X03287Y02851*
X0329Y02849*
X03293Y02848*
X03308Y0284D02*
X0331Y02837D01*
X03314Y02833*
X03286*
X03308Y0282D02*
X0331Y02817D01*
X03314Y02813*
X03286*
X03266Y02857D02*
X03268Y02859D01*
X03271Y02861*
X03272Y02864*
Y02869*
X03271Y02872*
X03268Y02874*
X03266Y02876*
X03262Y02877*
X03255*
X03251Y02876*
X03249Y02874*
X03246Y02872*
X03245Y02869*
Y02864*
X03246Y02861*
X03249Y02859*
X03251Y02857*
X03267Y0285D02*
X03268Y02847D01*
X03272Y02843*
X03245*
X03272Y02822D02*
X03271Y02825D01*
X03267Y02828*
X0326Y02829*
X03256*
X0325Y02828*
X03246Y02825*
X03245Y02822*
Y02819*
X03246Y02815*
X0325Y02812*
X03256Y02811*
X0326*
X03267Y02812*
X03271Y02815*
X03272Y02819*
Y02822*
X03211Y02829D02*
X03214Y0283D01*
X03217Y02833*
X03218Y02835*
Y02841*
X03217Y02843*
X03214Y02846*
X03211Y02847*
X03208Y02849*
X03201*
X03197Y02847*
X03194Y02846*
X03192Y02843*
X0319Y02841*
Y02835*
X03192Y02833*
X03194Y0283*
X03197Y02829*
X03209Y02804D02*
X03205Y02805D01*
X03202Y02808*
X03201Y02812*
Y02813*
X03202Y02817*
X03205Y0282*
X03209Y02821*
X0321*
X03214Y0282*
X03217Y02817*
X03218Y02813*
Y02812*
X03217Y02808*
X03214Y02805*
X03209Y02804*
X03202*
X03196Y02805*
X03192Y02808*
X0319Y02812*
Y02815*
X03192Y02819*
X03194Y0282*
X03171Y0283D02*
X03174Y02831D01*
X03176Y02833*
X03178Y02836*
Y02841*
X03176Y02844*
X03174Y02847*
X03171Y02848*
X03167Y02849*
X03161*
X03157Y02848*
X03154Y02847*
X03151Y02844*
X0315Y02841*
Y02836*
X03151Y02833*
X03154Y02831*
X03157Y0283*
X03178Y02815D02*
X03176Y02819D01*
X03174Y0282*
X03171*
X03169Y02819*
X03167Y02817*
X03166Y02811*
X03165Y02807*
X03162Y02805*
X03159Y02803*
X03155*
X03153Y02805*
X03151Y02806*
X0315Y0281*
Y02815*
X03151Y02819*
X03153Y0282*
X03155Y02822*
X03159*
X03162Y0282*
X03165Y02818*
X03166Y02814*
X03167Y02809*
X03169Y02806*
X03171Y02805*
X03174*
X03176Y02806*
X03178Y0281*
Y02815*
X03534Y02671D02*
X03533Y02674D01*
X0353Y02676*
X03528Y02678*
X03523*
X0352Y02676*
X03517Y02674*
X03516Y02671*
X03515Y02667*
Y02661*
X03516Y02657*
X03517Y02654*
X0352Y02651*
X03523Y0265*
X03528*
X0353Y02651*
X03533Y02654*
X03534Y02657*
X03558Y02674D02*
X03557Y02676D01*
X03553Y02678*
X0355*
X03546Y02676*
X03543Y02672*
X03542Y02666*
Y02659*
X03543Y02654*
X03546Y02651*
X0355Y0265*
X03551*
X03555Y02651*
X03558Y02654*
X03559Y02658*
Y02659*
X03558Y02663*
X03555Y02666*
X03551Y02667*
X0355*
X03546Y02666*
X03543Y02663*
X03542Y02659*
X03533Y02739D02*
X03531Y02742D01*
X03529Y02744*
X03526Y02746*
X03521*
X03518Y02744*
X03516Y02742*
X03514Y02739*
X03513Y02735*
Y02729*
X03514Y02725*
X03516Y02722*
X03518Y02719*
X03521Y02718*
X03526*
X03529Y02719*
X03531Y02722*
X03533Y02725*
X03556Y02746D02*
X03543D01*
X03542Y02734*
X03543Y02735*
X03547Y02736*
X03551*
X03555Y02735*
X03558Y02732*
X03559Y02729*
Y02726*
X03558Y02722*
X03555Y02719*
X03551Y02718*
X03547*
X03543Y02719*
X03542Y02721*
X0354Y02723*
X03132Y02829D02*
X03134Y02831D01*
X03137Y02833*
X03138Y02836*
Y02841*
X03137Y02844*
X03134Y02846*
X03132Y02848*
X03128Y02849*
X03121*
X03117Y02848*
X03115Y02846*
X03112Y02844*
X03111Y02841*
Y02836*
X03112Y02833*
X03115Y02831*
X03117Y02829*
X03138Y02808D02*
X0312Y02821D01*
Y02802*
X03138Y02808D02*
X03111D01*
X02653Y02835D02*
X02656Y02837D01*
X02659Y02839*
X0266Y02842*
Y02847*
X02659Y0285*
X02656Y02852*
X02653Y02854*
X02649Y02855*
X02643*
X02639Y02854*
X02636Y02852*
X02634Y0285*
X02632Y02847*
Y02842*
X02634Y02839*
X02636Y02837*
X02639Y02835*
X0266Y02825D02*
Y02811D01*
X02649Y02819*
Y02815*
X02648Y02812*
X02647Y02811*
X02643Y02809*
X0264*
X02636Y02811*
X02634Y02813*
X02632Y02817*
Y02821*
X02634Y02825*
X02635Y02826*
X02638Y02828*
X02613Y02836D02*
X02616Y02838D01*
X02618Y0284*
X0262Y02843*
Y02848*
X02618Y02851*
X02616Y02853*
X02613Y02855*
X02609Y02856*
X02603*
X02599Y02855*
X02596Y02853*
X02593Y02851*
X02592Y02848*
Y02843*
X02593Y0284*
X02596Y02838*
X02599Y02836*
X02613Y02827D02*
X02614D01*
X02617Y02826*
X02618Y02825*
X0262Y02822*
Y02817*
X02618Y02814*
X02617Y02813*
X02614Y02812*
X02612*
X02609Y02813*
X02605Y02816*
X02592Y02829*
Y0281*
X02573Y02827D02*
X02575Y02828D01*
X02578Y02831*
X02579Y02833*
Y02838*
X02578Y02841*
X02575Y02844*
X02573Y02845*
X02569Y02846*
X02562*
X02558Y02845*
X02556Y02844*
X02553Y02841*
X02552Y02838*
Y02833*
X02553Y02831*
X02556Y02828*
X02558Y02827*
X02574Y02819D02*
X02575Y02816D01*
X02579Y02812*
X02552*
X02983Y01394D02*
X02981Y01397D01*
X02977Y01398*
X02972*
X02968Y01397*
X02965Y01394*
Y01392*
X02966Y01389*
X02968Y01388*
X0297Y01386*
X02978Y01384*
X02981Y01382*
X02982Y01381*
X02983Y01378*
Y01375*
X02981Y01372*
X02977Y01371*
X02972*
X02968Y01372*
X02965Y01375*
X0299Y01398D02*
Y01371D01*
X03005*
X03029D02*
X03019Y01398D01*
X03008Y01371*
X03012Y0138D02*
X03025D01*
X03036Y01398D02*
X03046Y01371D01*
X03057Y01398D02*
X03046Y01371D01*
X03077Y01398D02*
X0306D01*
Y01371*
X03077*
X0306Y01385D02*
X03071D01*
X02747Y04212D02*
X02744Y04211D01*
X02741Y04209*
X0274Y04206*
X02739Y04202*
Y04195*
X0274Y04191*
X02741Y04189*
X02744Y04186*
X02747Y04185*
X02752*
X02755Y04186*
X02757Y04189*
X02758Y04191*
X0276Y04195*
Y04202*
X02758Y04206*
X02757Y04209*
X02755Y04211*
X02752Y04212*
X02747*
X02751Y0419D02*
X02758Y04182D01*
X02779Y04212D02*
X02766Y04194D01*
X02786*
X02779Y04212D02*
Y04185D01*
X03444Y04178D02*
Y04151D01*
X03459*
X03464Y04172D02*
Y04173D01*
X03465Y04176*
X03466Y04177*
X03469Y04178*
X03474*
X03477Y04177*
X03478Y04176*
X0348Y04173*
Y0417*
X03478Y04168*
X03476Y04164*
X03463Y04151*
X03481*
X02782Y03942D02*
X02792Y03915D01*
X02803Y03942D02*
X02792Y03915D01*
X02806Y03942D02*
Y03915D01*
X02812Y03942D02*
Y03915D01*
Y03942D02*
X02824D01*
X02828Y03941*
X02829Y0394*
X0283Y03937*
Y03934*
X02829Y03932*
X02828Y0393*
X02824Y03929*
X02812D02*
X02824D01*
X02828Y03928*
X02829Y03926*
X0283Y03924*
Y0392*
X02829Y03917*
X02828Y03916*
X02824Y03915*
X02812*
X02837Y03905D02*
X02858D01*
X02861Y03942D02*
Y03915D01*
Y03942D02*
X02872Y03915D01*
X02882Y03942D02*
X02872Y03915D01*
X02882Y03942D02*
Y03915D01*
X02898Y03942D02*
X02895Y03941D01*
X02893Y03938*
X02891Y03936*
X0289Y03932*
Y03925*
X02891Y03921*
X02893Y03919*
X02895Y03916*
X02898Y03915*
X02903*
X02906Y03916*
X02908Y03919*
X0291Y03921*
X02911Y03925*
Y03932*
X0291Y03936*
X02908Y03938*
X02906Y03941*
X02903Y03942*
X02898*
X02927D02*
Y03915D01*
X02917Y03942D02*
X02936D01*
M02*