%FSTAX23Y23*%
%MOIN*%
%SFA1B1*%

%IPPOS*%
%ADD11R,0.039400X0.023600*%
%ADD12R,0.039400X0.007900*%
%ADD13R,0.015700X0.023600*%
%ADD14R,0.007900X0.023600*%
%ADD19C,0.007900*%
%ADD20C,0.023600*%
%ADD21C,0.015700*%
%ADD22C,0.017700*%
%LNbattery_flex-1*%
%LPD*%
G36*
X01262Y0181D02*
X01265Y01809D01*
X01268Y01807*
X01269Y01804*
Y01634*
X01264Y0163*
X0125*
X0125Y0163*
X01249Y0163*
X01246Y01629*
X01244*
X01238Y01628*
X01233Y01626*
X01228Y01622*
X01223Y01618*
X01222Y01617*
X01221Y01616*
Y01616*
X0122Y01614*
X01219Y01612*
Y01612*
X01219*
X01215Y01603*
X01215Y01601*
X01214Y016*
X01214Y01595*
Y01594*
X01214Y01594*
Y-01279*
X01214*
X01214Y-01279*
X01214Y-01286*
X01211Y-01299*
X01206Y-01311*
X01199Y-01322*
X01189Y-01332*
X01178Y-01339*
X01166Y-01344*
X01153Y-01346*
X01146Y-01346*
X01146*
X01146*
X-00739*
X-0074Y-01346*
X-00741Y-01346*
X-00746Y-01347*
X-00747Y-01347*
X-00749Y-01348*
X-00757Y-01351*
X-00757*
X-00759Y-01352*
X-00761Y-01354*
X-00761Y-01354*
X-00768Y-0136*
Y-0136*
X-00769Y-01362*
X-00771Y-01364*
Y-01364*
X-00774Y-01373*
X-00775Y-01375*
X-00775Y-01376*
X-00775Y-01381*
X-0078Y-01384*
X-00889Y-01384*
X-00893Y-01383*
X-00893*
X-00893*
X-00898Y-01383*
X-00898Y-01382*
X-009Y-01381*
X-00901Y-01379*
Y-01309*
X-00897Y-01305*
X-0081*
X-00809Y-01306*
X-00768*
X-00767Y-01305*
X-00761Y-01305*
X-00755Y-01302*
X-0075Y-01298*
X-00749Y-01298*
X-00749Y-01298*
X-00749Y-01298*
X-00744Y-01298*
X01076*
Y-01298*
X01094Y-01296*
X0111Y-01291*
X01126Y-01283*
X01139Y-01272*
X0115Y-01258*
X01159Y-01243*
X01164Y-01226*
X01165Y-01209*
X01165*
X01165Y01611*
X01168Y01615*
X01171Y01623*
X01173Y0163*
X01173Y01634*
Y01655*
X01173*
Y01698*
X01173*
Y01713*
X01177Y01719*
X01178Y01726*
X01177Y01734*
X01173Y01739*
Y0174*
X01173Y01741*
X01174Y01741*
X01174Y01742*
X01176Y01743*
X01176Y01745*
X01177Y01747*
X01177Y01748*
Y01804*
X01178Y01807*
X0118Y01809*
X01182Y0181*
X01262Y0181*
G37*
G36*
X0112Y0181D02*
X01122Y01809D01*
X01124Y01807*
X01126Y01804*
Y01746*
X01126Y01741*
X01128Y01731*
X01132Y01721*
X01138Y01712*
X01141Y01708*
X01142Y01707*
X01144Y01705*
X01144Y01703*
X01145Y01698*
Y01655*
X01145*
Y01648*
X01144Y01647*
X01137Y01643*
X01133Y01637*
X01132Y0163*
X01133Y01622*
X01137Y01617*
X01137Y-01209*
Y-01209*
X01136Y-0122*
X01132Y-01232*
X01127Y-01242*
X01119Y-01252*
X0111Y-01259*
X011Y-01265*
X01088Y-01268*
X01077Y-01269*
X01076*
X-00748*
X-00767*
X-00768*
X-00769Y-01269*
X-00771Y-01268*
X-00772Y-01268*
X-00772Y-01267*
X-00773Y-01267*
X-00775Y-01265*
X-00776Y-01265*
X-00778Y-01264*
X-00779*
Y-01262*
X-00838*
Y-01271*
X-00842Y-01275*
X-00843Y-01276*
X-00845Y-01277*
X-00897*
X-00901Y-01274*
X-00901Y-01273*
Y-0119*
X-00899Y-01186*
X-00897Y-01183*
X-0079*
X-00789Y-01184*
X-00789*
X-00781*
X-0078Y-01184*
X-00778Y-01185*
X-00776Y-01186*
X-00775Y-01188*
X-00775Y-0119*
Y-0119*
X-00775Y-01192*
X-00774Y-01192*
X-00774Y-01194*
X-00771Y-01202*
Y-01203*
X-00769Y-01204*
X-00768Y-01206*
X-00768Y-01206*
X-00761Y-01213*
X-00761*
X-00759Y-01214*
X-00758Y-01216*
X-00757*
X-00749Y-01219*
X-00747Y-0122*
X-00745Y-0122*
X-00741Y-01221*
X-0074Y-01221*
X-00739Y-01221*
X-00739Y-01221*
X01016*
X01016*
X01016*
X01022Y-01221*
X01023Y-0122*
X01024Y-0122*
X01036Y-01218*
X01037Y-01218*
X01038Y-01218*
X01049Y-01213*
X0105Y-01212*
X01051Y-01212*
X01061Y-01206*
X01062Y-01205*
X01063Y-01204*
X01071Y-01196*
X01072Y-01195*
X01073Y-01194*
X01079Y-01184*
X0108Y-01183*
X0108Y-01182*
X01085Y-01171*
X01085Y-0117*
X01086Y-01169*
X01088Y-01157*
Y-01156*
X01088Y-01155*
X01088Y-0115*
X01088Y-01149*
X01088Y-01149*
Y01594*
X01088Y01594*
X01088Y01595*
X01088Y01599*
X01087Y01601*
X01087Y01603*
X01084Y01611*
Y01612*
X01082Y01613*
X01081Y01615*
Y01615*
X0108Y01616*
X01079Y01618*
X01075Y01622*
X0107Y01626*
X01064Y01628*
X01058Y01629*
X01056Y01629*
X01054Y0163*
X01053Y0163*
X01053Y0163*
X01039*
X01037Y01631*
X01034Y01633*
X01033Y01636*
Y01805*
X01038Y0181*
X0112*
G37*
G54D11*
X-00809Y-01252D03*
Y-01315D03*
X-00868Y-01252D03*
Y-01315D03*
G54D12*
X-00809Y-01276D03*
Y-01291D03*
X-00868Y-01276D03*
Y-01291D03*
G54D13*
X0112Y01677D03*
X01087Y01763D03*
X0112D03*
X01183D03*
X01215D03*
Y01677D03*
X01087D03*
X01183D03*
G54D14*
X01143Y01763D03*
X01159D03*
Y01677D03*
X01143D03*
G54D19*
X-00768Y-01291D02*
D01*
X-00767Y-01291*
X-00766Y-01291*
X-00765Y-01291*
X-00764Y-01291*
X-00764Y-01291*
X-00763Y-0129*
X-00762Y-0129*
X-00761Y-0129*
X-00761Y-01289*
X-0076Y-01289*
X-0076Y-01288*
X-00759Y-01288*
X-00749Y-01283D02*
D01*
X-0075Y-01283*
X-00751Y-01284*
X-00752Y-01284*
X-00753Y-01284*
X-00754Y-01284*
X-00755Y-01285*
X-00756Y-01285*
X-00757Y-01286*
X-00757Y-01286*
X-00758Y-01287*
X-00759Y-01288*
X-00759Y-01288*
X01143Y01699D02*
D01*
X01143Y017*
X01143Y017*
X01143Y01701*
X01143Y01701*
X01143Y01702*
X01143Y01702*
X01142Y01703*
X01142Y01703*
X01142Y01704*
X01141Y01704*
X01141Y01704*
X01141Y01705*
X0112Y01729D02*
D01*
X0112Y01729*
X0112Y01728*
X0112Y01727*
X0112Y01727*
X0112Y01726*
X0112Y01726*
X01121Y01725*
X01121Y01725*
X01121Y01724*
X01121Y01724*
X01122Y01724*
X01122Y01724*
X01076Y-01283D02*
D01*
X01082Y-01283*
X01087Y-01283*
X01092Y-01282*
X01097Y-01281*
X01102Y-01279*
X01107Y-01277*
X01111Y-01275*
X01116Y-01272*
X0112Y-01269*
X01124Y-01266*
X01128Y-01262*
X01132Y-01259*
X01135Y-01255*
X01138Y-0125*
X01141Y-01246*
X01144Y-01241*
X01146Y-01237*
X01147Y-01232*
X01149Y-01227*
X0115Y-01222*
X01151Y-01216*
X01151Y-01211*
X01151Y-01209*
X-00749Y-01283D02*
X01076D01*
X-00894Y-01276D02*
X-00851D01*
X-00836Y-01261*
X-00809Y-01291D02*
X-00768D01*
X-00895Y-01275D02*
X-00894Y-01276D01*
X01159Y01726D02*
Y01755D01*
X01143Y01677D02*
Y01699D01*
Y01651D02*
D01*
Y01677D01*
X01122Y01724D02*
X01141Y01705D01*
X01159Y01755D02*
Y01763D01*
X01151Y0163D02*
X01151Y-01209D01*
G54D20*
X-00809Y-01315D02*
X-00786D01*
X-00868D02*
X-00809D01*
X-00786D02*
X-00783Y-01317D01*
X-00845Y-01252D02*
X-00809D01*
X-00773*
G54D21*
X01183Y01759D02*
X01184Y01738D01*
X01183Y01759D02*
Y01802D01*
X01182Y01803D02*
X01183Y01802D01*
X0112Y01729D02*
Y01763D01*
Y01803*
Y01699D02*
Y01729D01*
Y01699D02*
X0112Y01699D01*
G54D22*
X-00791Y-01345D03*
X-00822D03*
X-00854D03*
X-00885D03*
Y-01222D03*
X-00854D03*
X-00822D03*
X-00791D03*
X01159Y01726D03*
X01151Y0163D03*
X-00885Y-01373D03*
X-00854D03*
X-00822D03*
X-00791D03*
Y-01194D03*
X-00822D03*
X-00854D03*
X-00885D03*
X01254Y01799D03*
Y01767D03*
Y01736D03*
Y01704D03*
Y01673D03*
Y01641D03*
X01048D03*
Y01673D03*
Y01704D03*
Y01736D03*
Y01767D03*
Y01799D03*
M02*