%FSTAX23Y23*%
%MOIN*%
%SFA1B1*%

%IPPOS*%
%ADD19C,0.007900*%
%ADD22C,0.017700*%
%LNbattery_flex-1*%
%LPD*%
G36*
X01263Y0181D02*
X01263Y0181D01*
X01263*
X01267Y01808*
X01269Y01803*
Y01634*
X01269Y01634*
X01268Y01633*
X01268Y01632*
X01267Y01631*
X01267Y01631*
X01266Y0163*
X01264Y0163*
X01264Y0163*
X0125*
X0125Y0163*
X01249Y0163*
X01244Y01629*
X01243Y01629*
X01241Y01628*
X01241Y01628*
X01239Y01628*
X01233Y01626*
X01229Y01623*
X01228Y01622*
X01227Y01622*
X01225Y0162*
X01223Y01617*
X01222Y01616*
X01221Y01616*
Y01616*
X0122Y01614*
X01219Y01612*
Y01612*
X01219*
X01215Y01603*
X01215Y01601*
X01214Y016*
X01214Y01595*
Y01594*
X01214Y01594*
Y-01279*
X01214*
X01214Y-01279*
X01214Y-01285*
X01211Y-01299*
X01206Y-01312*
X01203Y-01316*
X01199Y-01322*
X01189Y-01332*
X01178Y-01339*
X01166Y-01344*
X01153Y-01346*
X01146Y-01346*
X01146*
X01146*
X-00739*
X-0074Y-01346*
X-00741Y-01346*
X-00746Y-01347*
X-00747Y-01347*
X-00749Y-01348*
X-00749Y-01348*
X-0075*
X-00751Y-01348*
X-00754Y-01349*
X-00756Y-0135*
X-00758Y-01351*
X-00759Y-01352*
X-00761Y-01354*
X-00761Y-01354*
X-00768Y-0136*
Y-0136*
X-00768Y-01361*
X-00772Y-01364*
X-00772Y-01365*
X-00774Y-01367*
X-00775Y-01369*
X-00775Y-01371*
X-00775Y-01373*
Y-01378*
X-00775Y-01379*
X-00776Y-01381*
X-00778Y-01383*
X-0078Y-01383*
X-00893*
X-00895*
X-00898Y-01382*
X-009Y-0138*
X-00901Y-01378*
Y-01294*
X-009Y-01291*
X-00897Y-01289*
X-00896Y-01289*
X-00894Y-01289*
X-00892*
X-00782*
X-00782Y-01289*
X-00781*
X-00777Y-01289*
X-00777Y-01288*
X-00776Y-01288*
X-00773Y-01287*
X-00772Y-01287*
X-00771Y-01287*
X-00768Y-01285*
X-00768Y-01285*
X-00767Y-01284*
X-00765Y-01283*
X-00761Y-01281*
X-00757Y-01279*
X-00756*
X01079*
X01084*
X01085Y-01279*
X01086*
X01096Y-01277*
X01097Y-01277*
X01098Y-01277*
X01107Y-01273*
X01108Y-01272*
X01109Y-01272*
X01117Y-01266*
X01118Y-01266*
X01118Y-01265*
X01119Y-01265*
X01121Y-01263*
X01127Y-01258*
X01131Y-01253*
X01139Y-01242*
X01144Y-01229*
X01147Y-01215*
X01147Y-01209*
Y01607*
X01151Y0161*
X01158Y01612*
X01165Y01616*
X01169Y01622*
X0117Y0163*
X01169Y01637*
X01165Y01642*
X01166Y01678*
Y01681*
X01167Y01684*
X01168Y01687*
X01171Y01692*
X01173Y017*
X01173Y01701*
Y01713*
X01177Y01719*
X01178Y01726*
X01177Y01734*
X01173Y0174*
X01166Y01744*
X01159Y01746*
X01152Y01744*
X01151Y01745*
X01147Y01746*
Y01799*
Y01801*
X01149Y01805*
X01152Y01809*
X01156Y0181*
X01263Y0181*
G37*
G36*
X01125Y0181D02*
X0113Y01808D01*
X01134Y01804*
X01136Y01799*
Y01796*
Y01642*
X01133Y01637*
X01132Y0163*
X01133Y01622*
X01136Y01618*
Y01528*
Y-01209*
Y-01215*
X01134Y-01226*
X0113Y-01236*
X01124Y-01246*
X0112Y-0125*
X01115Y-01254*
X01111Y-01258*
X01103Y-01263*
X01094Y-01267*
X01084Y-01269*
X01079*
X-00756*
X-00758*
X-00761Y-0127*
X-00765Y-01271*
X-00768Y-01272*
X-00769Y-01273*
X-00773Y-01276*
X-00776Y-01278*
X-00779Y-01279*
X-00782Y-01279*
X-00892*
X-00894*
X-00897Y-01278*
X-009Y-01275*
X-00901Y-01273*
Y-01192*
X-00899Y-01189*
X-00896Y-01185*
X-00892Y-01184*
X-0078*
X-00775Y-01186*
X-00775Y-0119*
X-00774Y-01192*
X-00774Y-01194*
X-00774Y-01194*
X-00774Y-01196*
X-00771Y-01202*
X-00767Y-01208*
X-00762Y-01213*
X-00756Y-01217*
X-0075Y-01219*
X-00743Y-01221*
X-0074Y-01221*
X01011*
X01016*
X01023Y-01221*
X01035Y-01218*
X01036Y-01218*
X01037Y-01218*
X01038Y-01217*
X01049Y-01213*
X0105Y-01213*
X0105Y-01213*
X0105Y-01212*
X01051Y-01212*
X01061Y-01206*
X01062Y-01205*
X01063Y-01204*
X01071Y-01196*
X01072Y-01195*
X01073Y-01194*
X01079Y-01184*
X0108Y-01183*
X0108Y-01182*
X01085Y-01171*
X01085Y-0117*
X01086Y-01169*
X01088Y-01157*
Y-01156*
X01088Y-01155*
X01088Y-0115*
X01088Y-01149*
X01088Y-01149*
Y01594*
X01088Y01594*
X01088Y01595*
X01088Y01599*
X01087Y01601*
X01087Y01603*
X01084Y01611*
Y01612*
X01082Y01613*
X01081Y01615*
Y01615*
X01074Y01622*
X01074Y01622*
X01072Y01623*
X01071Y01625*
X0107*
X01062Y01628*
X0106Y01629*
X01058Y01629*
X01054Y0163*
X01053Y0163*
X01053Y0163*
X01039*
X01036Y01631*
X01034Y01633*
X01033Y01635*
Y018*
X01035Y01805*
X01039Y01808*
X01043Y0181*
X01125*
G37*
G54D19*
X01157Y01695D02*
D01*
X01157Y01695*
X01157Y01696*
X01158Y01696*
X01158Y01697*
X01158Y01697*
X01158Y01698*
X01158Y01698*
X01159Y01699*
X01159Y01699*
X01159Y017*
X01159Y017*
X01157Y01695D02*
D01*
X01156Y01694*
X01155Y01693*
X01154Y01692*
X01154Y01691*
X01153Y0169*
X01153Y01689*
X01152Y01688*
X01152Y01686*
X01152Y01685*
X01152Y01684*
X01152Y01683*
X01159Y017D02*
X01159Y01726D01*
X01151Y0163D02*
X01152Y01683D01*
D01*
G54D22*
X-00791Y-01345D03*
X-00822D03*
X-00854D03*
X-00885D03*
Y-01222D03*
X-00854D03*
X-00822D03*
X-00791D03*
X01159Y01726D03*
X01151Y0163D03*
X-00885Y-01373D03*
X-00854D03*
X-00822D03*
X-00791D03*
Y-01194D03*
X-00822D03*
X-00854D03*
X-00885D03*
X01254Y01799D03*
Y01767D03*
Y01736D03*
Y01704D03*
Y01673D03*
Y01641D03*
X01048D03*
Y01673D03*
Y01704D03*
Y01736D03*
Y01767D03*
Y01799D03*
M02*