%FSTAX23Y23*%
%MOIN*%
%SFA1B1*%

%IPPOS*%
%ADD94C,0.017700*%
%LNright_board-1*%
%LPD*%
G36*
X03402Y04397D02*
X03416Y04394D01*
X03429Y04388*
X03435Y04384*
X03435Y04384*
X03435Y04384*
X03486Y04355*
X03486Y04349*
X0348Y04345*
X03476Y04339*
X03474Y04335*
X03469Y04336*
X03469Y04338*
X03468Y04347*
X03463Y04354*
X03455Y04359*
X03446Y04361*
X03438Y04359*
X0343Y04354*
X03425Y04347*
X03423Y04338*
X03425Y04329*
X0343Y04322*
X03438Y04317*
X03446Y04315*
X03455Y04317*
X03463Y04322*
X03465Y04325*
X03471Y04326*
X03472Y04325*
X03472Y04324*
X03473Y04316*
X03476Y04309*
X0348Y04303*
X03487Y04298*
X03494Y04295*
X03502Y04294*
X03509Y04295*
X03516Y04298*
X03523Y04303*
X03527Y04309*
X0353Y04316*
X03531Y04323*
X03535Y04326*
X03595Y04292*
X03599Y04289*
X03606Y04284*
X03612Y04277*
X03617Y0427*
X03622Y04262*
X03625Y04254*
X03625Y04253*
X03621Y04249*
X03615Y0425*
X03606Y04248*
X03598Y04243*
X03593Y04236*
X03592Y04227*
X03593Y04218*
X03598Y04211*
X03606Y04206*
X03615Y04204*
X03623Y04205*
X03628Y04203*
Y04089*
Y04089*
X03628Y0408*
X03625Y04063*
X03621Y04046*
X03613Y0403*
X03608Y04023*
X03608Y04022*
X03608Y04022*
X03593Y03995*
Y03995*
X03593Y03994*
X03588Y03985*
X03588Y03985*
X03588Y03984*
X03581Y03964*
X03581Y03964*
X0358Y03963*
X03577Y03942*
Y03941*
X03577Y0394*
X03578Y0392*
X03578Y03919*
Y03918*
X03582Y03898*
X03582Y03897*
X03582Y03896*
X0359Y03877*
X0359Y03876*
X03591Y03875*
X03601Y03857*
X03602Y03857*
X03602Y03856*
X03616Y0384*
X03617Y0384*
X03617Y03839*
X03633Y03826*
X03634Y03826*
X03635Y03825*
X03653Y03815*
X03654Y03815*
X03655Y03815*
X03674Y03808*
X03675Y03808*
X03676Y03808*
X03697Y03805*
X03697Y03805*
X03698Y03804*
X03708Y03804*
X03708*
X03708*
X03762*
X03771Y03802*
X03779Y03799*
X03787Y03794*
X03793Y03787*
X03798Y0378*
X03802Y03771*
X03804Y03762*
Y03758*
X03803Y03631*
Y03627*
X03802Y0362*
X03799Y03612*
X03794Y03606*
X03789Y036*
X03782Y03596*
X03775Y03593*
X03767Y03591*
X03763*
X03543*
X03542Y03591*
X03542Y03591*
X03537Y03591*
X03536Y03591*
X03536*
X03526Y03589*
X03525Y03589*
X03524Y03588*
X03515Y03585*
X03514Y03584*
X03513Y03584*
X03505Y03578*
X03504Y03578*
X03504Y03577*
X03497Y0357*
X03496Y03569*
X03495Y03569*
X0349Y0356*
X0349Y03559*
X03489Y03559*
X03485Y0355*
X03485Y03549*
X03485Y03548*
X03483Y03538*
Y03537*
X03483Y03537*
X03482Y03532*
Y03531*
Y03531*
Y03485*
X03477Y03483*
X03473Y03485*
X03464Y03487*
X03455Y03485*
X03448Y0348*
X03443Y03473*
X03441Y03464*
X03443Y03455*
X03448Y03448*
X03455Y03443*
X03464Y03441*
X03473Y03443*
X03477Y03446*
X03482Y03443*
Y03347*
X03477Y03345*
X03473Y03348*
X03464Y03349*
X03455Y03348*
X03448Y03343*
X03443Y03335*
X03441Y03326*
X03443Y03317*
X03448Y0331*
X03455Y03305*
X03464Y03303*
X03473Y03305*
X03477Y03308*
X03482Y03305*
Y0321*
X03477Y03207*
X03473Y0321*
X03464Y03212*
X03455Y0321*
X03448Y03205*
X03443Y03197*
X03441Y03189*
X03443Y0318*
X03448Y03172*
X03455Y03167*
X03464Y03165*
X03473Y03167*
X0348Y03172*
X03483Y03176*
X03489Y03175*
X03489Y03174*
X0349Y03174*
X0349Y03173*
X03495Y03164*
X03496Y03164*
X03497Y03163*
X03504Y03156*
X03504Y03155*
X03505Y03155*
X03513Y03149*
X03514Y03149*
X03515Y03148*
X03524Y03145*
X03525Y03144*
X03526Y03144*
X03536Y03142*
X03536*
X03537Y03142*
X03542Y03142*
X03542*
X03543*
X03791*
X03791*
X03793*
X03798Y0314*
X03801Y03136*
X03803Y03132*
X03803Y0313*
Y03129*
X03803Y03129*
X03803Y02825*
X03798Y02823*
X03796Y02825*
X03789Y0283*
X0378Y02832*
X03771Y0283*
X03764Y02825*
X03759Y02817*
X03757Y02809*
X03759Y028*
X03764Y02792*
X03771Y02787*
X0378Y02786*
X03789Y02787*
X03796Y02792*
X03798Y02794*
X03803Y02792*
X03802Y02602*
X03797Y026*
X03796Y02602*
X03789Y02607*
X0378Y02608*
X03771Y02607*
X03764Y02602*
X03759Y02594*
X03757Y02585*
X03759Y02576*
X03764Y02569*
X03771Y02564*
X0378Y02562*
X03789Y02564*
X03796Y02569*
X03797Y0257*
X03802Y02569*
X03802Y02274*
X03798Y02272*
X03796Y02273*
X03787Y02275*
X03778Y02273*
X03771Y02268*
X03766Y0226*
X03764Y02252*
X03766Y02243*
X03771Y02235*
X03778Y0223*
X03787Y02228*
X03796Y0223*
X03798Y02231*
X03802Y02229*
X03802Y02118*
Y02111*
X03799Y02097*
X03794Y02084*
X03786Y02072*
X03776Y02062*
X03765Y02054*
X03752Y02048*
X03738Y02045*
X03731Y02045*
X03731*
X03731*
X03722Y02044*
X03721Y02044*
X0372*
X03703Y0204*
X03702Y0204*
X03701Y0204*
X03685Y02034*
X03684Y02033*
X03683Y02033*
X03668Y02024*
X03667Y02024*
X03666Y02023*
X03652Y02012*
X03652Y02012*
X03651Y02011*
X03639Y01998*
X03638Y01998*
X03638Y01997*
X03627Y01982*
X03627Y01982*
X03627Y01981*
X03619Y01965*
X03619Y01964*
X03618Y01964*
X03613Y01947*
X03613Y01946*
X03612Y01945*
X0361Y01927*
Y01927*
X0361Y01926*
Y01908*
X0361Y01907*
Y01906*
X03612Y01889*
X03613Y01888*
X03613Y01887*
X03618Y0187*
X03618Y01869*
X03619Y01869*
X03626Y01853*
X03627Y01852*
X03627Y01851*
X03637Y01837*
X03638Y01836*
X03638Y01835*
X03651Y01822*
X03651Y01822*
X03652Y01821*
X03666Y0181*
X03667Y0181*
X03667Y01809*
X03683Y01801*
X03684Y018*
X03684Y018*
X03701Y01794*
X03702Y01794*
X03703Y01793*
X03719Y0179*
X03721Y01786*
Y01784*
X03718Y0178*
X03717Y01771*
X03718Y01762*
X03723Y01755*
X03731Y0175*
X0374Y01748*
X03749Y0175*
X03756Y01755*
X03761Y01762*
X03763Y01771*
X03762Y01774*
X03767Y01777*
X03777Y01769*
X03787Y01758*
X03795Y01746*
X038Y01732*
X03803Y01717*
X03803Y0171*
Y0171*
X03803Y01689*
X03799Y01648*
X03793Y01607*
X03783Y01567*
X0377Y01528*
X03762Y01511*
X03757Y0151*
X03756Y01512*
X03749Y01517*
X0374Y01519*
X03731Y01517*
X03723Y01512*
X03718Y01504*
X03717Y01496*
X03718Y01487*
X03723Y01479*
X03731Y01474*
X03739Y01473*
X03742Y01468*
X03734Y01453*
X03713Y01418*
X03688Y01385*
X03661Y01354*
X03631Y01325*
X036Y01298*
X03566Y01274*
X03531Y01253*
X03494Y01235*
X03455Y01219*
X03416Y01207*
X03375Y01198*
X03335Y01192*
X03293Y01189*
X03273Y0119*
X03273*
X03168*
X03164Y01195*
X03166Y01198*
X03166Y01203*
X03172Y01205*
X03172Y01204*
X0318Y01199*
X03189Y01197*
X03197Y01199*
X03205Y01204*
X0321Y01211*
X03212Y0122*
X0321Y01229*
X03205Y01236*
X03197Y01241*
X03189Y01243*
X0318Y01241*
X03172Y01236*
X03172Y01236*
X03167Y01237*
Y01242*
X03166Y01251*
X03162Y01259*
X03157Y01266*
X0315Y01271*
X03142Y01275*
X03133Y01276*
X03125*
X03117Y01275*
X03108Y01271*
X03101Y01266*
X03096Y01259*
X03093Y01251*
X03091Y01242*
Y01207*
X03093Y01198*
X03094Y01195*
X03091Y0119*
X02892*
X02889Y01195*
X0289Y01198*
X02891Y01207*
Y01242*
X0289Y01251*
X02887Y01259*
X02881Y01266*
X02874Y01271*
X02866Y01275*
X02857Y01276*
X0285*
X02841Y01275*
X02833Y01271*
X02826Y01266*
X0282Y01259*
X02817Y01251*
X02816Y01242*
Y01207*
X02817Y01198*
X02819Y01195*
X02815Y0119*
X02486*
X02483*
X02478Y01191*
X02473Y01193*
X02468Y01196*
X02464Y012*
X02461Y01204*
X02459Y01209*
X02458Y01214*
Y01217*
Y01723*
X02459Y01724*
X02465Y01722*
X02467Y01719*
X02475Y01714*
X02484Y01713*
X02493Y01714*
X025Y01719*
X02505Y01727*
X02507Y01736*
X02505Y01745*
X02508Y01749*
X02512Y01751*
X02517Y01758*
X02519Y01767*
X02517Y01776*
X02512Y01784*
X02505Y01788*
X02505Y01791*
X02505Y01794*
X02512Y01798*
X02517Y01806*
X02519Y01815*
X02517Y01823*
X02512Y01831*
X02506Y01834*
X02506Y0184*
X02508Y01841*
X02513Y01849*
X02515Y01858*
X02513Y01867*
X02509Y01872*
X02513Y01878*
X02515Y01886*
X02513Y01895*
X0251Y019*
X02513Y01905*
X02514Y01914*
X02513Y01922*
X0251Y01927*
X02508Y01931*
X0251Y01935*
X02513Y0194*
X02515Y01948*
X02513Y01957*
X02508Y01965*
X02513Y01972*
X02515Y01981*
X02513Y0199*
X0251Y01995*
X02513Y02*
X02515Y02008*
X02513Y02017*
X02516Y02019*
X02521Y02026*
X02523Y02035*
X02521Y02044*
X02516Y02051*
X02508Y02056*
X025Y02058*
X02491Y02056*
X02483Y02051*
X02478Y02044*
X02476Y02035*
X02478Y02027*
X02475Y02025*
X0247Y02017*
X02469Y02008*
X0247Y02*
X02474Y01995*
X0247Y0199*
X02469Y01981*
X0247Y01972*
X02475Y01965*
X0247Y01957*
X02469Y01948*
X0247Y0194*
X02473Y01935*
X02475Y01931*
X02473Y01927*
X0247Y01922*
X02468Y01914*
X0247Y01905*
X02473Y019*
X0247Y01895*
X02469Y01886*
X0247Y01878*
X02474Y01872*
X0247Y01867*
X02469Y01858*
X0247Y01849*
X02475Y01841*
X02481Y01838*
X02481Y01832*
X02479Y01831*
X02474Y01823*
X02473Y01815*
X02474Y01806*
X02479Y01798*
X02486Y01794*
X02487Y01791*
X02486Y01788*
X02479Y01784*
X02474Y01776*
X02473Y01767*
X02474Y01758*
X02471Y01754*
X02467Y01752*
X02465Y01749*
X02459Y01748*
X02458Y01749*
Y02065*
X02458Y02067*
X02459Y02071*
X02462Y02074*
X02466Y02077*
X02468Y02077*
X02469Y02077*
X02469Y02078*
X02478Y02081*
X02478Y02081*
X02479Y02081*
X02495Y0209*
X02496Y0209*
X02497Y02091*
X02511Y02102*
X02512Y02102*
X02513Y02103*
X02526Y02116*
X02526Y02117*
X02527Y02117*
X02537Y02132*
X02538Y02133*
X02538Y02133*
X02546Y0215*
X02547Y02151*
X02547Y02151*
X02553Y02169*
X02553Y0217*
X02553Y02171*
X02556Y02189*
X02556Y0219*
X02556Y0219*
X02556Y02209*
X02556Y0221*
X02556Y0221*
X02553Y02229*
X02552Y02229*
X02552Y0223*
X02546Y02248*
X02546Y02248*
X02546Y02249*
X02537Y02266*
X02537Y02266*
X02537Y02267*
X02526Y02282*
X02525Y02282*
X02525Y02283*
X02512Y02296*
X02511Y02297*
X0251Y02297*
X02495Y02308*
X02495Y02308*
X02494Y02309*
X02478Y02317*
X02477Y02317*
X02477Y02318*
X02468Y02321*
X02468*
X02467Y02321*
X02465Y02322*
X02462Y02324*
X02459Y02328*
X02458Y02332*
X02458Y02334*
Y03912*
X02458Y03914*
X0246Y03919*
X02463Y03923*
X02468Y03925*
X0247Y03925*
X02522*
X02523*
X02523*
X02532Y03925*
X02533Y03926*
X02533*
X02552Y03929*
X02552Y03929*
X02553Y03929*
X02571Y03935*
X02571Y03935*
X02572Y03936*
X02589Y03944*
X02589Y03945*
X0259Y03945*
X02605Y03956*
X02605Y03956*
X02606Y03957*
X02619Y0397*
X02619Y03971*
X0262Y03971*
X02631Y03986*
X02631Y03987*
X02632Y03988*
X0264Y04004*
X0264Y04005*
X0264Y04006*
X02646Y04023*
X02646Y04024*
X02646Y04025*
X02649Y04043*
Y04044*
X02649Y04045*
X02649Y04063*
X02649Y04064*
X02649Y04065*
X02646Y04083*
X02646Y04084*
X02646Y04085*
X0264Y04102*
X0264Y04103*
X02639Y04104*
X02631Y0412*
X0263Y04121*
X0263Y04121*
X02619Y04136*
X02619Y04137*
X02618Y04138*
X02605Y04151*
X02604Y04151*
X02604Y04152*
X02589Y04162*
X02588Y04163*
X02587Y04163*
X02571Y04172*
X0257Y04172*
X02569Y04172*
X02552Y04178*
X02551Y04178*
X0255Y04178*
X02532Y04181*
X02531*
X02531Y04181*
X02522Y04182*
X02521*
X02521*
X02471*
X02468Y04182*
X02464Y04184*
X0246Y04187*
X02458Y04192*
X02458Y04194*
Y0437*
X02458Y04372*
X02459Y04377*
X02461Y04382*
X02464Y04387*
X02468Y04391*
X02472Y04394*
X02477Y04396*
X02483Y04397*
X02485Y04397*
X03285*
X03342*
X03344Y04392*
X03343Y04384*
X03344Y04376*
X03349Y04368*
X03357Y04363*
X03366Y04361*
X03375Y04363*
X03382Y04368*
X03387Y04376*
X03389Y04384*
X03387Y04393*
Y04393*
X0339Y04398*
X03402Y04397*
G37*
%LNright_board-2*%
%LPC*%
G36*
X03007Y04361D02*
X02999Y04359D01*
X02991Y04354*
X02986Y04347*
X02984Y04338*
X02986Y04329*
X02991Y04322*
X02999Y04317*
X03007Y04315*
X03016Y04317*
X03024Y04322*
X03029Y04329*
X03031Y04338*
X03029Y04347*
X03024Y04354*
X03016Y04359*
X03007Y04361*
G37*
G36*
X02826Y0431D02*
X02817Y04308D01*
X0281Y04303*
X02805Y04296*
X02803Y04287*
X02805Y04278*
X02806Y04277*
X02805Y04277*
X02802Y04273*
X02795Y04275*
X02786Y04273*
X02779Y04268*
X02774Y0426*
X02772Y04252*
X02774Y04243*
X02779Y04235*
X02786Y0423*
X02795Y04228*
X02804Y0423*
X02811Y04235*
X02816Y04243*
X02818Y04252*
X02816Y0426*
X02816Y04261*
X02816Y04262*
X02819Y04265*
X02826Y04264*
X02834Y04265*
X02837Y04262*
X02837Y04261*
X02836Y0426*
X02835Y04252*
X02836Y04243*
X02841Y04235*
X02849Y0423*
X02858Y04228*
X02867Y0423*
X02874Y04235*
X02879Y04243*
X02881Y04252*
X02879Y0426*
X02874Y04268*
X02867Y04273*
X02858Y04275*
X0285Y04273*
X02847Y04277*
X02847Y04277*
X02848Y04278*
X02849Y04287*
X02848Y04296*
X02843Y04303*
X02835Y04308*
X02826Y0431*
G37*
G36*
X03189Y04314D02*
X0318Y04312D01*
X03172Y04307*
X03167Y043*
X03165Y04291*
X03167Y04282*
X03172Y04275*
X0318Y0427*
X03189Y04268*
X03197Y0427*
X03205Y04275*
X0321Y04282*
X03212Y04291*
X0321Y043*
X03205Y04307*
X03197Y04312*
X03189Y04314*
G37*
G36*
X03542Y04305D02*
X03533Y04303D01*
X03526Y04298*
X03521Y04291*
X03519Y04282*
X03521Y04273*
X03526Y04266*
X03533Y04261*
X03542Y04259*
X03551Y04261*
X03558Y04266*
X03563Y04273*
X03565Y04282*
X03563Y04291*
X03558Y04298*
X03551Y04303*
X03542Y04305*
G37*
G36*
X02681Y04247D02*
X02672Y04245D01*
X02664Y0424*
X02662Y04237*
X02656*
X02654Y0424*
X02646Y04245*
X02637Y04247*
X02629Y04245*
X02621Y0424*
X02616Y04233*
X02614Y04224*
X02616Y04215*
X02621Y04208*
X02629Y04203*
X02637Y04201*
X02646Y04203*
X02654Y04208*
X02656Y04211*
X02662*
X02664Y04208*
X02672Y04203*
X02681Y04201*
X02689Y04203*
X02697Y04208*
X02702Y04215*
X02704Y04224*
X02702Y04233*
X02697Y0424*
X02689Y04245*
X02681Y04247*
G37*
G36*
X03448Y04262D02*
X03441Y04261D01*
X03433Y04258*
X03427Y04253*
X03423Y04247*
X0342Y0424*
X03419Y04232*
X0342Y04224*
X03423Y04217*
X03427Y04211*
X03433Y04206*
X03441Y04203*
X03448Y04202*
X03456Y04203*
X03463Y04206*
X03469Y04211*
X03474Y04217*
X03477Y04224*
X03478Y04232*
X03477Y0424*
X03474Y04247*
X03469Y04253*
X03463Y04258*
X03456Y04261*
X03448Y04262*
G37*
G36*
X02984Y04253D02*
X02975Y04251D01*
X02967Y04246*
X02962Y04239*
X02961Y0423*
X02962Y04221*
X02967Y04213*
X02975Y04208*
X02983Y04207*
X02984Y04205*
X02985Y04202*
X02983Y04201*
X02978Y04193*
X02976Y04185*
X02978Y04176*
X02983Y04168*
X02991Y04163*
X03Y04162*
X03008Y04163*
X03016Y04168*
X03021Y04176*
X03023Y04185*
X03021Y04193*
X03016Y04201*
X03008Y04206*
X03Y04208*
X02999Y0421*
X02999Y04213*
X03Y04213*
X03005Y04221*
X03007Y0423*
X03005Y04239*
X03Y04246*
X02993Y04251*
X02984Y04253*
G37*
G36*
X03326Y04176D02*
X03317Y04174D01*
X0331Y04169*
X03305Y04162*
X03303Y04153*
X03305Y04144*
X0331Y04137*
X03317Y04132*
X03326Y0413*
X03335Y04132*
X03343Y04137*
X03348Y04144*
X03349Y04153*
X03348Y04162*
X03343Y04169*
X03335Y04174*
X03326Y04176*
G37*
G36*
X03189D02*
X0318Y04174D01*
X03172Y04169*
X03167Y04162*
X03165Y04153*
X03167Y04144*
X03172Y04137*
X0318Y04132*
X03189Y0413*
X03197Y04132*
X03205Y04137*
X0321Y04144*
X03212Y04153*
X0321Y04162*
X03205Y04169*
X03197Y04174*
X03189Y04176*
G37*
G36*
X03051D02*
X03042Y04174D01*
X03034Y04169*
X03029Y04162*
X03028Y04153*
X03029Y04144*
X03034Y04137*
X03042Y04132*
X03051Y0413*
X0306Y04132*
X03067Y04137*
X03072Y04144*
X03074Y04153*
X03072Y04162*
X03067Y04169*
X0306Y04174*
X03051Y04176*
G37*
G36*
X03527Y04148D02*
X03518Y04146D01*
X03511Y04141*
X03506Y04133*
X03504Y04125*
X03506Y04116*
X03511Y04108*
X03518Y04103*
X03527Y04101*
X03536Y04103*
X03543Y04108*
X03548Y04116*
X0355Y04125*
X03548Y04133*
X03543Y04141*
X03536Y04146*
X03527Y04148*
G37*
G36*
X03326Y04038D02*
X03317Y04037D01*
X0331Y04032*
X03305Y04024*
X03303Y04015*
X03305Y04006*
X0331Y03999*
X03317Y03994*
X03326Y03992*
X03335Y03994*
X03343Y03999*
X03348Y04006*
X03349Y04015*
X03348Y04024*
X03343Y04032*
X03335Y04037*
X03326Y04038*
G37*
G36*
X03189D02*
X0318Y04037D01*
X03172Y04032*
X03167Y04024*
X03165Y04015*
X03167Y04006*
X03172Y03999*
X0318Y03994*
X03189Y03992*
X03197Y03994*
X03205Y03999*
X0321Y04006*
X03212Y04015*
X0321Y04024*
X03205Y04032*
X03197Y04037*
X03189Y04038*
G37*
G36*
X03051D02*
X03042Y04037D01*
X03034Y04032*
X03029Y04024*
X03028Y04015*
X03029Y04006*
X03034Y03999*
X03042Y03994*
X03051Y03992*
X0306Y03994*
X03067Y03999*
X03072Y04006*
X03074Y04015*
X03072Y04024*
X03067Y04032*
X0306Y04037*
X03051Y04038*
G37*
G36*
X03464Y03901D02*
X03455Y03899D01*
X03448Y03894*
X03443Y03886*
X03441Y03878*
X03443Y03869*
X03448Y03861*
X03455Y03856*
X03464Y03854*
X03473Y03856*
X0348Y03861*
X03485Y03869*
X03487Y03878*
X03485Y03886*
X0348Y03894*
X03473Y03899*
X03464Y03901*
G37*
G36*
X03326D02*
X03317Y03899D01*
X0331Y03894*
X03305Y03886*
X03303Y03878*
X03305Y03869*
X0331Y03861*
X03317Y03856*
X03326Y03854*
X03335Y03856*
X03343Y03861*
X03348Y03869*
X03349Y03878*
X03348Y03886*
X03343Y03894*
X03335Y03899*
X03326Y03901*
G37*
G36*
X03189D02*
X0318Y03899D01*
X03172Y03894*
X03167Y03886*
X03165Y03878*
X03167Y03869*
X03172Y03861*
X0318Y03856*
X03189Y03854*
X03197Y03856*
X03205Y03861*
X0321Y03869*
X03212Y03878*
X0321Y03886*
X03205Y03894*
X03197Y03899*
X03189Y03901*
G37*
G36*
X02779D02*
X0277Y03899D01*
X02763Y03894*
X02758Y03886*
X02756Y03878*
X02758Y03869*
X02763Y03861*
X0277Y03856*
X02779Y03854*
X02788Y03856*
X02795Y03861*
X028Y03869*
X02802Y03878*
X028Y03886*
X02795Y03894*
X02788Y03899*
X02779Y03901*
G37*
G36*
X0255Y03906D02*
X02536Y03905D01*
X02522Y039*
X02509Y03894*
X02498Y03885*
X02489Y03874*
X02482Y03861*
X02478Y03847*
X02477Y03833*
X02478Y03819*
X02482Y03805*
X02489Y03792*
X02498Y03781*
X02509Y03772*
X02522Y03765*
X02536Y03761*
X0255Y0376*
X02564Y03761*
X02578Y03765*
X02591Y03772*
X02602Y03781*
X02611Y03792*
X02618Y03805*
X02622Y03819*
X02623Y03833*
X02622Y03847*
X02619Y03857*
X02623Y0386*
X02629Y03856*
X02637Y03854*
X02646Y03856*
X02654Y03861*
X02659Y03869*
X0266Y03878*
X02659Y03886*
X02654Y03894*
X02646Y03899*
X02637Y03901*
X02629Y03899*
X02621Y03894*
X02616Y03886*
X02614Y03878*
X02614Y03877*
X0261Y03875*
X02602Y03885*
X02591Y03894*
X02578Y039*
X02564Y03905*
X0255Y03906*
G37*
G36*
X03051Y03901D02*
X03042Y03899D01*
X03034Y03894*
X03029Y03886*
X03028Y03878*
X03029Y03869*
X03034Y03861*
X03042Y03856*
X03051Y03854*
X0306Y03856*
X03067Y03861*
X03072Y03869*
X03074Y03878*
X03072Y03886*
X03067Y03894*
X0306Y03899*
X03051Y03901*
G37*
G36*
X02913D02*
X02904Y03899D01*
X02897Y03894*
X02892Y03886*
X0289Y03878*
X02892Y03869*
X02897Y03861*
X02904Y03856*
X02913Y03854*
X02922Y03856*
X02929Y03861*
X02934Y03869*
X02936Y03878*
X02934Y03886*
X02929Y03894*
X02922Y03899*
X02913Y03901*
G37*
G36*
X03602Y03763D02*
X03593Y03761D01*
X03586Y03756*
X03581Y03749*
X03579Y0374*
X03581Y03731*
X03586Y03723*
X03593Y03718*
X03602Y03717*
X03611Y03718*
X03618Y03723*
X03623Y03731*
X03625Y0374*
X03623Y03749*
X03618Y03756*
X03611Y03761*
X03602Y03763*
G37*
G36*
X03464D02*
X03455Y03761D01*
X03448Y03756*
X03443Y03749*
X03441Y0374*
X03443Y03731*
X03448Y03723*
X03455Y03718*
X03464Y03717*
X03473Y03718*
X0348Y03723*
X03485Y03731*
X03487Y0374*
X03485Y03749*
X0348Y03756*
X03473Y03761*
X03464Y03763*
G37*
G36*
X03326D02*
X03317Y03761D01*
X0331Y03756*
X03305Y03749*
X03303Y0374*
X03305Y03731*
X0331Y03723*
X03317Y03718*
X03326Y03717*
X03335Y03718*
X03343Y03723*
X03348Y03731*
X03349Y0374*
X03348Y03749*
X03343Y03756*
X03335Y03761*
X03326Y03763*
G37*
G36*
X03189D02*
X0318Y03761D01*
X03172Y03756*
X03167Y03749*
X03165Y0374*
X03167Y03731*
X03172Y03723*
X0318Y03718*
X03189Y03717*
X03197Y03718*
X03205Y03723*
X0321Y03731*
X03212Y0374*
X0321Y03749*
X03205Y03756*
X03197Y03761*
X03189Y03763*
G37*
G36*
X02637D02*
X02629Y03761D01*
X02621Y03756*
X02616Y03749*
X02614Y0374*
X02616Y03731*
X02621Y03723*
X02629Y03718*
X02637Y03717*
X02646Y03718*
X02654Y03723*
X02659Y03731*
X0266Y0374*
X02659Y03749*
X02654Y03756*
X02646Y03761*
X02637Y03763*
G37*
G36*
X025D02*
X02491Y03761D01*
X02483Y03756*
X02478Y03749*
X02476Y0374*
X02478Y03731*
X02483Y03723*
X02491Y03718*
X025Y03717*
X02508Y03718*
X02516Y03723*
X02521Y03731*
X02523Y0374*
X02521Y03749*
X02516Y03756*
X02508Y03761*
X025Y03763*
G37*
G36*
X0371Y03785D02*
X03695Y03784D01*
X03682Y0378*
X03669Y03773*
X03658Y03764*
X03649Y03753*
X03642Y0374*
X03638Y03726*
X03636Y03712*
X03638Y03698*
X03642Y03684*
X03649Y03671*
X03658Y0366*
X03669Y03651*
X03682Y03644*
X03695Y0364*
X0371Y03639*
X03724Y0364*
X03738Y03644*
X0375Y03651*
X03761Y0366*
X0377Y03671*
X03777Y03684*
X03781Y03698*
X03783Y03712*
X03781Y03726*
X03777Y0374*
X0377Y03753*
X03761Y03764*
X0375Y03773*
X03738Y0378*
X03724Y03784*
X0371Y03785*
G37*
G36*
X03464Y03625D02*
X03455Y03623D01*
X03448Y03618*
X03443Y03611*
X03441Y03602*
X03443Y03593*
X03448Y03586*
X03455Y03581*
X03464Y03579*
X03473Y03581*
X0348Y03586*
X03485Y03593*
X03487Y03602*
X03485Y03611*
X0348Y03618*
X03473Y03623*
X03464Y03625*
G37*
G36*
X03326D02*
X03317Y03623D01*
X0331Y03618*
X03305Y03611*
X03303Y03602*
X03305Y03593*
X0331Y03586*
X03317Y03581*
X03326Y03579*
X03335Y03581*
X03343Y03586*
X03348Y03593*
X03349Y03602*
X03348Y03611*
X03343Y03618*
X03335Y03623*
X03326Y03625*
G37*
G36*
X03189D02*
X0318Y03623D01*
X03172Y03618*
X03167Y03611*
X03165Y03602*
X03167Y03593*
X03172Y03586*
X0318Y03581*
X03189Y03579*
X03197Y03581*
X03205Y03586*
X0321Y03593*
X03212Y03602*
X0321Y03611*
X03205Y03618*
X03197Y03623*
X03189Y03625*
G37*
G36*
X02637D02*
X02629Y03623D01*
X02621Y03618*
X02616Y03611*
X02614Y03602*
X02616Y03593*
X02621Y03586*
X02629Y03581*
X02637Y03579*
X02646Y03581*
X02654Y03586*
X02659Y03593*
X0266Y03602*
X02659Y03611*
X02654Y03618*
X02646Y03623*
X02637Y03625*
G37*
G36*
X025D02*
X02491Y03623D01*
X02483Y03618*
X02478Y03611*
X02476Y03602*
X02478Y03593*
X02483Y03586*
X02491Y03581*
X025Y03579*
X02508Y03581*
X02516Y03586*
X02521Y03593*
X02523Y03602*
X02521Y03611*
X02516Y03618*
X02508Y03623*
X025Y03625*
G37*
G36*
X0294Y03815D02*
X02922Y03813D01*
X02903Y03809*
X02886Y03802*
X0287Y03792*
X02856Y0378*
X02844Y03766*
X02835Y0375*
X02827Y03733*
X02823Y03715*
X02822Y03696*
X02823Y03678*
X02827Y0366*
X02835Y03643*
X02844Y03627*
X02856Y03613*
X0287Y03601*
X02886Y03591*
X02903Y03584*
X02922Y03579*
X0294Y03578*
X02959Y03579*
X02977Y03584*
X02994Y03591*
X0301Y03601*
X03024Y03613*
X03036Y03627*
X03046Y03643*
X03053Y0366*
X03057Y03678*
X03059Y03696*
X03057Y03715*
X03053Y03733*
X03046Y0375*
X03036Y03766*
X03024Y0378*
X0301Y03792*
X02994Y03802*
X02977Y03809*
X02959Y03813*
X0294Y03815*
G37*
G36*
X03326Y03487D02*
X03317Y03485D01*
X0331Y0348*
X03305Y03473*
X03303Y03464*
X03305Y03455*
X0331Y03448*
X03317Y03443*
X03326Y03441*
X03335Y03443*
X03343Y03448*
X03348Y03455*
X03349Y03464*
X03348Y03473*
X03343Y0348*
X03335Y03485*
X03326Y03487*
G37*
G36*
X03189D02*
X0318Y03485D01*
X03172Y0348*
X03167Y03473*
X03165Y03464*
X03167Y03455*
X03172Y03448*
X0318Y03443*
X03189Y03441*
X03197Y03443*
X03205Y03448*
X0321Y03455*
X03212Y03464*
X0321Y03473*
X03205Y0348*
X03197Y03485*
X03189Y03487*
G37*
G36*
X03051D02*
X03042Y03485D01*
X03034Y0348*
X03029Y03473*
X03028Y03464*
X03029Y03455*
X03034Y03448*
X03042Y03443*
X03051Y03441*
X0306Y03443*
X03067Y03448*
X03072Y03455*
X03074Y03464*
X03072Y03473*
X03067Y0348*
X0306Y03485*
X03051Y03487*
G37*
G36*
X02913D02*
X02904Y03485D01*
X02897Y0348*
X02892Y03473*
X0289Y03464*
X02892Y03455*
X02897Y03448*
X02904Y03443*
X02913Y03441*
X02922Y03443*
X02929Y03448*
X02934Y03455*
X02936Y03464*
X02934Y03473*
X02929Y0348*
X02922Y03485*
X02913Y03487*
G37*
G36*
X02775D02*
X02766Y03485D01*
X02759Y0348*
X02754Y03473*
X02752Y03464*
X02754Y03455*
X02759Y03448*
X02766Y03443*
X02775Y03441*
X02784Y03443*
X02791Y03448*
X02796Y03455*
X02798Y03464*
X02796Y03473*
X02791Y0348*
X02784Y03485*
X02775Y03487*
G37*
G36*
X02637D02*
X02629Y03485D01*
X02621Y0348*
X02616Y03473*
X02614Y03464*
X02616Y03455*
X02621Y03448*
X02629Y03443*
X02637Y03441*
X02646Y03443*
X02654Y03448*
X02659Y03455*
X0266Y03464*
X02659Y03473*
X02654Y0348*
X02646Y03485*
X02637Y03487*
G37*
G36*
X025D02*
X02491Y03485D01*
X02483Y0348*
X02478Y03473*
X02476Y03464*
X02478Y03455*
X02483Y03448*
X02491Y03443*
X025Y03441*
X02508Y03443*
X02516Y03448*
X02521Y03455*
X02523Y03464*
X02521Y03473*
X02516Y0348*
X02508Y03485*
X025Y03487*
G37*
G36*
X03326Y03349D02*
X03317Y03348D01*
X0331Y03343*
X03305Y03335*
X03303Y03326*
X03305Y03317*
X0331Y0331*
X03317Y03305*
X03326Y03303*
X03335Y03305*
X03343Y0331*
X03348Y03317*
X03349Y03326*
X03348Y03335*
X03343Y03343*
X03335Y03348*
X03326Y03349*
G37*
G36*
X03189D02*
X0318Y03348D01*
X03172Y03343*
X03167Y03335*
X03165Y03326*
X03167Y03317*
X03172Y0331*
X0318Y03305*
X03189Y03303*
X03197Y03305*
X03205Y0331*
X0321Y03317*
X03212Y03326*
X0321Y03335*
X03205Y03343*
X03197Y03348*
X03189Y03349*
G37*
G36*
X03051D02*
X03042Y03348D01*
X03034Y03343*
X03029Y03335*
X03028Y03326*
X03029Y03317*
X03034Y0331*
X03042Y03305*
X03051Y03303*
X0306Y03305*
X03067Y0331*
X03072Y03317*
X03074Y03326*
X03072Y03335*
X03067Y03343*
X0306Y03348*
X03051Y03349*
G37*
G36*
X02913D02*
X02904Y03348D01*
X02897Y03343*
X02892Y03335*
X0289Y03326*
X02892Y03317*
X02897Y0331*
X02904Y03305*
X02913Y03303*
X02922Y03305*
X02929Y0331*
X02934Y03317*
X02936Y03326*
X02934Y03335*
X02929Y03343*
X02922Y03348*
X02913Y03349*
G37*
G36*
X02775D02*
X02766Y03348D01*
X02759Y03343*
X02754Y03335*
X02752Y03326*
X02754Y03317*
X02759Y0331*
X02766Y03305*
X02775Y03303*
X02784Y03305*
X02791Y0331*
X02796Y03317*
X02798Y03326*
X02796Y03335*
X02791Y03343*
X02784Y03348*
X02775Y03349*
G37*
G36*
X02637D02*
X02629Y03348D01*
X02621Y03343*
X02616Y03335*
X02614Y03326*
X02616Y03317*
X02621Y0331*
X02629Y03305*
X02637Y03303*
X02646Y03305*
X02654Y0331*
X02659Y03317*
X0266Y03326*
X02659Y03335*
X02654Y03343*
X02646Y03348*
X02637Y03349*
G37*
G36*
X025D02*
X02491Y03348D01*
X02483Y03343*
X02478Y03335*
X02476Y03326*
X02478Y03317*
X02483Y0331*
X02491Y03305*
X025Y03303*
X02508Y03305*
X02516Y0331*
X02521Y03317*
X02523Y03326*
X02521Y03335*
X02516Y03343*
X02508Y03348*
X025Y03349*
G37*
G36*
X03051Y03212D02*
X03042Y0321D01*
X03034Y03205*
X03029Y03197*
X03028Y03189*
X03029Y0318*
X03034Y03172*
X03042Y03167*
X03051Y03165*
X0306Y03167*
X03067Y03172*
X03072Y0318*
X03074Y03189*
X03072Y03197*
X03067Y03205*
X0306Y0321*
X03051Y03212*
G37*
G36*
X02775D02*
X02766Y0321D01*
X02759Y03205*
X02754Y03197*
X02752Y03189*
X02754Y0318*
X02759Y03172*
X02766Y03167*
X02775Y03165*
X02784Y03167*
X02791Y03172*
X02796Y0318*
X02798Y03189*
X02796Y03197*
X02791Y03205*
X02784Y0321*
X02775Y03212*
G37*
G36*
X03326D02*
X03317Y0321D01*
X0331Y03205*
X03305Y03197*
X03303Y03189*
X03305Y0318*
X0331Y03172*
X03317Y03167*
X03326Y03165*
X03335Y03167*
X03343Y03172*
X03348Y0318*
X03349Y03189*
X03348Y03197*
X03343Y03205*
X03335Y0321*
X03326Y03212*
G37*
G36*
X03189D02*
X0318Y0321D01*
X03172Y03205*
X03167Y03197*
X03165Y03189*
X03167Y0318*
X03172Y03172*
X0318Y03167*
X03189Y03165*
X03197Y03167*
X03205Y03172*
X0321Y0318*
X03212Y03189*
X0321Y03197*
X03205Y03205*
X03197Y0321*
X03189Y03212*
G37*
G36*
X02913D02*
X02904Y0321D01*
X02897Y03205*
X02892Y03197*
X0289Y03189*
X02892Y0318*
X02897Y03172*
X02904Y03167*
X02913Y03165*
X02922Y03167*
X02929Y03172*
X02934Y0318*
X02936Y03189*
X02934Y03197*
X02929Y03205*
X02922Y0321*
X02913Y03212*
G37*
G36*
X02637D02*
X02629Y0321D01*
X02621Y03205*
X02616Y03197*
X02614Y03189*
X02616Y0318*
X02621Y03172*
X02629Y03167*
X02637Y03165*
X02646Y03167*
X02654Y03172*
X02659Y0318*
X0266Y03189*
X02659Y03197*
X02654Y03205*
X02646Y0321*
X02637Y03212*
G37*
G36*
X025D02*
X02491Y0321D01*
X02483Y03205*
X02478Y03197*
X02476Y03189*
X02478Y0318*
X02483Y03172*
X02491Y03167*
X025Y03165*
X02508Y03167*
X02516Y03172*
X02521Y0318*
X02523Y03189*
X02521Y03197*
X02516Y03205*
X02508Y0321*
X025Y03212*
G37*
G36*
X03517Y03087D02*
X03508Y03085D01*
X03503Y03081*
X03498Y03085*
X03489Y03087*
X0348Y03085*
X03472Y0308*
X03467Y03072*
X03466Y03064*
X03467Y03055*
X03472Y03047*
X0348Y03042*
X03489Y0304*
X03498Y03042*
X03503Y03046*
X03508Y03042*
X03517Y0304*
X03526Y03042*
X03534Y03047*
X03539Y03055*
X0354Y03064*
X03539Y03072*
X03534Y0308*
X03526Y03085*
X03517Y03087*
G37*
G36*
X03189Y03074D02*
X0318Y03072D01*
X03172Y03067*
X03167Y0306*
X03165Y03051*
X03167Y03042*
X03172Y03034*
X0318Y03029*
X03189Y03028*
X03197Y03029*
X03205Y03034*
X0321Y03042*
X03212Y03051*
X0321Y0306*
X03205Y03067*
X03197Y03072*
X03189Y03074*
G37*
G36*
X03051D02*
X03042Y03072D01*
X03034Y03067*
X03029Y0306*
X03028Y03051*
X03029Y03042*
X03034Y03034*
X03042Y03029*
X03051Y03028*
X0306Y03029*
X03067Y03034*
X03072Y03042*
X03074Y03051*
X03072Y0306*
X03067Y03067*
X0306Y03072*
X03051Y03074*
G37*
G36*
X03326D02*
X03317Y03072D01*
X0331Y03067*
X03305Y0306*
X03303Y03051*
X03305Y03042*
X0331Y03034*
X03317Y03029*
X03326Y03028*
X03335Y03029*
X03343Y03034*
X03348Y03042*
X03349Y03051*
X03348Y0306*
X03343Y03067*
X03335Y03072*
X03326Y03074*
G37*
G36*
X02774D02*
X02765Y03072D01*
X02758Y03067*
X02753Y0306*
X02751Y03051*
X02753Y03042*
X02758Y03034*
X02765Y03029*
X02774Y03028*
X02783Y03029*
X0279Y03034*
X02795Y03042*
X02797Y03051*
X02795Y0306*
X0279Y03067*
X02783Y03072*
X02774Y03074*
G37*
G36*
X02637D02*
X02629Y03072D01*
X02621Y03067*
X02616Y0306*
X02614Y03051*
X02616Y03042*
X02621Y03034*
X02629Y03029*
X02637Y03028*
X02646Y03029*
X02654Y03034*
X02659Y03042*
X0266Y03051*
X02659Y0306*
X02654Y03067*
X02646Y03072*
X02637Y03074*
G37*
G36*
X025D02*
X02491Y03072D01*
X02483Y03067*
X02478Y0306*
X02476Y03051*
X02478Y03042*
X02483Y03034*
X02491Y03029*
X025Y03028*
X02508Y03029*
X02516Y03034*
X02521Y03042*
X02523Y03051*
X02521Y0306*
X02516Y03067*
X02508Y03072*
X025Y03074*
G37*
G36*
X03615Y03089D02*
X03606Y03087D01*
X03598Y03082*
X03593Y03074*
X03592Y03065*
X03593Y03057*
X03597Y03051*
X03593Y03046*
X03592Y03037*
X03593Y03028*
X03598Y03021*
X03606Y03016*
X03615Y03014*
X03624Y03016*
X03631Y03021*
X03636Y03028*
X03638Y03037*
X03636Y03046*
X03632Y03051*
X03636Y03057*
X03638Y03065*
X03636Y03074*
X03631Y03082*
X03624Y03087*
X03615Y03089*
G37*
G36*
X02679Y03D02*
X0267Y02998D01*
X02664Y02994*
X02658Y02998*
X02649Y03*
X0264Y02998*
X02633Y02993*
X02628Y02986*
X02626Y02977*
X02628Y02968*
X02633Y02961*
X0264Y02956*
X02649Y02954*
X02658Y02956*
X02664Y0296*
X0267Y02956*
X02679Y02954*
X02688Y02956*
X02695Y02961*
X027Y02968*
X02702Y02977*
X027Y02986*
X02695Y02993*
X02688Y02998*
X02679Y03*
G37*
G36*
X02949Y03057D02*
X02941Y03055D01*
X02933Y0305*
X02928Y03043*
X02926Y03034*
X02928Y03025*
X02925Y03021*
X0292Y03018*
X02915Y0301*
X02913Y03002*
X02915Y02993*
X0292Y02985*
X02928Y0298*
X02937Y02978*
X02945Y0298*
X02953Y02985*
X02958Y02993*
X0296Y03002*
X02958Y0301*
X02961Y03015*
X02966Y03018*
X02971Y03025*
X02972Y03034*
X02971Y03043*
X02966Y0305*
X02958Y03055*
X02949Y03057*
G37*
G36*
X03495Y02984D02*
X03486Y02982D01*
X03478Y02977*
X03473Y0297*
X03472Y02961*
X03473Y02952*
X03478Y02945*
X03486Y0294*
X03495Y02938*
X03503Y0294*
X03511Y02945*
X03516Y02952*
X03518Y02961*
X03516Y0297*
X03511Y02977*
X03503Y02982*
X03495Y02984*
G37*
G36*
X02858Y02968D02*
X02849Y02966D01*
X02841Y02961*
X02836Y02953*
X02835Y02944*
X02836Y02936*
X02841Y02928*
X02849Y02923*
X02858Y02921*
X02867Y02923*
X02874Y02928*
X02874Y02927*
X02881Y02922*
X0289Y0292*
X02899Y02922*
X02907Y02927*
X02912Y02935*
X02913Y02943*
X02912Y02952*
X02907Y0296*
X02899Y02965*
X0289Y02967*
X02881Y02965*
X02875Y0296*
X02874Y02961*
X02867Y02966*
X02858Y02968*
G37*
G36*
X037Y02964D02*
X03692Y02962D01*
X03684Y02957*
X03679Y02949*
X03677Y0294*
X03679Y02932*
X03684Y02924*
X03692Y02919*
X037Y02917*
X03709Y02919*
X03717Y02924*
X03722Y02932*
X03723Y0294*
X03722Y02949*
X03717Y02957*
X03709Y02962*
X037Y02964*
G37*
G36*
X03607Y03001D02*
X03598Y02999D01*
X03591Y02994*
X03586Y02987*
X03584Y02978*
X03586Y02969*
X03591Y02962*
X0359Y02956*
X03586Y02953*
X03581Y02945*
X03579Y02937*
X03581Y02928*
X03586Y0292*
X03593Y02915*
X03602Y02913*
X03611Y02915*
X03618Y0292*
X03623Y02928*
X03625Y02937*
X03623Y02945*
X03618Y02953*
X03619Y02959*
X03623Y02962*
X03628Y02969*
X0363Y02978*
X03628Y02987*
X03623Y02994*
X03616Y02999*
X03607Y03001*
G37*
G36*
X02527Y02958D02*
X02518Y02956D01*
X02511Y02951*
X02506Y02943*
X02504Y02935*
X02506Y02926*
X02511Y02918*
X02518Y02913*
X02527Y02912*
X02536Y02913*
X02543Y02918*
X02548Y02926*
X0255Y02935*
X02548Y02943*
X02543Y02951*
X02536Y02956*
X02527Y02958*
G37*
G36*
X02712Y02957D02*
X02703Y02955D01*
X02696Y0295*
X02691Y02942*
X02689Y02934*
X02691Y02925*
X02696Y02917*
X02703Y02912*
X02712Y02911*
X02721Y02912*
X02728Y02917*
X02733Y02925*
X02735Y02934*
X02733Y02942*
X02728Y0295*
X02721Y02955*
X02712Y02957*
G37*
G36*
X0351Y02901D02*
X03502Y02899D01*
X03496Y02895*
X0349Y02899*
X03481Y02901*
X03472Y02899*
X03466Y02895*
X03459Y02899*
X0345Y02901*
X03442Y02899*
X03434Y02894*
X03429Y02886*
X03427Y02878*
X03429Y02869*
X03434Y02861*
X03442Y02856*
X0345Y02854*
X03459Y02856*
X03466Y0286*
X03472Y02856*
X03481Y02854*
X0349Y02856*
X03496Y0286*
X03502Y02856*
X0351Y02854*
X03519Y02856*
X03527Y02861*
X03532Y02869*
X03533Y02878*
X03532Y02886*
X03527Y02894*
X03519Y02899*
X0351Y02901*
G37*
G36*
X03396Y02935D02*
X03387Y02933D01*
X0338Y02928*
X03375Y02921*
X03373Y02912*
X03375Y02903*
X0338Y02896*
X03387Y02891*
X03396Y02889*
X03405Y02891*
X03413Y02896*
X03418Y02903*
X03419Y02912*
X03418Y02921*
X03413Y02928*
X03405Y02933*
X03396Y02935*
G37*
G36*
X02644Y02833D02*
X02635Y02831D01*
X02628Y02826*
X02623*
X02616Y02831*
X02607Y02833*
X02598Y02831*
X02591Y02826*
X02586*
X02578Y02831*
X02569Y02833*
X02561Y02831*
X02553Y02826*
X02548Y02818*
X02546Y0281*
X02548Y02801*
X02553Y02793*
X02561Y02788*
X02569Y02787*
X02578Y02788*
X02586Y02793*
X02591*
X02598Y02788*
X02607Y02787*
X02616Y02788*
X02623Y02793*
X02628*
X02635Y02788*
X02644Y02787*
X02653Y02788*
X02661Y02793*
X02666Y02801*
X02667Y0281*
X02666Y02818*
X02661Y02826*
X02653Y02831*
X02644Y02833*
G37*
G36*
X03166Y02805D02*
X03157Y02803D01*
X0315Y02798*
X03144Y02799*
X03139Y02802*
X0313Y02804*
X03122Y02802*
X03114Y02797*
X03109Y0279*
X03107Y02781*
X03109Y02772*
X03114Y02765*
X03122Y0276*
X0313Y02758*
X03139Y0276*
X03147Y02765*
X03152Y02764*
X03157Y02761*
X03166Y02759*
X03175Y02761*
X03182Y02766*
X03187Y02773*
X03189Y02782*
X03187Y02791*
X03182Y02798*
X03175Y02803*
X03166Y02805*
G37*
G36*
X0324Y02905D02*
X03231Y02903D01*
X03223Y02898*
X03218Y0289*
X03217Y02881*
X03218Y02873*
X03222Y02868*
X03218Y02863*
X03217Y02854*
X03218Y02845*
X03223Y02838*
X03231Y02833*
X0324Y02831*
X03241Y02831*
X03243Y02826*
X03242Y02826*
X03237Y02818*
X03235Y0281*
X03236Y02806*
X03233Y02801*
X03224Y02799*
X03216Y02794*
X03211Y02787*
X0321Y02778*
X03211Y02769*
X03216Y02762*
X03224Y02757*
X03233Y02755*
X03242Y02757*
X03249Y02762*
X03254Y02769*
X03256Y02778*
X03255Y02782*
X03258Y02787*
X03267Y02788*
X03275Y02793*
X03279*
X03286Y02788*
X03295Y02787*
X03304Y02788*
X03311Y02793*
X03316Y02801*
X03318Y0281*
X03316Y02818*
X03311Y02826*
X03304Y02831*
X03295Y02833*
X03286Y02831*
X03279Y02826*
X03275*
X03267Y02831*
X03258Y02833*
X03257Y02832*
X03255Y02837*
X03256Y02838*
X03261Y02845*
X03263Y02854*
X03261Y02863*
X03258Y02868*
X03261Y02873*
X03263Y02881*
X03261Y0289*
X03256Y02898*
X03249Y02903*
X0324Y02905*
G37*
G36*
X02712Y02818D02*
X02703Y02816D01*
X02696Y02811*
X02691Y02804*
X02689Y02795*
X02691Y02786*
X02696Y02779*
X02703Y02774*
X02712Y02772*
X02721Y02774*
X02728Y02779*
X02733Y02786*
X02735Y02795*
X02733Y02804*
X02728Y02811*
X02721Y02816*
X02712Y02818*
G37*
G36*
X02536Y02775D02*
X02527Y02773D01*
X02522Y02769*
X02516Y02773*
X02507Y02775*
X02499Y02773*
X02491Y02768*
X02486Y0276*
X02484Y02752*
X02486Y02743*
X02491Y02735*
X02499Y0273*
X02507Y02728*
X02516Y0273*
X02522Y02734*
X02527Y0273*
X02534Y02729*
X02536Y02728*
X02538Y02724*
X02537Y02718*
X02538Y02709*
X02543Y02702*
X02551Y02697*
X0256Y02695*
X02568Y02697*
X02576Y02702*
X02581Y02709*
X02583Y02718*
X02581Y02727*
X02576Y02734*
X02568Y02739*
X02562Y02741*
X02559Y02742*
X02558Y02746*
X02559Y02752*
X02557Y0276*
X02552Y02768*
X02545Y02773*
X02536Y02775*
G37*
G36*
X02809Y02821D02*
X028Y02819D01*
X02792Y02814*
X02787Y02807*
X02786Y02798*
X02787Y02789*
X02792Y02781*
X028Y02776*
X02809Y02775*
X02817Y02776*
X02819Y02778*
X02823Y02773*
X0283Y02768*
X02839Y02766*
X02848Y02768*
X02855Y02773*
X0286Y0278*
X02862Y02789*
X0286Y02798*
X02855Y02805*
X02848Y0281*
X02839Y02812*
X0283Y0281*
X02828Y02809*
X02825Y02814*
X02817Y02819*
X02809Y02821*
G37*
G36*
X03005Y02806D02*
X02997Y02804D01*
X02989Y02799*
X02984Y02792*
X02982Y02783*
X02984Y02774*
X02989Y02767*
X02997Y02762*
X03005Y0276*
X03014Y02762*
X03022Y02767*
X03027Y02774*
X03029Y02783*
X03027Y02792*
X03022Y02799*
X03014Y02804*
X03005Y02806*
G37*
G36*
X0289Y02756D02*
X02881Y02754D01*
X02874Y02749*
X02869Y02742*
X02867Y02733*
X02869Y02724*
X02874Y02716*
X02881Y02711*
X0289Y0271*
X02899Y02711*
X02907Y02716*
X02912Y02724*
X02913Y02733*
X02912Y02742*
X02907Y02749*
X02899Y02754*
X0289Y02756*
G37*
G36*
X03523Y02791D02*
X03514Y0279D01*
X03507Y02785*
X03502Y02777*
X035Y02768*
X03502Y02759*
X03505Y02754*
X03502Y0275*
X035Y02741*
X03502Y02732*
X03505Y02726*
X03502Y02721*
X035Y02712*
X03502Y02703*
X03505Y02698*
X03502Y02693*
X035Y02685*
X03502Y02676*
X03505Y02671*
X03502Y02666*
X035Y02657*
X03502Y02648*
X03507Y02641*
X03514Y02636*
X03523Y02634*
X03532Y02636*
X03539Y02641*
X03544Y02648*
X03546Y02657*
X03544Y02666*
X03541Y02671*
X03544Y02676*
X03546Y02685*
X03544Y02693*
X03541Y02698*
X03544Y02703*
X03546Y02712*
X03544Y02721*
X03541Y02726*
X03544Y02732*
X03546Y02741*
X03544Y0275*
X03541Y02754*
X03544Y02759*
X03546Y02768*
X03544Y02777*
X03539Y02785*
X03532Y0279*
X03523Y02791*
G37*
G36*
X03334Y0262D02*
X03325Y02619D01*
X03316Y02615*
X03309Y02609*
X03303Y02602*
X03299Y02593*
X03298Y02584*
X03299Y02575*
X03303Y02566*
X03309Y02559*
X03316Y02553*
X03325Y0255*
X03334Y02548*
X03343Y0255*
X03352Y02553*
X03359Y02559*
X03365Y02566*
X03368Y02575*
X0337Y02584*
X03368Y02593*
X03365Y02602*
X03359Y02609*
X03352Y02615*
X03343Y02619*
X03334Y0262*
G37*
G36*
X02546Y0263D02*
X02535Y02628D01*
X02524Y02624*
X02514Y02616*
X02507Y02607*
X02502Y02596*
X02501Y02584*
X02502Y02572*
X02507Y02561*
X02514Y02552*
X02524Y02545*
X02535Y0254*
X02546Y02538*
X02558Y0254*
X02569Y02545*
X02579Y02552*
X02586Y02561*
X02591Y02572*
X02592Y02584*
X02591Y02596*
X02586Y02607*
X02579Y02616*
X02569Y02624*
X02558Y02628*
X02546Y0263*
G37*
G36*
X02698Y02532D02*
X0269Y02531D01*
X02682Y02526*
X02677Y02518*
X02675Y02509*
X02676Y02506*
X02672Y02501*
X02669Y02502*
X0266Y025*
X02653Y02495*
X02648Y02488*
X02646Y02479*
X02648Y0247*
X02653Y02463*
X0266Y02458*
X02669Y02456*
X02678Y02458*
X02685Y02463*
X0269Y0247*
X02692Y02479*
X02691Y02483*
X02695Y02487*
X02698Y02486*
X02705Y02488*
X02708Y02483*
X02704Y02477*
X02702Y02468*
X02704Y02459*
X02709Y02452*
X02716Y02447*
X02725Y02445*
X02734Y02447*
X02738Y0245*
X02743Y02447*
X02743Y02447*
X02737Y02442*
X02732Y02435*
X0273Y02426*
X02732Y02417*
X02737Y0241*
X02745Y02405*
X02753Y02403*
X02762Y02405*
X0277Y0241*
X02775Y02417*
X02776Y02426*
X02775Y02432*
X02778Y02433*
X02783Y02436*
X02788Y02433*
X0279Y02433*
X02788Y02426*
X0279Y02417*
X02795Y0241*
X02803Y02405*
X02811Y02403*
X0282Y02405*
X02828Y0241*
X02833Y02417*
X02835Y02426*
X02833Y02435*
X02828Y02442*
X02824Y02445*
X02826Y0245*
X0283Y02449*
X02839Y02451*
X02844Y02454*
X02849Y02451*
X02856Y02449*
X02858Y02444*
Y02444*
X02855Y02442*
X0285Y02435*
X02848Y02426*
X0285Y02417*
X02855Y0241*
X02863Y02405*
X02872Y02403*
X0288Y02405*
X02888Y0241*
X02893Y02417*
X02895Y02426*
X02893Y02432*
X02896Y02433*
X02901Y02436*
X02906Y02433*
X02908Y02433*
X02907Y02426*
X02908Y02417*
X02913Y0241*
X02921Y02405*
X0293Y02403*
X02938Y02405*
X02946Y0241*
X02951Y02417*
X02953Y02426*
X02951Y02435*
X02946Y02442*
X02938Y02447*
X02937Y02448*
X02938Y02454*
X02936Y02463*
X02931Y02471*
X02924Y02476*
X02915Y02477*
X02906Y02476*
X02901Y02472*
X02896Y02476*
X02887Y02477*
X0288Y02476*
X02879Y02481*
X02874Y02488*
X02867Y02493*
X02858Y02495*
X02849Y02493*
X02844Y0249*
X02839Y02493*
X0283Y02495*
X02821Y02493*
X02814Y02488*
X02809Y02481*
X02809Y02479*
X02803Y02476*
X02797Y02477*
X02788Y02476*
X02783Y02472*
X02778Y02476*
X02769Y02477*
X0276Y02476*
X02753Y02471*
X02753Y0247*
X02747Y02471*
X02746Y02477*
X02741Y02484*
X02734Y02489*
X02725Y02491*
X02718Y0249*
X02716Y02494*
X0272Y02501*
X02721Y02509*
X0272Y02518*
X02715Y02526*
X02707Y02531*
X02698Y02532*
G37*
G36*
X03417Y02491D02*
X03408Y02489D01*
X03403Y02486*
X03398Y02489*
X03389Y02491*
X0338Y02489*
X03373Y02484*
X03368Y02477*
X03366Y02468*
X03368Y02459*
X03373Y02452*
X0338Y02447*
X03389Y02445*
X03398Y02447*
X03403Y0245*
X03408Y02447*
X03417Y02445*
X03426Y02447*
X03433Y02452*
X03438Y02459*
X0344Y02468*
X03438Y02477*
X03433Y02484*
X03426Y02489*
X03417Y02491*
G37*
G36*
X02944Y02597D02*
X02936Y02596D01*
X02928Y02591*
X02923Y02583*
X02921Y02574*
X02923Y02566*
X02926Y02561*
X02923Y02556*
X02921Y02547*
X02923Y02538*
X02928Y0253*
X02936Y02525*
X02939Y02525*
X02941Y02519*
X02939Y02516*
X02937Y02507*
X02939Y02499*
X02944Y02491*
X02951Y02486*
X0296Y02484*
X02969Y02486*
X02977Y02491*
X02982Y02499*
X02983Y02507*
X02982Y02516*
X02977Y02524*
X02969Y02529*
X02966Y02529*
X02964Y02535*
X02966Y02538*
X02968Y02547*
X02966Y02556*
X02962Y02561*
X02966Y02566*
X02968Y02574*
X02966Y02583*
X02961Y02591*
X02953Y02596*
X02944Y02597*
G37*
G36*
X02631Y02451D02*
X02623Y02449D01*
X02618Y02446*
X02613Y02449*
X02604Y02451*
X02595Y02449*
X02591Y02446*
X02586Y02449*
X02577Y02451*
X02568Y02449*
X02561Y02444*
X02556Y02437*
X02554Y02428*
X02556Y02419*
X02561Y02411*
X02568Y02406*
X02577Y02405*
X02586Y02406*
X02591Y02409*
X02595Y02406*
X02604Y02405*
X02613Y02406*
X02618Y0241*
X02623Y02406*
X02631Y02405*
X0264Y02406*
X02648Y02411*
X02653Y02419*
X02655Y02428*
X02653Y02437*
X02648Y02444*
X0264Y02449*
X02631Y02451*
G37*
G36*
X03752Y02491D02*
X03743Y02489D01*
X03735Y02484*
X0373Y02477*
X03728Y02468*
X0373Y02459*
X03735Y02452*
X03743Y02447*
X03752Y02445*
X0376Y02447*
X03768Y02452*
X03773Y02459*
X03775Y02468*
X03773Y02477*
X03768Y02484*
X0376Y02489*
X03752Y02491*
G37*
G36*
X03166Y02449D02*
X03157Y02447D01*
X03149Y02442*
X03144Y02435*
X03143Y02426*
X03144Y02417*
X03149Y0241*
X03157Y02405*
X03166Y02403*
X03175Y02405*
X03182Y0241*
X03187Y02417*
X03189Y02426*
X03187Y02435*
X03182Y02442*
X03175Y02447*
X03166Y02449*
G37*
G36*
X03108D02*
X03099Y02447D01*
X03091Y02442*
X03086Y02435*
X03085Y02426*
X03086Y02417*
X03091Y0241*
X03099Y02405*
X03108Y02403*
X03117Y02405*
X03124Y0241*
X03129Y02417*
X03131Y02426*
X03129Y02435*
X03124Y02442*
X03117Y02447*
X03108Y02449*
G37*
G36*
X0305D02*
X03041Y02447D01*
X03033Y02442*
X03028Y02435*
X03027Y02426*
X03028Y02417*
X03033Y0241*
X03041Y02405*
X0305Y02403*
X03059Y02405*
X03066Y0241*
X03071Y02417*
X03073Y02426*
X03071Y02435*
X03066Y02442*
X03059Y02447*
X0305Y02449*
G37*
G36*
X02989D02*
X0298Y02447D01*
X02972Y02442*
X02967Y02435*
X02966Y02426*
X02967Y02417*
X02972Y0241*
X0298Y02405*
X02989Y02403*
X02997Y02405*
X03005Y0241*
X0301Y02417*
X03012Y02426*
X0301Y02435*
X03005Y02442*
X02997Y02447*
X02989Y02449*
G37*
G36*
X03285Y02449D02*
X03276Y02447D01*
X03269Y02442*
X03264Y02435*
X03262Y02426*
X03264Y02417*
X03269Y02409*
X03276Y02404*
X03285Y02403*
X03294Y02404*
X03301Y02409*
X03306Y02417*
X03308Y02426*
X03306Y02435*
X03301Y02442*
X03294Y02447*
X03285Y02449*
G37*
G36*
X03225D02*
X03216Y02447D01*
X03209Y02442*
X03204Y02435*
X03202Y02426*
X03204Y02417*
X03209Y02409*
X03216Y02404*
X03225Y02403*
X03234Y02404*
X03241Y02409*
X03246Y02417*
X03248Y02426*
X03246Y02435*
X03241Y02442*
X03234Y02447*
X03225Y02449*
G37*
G36*
X0358Y02448D02*
X03571Y02446D01*
X03564Y02441*
X03559Y02434*
X03557Y02425*
X03559Y02416*
X03564Y02408*
X03571Y02403*
X0358Y02402*
X03589Y02403*
X03597Y02408*
X03602Y02416*
X03603Y02425*
X03602Y02434*
X03597Y02441*
X03589Y02446*
X0358Y02448*
G37*
G36*
X03763Y02426D02*
X03754Y02424D01*
X03747Y02419*
X03742Y02412*
X0374Y02403*
X03742Y02394*
X03747Y02387*
X03754Y02382*
X03763Y0238*
X03772Y02382*
X0378Y02387*
X03785Y02394*
X03786Y02403*
X03785Y02412*
X0378Y02419*
X03772Y02424*
X03763Y02426*
G37*
G36*
X03394Y02389D02*
X03385Y02387D01*
X03378Y02382*
X03373Y02375*
X03371Y02366*
X03371Y02364*
X03367Y0236*
X03364Y02361*
X03355Y02359*
X03348Y02354*
X03341Y02359*
X03332Y02361*
X03323Y02359*
X03316Y02354*
X03312Y02349*
X03306Y02347*
X03303Y02349*
X03294Y0235*
X03286Y02349*
X03278Y02344*
X03273Y02336*
X03271Y02327*
X03273Y02318*
X03278Y02311*
X03286Y02306*
X03294Y02304*
X03303Y02306*
X03305Y02307*
X0331Y02304*
X03309Y023*
X03311Y02291*
X03316Y02283*
X03323Y02278*
X03332Y02277*
X03341Y02278*
X03348Y02283*
X03353Y02291*
X03355Y023*
X03353Y02309*
X0335Y02313*
X03354Y02317*
X03355Y02316*
X03364Y02314*
X03372Y02316*
X03379Y0232*
X03385Y02316*
X03394Y02314*
X03399Y02315*
X03402Y0231*
X034Y02309*
X03399Y023*
X034Y02291*
X03405Y02283*
X03413Y02278*
X03422Y02277*
X03431Y02278*
X03438Y02283*
X03443Y02291*
X03445Y023*
X03443Y02309*
X0344Y02313*
X03443Y02317*
X03445Y02326*
X03443Y02335*
X0344Y0234*
X03443Y02344*
X03445Y02353*
X03443Y02362*
X03438Y02369*
X03431Y02374*
X03422Y02376*
X03415Y02375*
X03411Y02382*
X03403Y02387*
X03394Y02389*
G37*
G36*
X0358Y02397D02*
X03571Y02395D01*
X03564Y0239*
X03559Y02382*
X03557Y02374*
X03559Y02365*
X03564Y02357*
X03571Y02352*
X0358Y0235*
X03589Y02352*
X03597Y02357*
X03602Y02365*
X03603Y02374*
X03602Y02382*
X03597Y0239*
X03589Y02395*
X0358Y02397*
G37*
G36*
X02629Y02349D02*
X02621Y02348D01*
X02616Y02345*
X02612Y02348*
X02603Y02349*
X02594Y02348*
X0259Y02345*
X02585Y02348*
X02576Y02349*
X02567Y02348*
X0256Y02343*
X02555Y02335*
X02553Y02326*
X02555Y02317*
X0256Y0231*
X02567Y02305*
X02576Y02303*
X02585Y02305*
X0259Y02308*
X02594Y02305*
X02603Y02303*
X02612Y02305*
X02616Y02308*
X02621Y02305*
X02629Y02303*
X02638Y02305*
X02646Y0231*
X02651Y02317*
X02653Y02326*
X02651Y02335*
X02646Y02343*
X02638Y02348*
X02629Y02349*
G37*
G36*
X02753Y0235D02*
X02745Y02349D01*
X02737Y02344*
X02732Y02336*
X0273Y02327*
X02732Y02318*
X02737Y02311*
X02745Y02306*
X02753Y02304*
X02762Y02306*
X0277Y02311*
X02775Y02318*
X02777Y02327*
X02775Y02336*
X0277Y02344*
X02762Y02349*
X02753Y0235*
G37*
G36*
X02871Y0235D02*
X02862Y02348D01*
X02854Y02343*
X02849Y02336*
X02847Y02327*
X02849Y02318*
X02854Y0231*
X02862Y02305*
X02871Y02304*
X02879Y02305*
X02887Y0231*
X02892Y02318*
X02894Y02327*
X02892Y02336*
X02887Y02343*
X02879Y02348*
X02871Y0235*
G37*
G36*
X0293D02*
X02921Y02348D01*
X02913Y02343*
X02908Y02336*
X02907Y02327*
X02908Y02318*
X02913Y0231*
X02921Y02305*
X0293Y02304*
X02938Y02305*
X02946Y0231*
X02951Y02318*
X02953Y02327*
X02951Y02336*
X02946Y02343*
X02938Y02348*
X0293Y0235*
G37*
G36*
X02811D02*
X02803Y02348D01*
X02795Y02343*
X0279Y02336*
X02788Y02327*
X0279Y02318*
X02795Y0231*
X02803Y02305*
X02811Y02304*
X0282Y02305*
X02828Y0231*
X02833Y02318*
X02835Y02327*
X02833Y02336*
X02828Y02343*
X0282Y02348*
X02811Y0235*
G37*
G36*
X02992Y02348D02*
X02983Y02347D01*
X02975Y02342*
X0297Y02334*
X02969Y02325*
X0297Y02317*
X02975Y02309*
X02983Y02304*
X02992Y02302*
X03001Y02304*
X03008Y02309*
X03013Y02317*
X03015Y02325*
X03013Y02334*
X03008Y02342*
X03001Y02347*
X02992Y02348*
G37*
G36*
X0296Y0229D02*
X02951Y02289D01*
X02944Y02284*
X02939Y02276*
X02937Y02267*
X02939Y02258*
X02944Y02251*
X02951Y02246*
X0296Y02244*
X02969Y02246*
X02977Y02251*
X02982Y02258*
X02983Y02267*
X02982Y02276*
X02977Y02284*
X02969Y02289*
X0296Y0229*
G37*
G36*
X03405Y02271D02*
X03396Y02269D01*
X03389Y02264*
X03384Y02256*
X03382Y02248*
X03383Y02243*
X03379Y02238*
X03375Y02239*
X03366Y02237*
X03358Y02232*
X03353Y02225*
X03351Y02216*
X03353Y02207*
X03358Y022*
X03366Y02195*
X03375Y02193*
X03383Y02195*
X03391Y022*
X03396Y02207*
X03398Y02216*
X03397Y02221*
X03401Y02225*
X03405Y02225*
X03414Y02226*
X03421Y02231*
X03426Y02239*
X03428Y02248*
X03426Y02256*
X03421Y02264*
X03414Y02269*
X03405Y02271*
G37*
G36*
X0324Y0229D02*
X03231Y02289D01*
X03223Y02284*
X03218Y02276*
X03217Y02267*
X03218Y02258*
X03223Y02251*
Y02248*
X03218Y02241*
X03217Y02232*
X03218Y02223*
X03223Y02216*
X03231Y02211*
X0324Y02209*
X03249Y02211*
X03256Y02216*
X03261Y02223*
X03263Y02232*
X03261Y02241*
X03256Y02248*
Y02251*
X03261Y02258*
X03263Y02267*
X03261Y02276*
X03256Y02284*
X03249Y02289*
X0324Y0229*
G37*
G36*
X03157Y02196D02*
X03148Y02194D01*
X03141Y02189*
X03134Y02194*
X03126Y02196*
X03117Y02194*
X03109Y02189*
X03104Y02182*
X03102Y02173*
X03104Y02164*
X03109Y02156*
X03117Y02151*
X03126Y0215*
X03134Y02151*
X03141Y02156*
X03148Y02151*
X03157Y0215*
X03166Y02151*
X03173Y02156*
X03178Y02164*
X0318Y02173*
X03178Y02182*
X03173Y02189*
X03166Y02194*
X03157Y02196*
G37*
G36*
X02639Y02235D02*
X0263Y02233D01*
X02623Y02228*
X02618Y02221*
X02616Y02212*
X02618Y02203*
X02623Y02196*
X0263Y02191*
X02639Y02189*
X02648Y02191*
X02656Y02196*
X02661Y02203*
X02662Y02212*
X02661Y02221*
X02656Y02228*
X02648Y02233*
X02639Y02235*
G37*
G36*
X03613Y02221D02*
X03604Y0222D01*
X03596Y02215*
X03591Y02207*
X0359Y02198*
X03591Y0219*
X03596Y02182*
X03604Y02177*
X03613Y02175*
X03622Y02177*
X03629Y02182*
X03634Y0219*
X03636Y02198*
X03634Y02207*
X03629Y02215*
X03622Y0222*
X03613Y02221*
G37*
G36*
X03405Y02188D02*
X03396Y02186D01*
X03389Y02181*
X03384Y02174*
X03382Y02165*
X03384Y02156*
X03389Y02149*
X03396Y02144*
X03405Y02142*
X03414Y02144*
X03421Y02149*
X03426Y02156*
X03428Y02165*
X03426Y02174*
X03421Y02181*
X03414Y02186*
X03405Y02188*
G37*
G36*
X02997Y02186D02*
X02988Y02184D01*
X0298Y02179*
X02975Y02172*
X02974Y02163*
X02975Y02154*
X0298Y02147*
X02988Y02142*
X02997Y0214*
X03005Y02142*
X03013Y02147*
X03018Y02154*
X0302Y02163*
X03018Y02172*
X03013Y02179*
X03005Y02184*
X02997Y02186*
G37*
G36*
X02856Y0214D02*
X02847Y02138D01*
X02841Y02134*
X02834Y02138*
X02826Y0214*
X02817Y02138*
X02809Y02133*
X02804Y02126*
X02803Y02117*
X02804Y02108*
X02809Y021*
X02817Y02095*
X02826Y02094*
X02834Y02095*
X02841Y021*
X02847Y02095*
X02856Y02094*
X02865Y02095*
X02872Y021*
X02877Y02108*
X02879Y02117*
X02877Y02126*
X02872Y02133*
X02865Y02138*
X02856Y0214*
G37*
G36*
X03052Y02161D02*
X03043Y0216D01*
X03035Y02155*
X0303Y02147*
X03029Y02138*
X0303Y02129*
X03035Y02122*
X03043Y02117*
X03052Y02115*
X03061Y02117*
X03068Y02122*
X03073Y02129*
X03075Y02138*
X03073Y02147*
X03068Y02155*
X03061Y0216*
X03052Y02161*
G37*
G36*
X02944Y02141D02*
X02936Y02139D01*
X02928Y02134*
X02923Y02126*
X02921Y02118*
X02923Y02109*
X02928Y02101*
X02936Y02096*
X02944Y02095*
X02953Y02096*
X02961Y02101*
X02966Y02109*
X02968Y02118*
X02966Y02126*
X02961Y02134*
X02953Y02139*
X02944Y02141*
G37*
G36*
X02688Y02136D02*
X02679Y02134D01*
X02671Y02129*
X02666Y02122*
X02664Y02113*
X02666Y02104*
X02671Y02096*
X02679Y02091*
X02688Y0209*
X02696Y02091*
X02704Y02096*
X02709Y02104*
X02711Y02113*
X02709Y02122*
X02704Y02129*
X02696Y02134*
X02688Y02136*
G37*
G36*
X0371Y0221D02*
X03695Y02209D01*
X03682Y02205*
X03669Y02198*
X03658Y02189*
X03649Y02178*
X03642Y02165*
X03638Y02151*
X03636Y02137*
X03638Y02123*
X03642Y02109*
X03649Y02096*
X03658Y02085*
X03669Y02076*
X03682Y02069*
X03695Y02065*
X0371Y02064*
X03724Y02065*
X03738Y02069*
X0375Y02076*
X03761Y02085*
X0377Y02096*
X03777Y02109*
X03781Y02123*
X03783Y02137*
X03781Y02151*
X03777Y02165*
X0377Y02178*
X03761Y02189*
X0375Y02198*
X03738Y02205*
X03724Y02209*
X0371Y0221*
G37*
G36*
X02704Y02015D02*
X02695Y02013D01*
X02688Y02008*
X02683Y02001*
X02681Y01992*
X02683Y01983*
X02688Y01975*
X02695Y0197*
X02704Y01969*
X02713Y0197*
X02721Y01975*
X02726Y01983*
X02727Y01992*
X02726Y02001*
X02721Y02008*
X02713Y02013*
X02704Y02015*
G37*
G36*
X0296Y01987D02*
X02951Y01985D01*
X02944Y0198*
X02939Y01973*
X02937Y01964*
X02939Y01955*
X02944Y01948*
X02951Y01943*
X0296Y01941*
X02969Y01943*
X02977Y01948*
X02982Y01955*
X02983Y01964*
X02982Y01973*
X02977Y0198*
X02969Y01985*
X0296Y01987*
G37*
G36*
X02771D02*
X02762Y01985D01*
X02755Y0198*
X0275Y01973*
X02748Y01964*
X0275Y01955*
X02755Y01948*
X02762Y01943*
X02771Y01941*
X0278Y01943*
X02788Y01948*
X02793Y01955*
X02794Y01964*
X02793Y01973*
X02788Y0198*
X0278Y01985*
X02771Y01987*
G37*
G36*
X02555Y0201D02*
X02546Y02008D01*
X02538Y02003*
X02533Y01996*
X02532Y01987*
X02533Y01978*
X02536Y01974*
X02533Y01969*
X02531Y01961*
X02533Y01952*
X02535Y01949*
X02531Y01943*
X02529Y01934*
X02531Y01925*
X02536Y01918*
X02543Y01913*
X02552Y01911*
X02561Y01913*
X02568Y01918*
X02573Y01925*
X02575Y01934*
X02573Y01943*
X02572Y01946*
X02576Y01952*
X02577Y01961*
X02576Y01969*
X02573Y01973*
X02576Y01978*
X02578Y01987*
X02576Y01996*
X02571Y02003*
X02564Y02008*
X02555Y0201*
G37*
G36*
X0287Y01936D02*
X02861Y01934D01*
X02853Y01929*
X02848Y01922*
X02847Y01913*
X02848Y01904*
X02853Y01897*
X02861Y01892*
X0287Y0189*
X02878Y01892*
X02886Y01897*
X02891Y01904*
X02893Y01913*
X02891Y01922*
X02886Y01929*
X02878Y01934*
X0287Y01936*
G37*
G36*
X03326Y01912D02*
X03317Y01911D01*
X0331Y01906*
X03305Y01898*
X03303Y01889*
X03305Y0188*
X0331Y01873*
X03317Y01868*
X03326Y01866*
X03335Y01868*
X03343Y01873*
X03348Y0188*
X03349Y01889*
X03348Y01898*
X03343Y01906*
X03335Y01911*
X03326Y01912*
G37*
G36*
X03189D02*
X0318Y01911D01*
X03172Y01906*
X03167Y01898*
X03165Y01889*
X03167Y0188*
X03172Y01873*
X0318Y01868*
X03189Y01866*
X03197Y01868*
X03205Y01873*
X0321Y0188*
X03212Y01889*
X0321Y01898*
X03205Y01906*
X03197Y01911*
X03189Y01912*
G37*
G36*
X02818D02*
X0281Y01911D01*
X02802Y01906*
X02797Y01898*
X02795Y01889*
X02797Y0188*
X02802Y01873*
X0281Y01868*
X02818Y01866*
X02827Y01868*
X02835Y01873*
X0284Y0188*
X02842Y01889*
X0284Y01898*
X02835Y01906*
X02827Y01911*
X02818Y01912*
G37*
G36*
X02908Y019D02*
X02899Y01898D01*
X02892Y01893*
X02887Y01885*
X02885Y01877*
X02887Y01868*
X02892Y0186*
X02899Y01855*
X02908Y01853*
X02917Y01855*
X02924Y0186*
X02929Y01868*
X02931Y01877*
X02929Y01885*
X02924Y01893*
X02917Y01898*
X02908Y019*
G37*
G36*
X02575Y01881D02*
X02567Y01879D01*
X02559Y01874*
X02554Y01867*
X02552Y01858*
X02554Y0185*
X02552Y0185*
X02544Y01845*
X02539Y01837*
X02537Y01828*
X02539Y01819*
X02544Y01812*
X02552Y01807*
X02561Y01805*
X02569Y01807*
X02577Y01812*
X02582Y01819*
X02584Y01828*
X02582Y01836*
X02584Y01836*
X02592Y01841*
X02597Y01849*
X02598Y01858*
X02597Y01867*
X02592Y01874*
X02584Y01879*
X02575Y01881*
G37*
G36*
X0294Y0183D02*
X02932Y01828D01*
X02924Y01823*
X02919Y01815*
X02917Y01807*
X02919Y01798*
X02924Y0179*
Y01788*
X02919Y0178*
X02917Y01771*
X02919Y01762*
X02924Y01755*
X02932Y0175*
X0294Y01748*
X02949Y0175*
X02957Y01755*
X02962Y01762*
X02964Y01771*
X02962Y0178*
X02957Y01788*
Y0179*
X02962Y01798*
X02964Y01807*
X02962Y01815*
X02957Y01823*
X02949Y01828*
X0294Y0183*
G37*
G36*
X03602Y01794D02*
X03593Y01793D01*
X03586Y01788*
X03581Y0178*
X03579Y01771*
X03581Y01762*
X03586Y01755*
X03593Y0175*
X03602Y01748*
X03611Y0175*
X03618Y01755*
X03623Y01762*
X03625Y01771*
X03623Y0178*
X03618Y01788*
X03611Y01793*
X03602Y01794*
G37*
G36*
X02673Y0181D02*
X02664Y01808D01*
X02656Y01803*
X02651Y01796*
X0265Y01787*
X02651Y01778*
X02656Y01771*
X02664Y01766*
X02673Y01764*
X02682Y01766*
X02688Y0177*
X02689Y01771*
X02693Y01767*
X02692Y01767*
X0269Y01763*
X02688Y01754*
X0269Y01746*
X02695Y01738*
X02702Y01733*
X02711Y01731*
X0272Y01733*
X02727Y01738*
X02732Y01746*
X02734Y01754*
X02732Y01763*
X02727Y01771*
X0272Y01776*
X02711Y01778*
X02702Y01776*
X02696Y01771*
X02695Y01771*
X02691Y01774*
X02692Y01775*
X02694Y01778*
X02696Y01787*
X02694Y01796*
X02689Y01803*
X02682Y01808*
X02673Y0181*
G37*
G36*
X02811Y01767D02*
X02802Y01765D01*
X02794Y0176*
X02789Y01752*
X02787Y01744*
X02789Y01735*
X02794Y01727*
X02802Y01722*
X02811Y01721*
X02819Y01722*
X02827Y01727*
X02832Y01735*
X02834Y01744*
X02832Y01752*
X02827Y0176*
X02819Y01765*
X02811Y01767*
G37*
G36*
X02976Y01739D02*
X02967Y01737D01*
X0296Y01732*
X02955Y01725*
X02953Y01716*
X02955Y01707*
X0296Y017*
X02967Y01695*
X02976Y01693*
X02985Y01695*
X02992Y017*
X02997Y01707*
X02999Y01716*
X02997Y01725*
X02992Y01732*
X02985Y01737*
X02976Y01739*
G37*
G36*
X02771Y01728D02*
X02762Y01727D01*
X02755Y01722*
X0275Y01714*
X02748Y01705*
X0275Y01696*
X02755Y01689*
X02762Y01684*
X02771Y01682*
X0278Y01684*
X02788Y01689*
X02793Y01696*
X02794Y01705*
X02793Y01714*
X02788Y01722*
X0278Y01727*
X02771Y01728*
G37*
G36*
X02803Y01664D02*
X02794Y01663D01*
X02786Y01658*
X02781Y0165*
X0278Y01641*
X02781Y01632*
X02786Y01625*
X02794Y0162*
X02803Y01618*
X02812Y0162*
X02819Y01625*
X02824Y01632*
X02826Y01641*
X02824Y0165*
X02819Y01658*
X02812Y01663*
X02803Y01664*
G37*
G36*
X03602Y01656D02*
X03593Y01655D01*
X03586Y0165*
X03581Y01642*
X03579Y01633*
X03581Y01625*
X03586Y01617*
X03593Y01612*
X03602Y0161*
X03611Y01612*
X03618Y01617*
X03623Y01625*
X03625Y01633*
X03623Y01642*
X03618Y0165*
X03611Y01655*
X03602Y01656*
G37*
G36*
X0374D02*
X03731Y01655D01*
X03723Y0165*
X03718Y01642*
X03717Y01633*
X03718Y01625*
X03723Y01617*
X03731Y01612*
X0374Y0161*
X03749Y01612*
X03756Y01617*
X03761Y01625*
X03763Y01633*
X03761Y01642*
X03756Y0165*
X03749Y01655*
X0374Y01656*
G37*
G36*
X02637D02*
X02629Y01655D01*
X02621Y0165*
X02616Y01642*
X02614Y01633*
X02616Y01625*
X02621Y01617*
X02629Y01612*
X02637Y0161*
X02646Y01612*
X02654Y01617*
X02659Y01625*
X0266Y01633*
X02659Y01642*
X02654Y0165*
X02646Y01655*
X02637Y01656*
G37*
G36*
X03019Y01881D02*
X0301Y01879D01*
X03003Y01874*
X02998Y01867*
X02996Y01858*
X02998Y01849*
X03003Y01841*
X0301Y01836*
X03014Y01836*
X03015Y01834*
X03016Y0183*
X03014Y01827*
X0301Y0182*
X0301Y01817*
X03009Y01814*
Y0181*
Y01634*
Y0163*
X0301Y01624*
X03014Y01617*
X03017Y01612*
X03022Y01607*
X03027Y01604*
X03034Y01601*
X03039Y016*
X03043*
X03377*
X03381*
X03387Y01601*
X03394Y01604*
X03399Y01607*
X03404Y01612*
X03407Y01617*
X0341Y01624*
X03412Y0163*
Y01634*
Y0181*
Y01814*
X0341Y0182*
X03407Y01827*
X03406Y01829*
X03404Y01832*
X03399Y01837*
X03396Y01839*
X03394Y0184*
X03387Y01843*
X03381Y01844*
X03043*
X03041Y01849*
Y01849*
X03042Y01858*
X03041Y01867*
X03036Y01874*
X03028Y01879*
X03019Y01881*
G37*
G36*
X02948Y01634D02*
X0294Y01632D01*
X02932Y01627*
X02927Y0162*
X02925Y01611*
X02927Y01602*
X02932Y01594*
X0294Y01589*
X02948Y01588*
X02957Y01589*
X02965Y01594*
X0297Y01602*
X02971Y01611*
X0297Y0162*
X02965Y01627*
X02957Y01632*
X02948Y01634*
G37*
G36*
X02984Y01573D02*
X02975Y01571D01*
X02967Y01566*
X02962Y01559*
X02961Y0155*
X02962Y01541*
X02967Y01533*
X02975Y01528*
X02984Y01527*
X02993Y01528*
X03Y01533*
X03005Y01541*
X03007Y0155*
X03005Y01559*
X03Y01566*
X02993Y01571*
X02984Y01573*
G37*
G36*
X02746Y01593D02*
X02737Y01591D01*
X02729Y01586*
X02724Y01578*
X02723Y01569*
X02724Y01561*
X02729Y01554*
X02724Y01547*
X02723Y01538*
X02724Y01529*
X02729Y01522*
X02724Y01515*
X02723Y01506*
X02724Y01498*
X02729Y0149*
X02737Y01485*
X02746Y01483*
X02754Y01485*
X02762Y0149*
X02767Y01498*
X02769Y01506*
X02767Y01515*
X02762Y01522*
X02767Y01529*
X02769Y01538*
X02767Y01547*
X02762Y01554*
X02767Y01561*
X02769Y01569*
X02767Y01578*
X02762Y01586*
X02754Y01591*
X02746Y01593*
G37*
G36*
X03602Y01519D02*
X03593Y01517D01*
X03586Y01512*
X03581Y01504*
X03579Y01496*
X03581Y01487*
X03586Y01479*
X03593Y01474*
X03602Y01473*
X03611Y01474*
X03618Y01479*
X03623Y01487*
X03625Y01496*
X03623Y01504*
X03618Y01512*
X03611Y01517*
X03602Y01519*
G37*
G36*
X02849Y0144D02*
X0284Y01438D01*
X02833Y01433*
X02828Y01426*
X02826Y01417*
X02828Y01408*
X02833Y01401*
X0284Y01396*
X02849Y01394*
X02858Y01396*
X02865Y01401*
X0287Y01408*
X02872Y01417*
X0287Y01426*
X02865Y01433*
X02858Y01438*
X02849Y0144*
G37*
G36*
X025Y01558D02*
X02491Y01556D01*
X02483Y01551*
X02478Y01544*
X02476Y01535*
X02478Y01526*
X02483Y01519*
X02491Y01514*
X02493Y01513*
X02495Y01508*
X02489Y01501*
X02482Y01488*
X02478Y01474*
X02477Y0146*
X02478Y01446*
X02482Y01432*
X02489Y0142*
X02498Y01408*
X02509Y01399*
X02522Y01393*
X02536Y01388*
X0255Y01387*
X02564Y01388*
X02578Y01393*
X02591Y01399*
X02602Y01408*
X02611Y0142*
X02618Y01432*
X02622Y01446*
X02623Y0146*
X02622Y01474*
X02618Y01488*
X02611Y01501*
X02602Y01512*
X02591Y01521*
X02578Y01528*
X02564Y01532*
X0255Y01533*
X02536Y01532*
X02527Y01529*
X02522Y01533*
X02523Y01535*
X02521Y01544*
X02516Y01551*
X02508Y01556*
X025Y01558*
G37*
G36*
X03464Y01381D02*
X03455Y01379D01*
X03448Y01374*
X03443Y01367*
X03441Y01358*
X03443Y01349*
X03448Y01341*
X03455Y01336*
X03464Y01335*
X03473Y01336*
X0348Y01341*
X03485Y01349*
X03487Y01358*
X03485Y01367*
X0348Y01374*
X03473Y01379*
X03464Y01381*
G37*
G36*
X03602D02*
X03593Y01379D01*
X03586Y01374*
X03581Y01367*
X03579Y01358*
X03581Y01349*
X03586Y01341*
X03593Y01336*
X03602Y01335*
X03611Y01336*
X03618Y01341*
X03623Y01349*
X03625Y01358*
X03623Y01367*
X03618Y01374*
X03611Y01379*
X03602Y01381*
G37*
G36*
X03326D02*
X03317Y01379D01*
X0331Y01374*
X03305Y01367*
X03303Y01358*
X03305Y01349*
X0331Y01341*
X03317Y01336*
X03326Y01335*
X03335Y01336*
X03343Y01341*
X03348Y01349*
X03349Y01358*
X03348Y01367*
X03343Y01374*
X03335Y01379*
X03326Y01381*
G37*
G36*
X03189D02*
X0318Y01379D01*
X03172Y01374*
X03167Y01367*
X03165Y01358*
X03167Y01349*
X03172Y01341*
X0318Y01336*
X03189Y01335*
X03197Y01336*
X03205Y01341*
X0321Y01349*
X03212Y01358*
X0321Y01367*
X03205Y01374*
X03197Y01379*
X03189Y01381*
G37*
G36*
X02637D02*
X02629Y01379D01*
X02621Y01374*
X02616Y01367*
X02614Y01358*
X02616Y01349*
X02621Y01341*
X02629Y01336*
X02637Y01335*
X02646Y01336*
X02654Y01341*
X02659Y01349*
X0266Y01358*
X02659Y01367*
X02654Y01374*
X02646Y01379*
X02637Y01381*
G37*
G36*
X025D02*
X02491Y01379D01*
X02483Y01374*
X02478Y01367*
X02476Y01358*
X02478Y01349*
X02483Y01341*
X02491Y01336*
X025Y01335*
X02508Y01336*
X02516Y01341*
X02521Y01349*
X02523Y01358*
X02521Y01367*
X02516Y01374*
X02508Y01379*
X025Y01381*
G37*
G36*
X03043Y014D02*
X03034Y01398D01*
X03027Y01393*
X03022Y01385*
X0302Y01376*
X03022Y01368*
X03027Y0136*
X03034Y01355*
X03043Y01353*
X03049Y01354*
X03049*
X03052Y0135*
X03049Y01342*
X03047Y01331*
X03049Y0132*
X03052Y0131*
X03051Y01308*
X03049Y01306*
X03043Y01307*
X03034Y01305*
X03027Y013*
X03022Y01293*
X0302Y01284*
X03022Y01275*
X03027Y01268*
X03034Y01263*
X03043Y01261*
X03052Y01263*
X03059Y01268*
X03064Y01275*
X03066Y01284*
X03065Y0129*
X03067Y01292*
X03069Y01293*
X03079Y01289*
X0309Y01288*
X03101Y01289*
X03111Y01294*
X0312Y01301*
X03127Y01309*
X03131Y0132*
X03132Y01331*
X03131Y01342*
X03127Y01352*
X0312Y01361*
X03111Y01368*
X03101Y01372*
X0309Y01373*
X03079Y01372*
X0307Y01368*
X03066Y0137*
X03065Y01372*
X03066Y01376*
X03065Y01385*
X0306Y01393*
X03052Y01398*
X03043Y014*
G37*
G36*
X02893Y01373D02*
X02882Y01372D01*
X02872Y01368*
X02863Y01361*
X02856Y01352*
X02852Y01342*
X0285Y01331*
X02852Y0132*
X02856Y01309*
X02863Y01301*
X02872Y01294*
X02882Y01289*
X02893Y01288*
X02904Y01289*
X02914Y01294*
X02923Y01301*
X0293Y01309*
X02934Y0132*
X02936Y01331*
X02934Y01342*
X0293Y01352*
X02923Y01361*
X02914Y01368*
X02904Y01372*
X02893Y01373*
G37*
G36*
X02728Y01326D02*
X02719Y01324D01*
X02712Y01319*
X02707Y01312*
X02705Y01303*
X02707Y01294*
X02712Y01286*
X02713Y01286*
Y01281*
X02712Y0128*
X02707Y01272*
X02705Y01263*
X02707Y01254*
X02712Y01247*
X02713Y01246*
Y01241*
X02712Y0124*
X02707Y01233*
X02705Y01224*
X02707Y01215*
X02712Y01208*
X02719Y01203*
X02728Y01201*
X02737Y01203*
X02744Y01208*
X02749Y01215*
X02751Y01224*
X02749Y01233*
X02744Y0124*
X02743Y01241*
Y01246*
X02744Y01247*
X02749Y01254*
X02751Y01263*
X02749Y01272*
X02744Y0128*
X02743Y01281*
Y01286*
X02744Y01286*
X02749Y01294*
X02751Y01303*
X02749Y01312*
X02744Y01319*
X02737Y01324*
X02728Y01326*
G37*
G36*
X03326Y01243D02*
X03317Y01241D01*
X0331Y01236*
X03305Y01229*
X03303Y0122*
X03305Y01211*
X0331Y01204*
X03317Y01199*
X03326Y01197*
X03335Y01199*
X03343Y01204*
X03348Y01211*
X03349Y0122*
X03348Y01229*
X03343Y01236*
X03335Y01241*
X03326Y01243*
G37*
G36*
X02637D02*
X02629Y01241D01*
X02621Y01236*
X02616Y01229*
X02614Y0122*
X02616Y01211*
X02621Y01204*
X02629Y01199*
X02637Y01197*
X02646Y01199*
X02654Y01204*
X02659Y01211*
X0266Y0122*
X02659Y01229*
X02654Y01236*
X02646Y01241*
X02637Y01243*
G37*
G36*
X025D02*
X02491Y01241D01*
X02483Y01236*
X02478Y01229*
X02476Y0122*
X02478Y01211*
X02483Y01204*
X02491Y01199*
X025Y01197*
X02508Y01199*
X02516Y01204*
X02521Y01211*
X02523Y0122*
X02521Y01229*
X02516Y01236*
X02508Y01241*
X025Y01243*
G37*
%LNright_board-3*%
%LPD*%
G54D94*
X02771Y04007D03*
X0289Y03063D03*
X02799Y04007D03*
X02826D03*
X03677Y02976D03*
X03708Y03031D03*
X03284Y02038D03*
Y02065D03*
Y02093D03*
X03313D03*
Y02065D03*
X0334Y02093D03*
Y02065D03*
X03313Y02038D03*
X0334D03*
X03397Y02972D03*
X0337D03*
X03397Y03D03*
Y03027D03*
X0337Y03D03*
Y03027D03*
X03708Y03003D03*
Y02976D03*
M02*