%FSTAX23Y23*%
%MOIN*%
%SFA1B1*%

%IPPOS*%
%AMD21*
4,1,8,0.008300,0.009800,-0.008300,0.009800,-0.010800,0.007300,-0.010800,-0.007300,-0.008300,-0.009800,0.008300,-0.009800,0.010800,-0.007300,0.010800,0.007300,0.008300,0.009800,0.0*
1,1,0.005000,0.008300,0.007300*
1,1,0.005000,-0.008300,0.007300*
1,1,0.005000,-0.008300,-0.007300*
1,1,0.005000,0.008300,-0.007300*
%
%AMD44*
4,1,4,-0.034500,-0.002800,0.014800,-0.031300,0.034500,0.002800,-0.014800,0.031300,-0.034500,-0.002800,0.0*
%
%AMD88*
4,1,8,-0.023600,0.017600,-0.023600,-0.017600,-0.003800,-0.037400,0.003800,-0.037400,0.023600,-0.017600,0.023600,0.017600,0.003800,0.037400,-0.003800,0.037400,-0.023600,0.017600,0.0*
1,1,0.039600,-0.003800,0.017600*
1,1,0.039600,-0.003800,-0.017600*
1,1,0.039600,0.003800,-0.017600*
1,1,0.039600,0.003800,0.017600*
%
%AMD97*
4,1,8,-0.021900,-0.014900,0.021900,-0.014900,0.025600,-0.011200,0.025600,0.011200,0.021900,0.014900,-0.021900,0.014900,-0.025600,0.011200,-0.025600,-0.011200,-0.021900,-0.014900,0.0*
1,1,0.007400,-0.021900,-0.011200*
1,1,0.007400,0.021900,-0.011200*
1,1,0.007400,0.021900,0.011200*
1,1,0.007400,-0.021900,0.011200*
%
%ADD10C,0.009800*%
%ADD11C,0.003900*%
%ADD12C,0.007900*%
%ADD13C,0.005900*%
%ADD14C,0.015700*%
G04~CAMADD=21~8~0.0~0.0~217.0~197.0~25.0~0.0~15~0.0~0.0~0.0~0.0~0~0.0~0.0~0.0~0.0~0~0.0~0.0~0.0~0.0~217.0~197.0*
%ADD21D21*%
%ADD26R,0.022800X0.021300*%
%ADD33R,0.021300X0.022800*%
G04~CAMADD=44~9~0.0~0.0~571.0~394.0~0.0~0.0~0~0.0~0.0~0.0~0.0~0~0.0~0.0~0.0~0.0~0~0.0~0.0~0.0~150.0~690.0~625.0*
%ADD44D44*%
%ADD83C,0.011800*%
%ADD87C,0.057100*%
G04~CAMADD=88~8~0.0~0.0~748.0~472.0~198.0~0.0~15~0.0~0.0~0.0~0.0~0~0.0~0.0~0.0~0.0~0~0.0~0.0~0.0~90.0~472.0~748.0*
%ADD88D88*%
%ADD89C,0.015700*%
%ADD90C,0.031500*%
%ADD91C,0.021700*%
%ADD92C,0.208700*%
%ADD93C,0.118100*%
%ADD94C,0.017700*%
%ADD96R,0.051200X0.043300*%
G04~CAMADD=97~8~0.0~0.0~512.0~299.0~37.0~0.0~15~0.0~0.0~0.0~0.0~0~0.0~0.0~0.0~0.0~0~0.0~0.0~0.0~180.0~512.0~298.0*
%ADD97D97*%
%ADD98R,0.019700X0.019700*%
%ADD99R,0.039400X0.126000*%
%ADD100R,0.126000X0.039400*%
%ADD101C,0.006900*%
%LNright_board-1*%
%LPD*%
G36*
X03376Y04397D02*
X03379Y04393D01*
Y04392*
X03373Y04381*
X03402Y04365*
X03414Y04386*
X03406Y04391*
X03408Y04396*
X03416Y04394*
X03429Y04388*
X03435Y04384*
X03435Y04384*
X03435Y04384*
X03486Y04355*
X03486Y04349*
X0348Y04345*
X03476Y04339*
X03473Y04332*
X03472Y04324*
X03473Y04316*
X03476Y04309*
X0348Y04303*
X03487Y04298*
X03494Y04295*
X03502Y04294*
X03509Y04295*
X03516Y04298*
X03523Y04303*
X03527Y04309*
X0353Y04316*
X03531Y04323*
X03535Y04326*
X03595Y04292*
X03599Y04289*
X03606Y04284*
X03611Y04278*
X03608Y04274*
X03599Y0428*
X03586Y04258*
X03615Y04241*
X03621Y0425*
X03626Y0425*
X03627Y04245*
X03628Y04236*
X03628Y04232*
X03628Y04231*
X03628Y04231*
Y04089*
Y04089*
X03628Y0408*
X03625Y04063*
X03621Y04046*
X03613Y0403*
X03608Y04023*
X03608Y04022*
X03608Y04022*
X03593Y03995*
Y03995*
X03593Y03994*
X03588Y03985*
X03588Y03985*
X03588Y03984*
X03581Y03964*
X03581Y03964*
X0358Y03963*
X03577Y03942*
Y03941*
X03577Y0394*
X03578Y0392*
X03578Y03919*
Y03918*
X03582Y03898*
X03582Y03897*
X03582Y03896*
X0359Y03877*
X0359Y03876*
X03591Y03875*
X03601Y03857*
X03602Y03857*
X03602Y03856*
X03616Y0384*
X03617Y0384*
X03617Y03839*
X03633Y03826*
X03634Y03826*
X03635Y03825*
X03653Y03815*
X03654Y03815*
X03655Y03815*
X03674Y03808*
X03675Y03808*
X03676Y03808*
X03697Y03805*
X03697Y03805*
X03698Y03804*
X03708Y03804*
X03708*
X03708*
X03762*
X03771Y03802*
X03779Y03799*
X03787Y03794*
X03793Y03787*
X03798Y0378*
X03802Y03771*
X03804Y03762*
Y03758*
X03803Y03631*
Y03627*
X03802Y0362*
X03799Y03612*
X03794Y03606*
X03789Y036*
X03782Y03596*
X03775Y03593*
X03767Y03591*
X03763*
X03543*
X03542Y03591*
X03542Y03591*
X03537Y03591*
X03536Y03591*
X03536*
X03526Y03589*
X03525Y03589*
X03524Y03588*
X03515Y03585*
X03514Y03584*
X03513Y03584*
X03505Y03578*
X03504Y03578*
X03504Y03577*
X03497Y0357*
X03496Y03569*
X03495Y03569*
X0349Y0356*
X0349Y03559*
X03489Y03559*
X03485Y0355*
X03485Y03549*
X03485Y03548*
X03483Y03538*
Y03537*
X03483Y03537*
X03482Y03532*
Y03531*
Y03531*
Y03202*
Y03202*
Y03201*
X03483Y03196*
X03483Y03196*
Y03195*
X03485Y03185*
X03485Y03184*
X03485Y03183*
X03489Y03174*
X0349Y03174*
X0349Y03173*
X03495Y03164*
X03496Y03164*
X03497Y03163*
X03504Y03156*
X03504Y03155*
X03505Y03155*
X03513Y03149*
X03514Y03149*
X03515Y03148*
X03524Y03145*
X03525Y03144*
X03526Y03144*
X03536Y03142*
X03536*
X03537Y03142*
X03542Y03142*
X03542*
X03543*
X03791*
X03791*
X03793*
X03798Y0314*
X03801Y03136*
X03803Y03132*
X03803Y0313*
Y03129*
X03803Y03129*
X03802Y02602*
X03797Y026*
X03796Y02602*
X03789Y02607*
X0378Y02608*
X03771Y02607*
X03764Y02602*
X03759Y02594*
X03758Y02592*
X03611Y02445*
X03591*
X03589Y02446*
X0358Y02448*
X03579Y0245*
X03578Y02452*
X03598Y02473*
X03602Y02478*
X03603Y02485*
Y02912*
X03605Y02914*
X03611Y02915*
X03618Y0292*
X03623Y02928*
X03625Y02937*
X03623Y02945*
X03618Y02953*
X03611Y02958*
X03602Y0296*
X03593Y02958*
X03587Y02954*
X03584Y02954*
X03581Y02955*
X03579Y02959*
X03418Y0312*
Y03925*
X03521Y04102*
X03522Y04103*
X03527Y04101*
X03536Y04103*
X03543Y04108*
X03548Y04116*
X0355Y04125*
X03548Y04133*
X03543Y04141*
X03536Y04146*
X0353Y04147*
X03527Y04152*
X03535Y04166*
X03566Y04148*
X03599Y04206*
X03599Y04207*
Y04212*
X0361Y04233*
X03577Y04252*
X03544Y04271*
X03531Y0425*
X03527Y04248*
X03526Y04249*
X03525Y04247*
X03423Y04306*
X03424Y04308*
X03423Y04308*
Y04314*
X03435Y04334*
X03401Y04353*
X03368Y04373*
X03356Y04351*
X03351Y0435*
X0335Y0435*
X03317Y04292*
X0339Y0425*
X03405Y04276*
X0343Y04261*
X0343Y04255*
X03427Y04253*
X03423Y04247*
X0342Y0424*
X03419Y04232*
X0342Y04224*
X03423Y04217*
X03427Y04211*
X03433Y04206*
X03441Y04203*
X03448Y04202*
X03456Y04203*
X03463Y04206*
X03469Y04211*
X03474Y04217*
X03477Y04224*
X03478Y04228*
X03483Y04231*
X03508Y04217*
X03493Y04191*
X03505Y04183*
X03367Y03943*
X03366Y03942*
X03366Y03941*
X03365Y03939*
X03365Y03936*
Y03935*
X03364Y03934*
Y03105*
X03366Y03099*
X03369Y03093*
X03413Y0305*
X0341Y03046*
X03406Y03048*
X03397Y0305*
X03388Y03048*
X03383Y03045*
X03378Y03048*
X0337Y0305*
X03361Y03048*
X03353Y03043*
X03348Y03036*
X03347Y03027*
X03348Y03018*
X03352Y03013*
X03348Y03008*
X03347Y03*
X03348Y02991*
X03352Y02986*
X03348Y02981*
X03347Y02972*
X03348Y02963*
X03353Y02956*
X03361Y02951*
X0337Y02949*
X03378Y02951*
X03383Y02954*
X03388Y02951*
X03397Y02949*
X03406Y02951*
X03414Y02956*
X03419Y02963*
X0342Y02972*
X03419Y02981*
X03415Y02986*
X03419Y02991*
X0342Y03*
X03419Y03008*
X03415Y03013*
X03419Y03018*
X0342Y03027*
X03419Y03036*
X03416Y0304*
X0342Y03043*
X0353Y02933*
Y02512*
X03499Y02482*
X03496Y02476*
X03494Y0247*
Y02425*
X0349Y02423*
X03464Y02449*
X03459Y02452*
X03452Y02454*
X03369*
X03353Y0247*
X03355Y02474*
X03368*
Y02489*
X03348*
Y02499*
X0337*
X03372Y02501*
X03373Y02501*
X0338Y02502*
X03386Y02506*
X0339Y02511*
X03392Y02512*
X03394*
X03395Y02511*
X03399Y02506*
X03405Y02502*
X03412Y02501*
X0342Y02502*
X03426Y02506*
X03429Y02511*
X03431Y02512*
X03433*
X03435Y02511*
X03438Y02506*
X03444Y02502*
X03452Y02501*
X03459Y02502*
X03465Y02506*
X03469Y02511*
X0347Y02512*
X03472*
X03474Y02511*
X03478Y02506*
X03484Y02502*
X03491Y02501*
X03498Y02502*
X03505Y02506*
X03509Y02513*
X0351Y0252*
Y02632*
X03509Y02639*
X03505Y02646*
X03498Y0265*
X03491Y02651*
X0337*
Y02656*
X03323*
Y02649*
X0332*
X03314Y02648*
X03308Y02644*
X03282Y02618*
X03278Y02612*
X03277Y02606*
Y02504*
X03278Y02498*
X03281Y02494*
X03278Y02489*
X03062*
X03043Y02508*
Y0277*
X03048*
Y0279*
X03053*
Y02795*
X03075*
X03077Y02796*
X03078Y02796*
X03085Y02798*
X03091Y02802*
X03095Y02807*
X03097Y02807*
X03099Y02807*
X031Y02807*
X03104Y02801*
X0311Y02797*
X03117Y02796*
X03124Y02797*
X03131Y02801*
X03134Y02806*
X03136Y02807*
X03138*
X0314Y02806*
X03143Y02801*
X03149Y02797*
X03156Y02796*
X03164Y02797*
X0317Y02801*
X03173Y02807*
X03175Y02807*
X03177Y02807*
X03179Y02807*
X03182Y02802*
X03189Y02798*
X03196Y02796*
X03203Y02798*
X03209Y02802*
X03213Y02808*
X03215Y02815*
Y02927*
X03213Y02935*
X03209Y02941*
X03203Y02945*
X03196Y02946*
X03075*
Y02951*
X03028*
Y02904*
X03032*
Y02866*
X03014Y02848*
X0301Y02843*
X03009Y02836*
Y0264*
X03004Y02638*
X02999Y02644*
X02993Y02647*
X02987Y02649*
X0291*
X02908Y0265*
X02901Y02651*
X0278*
Y02656*
X02742*
Y02672*
X02786Y02716*
X02875*
X02881Y02711*
X0289Y0271*
X02899Y02711*
X02907Y02716*
X02912Y02724*
X02913Y02733*
X02912Y02742*
X02907Y02749*
X02899Y02754*
X0289Y02756*
X02881Y02754*
X02875Y0275*
X0279*
X02787Y02755*
X02788Y02756*
X02789Y02762*
Y02778*
X02794Y0278*
X028Y02776*
X02809Y02775*
X02817Y02776*
X02825Y02781*
X0283Y02789*
X02831Y02796*
X02949Y02914*
X02952Y02919*
X02954Y02926*
Y02986*
X02958Y02993*
X0296Y03002*
X02958Y0301*
X02953Y03018*
X02945Y03023*
X02937Y03025*
X02928Y03023*
X0292Y03018*
X02915Y0301*
X02913Y03002*
X02915Y02993*
X02919Y02986*
Y02933*
X02807Y02821*
X028Y02819*
X02794Y02815*
X02789Y02818*
Y02852*
X02859Y02922*
X02867Y02923*
X02874Y02928*
X02879Y02936*
X02881Y02944*
X02879Y02953*
X02874Y02961*
X02867Y02966*
X02858Y02968*
X02849Y02966*
X02841Y02961*
X02836Y02953*
X02835Y02946*
X0277Y02881*
X02766Y02883*
Y02991*
X02764Y02997*
X02761Y03003*
X02711Y03053*
Y0406*
X02845Y04195*
X02849Y04193*
Y0419*
X02922*
X02995*
Y0421*
X03Y04213*
X03005Y04221*
X03007Y0423*
X03005Y04239*
X03Y04246*
X02993Y04251*
X02984Y04253*
X02975Y04251*
X02969Y04247*
X02856*
X02849Y04246*
X02844Y04242*
X02681Y0408*
X02678Y04074*
X02676Y04067*
Y03046*
X02678Y03039*
X02681Y03034*
X02732Y02984*
Y02815*
X02727Y02812*
X02721Y02816*
X02715Y02817*
X0271Y02823*
Y02847*
X02709Y02849*
Y029*
X0263*
Y02829*
X02673*
Y02815*
X02675Y02809*
X02679Y02803*
X0269Y02792*
X02691Y02786*
X02696Y02779*
X02703Y02774*
X02712Y02772*
X02716Y02772*
X02718Y02768*
X02585Y02635*
X02581Y02629*
X0258Y02623*
Y02622*
X02575Y02619*
X02569Y02624*
X02558Y02628*
X02556Y02629*
X02553Y02634*
X02554Y02637*
Y02644*
X02518*
X02482*
Y02637*
X02483Y02632*
X02486Y02627*
X02491Y02624*
X02496Y02623*
X02515*
X02517Y02619*
X02514Y02616*
X02507Y02607*
X02502Y02596*
X02501Y02584*
X02502Y02572*
X02507Y02561*
X02514Y02552*
X02524Y02545*
X02535Y0254*
X02546Y02538*
X02555Y0254*
X02557Y02535*
X02539Y02517*
X02535Y02511*
X02534Y02504*
Y02291*
X02535Y02284*
X02539Y02279*
X02569Y02248*
Y0216*
X02545Y02136*
X02541Y02139*
X02546Y0215*
X02547Y02151*
X02547Y02151*
X02553Y02169*
X02553Y0217*
X02553Y02171*
X02556Y02189*
X02556Y0219*
X02556Y0219*
X02556Y02209*
X02556Y0221*
X02556Y0221*
X02553Y02229*
X02552Y02229*
X02552Y0223*
X02546Y02248*
X02546Y02248*
X02546Y02249*
X02537Y02266*
X02537Y02266*
X02537Y02267*
X02526Y02282*
X02525Y02282*
X02525Y02283*
X02512Y02296*
X02511Y02297*
X0251Y02297*
X02495Y02308*
X02495Y02308*
X02494Y02309*
X02478Y02317*
X02477Y02317*
X02477Y02318*
X02468Y02321*
X02468*
X02467Y02321*
X02465Y02322*
X02462Y02324*
X02459Y02328*
X02458Y02332*
X02458Y02334*
Y03912*
X02458Y03914*
X0246Y03919*
X02463Y03923*
X02468Y03925*
X0247Y03925*
X02522*
X02523*
X02523*
X02532Y03925*
X02533Y03926*
X02533*
X02552Y03929*
X02552Y03929*
X02553Y03929*
X02571Y03935*
X02571Y03935*
X02572Y03936*
X02589Y03944*
X02589Y03945*
X0259Y03945*
X02605Y03956*
X02605Y03956*
X02606Y03957*
X02619Y0397*
X02619Y03971*
X0262Y03971*
X02631Y03986*
X02631Y03987*
X02632Y03988*
X0264Y04004*
X0264Y04005*
X0264Y04006*
X02646Y04023*
X02646Y04024*
X02646Y04025*
X02649Y04043*
Y04044*
X02649Y04045*
X02649Y04063*
X02649Y04064*
X02649Y04065*
X02646Y04083*
X02646Y04084*
X02646Y04085*
X0264Y04102*
X0264Y04103*
X02639Y04104*
X02631Y0412*
X0263Y04121*
X0263Y04121*
X02619Y04136*
X02619Y04137*
X02618Y04138*
X02605Y04151*
X02607Y04155*
X02608Y04156*
X0265*
Y0418*
X02582*
Y04171*
X02577Y04168*
X02571Y04172*
X0257Y04172*
X02569Y04172*
X02552Y04178*
X02551Y04178*
X0255Y04178*
X02532Y04181*
X02531*
X02531Y04181*
X02522Y04182*
X02521*
X02521*
X02471*
X02468Y04182*
X02464Y04184*
X0246Y04187*
X02458Y04192*
X02458Y04194*
Y0437*
X02458Y04372*
X02459Y04377*
X02461Y04382*
X02464Y04387*
X02468Y04391*
X02472Y04394*
X02477Y04396*
X02483Y04397*
X02485Y04397*
X03285*
X03376*
G37*
G36*
X02681Y02676D02*
Y02525D01*
X02677Y02518*
X02675Y02509*
X02676Y02506*
X02672Y02501*
X02669Y02502*
X0266Y025*
X02653Y02495*
X02648Y02488*
X02646Y02479*
X02648Y0247*
X02652Y02464*
Y0225*
X02637Y02235*
X0263Y02233*
X02623Y02228*
X02618Y02221*
X02616Y02212*
X02618Y02203*
X02623Y02196*
X0263Y02191*
X02639Y02189*
X02648Y02191*
X02656Y02196*
X02661Y02203*
X02662Y02212*
X02681Y0223*
X02685Y02236*
X02686Y02243*
Y02464*
X0269Y0247*
X02692Y02479*
X02691Y02483*
X02695Y02487*
X02698Y02486*
X02703Y02487*
X02708Y02483*
X02708Y02483*
X02704Y02477*
X02702Y02468*
X02704Y02459*
X02709Y02452*
X02716Y02447*
X02725Y02445*
X02734Y02447*
X02741Y02452*
X02741Y02452*
X02747Y02451*
X02748Y02445*
X02753Y02438*
X0276Y02433*
X02769Y02431*
X02778Y02433*
X02783Y02436*
X02788Y02433*
X02797Y02431*
X02806Y02433*
X02813Y02438*
X02818Y02445*
X0282Y02454*
X02818Y02463*
X02813Y02471*
X02806Y02476*
X02797Y02477*
X02788Y02476*
X02783Y02472*
X02778Y02476*
X02778Y02476*
Y02489*
X02758*
Y02499*
X02779*
X02782Y02501*
X02782Y02501*
X0279Y02502*
X02796Y02506*
X02799Y02511*
X02801Y02512*
X02803*
X02805Y02511*
X02808Y02506*
X02815Y02502*
X02822Y02501*
X02829Y02502*
X02835Y02506*
X02839Y02511*
X02841Y02512*
X02842*
X02844Y02511*
X02848Y02506*
X02854Y02502*
X02861Y02501*
X02868Y02502*
X02875Y02506*
X02878Y02511*
X0288Y02512*
X02882*
X02884Y02511*
X02887Y02506*
X02893Y02502*
X02901Y02501*
X02908Y02502*
X02914Y02506*
X02918Y02513*
X0292Y0252*
Y02614*
X0298*
X02982Y02612*
Y02524*
X02977Y02522*
X02977Y02524*
X02969Y02529*
X0296Y02531*
X02951Y02529*
X02944Y02524*
X02939Y02516*
X02937Y02507*
X02939Y02499*
X02943Y02492*
Y02282*
X02939Y02276*
X02937Y02267*
X02939Y02258*
X02944Y02251*
X02951Y02246*
X0296Y02244*
X02969Y02246*
X02977Y02251*
X02982Y02258*
X02983Y02267*
X02982Y02276*
X02977Y02282*
Y02489*
X02979Y02491*
X02985Y02491*
X02987Y02487*
X03033Y02442*
X03038Y02439*
X03045Y02437*
X03282*
X03333Y02386*
X03338Y02382*
X03345Y02381*
X03421*
X03435Y02366*
Y01633*
X0341Y01608*
X03407Y01608*
X03405Y01611*
X03405Y01613*
X03407Y01617*
X0341Y01624*
X03412Y0163*
Y01634*
Y0181*
Y01814*
X0341Y0182*
X03407Y01827*
X03406Y01829*
X03404Y01832*
X03399Y01837*
X03396Y01839*
X03394Y0184*
X03387Y01843*
X03381Y01844*
X03043*
X03041Y01849*
Y01849*
X03042Y01858*
X03041Y01867*
X03036Y01873*
Y01879*
X03257Y021*
X03262Y02098*
X03261Y02093*
X03263Y02084*
X03266Y02079*
X03263Y02074*
X03261Y02065*
X03263Y02057*
X03266Y02052*
X03263Y02047*
X03261Y02038*
X03263Y02029*
X03268Y02022*
X03275Y02017*
X03284Y02015*
X03293Y02017*
X03298Y0202*
X03304Y02017*
X03313Y02015*
X03321Y02017*
X03326Y0202*
X03331Y02017*
X0334Y02015*
X03349Y02017*
X03356Y02022*
X03361Y02029*
X03363Y02038*
X03361Y02047*
X03358Y02052*
X03361Y02057*
X03363Y02065*
X03361Y02074*
X03358Y02079*
X03361Y02084*
X03363Y02093*
X03361Y02102*
X03356Y02109*
X03349Y02114*
X0334Y02116*
X03331Y02114*
X03326Y02111*
X03321Y02114*
X03313Y02116*
X03304Y02114*
X03298Y02111*
X03293Y02114*
X03284Y02116*
X03279Y02115*
X03277Y0212*
X03356Y02199*
X03359*
X03366Y02195*
X03375Y02193*
X03383Y02195*
X03391Y022*
X03396Y02207*
X03398Y02216*
X03397Y02221*
X03401Y02225*
X03405Y02225*
X03414Y02226*
X03421Y02231*
X03426Y02239*
X03428Y02248*
X03426Y02256*
X03421Y02264*
X03414Y02269*
X03405Y02271*
X03396Y02269*
X0339Y02265*
X03329*
X03323Y02263*
X03317Y0226*
X02936Y01878*
X0293Y0188*
X02929Y01885*
X02924Y01893*
X02917Y01898*
X02908Y019*
X02904Y01899*
X02901Y01902*
Y0191*
X02834*
X02831Y01908*
X02827Y01911*
X0282Y01912*
X02818Y01917*
X02915Y02014*
X02971*
X02978Y02015*
X02983Y02019*
X03039Y02075*
X03043Y02081*
X03044Y02087*
Y02179*
X03048*
Y02199*
X03053*
Y02204*
X03075*
X03077Y02206*
X03078Y02206*
X03085Y02207*
X03091Y02211*
X03095Y02216*
X03097Y02216*
X03099*
X031Y02216*
X03104Y02211*
X0311Y02207*
X03117Y02205*
X03124Y02207*
X03131Y02211*
X03134Y02216*
X03136Y02216*
X03138*
X0314Y02216*
X03143Y02211*
X03149Y02207*
X03156Y02205*
X03164Y02207*
X0317Y02211*
X03173Y02216*
X03175Y02216*
X03177*
X03179Y02216*
X03182Y02211*
X03189Y02207*
X03196Y02206*
X03203Y02207*
X03209Y02211*
X03213Y02217*
X03215Y02225*
Y02337*
X03213Y02344*
X03209Y0235*
X03203Y02354*
X03196Y02356*
X03075*
Y0236*
X03028*
Y02313*
X03029Y02311*
X03015Y02297*
X03011Y02292*
X0301Y02285*
Y02186*
X03006Y02184*
X03005Y02184*
X02997Y02186*
X02988Y02184*
X0298Y02179*
X02975Y02172*
X02974Y02163*
X02975Y02154*
X02979Y02149*
Y02101*
X02949Y02072*
X02897*
X02891Y0207*
X02885Y02067*
X02745Y01927*
X02742Y01921*
X0274Y01915*
Y0191*
X02739Y01906*
X02735*
X02715*
Y01833*
Y0176*
X02739*
X0274Y01755*
Y01749*
X02733Y01741*
X02676*
X02582Y01835*
X02582Y01837*
X02577Y01845*
X02569Y0185*
X02561Y01851*
X02552Y0185*
X02544Y01845*
X02539Y01837*
X02537Y01828*
X02539Y01819*
X02544Y01812*
X02552Y01807*
X02561Y01805*
X02563Y01806*
X02657Y01712*
X02662Y01708*
X02669Y01707*
X0274*
X02744Y01708*
X02748Y01706*
X02748Y01704*
X0275Y01696*
X02755Y01689*
X02762Y01684*
X02764Y01684*
X02765Y01679*
X02763Y01677*
X02759Y01671*
X02758Y01665*
Y01488*
X02759Y01481*
X02763Y01476*
X02814Y01424*
X0282Y01421*
X02826Y01419*
X03023*
X0303Y01421*
X03035Y01424*
X03085Y01475*
X03456*
X03463Y01476*
X03468Y0148*
X03563Y01574*
X03566Y0158*
X03568Y01586*
Y02349*
X03573Y02352*
X0358Y0235*
X03589Y02352*
X03591Y02353*
X03648*
X03656Y02355*
X03662Y02359*
X03686Y02383*
X03753*
X03754Y02382*
X03763Y0238*
X03771Y02381*
X03776Y02379*
Y02271*
X03771Y02268*
X03766Y0226*
X03764Y02252*
X03766Y02243*
X03771Y02235*
X03778Y0223*
X03787Y02228*
X03796Y0223*
X03798Y02231*
X03802Y02229*
X03802Y02118*
Y02111*
X03799Y02097*
X03794Y02084*
X03786Y02072*
X03776Y02062*
X03765Y02054*
X03752Y02048*
X03738Y02045*
X03731Y02045*
X03731*
X03731*
X03722Y02044*
X03721Y02044*
X0372*
X03703Y0204*
X03702Y0204*
X03701Y0204*
X03685Y02034*
X03684Y02033*
X03683Y02033*
X03668Y02024*
X03667Y02024*
X03666Y02023*
X03652Y02012*
X03652Y02012*
X03651Y02011*
X03639Y01998*
X03638Y01998*
X03638Y01997*
X03627Y01982*
X03627Y01982*
X03627Y01981*
X03619Y01965*
X03619Y01964*
X03618Y01964*
X03613Y01947*
X03613Y01946*
X03612Y01945*
X0361Y01927*
Y01927*
X0361Y01926*
Y01908*
X0361Y01907*
Y01906*
X03612Y01889*
X03613Y01888*
X03613Y01887*
X03618Y0187*
X03618Y01869*
X03619Y01869*
X03626Y01853*
X03627Y01852*
X03627Y01851*
X03637Y01837*
X03638Y01836*
X03638Y01835*
X03651Y01822*
X03651Y01822*
X03652Y01821*
X03666Y0181*
X03667Y0181*
X03667Y01809*
X03683Y01801*
X03684Y018*
X03684Y018*
X03701Y01794*
X03702Y01794*
X03703Y01793*
X0372Y0179*
X03721*
X03721Y01789*
X0373Y01789*
X0373*
X0373*
X03738Y01788*
X03752Y01784*
X03765Y01778*
X03777Y01769*
X03787Y01758*
X03795Y01746*
X038Y01732*
X03803Y01717*
X03803Y0171*
Y0171*
X03803Y01689*
X03799Y01648*
X03793Y01607*
X03783Y01567*
X0377Y01528*
X03754Y0149*
X03734Y01453*
X03713Y01418*
X03688Y01385*
X03661Y01354*
X03631Y01325*
X036Y01298*
X03566Y01274*
X03531Y01253*
X03494Y01235*
X03455Y01219*
X03416Y01207*
X03375Y01198*
X03335Y01192*
X03293Y01189*
X03273Y0119*
X03273*
X03168*
X03164Y01195*
X03166Y01198*
X03167Y01207*
Y01242*
X03166Y01251*
X03162Y01259*
X03157Y01266*
X0315Y01271*
X03142Y01275*
X03133Y01276*
X03125*
X03117Y01275*
X03108Y01271*
X03101Y01266*
X03096Y01259*
X03093Y01251*
X03091Y01242*
Y01207*
X03093Y01198*
X03094Y01195*
X03091Y0119*
X02892*
X02889Y01195*
X0289Y01198*
X02891Y01207*
Y01242*
X0289Y01251*
X02887Y01259*
X02881Y01266*
X02874Y01271*
X02866Y01275*
X02857Y01276*
X0285*
X02841Y01275*
X02833Y01271*
X02826Y01266*
X0282Y01259*
X02817Y01251*
X02816Y01242*
Y01207*
X02817Y01198*
X02819Y01195*
X02815Y0119*
X02486*
X02483*
X02478Y01191*
X02473Y01193*
X02468Y01196*
X02464Y012*
X02461Y01204*
X02459Y01209*
X02458Y01214*
Y01217*
Y01723*
X02459Y01724*
X02465Y01722*
X02467Y01719*
X02475Y01714*
X02484Y01713*
X02493Y01714*
X025Y01719*
X02505Y01727*
X02507Y01736*
X02505Y01745*
X025Y01752*
X02493Y01757*
X02485Y01759*
X02481Y01763*
Y01861*
X02486Y01864*
X02492Y01863*
X02501Y01865*
X02508Y0187*
X02513Y01878*
X02515Y01886*
X02513Y01895*
X0251Y019*
X02513Y01905*
X02514Y01914*
X02513Y01922*
X02508Y0193*
X025Y01935*
X02491Y01937*
X02486Y01936*
X02481Y0194*
Y01955*
X02486Y01959*
X02492Y01958*
X02501Y0196*
X02508Y01965*
X02513Y01972*
X02515Y01981*
X02513Y0199*
X0251Y01995*
X02513Y02*
X02515Y02008*
X02513Y02017*
X02508Y02025*
X02501Y0203*
X02495Y02031*
X02493Y02036*
X02598Y02141*
X02602Y02147*
X02603Y02153*
Y02255*
X02602Y02262*
X02598Y02268*
X02568Y02298*
Y02497*
X02609Y02539*
X02613Y02544*
X02614Y02551*
Y02616*
X02677Y02678*
X02681Y02676*
G37*
G36*
X03776Y02546D02*
Y02428D01*
X03771Y02425*
X03763Y02426*
X03754Y02424*
X03753Y02423*
X03678*
X0367Y02422*
X03664Y02417*
X0364Y02394*
X03591*
X03589Y02395*
X0358Y02397*
X03576Y02396*
X03571Y02399*
X03576Y02403*
X0358Y02402*
X03589Y02403*
X03591Y02405*
X0362*
X03627Y02406*
X03634Y02411*
X03771Y02548*
X03776Y02546*
G37*
G36*
X03003Y0189D02*
X03002Y01886D01*
Y01873*
X02998Y01867*
X02996Y01858*
X02998Y01849*
X03003Y01841*
X0301Y01836*
X03014Y01836*
X03015Y01834*
X03016Y0183*
X03014Y01827*
X0301Y0182*
X0301Y01817*
X03009Y01814*
Y0181*
Y01634*
Y01633*
X03005Y01629*
X03004Y01629*
X02962*
X02957Y01632*
X02948Y01634*
X0294Y01632*
X02938Y01631*
X02934Y01634*
Y01744*
X02938Y01748*
X02938Y01749*
X0294Y01748*
X02949Y0175*
X02957Y01755*
X02962Y01762*
X02964Y01771*
X02962Y0178*
X02957Y01788*
Y0179*
X02962Y01798*
X02964Y01807*
X02962Y01815*
X02958Y01822*
Y01852*
X02998Y01892*
X03003Y0189*
G37*
%LNright_board-2*%
%LPC*%
G36*
X02999Y04376D02*
X02845D01*
Y0436*
X02731*
Y04376*
X02578*
Y0431*
X02731*
Y04326*
X02845*
Y0431*
X02999*
Y04313*
X03003Y04316*
X03007Y04315*
X03016Y04317*
X03024Y04322*
X03029Y04329*
X03031Y04338*
X03029Y04347*
X03024Y04354*
X03016Y04359*
X03007Y04361*
X03003Y0436*
X02999Y04363*
Y04376*
G37*
G36*
X03423Y04381D02*
X03411Y0436D01*
X0344Y04343*
X03452Y04364*
X03423Y04381*
G37*
G36*
X03561Y04301D02*
X03549Y0428D01*
X03578Y04263*
X0359Y04285*
X03561Y04301*
G37*
G36*
X02728Y04215D02*
X0266D01*
Y0419*
X02728*
Y04215*
G37*
G36*
X0265D02*
X02582D01*
Y0419*
X0265*
Y04215*
G37*
G36*
X02995Y0418D02*
X02927D01*
Y04156*
X02995*
Y0418*
G37*
G36*
X02917D02*
X02849D01*
Y04156*
X02917*
Y0418*
G37*
G36*
X02728D02*
X0266D01*
Y04156*
X02728*
Y0418*
G37*
G36*
X02826Y04031D02*
X02817Y04029D01*
X02813Y04025*
X02808Y04029*
X02799Y04031*
X0279Y04029*
X02785Y04025*
X0278Y04029*
X02771Y04031*
X02762Y04029*
X02755Y04024*
X0275Y04016*
X02748Y04007*
X0275Y03999*
X02755Y03991*
X02762Y03986*
X02771Y03984*
X0278Y03986*
X02785Y03989*
X0279Y03986*
X02799Y03984*
X02808Y03986*
X02813Y03989*
X02817Y03986*
X02826Y03984*
X02835Y03986*
X02843Y03991*
X02848Y03999*
X02849Y04007*
X02848Y04016*
X02843Y04024*
X02835Y04029*
X02826Y04031*
G37*
G36*
X0255Y03906D02*
X02536Y03905D01*
X02522Y039*
X02509Y03894*
X02498Y03885*
X02489Y03874*
X02482Y03861*
X02478Y03847*
X02477Y03833*
X02478Y03819*
X02482Y03805*
X02489Y03792*
X02498Y03781*
X02509Y03772*
X02522Y03765*
X02536Y03761*
X0255Y0376*
X02564Y03761*
X02578Y03765*
X02591Y03772*
X02602Y03781*
X02611Y03792*
X02618Y03805*
X02622Y03819*
X02623Y03833*
X02622Y03847*
X02618Y03861*
X02611Y03874*
X02602Y03885*
X02591Y03894*
X02578Y039*
X02564Y03905*
X0255Y03906*
G37*
G36*
X02945Y03811D02*
Y03701D01*
X03054*
X03053Y03714*
X03049Y03732*
X03042Y03748*
X03033Y03764*
X03021Y03777*
X03008Y03789*
X02992Y03799*
X02976Y03805*
X02958Y0381*
X02945Y03811*
G37*
G36*
X02935D02*
X02922Y0381D01*
X02905Y03805*
X02888Y03799*
X02873Y03789*
X02859Y03777*
X02847Y03764*
X02838Y03748*
X02831Y03732*
X02827Y03714*
X02826Y03701*
X02935*
Y03811*
G37*
G36*
X0371Y03785D02*
X03695Y03784D01*
X03682Y0378*
X03669Y03773*
X03658Y03764*
X03649Y03753*
X03642Y0374*
X03638Y03726*
X03636Y03712*
X03638Y03698*
X03642Y03684*
X03649Y03671*
X03658Y0366*
X03669Y03651*
X03682Y03644*
X03695Y0364*
X0371Y03639*
X03724Y0364*
X03738Y03644*
X0375Y03651*
X03761Y0366*
X0377Y03671*
X03777Y03684*
X03781Y03698*
X03783Y03712*
X03781Y03726*
X03777Y0374*
X0377Y03753*
X03761Y03764*
X0375Y03773*
X03738Y0378*
X03724Y03784*
X0371Y03785*
G37*
G36*
X03054Y03691D02*
X02945D01*
Y03582*
X02958Y03583*
X02976Y03587*
X02992Y03594*
X03008Y03604*
X03021Y03615*
X03033Y03629*
X03042Y03644*
X03049Y03661*
X03053Y03678*
X03054Y03691*
G37*
G36*
X02935D02*
X02826D01*
X02827Y03678*
X02831Y03661*
X02838Y03644*
X02847Y03629*
X02859Y03615*
X02873Y03604*
X02888Y03594*
X02905Y03587*
X02922Y03583*
X02935Y03582*
Y03691*
G37*
G36*
X03639Y03059D02*
X03622D01*
Y03043*
X03639*
Y03059*
G37*
G36*
X0289Y03086D02*
X02881Y03084D01*
X02874Y03079*
X02869Y03071*
X02867Y03063*
X02869Y03054*
X02874Y03046*
X02881Y03041*
X0289Y03039*
X02899Y03041*
X02907Y03046*
X02912Y03054*
X02913Y03063*
X02912Y03071*
X02907Y03079*
X02899Y03084*
X0289Y03086*
G37*
G36*
X03639Y03033D02*
X03622D01*
Y03017*
X03639*
Y03033*
G37*
G36*
X03716Y03065D02*
X03669D01*
X03663Y03064*
X03661Y03062*
X03649*
Y03059*
X03649*
Y03038*
Y03017*
X03649*
Y03014*
X03651*
Y02968*
X03652Y02963*
X03655Y02958*
X03659Y02954*
X03663Y02951*
X03669Y0295*
X03716*
X03721Y02951*
X03726Y02954*
X0373Y02958*
X03733Y02963*
X03734Y02968*
Y03047*
X03733Y03052*
X0373Y03057*
X03726Y03061*
X03721Y03064*
X03716Y03065*
G37*
G36*
X02705Y02971D02*
X02675D01*
Y02945*
X02705*
Y02971*
G37*
G36*
X02665D02*
X02634D01*
Y02945*
X02665*
Y02971*
G37*
G36*
X02522Y02927D02*
X02506D01*
Y02911*
X02522*
Y02927*
G37*
G36*
X02705Y02935D02*
X02675D01*
Y02908*
X02705*
Y02935*
G37*
G36*
X02665D02*
X02634D01*
Y02908*
X02665*
Y02935*
G37*
G36*
X03073Y02785D02*
X03058D01*
Y0277*
X03073*
Y02785*
G37*
G36*
X02619Y02975D02*
X0254D01*
Y02927*
X02532*
Y02906*
X02527*
Y02901*
X02506*
Y029*
X02503*
Y0285*
X02505*
Y02838*
X02503Y02836*
X02502Y0283*
Y02815*
X02503Y02813*
X02499Y02809*
X02496*
X0249Y02808*
X02486Y02805*
X02482Y02801*
X02479Y02796*
X02478Y02791*
Y02763*
Y02704*
X02479Y02699*
X02482Y02694*
X02486Y0269*
X0249Y02687*
X02496Y02686*
X0257*
X02576Y02687*
X0258Y0269*
X02588Y02698*
X02591Y02703*
X02592Y02708*
Y02783*
X02591Y02788*
X02588Y02793*
X02584Y02797*
X0258Y028*
X02574Y02801*
X02572*
X0257Y02801*
X02569*
X02567Y02801*
X0256*
X02557Y02805*
X02552Y02808*
X02552*
X02551Y02809*
X02552Y02815*
Y02829*
X02619*
Y029*
Y02904*
Y02975*
G37*
G36*
X0254Y02674D02*
X02523D01*
Y02654*
X02554*
Y0266*
X02553Y02665*
X0255Y0267*
X02545Y02673*
X0254Y02674*
G37*
G36*
X02513D02*
X02496D01*
X02491Y02673*
X02486Y0267*
X02483Y02665*
X02482Y0266*
Y02654*
X02513*
Y02674*
G37*
G36*
X02915Y02477D02*
X02906Y02476D01*
X02901Y02472*
X02896Y02476*
X02887Y02477*
X02879Y02476*
X02871Y02471*
X02866Y02463*
X02864Y02454*
X02866Y02445*
X02871Y02438*
X02879Y02433*
X02887Y02431*
X02896Y02433*
X02901Y02436*
X02906Y02433*
X02915Y02431*
X02924Y02433*
X02931Y02438*
X02936Y02445*
X02938Y02454*
X02936Y02463*
X02931Y02471*
X02924Y02476*
X02915Y02477*
G37*
G36*
X03073Y02194D02*
X03058D01*
Y02179*
X03073*
Y02194*
G37*
G36*
X02856Y0214D02*
X02847Y02138D01*
X02841Y02134*
X02834Y02138*
X02826Y0214*
X02817Y02138*
X02809Y02133*
X02804Y02126*
X02803Y02117*
X02804Y02108*
X02809Y021*
X02817Y02095*
X02826Y02094*
X02834Y02095*
X02841Y021*
X02847Y02095*
X02856Y02094*
X02865Y02095*
X02872Y021*
X02877Y02108*
X02879Y02117*
X02877Y02126*
X02872Y02133*
X02865Y02138*
X02856Y0214*
G37*
G36*
X0371Y0221D02*
X03695Y02209D01*
X03682Y02205*
X03669Y02198*
X03658Y02189*
X03649Y02178*
X03642Y02165*
X03638Y02151*
X03636Y02137*
X03638Y02123*
X03642Y02109*
X03649Y02096*
X03658Y02085*
X03669Y02076*
X03682Y02069*
X03695Y02065*
X0371Y02064*
X03724Y02065*
X03738Y02069*
X0375Y02076*
X03761Y02085*
X0377Y02096*
X03777Y02109*
X03781Y02123*
X03783Y02137*
X03781Y02151*
X03777Y02165*
X0377Y02178*
X03761Y02189*
X0375Y02198*
X03738Y02205*
X03724Y02209*
X0371Y0221*
G37*
G36*
X02554Y01984D02*
X02545Y01982D01*
X02538Y01977*
X02533Y01969*
X02531Y01961*
X02533Y01952*
X02535Y01949*
X02531Y01943*
X02529Y01934*
X02531Y01925*
X02536Y01918*
X02543Y01913*
X02552Y01911*
X02561Y01913*
X02568Y01918*
X02573Y01925*
X02575Y01934*
X02573Y01943*
X02572Y01946*
X02576Y01952*
X02577Y01961*
X02576Y01969*
X02571Y01977*
X02563Y01982*
X02554Y01984*
G37*
G36*
X02705Y01906D02*
X0268D01*
Y01838*
X02705*
Y01906*
G37*
G36*
Y01828D02*
X0268D01*
Y0176*
X02705*
Y01828*
G37*
G36*
X02739Y01638D02*
X02715D01*
Y0157*
X02739*
Y01638*
G37*
G36*
X02705D02*
X0268D01*
Y0157*
X02705*
Y01638*
G37*
G36*
X02739Y0156D02*
X02715D01*
Y01492*
X02739*
Y0156*
G37*
G36*
X02705D02*
X0268D01*
Y01492*
X02705*
Y0156*
G37*
G36*
X0255Y01533D02*
X02536Y01532D01*
X02522Y01528*
X02509Y01521*
X02498Y01512*
X02489Y01501*
X02482Y01488*
X02478Y01474*
X02477Y0146*
X02478Y01446*
X02482Y01432*
X02489Y0142*
X02498Y01408*
X02509Y01399*
X02522Y01393*
X02536Y01388*
X0255Y01387*
X02564Y01388*
X02578Y01393*
X02591Y01399*
X02602Y01408*
X02611Y0142*
X02618Y01432*
X02622Y01446*
X02623Y0146*
X02622Y01474*
X02618Y01488*
X02611Y01501*
X02602Y01512*
X02591Y01521*
X02578Y01528*
X02564Y01532*
X0255Y01533*
G37*
G36*
X0309Y01373D02*
X03079Y01372D01*
X03068Y01368*
X0306Y01361*
X03053Y01352*
X03049Y01342*
X03047Y01331*
X03049Y0132*
X03053Y01309*
X0306Y01301*
X03068Y01294*
X03079Y01289*
X0309Y01288*
X03101Y01289*
X03111Y01294*
X0312Y01301*
X03127Y01309*
X03131Y0132*
X03132Y01331*
X03131Y01342*
X03127Y01352*
X0312Y01361*
X03111Y01368*
X03101Y01372*
X0309Y01373*
G37*
G36*
X02893D02*
X02882Y01372D01*
X02872Y01368*
X02863Y01361*
X02856Y01352*
X02852Y01342*
X0285Y01331*
X02852Y0132*
X02856Y01309*
X02863Y01301*
X02872Y01294*
X02882Y01289*
X02893Y01288*
X02904Y01289*
X02914Y01294*
X02923Y01301*
X0293Y01309*
X02934Y0132*
X02936Y01331*
X02934Y01342*
X0293Y01352*
X02923Y01361*
X02914Y01368*
X02904Y01372*
X02893Y01373*
G37*
%LNright_board-3*%
%LPD*%
G36*
X0372Y03047D02*
Y02968D01*
X03716Y02964*
X03669*
X03665Y02968*
Y03014*
X03669*
Y03051*
X03716*
X0372Y03047*
G37*
G36*
X02555Y02787D02*
X02567D01*
X02569Y02787*
X02572Y02787*
X02574*
X02578Y02783*
Y02708*
X0257Y027*
X02496*
X02492Y02704*
Y02759*
Y02763*
Y02771*
Y02791*
X02496Y02795*
X02547*
X02555Y02787*
G37*
G54D10*
X03166Y0279D02*
X03176D01*
X03137D02*
X03166D01*
X0313D02*
X03137D01*
X03097D02*
X0313D01*
X03176D02*
X03216D01*
X03063D02*
X03097D01*
X02756Y02632D02*
X02782D01*
Y0252D02*
Y02632D01*
X03156Y02927D02*
X03196D01*
X03117D02*
X03156D01*
X03078D02*
X03117D01*
X03051D02*
X03078D01*
X02901Y02631D02*
Y02632D01*
Y0252D02*
Y02631D01*
X02894Y02632D02*
X02901D01*
X02861D02*
X02894D01*
X02822D02*
X02861D01*
X02782D02*
X02822D01*
X03156Y02337D02*
X03196D01*
X03117D02*
X03156D01*
X03078D02*
X03117D01*
X03053D02*
X03078D01*
X03051D02*
X03053D01*
X03511Y02494D02*
Y02606D01*
X03346Y02632D02*
X03491D01*
Y0252D02*
Y02632D01*
X03348Y02494D02*
X03358D01*
X03511*
X03471D02*
Y02606D01*
X03432Y02494D02*
Y02606D01*
X03393Y02494D02*
Y02606D01*
X03373Y0252D02*
Y02632D01*
X03412Y0252D02*
Y02632D01*
X03452Y0252D02*
Y02632D01*
X02861Y0252D02*
Y02632D01*
X02822Y0252D02*
Y02632D01*
X02802Y02494D02*
Y02606D01*
X02842Y02494D02*
Y02606D01*
X02881Y02494D02*
Y02606D01*
X02768Y02494D02*
X0292D01*
X02758D02*
X02768D01*
X0292D02*
Y02606D01*
X03156Y02224D02*
Y02337D01*
X03117Y02224D02*
Y02337D01*
X03078Y02225D02*
Y02337D01*
X03097Y02199D02*
Y02311D01*
X03137Y02199D02*
Y02311D01*
X03176Y02199D02*
Y02311D01*
X03063Y02199D02*
X03216D01*
X03053D02*
X03063D01*
X03196Y02225D02*
Y02337D01*
X03216Y02199D02*
Y02311D01*
X03156Y02815D02*
Y02927D01*
X03117Y02815D02*
Y02927D01*
X03078Y02815D02*
Y02927D01*
X03097Y0279D02*
Y02902D01*
X03137Y0279D02*
Y02902D01*
X03176Y0279D02*
Y02902D01*
X03053Y0279D02*
X03063D01*
X03196Y02815D02*
Y02927D01*
X03216Y0279D02*
Y02902D01*
G54D11*
X0276Y02875D02*
X0277Y02884D01*
X0276Y02768D02*
Y02875D01*
X02679Y02687D02*
X0276Y02768D01*
X02679Y02675D02*
Y02687D01*
G54D12*
X02691Y02815D02*
X02712Y02795D01*
X02691Y02815D02*
Y02847D01*
X02674Y02865D02*
X02691Y02847D01*
X0267Y02865D02*
X02674D01*
G54D13*
X03026Y02836D02*
X03049Y02859D01*
X03026Y02501D02*
Y02836D01*
Y02501D02*
X03055Y02472D01*
X0378Y02585D02*
X03793Y02572D01*
X0378Y02585D02*
D01*
X03421Y03038D02*
D01*
X03409Y0305D02*
X03421Y03038D01*
X02728Y02818D02*
X02733Y02814D01*
Y02787D02*
Y02814D01*
X02711Y02765D02*
X02733Y02787D01*
X02789Y02781D02*
X02796Y02774D01*
X02789Y02781D02*
Y02818D01*
X02793Y02822*
X02772Y02762D02*
Y02859D01*
X02698Y02689D02*
X02772Y02762D01*
Y02859D02*
X02857Y02943D01*
X02984Y0249D02*
Y02515D01*
X0298Y02519D02*
X02984Y02515D01*
X0298Y02519D02*
Y02526D01*
X02744Y02451D02*
X02746Y02453D01*
Y0246*
X0275Y02464*
Y02486*
X02758Y02494*
X02464Y01755D02*
X02484Y01736D01*
X02464Y02031D02*
X02586Y02153D01*
X02464Y01755D02*
Y02031D01*
X02698Y02509D02*
Y02689D01*
X02749Y02774D02*
Y02991D01*
X02597Y02623D02*
X02749Y02774D01*
X02597Y02551D02*
Y02623D01*
X02937Y02926D02*
Y02998D01*
X02809Y02798D02*
X02937Y02926D01*
Y02998D02*
X02938Y02999D01*
X02908Y02031D02*
X02971D01*
X03027Y02087D02*
Y02285D01*
X02971Y02031D02*
X03027Y02087D01*
X02785Y01908D02*
X02908Y02031D01*
X02757Y01742D02*
Y01915D01*
X02897Y02055D02*
X02956D01*
X02757Y01915D02*
X02897Y02055D01*
X02785Y01716D02*
Y01908D01*
X03586Y02485D02*
Y02919D01*
X03551Y01586D02*
Y02449D01*
X03586Y02485*
X03531Y01594D02*
Y02459D01*
X03566Y02495D02*
Y02947D01*
X03531Y02459D02*
X03566Y02495D01*
X03547Y02505D02*
Y0294D01*
X03511Y01602D02*
Y0247D01*
X03547Y02505*
X02693Y03046D02*
Y04067D01*
Y03046D02*
X02749Y02991D01*
X02693Y04067D02*
X02856Y0423D01*
X03401Y03113D02*
Y03929D01*
X03381Y03105D02*
X03547Y0294D01*
X03381Y03105D02*
Y03934D01*
X03401Y03113D02*
X03566Y02947D01*
X02826Y015D02*
Y01632D01*
X02842Y01648D02*
Y0175D01*
X02826Y01632D02*
X02842Y01648D01*
X02818Y01773D02*
Y01889D01*
Y01773D02*
X02842Y0175D01*
X02917Y01594D02*
X0293Y01581D01*
X03007*
X02917Y01594D02*
Y01752D01*
X02927Y01762*
X02985Y01551D02*
X03433D01*
X02984Y0155D02*
X02985Y01551D01*
X03023Y01437D02*
X03078Y01492D01*
X02775Y01488D02*
X02826Y01437D01*
X03023*
X03078Y01492D02*
X03456D01*
X03551Y01586*
X03063Y01511D02*
X03448D01*
X03007Y01456D02*
X03063Y01511D01*
X02838Y01456D02*
X03007D01*
X03Y01476D02*
X03055Y01531D01*
X0285Y01476D02*
X03D01*
X03055Y01531D02*
X0344D01*
X03448Y01511D02*
X03531Y01594D01*
X0344Y01531D02*
X03511Y01602D01*
X03433Y01551D02*
X03492Y0161D01*
X03007Y01581D02*
X03018Y0157D01*
X03425*
X03472Y01618*
X03026Y0159D02*
X03417D01*
X03004Y01612D02*
X03026Y0159D01*
X03417D02*
X03452Y01626D01*
X02949Y01612D02*
X03004D01*
X03492Y0161D02*
Y02397D01*
X03472Y01618D02*
Y02385D01*
X03452Y02437D02*
X03492Y02397D01*
X0344Y02417D02*
X03472Y02385D01*
X03452Y01626D02*
Y02374D01*
X03428Y02398D02*
X03452Y02374D01*
X0296Y02267D02*
Y02507D01*
X02669Y02243D02*
Y02479D01*
X02639Y02213D02*
X02669Y02243D01*
X02639Y02212D02*
Y02213D01*
X02725Y02679D02*
X02779Y02733D01*
X02889*
X02725Y02468D02*
Y02679D01*
X02551Y02504D02*
X02597Y02551D01*
X02551Y02291D02*
Y02504D01*
X03793Y02261D02*
Y02572D01*
X03787Y02255D02*
X03793Y02261D01*
X03787Y02252D02*
Y02255D01*
X02856Y0423D02*
X02984D01*
X02551Y02291D02*
X02586Y02255D01*
Y02153D02*
Y02255D01*
X03019Y01858D02*
Y01886D01*
X03349Y02216*
X03375*
X0294Y01859D02*
X03329Y02248D01*
X0294Y01807D02*
Y01859D01*
X03329Y02248D02*
X03405D01*
X02996Y02094D02*
Y02161D01*
X02956Y02055D02*
X02996Y02094D01*
X0274Y01724D02*
X02757Y01742D01*
X03586Y02919D02*
X03602Y02935D01*
X03Y025D02*
X03045Y02454D01*
X03Y025D02*
Y02619D01*
X02987Y02631D02*
X03Y02619D01*
X02661Y04346D02*
X02664Y04343D01*
X02922*
X02968Y04338D02*
X03007D01*
X02811Y017D02*
Y01744D01*
X02775Y01665D02*
X02811Y017D01*
X02826Y015D02*
X0285Y01476D01*
X02927Y01762D02*
X02928D01*
X02937Y01771*
X0294*
X03055Y02472D02*
X03299D01*
X03045Y02454D02*
X03289D01*
X03299Y02472D02*
X03354Y02417D01*
X03345Y02398D02*
X03428D01*
X03289Y02454D02*
X03345Y02398D01*
X03354Y02417D02*
X0344D01*
X03362Y02437D02*
X03452D01*
X03294Y02504D02*
X03362Y02437D01*
X03294Y02504D02*
Y02606D01*
X03602Y02935D02*
Y02937D01*
X03508Y04115D02*
X03527Y04125D01*
X03401Y03929D02*
X03508Y04115D01*
X03381Y03934D02*
X03532Y04195D01*
X03546Y04198*
X02775Y01488D02*
Y01665D01*
X02801Y01639D02*
X02803Y01641D01*
X02801Y01494D02*
Y01639D01*
Y01494D02*
X02838Y01456D01*
X02867Y01833D02*
X02876Y01824D01*
Y01574D02*
Y01824D01*
X02867Y01565D02*
X02876Y01574D01*
X02774Y01705D02*
X02785Y01716D01*
X02771Y01705D02*
X02774D01*
X02864Y01856D02*
X02884Y01877D01*
X02864Y01851D02*
Y01856D01*
X02884Y01877D02*
X02908D01*
X03027Y02285D02*
X03051Y02309D01*
X02901Y02631D02*
X02987D01*
X02948Y01611D02*
X02949Y01612D01*
X0332Y02632D02*
X03344D01*
X03294Y02606D02*
X0332Y02632D01*
X03049Y02925D02*
X0305Y02926D01*
X03049Y02859D02*
Y02925D01*
X03051Y02309D02*
Y02337D01*
X02669Y01724D02*
X0274D01*
X02565Y01828D02*
X02669Y01724D01*
X02561Y01828D02*
X02565D01*
G54D14*
X02579Y0286D02*
Y0294D01*
Y0286D02*
D01*
X02528Y02874D02*
X02573D01*
X02527Y02822D02*
Y02873D01*
G54D21*
X02527Y02787D03*
Y02822D03*
G54D26*
X03674Y03038D03*
X03644D03*
G54D33*
X02527Y02875D03*
Y02906D03*
G54D44*
X03579Y04256D03*
X03546Y04198D03*
X03404Y04358D03*
X0337Y043D03*
G54D83*
X0358Y02425D02*
X0362D01*
X0378Y02585*
X0358Y02374D02*
X03648D01*
X03678Y02403*
X03763*
G54D87*
X02893Y01331D03*
X0309D03*
G54D88*
X02854Y01224D03*
X03129D03*
G54D89*
X03502Y04324D03*
X03448Y04232D03*
G54D90*
X02546Y02584D03*
G54D91*
X03334Y02584D03*
G54D92*
X0294Y03696D03*
G54D93*
X0255Y0146D03*
X0371Y02137D03*
Y03712D03*
X0255Y03833D03*
G54D94*
X03005Y02783D03*
X02555Y01987D03*
X02712Y02795D03*
X02856Y02117D03*
X02826D03*
X02492Y01886D03*
X02491Y01914D03*
X02915Y02454D03*
X02887D03*
X02552Y01934D03*
X02554Y01961D03*
X02575Y01858D03*
X02797Y02454D03*
X02769D03*
X02809Y02798D03*
X03332Y023D03*
X03517Y03064D03*
X03495Y02961D03*
X03489Y03064D03*
X02984Y0155D03*
X02849Y01417D03*
X0358Y02374D03*
Y02425D03*
X03422Y02353D03*
Y023D03*
Y02326D03*
X03602Y01633D03*
Y01771D03*
X02492Y01981D03*
Y02008D03*
X03763Y02403D03*
X0296Y02267D03*
X02771Y04007D03*
X02639Y02212D03*
X02669Y02479D03*
X02698Y02509D03*
X02774Y03051D03*
X02937Y03002D03*
X02839Y02789D03*
X02604Y02428D03*
X02577D03*
X02631D03*
X02725Y02468D03*
X0289Y02733D03*
Y03063D03*
X02858Y02944D03*
X0289Y02943D03*
X02949Y03034D03*
X03225Y02426D03*
X03787Y02252D03*
X02976Y01716D03*
X03752Y02468D03*
X03405Y02165D03*
X02637Y01633D03*
X03326Y01889D03*
X03189D03*
X03464Y03189D03*
Y03326D03*
Y03464D03*
X03602Y0374D03*
X03464Y03602D03*
Y0374D03*
Y03878D03*
X03326Y04015D03*
Y04153D03*
X03189Y04291D03*
X03051Y04153D03*
Y04015D03*
X03189Y04153D03*
Y04015D03*
X02779Y03878D03*
X02913D03*
X02637D03*
X03051D03*
X03189D03*
Y0374D03*
X03326Y03878D03*
Y0374D03*
Y03326D03*
X03189D03*
Y03602D03*
Y03464D03*
X03326Y03602D03*
Y03464D03*
X025Y0374D03*
Y03602D03*
X02637Y0374D03*
Y03602D03*
X025Y03464D03*
Y03326D03*
X02637Y03464D03*
Y03326D03*
X02775Y03464D03*
Y03326D03*
X02913Y03464D03*
Y03326D03*
X03051Y03464D03*
Y03326D03*
X03326Y03051D03*
Y03189D03*
X03189Y03051D03*
Y03189D03*
X03051Y03051D03*
Y03189D03*
X02913D03*
X02775D03*
X02637Y03051D03*
Y03189D03*
X025Y03051D03*
Y03189D03*
X0374Y01496D03*
Y01633D03*
X03602Y01496D03*
Y01358D03*
X0374Y01771D03*
X03464Y01358D03*
X03326Y0122D03*
Y01358D03*
X03189Y0122D03*
Y01358D03*
X02799Y04007D03*
X02984Y0423D03*
X02826Y04007D03*
X03Y04185D03*
X025Y02035D03*
X02728Y01224D03*
X025Y01535D03*
Y01358D03*
Y0122D03*
X02637Y01358D03*
X02728Y01263D03*
Y01303D03*
X02637Y0122D03*
X03613Y02198D03*
X03677Y02976D03*
X03708Y03031D03*
X02811Y02327D03*
Y02426D03*
X0293Y02327D03*
Y02426D03*
X03284Y02038D03*
Y02065D03*
Y02093D03*
X03313D03*
Y02065D03*
X0334Y02093D03*
Y02065D03*
X03313Y02038D03*
X0334D03*
X0296Y01964D03*
X02944Y02118D03*
X03052Y02138D03*
X02997Y02163D03*
X02492Y01948D03*
X02704Y01992D03*
X02688Y02113D03*
X02492Y01858D03*
X02484Y01736D03*
X02496Y01767D03*
Y01815D03*
X037Y0294D03*
X0287Y01913D03*
X02771Y01964D03*
X02673Y01787D03*
X03417Y02468D03*
X03389D03*
X0324Y02854D03*
Y02881D03*
X02944Y02547D03*
X0296Y02507D03*
X03126Y02173D03*
X03157D03*
X0324Y02232D03*
Y02267D03*
X02858Y02472D03*
X02944Y02574D03*
X0283Y02472D03*
X03397Y02972D03*
X0337D03*
X03397Y03D03*
Y03027D03*
X0337Y03D03*
Y03027D03*
X0378Y02585D03*
Y02809D03*
X03043Y01284D03*
X03375Y02216D03*
X02536Y02752D03*
X02507D03*
X02818Y01889D03*
X02746Y01569D03*
Y01506D03*
Y01538D03*
X02681Y04224D03*
X03007Y04338D03*
X03405Y02248D03*
X0294Y01807D03*
X02811Y01744D03*
X0294Y01771D03*
X03019Y01858D03*
X02637Y04224D03*
X02858Y04252D03*
X02795D03*
X02826Y04287D03*
X02576Y02326D03*
X02603D03*
X02629D03*
X02753Y02426D03*
Y02327D03*
X03602Y02937D03*
X02803Y01641D03*
X03527Y04125D03*
X02771Y01705D03*
X02908Y01877D03*
X02948Y01611D03*
X02561Y01828D03*
X02711Y01754D03*
X02679Y02977D03*
X02649D03*
X03295Y0281D03*
X03258D03*
X0313Y02781D03*
X03166Y02782D03*
X03233Y02778D03*
X02712Y02934D03*
X02527Y02935D03*
X02644Y0281D03*
X02607D03*
X02569D03*
X03396Y02912D03*
X0351Y02878D03*
X03523Y02768D03*
Y02741D03*
Y02712D03*
Y02685D03*
Y02657D03*
X03394Y02366D03*
Y02337D03*
X03481Y02878D03*
X0345D03*
X03607Y02978D03*
X03708Y03003D03*
Y02976D03*
X03615Y03037D03*
Y03065D03*
X0256Y02718D03*
X02871Y02327D03*
X02872Y02426D03*
X02992Y02325D03*
X02989Y02426D03*
X0305D03*
X03108D03*
X03166D03*
X03285Y02426D03*
X03294Y02327D03*
X03332Y02338D03*
X03364D03*
X03043Y01376D03*
X03366Y04384D03*
X03446Y04338D03*
X03542Y04282D03*
X03615Y04227D03*
G54D96*
X02579Y02865D03*
X0267D03*
Y0294D03*
X02579D03*
G54D97*
X02518Y02719D03*
Y02649D03*
G54D98*
X03348Y02494D03*
X03346Y02632D03*
X02756D03*
X02758Y02494D03*
X03051Y02337D03*
X03053Y02199D03*
X03051Y02927D03*
X03053Y0279D03*
G54D99*
X02867Y01565D03*
X0271D03*
Y01833D03*
X02867D03*
G54D100*
X02655Y04343D03*
Y04185D03*
X02922D03*
Y04343D03*
G54D101*
X03546Y04188D02*
Y04198D01*
X03379Y04296D02*
X03397Y04301D01*
X03538Y04219*
M02*