%FSTAX23Y23*%
%MOIN*%
%SFA1B1*%

%IPPOS*%
%AMD58*
4,1,4,-0.015000,-0.031900,0.035100,-0.003000,0.015000,0.031900,-0.035100,0.003000,-0.015000,-0.031900,0.0*
%
%AMD84*
4,1,8,-0.027600,0.017600,-0.027600,-0.017600,-0.003800,-0.041400,0.003800,-0.041400,0.027600,-0.017600,0.027600,0.017600,0.003800,0.041400,-0.003800,0.041400,-0.027600,0.017600,0.0*
1,1,0.047600,-0.003800,0.017600*
1,1,0.047600,-0.003800,-0.017600*
1,1,0.047600,0.003800,-0.017600*
1,1,0.047600,0.003800,0.017600*
%
%ADD10C,0.009800*%
G04~CAMADD=58~9~0.0~0.0~579.0~402.0~0.0~0.0~0~0.0~0.0~0.0~0.0~0~0.0~0.0~0.0~0.0~0~0.0~0.0~0.0~210.0~702.0~637.0*
%ADD58D58*%
%ADD68R,0.022000X0.023600*%
%ADD83C,0.057900*%
G04~CAMADD=84~8~0.0~0.0~828.0~552.0~238.0~0.0~15~0.0~0.0~0.0~0.0~0~0.0~0.0~0.0~0.0~0~0.0~0.0~0.0~90.0~552.0~828.0*
%ADD84D84*%
%ADD85C,0.118900*%
%ADD86C,0.016500*%
%ADD87C,0.017700*%
%ADD114R,0.020500X0.020500*%
%ADD115R,0.040200X0.126800*%
%ADD116R,0.126800X0.040200*%
%ADD117R,0.032300X0.032300*%
%LNleft_board-1*%
%LPD*%
G54D10*
X02893Y04018D02*
Y04131D01*
X02873Y04044D02*
Y04156D01*
X0274Y04018D02*
X02893D01*
X02853D02*
Y04131D01*
X02814Y04018D02*
Y04131D01*
X02775Y04018D02*
Y04131D01*
X02755Y04044D02*
Y04156D01*
X02794Y04044D02*
Y04156D01*
X02834Y04044D02*
Y04156D01*
X02893Y04015D02*
Y04018D01*
X02893Y04018D02*
X02893Y04018D01*
X02728Y04156D02*
X02755D01*
X02794*
X02834*
X02873*
Y03453D02*
Y03566D01*
X02834D02*
X02873D01*
X02834Y03453D02*
Y03566D01*
X02794Y03453D02*
Y03566D01*
X02755Y03453D02*
Y03566D01*
X02775Y03428D02*
Y0354D01*
X02814Y03428D02*
Y0354D01*
X02853Y03428D02*
Y0354D01*
X0274Y03428D02*
X02893D01*
Y0354*
X02728Y03566D02*
X02755D01*
X02794*
X02834*
X02524Y03748D02*
Y03861D01*
X02484Y03748D02*
Y03861D01*
X02445Y03749D02*
Y03861D01*
X02465Y03723D02*
Y03835D01*
X02504Y03723D02*
Y03835D01*
X02543Y03723D02*
Y03835D01*
X0243Y03723D02*
X02583D01*
X02563Y03749D02*
Y03861D01*
X02583Y03723D02*
Y03835D01*
X02418Y03861D02*
X02445D01*
X02484*
X02524*
X02563*
X03144Y03748D02*
Y03861D01*
X03104Y03748D02*
Y03861D01*
X03065Y03749D02*
Y03861D01*
X03085Y03723D02*
Y03835D01*
X03124Y03723D02*
Y03835D01*
X03164Y03723D02*
Y03835D01*
X03183Y03749D02*
Y03861D01*
X03203Y03723D02*
Y03835D01*
X03085Y03723D02*
X03086Y03722D01*
X03093D02*
X03094Y0372D01*
X03086Y03722D02*
X03093D01*
X03039Y03861D02*
X03065D01*
X03104*
X03144*
X03183*
X0305Y03723D02*
X03085D01*
X03094*
X03124*
X03164*
X03203*
X03094Y03721D02*
Y03723D01*
X03093Y0372D02*
X03094Y03721D01*
G54D58*
X02567Y04485D03*
X026Y04427D03*
X02391Y04383D03*
X02425Y04325D03*
G54D68*
X02271Y03322D03*
Y03292D03*
G54D83*
X02881Y01457D03*
X03078D03*
G54D84*
X02842Y01351D03*
X03117D03*
G54D85*
X02468Y04183D03*
X03422Y04205D03*
Y01408D03*
X02261Y02263D03*
G54D86*
X02469Y04451D03*
X02522Y04359D03*
G54D87*
X02362Y03322D03*
X0235Y03393D03*
G54D114*
X0273Y04018D03*
X02728Y04156D03*
Y03566D03*
X0273Y03428D03*
X02418Y03861D03*
X0242Y03723D03*
X03039Y03861D03*
X0304Y03723D03*
G54D115*
X03262Y01959D03*
Y01692D03*
X03105D03*
Y01959D03*
G54D116*
X03317Y04312D03*
X03049D03*
X03317Y04469D03*
X03049D03*
G54D117*
X03495Y04012D03*
Y03947D03*
X03494Y04114D03*
Y04055D03*
M02*