%FSTAX23Y23*%
%MOIN*%
%SFA1B1*%

%IPPOS*%
%AMD23*
4,1,8,-0.009800,0.008300,-0.009800,-0.008300,-0.007300,-0.010800,0.007300,-0.010800,0.009800,-0.008300,0.009800,0.008300,0.007300,0.010800,-0.007300,0.010800,-0.009800,0.008300,0.0*
1,1,0.005000,-0.007300,0.008300*
1,1,0.005000,-0.007300,-0.008300*
1,1,0.005000,0.007300,-0.008300*
1,1,0.005000,0.007300,0.008300*
%
%AMD24*
4,1,4,-0.014800,-0.031300,0.034500,-0.002800,0.014800,0.031300,-0.034500,0.002800,-0.014800,-0.031300,0.0*
%
%AMD28*
4,1,8,0.008300,0.009800,-0.008300,0.009800,-0.010800,0.007300,-0.010800,-0.007300,-0.008300,-0.009800,0.008300,-0.009800,0.010800,-0.007300,0.010800,0.007300,0.008300,0.009800,0.0*
1,1,0.005000,0.008300,0.007300*
1,1,0.005000,-0.008300,0.007300*
1,1,0.005000,-0.008300,-0.007300*
1,1,0.005000,0.008300,-0.007300*
%
%AMD38*
4,1,8,0.013000,-0.011600,0.013000,0.011600,0.009700,0.014900,-0.009700,0.014900,-0.013000,0.011600,-0.013000,-0.011600,-0.009700,-0.014900,0.009700,-0.014900,0.013000,-0.011600,0.0*
1,1,0.006600,0.009700,-0.011600*
1,1,0.006600,0.009700,0.011600*
1,1,0.006600,-0.009700,0.011600*
1,1,0.006600,-0.009700,-0.011600*
%
%AMD40*
4,1,8,0.011600,0.013000,-0.011600,0.013000,-0.014900,0.009700,-0.014900,-0.009700,-0.011600,-0.013000,0.011600,-0.013000,0.014900,-0.009700,0.014900,0.009700,0.011600,0.013000,0.0*
1,1,0.006600,0.011600,0.009700*
1,1,0.006600,-0.011600,0.009700*
1,1,0.006600,-0.011600,-0.009700*
1,1,0.006600,0.011600,-0.009700*
%
%AMD46*
4,1,8,-0.014900,0.021900,-0.014900,-0.021900,-0.011200,-0.025600,0.011200,-0.025600,0.014900,-0.021900,0.014900,0.021900,0.011200,0.025600,-0.011200,0.025600,-0.014900,0.021900,0.0*
1,1,0.007400,-0.011200,0.021900*
1,1,0.007400,-0.011200,-0.021900*
1,1,0.007400,0.011200,-0.021900*
1,1,0.007400,0.011200,0.021900*
%
%AMD107*
4,1,8,-0.023600,0.017600,-0.023600,-0.017600,-0.003800,-0.037400,0.003800,-0.037400,0.023600,-0.017600,0.023600,0.017600,0.003800,0.037400,-0.003800,0.037400,-0.023600,0.017600,0.0*
1,1,0.039600,-0.003800,0.017600*
1,1,0.039600,-0.003800,-0.017600*
1,1,0.039600,0.003800,-0.017600*
1,1,0.039600,0.003800,0.017600*
%
%ADD10C,0.009800*%
%ADD11C,0.003900*%
%ADD12C,0.007900*%
%ADD13C,0.023600*%
%ADD14C,0.005900*%
%ADD16C,0.019700*%
%ADD17R,0.019300X0.038800*%
%ADD18R,0.059100X0.074800*%
%ADD19R,0.015700X0.053100*%
%ADD20R,0.066900X0.047200*%
%ADD21R,0.039400X0.019700*%
%ADD22R,0.022800X0.021300*%
G04~CAMADD=23~8~0.0~0.0~217.0~197.0~25.0~0.0~15~0.0~0.0~0.0~0.0~0~0.0~0.0~0.0~0.0~0~0.0~0.0~0.0~90.0~196.0~216.0*
%ADD23D23*%
G04~CAMADD=24~9~0.0~0.0~571.0~394.0~0.0~0.0~0~0.0~0.0~0.0~0.0~0~0.0~0.0~0.0~0.0~0~0.0~0.0~0.0~210.0~690.0~625.0*
%ADD24D24*%
%ADD25R,0.016500X0.009100*%
%ADD26R,0.029500X0.011800*%
%ADD27R,0.025200X0.016500*%
G04~CAMADD=28~8~0.0~0.0~217.0~197.0~25.0~0.0~15~0.0~0.0~0.0~0.0~0~0.0~0.0~0.0~0.0~0~0.0~0.0~0.0~0.0~217.0~197.0*
%ADD28D28*%
%ADD29R,0.031500X0.066900*%
%ADD30O,0.023600X0.080700*%
%ADD31O,0.080700X0.023600*%
%ADD32R,0.013800X0.029500*%
%ADD33R,0.057100X0.025600*%
%ADD34R,0.021300X0.022800*%
%ADD35R,0.047200X0.055100*%
%ADD36R,0.011800X0.039400*%
%ADD37R,0.011800X0.027600*%
G04~CAMADD=38~8~0.0~0.0~299.0~260.0~33.0~0.0~15~0.0~0.0~0.0~0.0~0~0.0~0.0~0.0~0.0~0~0.0~0.0~0.0~270.0~260.0~298.0*
%ADD38D38*%
%ADD39R,0.039400X0.039400*%
G04~CAMADD=40~8~0.0~0.0~299.0~260.0~33.0~0.0~15~0.0~0.0~0.0~0.0~0~0.0~0.0~0.0~0.0~0~0.0~0.0~0.0~0.0~299.0~260.0*
%ADD40D40*%
%ADD41R,0.033500X0.033500*%
%ADD42R,0.033500X0.033500*%
%ADD43R,0.024000X0.016000*%
%ADD44R,0.013000X0.011000*%
%ADD45R,0.011000X0.013000*%
G04~CAMADD=46~8~0.0~0.0~512.0~299.0~37.0~0.0~15~0.0~0.0~0.0~0.0~0~0.0~0.0~0.0~0.0~0~0.0~0.0~0.0~90.0~298.0~512.0*
%ADD46D46*%
%ADD47R,0.090600X0.098400*%
%ADD48R,0.014200X0.013000*%
%ADD87C,0.017700*%
%ADD88C,0.050000*%
%ADD89C,0.031500*%
%ADD90C,0.015700*%
%ADD91C,0.005100*%
%ADD92C,0.004300*%
%ADD93C,0.006700*%
%ADD94C,0.011800*%
%ADD95C,0.021300*%
%ADD96C,0.017700*%
%ADD97C,0.013000*%
%ADD98C,0.027600*%
%ADD99C,0.021700*%
%ADD100C,0.008700*%
%ADD101C,0.007100*%
%ADD102C,0.004400*%
%ADD103C,0.006900*%
%ADD104C,0.013800*%
%ADD105C,0.033500*%
%ADD106C,0.057100*%
G04~CAMADD=107~8~0.0~0.0~748.0~472.0~198.0~0.0~15~0.0~0.0~0.0~0.0~0~0.0~0.0~0.0~0.0~0~0.0~0.0~0.0~90.0~472.0~748.0*
%ADD107D107*%
%ADD108C,0.118100*%
%ADD109C,0.015700*%
%LNleft_board-1*%
%LPD*%
G36*
X03487Y04524D02*
X0349Y04524D01*
X03495Y04522*
X035Y0452*
X03504Y04517*
X03508Y04513*
X03511Y04509*
X03513Y04504*
X03514Y04499*
X03515Y04496*
Y01343*
X03514Y01341*
X03513Y01336*
X03511Y01331*
X03508Y01326*
X03504Y01322*
X03499Y01319*
X03495Y01317*
X03489Y01316*
X03487Y01316*
X03156Y01316*
X03152Y01321*
X03154Y01324*
X03154Y0133*
X03159*
X03163Y01329*
X03178*
X03185Y0133*
X0319Y01334*
X03191Y01336*
X03194Y01334*
X03199Y01333*
X03201*
Y01354*
X03206*
Y01359*
X03226*
Y01362*
X03225Y01367*
X03225Y01372*
Y01387*
X03203*
Y01397*
X03225*
Y0141*
X03225*
Y01426*
X03204*
Y01431*
X03199*
Y01451*
X03198*
Y01455*
X03182*
X03163Y01474*
X03155Y01479*
X03146Y01481*
X03113*
X03108Y01487*
X03099Y01494*
X03089Y01498*
X03084Y01499*
X03084Y01504*
X03085*
X03091Y01505*
X03095Y01508*
X031Y01509*
X03142*
Y01522*
X03357*
X03363Y01524*
X03369Y01527*
X035Y01658*
X03503Y01663*
X03504Y01669*
Y02027*
X03503Y02034*
X035Y02039*
X03481Y02058*
X03476Y02061*
X03469Y02063*
X03391*
Y02068*
X03392Y02069*
X03468*
X03475Y0207*
X0348Y02074*
X035Y02093*
X03503Y02099*
X03505Y02105*
Y02376*
X03503Y02382*
X035Y02387*
X0285Y03037*
Y03051*
X02854*
X0286Y03053*
X02866Y03056*
X02869Y03062*
X0287Y03068*
Y03083*
X02869Y03089*
X02866Y03093*
X02869Y03097*
X0287Y03103*
Y03113*
X02874Y03115*
X02875Y03116*
X02879Y03115*
X02883Y03109*
X02887Y03107*
Y03103*
X02886Y03098*
X02888Y03089*
X02893Y03082*
X029Y03077*
X02909Y03075*
X02918Y03077*
X02925Y03082*
X0293Y03089*
X02932Y03098*
X02931Y03103*
Y03109*
X02932Y03111*
X02939*
X02944Y0311*
X02949Y03111*
X02953Y03108*
Y03074*
X02934Y03055*
X02929Y03054*
X02921Y03049*
X02916Y03042*
X02914Y03033*
X02916Y03024*
X02921Y03017*
X02929Y03012*
X02938Y0301*
X02946Y03012*
X02954Y03017*
X02959Y03024*
X0296Y0303*
X02984Y03054*
X02988Y0306*
X02989Y03066*
Y03173*
X02993Y03175*
X02994Y03175*
X03003Y03173*
X03011Y03175*
X03019Y0318*
X03026Y03175*
X03035Y03173*
X03044Y03175*
X03051Y0318*
X03059Y03175*
X03067Y03173*
X03076Y03175*
X03084Y0318*
X03089Y03188*
X03091Y03196*
X03089Y03205*
X03085Y03212*
Y03214*
X03088Y03218*
X0309Y03224*
X03091Y03231*
Y03288*
X0309Y03295*
X03088Y033*
X0309Y03302*
X0309Y03302*
X03092Y03304*
X03097Y03301*
X03104Y03301*
X03132*
Y02818*
X03128Y02812*
X03126Y02803*
X03128Y02794*
X03133Y02786*
X0314Y02781*
X03149Y0278*
X03158Y02781*
X03165Y02786*
X0317Y02794*
X03172Y02803*
X0317Y02812*
X03166Y02818*
Y033*
X03171Y03301*
X03175Y03299*
Y03173*
X03176Y03167*
X0318Y03161*
X0319Y03151*
X03196Y03147*
X03203Y03145*
X03203Y03145*
X03206Y0314*
X03205Y03133*
X03207Y03125*
X03212Y03117*
X03219Y03112*
X03228Y0311*
X03237Y03112*
X03244Y03117*
X03249Y03125*
X0325Y03128*
X03305*
Y03223*
X03301*
Y03245*
X03315*
Y03289*
X03263*
Y03245*
X03265*
Y03223*
X03249*
Y03245*
X03256*
Y03289*
X03249*
Y03346*
X03248Y03353*
X03244Y03358*
X03239Y03364*
X03241Y03369*
X03258*
Y03384*
X03236*
Y03389*
X03231*
Y03413*
X03231Y03414*
X03229Y03418*
X03228Y03421*
X03233Y03426*
X03245*
X03251Y03428*
X03257Y03431*
X0326Y03435*
X03275*
Y03414*
X03309*
Y03404*
X03275*
Y03372*
X03301*
Y0336*
X03323*
Y03355*
X03328*
Y03334*
X03328*
Y0333*
X03379*
Y03368*
X03413*
Y03451*
X03372*
X0337Y03453*
X03371Y03454*
Y03496*
X03376*
Y03501*
X03409*
Y03534*
X0339*
Y03547*
X03368*
Y03552*
X03363*
Y03572*
X03363*
Y03576*
X03351*
X03349Y03581*
X03352Y03585*
X03353Y03594*
X03352Y03603*
X03347Y0361*
X03339Y03615*
X0333Y03617*
X03321Y03615*
X03315Y03611*
X03283*
X03276Y0361*
X03271Y03606*
X03258Y03593*
X03253Y03595*
Y03847*
X03257Y03853*
X03259Y03862*
X03257Y03871*
X03252Y03878*
X03245Y03883*
X03236Y03885*
X03227Y03883*
X03219Y03878*
X03214Y03871*
X03213Y03862*
X03214Y03853*
X03218Y03847*
Y03597*
X03192Y03571*
X03186Y03572*
X03186Y03572*
X03187Y03578*
X03186Y03585*
X03183Y03591*
X03181Y03594*
X03183Y03597*
X03186Y03603*
X03187Y0361*
X03186Y03616*
X03183Y03623*
X03181Y03626*
X03183Y03628*
X03186Y03635*
X03187Y03641*
Y03642*
X03197Y03652*
X03201Y03658*
X03203Y03665*
Y03976*
X03201Y03983*
X03197Y03989*
X03176Y04011*
X03174Y04016*
X03169Y04024*
X03162Y04029*
X03153Y04031*
X03144Y04029*
X03137Y04024*
X03132Y04016*
X0313Y04007*
X03132Y03999*
X03137Y03991*
X03144Y03986*
X0315Y03985*
X03167Y03968*
Y03672*
X03161Y03667*
X03161*
X03104*
X03097Y03666*
X03091Y03664*
X03086Y0366*
X03082Y03654*
X03079Y03648*
X03078Y03641*
X03079Y03635*
X03082Y03628*
X03084Y03626*
X03082Y03623*
X0308Y0362*
X03079Y03619*
X03065Y03605*
X0306Y03607*
Y03655*
X0306Y03655*
Y03708*
X03065*
Y03713*
X03088*
Y03737*
X03086Y03745*
X03081Y03752*
X03081Y03753*
X03081Y03755*
X03082Y03758*
X03086*
Y03783*
X03091*
Y03788*
X03114*
Y03795*
X03113Y038*
X03112Y03802*
X03115Y03807*
X03155*
Y03839*
X03155Y0384*
Y03944*
X03154Y0395*
X03151Y03954*
X03147Y03958*
X03143Y03961*
X03137Y03962*
X03082*
X03077Y03961*
X03072Y03958*
X03068Y03954*
X03065Y0395*
X03064Y03944*
Y03893*
X03065Y03888*
X03068Y03883*
X03072Y03879*
X03074Y03879*
X03073Y03875*
X03072Y03874*
X03009*
Y03839*
X03009Y03838*
X03008Y03831*
Y03787*
X03003Y03784*
X03002Y03784*
X03001Y03785*
X03Y03791*
X02995Y03798*
X02988Y03803*
X02979Y03805*
X0297Y03803*
X02963Y03798*
X02962Y03797*
X02957Y03798*
Y04152*
X02955Y04159*
X02952Y04164*
X02713Y04403*
X02708Y04406*
X02701Y04408*
X02644*
X02643Y04413*
X02654Y04419*
X0262Y04477*
X02619Y04476*
X02615Y04478*
X02603Y045*
X02569Y0448*
X02536Y04461*
X02548Y04441*
Y04435*
X02547Y04434*
X02548Y04432*
X02446Y04373*
X02445Y04375*
X02444Y04375*
X02439Y04377*
X02427Y04398*
X02394Y04379*
X0236Y0436*
X02372Y04339*
Y04333*
X02371Y04333*
X02405Y04275*
X02445Y04299*
X02448Y04299*
X02454Y04303*
X02454Y04304*
X02478Y04317*
X02463Y04343*
X02488Y04357*
X02492Y04355*
X02493Y04355*
X02493Y04351*
X02496Y04344*
X02501Y04338*
X02507Y04333*
X02515Y0433*
X02522Y04329*
X0253Y0433*
X02537Y04333*
X02543Y04338*
X02548Y04344*
X02551Y04351*
X02552Y04359*
X02551Y04367*
X02548Y04374*
X02543Y0438*
X02541Y04382*
X02541Y04388*
X02541Y04388*
X02565Y04402*
X0258Y04376*
X02607Y04392*
X02613Y04382*
X02614Y0438*
X02615Y04378*
X02616Y04378*
X02617Y04377*
X02619Y04376*
X02621Y04375*
X02622Y04375*
X02623Y04374*
X02625Y04374*
X02627Y04373*
X02694*
X02922Y04145*
Y03764*
X02917Y03761*
X02915Y03762*
X02908Y03763*
X02904Y03762*
X029Y03766*
X029Y03766*
X02901Y03771*
X02899Y0378*
X02894Y03788*
X02886Y03793*
X02878Y03794*
X02869Y03793*
X02864Y03789*
X02861Y03791*
X02857Y03796*
X02819Y03834*
X02813Y03838*
X02807Y03839*
X02704*
X02698Y03838*
X02692Y03834*
X0255Y03692*
X02341*
X02339Y03696*
X02339Y03697*
X02548Y03907*
X02873*
X02878Y03903*
X02886Y03902*
X02895Y03903*
X02903Y03908*
X02908Y03916*
X02909Y03925*
X02908Y03934*
X02903Y03941*
X02895Y03946*
X02886Y03948*
X02878Y03946*
X02873Y03943*
X02541*
X02534Y03941*
X02528Y03938*
X02296Y03706*
X02289*
X02283Y03704*
X02279Y03702*
X02275Y03704*
X02269Y03706*
X02254*
X02252Y03705*
X0223*
Y03706*
X02178*
Y03667*
Y03623*
X02184*
Y03596*
X02178*
Y03557*
Y03513*
X0223*
Y03521*
X02237*
X02238Y03519*
X02244Y03515*
X0225Y03514*
X02258*
X02259Y03509*
X02184Y03434*
X0218Y03428*
X02178Y03421*
Y03322*
X0218Y03315*
X02184Y0331*
X02203Y0329*
X02209Y03286*
X02216Y03285*
X02251*
X02254Y03281*
Y0328*
Y03256*
X02286*
Y0328*
Y03281*
X0229Y03285*
X02299*
X0234Y03244*
X02346Y0324*
X02349Y03239*
X02357Y03234*
X02366Y03232*
X02375Y03234*
X02382Y03239*
X02387Y03247*
X02389Y03255*
X02387Y03264*
X02382Y03272*
X02375Y03277*
X02375Y03282*
X0239*
X02395Y03281*
Y03277*
Y03256*
X02411*
Y03246*
X02395*
Y03226*
X0239Y03221*
X02291*
X02286Y03222*
Y03226*
Y03246*
X02254*
Y03226*
X02249Y03221*
X0221*
X02206*
X02198Y03223*
X02191Y03226*
X02184Y0323*
X02179Y03236*
X02174Y03242*
X02171Y0325*
X0217Y03257*
X0217Y03261*
Y03261*
Y03261*
X02169Y03884*
Y03889*
X02171Y03898*
X02174Y03906*
X02179Y03914*
X02186Y0392*
X02193Y03925*
X02202Y03929*
X02211Y03931*
X02215*
X02264Y03931*
X02264*
X02264*
X02274Y03931*
X02275Y03931*
X02276*
X02296Y03934*
X02297Y03934*
X02298Y03934*
X02318Y03941*
X02318Y03941*
X02319Y03942*
X02337Y03952*
X02338Y03952*
X02339Y03953*
X02355Y03966*
X02356Y03966*
X02356Y03967*
X0237Y03982*
X0237Y03983*
X02371Y03984*
X02382Y04001*
X02382Y04002*
X02383Y04003*
X0239Y04022*
X0239Y04023*
X02391Y04024*
X02395Y04044*
Y04045*
X02395Y04046*
X02395Y04067*
X02395Y04068*
Y04069*
X02392Y04089*
X02392Y0409*
X02391Y04091*
X02385Y0411*
X02384Y04111*
X02384Y04112*
X0238Y04121*
X02379Y04121*
X02379Y04121*
X02364Y04148*
X02364Y04149*
X02364Y04149*
X02359Y04156*
X02352Y04172*
X02347Y04189*
X02345Y04207*
X02345Y04215*
Y04216*
X02344Y04358*
Y04358*
Y04358*
X02344Y04362*
X02345Y04371*
X02346Y04374*
X02351Y04375*
X02355Y04368*
X02384Y04385*
X02372Y04406*
X02367Y04404*
X02364Y04407*
X02366Y0441*
X02373Y04416*
X02377Y04418*
X02434Y04451*
X02435Y04451*
X0244Y04449*
X0244Y04443*
X02443Y04436*
X02448Y0443*
X02454Y04425*
X02461Y04422*
X02469Y04421*
X02477Y04422*
X02484Y04425*
X0249Y0443*
X02495Y04436*
X02498Y04443*
X02499Y04451*
X02498Y04459*
X02495Y04466*
X0249Y04472*
X02486Y04475*
X02485Y04478*
X02486Y04481*
X02537Y04511*
X02537Y04511*
X02537Y04511*
X02543Y04515*
X02556Y0452*
X02558Y04519*
X02559Y04514*
X02556Y04513*
X02569Y04491*
X02598Y04508*
X02591Y04519*
X02591Y0452*
X02592Y04521*
X02594Y04524*
X02687*
X03487*
G37*
G36*
X03141Y03944D02*
Y0384D01*
X03102*
Y03886*
X03099Y03889*
X03082*
X03078Y03893*
Y03944*
X03082Y03948*
X03137*
X03141Y03944*
G37*
G36*
X02808Y03797D02*
X02806Y03792D01*
X02805Y03792*
X02798Y03787*
X02797Y03786*
X02791Y03786*
X02788Y03791*
X0278Y03796*
X02771Y03798*
X02762Y03796*
X02755Y03791*
X0275Y03784*
X02748Y03775*
X0275Y03767*
X02748Y03764*
X02747Y03762*
X02744Y03762*
X02738Y03759*
X02732Y03755*
X02728Y0375*
X02726Y03743*
X02725Y03737*
Y03729*
X0272Y03729*
X02717Y03735*
X02713Y0374*
X02708Y03745*
X02702Y03747*
X02695Y03748*
X02688Y03747*
X02682Y03745*
X02677Y0374*
X02672Y03735*
X0267Y03729*
X02669Y03722*
Y03707*
X02669Y03707*
X02667Y037*
X02663*
X02662Y03705*
X02659Y0371*
X02654Y03713*
X02649Y03714*
X02644*
Y03689*
X02634*
Y03714*
X0263*
X02626Y03713*
X02624Y03718*
X02711Y03805*
X028*
X02808Y03797*
G37*
G36*
X02832Y03657D02*
X02838Y03655D01*
X02845Y03654*
X02852Y03655*
X02858Y03657*
X02861Y03659*
X02864Y03657*
X0287Y03655*
X02877Y03654*
X02883Y03655*
X02886Y03656*
X02891Y03653*
Y03603*
X02893Y03597*
X02896Y03591*
X02907Y03581*
X02909Y03573*
X02914Y03566*
X02921Y03561*
X0293Y03559*
X02939Y03561*
X02946Y03566*
X02948Y03568*
X02952Y03565*
X02956Y03564*
X02957Y0356*
X0275Y03352*
X02737*
X02737Y03353*
X02684*
Y03363*
X02733*
X02733Y03366*
X0273Y03371*
X0273Y03371*
X02735Y03376*
X02737Y03383*
X02738Y03389*
X02737Y03396*
X02735Y03402*
X02732Y03405*
X02735Y03408*
X02737Y03414*
X02738Y03421*
X02737Y03427*
X02735Y03434*
X02732Y03437*
X02735Y03439*
X02737Y03446*
X02738Y03452*
X02737Y03459*
Y0346*
X0274Y03464*
X02775*
X02783Y03465*
X02789Y0347*
X02849Y0353*
X02854Y03536*
X02855Y03544*
Y03603*
X02857Y03604*
X02858Y03613*
X02857Y03622*
X02852Y0363*
X02844Y03635*
X02835Y03636*
X02826Y03635*
X02819Y0363*
X02814Y03622*
X02812Y03613*
X02814Y03604*
X02815Y03603*
Y03552*
X02768Y03505*
X02765Y03505*
X02763Y0351*
X02796Y03543*
X028Y03549*
X02802Y03557*
Y03612*
X02803Y03614*
X02805Y03623*
X02803Y03632*
X02798Y03639*
X0279Y03644*
X02782Y03646*
X02773Y03644*
X02772Y03644*
X02768Y03646*
X02767Y03651*
X02764Y03655*
X02768Y03658*
X02769Y03657*
X02775Y03655*
X02782Y03654*
X02789Y03655*
X02795Y03657*
X02798Y03659*
X02801Y03657*
X02807Y03655*
X02814Y03654*
X0282Y03655*
X02826Y03657*
X02829Y03659*
X02832Y03657*
G37*
G36*
X02242Y03661D02*
X02248Y03657D01*
X02254Y03656*
X02269*
X02275Y03657*
X02279Y0366*
X02283Y03657*
X02289Y03656*
X0229Y03654*
X02291Y03651*
X02288Y03647*
X0228Y03646*
X02273Y03641*
X02268Y03633*
X02266Y03625*
X02268Y03616*
X02273Y03608*
X0228Y03603*
X02289Y03601*
X02298Y03603*
X02305Y03608*
X0231Y03616*
X02312Y03623*
X02347Y03658*
X02557*
X02561Y03659*
X02563Y03654*
X02553Y03644*
X02424*
X02417Y03643*
X0241Y03638*
X02366Y03594*
X0223*
Y03596*
X02224*
Y03623*
X0223*
Y03662*
Y03665*
X02239*
X02242Y03661*
G37*
G36*
X02634Y03616D02*
X02634Y03615D01*
X02684*
Y03605*
X02634*
X02634Y03603*
X02631Y03598*
X02484*
X02476Y03597*
X0247Y03592*
X02307Y0343*
X02302Y03423*
X02301Y03415*
Y03411*
X02232*
X02226Y0341*
X02222Y03407*
X02219Y03403*
X02215Y03404*
X02214Y03404*
Y03413*
X02306Y03504*
X0231Y0351*
X02311Y03517*
Y03518*
X02312Y03519*
X02316Y03524*
X02317Y03531*
Y03547*
X02316Y03549*
X02321Y03554*
X02374*
X02382Y03556*
X02388Y0356*
X02433Y03604*
X02561*
X02569Y03606*
X02576Y0361*
X02587Y03621*
X02631*
X02634Y03616*
G37*
G36*
X02521Y03554D02*
X02366Y03398D01*
X02361Y03392*
X0236Y03384*
Y03383*
X02341*
Y03407*
X02492Y03558*
X02519*
X02521Y03554*
G37*
G36*
X02301Y03356D02*
X02301Y03354D01*
Y03338*
X02232*
Y03397*
X02301*
Y03356*
G37*
G36*
X02907Y0343D02*
X02906Y03421D01*
X02907Y03412*
X02912Y03404*
Y03404*
X02909Y03401*
X0286Y03353*
X02853Y03352*
X02845Y03347*
X0284Y03339*
X02839Y0333*
X0284Y03321*
X02842Y03318*
X0284Y03313*
X02838Y03313*
X02832Y0331*
X02829Y03308*
X02826Y0331*
X0282Y03313*
X02814Y03314*
X02807Y03313*
X02801Y0331*
X02798Y03308*
X02795Y0331*
X0279Y03312*
X02788Y03317*
X02903Y03433*
X02907Y0343*
G37*
G36*
X02725Y03231D02*
X02726Y03224D01*
X02728Y03218*
X0273Y03215*
X02728Y0321*
X02727*
X02717Y03209*
X02709Y03203*
X02704Y03195*
X02702Y03186*
X02704Y03176*
X02709Y03168*
X02717Y03163*
X02727Y03161*
X02761*
Y0316*
X02782*
Y03155*
X02787*
Y03134*
X0279*
X02791Y03132*
X02792Y03129*
X02789Y03124*
X02788Y03118*
Y03103*
X02789Y03097*
X02792Y03093*
X02789Y03089*
X02788Y03083*
Y03068*
X02789Y03062*
X02793Y03056*
X02798Y03053*
X02805Y03051*
X02809*
Y03027*
X0281Y03021*
X02814Y03016*
X03463Y02366*
Y02115*
X03458Y0211*
X03431*
X03429Y02115*
X03431Y02116*
X03435Y0212*
X03436Y0212*
X03436Y02121*
X0344Y02125*
X03442Y02126*
X03442*
X03443Y02127*
X03444Y02127*
X03445Y02128*
X03446Y02129*
X03447Y0213*
X03448Y02131*
X03449Y02133*
X0345Y02134*
X0345Y02135*
X0345Y02136*
Y02138*
X03451Y02139*
Y02311*
X0345Y02316*
X03446Y02321*
X0344Y02327*
X03435Y0233*
X0343Y02332*
X03329*
X03324Y0233*
X03319Y02327*
X03312Y0232*
Y0232*
X03311Y02318*
X03309Y02316*
X03308Y02313*
X03308Y0231*
X03308Y02247*
X03305Y02244*
X0329*
X03288Y02243*
X03266*
Y02303*
X03264Y02308*
X03261Y02313*
X03254Y02321*
X03249Y02324*
X03244Y02325*
X03196*
X03191Y02324*
X03186Y02321*
X03179Y02313*
X03176Y02308*
X03174Y02303*
Y02161*
X03176Y02156*
X03179Y02151*
X03183Y02147*
X03187Y02144*
X03192Y02143*
X03261*
Y02142*
X03265*
Y02134*
X03283*
X03301*
Y02138*
X03302Y02139*
X03304Y02139*
X03308Y02136*
Y0213*
X03309Y02129*
Y02127*
X03309Y02126*
X03309Y02125*
X0331Y02124*
X03311Y02122*
X03312Y02121*
X03312Y0212*
X03314Y02119*
X03315Y02118*
X03318Y02116*
Y02116*
X03323Y02112*
X0333Y02111*
X03347*
Y02079*
Y02047*
X03342Y02045*
X03339Y02046*
X0333Y02048*
X03321Y02046*
X03314Y02041*
X0331Y02036*
X03305Y02037*
Y02079*
Y02115*
X03301*
Y02124*
X03283*
X03265*
Y02118*
X03263Y02117*
X03237*
X03224Y0213*
X03217Y02134*
X0321Y02136*
X03183*
X03181Y02137*
X03172Y02139*
X03163Y02137*
X03155Y02132*
X0315Y02125*
X03149Y02116*
X0315Y02107*
X03155Y02099*
X03163Y02094*
X03172Y02093*
X03181Y02094*
X03183Y02096*
X03201*
X03207Y0209*
X03205Y02086*
X03161*
X03158Y02088*
X03149Y0209*
X0314Y02088*
X03133Y02083*
X03128Y02075*
X03126Y02066*
X03128Y02058*
X03133Y0205*
X0314Y02045*
X03149Y02043*
X03158Y02045*
X03159Y02046*
X03196*
X03198Y02041*
X03178Y02021*
X03089*
X03052Y02058*
Y02473*
X03056Y02479*
X03058Y02488*
X03056Y02497*
X03051Y02504*
X03044Y02509*
X03035Y02511*
X03034Y02516*
X03033Y0252*
X03028Y02528*
X03023Y02531*
X03022Y02537*
X03084Y02599*
X03091Y026*
X03099Y02605*
X03104Y02613*
X03105Y02622*
X03104Y0263*
X03099Y02638*
X03091Y02643*
X03087Y02644*
X03082Y02645*
X03081Y0265*
X0308Y02654*
X03075Y02662*
X03067Y02667*
X03059Y02668*
X0305Y02667*
X03042Y02662*
X03037Y02654*
X03036Y02647*
X02939Y02549*
X02934Y02551*
Y02811*
X02933Y02817*
X02929Y02823*
X0254Y03211*
X02542Y03216*
X02602*
X02604Y03216*
X02632*
Y03225*
X02661*
X02661*
X02661*
X02665*
X0267Y03226*
X02687*
X02692Y03225*
X02701Y03226*
X02709Y03231*
X02714Y03239*
X02716Y03248*
X02714Y03256*
X02709Y03264*
X02709Y03266*
X0271Y03269*
X02725*
Y03231*
G37*
G36*
X02876Y02796D02*
Y02472D01*
X02872Y02471*
X02649Y02693*
X02644Y02696*
X02637Y02698*
X02332*
Y02704*
X02265*
Y02727*
X02227*
Y02698*
X02265*
Y02657*
Y02626*
Y02594*
Y02563*
X02269*
Y0256*
X02299*
X02328*
Y02563*
X02332*
Y02569*
X02595*
X02807Y02357*
X02809Y02349*
X02814Y02341*
X02821Y02336*
X0283Y02335*
X02839Y02336*
X02847Y02341*
X02852Y02349*
X02853Y02357*
X02855Y02359*
X02858Y0236*
X02866Y02358*
X02871Y02359*
X02876Y02356*
Y02007*
X02872Y02001*
X0287Y01992*
X02872Y01983*
X02877Y01976*
X02875Y01971*
X02593*
X02589*
X02587Y0197*
X02584Y0197*
X02576Y01967*
X02574Y01965*
X02572Y01964*
X02566Y01958*
X02563Y01953*
X0256Y01946*
X0256Y01944*
X02559Y01941*
Y01937*
Y01763*
X02554Y01761*
X02528Y01787*
X02522Y01791*
X02515Y01793*
X02359*
Y01804*
X02332*
Y01813*
X0231*
Y01818*
X02305*
Y01839*
X02305*
Y01843*
X02302*
X02298Y01848*
X02299Y01851*
Y01895*
X02298Y01902*
X02294Y01908*
X02288Y01911*
X02281Y01913*
X02261*
X02261Y01918*
X02269Y0192*
X0227Y0192*
X02271Y0192*
X02288Y01926*
X02288Y01927*
X02289Y01927*
X02305Y01936*
X02305Y01936*
X02306Y01937*
X0232Y01948*
X0232Y01948*
X02321Y01949*
X02333Y01962*
X02334Y01962*
X02334Y01963*
X02345Y01978*
X02345Y01978*
X02345Y01979*
X02353Y01995*
X02353Y01996*
X02354Y01996*
X02359Y02013*
X02359Y02014*
X02359Y02015*
X02362Y02033*
X02362Y02033*
X02362Y02034*
X02362Y02052*
X02362Y02053*
Y02054*
X02359Y02071*
X02359Y02072*
X02359Y02073*
X02354Y0209*
X02353Y02091*
X02353Y02091*
X02345Y02107*
X02345Y02108*
X02344Y02109*
X02334Y02123*
X02334Y02124*
X02333Y02125*
X02321Y02138*
X0232Y02138*
X0232Y02139*
X02306Y0215*
X02305Y0215*
X02304Y0215*
X02289Y02159*
X02288Y02159*
X02287Y0216*
X0227Y02166*
X0227Y02166*
X02269Y02166*
X02251Y0217*
X02251*
X0225Y0217*
X02241Y02171*
X02241*
X02241Y02171*
X02234Y02171*
X0222Y02175*
X02207Y0218*
X02196Y02189*
X02186Y02199*
X02178Y02211*
X02173Y02224*
X0217Y02237*
Y02245*
X02169Y02759*
Y02762*
X02171Y02766*
X02175Y0277*
X0218Y02772*
X02182Y02772*
X02182*
X0243*
X02431Y02772*
X02431*
X02436Y02772*
X02437Y02772*
X02437*
X02447Y02774*
X02448Y02774*
X02449Y02775*
X02458Y02778*
X02459Y02779*
X0246Y02779*
X02468Y02785*
X02469Y02785*
X02469Y02786*
X02476Y02793*
X02477Y02794*
X02478Y02795*
X02483Y02803*
X02483Y02804*
X02484Y02804*
X02488Y02813*
X02488Y02814*
X02488Y02815*
X0249Y02825*
Y02826*
X0249Y02826*
X02491Y02831*
Y02832*
Y02832*
Y03161*
Y03161*
Y03162*
X0249Y03167*
X0249Y03167*
Y03168*
X02489Y03176*
X02493Y03179*
X02876Y02796*
G37*
G36*
X03252Y02303D02*
Y02192D01*
X03255Y02189*
X03287*
X03291Y02185*
Y02163*
X03261*
Y02157*
X03192*
X03189Y02161*
Y02303*
X03196Y02311*
X03244*
X03252Y02303*
G37*
G36*
X0343Y02317D02*
X03437Y02311D01*
Y02139*
X03436Y02139*
X03428Y02134*
X03426Y0213*
X03391*
Y02131*
X03347*
Y0213*
X03343Y02129*
X03341Y02128*
X03339Y02128*
X0333Y02126*
X03327Y02127*
X03322Y0213*
X03322Y0231*
X03329Y02317*
X0343*
G37*
G36*
X03397Y01882D02*
Y01791D01*
X03374Y01769*
X0337Y0177*
X03369Y01772*
X03364Y0178*
X03357Y01785*
X03348Y01786*
X0334Y01785*
X03338Y01785*
X03335Y01787*
Y01809*
X03338Y01813*
X03358*
Y01829*
X03363*
Y01834*
X03387*
Y01845*
X03378*
X03376Y01848*
X03376Y0185*
X03379Y01855*
X0338Y01858*
X03391*
Y01879*
X03396Y01882*
X03397Y01882*
G37*
G36*
X02283Y01842D02*
X02285Y0184D01*
Y01794*
X02291*
Y01762*
X0227*
Y01759*
X02262*
X02259Y0176*
X02257Y01759*
X0225*
Y0176*
X02248Y01769*
X02243Y01777*
X02236Y01782*
X02227Y01783*
X02218Y01782*
X02211Y01777*
X02208Y01773*
X02203Y01773*
X02189Y01788*
Y01889*
X02195Y01895*
X02197Y01897*
X02283*
Y01842*
G37*
G36*
X02995Y01913D02*
X03001Y01909D01*
X03007Y01908*
X03022*
X03025Y01903*
X03022Y01898*
X0302Y01889*
X03022Y0188*
X03027Y01873*
X03034Y01868*
X03043Y01866*
X03052Y01868*
X03059Y01873*
X03064Y0188*
X03066Y01888*
X03068Y01891*
X03159*
X03161Y01886*
X03131Y01856*
X03128Y01851*
X03126Y01844*
Y01813*
X03122Y01807*
X0312Y01798*
X03122Y01789*
X03127Y01782*
X03134Y01777*
X03143Y01775*
X03152Y01777*
X0316Y01782*
X03165Y01789*
X03166Y01798*
X03165Y01807*
X03163Y01809*
X03164Y01816*
X03165Y01817*
X03173Y01815*
X03182Y01817*
X03189Y01822*
X03194Y01829*
X03196Y01837*
X03218Y0186*
X03261*
Y01858*
X033*
Y01845*
X03295*
Y01829*
Y01813*
X033*
Y01756*
X03299Y01755*
X03293Y01752*
X0329Y01747*
X03289Y01741*
X02961*
X0296Y01741*
X02958Y01746*
X0296Y01751*
X02961Y01756*
Y0176*
Y01937*
Y0194*
X02963Y01941*
X02966Y01942*
X02995Y01913*
G37*
G36*
X02555Y01711D02*
D01*
X02561Y01707*
X02562Y01707*
X02562Y01702*
X02359*
Y01725*
X02351*
Y01731*
X02313*
Y01741*
X02351*
Y01747*
X02359*
Y01758*
X02508*
X02555Y01711*
G37*
G36*
X03463Y02017D02*
Y0168D01*
X03347Y01563*
X03142*
Y01577*
X031*
X03095Y01578*
X03091Y01581*
X03085Y01582*
X03043*
X03037Y01581*
X03031Y01577*
X03018Y01563*
X02986*
X0298Y01562*
X02975Y01559*
X02956Y01539*
X02951Y01541*
Y01544*
X0295Y0155*
X02949Y0155*
Y01564*
X02945*
Y01565*
X02925*
Y0157*
X0292*
Y01591*
X02918*
X02915Y01595*
Y01606*
X02914Y01611*
X02911Y01616*
X0288Y01647*
X02875Y0165*
X0287Y01651*
X02389*
X02388Y01651*
X02386*
X02385Y01651*
X02384Y0165*
X02382Y0165*
X02381Y01649*
X02377Y01646*
X02372Y01645*
X02367*
Y01648*
X02347*
Y01658*
X02367*
Y01661*
X02367Y01663*
X02371Y01668*
X03291*
X03293Y01665*
X03295Y01663*
Y0166*
X03297Y01653*
X033Y01648*
X03308Y0164*
X03314Y01636*
X0332Y01635*
X03365*
X03371Y01636*
X03377Y0164*
X03391Y01654*
X03394Y01659*
X03396Y01666*
Y01741*
X03426Y01772*
X03429Y01777*
X03431Y01784*
Y01893*
X03429Y019*
X03426Y01906*
X03411Y0192*
X03405Y01924*
X03399Y01925*
X03391*
Y01958*
X03387*
Y01969*
X03391*
Y02021*
X03459*
X03463Y02017*
G37*
G36*
X02611Y01437D02*
X02613Y01431D01*
X02614Y01429*
Y01429*
X02614*
X02616Y01427*
X0262Y01423*
X02624Y0142*
X02629Y01419*
X02739*
X0274Y01419*
X02741*
X02743Y01419*
X02744Y0142*
X02745Y0142*
X02747Y01421*
X02748Y01422*
X02752Y01425*
X02758Y01426*
X02758*
X02758Y01426*
X0276Y01426*
X02762Y01424*
X02763Y01423*
Y014*
X02778*
Y0143*
Y01459*
X02773*
Y01485*
X02844*
X02846Y01481*
X02844Y01478*
X0284Y01468*
X02838Y01457*
X0284Y01446*
X02844Y01436*
X02851Y01427*
Y01406*
X02846Y01402*
X02845*
X02838*
X02838*
X02838*
X02835Y01402*
X02816*
Y01394*
X02814Y01392*
X02808Y01385*
X02805Y01377*
X02804Y01368*
Y01368*
Y01333*
Y01333*
Y01333*
X02805Y01324*
X02806Y01321*
X02803Y01316*
X02699*
X02699*
X02699*
X02679Y01316*
X02637Y01318*
X02596Y01324*
X02556Y01333*
X02517Y01346*
X02478Y01361*
X02441Y01379*
X02406Y01401*
X02372Y01425*
X0234Y01451*
X02311Y0148*
X02284Y01511*
X02274Y01524*
X02276Y01529*
X02307*
X0237*
X02373Y01526*
Y01497*
X02429*
X02484*
Y01526*
X02488Y01529*
X02611*
Y01437*
G37*
G36*
X02292Y01672D02*
X02289Y01668D01*
X02288Y01661*
Y01645*
X02289Y01638*
X02292Y01633*
X02298Y01629*
X02304Y01628*
X02319*
X02325Y01629*
X02329Y01632*
X02333Y01629*
X0234Y01628*
X02354*
X02361Y01629*
X02363Y01631*
X02374*
X02382Y01633*
X02389Y01637*
X0287*
X02901Y01606*
Y01595*
X029*
Y01544*
X02937*
Y01497*
X02932*
Y01429*
X02917*
Y01434*
X02918Y01436*
X02922Y01446*
X02924Y01457*
X02922Y01468*
X02918Y01478*
X02917Y0148*
Y01492*
X02909Y015*
X02883*
X02881Y015*
X02879Y015*
X02763*
X02759Y01496*
Y01443*
X02756Y0144*
X02755*
X02747Y01438*
X02739Y01433*
X02739Y01433*
X02629*
X02626Y01437*
Y01539*
X02622Y01543*
X02488*
Y01555*
X0237*
Y01543*
X02307*
X0226*
X02259Y01545*
X02237Y0158*
X02218Y01616*
X02215Y01624*
Y01702*
X02252*
Y01708*
X02292*
Y01672*
G37*
G36*
X03141Y01333D02*
X03121D01*
Y01368*
X03141*
Y01333*
G37*
G36*
X02838D02*
X02818D01*
Y01368*
X02838*
Y01333*
G37*
%LNleft_board-2*%
%LPC*%
G36*
X02548Y04508D02*
X02518Y04491D01*
X02531Y0447*
X0256Y04486*
X02548Y04508*
G37*
G36*
X0241Y04428D02*
X02381Y04411D01*
X02393Y0439*
X02422Y04407*
X0241Y04428*
G37*
G36*
X02468Y04256D02*
X02453Y04254D01*
X0244Y0425*
X02427Y04243*
X02416Y04234*
X02407Y04223*
X024Y04211*
X02396Y04197*
X02395Y04183*
X02396Y04168*
X024Y04155*
X02407Y04142*
X02416Y04131*
X02427Y04122*
X0244Y04115*
X02453Y04111*
X02468Y04109*
X02482Y04111*
X02496Y04115*
X02508Y04122*
X02519Y04131*
X02529Y04142*
X02535Y04155*
X02539Y04168*
X02541Y04183*
X02539Y04197*
X02535Y04211*
X02529Y04223*
X02519Y04234*
X02508Y04243*
X02496Y0425*
X02482Y04254*
X02468Y04256*
G37*
G36*
X03422Y04278D02*
X03408Y04277D01*
X03394Y04273*
X03382Y04266*
X03371Y04257*
X03362Y04246*
X03355Y04233*
X03351Y04219*
X03349Y04205*
X03351Y04191*
X03355Y04177*
X03362Y04164*
X03371Y04153*
X03382Y04144*
X03394Y04137*
X03406Y04134*
X03408Y04129*
X03408Y04128*
X03404Y04124*
X03403Y04115*
X03404Y04106*
X03406Y04103*
X03407Y04101*
X03403Y04096*
X03395*
X03391Y04099*
X03382Y04101*
X03373Y04099*
X03366Y04094*
X03361Y04087*
X03359Y04078*
X03361Y04069*
X03366Y04061*
X03373Y04056*
X03382Y04055*
X03388Y04056*
X03393Y04052*
X03393Y04052*
Y04042*
X03407*
Y0404*
X03436*
X03437Y04039*
X03442Y04035*
X03448Y04034*
X03465*
X03471Y04035*
X03477Y04039*
X0348Y04044*
X03482Y04051*
Y04065*
X0348Y04072*
X03478Y04076*
X0348Y0408*
X03482Y04086*
Y04101*
X0348Y04107*
X03477Y04113*
X03475Y04113*
X03478Y04117*
X03479Y04126*
X03478Y04134*
X03473Y04142*
X03469Y04144*
X03469Y04149*
X03474Y04153*
X03483Y04164*
X0349Y04177*
X03494Y04191*
X03496Y04205*
X03494Y04219*
X0349Y04233*
X03483Y04246*
X03474Y04257*
X03463Y04266*
X0345Y04273*
X03437Y04277*
X03422Y04278*
G37*
G36*
X03465Y04016D02*
X0345D01*
X03444Y04014*
X0344Y04012*
X03436Y04014*
X03429Y04016*
X03414*
X03408Y04014*
X03403Y04011*
X03399Y04005*
X03398Y03999*
Y03982*
X03399Y03976*
X03403Y03971*
X03405Y03969*
Y03904*
X03402Y039*
X03401Y03891*
X03402Y03882*
X03407Y03875*
X03415Y0387*
X03424Y03868*
X03433Y0387*
X0344Y03875*
X03445Y03882*
X03447Y03891*
X03445Y039*
X0344Y03907*
Y03937*
X03445Y0394*
X03448Y03938*
X03457Y03936*
X03466Y03938*
X03474Y03943*
X03479Y0395*
X0348Y03959*
X03479Y03968*
X03477Y03971*
X0348Y03976*
X03481Y03982*
Y03999*
X0348Y04005*
X03476Y04011*
X03471Y04014*
X03465Y04016*
G37*
G36*
X03114Y03778D02*
X03096D01*
Y03758*
X03101*
X03106Y03759*
X0311Y03762*
X03113Y03766*
X03114Y03771*
Y03778*
G37*
G36*
X03088Y03703D02*
X0307D01*
Y03658*
X03074Y03659*
X03081Y03664*
X03086Y03671*
X03088Y0368*
Y03703*
G37*
G36*
X0339Y03572D02*
X03373D01*
Y03557*
X0339*
Y03572*
G37*
G36*
X03409Y03491D02*
X03381D01*
Y03458*
X03409*
Y03491*
G37*
G36*
X03258Y0341D02*
X03241D01*
Y03394*
X03258*
Y0341*
G37*
G36*
X03318Y0335D02*
X03301D01*
Y03334*
X03318*
Y0335*
G37*
G36*
X03435Y03219D02*
X03414D01*
Y03181*
X03435*
Y03219*
G37*
G36*
X03404D02*
X03383D01*
Y03181*
X03404*
Y03219*
G37*
G36*
X03435Y03171D02*
X03414D01*
Y03132*
X03435*
Y03171*
G37*
G36*
X03404D02*
X03383D01*
Y03132*
X03404*
Y03171*
G37*
G36*
X03225Y01451D02*
X03209D01*
Y01436*
X03225*
Y01451*
G37*
G36*
X03422Y01481D02*
X03408Y0148D01*
X03394Y01476*
X03382Y01469*
X03371Y0146*
X03362Y01449*
X03355Y01436*
X03351Y01422*
X03349Y01408*
X03351Y01394*
X03355Y0138*
X03362Y01367*
X03371Y01356*
X03382Y01347*
X03394Y0134*
X03408Y01336*
X03422Y01335*
X03437Y01336*
X0345Y0134*
X03463Y01347*
X03474Y01356*
X03483Y01367*
X0349Y0138*
X03494Y01394*
X03496Y01408*
X03494Y01422*
X0349Y01436*
X03483Y01449*
X03474Y0146*
X03463Y01469*
X0345Y01476*
X03437Y0148*
X03422Y01481*
G37*
G36*
X03226Y01349D02*
X03211D01*
Y01333*
X03214*
X03218Y01334*
X03223Y01337*
X03225Y01341*
X03226Y01346*
Y01349*
G37*
G36*
X02777Y0315D02*
X02761D01*
Y03134*
X02777*
Y0315*
G37*
G36*
X02265Y02765D02*
X02227D01*
Y02737*
X02265*
Y02765*
G37*
G36*
X02217D02*
X02179D01*
Y02737*
X02217*
Y02765*
G37*
G36*
Y02727D02*
X02179D01*
Y02698*
X02217*
Y02727*
G37*
G36*
X02328Y0255D02*
X02304D01*
Y02535*
X02328*
Y0255*
G37*
G36*
X02294D02*
X02269D01*
Y02544*
X02268Y02539*
X02264Y02537*
X02227*
Y02508*
X02265*
Y02528*
X02267Y02533*
X0227Y02535*
X02294*
Y0255*
G37*
G36*
X02217Y02537D02*
X02179D01*
Y02508*
X02217*
Y02537*
G37*
G36*
X02265Y02498D02*
X02227D01*
Y0247*
X02265*
Y02498*
G37*
G36*
X02217D02*
X02179D01*
Y0247*
X02217*
Y02498*
G37*
G36*
X02261Y02337D02*
X02247Y02335D01*
X02233Y02331*
X0222Y02324*
X02209Y02315*
X022Y02304*
X02193Y02291*
X02189Y02278*
X02188Y02263*
X02189Y02249*
X02193Y02235*
X022Y02223*
X02209Y02212*
X0222Y02202*
X02233Y02196*
X02247Y02192*
X02261Y0219*
X02275Y02192*
X02289Y02196*
X02302Y02202*
X02313Y02212*
X02322Y02223*
X02329Y02235*
X02333Y02249*
X02334Y02263*
X02333Y02278*
X02329Y02291*
X02322Y02304*
X02313Y02315*
X02302Y02324*
X02289Y02331*
X02275Y02335*
X02261Y02337*
G37*
G36*
X02352Y01909D02*
X02345D01*
Y01878*
X02366*
Y01895*
X02365Y019*
X02362Y01905*
X02357Y01908*
X02352Y01909*
G37*
G36*
X02335D02*
X02329D01*
X02324Y01908*
X02319Y01905*
X02316Y019*
X02315Y01895*
Y01878*
X02335*
Y01909*
G37*
G36*
X02366Y01868D02*
X02345D01*
Y01837*
X02352*
X02357Y01838*
X02362Y01841*
X02365Y01846*
X02366Y01851*
Y01868*
G37*
G36*
X02335D02*
X02315D01*
Y01851*
X02316Y01846*
X02317Y01844*
X02315Y0184*
Y01823*
X02332*
Y01837*
X02335*
Y01868*
G37*
G36*
X03387Y01824D02*
X03368D01*
Y01813*
X03387*
Y01824*
G37*
G36*
X03285Y01845D02*
X03265D01*
Y01834*
X03285*
Y01845*
G37*
G36*
Y01824D02*
X03265D01*
Y01813*
X03285*
Y01824*
G37*
G36*
X02945Y01591D02*
X0293D01*
Y01575*
X02945*
Y01591*
G37*
G36*
X02803Y01459D02*
X02788D01*
Y01435*
X02803*
Y01459*
G37*
G36*
X02484Y01487D02*
X02434D01*
Y01432*
X02484*
Y01487*
G37*
G36*
X02424D02*
X02373D01*
Y01432*
X02424*
Y01487*
G37*
G36*
X02803Y01425D02*
X02788D01*
Y014*
X02803*
Y01425*
G37*
%LNleft_board-3*%
%LPD*%
G54D10*
X03301Y01987D02*
X03322Y01966D01*
X03327Y0194D02*
X0334Y01952D01*
Y01964*
X03157Y04051D02*
X03159Y04052D01*
X03403*
X03408Y04057*
X0334Y01964D02*
X03362D01*
X03339Y01966D02*
X0334Y01964D01*
X03322Y01966D02*
X03339D01*
G54D11*
X02749Y03613D02*
X0275D01*
X02756Y0362*
Y03623*
X02758Y03625*
X02759*
X02763Y03629*
Y03632*
X02766Y03636*
Y03643*
X02775Y03651*
X03342Y01893D02*
Y01903D01*
X03351Y01912*
Y01917*
X03357Y01923*
X03368*
X03369Y01924*
G54D12*
X0337Y01829D02*
X0338D01*
X02541Y03925D02*
X02886D01*
X02938Y03033D02*
X02971Y03066D01*
Y03259*
X03185Y03665D02*
Y03976D01*
X03153Y04007D02*
X03185Y03976D01*
X02216Y03303D02*
X02307D01*
X02365Y03256D02*
X02366Y03255D01*
X02307Y03303D02*
X02353Y03256D01*
X02365*
X02196Y03322D02*
X02216Y03303D01*
X02196Y03322D02*
Y03421D01*
X03161Y03641D02*
X03185Y03665D01*
X03132Y03641D02*
X03161D01*
X02208Y03535D02*
X02212Y03539D01*
X02257*
X02297Y03681D02*
X02541Y03925D01*
X02196Y03421D02*
X02293Y03517D01*
Y03539*
G54D13*
X02559Y03318D02*
X02566Y03326D01*
X02533Y03318D02*
X02559D01*
X02684Y03326D02*
X0276D01*
X03034Y036*
Y03708*
X02739Y03358D02*
X02758Y03377D01*
X02582Y03358D02*
X02739D01*
X02758Y03377D02*
Y034D01*
X03034Y03783D02*
Y03831D01*
Y03708D02*
Y03783D01*
X02608Y03688D02*
X02638D01*
X02639Y03689*
X02694D02*
X02695Y03689D01*
Y03722*
X03034Y03831D02*
X03043Y0384D01*
X02741Y0361D02*
X02743Y03608D01*
X02684Y0361D02*
X02741D01*
X02625Y03609D02*
X02626Y0361D01*
X02684*
X03091Y03763D02*
Y03783D01*
X03065Y03738D02*
X03091Y03763D01*
X03065Y03708D02*
Y03738D01*
X03072Y0342D02*
X03073Y03421D01*
X03132*
X02582Y03358D02*
D01*
X0294Y03259D02*
Y03323D01*
X03034Y03708D02*
D01*
G54D14*
X03399Y01908D02*
X03414Y01893D01*
X03378Y01749D02*
X03414Y01784D01*
Y01893*
X03369Y01908D02*
X03399D01*
X02476Y03252D02*
Y03389D01*
Y03252D02*
X02917Y02811D01*
X02476Y03389D02*
X02543Y03456D01*
X02563*
X02421Y03311D02*
Y03342D01*
X03075Y03552D02*
Y0356D01*
X0309Y03575D02*
X03129D01*
X03075Y0356D02*
X0309Y03575D01*
X03067Y03544D02*
X03075Y03552D01*
X03067Y03457D02*
Y03544D01*
X02583Y03663D02*
X02608Y03688D01*
X02568Y03663D02*
X02583D01*
X0234Y03675D02*
X02557D01*
X02704Y03822*
X02909Y03603D02*
X0293Y03582D01*
X02909Y03603D02*
Y03712D01*
X02961Y03587D02*
X02971Y03596D01*
Y03709*
X03173Y01838D02*
X03211Y01877D01*
X03283*
X03283Y03594D02*
X0333D01*
X03204Y03515D02*
X03283Y03594D01*
X03132Y03515D02*
X03204D01*
X03369Y01939D02*
Y0194D01*
X03317Y019D02*
X03356Y01939D01*
X03317Y01732D02*
Y019D01*
X03356Y01939D02*
X03369D01*
X02627Y0439D02*
X02701D01*
X0294Y04152*
Y03708D02*
Y04152D01*
X0261Y04421D02*
X02627Y0439D01*
X026Y04414D02*
Y04427D01*
X02553Y03647D02*
X02568Y03663D01*
X02542Y03647D02*
X02553D01*
X02704Y03822D02*
X02807D01*
X03Y03389D02*
X03067Y03457D01*
X03365Y01652D02*
X03378Y01666D01*
Y01749*
X03313Y0166D02*
X0332Y01652D01*
X03365*
X03313Y0166D02*
Y01685D01*
X03392Y01924D02*
X03397Y01929D01*
X02877Y03708D02*
X02878Y03709D01*
Y03771*
X02289Y03625D02*
X0234Y03675D01*
X03143Y01844D02*
X03192Y01892D01*
X03143Y01798D02*
Y01844D01*
X03358Y01856D02*
X03364Y01862D01*
X03346Y01856D02*
X03358D01*
X03345Y01855D02*
X03346Y01856D01*
X03364Y01862D02*
Y01875D01*
X03365Y01877*
X03369*
X03348Y01732D02*
Y01763D01*
Y01685D02*
Y01732D01*
X02299Y02586D02*
X02602D01*
X0283Y02358*
X02637Y02681D02*
X02866Y02452D01*
X02299Y02681D02*
X02637D01*
X02866Y02381D02*
Y02452D01*
X02834Y02405D02*
Y0244D01*
X02626Y02649D02*
X02834Y0244D01*
X02299Y02649D02*
X02626D01*
X02299Y02618D02*
X02614D01*
X02803Y02429*
X0294Y02023D02*
Y02527D01*
X03059Y02645*
X03011Y02044D02*
Y02511D01*
X02988Y02039D02*
Y02527D01*
X03082Y02622*
X03035Y02051D02*
Y02488D01*
X03456Y0399D02*
X03457Y03991D01*
X02338Y01689D02*
X02342Y01685D01*
X02346D02*
D01*
X02338Y01689D02*
Y01696D01*
X02342Y01685D02*
X02346D01*
X03313D01*
X03141Y03326D02*
X03149Y03318D01*
X03132Y03326D02*
X03141D01*
X03149Y02803D02*
Y03318D01*
X02964Y02031D02*
Y0248D01*
X03011Y02044D02*
X03067Y01988D01*
X03035Y02051D02*
X03082Y02003D01*
X02964Y02031D02*
X03039Y01956D01*
X03061Y01908D02*
X03283D01*
X03043Y01889D02*
X03061Y01908D01*
X02452Y03244D02*
X02893Y02803D01*
X02452Y03401D02*
X02535Y03484D01*
X02452Y03244D02*
Y03401D01*
X02893Y01992D02*
Y02803D01*
X02535Y03484D02*
X02586D01*
X02917Y02015D02*
Y02811D01*
Y02015D02*
X03007Y01925D01*
X02771Y03775D02*
X02782Y03764D01*
Y03708D02*
Y03764D01*
X02807Y03822D02*
X02845Y03784D01*
X0235Y03299D02*
X02409D01*
X02421Y03311*
X02845Y03708D02*
Y03784D01*
X02814Y03709D02*
Y03771D01*
X02814Y03708D02*
X02814Y03709D01*
X02341Y03308D02*
X0235Y03299D01*
X02341Y03308D02*
Y03356D01*
X03283Y01908D02*
X03283Y01908D01*
X03356Y03434D02*
Y03443D01*
X03346Y03452D02*
X03356Y03443D01*
X03132Y03452D02*
X03346D01*
X03375Y03415D02*
X03376D01*
X03356Y03434D02*
X03375Y03415D01*
X02862Y0333D02*
X02921Y03389D01*
X03*
X0294Y02023D02*
X03023Y0194D01*
X03007Y01925D02*
X03244D01*
X03192Y01892D02*
X03283D01*
X03065Y03259D02*
X03067Y03257D01*
Y03196D02*
Y03257D01*
X03034Y03259D02*
X03035Y03258D01*
Y03196D02*
Y03258D01*
X03003Y03259D02*
D01*
Y03196D02*
Y03259D01*
X03129Y03575D02*
X03132Y03578D01*
X02988Y02039D02*
X03055Y01972D01*
X03023Y0194D02*
X03232D01*
X03039Y01956D02*
X0322D01*
X03055Y01972D02*
X03208D01*
X03185Y02003D02*
X03215Y02034D01*
X03082Y02003D02*
X03185D01*
X03067Y01988D02*
X03196D01*
X03227Y02018*
X03208Y01972D02*
X03239Y02003D01*
X0322Y01956D02*
X03235Y01971D01*
X03232Y0194D02*
X03246Y01955D01*
X03244Y01925D02*
X03258Y01939D01*
X03283*
X03246Y01955D02*
X03283D01*
X03235Y01971D02*
X03283D01*
X03239Y02003D02*
X03283D01*
X03227Y02018D02*
X03283D01*
X03283Y01939D02*
X03283Y0194D01*
X03215Y02034D02*
X03283D01*
X03283Y01955D02*
X03283Y01955D01*
X03357Y03355D02*
Y03391D01*
Y03392D02*
X03376Y03411D01*
X03329Y03517D02*
Y03544D01*
X03337Y03553D02*
X03338D01*
X03329Y03545D02*
X03337Y03553D01*
X03309Y03498D02*
X03329Y03518D01*
X03132Y03484D02*
X03309D01*
X0331Y03483*
X03003Y03708D02*
Y03758D01*
X02979Y03782D02*
X03003Y03758D01*
G54D16*
X03119Y01343D02*
D01*
X03118Y01342*
X03118Y01342*
X03117Y01342*
X03116Y01342*
X03116Y01341*
X03115Y01341*
X03115Y0134*
X03114Y0134*
X03114Y0134*
X03113Y01339*
X03113Y01338*
X03112Y01338*
X03112Y01337*
X03112Y01337*
X03112Y01336*
X03111Y01335*
X03111Y01335*
X03111Y01334*
X03111Y01333*
X03111Y01333*
X03111Y01332*
X03111Y01331*
X03111Y01331*
X03112Y0133*
X03112Y01329*
X03112Y01329*
X03113Y01328*
X03113Y01327*
X03113Y01327*
X03114Y01326*
X03114Y01326*
X03115Y01325*
X03115Y01325*
X03116Y01325*
X03116Y01324*
X03117Y01324*
X03118Y01324*
X03118Y01324*
X03119Y01323*
X0312Y01323*
X0312Y01323*
X03121Y01323*
X03122Y01323*
X03122Y01323*
X03123Y01323*
X03124Y01324*
X03124Y01324*
X03125Y01324*
X03126Y01324*
X03126Y01325*
X03127Y01325*
X03127Y01326*
X03128Y01326*
X03128Y01326*
X03129Y01327*
X03129Y01328*
X0313Y01328*
X0313Y01329*
X0313Y01329*
X0313Y0133*
X03131Y01331*
X03131Y01331*
X03131Y01332*
X03131Y01333*
X03131Y01333*
D01*
X03131Y01334*
X03131Y01334*
X03131Y01335*
X03131Y01336*
X0313Y01336*
X0313Y01337*
X0313Y01338*
X03129Y01338*
X03129Y01339*
X03129Y01339*
X03128Y0134*
X03128Y0134*
X03127Y01341*
X03127Y01341*
X03126Y01341*
X03125Y01342*
X03125Y01342*
X03124Y01342*
X03123Y01343*
X03123Y01343*
X03122Y01343*
X03121Y01343*
X03121*
X0312Y01343*
X03119Y01343*
X03119Y01343*
X03131Y01368D02*
D01*
X03131Y01369*
X03131Y0137*
X03131Y0137*
X03131Y01371*
X0313Y01372*
X0313Y01372*
X0313Y01373*
X03129Y01374*
X03129Y01374*
X03129Y01375*
X03128Y01375*
X03128Y01376*
X03127Y01376*
X03127Y01377*
X03126Y01377*
X03125Y01377*
X03125Y01377*
X03124Y01378*
X03123Y01378*
X03123Y01378*
X03122Y01378*
X03121Y01378*
X03121*
X0312Y01378*
X03119Y01378*
X03119Y01378*
X03118Y01378*
X03117Y01377*
X03117Y01377*
X03116Y01377*
X03116Y01377*
X03115Y01376*
X03115Y01376*
X03114Y01375*
X03114Y01375*
X03113Y01374*
X03113Y01374*
X03112Y01373*
X03112Y01372*
X03112Y01372*
X03112Y01371*
X03112Y0137*
X03111Y0137*
X03111Y01369*
X03111Y01368*
X03111Y01368*
X03111Y01367*
X03112Y01366*
X03112Y01366*
X03112Y01365*
X03112Y01364*
X03112Y01364*
X03113Y01363*
X03113Y01363*
X03114Y01362*
X03114Y01362*
X03115Y01361*
X03115Y01361*
X03116Y0136*
X03116Y0136*
X03117Y0136*
X03117Y01359*
X03118Y01359*
X03119Y01359*
X03119Y01359*
X0312Y01359*
X03121Y01359*
X03121*
X03122Y01359*
X03123Y01359*
X03123Y01359*
X03124Y01359*
X03125Y01359*
X03125Y0136*
X03126Y0136*
X03127Y0136*
X03127Y01361*
X03128Y01361*
X03128Y01362*
X03129Y01362*
X03129Y01363*
X03129Y01363*
X0313Y01364*
X0313Y01364*
X0313Y01365*
X03131Y01366*
X03131Y01366*
X03131Y01367*
X03131Y01368*
X03131Y01368*
X02848D02*
D01*
X02847Y01369*
X02847Y0137*
X02847Y0137*
X02847Y01371*
X02847Y01372*
X02847Y01372*
X02846Y01373*
X02846Y01374*
X02846Y01374*
X02845Y01375*
X02845Y01375*
X02844Y01376*
X02844Y01376*
X02843Y01377*
X02843Y01377*
X02842Y01377*
X02841Y01377*
X02841Y01378*
X0284Y01378*
X02839Y01378*
X02839Y01378*
X02838Y01378*
X02837*
X02837Y01378*
X02836Y01378*
X02835Y01378*
X02835Y01378*
X02834Y01377*
X02833Y01377*
X02833Y01377*
X02832Y01377*
X02832Y01376*
X02831Y01376*
X02831Y01375*
X0283Y01375*
X0283Y01374*
X02829Y01374*
X02829Y01373*
X02829Y01372*
X02828Y01372*
X02828Y01371*
X02828Y0137*
X02828Y0137*
X02828Y01369*
X02828Y01368*
X02828Y01368*
X02828Y01367*
X02828Y01366*
X02828Y01366*
X02828Y01365*
X02829Y01364*
X02829Y01364*
X02829Y01363*
X0283Y01363*
X0283Y01362*
X02831Y01362*
X02831Y01361*
X02832Y01361*
X02832Y0136*
X02833Y0136*
X02833Y0136*
X02834Y01359*
X02835Y01359*
X02835Y01359*
X02836Y01359*
X02837Y01359*
X02837Y01359*
X02838*
X02839Y01359*
X02839Y01359*
X0284Y01359*
X02841Y01359*
X02841Y01359*
X02842Y0136*
X02843Y0136*
X02843Y0136*
X02844Y01361*
X02844Y01361*
X02845Y01362*
X02845Y01362*
X02846Y01363*
X02846Y01363*
X02846Y01364*
X02847Y01364*
X02847Y01365*
X02847Y01366*
X02847Y01366*
X02847Y01367*
X02847Y01368*
X02848Y01368*
Y01333D02*
D01*
X02847Y01334*
X02847Y01334*
X02847Y01335*
X02847Y01336*
X02847Y01336*
X02847Y01337*
X02846Y01338*
X02846Y01338*
X02846Y01339*
X02845Y01339*
X02845Y0134*
X02844Y0134*
X02844Y01341*
X02843Y01341*
X02843Y01341*
X02842Y01342*
X02841Y01342*
X02841Y01342*
X0284Y01343*
X02839Y01343*
X02839Y01343*
X02838Y01343*
X02837*
X02837Y01343*
X02836Y01343*
X02835Y01343*
X02835Y01342*
X02834Y01342*
X02833Y01342*
X02833Y01341*
X02832Y01341*
X02832Y01341*
X02831Y0134*
X02831Y0134*
X0283Y01339*
X0283Y01339*
X02829Y01338*
X02829Y01338*
X02829Y01337*
X02828Y01336*
X02828Y01336*
X02828Y01335*
X02828Y01334*
X02828Y01334*
X02828Y01333*
X02828Y01332*
X02828Y01332*
X02828Y01331*
X02828Y0133*
X02828Y0133*
X02829Y01329*
X02829Y01328*
X02829Y01328*
X0283Y01327*
X0283Y01327*
X02831Y01326*
X02831Y01326*
X02832Y01325*
X02832Y01325*
X02833Y01325*
X02833Y01324*
X02834Y01324*
X02835Y01324*
X02835Y01323*
X02836Y01323*
X02837Y01323*
X02837Y01323*
X02838*
X02839Y01323*
X02839Y01323*
X0284Y01323*
X02841Y01324*
X02841Y01324*
X02842Y01324*
X02843Y01325*
X02843Y01325*
X02844Y01325*
X02844Y01326*
X02845Y01326*
X02845Y01327*
X02846Y01327*
X02846Y01328*
X02846Y01328*
X02847Y01329*
X02847Y0133*
X02847Y0133*
X02847Y01331*
X02847Y01332*
X02847Y01332*
X02848Y01333*
X03078Y01457D02*
X03146D01*
X03172Y01431*
X03173*
X03173Y01357D02*
Y01392D01*
X03171Y01355D02*
X03173Y01357D01*
X03171Y01354D02*
Y01355D01*
X03173Y0143D02*
X03173Y01431D01*
X03173Y01392D02*
Y0143D01*
X03173Y01392D02*
X03173Y01392D01*
X03119Y01343D02*
Y01354D01*
X03119Y01354D02*
X03171D01*
X03119Y01354D02*
X03119Y01354D01*
X02228Y01697D02*
X02282D01*
G54D17*
X02783Y01522D03*
Y0143D03*
G54D18*
X03019Y01351D03*
X0294D03*
X02859D03*
X03099D03*
G54D19*
X03031Y01457D03*
X03005D03*
X02979D03*
X02954D03*
X02928D03*
G54D20*
X02222Y02503D03*
Y02732D03*
G54D21*
X02299Y02555D03*
Y02586D03*
Y02618D03*
Y02649D03*
Y02681D03*
G54D22*
X03204Y01431D03*
X03173D03*
X03203Y01392D03*
X03173D03*
X03236Y03389D03*
X03206D03*
X03323Y03355D03*
X03353D03*
X03368Y03552D03*
X03338D03*
X0258Y03326D03*
X0261D03*
X0258Y03389D03*
X0261D03*
X0231Y01818D03*
X02279D03*
G54D23*
X03206Y01354D03*
X03171D03*
X02312Y01653D03*
X02347D03*
X02257Y03539D03*
X02293D03*
X03348Y01685D03*
X03313D03*
X02261Y03681D03*
X02297D03*
X03313Y01732D03*
X03348D03*
X03422Y03991D03*
X03457D03*
G54D24*
X02391Y04383D03*
X02425Y04325D03*
X02567Y04485D03*
X026Y04427D03*
G54D25*
X03369Y02034D03*
Y0205D03*
X03283Y01877D03*
X03369D03*
X03283Y01892D03*
X03369D03*
X03283Y01908D03*
X03369D03*
X03283Y01924D03*
X03369D03*
X03283Y0194D03*
X03369D03*
X03283Y01955D03*
X03369D03*
X03283Y01971D03*
X03369D03*
X03283Y01987D03*
X03369D03*
X03283Y02003D03*
X03369D03*
X03283Y02018D03*
X03369D03*
X03283Y02034D03*
Y0205D03*
Y02066D03*
X03369D03*
X03283Y02081D03*
X03369D03*
X03283Y02097D03*
X03369D03*
X03283Y02113D03*
X03369D03*
X03283Y02129D03*
X03369D03*
X03283Y02144D03*
X03369D03*
X03283Y0216D03*
X03369D03*
X03283Y02176D03*
X03369D03*
G54D26*
X0329Y01829D03*
X03363D03*
X0329Y02223D03*
X03363D03*
G54D27*
X0323Y03267D03*
X03289D03*
G54D28*
X03228Y03198D03*
Y03163D03*
X03457Y04093D03*
Y04058D03*
X03237Y0345D03*
Y03486D03*
X02813Y03111D03*
Y03075D03*
X02845Y03111D03*
Y03075D03*
G54D29*
X03409Y03176D03*
X03275D03*
G54D30*
X02751Y03259D03*
X02782D03*
X02814D03*
X02845D03*
X02877D03*
X02908D03*
X0294D03*
X02971D03*
X03003D03*
X03034D03*
X03065D03*
Y03708D03*
X03034D03*
X03003D03*
X02971D03*
X0294D03*
X02908D03*
X02877D03*
X02845D03*
X02814D03*
X02782D03*
X02751D03*
G54D31*
X03132Y03326D03*
Y03358D03*
Y03389D03*
Y03421D03*
Y03452D03*
Y03484D03*
Y03515D03*
Y03547D03*
Y03578D03*
Y0361D03*
Y03641D03*
X02684D03*
Y0361D03*
Y03578D03*
Y03547D03*
Y03515D03*
Y03484D03*
Y03452D03*
Y03421D03*
Y03389D03*
Y03358D03*
Y03326D03*
G54D32*
X02287Y01696D03*
X02313D03*
X02338D03*
Y01775D03*
X02313D03*
X02287D03*
G54D33*
X02313Y01736D03*
G54D34*
X02228Y01697D03*
Y01728D03*
X02782Y03155D03*
Y03186D03*
X02925Y0157D03*
Y01539D03*
G54D35*
X03376Y03496D03*
Y03409D03*
X03309D03*
Y03496D03*
G54D36*
X02411Y03251D03*
X0227D03*
G54D37*
X0236Y03356D03*
X02301D03*
X02321D03*
X02341D03*
X0238D03*
G54D38*
X02694Y03689D03*
X02639D03*
X03036Y03783D03*
X03091D03*
G54D39*
X03122Y0384D03*
X03043D03*
G54D40*
X02907Y03187D03*
Y03131D03*
G54D41*
X02602Y03247D03*
X02533D03*
G54D42*
X02533Y03318D03*
Y03387D03*
G54D43*
X02204Y03684D03*
Y03645D03*
Y03574D03*
Y03535D03*
G54D44*
X03407Y04077D03*
X03427Y04059D03*
G54D45*
X03408Y04058D03*
X03426Y04078D03*
G54D46*
X0234Y01873D03*
X0227D03*
G54D47*
X02429Y01492D03*
X02673D03*
G54D48*
X03075Y01543D03*
X03121Y01529D03*
Y01557D03*
G54D87*
X0303Y01413D03*
X02497Y03546D03*
X0333Y02025D03*
X03172Y02116D03*
X02782Y03623D03*
X02744Y03641D03*
X0303Y01501D03*
X02677Y04488D03*
X02815D03*
X02696Y02854D03*
Y02716D03*
Y02421D03*
X02501Y03316D03*
X02421Y03342D03*
X02793Y03405D03*
X0289D03*
X02758Y034D03*
X02852Y03995D03*
X02789D03*
X02979Y03782D03*
X0273Y03992D03*
X02608Y03688D03*
X02602Y03755D03*
X02695Y03722D03*
X0293Y03582D03*
X02961Y03587D03*
X02835Y03613D03*
X02727Y03186D03*
X02753D03*
X02244Y03818D03*
X02539Y03996D03*
X02677Y0435D03*
X02815D03*
X02677Y04212D03*
X02815D03*
X03287Y03779D03*
X03425D03*
X03287Y03641D03*
X03425D03*
X03019Y04189D03*
X03157D03*
X03019Y04051D03*
X03157D03*
X03326Y01476D03*
X03248Y02716D03*
Y02854D03*
Y02992D03*
X02559D03*
X02834Y02716D03*
X02421Y02559D03*
X02559D03*
Y02854D03*
Y02716D03*
X02421Y01866D03*
X02696Y02283D03*
X02421Y01728D03*
X02696Y02145D03*
X02834D03*
X02696Y02007D03*
X02834D03*
X02421Y02145D03*
X02559D03*
X02421Y02007D03*
X02559D03*
Y02283D03*
X02421D03*
X02559Y02421D03*
X02421D03*
X03232Y01429D03*
Y01393D03*
Y01354D03*
X03424Y03891D03*
X03382Y04078D03*
X03456Y04126D03*
X03457Y03959D03*
X03426Y04115D03*
X03098Y0372D03*
X03173Y01838D03*
X0333Y03594D03*
X03396Y0355D03*
X03417Y03511D03*
Y0348D03*
X03409Y03122D03*
Y03228D03*
X03291Y0335D03*
X03267Y03425D03*
X03311Y02049D03*
X03327Y0194D03*
X03328Y01993D03*
X03311Y02111D03*
Y02081D03*
X03255Y02129D03*
X03342Y01893D03*
X0334Y01964D03*
X02917Y04141D03*
X02886Y03925D03*
X03397Y01984D03*
Y01956D03*
X03098Y03692D03*
X02289Y03625D03*
X03362Y01803D03*
X0305Y01542D03*
X02661Y03248D03*
X02944Y03133D03*
X02909Y03098D03*
X02692Y03248D03*
X0259Y03288D03*
X02534Y03282D03*
X02938Y03033D03*
X03123Y03905D03*
X03096D03*
Y03933D03*
X03123D03*
X02743Y03608D03*
X02753Y03154D03*
X03027Y0335D03*
X03074Y03389D03*
X03153Y04007D03*
X03397Y02011D03*
X03143Y01798D03*
X0309Y01775D03*
X03118D03*
X02417Y03696D03*
X0248Y037D03*
X02543D03*
X02259Y02555D03*
X02342D03*
X02925Y01598D03*
X03345Y01855D03*
X03348Y01763D03*
X0283Y02358D03*
X03228Y03133D03*
X02803Y02429D03*
X02866Y02381D03*
X02834Y02405D03*
X03059Y02645D03*
X03011Y02511D03*
X03082Y02622D03*
X03035Y02488D03*
X03397Y01929D03*
X03173Y02035D03*
X03149Y02803D03*
X02964Y0248D03*
X03043Y01889D03*
X03149Y02066D03*
X02586Y03484D03*
X02563Y03456D03*
X02893Y01992D03*
X02771Y03775D03*
X02814Y03771D03*
X02362Y03322D03*
X02878Y03771D03*
X02299Y03275D03*
X02366Y03255D03*
X03094Y01878D03*
X02929Y03421D03*
X03003Y03196D03*
X03035D03*
X0294Y03323D03*
X03067Y03196D03*
X03135Y02102D03*
X03122Y02043D03*
X0309D03*
X03208Y037D03*
X03145D03*
X02602Y03815D03*
X02917Y04047D03*
X02437Y04401D03*
X02354Y04354D03*
X02527Y04456D03*
X02614Y04503D03*
X03007Y04429D03*
X03047D03*
X03086D03*
X03279D03*
X03315D03*
X0335D03*
X03126Y01878D03*
X03118Y0161D03*
X0309D03*
X03339Y02105D03*
X03236Y03862D03*
X02862Y0333D03*
X0235Y03393D03*
X02244Y03279D03*
X02492Y01397D03*
X02464D03*
X02519D03*
X02464Y01425D03*
X02437D03*
X02409D03*
X02519D03*
X02492D03*
X02519Y01507D03*
Y0148D03*
Y01452D03*
X02338Y01492D03*
Y01519D03*
X02311D03*
X02194Y01737D03*
X02227Y0176D03*
X02236Y01878D03*
X02208D03*
Y0185D03*
X02236D03*
Y01822D03*
X02208D03*
X03503Y02063D03*
X03444Y02118D03*
X03425Y02173D03*
X03397D03*
Y02228D03*
Y022D03*
X03338Y02173D03*
X03425Y022D03*
Y02228D03*
X03338Y022D03*
X03366D03*
X03338Y02145D03*
X03341Y02066D03*
X02811Y01417D03*
X02783Y01393D03*
X02755Y01417D03*
X02492Y0148D03*
Y01507D03*
Y01452D03*
X02366Y01464D03*
Y01492D03*
Y01519D03*
X02259Y01737D03*
X02374Y01858D03*
Y01889D03*
X02342Y01818D03*
X02378Y01657D03*
X02328Y01736D03*
X02297D03*
X02275Y03381D03*
X02248D03*
Y03354D03*
X02275D03*
X03204Y03418D03*
X03072Y0342D03*
X03267Y0337D03*
Y03397D03*
X02582Y03358D03*
X02625Y03609D03*
X03206Y02215D03*
Y02188D03*
X03234D03*
Y02215D03*
G54D88*
X03381Y02275D03*
X02279Y01573D03*
X0322Y02275D03*
G54D89*
X03111Y01351D02*
X03119Y01343D01*
X03099Y01351D02*
Y01359D01*
X03078Y01355D02*
Y01453D01*
X03078Y01457D02*
X03078Y01457D01*
X0288Y01351D02*
X03099D01*
X02859D02*
X0288D01*
Y01457D02*
X02881Y01457D01*
X0288Y01351D02*
Y01457D01*
X02859Y01351D02*
Y01359D01*
X03099Y01351D02*
X03111D01*
G54D90*
X03031Y01413D02*
Y01501D01*
X0303Y01413D02*
X03031Y01413D01*
X02261Y02554D02*
X02262Y02555D01*
X02299*
X02341D02*
X02342Y02554D01*
X02299Y02555D02*
X02341D01*
X02194Y01737D02*
X02236D01*
X02236Y01737*
X0224Y01737D02*
X02259D01*
X02295D02*
X02295Y01736D01*
X02259Y01737D02*
X02295D01*
X0303Y01501D02*
X03031Y01501D01*
X02374Y01653D02*
X02378Y01657D01*
X02347Y01653D02*
X02374D01*
X02909Y03133D02*
X02944D01*
X02907Y03131D02*
X02909Y03133D01*
X02907Y03131D02*
X02909Y03129D01*
Y03102D02*
Y03129D01*
X02602Y03247D02*
X02665D01*
Y03248D02*
X02689D01*
X02883Y03137D02*
X02905D01*
X02869Y03151D02*
Y03204D01*
Y03151D02*
X02883Y03137D01*
X02869Y03204D02*
X02875Y03211D01*
Y03258*
X02877Y03259*
X02906Y0319D02*
X02908Y03192D01*
Y03259*
G54D91*
X03306Y01987D02*
Y02035D01*
X03308Y02037*
G54D92*
X0335Y02025D02*
Y02041D01*
X03345Y02047D02*
X0335Y02041D01*
Y02025D02*
X03356Y02019D01*
X03366*
X03367Y02019*
G54D93*
X0333Y02025D02*
X03353Y02003D01*
X03369Y02018D02*
X03398D01*
X03396Y01844D02*
Y01882D01*
X03343Y01892D02*
X03386D01*
X03396Y01882*
X03382Y0183D02*
X03396Y01844D01*
X03283Y0216D02*
Y02176D01*
X03043Y03472D02*
Y03558D01*
X03091Y03607D02*
X03129D01*
X03132Y0361*
X03043Y03558D02*
X03091Y03607D01*
X02567Y01723D02*
X03313D01*
X02515Y01775D02*
X02567Y01723D01*
X02338Y01775D02*
X02515D01*
X03313Y01723D02*
Y01732D01*
X03457Y03959D02*
Y03991D01*
X03423Y03892D02*
Y0399D01*
Y03892D02*
X03424Y03891D01*
X03422Y03991D02*
X03423Y0399D01*
X03382Y04078D02*
X03383Y04077D01*
X03407*
X03456Y04126D02*
X03456Y04125D01*
Y04094D02*
Y04125D01*
Y04094D02*
X03457Y04093D01*
X03426Y04078D02*
Y04114D01*
X03201Y0209D02*
X0321Y02081D01*
X03283*
Y0205D02*
X03309D01*
X03203D02*
X03283D01*
X03309D02*
X03311Y02049D01*
X03312Y01924D02*
X03327Y0194D01*
X03328Y01993D02*
X03331D01*
X03353Y02003D02*
X03369D01*
X03331Y01993D02*
X03337Y01987D01*
X03369*
X03256Y02129D02*
X03283D01*
Y02113D02*
X03308D01*
X03283Y02081D02*
X0331D01*
X03255Y02129D02*
X03256Y02129D01*
X03283Y01924D02*
X03312D01*
X03342Y01893D02*
X03343Y01892D01*
X02425Y04325D02*
X0243Y04344D01*
X02582Y04432D02*
X026Y04427D01*
X0243Y04344D02*
X02582Y04432D01*
X02992Y03421D02*
X03043Y03472D01*
X03341Y02066D02*
X03369D01*
X03499D02*
X03503Y02063D01*
X03369Y02066D02*
X03499D01*
X03365Y01955D02*
X03369D01*
Y01971D02*
X03389D01*
X03395Y01978D02*
Y01982D01*
X03397Y01984*
X03362Y01963D02*
X03364Y0196D01*
Y01957D02*
X03365Y01955D01*
X03364Y01957D02*
Y0196D01*
X03362Y01963D02*
Y01964D01*
X03362Y01964*
X03369Y01955D02*
X03396D01*
X03397Y01956*
X03362Y01964D02*
X03369Y01971D01*
X03395Y02011D02*
X03397D01*
X03283Y01987D02*
X03301D01*
X03369Y01924D02*
X03392D01*
X0259Y03288D02*
X02592Y03286D01*
X02751Y03259D02*
Y03278D01*
X02592Y03286D02*
X02743D01*
X02751Y03278*
X03456Y04059D02*
X03457Y04058D01*
X03427Y04059D02*
X03456D01*
X03348Y01732D02*
D01*
Y01763D02*
D01*
X03189Y02035D02*
X03203Y0205D01*
X03173Y02035D02*
X03189D01*
X03311Y02049D02*
X03324D01*
X03341Y02066*
X03326Y02081D02*
X03341Y02066D01*
X03311Y02081D02*
X03326D01*
X03314Y02111D02*
X03319Y02105D01*
X03342*
X03311Y02111D02*
X03314D01*
X03283Y02129D02*
Y02144D01*
Y02113D02*
Y02129D01*
X03308Y02113D02*
X03311Y02111D01*
X0331Y02081D02*
X03311Y02081D01*
X02929Y03421D02*
X02992D01*
X03264Y02066D02*
X03283D01*
X03236Y0359D02*
Y03862D01*
X03131Y03546D02*
X03132Y03547D01*
X03192D02*
X03236Y0359D01*
X03342Y02105D02*
X0335Y02113D01*
X0344*
X03265Y02097D02*
X03265Y02097D01*
X03283*
X03132Y03547D02*
X03192D01*
X03326Y02132D02*
X0333Y02129D01*
X03369*
X03419D02*
X03429Y02138D01*
X03369Y02129D02*
X03419D01*
X0344Y02113D02*
X03444Y02118D01*
X0244Y04317D02*
X02441Y04315D01*
G54D94*
X03172Y02116D02*
X0321D01*
X0274Y03515D02*
X02782Y03557D01*
Y03623*
X0236Y03322D02*
X02361Y03321D01*
X0236Y03322D02*
Y03356D01*
X02257Y03685D02*
X02261Y03681D01*
X02204Y03685D02*
X02257D01*
X02204Y03646D02*
D01*
Y03574D02*
Y03646D01*
X02835Y03544D02*
Y03613D01*
X02775Y03484D02*
X02835Y03544D01*
X02561Y03624D02*
X02579Y03641D01*
X02684*
X02424Y03624D02*
X02561D01*
X02374Y03574D02*
X02424Y03624D01*
X02204Y03574D02*
X02374D01*
X03149Y02066D02*
X0315Y02066D01*
X03264*
X0321Y02116D02*
X03228Y02097D01*
X03263*
X02684Y03484D02*
X02775D01*
X02684Y03515D02*
X0274D01*
X0236Y03356D02*
Y03381D01*
X0235Y03392D02*
X0236Y03381D01*
X0235Y03392D02*
Y03393D01*
X02321Y03356D02*
Y03415D01*
X02484Y03578D02*
X02684D01*
X02321Y03415D02*
X02484Y03578D01*
X0238Y03356D02*
Y03384D01*
X02543Y03547D02*
X02684D01*
X0238Y03384D02*
X02543Y03547D01*
X03342Y02223D02*
X03343Y02222D01*
X0329Y02223D02*
X03342D01*
X02204Y03574D02*
X02204Y03574D01*
G54D95*
X02684Y03641D02*
X02744D01*
X02727Y03186D02*
X02782D01*
Y03186*
X02694Y03642D02*
Y03689D01*
X02781Y03193D02*
X02782Y03194D01*
X0294Y03323D02*
X02966Y0335D01*
X03027*
X03035*
X03074Y03389*
X03132*
X03204Y03418D02*
D01*
X0318Y03389D02*
X03199D01*
X03204D02*
Y03418D01*
X02612Y03326D02*
X02684D01*
X02611Y03389D02*
D01*
X02684*
X0318D02*
X0318D01*
X03132D02*
X0318D01*
X02782Y03194D02*
Y03259D01*
G54D96*
X02227Y01737D02*
Y0176D01*
X02501Y03316D02*
X02529D01*
X02533Y03281D02*
X02534Y03282D01*
X02532Y0328D02*
X02533Y03281D01*
X0305Y01542D02*
X03075D01*
X02531Y03316D02*
X02533Y03318D01*
G54D97*
X03363Y018D02*
Y01829D01*
X03362Y018D02*
X03363Y018D01*
G54D98*
X02533Y03282D02*
Y03318D01*
Y03247D02*
Y03281D01*
X02535Y03389D02*
X02568D01*
X02533Y03387D02*
X02535Y03389D01*
G54D99*
X02566Y03326D02*
X0258D01*
G54D100*
X03426Y04115D02*
X03426Y04114D01*
G54D101*
X03389Y01971D02*
X03395Y01978D01*
G54D102*
X02986Y01547D02*
X03024D01*
X03043Y01565D02*
X03085D01*
X03024Y01547D02*
X03043Y01565D01*
X0299Y01539D02*
X03024D01*
X03043Y0152D02*
X03085D01*
X03024Y01539D02*
X03043Y0152D01*
X03103Y01547D02*
X03113D01*
X03116Y01552D02*
X0312Y01557D01*
X03113Y01539D02*
X03116Y01536D01*
Y01533D02*
Y01536D01*
X03085Y01565D02*
X03103Y01547D01*
X03116Y0155D02*
Y01552D01*
X03113Y01547D02*
X03116Y0155D01*
X03085Y0152D02*
X03104Y01539D01*
X03113*
X03116Y01533D02*
X0312Y01529D01*
Y01557D02*
X03121D01*
Y01529D02*
X0313Y01539D01*
X0312Y01529D02*
X03121D01*
X02962Y01523D02*
X02986Y01547D01*
X02971Y0152D02*
X0299Y01539D01*
X03488Y01669D02*
Y02027D01*
X0348Y01673D02*
Y02024D01*
X03466Y02038D02*
X0348Y02024D01*
X03384Y02038D02*
X03466D01*
X03469Y02046D02*
X03488Y02027D01*
X03384Y02046D02*
X03469D01*
X03357Y01539D02*
X03488Y01669D01*
X03354Y01547D02*
X0348Y01673D01*
X03488Y02105D02*
Y02376D01*
X0348Y02108D02*
Y02372D01*
X03386Y02094D02*
X03465D01*
X03468Y02085D02*
X03488Y02105D01*
X03386Y02085D02*
X03468D01*
X03465Y02094D02*
X0348Y02108D01*
X03121Y01557D02*
X0313Y01547D01*
X02954Y01457D02*
X02959Y01463D01*
Y01486*
X02962Y01489D02*
Y01523D01*
X02959Y01486D02*
X02962Y01489D01*
X02974Y01463D02*
X02979Y01457D01*
X02974Y01463D02*
Y01486D01*
X02971Y01489D02*
X02974Y01486D01*
X02971Y01489D02*
Y0152D01*
X0338Y02034D02*
X03384Y02038D01*
X03369Y02034D02*
X0338D01*
X0313Y01547D02*
X03354D01*
X03369Y0205D02*
X0338D01*
X03384Y02046*
X0313Y01539D02*
X03357D01*
X02833Y03031D02*
Y03063D01*
Y03031D02*
X03488Y02376D01*
X02833Y03063D02*
X02837Y03067D01*
Y03068D02*
X02845Y03075D01*
X02845*
X02837Y03067D02*
Y03068D01*
X02813Y03075D02*
X02814D01*
X02821Y03067D02*
Y03068D01*
X02825Y03027D02*
Y03063D01*
X02814Y03075D02*
X02821Y03068D01*
Y03067D02*
X02825Y03063D01*
Y03027D02*
X0348Y02372D01*
X03382Y02081D02*
X03386Y02085D01*
X03369Y02081D02*
X03382D01*
X03383Y02097D02*
X03386Y02094D01*
X03369Y02097D02*
X03383D01*
X02837Y03118D02*
X02845Y03111D01*
X02833Y03123D02*
X02837Y03119D01*
X02845Y03111D02*
X02845D01*
X02837Y03118D02*
Y03119D01*
X02833Y03123D02*
Y0322D01*
X02813Y03111D02*
X02814D01*
X02821Y03118D02*
Y03119D01*
X02825Y03123D02*
Y03219D01*
X02814Y03111D02*
X02821Y03118D01*
Y03119D02*
X02825Y03123D01*
X02833Y0322D02*
X02845Y03231D01*
Y03259*
X02814Y03231D02*
Y03259D01*
Y03231D02*
X02825Y03219D01*
G54D103*
X03232Y03202D02*
Y03346D01*
X03205Y03372D02*
X03232Y03346D01*
X03205Y03372D02*
Y03388D01*
X03206Y03389*
X03288Y03267D02*
X03289D01*
X03283Y03184D02*
Y03262D01*
X03288Y03267*
X03262Y03163D02*
X03283Y03184D01*
X03228Y03198D02*
X03232Y03202D01*
X03192Y03173D02*
Y03343D01*
X03178Y03357D02*
X03192Y03343D01*
Y03173D02*
X03203Y03163D01*
X03228*
X03228Y03134D02*
Y03163D01*
X03228Y03163D02*
X03228Y03163D01*
X03228Y03133D02*
X03228Y03134D01*
X03228Y03163D02*
X03262D01*
X03133Y03357D02*
X03178D01*
X03132Y03358D02*
X03133Y03357D01*
X02312Y01653D02*
X02313Y01654D01*
Y01696*
G54D104*
X02313Y01775D02*
Y0182D01*
X02312Y01737D02*
X02313Y01738D01*
Y01775*
Y0182D02*
D01*
X02287Y01673D02*
Y01696D01*
Y01775D02*
Y01791D01*
X0228Y01818D02*
X02284Y01815D01*
Y01794D02*
X02287Y01791D01*
X02279Y01818D02*
X0228D01*
X02284Y01794D02*
Y01815D01*
G54D105*
X02533Y03247D02*
X02602D01*
X02533Y03318D02*
Y03387D01*
G54D106*
X02881Y01457D03*
X03078D03*
G54D107*
X02842Y01351D03*
X03117D03*
G54D108*
X02468Y04183D03*
X03422Y04205D03*
Y01408D03*
X02261Y02263D03*
G54D109*
X02469Y04451D03*
X02522Y04359D03*
M02*