%FSTAX23Y23*%
%MOIN*%
%SFA1B1*%

%IPPOS*%
%ADD13C,0.005900*%
%LNright_board-1*%
%LPD*%
G54D13*
X02448Y01216D02*
D01*
X02448Y01214*
X02448Y01211*
X02449Y01208*
X0245Y01206*
X02451Y01203*
X02452Y01201*
X02453Y01198*
X02455Y01196*
X02456Y01194*
X02458Y01192*
X0246Y0119*
X02462Y01188*
X02464Y01186*
X02467Y01185*
X02469Y01183*
X02472Y01182*
X02474Y01181*
X02477Y01181*
X02479Y0118*
X02482Y0118*
X02485Y01179*
X02485Y01179*
X02466Y02087D02*
D01*
X02464Y02086*
X02462Y02086*
X02461Y02085*
X02459Y02084*
X02458Y02083*
X02457Y02083*
X02455Y02081*
X02454Y0208*
X02453Y02079*
X02452Y02078*
X02451Y02076*
X0245Y02075*
X0245Y02073*
X02449Y02072*
X02448Y0207*
X02448Y02069*
X02448Y02067*
X02448Y02065*
X02448Y02065*
X02466Y02087D02*
D01*
X02473Y0209*
X02481Y02093*
X02488Y02097*
X02495Y02102*
X02502Y02107*
X02508Y02112*
X02514Y02118*
X02519Y02124*
X02524Y0213*
X02529Y02137*
X02533Y02145*
X02536Y02152*
X02539Y0216*
X02542Y02168*
X02544Y02176*
X02545Y02184*
X02546Y02192*
X02546Y022*
X02546Y02208*
X02545Y02217*
X02543Y02225*
X02541Y02233*
X02539Y0224*
X02535Y02248*
X02532Y02255*
X02527Y02263*
X02523Y02269*
X02518Y02276*
X02512Y02282*
X02506Y02288*
X025Y02293*
X02493Y02298*
X02486Y02302*
X02479Y02306*
X02471Y02309*
X02464Y02311*
X02448Y02333D02*
D01*
X02448Y02331*
X02448Y0233*
X02448Y02328*
X02449Y02326*
X02449Y02325*
X0245Y02323*
X02451Y02322*
X02452Y0232*
X02453Y02319*
X02454Y02318*
X02455Y02317*
X02456Y02316*
X02458Y02315*
X02459Y02314*
X02461Y02313*
X02462Y02312*
X02464Y02312*
X02464Y02312*
X0247Y03935D02*
D01*
X02468Y03935*
X02467Y03935*
X02465Y03934*
X02463Y03934*
X02462Y03933*
X0246Y03933*
X02459Y03932*
X02458Y03931*
X02456Y0393*
X02455Y03929*
X02454Y03928*
X02453Y03926*
X02452Y03925*
X02451Y03924*
X0245Y03922*
X02449Y03921*
X02449Y03919*
X02448Y03917*
X02448Y03916*
X02448Y03914*
X02447Y03912*
X02448Y03912*
X02522Y03935D02*
D01*
X02531Y03936*
X02539Y03937*
X02547Y03938*
X02555Y0394*
X02563Y03943*
X0257Y03946*
X02578Y0395*
X02585Y03954*
X02592Y03958*
X02598Y03964*
X02604Y03969*
X0261Y03975*
X02615Y03981*
X0262Y03988*
X02624Y03995*
X02628Y04003*
X02631Y0401*
X02634Y04018*
X02636Y04026*
X02638Y04034*
X02639Y04042*
X02639Y0405*
X02639Y04059*
X02639Y04067*
X02637Y04075*
X02636Y04083*
X02633Y04091*
X0263Y04099*
X02627Y04106*
X02623Y04113*
X02619Y0412*
X02614Y04127*
X02608Y04133*
X02603Y04139*
X02596Y04144*
X0259Y04149*
X02583Y04154*
X02576Y04158*
X02568Y04162*
X02561Y04165*
X02553Y04167*
X02545Y04169*
X02537Y0417*
X02528Y04171*
X02521Y04171*
X02448Y04194D02*
D01*
X02448Y04192*
X02448Y04191*
X02448Y04189*
X02449Y04187*
X02449Y04186*
X0245Y04184*
X02451Y04183*
X02452Y04181*
X02453Y0418*
X02454Y04179*
X02455Y04178*
X02456Y04177*
X02458Y04176*
X02459Y04175*
X02461Y04174*
X02462Y04173*
X02464Y04173*
X02465Y04172*
X02467Y04172*
X02468Y04172*
X0247Y04171*
X0247Y04171*
X02485Y04408D02*
D01*
X02482Y04407*
X02479Y04407*
X02477Y04406*
X02474Y04405*
X02471Y04404*
X02469Y04403*
X02467Y04402*
X02464Y044*
X02462Y04399*
X0246Y04397*
X02458Y04395*
X02456Y04393*
X02455Y04391*
X02453Y04388*
X02452Y04386*
X02451Y04384*
X0245Y04381*
X02449Y04378*
X02448Y04376*
X02448Y04373*
X02448Y0437*
X02448Y0437*
X0344Y04393D02*
D01*
X03434Y04396*
X03428Y04399*
X03422Y04402*
X03415Y04404*
X03408Y04406*
X03402Y04407*
X03395Y04408*
X03388Y04408*
X03381Y04408*
X03379Y04408*
X03638Y04231D02*
D01*
X03638Y04237*
X03637Y04242*
X03637Y04248*
X03635Y04253*
X03634Y04258*
X03632Y04264*
X0363Y04269*
X03627Y04273*
X03624Y04278*
X03621Y04283*
X03617Y04287*
X03613Y04291*
X03609Y04294*
X03604Y04298*
X03601Y043*
X03617Y04017D02*
D01*
X03622Y04025*
X03626Y04033*
X03629Y04041*
X03632Y0405*
X03635Y04059*
X03636Y04068*
X03637Y04077*
X03638Y04086*
X03638Y04089*
X03602Y0399D02*
D01*
X03598Y03983*
X03595Y03975*
X03592Y03967*
X0359Y03959*
X03588Y03951*
X03587Y03943*
X03587Y03935*
X03587Y03926*
X03588Y03918*
X03589Y0391*
X03591Y03902*
X03593Y03894*
X03596Y03886*
X036Y03879*
X03604Y03872*
X03608Y03865*
X03613Y03858*
X03619Y03852*
X03625Y03846*
X03631Y03841*
X03637Y03836*
X03644Y03831*
X03651Y03827*
X03659Y03824*
X03667Y03821*
X03674Y03819*
X03683Y03817*
X03691Y03815*
X03699Y03815*
X03707Y03814*
X03708Y03815*
X03814Y03758D02*
D01*
X03814Y03762*
X03813Y03766*
X03812Y0377*
X03812Y03773*
X0381Y03777*
X03809Y03781*
X03807Y03784*
X03805Y03788*
X03803Y03791*
X038Y03794*
X03798Y03797*
X03795Y038*
X03792Y03802*
X03789Y03805*
X03785Y03807*
X03782Y03809*
X03778Y0381*
X03775Y03812*
X03771Y03813*
X03767Y03814*
X03763Y03814*
X03759Y03814*
X03757Y03814*
X03763Y03581D02*
D01*
X03767Y03581*
X0377Y03582*
X03774Y03582*
X03777Y03583*
X03781Y03584*
X03784Y03585*
X03787Y03587*
X0379Y03589*
X03793Y03591*
X03796Y03593*
X03798Y03595*
X03801Y03598*
X03803Y036*
X03805Y03603*
X03807Y03606*
X03808Y03609*
X0381Y03612*
X03811Y03616*
X03812Y03619*
X03813Y03622*
X03813Y03626*
X03813Y03629*
X03813Y03631*
X03543Y03581D02*
D01*
X03539Y03581*
X03536Y03581*
X03532Y0358*
X03529Y03579*
X03525Y03578*
X03522Y03577*
X03519Y03575*
X03516Y03574*
X03513Y03572*
X0351Y03569*
X03508Y03567*
X03505Y03565*
X03503Y03562*
X03501Y03559*
X03499Y03556*
X03498Y03553*
X03496Y0355*
X03495Y03547*
X03494Y03543*
X03493Y0354*
X03493Y03536*
X03493Y03533*
X03493Y03531*
Y03202D02*
D01*
X03493Y03198*
X03493Y03195*
X03494Y03191*
X03494Y03188*
X03496Y03185*
X03497Y03181*
X03498Y03178*
X035Y03175*
X03502Y03172*
X03504Y0317*
X03507Y03167*
X03509Y03165*
X03512Y03162*
X03515Y0316*
X03518Y03158*
X03521Y03157*
X03524Y03155*
X03527Y03154*
X0353Y03153*
X03534Y03153*
X03537Y03152*
X03541Y03152*
X03543Y03152*
X03813Y03129D02*
D01*
X03813Y03131*
X03813Y03132*
X03813Y03134*
X03812Y03136*
X03812Y03137*
X03811Y03139*
X03811Y0314*
X0381Y03141*
X03809Y03143*
X03808Y03144*
X03807Y03145*
X03806Y03146*
X03805Y03147*
X03803Y03148*
X03802Y03149*
X038Y0315*
X03799Y0315*
X03798Y03151*
X03796Y03151*
X03794Y03151*
X03793Y03152*
X03791Y03152*
X03791Y03152*
X03273Y01179D02*
D01*
X0331Y0118*
X03347Y01183*
X03384Y01189*
X0342Y01198*
X03455Y01209*
X0349Y01222*
X03524Y01238*
X03556Y01257*
X03587Y01277*
X03617Y01299*
X03645Y01324*
X03671Y0135*
X03696Y01379*
X03718Y01408*
X03738Y0144*
X03756Y01472*
X03771Y01506*
X03785Y01541*
X03795Y01577*
X03804Y01613*
X03809Y0165*
X03812Y01687*
X03813Y0171*
X03731Y02035D02*
D01*
X03737Y02035*
X03743Y02036*
X03749Y02037*
X03754Y02039*
X0376Y02041*
X03765Y02043*
X0377Y02046*
X03775Y02049*
X0378Y02052*
X03784Y02056*
X03789Y0206*
X03793Y02065*
X03796Y02069*
X03799Y02074*
X03802Y02079*
X03805Y02085*
X03807Y0209*
X03809Y02096*
X0381Y02101*
X03811Y02107*
X03812Y02113*
X03812Y02118*
X03731Y02035D02*
D01*
X03723Y02034*
X03715Y02033*
X03707Y02031*
X03699Y02028*
X03691Y02025*
X03684Y02022*
X03677Y02018*
X0367Y02013*
X03663Y02008*
X03657Y02003*
X03651Y01997*
X03646Y01991*
X03641Y01984*
X03636Y01977*
X03632Y0197*
X03629Y01963*
X03626Y01955*
X03624Y01947*
X03622Y01939*
X0362Y01931*
X0362Y01923*
X0362Y01915*
X0362Y01906*
X03621Y01898*
X03623Y0189*
X03625Y01882*
X03627Y01874*
X03631Y01867*
X03634Y01859*
X03639Y01852*
X03643Y01846*
X03649Y01839*
X03654Y01833*
X0366Y01828*
X03667Y01822*
X03673Y01818*
X0368Y01813*
X03688Y0181*
X03695Y01806*
X03703Y01804*
X03711Y01802*
X03719Y018*
X03727Y01799*
X03731Y01799*
X03813Y0171D02*
D01*
X03813Y01716*
X03812Y01722*
X03811Y01728*
X0381Y01734*
X03808Y0174*
X03806Y01746*
X03803Y01751*
X038Y01757*
X03797Y01762*
X03793Y01767*
X03789Y01771*
X03785Y01776*
X0378Y0178*
X03775Y01783*
X0377Y01787*
X03764Y0179*
X03759Y01792*
X03753Y01794*
X03747Y01796*
X03741Y01797*
X03735Y01798*
X03731Y01799*
X02485Y01179D02*
X03273D01*
X02448Y01217D02*
Y02065D01*
X02448Y02333D02*
Y03912D01*
X0247Y03935D02*
X02522D01*
X0247Y04171D02*
X02521D01*
X02448Y04194D02*
Y0437D01*
X02485Y04408D02*
X03285D01*
X03379*
X0344Y04393D02*
X03601Y043D01*
X03638Y04089D02*
Y04231D01*
X03602Y0399D02*
X03617Y04017D01*
X03708Y03814D02*
X03757D01*
X03813Y03631D02*
X03814Y03758D01*
X03543Y03581D02*
X03763D01*
X03493Y03202D02*
Y03531D01*
X03543Y03152D02*
X03791D01*
X03812Y02118D02*
X03813Y03129D01*
M02*