%FSTAX23Y23*%
%MOIN*%
%SFA1B1*%

%IPPOS*%
%ADD11C,0.003900*%
%ADD12C,0.007900*%
%ADD13C,0.005900*%
%ADD15C,0.005100*%
%ADD16C,0.006000*%
%ADD107C,0.010000*%
%LNright_board-1*%
%LPD*%
G54D11*
X03332Y04322D02*
D01*
X03332Y04322*
X03332Y04321*
X03332Y04321*
X03332Y04321*
X03332Y04321*
X03332Y04321*
X03332Y04321*
X03332Y04321*
X03332Y04321*
X03332Y0432*
X03332Y0432*
X03332Y0432*
X03332Y0432*
X03332Y0432*
X03332Y0432*
X03332Y0432*
X03332Y04319*
X03333Y04319*
X03333Y04319*
X03333Y04319*
X03333Y04319*
X03333Y04319*
X03333Y04319*
X03333Y04319*
X03333Y04319*
X03333Y04319*
X03334Y04319*
X03334Y04319*
X03334Y04319*
X03334Y04319*
X03334Y04319*
X03334Y04319*
X03334Y04319*
X03335Y04319*
X03335Y04319*
X03335Y04319*
X03335Y04319*
X03335Y04319*
X03335Y04319*
X03335Y04319*
X03335Y04319*
X03335Y04319*
X03336Y04319*
X03336Y0432*
X03336Y0432*
Y0432*
D01*
X03336Y0432*
X03336Y0432*
X03336Y0432*
X03336Y0432*
X03336Y0432*
X03336Y04321*
X03336Y04321*
X03336Y04321*
X03336Y04321*
X03336Y04321*
X03336Y04321*
X03336Y04321*
X03336Y04322*
X03336Y04322*
X03336Y04322*
X03336Y04322*
X03336Y04322*
X03335Y04322*
X03335Y04322*
X03335Y04322*
X03335Y04322*
X03335Y04322*
X03335Y04323*
X03335Y04323*
X03335Y04323*
X03335Y04323*
X03334Y04323*
X03334Y04323*
X03334Y04323*
X03334Y04323*
X03334Y04323*
X03334Y04323*
X03334Y04323*
X03333Y04323*
X03333Y04323*
X03333Y04323*
X03333Y04323*
X03333Y04322*
X03333Y04322*
X03333Y04322*
X03333Y04322*
X03333Y04322*
X03332Y04322*
X03332Y04322*
X03332Y04322*
Y04322*
D01*
X03332Y04322*
X03332Y04321*
X03332Y04321*
X03332Y04321*
X03332Y04321*
X03332Y04321*
X03332Y04321*
X03332Y04321*
X03332Y04321*
X03332Y0432*
X03332Y0432*
X03332Y0432*
X03332Y0432*
X03332Y0432*
X03332Y0432*
X03332Y0432*
X03332Y04319*
X03333Y04319*
X03333Y04319*
X03333Y04319*
X03333Y04319*
X03333Y04319*
X03333Y04319*
X03333Y04319*
X03333Y04319*
X03333Y04319*
X03334Y04319*
X03334Y04319*
X03334Y04319*
X03334Y04319*
X03334Y04319*
X03334Y04319*
X03334Y04319*
X03335Y04319*
X03335Y04319*
X03335Y04319*
X03335Y04319*
X03335Y04319*
X03335Y04319*
X03335Y04319*
X03335Y04319*
X03335Y04319*
X03336Y04319*
X03336Y0432*
X03336Y0432*
Y0432*
D01*
X03336Y0432*
X03336Y0432*
X03336Y0432*
X03336Y0432*
X03336Y0432*
X03336Y04321*
X03336Y04321*
X03336Y04321*
X03336Y04321*
X03336Y04321*
X03336Y04321*
X03336Y04321*
X03336Y04322*
X03336Y04322*
X03336Y04322*
X03336Y04322*
X03336Y04322*
X03335Y04322*
X03335Y04322*
X03335Y04322*
X03335Y04322*
X03335Y04322*
X03335Y04323*
X03335Y04323*
X03335Y04323*
X03335Y04323*
X03334Y04323*
X03334Y04323*
X03334Y04323*
X03334Y04323*
X03334Y04323*
X03334Y04323*
X03334Y04323*
X03333Y04323*
X03333Y04323*
X03333Y04323*
X03333Y04323*
X03333Y04322*
X03333Y04322*
X03333Y04322*
X03333Y04322*
X03333Y04322*
X03332Y04322*
X03332Y04322*
X03332Y04322*
Y04322*
G54D12*
X02577Y02985D02*
D01*
X02577Y02985*
X02578Y02985*
X02578Y02985*
X02578Y02985*
X02578Y02985*
X02578Y02985*
X02578Y02985*
X02578Y02985*
X02578Y02985*
X02579Y02985*
X02579Y02985*
X02579Y02985*
X02579Y02985*
X02579Y02986*
X02579Y02986*
X02579Y02986*
X02579Y02986*
X02579Y02986*
X02579Y02986*
X02579Y02986*
X02579Y02986*
X02579Y02987*
Y02987*
X02579Y02987*
X02579Y02987*
X02579Y02987*
X02579Y02987*
X02579Y02987*
X02579Y02988*
X02579Y02988*
X02579Y02988*
X02579Y02988*
X02579Y02988*
X02579Y02988*
X02579Y02988*
X02578Y02988*
X02578Y02988*
X02578Y02988*
X02578Y02989*
X02578Y02989*
X02578Y02989*
X02578Y02989*
X02578Y02989*
X02577Y02989*
X02577Y02989*
D01*
X02577Y02989*
X02577Y02989*
X02577Y02989*
X02577Y02989*
X02577Y02989*
X02576Y02989*
X02576Y02988*
X02576Y02988*
X02576Y02988*
X02576Y02988*
X02576Y02988*
X02576Y02988*
X02576Y02988*
X02576Y02988*
X02576Y02988*
X02576Y02988*
X02575Y02987*
X02575Y02987*
X02575Y02987*
X02575Y02987*
X02575Y02987*
X02575Y02987*
Y02987*
X02575Y02986*
X02575Y02986*
X02575Y02986*
X02575Y02986*
X02575Y02986*
X02576Y02986*
X02576Y02986*
X02576Y02986*
X02576Y02985*
X02576Y02985*
X02576Y02985*
X02576Y02985*
X02576Y02985*
X02576Y02985*
X02576Y02985*
X02576Y02985*
X02577Y02985*
X02577Y02985*
X02577Y02985*
X02577Y02985*
X02577Y02985*
X02577Y02985*
D01*
X02577Y02985*
X02578Y02985*
X02578Y02985*
X02578Y02985*
X02578Y02985*
X02578Y02985*
X02578Y02985*
X02578Y02985*
X02578Y02985*
X02579Y02985*
X02579Y02985*
X02579Y02985*
X02579Y02985*
X02579Y02986*
X02579Y02986*
X02579Y02986*
X02579Y02986*
X02579Y02986*
X02579Y02986*
X02579Y02986*
X02579Y02986*
X02579Y02987*
Y02987*
X02579Y02987*
X02579Y02987*
X02579Y02987*
X02579Y02987*
X02579Y02987*
X02579Y02988*
X02579Y02988*
X02579Y02988*
X02579Y02988*
X02579Y02988*
X02579Y02988*
X02579Y02988*
X02578Y02988*
X02578Y02988*
X02578Y02988*
X02578Y02989*
X02578Y02989*
X02578Y02989*
X02578Y02989*
X02578Y02989*
X02577Y02989*
X02577Y02989*
G54D13*
X02519Y02805D02*
X02535D01*
X0254Y02672D02*
Y02695D01*
X02497D02*
Y02672D01*
G54D15*
X02532Y02763D02*
X02533Y02765D01*
X02536Y02768*
X02538Y02769*
X02543*
X02546Y02768*
X02549Y02765*
X0255Y02763*
X02551Y02759*
Y02752*
X0255Y02748*
X02549Y02746*
X02546Y02743*
X02543Y02742*
X02538*
X02536Y02743*
X02533Y02746*
X02532Y02748*
X02524Y02764D02*
X02521Y02765D01*
X02517Y02769*
Y02742*
X02502Y02763D02*
Y02764D01*
X02501Y02767*
X025Y02768*
X02497Y02769*
X02492*
X02489Y02768*
X02488Y02767*
X02487Y02764*
Y02761*
X02488Y02759*
X02491Y02755*
X02504Y02742*
X02485*
X03604Y03045D02*
X03606Y03048D01*
X03608Y0305*
X03611Y03052*
X03616*
X03619Y0305*
X03621Y03048*
X03623Y03045*
X03624Y03041*
Y03035*
X03623Y03031*
X03621Y03028*
X03619Y03025*
X03616Y03024*
X03611*
X03608Y03025*
X03606Y03028*
X03604Y03031*
X03578Y03052D02*
X03591Y03024D01*
X03597Y03052D02*
X03578D01*
G54D16*
X03481Y02476D02*
Y02449D01*
X03465*
X03445Y02476D02*
X03462D01*
Y02449*
X03445*
X03462Y02463D02*
X03452D01*
X03441Y02476D02*
Y02449D01*
Y02476D02*
X03424D01*
X03441Y02463D02*
X0343D01*
X03411Y02476D02*
Y02449D01*
X03421Y02476D02*
X03402D01*
X02896Y02476D02*
Y02449D01*
Y02476D02*
X02884D01*
X0288Y02475*
X02879Y02474*
X02878Y02471*
Y02468*
X02879Y02466*
X0288Y02465*
X02884Y02463*
X02896*
X02887D02*
X02878Y02449D01*
X02871Y02476D02*
Y02449D01*
X02846Y0247D02*
X02847Y02472D01*
X0285Y02475*
X02853Y02476*
X02858*
X0286Y02475*
X02863Y02472*
X02864Y0247*
X02866Y02466*
Y02459*
X02864Y02455*
X02863Y02453*
X0286Y0245*
X02858Y02449*
X02853*
X0285Y0245*
X02847Y02453*
X02846Y02455*
Y02459*
X02853D02*
X02846D01*
X0284Y02476D02*
Y02449D01*
X02821Y02476D02*
Y02449D01*
X0284Y02463D02*
X02821D01*
X02805Y02476D02*
Y02449D01*
X02814Y02476D02*
X02795D01*
X0274Y02876D02*
X02721Y02848D01*
Y02876D02*
X0274Y02848D01*
X02715Y0287D02*
X02712Y02872D01*
X02708Y02876*
Y02848*
X03194Y0218D02*
Y02153D01*
Y0218D02*
X03185D01*
X03181Y02179*
X03178Y02176*
X03177Y02174*
X03175Y0217*
Y02163*
X03177Y02159*
X03178Y02157*
X03181Y02154*
X03185Y02153*
X03194*
X03161Y0218D02*
X03164Y02179D01*
X03167Y02176*
X03168Y02174*
X03169Y0217*
Y02163*
X03168Y02159*
X03167Y02157*
X03164Y02154*
X03161Y02153*
X03156*
X03153Y02154*
X03151Y02157*
X03149Y02159*
X03148Y02163*
Y0217*
X03149Y02174*
X03151Y02176*
X03153Y02179*
X03156Y0218*
X03161*
X03142D02*
X03135Y02153D01*
X03129Y0218D02*
X03135Y02153D01*
X03129Y0218D02*
X03122Y02153D01*
X03116Y0218D02*
X03122Y02153D01*
X0311Y0218D02*
Y02153D01*
Y0218D02*
X03092Y02153D01*
Y0218D02*
Y02153D01*
X02834Y01481D02*
X02836Y01483D01*
X0284Y01485*
X02846*
X0285Y01483*
X02852Y01481*
Y01478*
X02851Y01476*
X0285Y01474*
X02847Y01473*
X02839Y0147*
X02836Y01469*
X02835Y01468*
X02834Y01465*
Y01461*
X02836Y01459*
X0284Y01457*
X02846*
X0285Y01459*
X02852Y01461*
X02811Y01485D02*
X02828D01*
Y01457*
X02811*
X02828Y01472D02*
X02817D01*
X02806Y01485D02*
Y01457D01*
X0279*
X0277Y01485D02*
X02787D01*
Y01457*
X0277*
X02787Y01472D02*
X02777D01*
X02746Y01478D02*
X02747Y01481D01*
X0275Y01483*
X02752Y01485*
X02758*
X0276Y01483*
X02763Y01481*
X02764Y01478*
X02766Y01474*
Y01468*
X02764Y01464*
X02763Y01461*
X0276Y01459*
X02758Y01457*
X02752*
X0275Y01459*
X02747Y01461*
X02746Y01464*
X02729Y01485D02*
Y01457D01*
X02738Y01485D02*
X0272D01*
X03165Y02772D02*
Y02752D01*
X03164Y02748*
X03161Y02746*
X03157Y02745*
X03154*
X0315Y02746*
X03148Y02748*
X03146Y02752*
Y02772*
X03139Y02758D02*
X03127D01*
X03123Y02759*
X03122Y0276*
X0312Y02763*
Y02767*
X03122Y02769*
X03123Y02771*
X03127Y02772*
X03139*
Y02745*
X02594Y02809D02*
Y02781D01*
Y02809D02*
X02582D01*
X02578Y02807*
X02577Y02806*
X02575Y02803*
Y02801*
X02577Y02798*
X02578Y02797*
X02582Y02795*
X02594*
X02585D02*
X02575Y02781D01*
X02551Y02809D02*
X02564Y02781D01*
X02569Y02809D02*
X02551D01*
X02521Y02951D02*
X02522Y02953D01*
X02525Y02956*
X02527Y02957*
X02533*
X02535Y02956*
X02538Y02953*
X02539Y02951*
X0254Y02947*
Y0294*
X02539Y02936*
X02538Y02934*
X02535Y02931*
X02533Y0293*
X02527*
X02525Y02931*
X02522Y02934*
X02521Y02936*
X02513Y02952D02*
X0251Y02953D01*
X02506Y02957*
Y0293*
X0249Y02957D02*
X02476D01*
X02484Y02947*
X0248*
X02477Y02945*
X02476Y02944*
X02474Y0294*
Y02938*
X02476Y02934*
X02478Y02931*
X02482Y0293*
X02486*
X0249Y02931*
X02491Y02932*
X02493Y02935*
X03471Y04179D02*
Y04151D01*
X03456*
X03453Y04174D02*
X0345Y04175D01*
X03446Y04179*
Y04151*
X0281Y04125D02*
Y04097D01*
X02792Y04125D02*
Y04097D01*
X0281Y04111D02*
X02792D01*
X02784Y04125D02*
Y04097D01*
X02766Y04125D02*
X02784Y04106D01*
X02778Y04113D02*
X02766Y04097D01*
G54D107*
X02906Y01477D02*
D01*
X02906Y01477*
X02906Y01478*
X02906Y01478*
X02906Y01478*
X02906Y01479*
X02906Y01479*
X02906Y01479*
X02906Y01479*
X02905Y0148*
X02905Y0148*
X02905Y0148*
X02905Y0148*
X02905Y01481*
X02904Y01481*
X02904Y01481*
X02904Y01481*
X02903Y01481*
X02903Y01481*
X02903Y01481*
X02903Y01481*
X02902Y01481*
X02902Y01481*
X02902*
X02901Y01481*
X02901Y01481*
X02901Y01481*
X029Y01481*
X029Y01481*
X029Y01481*
X029Y01481*
X02899Y01481*
X02899Y01481*
X02899Y0148*
X02899Y0148*
X02898Y0148*
X02898Y0148*
X02898Y01479*
X02898Y01479*
X02898Y01479*
X02898Y01479*
X02898Y01478*
X02897Y01478*
X02897Y01478*
X02897Y01477*
X02897Y01477*
X02897Y01477*
X02897Y01476*
X02897Y01476*
X02898Y01476*
X02898Y01476*
X02898Y01475*
X02898Y01475*
X02898Y01475*
X02898Y01475*
X02898Y01474*
X02899Y01474*
X02899Y01474*
X02899Y01474*
X02899Y01473*
X029Y01473*
X029Y01473*
X029Y01473*
X029Y01473*
X02901Y01473*
X02901Y01473*
X02901Y01473*
X02902Y01473*
X02902*
X02902Y01473*
X02903Y01473*
X02903Y01473*
X02903Y01473*
X02903Y01473*
X02904Y01473*
X02904Y01473*
X02904Y01473*
X02905Y01474*
X02905Y01474*
X02905Y01474*
X02905Y01474*
X02905Y01475*
X02906Y01475*
X02906Y01475*
X02906Y01475*
X02906Y01476*
X02906Y01476*
X02906Y01476*
X02906Y01476*
X02906Y01477*
X02906Y01477*
X03015Y04378D02*
D01*
X03015Y04378*
X03015Y04378*
X03015Y04379*
X03014Y04379*
X03014Y04379*
X03014Y04379*
X03014Y0438*
X03014Y0438*
X03014Y0438*
X03014Y04381*
X03013Y04381*
X03013Y04381*
X03013Y04381*
X03013Y04381*
X03012Y04382*
X03012Y04382*
X03012Y04382*
X03012Y04382*
X03011Y04382*
X03011Y04382*
X03011Y04382*
X0301Y04382*
X0301*
X0301Y04382*
X03009Y04382*
X03009Y04382*
X03009Y04382*
X03009Y04382*
X03008Y04382*
X03008Y04382*
X03008Y04381*
X03007Y04381*
X03007Y04381*
X03007Y04381*
X03007Y04381*
X03007Y0438*
X03006Y0438*
X03006Y0438*
X03006Y04379*
X03006Y04379*
X03006Y04379*
X03006Y04379*
X03006Y04378*
X03006Y04378*
X03006Y04378*
X03006Y04377*
X03006Y04377*
X03006Y04377*
X03006Y04376*
X03006Y04376*
X03006Y04376*
X03006Y04376*
X03006Y04375*
X03007Y04375*
X03007Y04375*
X03007Y04375*
X03007Y04374*
X03007Y04374*
X03008Y04374*
X03008Y04374*
X03008Y04374*
X03009Y04374*
X03009Y04374*
X03009Y04373*
X03009Y04373*
X0301Y04373*
X0301Y04373*
X0301*
X03011Y04373*
X03011Y04373*
X03011Y04373*
X03012Y04374*
X03012Y04374*
X03012Y04374*
X03012Y04374*
X03013Y04374*
X03013Y04374*
X03013Y04374*
X03013Y04375*
X03014Y04375*
X03014Y04375*
X03014Y04375*
X03014Y04376*
X03014Y04376*
X03014Y04376*
X03014Y04376*
X03015Y04377*
X03015Y04377*
X03015Y04377*
X03015Y04378*
X02906Y01571D02*
Y01827D01*
X0267Y01571D02*
Y01827D01*
X02745Y01571D02*
X02832D01*
X02745Y01827D02*
X02832D01*
X0266Y04221D02*
Y04308D01*
X02916Y04221D02*
Y04308D01*
X0266Y04146D02*
X02916D01*
X0266Y04382D02*
X02916D01*
M02*