%FSTAX23Y23*%
%MOIN*%
%SFA1B1*%

%IPPOS*%
%AMD26*
4,1,8,0.008300,0.009800,-0.008300,0.009800,-0.010800,0.007300,-0.010800,-0.007300,-0.008300,-0.009800,0.008300,-0.009800,0.010800,-0.007300,0.010800,0.007300,0.008300,0.009800,0.0*
1,1,0.005000,0.008300,0.007300*
1,1,0.005000,-0.008300,0.007300*
1,1,0.005000,-0.008300,-0.007300*
1,1,0.005000,0.008300,-0.007300*
%
%AMD36*
4,1,8,0.013000,-0.011600,0.013000,0.011600,0.009700,0.014900,-0.009700,0.014900,-0.013000,0.011600,-0.013000,-0.011600,-0.009700,-0.014900,0.009700,-0.014900,0.013000,-0.011600,0.0*
1,1,0.006600,0.009700,-0.011600*
1,1,0.006600,0.009700,0.011600*
1,1,0.006600,-0.009700,0.011600*
1,1,0.006600,-0.009700,-0.011600*
%
%AMD37*
4,1,8,-0.014900,0.021900,-0.014900,-0.021900,-0.011200,-0.025600,0.011200,-0.025600,0.014900,-0.021900,0.014900,0.021900,0.011200,0.025600,-0.011200,0.025600,-0.014900,0.021900,0.0*
1,1,0.007400,-0.011200,0.021900*
1,1,0.007400,-0.011200,-0.021900*
1,1,0.007400,0.011200,-0.021900*
1,1,0.007400,0.011200,0.021900*
%
%AMD38*
4,1,8,0.011600,0.013000,-0.011600,0.013000,-0.014900,0.009700,-0.014900,-0.009700,-0.011600,-0.013000,0.011600,-0.013000,0.014900,-0.009700,0.014900,0.009700,0.011600,0.013000,0.0*
1,1,0.006600,0.011600,0.009700*
1,1,0.006600,-0.011600,0.009700*
1,1,0.006600,-0.011600,-0.009700*
1,1,0.006600,0.011600,-0.009700*
%
%AMD65*
4,1,8,-0.021900,-0.014900,0.021900,-0.014900,0.025600,-0.011200,0.025600,0.011200,0.021900,0.014900,-0.021900,0.014900,-0.025600,0.011200,-0.025600,-0.011200,-0.021900,-0.014900,0.0*
1,1,0.007400,-0.021900,-0.011200*
1,1,0.007400,0.021900,-0.011200*
1,1,0.007400,0.021900,0.011200*
1,1,0.007400,-0.021900,0.011200*
%
%AMD70*
4,1,8,0.009800,-0.008300,0.009800,0.008300,0.007300,0.010800,-0.007300,0.010800,-0.009800,0.008300,-0.009800,-0.008300,-0.007300,-0.010800,0.007300,-0.010800,0.009800,-0.008300,0.0*
1,1,0.005000,0.007300,-0.008300*
1,1,0.005000,0.007300,0.008300*
1,1,0.005000,-0.007300,0.008300*
1,1,0.005000,-0.007300,-0.008300*
%
%AMD86*
4,1,8,0.011800,-0.004000,0.011800,0.004000,0.009900,0.005900,-0.009900,0.005900,-0.011800,0.004000,-0.011800,-0.004000,-0.009900,-0.005900,0.009900,-0.005900,0.011800,-0.004000,0.0*
1,1,0.003800,0.009900,-0.004000*
1,1,0.003800,0.009900,0.004000*
1,1,0.003800,-0.009900,0.004000*
1,1,0.003800,-0.009900,-0.004000*
%
%AMD87*
4,1,8,0.001900,0.010800,-0.001900,0.010800,-0.003900,0.008800,-0.003900,-0.008800,-0.001900,-0.010800,0.001900,-0.010800,0.003900,-0.008800,0.003900,0.008800,0.001900,0.010800,0.0*
1,1,0.004000,0.001900,0.008800*
1,1,0.004000,-0.001900,0.008800*
1,1,0.004000,-0.001900,-0.008800*
1,1,0.004000,0.001900,-0.008800*
%
%AMD228*
4,1,8,-0.038400,-0.007800,0.038400,-0.007800,0.046300,0.000000,0.046300,0.000000,0.038400,0.007800,-0.038400,0.007800,-0.046300,0.000000,-0.046300,0.000000,-0.038400,-0.007800,0.0*
1,1,0.015800,-0.038400,0.000000*
1,1,0.015800,0.038400,0.000000*
1,1,0.015800,0.038400,0.000000*
1,1,0.015800,-0.038400,0.000000*
%
%AMD261*
4,1,8,0.007100,0.005700,-0.007100,0.005700,-0.012900,0.000000,-0.012900,0.000000,-0.007100,-0.005700,0.007100,-0.005700,0.012900,0.000000,0.012900,0.000000,0.007100,0.005700,0.0*
1,1,0.011600,0.007100,0.000000*
1,1,0.011600,-0.007100,0.000000*
1,1,0.011600,-0.007100,0.000000*
1,1,0.011600,0.007100,0.000000*
%
%AMD265*
4,1,8,-0.004000,-0.011800,0.004000,-0.011800,0.005900,-0.009900,0.005900,0.009900,0.004000,0.011800,-0.004000,0.011800,-0.005900,0.009900,-0.005900,-0.009900,-0.004000,-0.011800,0.0*
1,1,0.003800,-0.004000,-0.009900*
1,1,0.003800,0.004000,-0.009900*
1,1,0.003800,0.004000,0.009900*
1,1,0.003800,-0.004000,0.009900*
%
%AMD267*
4,1,8,0.004000,0.008800,-0.004000,0.008800,-0.005900,0.006900,-0.005900,-0.006900,-0.004000,-0.008800,0.004000,-0.008800,0.005900,-0.006900,0.005900,0.006900,0.004000,0.008800,0.0*
1,1,0.003800,0.004000,0.006900*
1,1,0.003800,-0.004000,0.006900*
1,1,0.003800,-0.004000,-0.006900*
1,1,0.003800,0.004000,-0.006900*
%
%AMD270*
4,1,8,-0.010800,0.001900,-0.010800,-0.001900,-0.008800,-0.003900,0.008800,-0.003900,0.010800,-0.001900,0.010800,0.001900,0.008800,0.003900,-0.008800,0.003900,-0.010800,0.001900,0.0*
1,1,0.004000,-0.008800,0.001900*
1,1,0.004000,-0.008800,-0.001900*
1,1,0.004000,0.008800,-0.001900*
1,1,0.004000,0.008800,0.001900*
%
%AMD278*
4,1,8,-0.012400,-0.011600,0.012400,-0.011600,0.024000,0.000000,0.024000,0.000000,0.012400,0.011600,-0.012400,0.011600,-0.024000,0.000000,-0.024000,0.000000,-0.012400,-0.011600,0.0*
1,1,0.023200,-0.012400,0.000000*
1,1,0.023200,0.012400,0.000000*
1,1,0.023200,0.012400,0.000000*
1,1,0.023200,-0.012400,0.000000*
%
%AMD333*
4,1,8,-0.013800,0.017800,-0.013800,-0.017800,-0.011900,-0.019700,0.011900,-0.019700,0.013800,-0.017800,0.013800,0.017800,0.011900,0.019700,-0.011900,0.019700,-0.013800,0.017800,0.0*
1,1,0.003800,-0.011900,0.017800*
1,1,0.003800,-0.011900,-0.017800*
1,1,0.003800,0.011900,-0.017800*
1,1,0.003800,0.011900,0.017800*
%
G04~CAMADD=26~8~0.0~0.0~217.0~197.0~25.0~0.0~15~0.0~0.0~0.0~0.0~0~0.0~0.0~0.0~0.0~0~0.0~0.0~0.0~0.0~217.0~197.0*
%ADD26D26*%
%ADD30R,0.022800X0.021300*%
%ADD34R,0.021300X0.022800*%
G04~CAMADD=36~8~0.0~0.0~299.0~260.0~33.0~0.0~15~0.0~0.0~0.0~0.0~0~0.0~0.0~0.0~0.0~0~0.0~0.0~0.0~270.0~260.0~298.0*
%ADD36D36*%
G04~CAMADD=37~8~0.0~0.0~512.0~299.0~37.0~0.0~15~0.0~0.0~0.0~0.0~0~0.0~0.0~0.0~0.0~0~0.0~0.0~0.0~90.0~298.0~512.0*
%ADD37D37*%
G04~CAMADD=38~8~0.0~0.0~299.0~260.0~33.0~0.0~15~0.0~0.0~0.0~0.0~0~0.0~0.0~0.0~0.0~0~0.0~0.0~0.0~0.0~299.0~260.0*
%ADD38D38*%
G04~CAMADD=65~8~0.0~0.0~512.0~299.0~37.0~0.0~15~0.0~0.0~0.0~0.0~0~0.0~0.0~0.0~0.0~0~0.0~0.0~0.0~180.0~512.0~298.0*
%ADD65D65*%
%ADD66R,0.037700X0.043500*%
G04~CAMADD=70~8~0.0~0.0~217.0~197.0~25.0~0.0~15~0.0~0.0~0.0~0.0~0~0.0~0.0~0.0~0.0~0~0.0~0.0~0.0~270.0~196.0~216.0*
%ADD70D70*%
%ADD81R,0.047200X0.023600*%
%ADD85R,0.043500X0.037700*%
G04~CAMADD=86~8~0.0~0.0~118.0~236.0~19.0~0.0~15~0.0~0.0~0.0~0.0~0~0.0~0.0~0.0~0.0~0~0.0~0.0~0.0~270.0~236.0~118.0*
%ADD86D86*%
G04~CAMADD=87~8~0.0~0.0~79.0~217.0~20.0~0.0~15~0.0~0.0~0.0~0.0~0~0.0~0.0~0.0~0.0~0~0.0~0.0~0.0~0.0~79.0~217.0*
%ADD87D87*%
%ADD90R,0.033500X0.033500*%
%ADD226R,0.021300X0.022800*%
%ADD227R,0.022800X0.021300*%
G04~CAMADD=228~8~0.0~0.0~926.0~157.0~79.0~0.0~15~0.0~0.0~0.0~0.0~0~0.0~0.0~0.0~0.0~0~0.0~0.0~0.0~180.0~925.0~156.0*
%ADD228D228*%
%ADD229R,0.092600X0.015700*%
%ADD230R,0.051200X0.029900*%
%ADD231R,0.061000X0.025600*%
%ADD232R,0.037400X0.013800*%
%ADD233R,0.044300X0.041300*%
%ADD234R,0.011800X0.013800*%
%ADD235R,0.021700X0.019700*%
%ADD236R,0.013800X0.011800*%
%ADD237R,0.041300X0.044300*%
%ADD238R,0.013800X0.037400*%
%ADD239R,0.109800X0.075000*%
%ADD240R,0.039400X0.047200*%
%ADD241R,0.045300X0.047200*%
%ADD242R,0.061000X0.059100*%
%ADD243R,0.106300X0.102400*%
%ADD244R,0.013800X0.033500*%
%ADD245R,0.031500X0.013800*%
%ADD246R,0.057100X0.039400*%
%ADD247R,0.011800X0.058100*%
%ADD248R,0.058100X0.011800*%
%ADD249R,0.204700X0.204700*%
%ADD250R,0.031500X0.045700*%
%ADD251R,0.039400X0.086600*%
%ADD252R,0.078700X0.045700*%
%ADD253R,0.063000X0.045700*%
%ADD254R,0.041300X0.049200*%
%ADD255R,0.067700X0.044100*%
%ADD256R,0.041300X0.059100*%
%ADD257R,0.041300X0.013800*%
%ADD258R,0.013800X0.041300*%
%ADD259R,0.128000X0.128000*%
%ADD260R,0.047200X0.055100*%
G04~CAMADD=261~8~0.0~0.0~258.0~115.0~58.0~0.0~15~0.0~0.0~0.0~0.0~0~0.0~0.0~0.0~0.0~0~0.0~0.0~0.0~0.0~258.0~115.0*
%ADD261D261*%
%ADD262O,0.078700X0.013800*%
%ADD263R,0.019700X0.029500*%
%ADD264R,0.025800X0.011500*%
G04~CAMADD=265~8~0.0~0.0~118.0~236.0~19.0~0.0~15~0.0~0.0~0.0~0.0~0~0.0~0.0~0.0~0.0~0~0.0~0.0~0.0~180.0~118.0~236.0*
%ADD265D265*%
%ADD266R,0.031500X0.031500*%
G04~CAMADD=267~8~0.0~0.0~118.0~177.0~19.0~0.0~15~0.0~0.0~0.0~0.0~0~0.0~0.0~0.0~0.0~0~0.0~0.0~0.0~0.0~118.0~177.0*
%ADD267D267*%
%ADD268R,0.025600X0.011800*%
%ADD269R,0.011800X0.025600*%
G04~CAMADD=270~8~0.0~0.0~79.0~217.0~20.0~0.0~15~0.0~0.0~0.0~0.0~0~0.0~0.0~0.0~0.0~0~0.0~0.0~0.0~90.0~216.0~78.0*
%ADD270D270*%
%ADD273R,0.025600X0.047200*%
%ADD274R,0.057100X0.137800*%
%ADD275R,0.023600X0.029500*%
%ADD276R,0.028200X0.026500*%
%ADD277R,0.048000X0.023200*%
G04~CAMADD=278~8~0.0~0.0~480.0~232.0~116.0~0.0~15~0.0~0.0~0.0~0.0~0~0.0~0.0~0.0~0.0~0~0.0~0.0~0.0~180.0~480.0~232.0*
%ADD278D278*%
G04~CAMADD=333~8~0.0~0.0~394.0~276.0~19.0~0.0~15~0.0~0.0~0.0~0.0~0~0.0~0.0~0.0~0.0~0~0.0~0.0~0.0~90.0~276.0~394.0*
%ADD333D333*%
%ADD334R,0.024200X0.047900*%
%LNmain_board-1*%
%LPD*%
G54D26*
X03731Y04077D03*
Y04042D03*
X03119Y02229D03*
Y02264D03*
X04167Y03394D03*
Y0343D03*
X04543Y01332D03*
Y01368D03*
X02538Y02064D03*
Y02099D03*
X04606Y01332D03*
Y01368D03*
X04574Y01332D03*
Y01368D03*
X04858Y01204D03*
Y01169D03*
X03189Y03701D03*
Y03737D03*
X04748Y04433D03*
X02444Y01876D03*
X03288Y03158D03*
Y03123D03*
X03933Y01194D03*
X04748Y04468D03*
X0409Y01194D03*
X02444Y0184D03*
X03933Y01159D03*
X0409D03*
X04393Y04468D03*
Y04433D03*
G54D30*
X03846Y03976D03*
X03877D03*
X03156Y02218D03*
X03187D03*
X031Y03801D03*
X03069D03*
X03641Y03995D03*
X04602Y02802D03*
X03701Y0368D03*
X03248Y03786D03*
Y03684D03*
Y03628D03*
X0507Y03712D03*
X05098Y03909D03*
X05101Y03712D03*
X04633Y02802D03*
X04229Y039D03*
X0361Y03995D03*
X03217Y03786D03*
Y03684D03*
X03732Y0368D03*
X03731Y03577D03*
X03217Y03628D03*
X03335Y03129D03*
X03109Y03597D03*
X0274Y01818D03*
X03366Y03129D03*
X037Y03577D03*
X05067Y03909D03*
X04259Y039D03*
X03079Y03597D03*
X0277Y01818D03*
G54D34*
X03161Y02094D03*
Y02125D03*
X0477Y01171D03*
Y01202D03*
X04814Y01201D03*
Y0117D03*
X04913Y02783D03*
X04881Y0267D03*
X03309Y02018D03*
X0409Y04059D03*
X04818Y03389D03*
X04565Y03389D03*
X04702Y03389D03*
X04783D03*
X04718Y04162D03*
X04799Y04193D03*
X04783Y03358D03*
X04718Y04193D03*
X04702Y03358D03*
X04565Y03358D03*
X04818Y03358D03*
X04913Y02752D03*
X04881Y0264D03*
X04507Y04193D03*
X0409Y0409D03*
X04533Y03358D03*
X03269Y01989D03*
X03586Y01263D03*
X03309Y01988D03*
X03269Y02019D03*
X04799Y04162D03*
X04507D03*
X04533Y03389D03*
X03586Y01232D03*
G54D36*
X03244Y03888D03*
X03189D03*
X03291Y03484D03*
X03236D03*
X02543Y01968D03*
X02488D03*
G54D37*
X02952Y03507D03*
X03023D03*
X02822Y03653D03*
X02893D03*
X02747D03*
X02677D03*
X03401Y03322D03*
X03389Y0401D03*
X0346D03*
X03472Y03322D03*
G54D38*
X02598Y03527D03*
Y03472D03*
X03241Y04073D03*
X03448D03*
Y04128D03*
X03241D03*
X02661Y01858D03*
X03236Y03531D03*
Y03586D03*
X02661Y01913D03*
G54D65*
X04212Y01815D03*
Y01744D03*
G54D66*
X04407Y03427D03*
Y03374D03*
X04996Y03369D03*
X0432Y03525D03*
X04996Y03422D03*
X0432Y03578D03*
G54D70*
X03809Y03956D03*
X03773D03*
X04238Y03429D03*
X04202D03*
X04167Y03359D03*
X04202D03*
X04238Y03393D03*
X04202D03*
X04635Y01511D03*
X04671D03*
X03736Y03947D03*
X037D03*
X03736Y03916D03*
X037D03*
X02498Y02099D03*
X02462D03*
X02611Y02402D03*
X02575D03*
X03369Y02256D03*
X03333D03*
X0395Y02974D03*
X03698Y03715D03*
X037Y03884D03*
X03736D03*
X03734Y03715D03*
X03986Y02974D03*
X03072Y04051D03*
X03108D03*
G54D81*
X03647Y04036D03*
X03549D03*
Y04073D03*
Y04111D03*
X03647D03*
G54D85*
X04353Y04168D03*
X04406D03*
X03324Y0401D03*
X03271D03*
G54D86*
X04771Y02665D03*
X04842D03*
X04811Y02783D03*
X04881D03*
G54D87*
X04836Y02691D03*
Y02638D03*
X04816D03*
X04797D03*
X04777D03*
Y02691D03*
X04816D03*
X04797D03*
X04836Y02756D03*
X04816D03*
X04876Y0281D03*
X04856Y02756D03*
X04876D03*
X04816Y0281D03*
X04856D03*
X04836D03*
G54D90*
X02992Y03367D03*
Y03436D03*
G54D226*
X02592Y02096D03*
Y02065D03*
X04494Y03389D03*
Y03358D03*
X04461Y03388D03*
Y03358D03*
G54D227*
X03747Y03992D03*
X03716D03*
X04308Y03654D03*
X04338D03*
G54D228*
X03336Y03707D03*
Y03733D03*
X0361Y03758D03*
Y03784D03*
X03336Y03912D03*
X0361Y03579D03*
X03336D03*
Y03605D03*
Y03656D03*
X0361D03*
X03336Y03758D03*
Y03861D03*
X0361Y03835D03*
X03336Y03784D03*
Y03682D03*
Y0363D03*
X0361Y03682D03*
Y03886D03*
Y03707D03*
X03336Y03886D03*
X0361Y03733D03*
Y03861D03*
X03336Y03835D03*
Y0381D03*
X0361Y03605D03*
Y0363D03*
Y0381D03*
G54D229*
X0361Y03912D03*
G54D230*
X03042Y02758D03*
Y02688D03*
G54D231*
X05089Y04102D03*
Y04011D03*
X0418Y03573D03*
Y03483D03*
X04309Y03336D03*
Y03427D03*
X05084Y0344D03*
Y03349D03*
G54D232*
X03225Y03154D03*
X03187Y03013D03*
G54D233*
X03223Y03117D03*
X03189Y03051D03*
G54D234*
X03258Y03103D03*
Y03128D03*
Y03154D03*
X03189D03*
Y03128D03*
Y03103D03*
X03223Y03065D03*
Y03039D03*
Y03013D03*
X03154D03*
Y03039D03*
Y03065D03*
G54D235*
X03442Y0317D03*
Y03134D03*
X03253Y03047D03*
Y03011D03*
X03159Y03122D03*
Y03157D03*
G54D236*
X03293Y03075D03*
X03318D03*
X03344D03*
Y03006D03*
X03318D03*
X03293D03*
G54D237*
X03307Y03041D03*
G54D238*
X03344Y03039D03*
G54D239*
X03144Y03216D03*
Y03407D03*
G54D240*
X0322Y0138D03*
G54D241*
X03355Y0138D03*
G54D242*
X0327Y0138D03*
G54D243*
X03279Y02137D03*
G54D244*
X03328Y02215D03*
X03309D03*
X03289D03*
X03269D03*
X0325D03*
X0323D03*
Y0206D03*
X0325D03*
X03269D03*
X03289D03*
X03309D03*
X03328D03*
G54D245*
X032Y02187D03*
Y02167D03*
Y02147D03*
Y02128D03*
Y02108D03*
Y02088D03*
X03358D03*
Y02108D03*
Y02128D03*
Y02147D03*
Y02167D03*
Y02187D03*
G54D246*
X05014Y0446D03*
Y04393D03*
X04812Y0446D03*
Y04393D03*
X04457D03*
Y0446D03*
X0466Y04393D03*
Y0446D03*
X03166Y04393D03*
Y0446D03*
X03369Y04393D03*
Y0446D03*
G54D247*
X04467Y03485D03*
X04486D03*
X04506D03*
X04526D03*
X04545D03*
X04565D03*
X04585D03*
X04605D03*
X04624D03*
X04644D03*
X04664D03*
X04683D03*
X04703D03*
X04723D03*
X04742D03*
X04762D03*
X04782D03*
X04801D03*
X04821D03*
X04841D03*
X0486D03*
X0488D03*
X049D03*
X04919D03*
X04939D03*
Y04094D03*
X04919D03*
X049D03*
X0488D03*
X0486D03*
X04841D03*
X04821D03*
X04801D03*
X04782D03*
X04762D03*
X04742D03*
X04723D03*
X04703D03*
X04683D03*
X04664D03*
X04644D03*
X04624D03*
X04605D03*
X04585D03*
X04565D03*
X04545D03*
X04526D03*
X04506D03*
X04486D03*
X04467D03*
G54D248*
X05008Y03553D03*
Y03573D03*
Y03593D03*
Y03612D03*
Y03632D03*
Y03652D03*
Y03672D03*
Y03691D03*
Y03711D03*
Y03731D03*
Y0375D03*
Y0377D03*
Y0379D03*
Y03809D03*
Y03829D03*
Y03849D03*
Y03868D03*
Y03888D03*
Y03908D03*
Y03927D03*
Y03947D03*
Y03967D03*
Y03986D03*
Y04006D03*
Y04026D03*
X04398D03*
Y04006D03*
Y03986D03*
Y03967D03*
Y03947D03*
Y03927D03*
Y03908D03*
Y03888D03*
Y03868D03*
Y03849D03*
Y03829D03*
Y03809D03*
Y0379D03*
Y0377D03*
Y0375D03*
Y03731D03*
Y03711D03*
Y03691D03*
Y03672D03*
Y03652D03*
Y03632D03*
Y03612D03*
Y03593D03*
Y03573D03*
Y03553D03*
G54D249*
X04703Y0379D03*
G54D250*
X02763Y01748D03*
X02677D03*
X02633D03*
X02937D03*
X02893D03*
X0272D03*
X02807D03*
X0285D03*
G54D251*
X0246Y0124D03*
X03035D03*
G54D252*
X02506Y01748D03*
G54D253*
X02997Y01748D03*
G54D254*
X03018Y01679D03*
Y0132D03*
G54D255*
X0305Y02862D03*
Y03025D03*
G54D256*
X02586Y03665D03*
Y03594D03*
G54D257*
X02868Y03553D03*
Y03527D03*
Y03502D03*
Y03476D03*
Y0345D03*
X02683D03*
Y03476D03*
Y03502D03*
Y03527D03*
Y03553D03*
G54D258*
X02826Y03409D03*
X02801D03*
X02775D03*
X0275D03*
X02724D03*
Y03594D03*
X0275D03*
X02775D03*
X02801D03*
X02826D03*
G54D259*
X02775Y03502D03*
G54D260*
X03061Y03656D03*
X03128Y03743D03*
X03061D03*
X03128Y03656D03*
G54D261*
X03309Y04101D03*
X0339D03*
Y04127D03*
Y04075D03*
X03309Y04127D03*
G54D262*
X03797Y04069D03*
Y04095D03*
Y04121D03*
Y04146D03*
X04025Y04044D03*
Y04018D03*
X03797D03*
X04025Y04095D03*
Y04172D03*
Y04069D03*
X03797Y04172D03*
X04025Y04121D03*
Y04146D03*
X03797Y04044D03*
G54D263*
X03628Y01307D03*
X03679Y01234D03*
X03628D03*
G54D264*
X03309Y04075D03*
G54D265*
X04604Y02768D03*
Y02697D03*
G54D266*
X04047Y01226D03*
X03976Y01229D03*
X03078Y04005D03*
Y03946D03*
X03976Y01164D03*
X04047Y01167D03*
G54D267*
X03393Y03239D03*
X03342Y03162D03*
X03368D03*
X03342Y03239D03*
X03368D03*
X03393Y03162D03*
G54D268*
X04293Y03727D03*
Y03747D03*
Y03766D03*
Y03786D03*
Y03813D03*
Y03832D03*
Y03852D03*
Y03872D03*
Y03928D03*
Y03947D03*
Y03967D03*
Y03987D03*
Y04013D03*
Y04033D03*
Y04053D03*
Y04072D03*
X04338Y03786D03*
Y03766D03*
Y03747D03*
Y03727D03*
Y03872D03*
Y03852D03*
Y03832D03*
Y03813D03*
Y03928D03*
Y04072D03*
Y04053D03*
Y04033D03*
Y04013D03*
Y03947D03*
Y03967D03*
Y03987D03*
G54D269*
X0486Y042D03*
X04899D03*
X046Y04155D03*
X0458D03*
X04561D03*
X04541D03*
X04686D03*
X04666D03*
X04646D03*
X04627D03*
X04899D03*
X04879D03*
X0486D03*
X0484D03*
Y042D03*
X04541D03*
X046D03*
X04627D03*
X04646D03*
X04666D03*
X04686D03*
X04879D03*
X04561D03*
X0458D03*
G54D270*
X04577Y02723D03*
Y02743D03*
Y02703D03*
X0463Y02743D03*
Y02762D03*
Y02703D03*
Y02723D03*
X04577Y02762D03*
G54D273*
X03165Y04037D03*
X03127Y03954D03*
X03203D03*
G54D274*
X03165Y02909D03*
X03409D03*
G54D275*
X03677Y01307D03*
G54D276*
X03181Y03539D03*
Y03484D03*
X03143Y03539D03*
Y03484D03*
G54D277*
X0258Y01914D03*
G54D278*
X02498Y01841D03*
X0258Y01878D03*
X02498Y01914D03*
X0258Y01841D03*
G54D333*
X03385Y032D03*
X0335D03*
G54D334*
X0335Y04101D03*
M02*