%FSTAX23Y23*%
%MOIN*%
%SFA1B1*%

%IPPOS*%
%AMD112*
4,1,8,0.008300,0.010200,-0.008300,0.010200,-0.011200,0.007300,-0.011200,-0.007300,-0.008300,-0.010200,0.008300,-0.010200,0.011200,-0.007300,0.011200,0.007300,0.008300,0.010200,0.0*
1,1,0.005800,0.008300,0.007300*
1,1,0.005800,-0.008300,0.007300*
1,1,0.005800,-0.008300,-0.007300*
1,1,0.005800,0.008300,-0.007300*
%
%AMD122*
4,1,8,0.013400,-0.011700,0.013400,0.011700,0.009800,0.015300,-0.009800,0.015300,-0.013400,0.011700,-0.013400,-0.011700,-0.009800,-0.015300,0.009800,-0.015300,0.013400,-0.011700,0.0*
1,1,0.007200,0.009800,-0.011700*
1,1,0.007200,0.009800,0.011700*
1,1,0.007200,-0.009800,0.011700*
1,1,0.007200,-0.009800,-0.011700*
%
%AMD123*
4,1,8,-0.015300,0.021900,-0.015300,-0.021900,-0.011200,-0.026000,0.011200,-0.026000,0.015300,-0.021900,0.015300,0.021900,0.011200,0.026000,-0.011200,0.026000,-0.015300,0.021900,0.0*
1,1,0.008200,-0.011200,0.021900*
1,1,0.008200,-0.011200,-0.021900*
1,1,0.008200,0.011200,-0.021900*
1,1,0.008200,0.011200,0.021900*
%
%AMD124*
4,1,8,0.011700,0.013400,-0.011700,0.013400,-0.015300,0.009800,-0.015300,-0.009800,-0.011700,-0.013400,0.011700,-0.013400,0.015300,-0.009800,0.015300,0.009800,0.011700,0.013400,0.0*
1,1,0.007200,0.011700,0.009800*
1,1,0.007200,-0.011700,0.009800*
1,1,0.007200,-0.011700,-0.009800*
1,1,0.007200,0.011700,-0.009800*
%
%AMD152*
4,1,8,-0.021900,-0.015300,0.021900,-0.015300,0.026000,-0.011200,0.026000,0.011200,0.021900,0.015300,-0.021900,0.015300,-0.026000,0.011200,-0.026000,-0.011200,-0.021900,-0.015300,0.0*
1,1,0.008200,-0.021900,-0.011200*
1,1,0.008200,0.021900,-0.011200*
1,1,0.008200,0.021900,0.011200*
1,1,0.008200,-0.021900,0.011200*
%
%AMD157*
4,1,8,0.010200,-0.008300,0.010200,0.008300,0.007300,0.011200,-0.007300,0.011200,-0.010200,0.008300,-0.010200,-0.008300,-0.007300,-0.011200,0.007300,-0.011200,0.010200,-0.008300,0.0*
1,1,0.005800,0.007300,-0.008300*
1,1,0.005800,0.007300,0.008300*
1,1,0.005800,-0.007300,0.008300*
1,1,0.005800,-0.007300,-0.008300*
%
%AMD173*
4,1,8,0.012200,-0.004000,0.012200,0.004000,0.009900,0.006300,-0.009900,0.006300,-0.012200,0.004000,-0.012200,-0.004000,-0.009900,-0.006300,0.009900,-0.006300,0.012200,-0.004000,0.0*
1,1,0.004600,0.009900,-0.004000*
1,1,0.004600,0.009900,0.004000*
1,1,0.004600,-0.009900,0.004000*
1,1,0.004600,-0.009900,-0.004000*
%
%AMD174*
4,1,8,0.001900,0.011200,-0.001900,0.011200,-0.004300,0.008800,-0.004300,-0.008800,-0.001900,-0.011200,0.001900,-0.011200,0.004300,-0.008800,0.004300,0.008800,0.001900,0.011200,0.0*
1,1,0.004800,0.001900,0.008800*
1,1,0.004800,-0.001900,0.008800*
1,1,0.004800,-0.001900,-0.008800*
1,1,0.004800,0.001900,-0.008800*
%
%AMD283*
4,1,8,-0.038400,-0.008200,0.038400,-0.008200,0.046700,0.000000,0.046700,0.000000,0.038400,0.008200,-0.038400,0.008200,-0.046700,0.000000,-0.046700,0.000000,-0.038400,-0.008200,0.0*
1,1,0.016600,-0.038400,0.000000*
1,1,0.016600,0.038400,0.000000*
1,1,0.016600,0.038400,0.000000*
1,1,0.016600,-0.038400,0.000000*
%
%AMD315*
4,1,8,0.007100,0.006100,-0.007100,0.006100,-0.013300,0.000000,-0.013300,0.000000,-0.007100,-0.006100,0.007100,-0.006100,0.013300,0.000000,0.013300,0.000000,0.007100,0.006100,0.0*
1,1,0.012400,0.007100,0.000000*
1,1,0.012400,-0.007100,0.000000*
1,1,0.012400,-0.007100,0.000000*
1,1,0.012400,0.007100,0.000000*
%
%AMD319*
4,1,8,-0.004000,-0.012200,0.004000,-0.012200,0.006300,-0.009900,0.006300,0.009900,0.004000,0.012200,-0.004000,0.012200,-0.006300,0.009900,-0.006300,-0.009900,-0.004000,-0.012200,0.0*
1,1,0.004600,-0.004000,-0.009900*
1,1,0.004600,0.004000,-0.009900*
1,1,0.004600,0.004000,0.009900*
1,1,0.004600,-0.004000,0.009900*
%
%AMD321*
4,1,8,0.004000,0.009200,-0.004000,0.009200,-0.006300,0.006900,-0.006300,-0.006900,-0.004000,-0.009200,0.004000,-0.009200,0.006300,-0.006900,0.006300,0.006900,0.004000,0.009200,0.0*
1,1,0.004600,0.004000,0.006900*
1,1,0.004600,-0.004000,0.006900*
1,1,0.004600,-0.004000,-0.006900*
1,1,0.004600,0.004000,-0.006900*
%
%AMD324*
4,1,8,-0.011200,0.001900,-0.011200,-0.001900,-0.008800,-0.004300,0.008800,-0.004300,0.011200,-0.001900,0.011200,0.001900,0.008800,0.004300,-0.008800,0.004300,-0.011200,0.001900,0.0*
1,1,0.004800,-0.008800,0.001900*
1,1,0.004800,-0.008800,-0.001900*
1,1,0.004800,0.008800,-0.001900*
1,1,0.004800,0.008800,0.001900*
%
%AMD326*
4,1,8,-0.031900,0.017700,-0.031900,-0.017700,-0.029500,-0.020100,0.029500,-0.020100,0.031900,-0.017700,0.031900,0.017700,0.029500,0.020100,-0.029500,0.020100,-0.031900,0.017700,0.0*
1,1,0.004800,-0.029500,0.017700*
1,1,0.004800,-0.029500,-0.017700*
1,1,0.004800,0.029500,-0.017700*
1,1,0.004800,0.029500,0.017700*
%
%AMD332*
4,1,8,-0.012400,-0.012000,0.012400,-0.012000,0.024400,0.000000,0.024400,0.000000,0.012400,0.012000,-0.012400,0.012000,-0.024400,0.000000,-0.024400,0.000000,-0.012400,-0.012000,0.0*
1,1,0.024000,-0.012400,0.000000*
1,1,0.024000,0.012400,0.000000*
1,1,0.024000,0.012400,0.000000*
1,1,0.024000,-0.012400,0.000000*
%
G04~CAMADD=112~8~0.0~0.0~224.0~205.0~29.0~0.0~15~0.0~0.0~0.0~0.0~0~0.0~0.0~0.0~0.0~0~0.0~0.0~0.0~0.0~224.0~205.0*
%ADD112D112*%
%ADD116R,0.023600X0.022000*%
%ADD120R,0.022000X0.023600*%
G04~CAMADD=122~8~0.0~0.0~307.0~268.0~36.0~0.0~15~0.0~0.0~0.0~0.0~0~0.0~0.0~0.0~0.0~0~0.0~0.0~0.0~270.0~268.0~306.0*
%ADD122D122*%
G04~CAMADD=123~8~0.0~0.0~520.0~307.0~41.0~0.0~15~0.0~0.0~0.0~0.0~0~0.0~0.0~0.0~0.0~0~0.0~0.0~0.0~90.0~306.0~519.0*
%ADD123D123*%
G04~CAMADD=124~8~0.0~0.0~307.0~268.0~36.0~0.0~15~0.0~0.0~0.0~0.0~0~0.0~0.0~0.0~0.0~0~0.0~0.0~0.0~0.0~307.0~268.0*
%ADD124D124*%
G04~CAMADD=152~8~0.0~0.0~520.0~307.0~41.0~0.0~15~0.0~0.0~0.0~0.0~0~0.0~0.0~0.0~0.0~0~0.0~0.0~0.0~180.0~520.0~306.0*
%ADD152D152*%
%ADD153R,0.038500X0.044300*%
G04~CAMADD=157~8~0.0~0.0~224.0~205.0~29.0~0.0~15~0.0~0.0~0.0~0.0~0~0.0~0.0~0.0~0.0~0~0.0~0.0~0.0~270.0~204.0~224.0*
%ADD157D157*%
%ADD168R,0.048000X0.024400*%
%ADD172R,0.044300X0.038500*%
G04~CAMADD=173~8~0.0~0.0~126.0~244.0~23.0~0.0~15~0.0~0.0~0.0~0.0~0~0.0~0.0~0.0~0.0~0~0.0~0.0~0.0~270.0~244.0~126.0*
%ADD173D173*%
G04~CAMADD=174~8~0.0~0.0~87.0~224.0~24.0~0.0~15~0.0~0.0~0.0~0.0~0~0.0~0.0~0.0~0.0~0~0.0~0.0~0.0~0.0~87.0~224.0*
%ADD174D174*%
%ADD177R,0.034300X0.034300*%
%ADD193O,0.050000X0.079500*%
%ADD194C,0.016500*%
%ADD195C,0.000800*%
%ADD196O,0.048000X0.067700*%
%ADD197O,0.048000X0.075600*%
%ADD198C,0.118900*%
%ADD199C,0.018500*%
%ADD239R,0.109800X0.075000*%
%ADD281R,0.022000X0.023600*%
%ADD282R,0.023600X0.022000*%
G04~CAMADD=283~8~0.0~0.0~934.0~165.0~83.0~0.0~15~0.0~0.0~0.0~0.0~0~0.0~0.0~0.0~0.0~0~0.0~0.0~0.0~180.0~933.0~164.0*
%ADD283D283*%
%ADD284R,0.093400X0.016500*%
%ADD285R,0.052000X0.030700*%
%ADD286R,0.061800X0.026400*%
%ADD287R,0.038200X0.014600*%
%ADD288R,0.045100X0.042100*%
%ADD289R,0.012600X0.014600*%
%ADD290R,0.022400X0.020500*%
%ADD291R,0.014600X0.012600*%
%ADD292R,0.042100X0.045100*%
%ADD293R,0.014600X0.038200*%
%ADD294R,0.040200X0.048000*%
%ADD295R,0.046100X0.048000*%
%ADD296R,0.061800X0.059800*%
%ADD297R,0.107100X0.103200*%
%ADD298R,0.014600X0.034300*%
%ADD299R,0.032300X0.014600*%
%ADD300R,0.057900X0.040200*%
%ADD301R,0.012600X0.058900*%
%ADD302R,0.058900X0.012600*%
%ADD303R,0.205500X0.205500*%
%ADD304R,0.032300X0.046500*%
%ADD305R,0.040200X0.087400*%
%ADD306R,0.079500X0.046500*%
%ADD307R,0.063800X0.046500*%
%ADD308R,0.042100X0.050000*%
%ADD309R,0.068500X0.044900*%
%ADD310R,0.042100X0.059800*%
%ADD311R,0.042100X0.014600*%
%ADD312R,0.014600X0.042100*%
%ADD313R,0.128700X0.128700*%
%ADD314R,0.048000X0.055900*%
G04~CAMADD=315~8~0.0~0.0~266.0~123.0~62.0~0.0~15~0.0~0.0~0.0~0.0~0~0.0~0.0~0.0~0.0~0~0.0~0.0~0.0~0.0~266.0~123.0*
%ADD315D315*%
%ADD316O,0.079500X0.014600*%
%ADD317R,0.020500X0.030300*%
%ADD318R,0.026600X0.012300*%
G04~CAMADD=319~8~0.0~0.0~126.0~244.0~23.0~0.0~15~0.0~0.0~0.0~0.0~0~0.0~0.0~0.0~0.0~0~0.0~0.0~0.0~180.0~126.0~244.0*
%ADD319D319*%
%ADD320R,0.032300X0.032300*%
G04~CAMADD=321~8~0.0~0.0~126.0~185.0~23.0~0.0~15~0.0~0.0~0.0~0.0~0~0.0~0.0~0.0~0.0~0~0.0~0.0~0.0~0.0~126.0~185.0*
%ADD321D321*%
%ADD322R,0.026400X0.012600*%
%ADD323R,0.012600X0.026400*%
G04~CAMADD=324~8~0.0~0.0~87.0~224.0~24.0~0.0~15~0.0~0.0~0.0~0.0~0~0.0~0.0~0.0~0.0~0~0.0~0.0~0.0~90.0~224.0~86.0*
%ADD324D324*%
%ADD325R,0.044100X0.067700*%
G04~CAMADD=326~8~0.0~0.0~402.0~638.0~24.0~0.0~15~0.0~0.0~0.0~0.0~0~0.0~0.0~0.0~0.0~0~0.0~0.0~0.0~90.0~638.0~402.0*
%ADD326D326*%
%ADD327R,0.026400X0.048000*%
%ADD328R,0.057900X0.138600*%
%ADD329R,0.024400X0.030300*%
%ADD330R,0.029000X0.027300*%
%ADD331R,0.048800X0.024000*%
G04~CAMADD=332~8~0.0~0.0~488.0~240.0~120.0~0.0~15~0.0~0.0~0.0~0.0~0~0.0~0.0~0.0~0.0~0~0.0~0.0~0.0~180.0~488.0~240.0*
%ADD332D332*%
%LNmain_board-1*%
%LPD*%
G54D112*
X03731Y04077D03*
Y04042D03*
X03119Y02229D03*
Y02264D03*
X04167Y03394D03*
Y0343D03*
X04543Y01332D03*
Y01368D03*
X02538Y02064D03*
Y02099D03*
X04606Y01332D03*
Y01368D03*
X04574Y01332D03*
Y01368D03*
X04858Y01204D03*
Y01169D03*
X03189Y03701D03*
Y03737D03*
X04748Y04433D03*
X02444Y01876D03*
X03288Y03158D03*
Y03123D03*
X03933Y01194D03*
X04748Y04468D03*
X0409Y01194D03*
X02444Y0184D03*
X03933Y01159D03*
X0409D03*
X04393Y04468D03*
Y04433D03*
G54D116*
X03846Y03976D03*
X03877D03*
X03156Y02218D03*
X03187D03*
X031Y03801D03*
X03069D03*
X03641Y03995D03*
X04602Y02802D03*
X03701Y0368D03*
X03248Y03786D03*
Y03684D03*
Y03628D03*
X0507Y03712D03*
X05098Y03909D03*
X05101Y03712D03*
X04633Y02802D03*
X04229Y039D03*
X0361Y03995D03*
X03217Y03786D03*
Y03684D03*
X03732Y0368D03*
X03731Y03577D03*
X03217Y03628D03*
X03335Y03129D03*
X03109Y03597D03*
X0274Y01818D03*
X03366Y03129D03*
X037Y03577D03*
X05067Y03909D03*
X04259Y039D03*
X03079Y03597D03*
X0277Y01818D03*
G54D120*
X03161Y02094D03*
Y02125D03*
X0477Y01171D03*
Y01202D03*
X04814Y01201D03*
Y0117D03*
X04913Y02783D03*
X04881Y0267D03*
X03309Y02018D03*
X0409Y04059D03*
X04818Y03389D03*
X04565Y03389D03*
X04702Y03389D03*
X04783D03*
X04718Y04162D03*
X04799Y04193D03*
X04783Y03358D03*
X04718Y04193D03*
X04702Y03358D03*
X04565Y03358D03*
X04818Y03358D03*
X04913Y02752D03*
X04881Y0264D03*
X04507Y04193D03*
X0409Y0409D03*
X04533Y03358D03*
X03269Y01989D03*
X03586Y01263D03*
X03309Y01988D03*
X03269Y02019D03*
X04799Y04162D03*
X04507D03*
X04533Y03389D03*
X03586Y01232D03*
G54D122*
X03244Y03888D03*
X03189D03*
X03291Y03484D03*
X03236D03*
X02543Y01968D03*
X02488D03*
G54D123*
X02952Y03507D03*
X03023D03*
X02822Y03653D03*
X02893D03*
X02747D03*
X02677D03*
X03401Y03322D03*
X03389Y0401D03*
X0346D03*
X03472Y03322D03*
G54D124*
X02598Y03527D03*
Y03472D03*
X03241Y04073D03*
X03448D03*
Y04128D03*
X03241D03*
X02661Y01858D03*
X03236Y03531D03*
Y03586D03*
X02661Y01913D03*
G54D152*
X04212Y01815D03*
Y01744D03*
G54D153*
X04407Y03427D03*
Y03374D03*
X04996Y03369D03*
X0432Y03525D03*
X04996Y03422D03*
X0432Y03578D03*
G54D157*
X03809Y03956D03*
X03773D03*
X04238Y03429D03*
X04202D03*
X04167Y03359D03*
X04202D03*
X04238Y03393D03*
X04202D03*
X04635Y01511D03*
X04671D03*
X03736Y03947D03*
X037D03*
X03736Y03916D03*
X037D03*
X02498Y02099D03*
X02462D03*
X02611Y02402D03*
X02575D03*
X03369Y02256D03*
X03333D03*
X0395Y02974D03*
X03698Y03715D03*
X037Y03884D03*
X03736D03*
X03734Y03715D03*
X03986Y02974D03*
X03072Y04051D03*
X03108D03*
G54D168*
X03647Y04036D03*
X03549D03*
Y04073D03*
Y04111D03*
X03647D03*
G54D172*
X04353Y04168D03*
X04406D03*
X03324Y0401D03*
X03271D03*
G54D173*
X04771Y02665D03*
X04842D03*
X04811Y02783D03*
X04881D03*
G54D174*
X04836Y02691D03*
Y02638D03*
X04816D03*
X04797D03*
X04777D03*
Y02691D03*
X04816D03*
X04797D03*
X04836Y02756D03*
X04816D03*
X04876Y0281D03*
X04856Y02756D03*
X04876D03*
X04816Y0281D03*
X04856D03*
X04836D03*
G54D177*
X02992Y03367D03*
Y03436D03*
G54D193*
X03806Y01172D03*
Y0132D03*
X04146D03*
Y01172D03*
G54D194*
X04913Y0448D03*
Y04374D03*
X04559D03*
Y0448D03*
X03267Y04374D03*
Y0448D03*
G54D195*
X044Y0225D03*
Y02132D03*
X03524Y02098D03*
X03406D03*
G54D196*
X04656Y01166D03*
X05083D03*
G54D197*
X04656Y01343D03*
X05083D03*
G54D198*
X05145Y02141D03*
X05239Y03996D03*
X02464Y04433D03*
G54D199*
X03885Y01271D03*
X03436Y0437D03*
X03185Y04118D03*
X03146Y03899D03*
X03966Y04444D03*
X03978Y04387D03*
X03936Y04305D03*
X0441Y01441D03*
X04446Y01477D03*
X04709Y01859D03*
Y01793D03*
X04653Y01956D03*
Y01984D03*
X02988Y0366D03*
X04358Y01649D03*
X04318Y01626D03*
X02972Y04145D03*
Y0418D03*
X02531Y04346D03*
Y04374D03*
X04066Y01299D03*
X04094D03*
X0387Y01381D03*
X03858Y01271D03*
X03885Y01244D03*
X04133Y01409D03*
X04106D03*
X04078D03*
X04133Y01381D03*
X03019Y03755D03*
X03346Y032D03*
X03389D03*
G54D239*
X03144Y03216D03*
Y03407D03*
G54D281*
X02592Y02096D03*
Y02065D03*
X04494Y03389D03*
Y03358D03*
X04461Y03388D03*
Y03358D03*
G54D282*
X03747Y03992D03*
X03716D03*
X04308Y03654D03*
X04338D03*
G54D283*
X03336Y03707D03*
Y03733D03*
X0361Y03758D03*
Y03784D03*
X03336Y03912D03*
X0361Y03579D03*
X03336D03*
Y03605D03*
Y03656D03*
X0361D03*
X03336Y03758D03*
Y03861D03*
X0361Y03835D03*
X03336Y03784D03*
Y03682D03*
Y0363D03*
X0361Y03682D03*
Y03886D03*
Y03707D03*
X03336Y03886D03*
X0361Y03733D03*
Y03861D03*
X03336Y03835D03*
Y0381D03*
X0361Y03605D03*
Y0363D03*
Y0381D03*
G54D284*
X0361Y03912D03*
G54D285*
X03042Y02758D03*
Y02688D03*
G54D286*
X05089Y04102D03*
Y04011D03*
X0418Y03573D03*
Y03483D03*
X04309Y03336D03*
Y03427D03*
X05084Y0344D03*
Y03349D03*
G54D287*
X03225Y03154D03*
X03187Y03013D03*
G54D288*
X03223Y03117D03*
X03189Y03051D03*
G54D289*
X03258Y03103D03*
Y03128D03*
Y03154D03*
X03189D03*
Y03128D03*
Y03103D03*
X03223Y03065D03*
Y03039D03*
Y03013D03*
X03154D03*
Y03039D03*
Y03065D03*
G54D290*
X03442Y0317D03*
Y03134D03*
X03253Y03047D03*
Y03011D03*
X03159Y03122D03*
Y03157D03*
G54D291*
X03293Y03075D03*
X03318D03*
X03344D03*
Y03006D03*
X03318D03*
X03293D03*
G54D292*
X03307Y03041D03*
G54D293*
X03344Y03039D03*
G54D294*
X0322Y0138D03*
G54D295*
X03355Y0138D03*
G54D296*
X0327Y0138D03*
G54D297*
X03279Y02137D03*
G54D298*
X03328Y02215D03*
X03309D03*
X03289D03*
X03269D03*
X0325D03*
X0323D03*
Y0206D03*
X0325D03*
X03269D03*
X03289D03*
X03309D03*
X03328D03*
G54D299*
X032Y02187D03*
Y02167D03*
Y02147D03*
Y02128D03*
Y02108D03*
Y02088D03*
X03358D03*
Y02108D03*
Y02128D03*
Y02147D03*
Y02167D03*
Y02187D03*
G54D300*
X05014Y0446D03*
Y04393D03*
X04812Y0446D03*
Y04393D03*
X04457D03*
Y0446D03*
X0466Y04393D03*
Y0446D03*
X03166Y04393D03*
Y0446D03*
X03369Y04393D03*
Y0446D03*
G54D301*
X04467Y03485D03*
X04486D03*
X04506D03*
X04526D03*
X04545D03*
X04565D03*
X04585D03*
X04605D03*
X04624D03*
X04644D03*
X04664D03*
X04683D03*
X04703D03*
X04723D03*
X04742D03*
X04762D03*
X04782D03*
X04801D03*
X04821D03*
X04841D03*
X0486D03*
X0488D03*
X049D03*
X04919D03*
X04939D03*
Y04094D03*
X04919D03*
X049D03*
X0488D03*
X0486D03*
X04841D03*
X04821D03*
X04801D03*
X04782D03*
X04762D03*
X04742D03*
X04723D03*
X04703D03*
X04683D03*
X04664D03*
X04644D03*
X04624D03*
X04605D03*
X04585D03*
X04565D03*
X04545D03*
X04526D03*
X04506D03*
X04486D03*
X04467D03*
G54D302*
X05008Y03553D03*
Y03573D03*
Y03593D03*
Y03612D03*
Y03632D03*
Y03652D03*
Y03672D03*
Y03691D03*
Y03711D03*
Y03731D03*
Y0375D03*
Y0377D03*
Y0379D03*
Y03809D03*
Y03829D03*
Y03849D03*
Y03868D03*
Y03888D03*
Y03908D03*
Y03927D03*
Y03947D03*
Y03967D03*
Y03986D03*
Y04006D03*
Y04026D03*
X04398D03*
Y04006D03*
Y03986D03*
Y03967D03*
Y03947D03*
Y03927D03*
Y03908D03*
Y03888D03*
Y03868D03*
Y03849D03*
Y03829D03*
Y03809D03*
Y0379D03*
Y0377D03*
Y0375D03*
Y03731D03*
Y03711D03*
Y03691D03*
Y03672D03*
Y03652D03*
Y03632D03*
Y03612D03*
Y03593D03*
Y03573D03*
Y03553D03*
G54D303*
X04703Y0379D03*
G54D304*
X02763Y01748D03*
X02677D03*
X02633D03*
X02937D03*
X02893D03*
X0272D03*
X02807D03*
X0285D03*
G54D305*
X0246Y0124D03*
X03035D03*
G54D306*
X02506Y01748D03*
G54D307*
X02997Y01748D03*
G54D308*
X03018Y01679D03*
Y0132D03*
G54D309*
X0305Y02862D03*
Y03025D03*
G54D310*
X02586Y03665D03*
Y03594D03*
G54D311*
X02868Y03553D03*
Y03527D03*
Y03502D03*
Y03476D03*
Y0345D03*
X02683D03*
Y03476D03*
Y03502D03*
Y03527D03*
Y03553D03*
G54D312*
X02826Y03409D03*
X02801D03*
X02775D03*
X0275D03*
X02724D03*
Y03594D03*
X0275D03*
X02775D03*
X02801D03*
X02826D03*
G54D313*
X02775Y03502D03*
G54D314*
X03061Y03656D03*
X03128Y03743D03*
X03061D03*
X03128Y03656D03*
G54D315*
X03309Y04101D03*
X0339D03*
Y04127D03*
Y04075D03*
X03309Y04127D03*
G54D316*
X03797Y04069D03*
Y04095D03*
Y04121D03*
Y04146D03*
X04025Y04044D03*
Y04018D03*
X03797D03*
X04025Y04095D03*
Y04172D03*
Y04069D03*
X03797Y04172D03*
X04025Y04121D03*
Y04146D03*
X03797Y04044D03*
G54D317*
X03628Y01307D03*
X03679Y01234D03*
X03628D03*
G54D318*
X03309Y04075D03*
G54D319*
X04604Y02768D03*
Y02697D03*
G54D320*
X04047Y01226D03*
X03976Y01229D03*
X03078Y04005D03*
Y03946D03*
X03976Y01164D03*
X04047Y01167D03*
G54D321*
X03393Y03239D03*
X03342Y03162D03*
X03368D03*
X03342Y03239D03*
X03368D03*
X03393Y03162D03*
G54D322*
X04293Y03727D03*
Y03747D03*
Y03766D03*
Y03786D03*
Y03813D03*
Y03832D03*
Y03852D03*
Y03872D03*
Y03928D03*
Y03947D03*
Y03967D03*
Y03987D03*
Y04013D03*
Y04033D03*
Y04053D03*
Y04072D03*
X04338Y03786D03*
Y03766D03*
Y03747D03*
Y03727D03*
Y03872D03*
Y03852D03*
Y03832D03*
Y03813D03*
Y03928D03*
Y04072D03*
Y04053D03*
Y04033D03*
Y04013D03*
Y03947D03*
Y03967D03*
Y03987D03*
G54D323*
X0486Y042D03*
X04899D03*
X046Y04155D03*
X0458D03*
X04561D03*
X04541D03*
X04686D03*
X04666D03*
X04646D03*
X04627D03*
X04899D03*
X04879D03*
X0486D03*
X0484D03*
Y042D03*
X04541D03*
X046D03*
X04627D03*
X04646D03*
X04666D03*
X04686D03*
X04879D03*
X04561D03*
X0458D03*
G54D324*
X04577Y02723D03*
Y02743D03*
Y02703D03*
X0463Y02743D03*
Y02762D03*
Y02703D03*
Y02723D03*
X04577Y02762D03*
G54D325*
X0335Y04101D03*
G54D326*
X03368Y032D03*
G54D327*
X03165Y04037D03*
X03127Y03954D03*
X03203D03*
G54D328*
X03165Y02909D03*
X03409D03*
G54D329*
X03677Y01307D03*
G54D330*
X03181Y03539D03*
Y03484D03*
X03143Y03539D03*
Y03484D03*
G54D331*
X0258Y01914D03*
G54D332*
X02498Y01841D03*
X0258Y01878D03*
X02498Y01914D03*
X0258Y01841D03*
M02*