%FSTAX23Y23*%
%MOIN*%
%SFA1B1*%

%IPPOS*%
%AMD112*
4,1,8,0.008300,0.010200,-0.008300,0.010200,-0.011200,0.007300,-0.011200,-0.007300,-0.008300,-0.010200,0.008300,-0.010200,0.011200,-0.007300,0.011200,0.007300,0.008300,0.010200,0.0*
1,1,0.005800,0.008300,0.007300*
1,1,0.005800,-0.008300,0.007300*
1,1,0.005800,-0.008300,-0.007300*
1,1,0.005800,0.008300,-0.007300*
%
%AMD122*
4,1,8,0.013400,-0.011700,0.013400,0.011700,0.009800,0.015300,-0.009800,0.015300,-0.013400,0.011700,-0.013400,-0.011700,-0.009800,-0.015300,0.009800,-0.015300,0.013400,-0.011700,0.0*
1,1,0.007200,0.009800,-0.011700*
1,1,0.007200,0.009800,0.011700*
1,1,0.007200,-0.009800,0.011700*
1,1,0.007200,-0.009800,-0.011700*
%
%AMD123*
4,1,8,-0.015300,0.021900,-0.015300,-0.021900,-0.011200,-0.026000,0.011200,-0.026000,0.015300,-0.021900,0.015300,0.021900,0.011200,0.026000,-0.011200,0.026000,-0.015300,0.021900,0.0*
1,1,0.008200,-0.011200,0.021900*
1,1,0.008200,-0.011200,-0.021900*
1,1,0.008200,0.011200,-0.021900*
1,1,0.008200,0.011200,0.021900*
%
%AMD124*
4,1,8,0.011700,0.013400,-0.011700,0.013400,-0.015300,0.009800,-0.015300,-0.009800,-0.011700,-0.013400,0.011700,-0.013400,0.015300,-0.009800,0.015300,0.009800,0.011700,0.013400,0.0*
1,1,0.007200,0.011700,0.009800*
1,1,0.007200,-0.011700,0.009800*
1,1,0.007200,-0.011700,-0.009800*
1,1,0.007200,0.011700,-0.009800*
%
%AMD127*
4,1,8,-0.011000,0.026100,-0.011000,-0.026100,0.000000,-0.037200,0.000000,-0.037200,0.011000,-0.026100,0.011000,0.026100,0.000000,0.037200,0.000000,0.037200,-0.011000,0.026100,0.0*
1,1,0.022200,0.000000,0.026100*
1,1,0.022200,0.000000,-0.026100*
1,1,0.022200,0.000000,-0.026100*
1,1,0.022200,0.000000,0.026100*
%
%AMD152*
4,1,8,-0.021900,-0.015300,0.021900,-0.015300,0.026000,-0.011200,0.026000,0.011200,0.021900,0.015300,-0.021900,0.015300,-0.026000,0.011200,-0.026000,-0.011200,-0.021900,-0.015300,0.0*
1,1,0.008200,-0.021900,-0.011200*
1,1,0.008200,0.021900,-0.011200*
1,1,0.008200,0.021900,0.011200*
1,1,0.008200,-0.021900,0.011200*
%
%AMD157*
4,1,8,0.010200,-0.008300,0.010200,0.008300,0.007300,0.011200,-0.007300,0.011200,-0.010200,0.008300,-0.010200,-0.008300,-0.007300,-0.011200,0.007300,-0.011200,0.010200,-0.008300,0.0*
1,1,0.005800,0.007300,-0.008300*
1,1,0.005800,0.007300,0.008300*
1,1,0.005800,-0.007300,0.008300*
1,1,0.005800,-0.007300,-0.008300*
%
%AMD173*
4,1,8,0.012200,-0.004000,0.012200,0.004000,0.009900,0.006300,-0.009900,0.006300,-0.012200,0.004000,-0.012200,-0.004000,-0.009900,-0.006300,0.009900,-0.006300,0.012200,-0.004000,0.0*
1,1,0.004600,0.009900,-0.004000*
1,1,0.004600,0.009900,0.004000*
1,1,0.004600,-0.009900,0.004000*
1,1,0.004600,-0.009900,-0.004000*
%
%AMD174*
4,1,8,0.001900,0.011200,-0.001900,0.011200,-0.004300,0.008800,-0.004300,-0.008800,-0.001900,-0.011200,0.001900,-0.011200,0.004300,-0.008800,0.004300,0.008800,0.001900,0.011200,0.0*
1,1,0.004800,0.001900,0.008800*
1,1,0.004800,-0.001900,0.008800*
1,1,0.004800,-0.001900,-0.008800*
1,1,0.004800,0.001900,-0.008800*
%
%ADD25R,0.031500X0.023600*%
%ADD106C,0.054000*%
%ADD107C,0.050800*%
%ADD108R,0.028300X0.048000*%
%ADD109R,0.032300X0.048000*%
%ADD110R,0.036200X0.048000*%
%ADD111R,0.093300X0.089400*%
G04~CAMADD=112~8~0.0~0.0~224.0~205.0~29.0~0.0~15~0.0~0.0~0.0~0.0~0~0.0~0.0~0.0~0.0~0~0.0~0.0~0.0~0.0~224.0~205.0*
%ADD112D112*%
%ADD113R,0.024400X0.014600*%
%ADD114R,0.044100X0.067700*%
%ADD115R,0.063800X0.040200*%
%ADD116R,0.023600X0.022000*%
%ADD117R,0.012600X0.032300*%
%ADD118R,0.016500X0.032300*%
%ADD119R,0.087400X0.059800*%
%ADD120R,0.022000X0.023600*%
%ADD121R,0.039600X0.020100*%
G04~CAMADD=122~8~0.0~0.0~307.0~268.0~36.0~0.0~15~0.0~0.0~0.0~0.0~0~0.0~0.0~0.0~0.0~0~0.0~0.0~0.0~270.0~268.0~306.0*
%ADD122D122*%
G04~CAMADD=123~8~0.0~0.0~520.0~307.0~41.0~0.0~15~0.0~0.0~0.0~0.0~0~0.0~0.0~0.0~0.0~0~0.0~0.0~0.0~90.0~306.0~519.0*
%ADD123D123*%
G04~CAMADD=124~8~0.0~0.0~307.0~268.0~36.0~0.0~15~0.0~0.0~0.0~0.0~0~0.0~0.0~0.0~0.0~0~0.0~0.0~0.0~0.0~307.0~268.0*
%ADD124D124*%
%ADD125R,0.048000X0.048000*%
%ADD126R,0.059800X0.063800*%
G04~CAMADD=127~8~0.0~0.0~744.0~221.0~111.0~0.0~15~0.0~0.0~0.0~0.0~0~0.0~0.0~0.0~0.0~0~0.0~0.0~0.0~90.0~222.0~743.0*
%ADD127D127*%
%ADD128R,0.022100X0.074400*%
%ADD129R,0.010600X0.021500*%
%ADD130R,0.010600X0.024400*%
%ADD131R,0.024400X0.010600*%
%ADD132R,0.010600X0.134600*%
%ADD133R,0.010600X0.026400*%
%ADD134R,0.013800X0.093700*%
%ADD135R,0.040200X0.020500*%
%ADD136R,0.067700X0.048000*%
%ADD137R,0.028300X0.036200*%
%ADD138R,0.028300X0.024400*%
%ADD139R,0.036200X0.028300*%
%ADD140R,0.024400X0.028300*%
%ADD141R,0.012600X0.034300*%
%ADD142R,0.034300X0.012600*%
%ADD143R,0.146500X0.146500*%
%ADD144R,0.065700X0.063800*%
%ADD145R,0.065700X0.071700*%
%ADD146C,0.040200*%
%ADD147R,0.048000X0.067700*%
%ADD148R,0.020500X0.040200*%
%ADD149R,0.055900X0.048000*%
%ADD150R,0.073600X0.111000*%
%ADD151R,0.111000X0.095300*%
G04~CAMADD=152~8~0.0~0.0~520.0~307.0~41.0~0.0~15~0.0~0.0~0.0~0.0~0~0.0~0.0~0.0~0.0~0~0.0~0.0~0.0~180.0~520.0~306.0*
%ADD152D152*%
%ADD153R,0.038500X0.044300*%
%ADD154R,0.024400X0.016500*%
%ADD155R,0.024400X0.008700*%
%ADD156R,0.008700X0.028300*%
G04~CAMADD=157~8~0.0~0.0~224.0~205.0~29.0~0.0~15~0.0~0.0~0.0~0.0~0~0.0~0.0~0.0~0.0~0~0.0~0.0~0.0~270.0~204.0~224.0*
%ADD157D157*%
%ADD158R,0.030300X0.012600*%
%ADD159R,0.017300X0.009800*%
%ADD160R,0.059800X0.048000*%
%ADD161R,0.089400X0.093300*%
%ADD162R,0.067700X0.032300*%
%ADD163R,0.008700X0.030300*%
%ADD164R,0.030300X0.008700*%
%ADD165R,0.032300X0.012600*%
%ADD166R,0.032300X0.020500*%
%ADD167R,0.131500X0.166100*%
%ADD168R,0.048000X0.024400*%
%ADD169R,0.024400X0.055900*%
%ADD170R,0.009800X0.040200*%
%ADD171R,0.053900X0.073600*%
%ADD172R,0.044300X0.038500*%
G04~CAMADD=173~8~0.0~0.0~126.0~244.0~23.0~0.0~15~0.0~0.0~0.0~0.0~0~0.0~0.0~0.0~0.0~0~0.0~0.0~0.0~270.0~244.0~126.0*
%ADD173D173*%
G04~CAMADD=174~8~0.0~0.0~87.0~224.0~24.0~0.0~15~0.0~0.0~0.0~0.0~0~0.0~0.0~0.0~0.0~0~0.0~0.0~0.0~0.0~87.0~224.0*
%ADD174D174*%
%ADD175R,0.142500X0.142500*%
%ADD176R,0.032300X0.030300*%
%ADD177R,0.034300X0.034300*%
%ADD178R,0.016500X0.023000*%
%ADD179R,0.071700X0.089400*%
%ADD180R,0.008700X0.023000*%
%ADD181R,0.032300X0.032300*%
%ADD182R,0.020500X0.059100*%
%ADD183R,0.070100X0.070100*%
%ADD184R,0.048000X0.059800*%
%ADD185R,0.039400X0.134600*%
%ADD186R,0.019300X0.020100*%
%ADD187R,0.099200X0.142500*%
%ADD188R,0.061400X0.063800*%
%ADD189R,0.200000X0.150400*%
%ADD190R,0.113000X0.113000*%
%ADD191R,0.057900X0.071700*%
%ADD192R,0.036200X0.026400*%
%ADD193O,0.050000X0.079500*%
%ADD194C,0.016500*%
%ADD195C,0.000800*%
%ADD196O,0.048000X0.067700*%
%ADD197O,0.048000X0.075600*%
%ADD198C,0.118900*%
%ADD199C,0.018500*%
%LNmain_board-1*%
%LPD*%
G54D25*
X02748Y01413D03*
X02668Y01376D03*
Y0145D03*
G54D106*
X0247Y02712D03*
X03103Y02213D03*
X03142Y02112D03*
X03092Y01285D03*
X02459Y01178D03*
X03346Y02003D03*
G54D107*
X02637Y013D03*
X03413Y01627D03*
X03469Y04476D03*
X02676Y02575D03*
X03043Y04476D03*
X02675Y01968D03*
X03047Y02606D03*
X04051Y01866D03*
G54D108*
X03956Y0134D03*
X03996D03*
G54D109*
X04036Y0134D03*
X03916D03*
G54D110*
X03868Y0134D03*
X04084D03*
G54D111*
X02919Y03883D03*
X02726D03*
G54D112*
X02669Y01482D03*
Y01517D03*
X03503Y02218D03*
Y02183D03*
X03402Y02218D03*
Y02183D03*
X02531Y02192D03*
Y02228D03*
X04338Y01242D03*
X04252D03*
X04208D03*
X02865Y01889D03*
X04145Y01848D03*
X04889Y02232D03*
X04145Y01883D03*
X04535Y01277D03*
X04578D03*
X04492D03*
X04448D03*
X04295Y01242D03*
X04582Y0223D03*
X04925Y02232D03*
X04684Y02565D03*
X03841Y01789D03*
X02889Y03779D03*
X04208Y01206D03*
X04338D03*
X04448Y01242D03*
X04578D03*
X03208Y01456D03*
X0342Y01498D03*
X02842Y0299D03*
X03841Y01824D03*
X0346Y01498D03*
X04252Y01206D03*
X04295D03*
X04535Y01242D03*
X04492D03*
X029Y01854D03*
X02865D03*
X02842Y02954D03*
X02889D03*
Y03744D03*
X0346Y01462D03*
X0342D03*
X04684Y0253D03*
X04889Y02267D03*
X04925D03*
X02889Y0299D03*
X02677Y021D03*
Y02065D03*
X04582Y02194D03*
X03208Y01492D03*
X029Y01889D03*
G54D113*
X03869Y01507D03*
Y01482D03*
Y01456D03*
X03951D03*
Y01482D03*
Y01507D03*
G54D114*
X0391Y01482D03*
G54D115*
X04146Y02538D03*
X04001D03*
Y02469D03*
X04146D03*
X04001Y02607D03*
X04146D03*
X04402D03*
Y02469D03*
X04256Y02538D03*
Y02469D03*
Y02607D03*
X04402Y02538D03*
G54D116*
X0392Y02618D03*
X0389D03*
X02768Y01692D03*
X03176Y01602D03*
X04592Y02342D03*
X04593Y02448D03*
X04555Y02638D03*
X03798Y01791D03*
X04487Y01566D03*
X02996Y01799D03*
X03026Y01838D03*
X03613Y01568D03*
X03146Y01602D03*
Y01563D03*
X02798Y01692D03*
X03768Y01791D03*
X03582Y01568D03*
X02913Y01775D03*
X02882D03*
X03176Y01563D03*
X04457Y01566D03*
X04586Y02638D03*
X03026Y01799D03*
X02996Y01838D03*
X04623Y02342D03*
X04624Y02448D03*
G54D117*
X03761Y02769D03*
X03742D03*
X0323D03*
X03289D03*
X03781D03*
X03722D03*
X03702D03*
X03683D03*
X03663D03*
X03643D03*
X0325D03*
X0386D03*
X0382D03*
X03309D03*
X03171D03*
X03466D03*
X03446D03*
X03427D03*
X03407D03*
X03387D03*
X03368D03*
X03348D03*
X03328D03*
X0321D03*
X03624D03*
X03604D03*
X03584D03*
X03564D03*
X03545D03*
X03525D03*
X03505D03*
X03486D03*
X03801D03*
X0384D03*
X03269D03*
X03092D03*
X03112D03*
X03131D03*
X03151D03*
X0319D03*
X03596Y01409D03*
X03576D03*
Y01527D03*
X03537Y01409D03*
Y01527D03*
X03557D03*
X03596D03*
X03557Y01409D03*
G54D118*
X03053Y0267D03*
X03899D03*
G54D119*
X03648Y0118D03*
Y01345D03*
G54D120*
X0436Y01622D03*
Y01591D03*
X04279Y01342D03*
Y01373D03*
X03464Y02215D03*
Y02185D03*
X03815Y01909D03*
Y0194D03*
X04315Y01566D03*
Y01597D03*
X04275Y02225D03*
X04881Y0267D03*
X02637Y02398D03*
X04881Y0264D03*
X0272Y01755D03*
X04847Y0219D03*
X0446Y02557D03*
X04767Y02594D03*
X02677Y02428D03*
X02637Y02428D03*
X02472Y03039D03*
X02716Y02428D03*
X02752Y03039D03*
X04279Y01433D03*
Y01535D03*
X03881Y01791D03*
X04275Y02255D03*
X02594Y02063D03*
X02716Y02398D03*
X0272Y01725D03*
X02677Y02397D03*
X02818Y01519D03*
X03881Y01822D03*
X03677Y01441D03*
Y01472D03*
X04847Y0222D03*
X02472Y0307D03*
X02752Y0307D03*
X02818Y01488D03*
X0446Y02527D03*
X02594Y02094D03*
X04767Y02563D03*
X04279Y01464D03*
Y01504D03*
G54D121*
X046Y01437D03*
X04692D03*
G54D122*
X0428Y01295D03*
X04335D03*
X03204Y01996D03*
X03259D03*
X02535Y02397D03*
X04592Y02279D03*
X0248Y02397D03*
Y02626D03*
X02708Y0298D03*
X02633Y03322D03*
X02893Y03304D03*
X02763Y01578D03*
X02818D03*
X02578Y03322D03*
X02838Y03304D03*
X02763Y0298D03*
X04647Y02279D03*
X02535Y02626D03*
X03976Y01795D03*
X03921D03*
X02472Y0296D03*
X02527D03*
G54D123*
X03752Y01409D03*
X03822D03*
X03Y01972D03*
X0307D03*
Y01897D03*
X03D03*
G54D124*
X04408Y013D03*
Y01245D03*
X04534Y02155D03*
Y0221D03*
X04474Y02426D03*
Y02371D03*
X04537Y01507D03*
X02594Y02397D03*
X03539Y01968D03*
X03594D03*
X03744Y01488D03*
X02594Y02452D03*
X04228Y01389D03*
X04537Y01563D03*
X02539Y02039D03*
X02734Y03109D03*
X02468Y03126D03*
X03744Y01543D03*
X03539Y01913D03*
X03594D03*
X02539Y02094D03*
X04228Y01444D03*
X02468Y03181D03*
X02734Y03164D03*
G54D125*
X02783Y02846D03*
Y02767D03*
G54D126*
X02911Y02807D03*
G54D127*
X02941Y03054D03*
X02891Y03236D03*
X02841Y03054D03*
X02891D03*
X02841Y03236D03*
X02791D03*
X02941D03*
X02677Y03055D03*
X02627Y03237D03*
Y03055D03*
X02577Y03237D03*
Y03055D03*
X02527Y03237D03*
X02677D03*
G54D128*
X02791Y03054D03*
X02527Y03055D03*
G54D129*
X02988Y01608D03*
Y01722D03*
G54D130*
X03048Y0161D03*
X02927D03*
Y0172D03*
X03048D03*
G54D131*
X02893Y01635D03*
Y01655D03*
Y01675D03*
Y01694D03*
X03082D03*
Y01675D03*
Y01655D03*
Y01635D03*
G54D132*
X02945Y01665D03*
X02966D03*
X03009D03*
X0303D03*
G54D133*
X02907Y01611D03*
X03068D03*
Y01719D03*
X02907D03*
G54D134*
X02988Y01665D03*
G54D135*
X0259Y01905D03*
Y01874D03*
Y01618D03*
Y01649D03*
Y01681D03*
Y01712D03*
Y01456D03*
Y01425D03*
G54D136*
X02513Y01956D03*
Y01822D03*
Y01566D03*
Y01763D03*
Y01374D03*
Y01507D03*
G54D137*
X04401Y02073D03*
Y02309D03*
G54D138*
X04351Y02152D03*
X04351Y02191D03*
X04351Y0223D03*
G54D139*
X03347Y02098D03*
X03583D03*
G54D140*
X03425Y02147D03*
X03465Y02147D03*
X03504Y02147D03*
G54D141*
X02736Y02141D03*
Y02334D03*
X02696D03*
X02598Y02141D03*
Y02334D03*
X02618D03*
X02677Y02141D03*
X02716Y02334D03*
X02657D03*
X02618Y02141D03*
X02677Y02334D03*
X02637Y02141D03*
Y02334D03*
X02657Y02141D03*
X02696D03*
X02716D03*
X04748Y02309D03*
X04807D03*
X04787Y02502D03*
X04807D03*
X04728Y02309D03*
Y02502D03*
X04748D03*
X04826D03*
X04846D03*
X04787Y02309D03*
X04767D03*
X04846D03*
X04767Y02502D03*
X04826Y02309D03*
G54D142*
X02763Y02169D03*
Y02189D03*
Y02208D03*
Y02228D03*
Y02248D03*
Y02267D03*
X0257D03*
X02763Y02307D03*
Y02287D03*
X0257Y02307D03*
Y02189D03*
Y02287D03*
Y02169D03*
Y02248D03*
Y02228D03*
Y02208D03*
X0469Y02366D03*
Y02385D03*
X04883D03*
Y02405D03*
Y02444D03*
Y02464D03*
X0469D03*
X04883Y02346D03*
Y02366D03*
Y02425D03*
X0469Y02405D03*
Y02425D03*
Y02444D03*
Y02346D03*
G54D143*
X02667Y02238D03*
G54D144*
X02897Y04479D03*
G54D145*
X02584Y04111D03*
Y04276D03*
Y04395D03*
X02897Y04111D03*
Y04276D03*
Y04389D03*
G54D146*
X0406Y04478D03*
X03552Y04478D03*
X04002D03*
X04119D03*
X03885D03*
X04177Y04479D03*
X03943Y04478D03*
X0361Y04478D03*
X04235Y0448D03*
X03668Y04478D03*
G54D147*
X0242Y03492D03*
X02553D03*
X04026Y0208D03*
X04223D03*
X04402Y01785D03*
X04205D03*
X02917Y02592D03*
X02783D03*
G54D148*
X02471Y03415D03*
X02502D03*
X04077Y02157D03*
X04109D03*
X0414D03*
X04172D03*
X04351Y01708D03*
X0432D03*
X04288D03*
X04257D03*
X02834Y02669D03*
X02866D03*
X02974Y02096D03*
G54D149*
X04519Y0251D03*
X04606Y02577D03*
X04519D03*
X04606Y0251D03*
G54D150*
X05007Y02324D03*
Y02486D03*
G54D151*
X02673Y03661D03*
Y03409D03*
X02874D03*
Y03661D03*
G54D152*
X02641Y02948D03*
Y02878D03*
X03227Y01799D03*
Y01869D03*
X03866Y01929D03*
Y01999D03*
X02716Y02811D03*
X04767Y01452D03*
X03929Y01929D03*
X04767Y01523D03*
X03425Y01798D03*
X035D03*
X03799Y01472D03*
X02716Y0274D03*
X03929Y01999D03*
X03152Y01869D03*
X03799Y01543D03*
X03425Y01728D03*
X035D03*
X03152Y01799D03*
X03503Y01332D03*
Y01261D03*
G54D153*
X02563Y02883D03*
Y0283D03*
X02475Y02207D03*
Y02154D03*
X04791Y02159D03*
Y02212D03*
G54D154*
X02692Y01268D03*
X02779Y01301D03*
Y01268D03*
Y01205D03*
Y01173D03*
X02692D03*
Y01301D03*
Y01205D03*
G54D155*
X02779Y01245D03*
X02692D03*
Y01229D03*
X02779D03*
G54D156*
X04224Y02888D03*
X0424D03*
X03594Y04227D03*
Y04348D03*
X0361Y04227D03*
Y04348D03*
X03626Y04227D03*
Y04348D03*
X03641Y04227D03*
Y04348D03*
X03657Y04227D03*
Y04348D03*
X03673Y04227D03*
Y04348D03*
X03689Y04227D03*
Y04348D03*
X03704Y04227D03*
Y04348D03*
X0372Y04227D03*
Y04348D03*
X03736Y04227D03*
Y04348D03*
X03752Y04227D03*
Y04348D03*
X03767Y04227D03*
Y04348D03*
X03783Y04227D03*
Y04348D03*
X03799Y04227D03*
Y04348D03*
X03815Y04227D03*
Y04348D03*
X0383Y04227D03*
Y04348D03*
X03846Y04227D03*
Y04348D03*
X03862Y04227D03*
Y04348D03*
X03878Y04227D03*
Y04348D03*
X03893Y04227D03*
Y04348D03*
X03909Y04227D03*
Y04348D03*
X03925Y04227D03*
Y04348D03*
X0394Y04227D03*
Y04348D03*
X03956Y04227D03*
Y04348D03*
X03972Y04227D03*
Y04348D03*
X03988Y04227D03*
Y04348D03*
X04003Y04227D03*
Y04348D03*
X04019Y04227D03*
Y04348D03*
X04035Y04227D03*
Y04348D03*
X04051Y04227D03*
Y04348D03*
X04066Y04227D03*
Y04348D03*
X04082Y04227D03*
Y04348D03*
X03878Y02888D03*
Y03009D03*
X03893Y02888D03*
Y03009D03*
X03909Y02888D03*
Y03009D03*
X03925Y02888D03*
Y03009D03*
X0394Y02888D03*
Y03009D03*
X03956Y02888D03*
Y03009D03*
X03972Y02888D03*
Y03009D03*
X03988Y02888D03*
Y03009D03*
X04003Y02888D03*
Y03009D03*
X04019Y02888D03*
Y03009D03*
X04035Y02888D03*
Y03009D03*
X04051Y02888D03*
Y03009D03*
X04066Y02888D03*
Y03009D03*
X04082Y02888D03*
Y03009D03*
X04098Y02888D03*
Y03009D03*
X04114Y02888D03*
Y03009D03*
X04129Y02888D03*
Y03009D03*
X04145Y02888D03*
Y03009D03*
X04161Y02888D03*
Y03009D03*
X04177Y02888D03*
Y03009D03*
X04192Y02888D03*
Y03009D03*
X04208Y02888D03*
Y03009D03*
X04224D03*
X0424D03*
X04255Y02888D03*
Y03009D03*
X04271Y02888D03*
Y03009D03*
X04287Y02888D03*
Y03009D03*
X04303Y02888D03*
Y03009D03*
X04318Y02888D03*
Y03009D03*
X04334Y02888D03*
Y03009D03*
X0435Y02888D03*
Y03009D03*
X03578Y04227D03*
Y04348D03*
Y02888D03*
Y03009D03*
X03594Y02888D03*
Y03009D03*
X0361Y02888D03*
Y03009D03*
X03626Y02888D03*
Y03009D03*
X03641Y02888D03*
Y03009D03*
X03657Y02888D03*
Y03009D03*
X03673Y02888D03*
Y03009D03*
X03689Y02888D03*
Y03009D03*
X03704Y02888D03*
Y03009D03*
X0372Y02888D03*
Y03009D03*
X03736Y02888D03*
Y03009D03*
X03752Y02888D03*
Y03009D03*
X03767Y02888D03*
Y03009D03*
X03783Y02888D03*
Y03009D03*
X03799Y02888D03*
Y03009D03*
X03815Y02888D03*
Y03009D03*
X0383Y02888D03*
Y03009D03*
X03846Y02888D03*
Y03009D03*
X03862Y02888D03*
Y03009D03*
X04098Y04227D03*
Y04348D03*
X04114Y04227D03*
Y04348D03*
X04129Y04227D03*
Y04348D03*
X04145Y04227D03*
Y04348D03*
X04161Y04227D03*
Y04348D03*
X04177Y04227D03*
Y04348D03*
X04192Y04227D03*
Y04348D03*
X04208Y04227D03*
Y04348D03*
X0435D03*
Y04227D03*
X04334Y04348D03*
Y04227D03*
X04318Y04348D03*
Y04227D03*
X04303Y04348D03*
Y04227D03*
X04287Y04348D03*
Y04227D03*
X04271Y04348D03*
Y04227D03*
X04255Y04348D03*
Y04227D03*
X0424Y04348D03*
Y04227D03*
X04224Y04348D03*
Y04227D03*
G54D157*
X04269Y02185D03*
X04305D03*
X02765Y01811D03*
X04305Y02141D03*
X03913Y01862D03*
X03009Y02051D03*
X04614Y02153D03*
X04168Y02672D03*
X04235D03*
X02765Y01771D03*
X0318Y01666D03*
X02765Y01653D03*
X04412Y02412D03*
X04702Y02126D03*
X02599Y03781D03*
X04064Y0237D03*
X04269Y02141D03*
X03439Y01405D03*
X03461Y01549D03*
X02752Y02393D03*
X02765Y01732D03*
X02801D03*
X03878Y01862D03*
X02661Y02992D03*
X02634Y03781D03*
X04376Y02412D03*
X04028Y0237D03*
X0427Y02672D03*
X04132D03*
X04738Y02126D03*
X02626Y02992D03*
X03144Y01666D03*
X02787Y02393D03*
X02801Y01653D03*
Y01771D03*
Y01811D03*
X03474Y01405D03*
X03497Y01549D03*
X04578Y02153D03*
X02974Y02051D03*
G54D158*
X04924Y01645D03*
X04997D03*
X04924Y02039D03*
X04997D03*
X0466Y01645D03*
X04733D03*
X0466Y02039D03*
X04733D03*
G54D159*
X04917Y01976D03*
Y01992D03*
X05003Y01976D03*
Y01992D03*
X04917Y01724D03*
Y0174D03*
X05003Y01692D03*
Y01708D03*
X04917Y01818D03*
Y01755D03*
Y01866D03*
Y01913D03*
Y0196D03*
X05003Y01913D03*
Y01881D03*
Y01897D03*
Y0196D03*
Y01944D03*
Y01929D03*
X04917Y0185D03*
X05003Y01787D03*
Y01803D03*
Y0174D03*
Y01724D03*
Y01755D03*
Y01771D03*
Y01834D03*
Y0185D03*
X04917Y01881D03*
Y01897D03*
Y01929D03*
Y01944D03*
Y01803D03*
Y01771D03*
Y01787D03*
Y01834D03*
Y01708D03*
X05003Y01866D03*
Y01818D03*
X04917Y01692D03*
X04654Y01976D03*
X0474D03*
X04654Y01992D03*
X0474D03*
X04654Y01944D03*
Y0196D03*
X0474Y01929D03*
Y01944D03*
Y01881D03*
Y01897D03*
X04654Y01692D03*
Y01708D03*
Y01803D03*
Y01787D03*
X0474Y01755D03*
Y0174D03*
Y01803D03*
Y01834D03*
Y01818D03*
Y01787D03*
Y01771D03*
X04654Y01913D03*
Y01929D03*
Y01866D03*
X0474Y0185D03*
Y01866D03*
X04654Y01881D03*
Y01897D03*
X0474Y0196D03*
Y01913D03*
X04654Y01724D03*
Y01755D03*
Y01771D03*
Y01834D03*
Y0185D03*
Y0174D03*
X0474Y01692D03*
Y01708D03*
Y01724D03*
X04654Y01818D03*
G54D160*
X02618Y03835D03*
Y03918D03*
G54D161*
X02492Y03761D03*
Y03954D03*
G54D162*
X02854Y02122D03*
Y02255D03*
G54D163*
X04433Y01362D03*
X04464Y01519D03*
X04448D03*
X0437Y01362D03*
X04385D03*
X04417D03*
X04448D03*
X04354Y01519D03*
X04417D03*
X04401D03*
X04385D03*
X0437D03*
X04464Y01362D03*
X04401D03*
X04354D03*
X04433Y01519D03*
G54D164*
X04488Y01401D03*
Y01448D03*
X0433Y01401D03*
Y01496D03*
X04488D03*
Y0148D03*
Y01417D03*
Y01464D03*
Y01433D03*
Y01385D03*
X0433Y01448D03*
Y01433D03*
Y01417D03*
Y0148D03*
Y01464D03*
Y01385D03*
G54D165*
X03007Y02129D03*
X03507Y01498D03*
Y01439D03*
X03649Y01842D03*
X03767Y01901D03*
X03649Y01881D03*
X0294Y02129D03*
X03649Y01862D03*
X03767D03*
X03507Y01478D03*
X03767Y01881D03*
Y01842D03*
X03626Y01498D03*
Y01439D03*
Y01458D03*
Y01478D03*
X03507Y01458D03*
X03767Y01921D03*
X03649D03*
Y01901D03*
G54D166*
X03007Y02165D03*
X0294D03*
Y02094D03*
X03007D03*
G54D167*
X04035Y01661D03*
G54D168*
X04696Y01545D03*
Y01582D03*
X04598D03*
Y01507D03*
X04696D03*
X04598Y01545D03*
G54D169*
X02462Y02458D03*
X02537D03*
X025Y02557D03*
X02537D03*
X02462D03*
G54D170*
X04759Y01384D03*
X04744D03*
X04807D03*
X04822D03*
X0487D03*
X04964D03*
X04917D03*
X05011D03*
X04996D03*
X0498D03*
X04948D03*
X04933D03*
X04901D03*
X04885D03*
X04854D03*
X04838D03*
X04775D03*
X04791D03*
X04728D03*
G54D171*
X02822Y01988D03*
X02942D03*
G54D172*
X0273Y02917D03*
X04705Y02212D03*
X02783Y02917D03*
X04652Y02212D03*
G54D173*
X04842Y02665D03*
X04771D03*
G54D174*
X04777Y02638D03*
X04836D03*
X04816D03*
X04797D03*
Y02691D03*
X04777D03*
X04836D03*
X04816D03*
G54D175*
X04787Y02405D03*
G54D176*
X04149Y01586D03*
X03921D03*
Y01736D03*
Y01686D03*
Y01636D03*
X04149D03*
Y01686D03*
Y01736D03*
G54D177*
X02712Y01644D03*
Y01575D03*
G54D178*
X0486Y01446D03*
Y01479D03*
X04974D03*
Y01446D03*
G54D179*
X03708Y01881D03*
G54D180*
X04935Y01479D03*
X04899D03*
X04879D03*
X0484D03*
X0482D03*
X05013Y01446D03*
X04994D03*
X04954D03*
X04935D03*
X04899D03*
X04879D03*
X0484D03*
X0482D03*
X05013Y01479D03*
X04994D03*
X04954D03*
G54D181*
X02775Y0207D03*
X02716D03*
G54D182*
X02974Y02153D03*
G54D183*
X03566Y01468D03*
G54D184*
X02842Y03763D03*
X02759D03*
G54D185*
X03755Y02043D03*
X03662D03*
G54D186*
X03275Y01397D03*
X0325D03*
Y01492D03*
X03326D03*
X03301D03*
X03275D03*
X03301Y01397D03*
X03326D03*
G54D187*
X02895Y0146D03*
X0308D03*
G54D188*
X03803Y01719D03*
Y01635D03*
G54D189*
X03649Y01677D03*
G54D190*
X04409Y0144D03*
G54D191*
X04143Y01484D03*
X04027D03*
G54D192*
X04227Y02226D03*
Y02301D03*
X04132Y02263D03*
Y02301D03*
Y02226D03*
G54D193*
X03806Y01172D03*
Y0132D03*
X04146D03*
Y01172D03*
G54D194*
X04913Y0448D03*
Y04374D03*
X04559D03*
Y0448D03*
X03267Y04374D03*
Y0448D03*
G54D195*
X044Y0225D03*
Y02132D03*
X03524Y02098D03*
X03406D03*
G54D196*
X04656Y01166D03*
X05083D03*
G54D197*
X04656Y01343D03*
X05083D03*
G54D198*
X05145Y02141D03*
X05239Y03996D03*
X02464Y04433D03*
G54D199*
X03885Y01271D03*
X03436Y0437D03*
X03185Y04118D03*
X03146Y03899D03*
X03966Y04444D03*
X03978Y04387D03*
X03936Y04305D03*
X0441Y01441D03*
X04446Y01477D03*
X04709Y01859D03*
Y01793D03*
X04653Y01956D03*
Y01984D03*
X02988Y0366D03*
X04358Y01649D03*
X04318Y01626D03*
X02972Y04145D03*
Y0418D03*
X02531Y04346D03*
Y04374D03*
X04066Y01299D03*
X04094D03*
X0387Y01381D03*
X03858Y01271D03*
X03885Y01244D03*
X04133Y01409D03*
X04106D03*
X04078D03*
X04133Y01381D03*
X03019Y03755D03*
X03346Y032D03*
X03389D03*
M02*