%FSTAX23Y23*%
%MOIN*%
%SFA1B1*%

%IPPOS*%
%ADD12C,0.005900*%
%LNleft_flex-1*%
%LPD*%
G54D12*
X01824Y0184D02*
D01*
X0182Y01844*
X01816Y01847*
X01811Y0185*
X01807Y01853*
X01802Y01856*
X01797Y01858*
X01792Y0186*
X01786Y01861*
X01781Y01862*
X01775Y01863*
X0177Y01863*
X01768Y01863*
X01678Y01485D02*
D01*
X01674Y01489*
X0167Y01492*
X01665Y01496*
X01661Y01499*
X01656Y01501*
X01651Y01503*
X01646Y01505*
X0164Y01507*
X01635Y01508*
X0163Y01509*
X01624Y01509*
X01621Y01509*
X-00705Y01863D02*
D01*
X-0071Y01863*
X-00716Y01862*
X-00721Y01861*
X-00726Y0186*
X-00732Y01858*
X-00737Y01856*
X-00742Y01854*
X-00747Y01851*
X-00751Y01848*
X-00755Y01845*
X-00759Y01841*
X-00761Y0184*
X02019Y01144D02*
D01*
X02023Y0114*
X02027Y01137*
X02031Y01134*
X02036Y01131*
X02041Y01128*
X02046Y01126*
X02051Y01124*
X02056Y01122*
X02061Y01121*
X02067Y0112*
X02072Y0112*
X02076Y01119*
X-00866Y01141D02*
D01*
X-00866Y0114*
X-00866Y01138*
X-00866Y01137*
X-00866Y01135*
X-00865Y01134*
X-00865Y01132*
X-00864Y01131*
X-00863Y0113*
X-00862Y01128*
X-00861Y01127*
X-0086Y01126*
X-00859Y01125*
X-00858Y01124*
X-00857Y01123*
X-00856Y01122*
X-00854Y01122*
X-00853Y01121*
X-00851Y01121*
X-0085Y0112*
X-00848Y0112*
X-00847Y0112*
X-00845Y0112*
X-00844Y01119*
X04143Y01474D02*
D01*
X04144Y01474*
X04146Y01474*
X04147Y01474*
X04149Y01475*
X0415Y01475*
X04151Y01476*
X04153Y01476*
X04154Y01477*
X04155Y01478*
X04157Y01479*
X04158Y0148*
X04159Y01481*
X-00842Y01758D02*
D01*
X-00846Y01754*
X-00849Y0175*
X-00853Y01746*
X-00856Y01741*
X-00858Y01736*
X-0086Y01731*
X-00862Y01726*
X-00864Y01721*
X-00865Y01715*
X-00866Y0171*
X-00866Y01704*
X-00866Y01701*
X-00435Y01509D02*
D01*
X-00437Y01509*
X-00438Y01509*
X-0044Y01509*
X-00441Y01508*
X-00443Y01508*
X-00444Y01507*
X-00445Y01507*
X-00447Y01506*
X-00448Y01505*
X-00449Y01504*
X-0045Y01503*
X-00451Y01502*
X-00452Y01501*
X-00453Y015*
X-00454Y01498*
X-00455Y01497*
X-00455Y01496*
X-00456Y01494*
X-00456Y01493*
X-00457Y01491*
X-00457Y0149*
X-00457Y01488*
X-00457Y01487*
X-00479Y01119D02*
D01*
X-00477Y01119*
X-00476Y0112*
X-00474Y0112*
X-00473Y0112*
X-00471Y01121*
X-0047Y01121*
X-00469Y01122*
X-00467Y01123*
X-00466Y01124*
X-00465Y01125*
X-00464Y01126*
X-00463Y01127*
X-00462Y01128*
X-00461Y01129*
X-0046Y0113*
X-00459Y01132*
X-00458Y01133*
X-00458Y01135*
X-00458Y01136*
X-00457Y01137*
X-00457Y01139*
X-00457Y01141*
X-00457Y01141*
X04216Y01529D02*
D01*
X04215Y01529*
X04213Y01529*
X04212Y01529*
X0421Y01528*
X04209Y01528*
X04207Y01527*
X04206Y01527*
X04205Y01526*
X04203Y01525*
X04202Y01524*
X04201Y01523*
X042Y01522*
X042Y01522*
X04453Y01119D02*
D01*
X04454Y01119*
X04456Y0112*
X04458Y0112*
X04459Y0112*
X04461Y01121*
X04462Y01121*
X04464Y01122*
X04465Y01123*
X04467Y01124*
X04468Y01125*
X04469Y01126*
X0447Y01127*
X04471Y01128*
X04472Y0113*
X04473Y01131*
X04474Y01133*
X04475Y01134*
X04475Y01136*
X04476Y01137*
X04476Y01139*
X04476Y01141*
X04476Y01142*
X04476Y01143*
X04476Y01507D02*
D01*
X04476Y01509*
X04476Y0151*
X04476Y01512*
X04476Y01513*
X04475Y01515*
X04475Y01516*
X04474Y01517*
X04473Y01519*
X04472Y0152*
X04471Y01521*
X0447Y01522*
X04469Y01523*
X04468Y01524*
X04467Y01525*
X04466Y01526*
X04464Y01527*
X04463Y01527*
X04461Y01528*
X0446Y01528*
X04458Y01529*
X04457Y01529*
X04455Y01529*
X04455Y01529*
X02167Y01497D02*
D01*
X02171Y01493*
X02176Y0149*
X0218Y01486*
X02185Y01484*
X0219Y01481*
X02195Y01479*
X022Y01477*
X02205Y01476*
X02211Y01475*
X02216Y01474*
X02222Y01474*
X02223Y01474*
X04476Y01143D02*
X04476Y01507D01*
X-00705Y01863D02*
X01768D01*
X-00866Y01142D02*
Y01701D01*
X04215Y01529D02*
X04456D01*
X042Y01522D02*
D01*
X04159Y01481D02*
X042Y01522D01*
X01678Y01485D02*
D01*
X02076Y01119D02*
X04453D01*
X02223Y01474D02*
X04143D01*
X-00457Y01487D02*
Y0114D01*
X-00761Y0184D02*
D01*
X-00842Y01758D02*
X-00761Y0184D01*
X-00435Y01509D02*
X01621D01*
X01824Y0184D02*
X02167Y01497D01*
X01678Y01485D02*
X02019Y01144D01*
X-00844Y01119D02*
X-00478D01*
M02*