%FSTAX23Y23*%
%MOIN*%
%SFA1B1*%

%IPPOS*%
%ADD11C,0.007900*%
%ADD13R,0.023600X0.009100*%
%ADD15C,0.009800*%
%ADD16C,0.009100*%
%ADD17C,0.002000*%
%ADD18C,0.006700*%
%ADD19C,0.005900*%
%ADD20C,0.004700*%
%ADD21C,0.013800*%
%LNright_flex-1*%
%LPD*%
G36*
X01719Y01582D02*
X0175D01*
X0175Y01582*
X01751Y01581*
X01752Y01579*
Y01532*
X0174*
X0174Y01532*
X01713*
X01707Y01531*
X01707*
X01684*
X0168Y0153*
X01678Y01533*
X01677Y01534*
X01677Y01534*
Y01592*
X01678Y01595*
X0168Y01597*
X01683Y01598*
X01719*
Y01582*
G37*
G36*
X02207Y01597D02*
X02209Y01595D01*
X0221Y01592*
Y0159*
Y01535*
Y01533*
X02209Y01531*
X02207Y01528*
X02204Y01527*
X022*
X02199Y01528*
X02194Y01531*
X02193Y01531*
X02188Y01532*
X02135*
Y01578*
Y01579*
X02136Y01581*
X02137Y01582*
X02137Y01582*
X02167*
Y01598*
X02204*
X02207Y01597*
G37*
G54D11*
X02061Y01298D02*
X02062Y01297D01*
X01819D02*
X01824Y01302D01*
X02087Y01549D02*
Y01565D01*
Y01581D02*
Y01596D01*
Y01565D02*
Y01581D01*
Y01596D02*
X02145D01*
G54D13*
X01799Y01266D03*
X0174D03*
X01799Y01596D03*
X0174D03*
X01799Y01281D03*
X0174D03*
X01799Y01297D03*
X0174D03*
Y01313D03*
Y01329D03*
X01799Y01344D03*
X0174D03*
X01799Y0136D03*
X0174D03*
X01799Y01376D03*
X0174D03*
X01799Y01392D03*
X0174D03*
X01799Y01407D03*
X0174D03*
Y01423D03*
Y01439D03*
X01799Y01455D03*
X0174D03*
X01799Y0147D03*
X0174D03*
X01799Y01486D03*
X0174D03*
X01799Y01502D03*
X0174D03*
Y01518D03*
Y01533D03*
X01799Y01549D03*
X0174D03*
X01799Y01565D03*
X0174D03*
X01799Y01581D03*
X0174D03*
X01799Y01439D03*
Y01423D03*
Y01533D03*
Y01518D03*
Y01329D03*
Y01313D03*
X02087Y01581D03*
X02145D03*
X02087Y01565D03*
X02145D03*
X02087Y01549D03*
X02145D03*
X02087Y01533D03*
X02145D03*
X02087Y01518D03*
X02145D03*
X02087Y01502D03*
X02145D03*
X02087Y01486D03*
X02145D03*
X02087Y0147D03*
X02145D03*
X02087Y01455D03*
X02145D03*
X02087Y01439D03*
X02145D03*
X02087Y01423D03*
X02145D03*
X02087Y01407D03*
X02145D03*
X02087Y01392D03*
X02145D03*
X02087Y01376D03*
X02145D03*
X02087Y0136D03*
X02145D03*
X02087Y01344D03*
X02145D03*
X02087Y01329D03*
X02145D03*
X02087Y01313D03*
X02145D03*
X02087Y01297D03*
X02145D03*
X02087Y01281D03*
X02145D03*
X02087Y01596D03*
X02145D03*
X02087Y01266D03*
X02145D03*
G54D15*
X02153Y01604D02*
X02156Y01609D01*
X02144Y01609D02*
X02152Y01601D01*
X02152Y016D02*
X02153Y01604D01*
X02118Y016D02*
X02152D01*
X02126D02*
X02136Y01609D01*
X02118Y01592D02*
X02126Y016D01*
X02118Y01568D02*
Y01584D01*
Y016*
Y0153D02*
Y01545D01*
Y01561D02*
Y01568D01*
Y01521D02*
Y0153D01*
Y01545*
Y01561D02*
Y01568D01*
Y01584*
Y01561D02*
Y01568D01*
X02116Y01609D02*
X02126Y016D01*
X02088Y01609D02*
X02118Y0158D01*
Y01553D02*
Y01561D01*
Y01553D02*
Y01561D01*
X02079Y01553D02*
X02118Y01592D01*
X02061Y01609D02*
X02118Y01552D01*
X02107Y01553D02*
X02118Y01564D01*
X02113Y01529D02*
X02118Y01524D01*
X02113Y01531D02*
X02118Y01536D01*
Y01514D02*
Y01521D01*
Y01514D02*
Y01521D01*
Y01545D02*
Y01553D01*
Y01545D02*
Y01553D01*
Y01545D02*
Y01553D01*
X02195Y01503D02*
X02207Y01491D01*
X02195Y01501D02*
X02206Y01512D01*
X02194Y01476D02*
X02207Y01463D01*
X02194Y01473D02*
X02207Y01486D01*
X02195Y01491D02*
Y01513D01*
X02194Y01513D02*
X022Y01512D01*
X02204*
X02207Y01436D02*
Y01513D01*
X02194Y01445D02*
X02207Y01458D01*
X02198Y01445D02*
X02207Y01436D01*
X02194Y01445D02*
X02198D01*
X02194Y01459D02*
Y01481D01*
X02194Y01445D02*
Y0145D01*
Y01448D02*
X02197Y01445D01*
X02191Y01515D02*
X02194Y01513D01*
X02189Y01486D02*
X02195Y01491D01*
X02189Y01486D02*
X02194Y01481D01*
X02189Y01454D02*
X02194Y01459D01*
X02113Y01501D02*
X02118Y01496D01*
X02113Y01503D02*
X02118Y01508D01*
Y01451D02*
Y01458D01*
X02189Y01454D02*
X02194Y0145D01*
X02118Y01451D02*
Y01458D01*
Y01443D02*
Y01451D01*
X02113Y01448D02*
X02118Y01453D01*
Y01427D02*
Y01443D01*
X02113Y01445D02*
X02118Y0144D01*
Y01427D02*
Y01443D01*
X02113Y01537D02*
Y01553D01*
X0206D02*
X02113D01*
Y01514D02*
Y01537D01*
Y01514D02*
Y01537D01*
X02043Y01545D02*
X02108Y01609D01*
X02033D02*
X02089Y01553D01*
X0206Y01545D02*
Y01553D01*
X02118Y0149D02*
Y01514D01*
X02113Y01505D02*
Y01514D01*
Y01498D02*
Y01505D01*
Y01498D02*
Y01505D01*
X02053Y01506D02*
X0206Y01499D01*
X02025Y01506D02*
X02033Y01498D01*
X02052D02*
X0206Y01506D01*
X02016Y01545D02*
X0208Y01609D01*
X01988Y01545D02*
X02052Y01609D01*
X02005D02*
X02062Y01553D01*
X01977Y01609D02*
X02042Y01545D01*
X0196D02*
X02024Y01609D01*
X0196Y01545D02*
X02024Y01609D01*
X01949D02*
X02014Y01545D01*
X01996Y01498D02*
X02004Y01506D01*
X01969D02*
X01977Y01498D01*
X02024D02*
X02032Y01506D01*
X01997D02*
X02005Y01498D01*
X01941Y01506D02*
X0195Y01498D01*
X0194D02*
X01949Y01506D01*
X01968Y01498D02*
X01977Y01506D01*
X02118Y01482D02*
Y0149D01*
Y01482D02*
Y0149D01*
X02113Y01473D02*
X02118Y01468D01*
X02113Y01476D02*
X02118Y0148D01*
X02113Y01467D02*
Y0149D01*
Y01498*
Y01467D02*
Y0149D01*
X02118Y01458D02*
Y01482D01*
X02113Y01458D02*
Y01467D01*
X02118Y01419D02*
Y01427D01*
Y01419D02*
Y01427D01*
X02113Y01451D02*
Y01458D01*
Y01451D02*
Y01458D01*
Y01443D02*
Y01451D01*
X0206Y01498D02*
Y01505D01*
Y01498D02*
Y01505D01*
Y01451D02*
Y01458D01*
Y01451D02*
Y01458D01*
X02032Y0145D02*
X02041Y01459D01*
X02016D02*
X02025Y0145D01*
X02044Y01459D02*
X02053Y0145D01*
X01989Y01459D02*
X01997Y0145D01*
X01977D02*
X01985Y01459D01*
X02113Y0142D02*
X02118Y01425D01*
X02005Y0145D02*
X02013Y01459D01*
X01949Y0145D02*
X01957Y01459D01*
X01933D02*
X01941Y0145D01*
X01961Y01459D02*
X01969Y0145D01*
X02118Y01395D02*
Y01404D01*
Y01411*
Y01388D02*
Y01395D01*
Y01404*
Y01411D02*
Y01419D01*
Y01427*
Y01411D02*
Y01419D01*
X02207Y01368D02*
Y01379D01*
X022Y01372D02*
X02207Y01379D01*
X02204Y01371D02*
X02207Y01374D01*
X02203Y01372D02*
X02207Y01368D01*
X02195Y01372D02*
X022D01*
X02118Y0138D02*
Y01388D01*
X022Y01372D02*
X02203D01*
X02118Y0138D02*
Y01388D01*
X02113Y01392D02*
X02118Y01397D01*
Y01372D02*
Y0138D01*
Y01372D02*
Y0138D01*
Y01404D02*
Y01411D01*
X02113Y01417D02*
X02118Y01413D01*
Y01404D02*
Y01411D01*
Y01356D02*
Y01364D01*
Y01372*
Y01356D02*
Y01364D01*
Y01356D02*
Y01364D01*
Y01372*
Y0138*
X02113Y01364D02*
X02118Y01369D01*
X02207Y01311D02*
Y01332D01*
X02203Y01328D02*
X02207Y01332D01*
X02203Y01315D02*
X02207Y01319D01*
X02203Y01328D02*
X02207Y01324D01*
X02195Y01324D02*
Y01328D01*
X02203*
X02194Y0132D02*
X02198D01*
Y01276D02*
X02207Y01284D01*
X02198Y0132D02*
X02207Y01311D01*
X02207Y01259D02*
X02207Y01284D01*
X02199Y01276D02*
X02207Y01268D01*
X02198Y01268D02*
Y01276D01*
X02197Y01253D02*
X02207Y01263D01*
X02189Y01258D02*
X02194Y01253D01*
X02118Y01332D02*
Y01341D01*
X02113Y01336D02*
X02118Y01341D01*
X0216Y01262D02*
X02165Y01257D01*
X02118Y01262D02*
X0216D01*
X02118Y01341D02*
Y01356D01*
X02113Y01362D02*
X02118Y01357D01*
Y01341D02*
Y01356D01*
X02187Y01257D02*
X02198Y01268D01*
X02158Y01262D02*
X02166Y01253D01*
X02169D02*
X02173Y01257D01*
X02165D02*
X02187D01*
X0213Y01262D02*
X02139Y01253D01*
X02113D02*
X02122Y01262D01*
X02141Y01253D02*
X0215Y01262D01*
X02118Y01388D02*
Y01395D01*
X02113D02*
Y01404D01*
X02118Y01388D02*
Y01395D01*
X02113Y0139D02*
X02118Y01385D01*
X02113Y01419D02*
Y01443D01*
Y01419D02*
Y01443D01*
Y01411D02*
Y01419D01*
X02118Y01317D02*
Y01325D01*
Y01332*
Y01301D02*
Y01317D01*
Y01301D02*
Y01317D01*
X02113Y0138D02*
Y01395D01*
Y0138D02*
Y01395D01*
X02118Y01325D02*
Y01332D01*
X02113Y01372D02*
Y0138D01*
Y01372D02*
Y0138D01*
Y01356D02*
Y01372D01*
Y01356D02*
Y01372D01*
Y01404D02*
Y01411D01*
Y01404D02*
Y01411D01*
Y01372D02*
Y0138D01*
Y01341D02*
Y01348D01*
Y01356*
Y01334D02*
X02118Y01329D01*
X02113Y01341D02*
Y01348D01*
Y01309D02*
Y01332D01*
Y01341*
Y01309D02*
Y01332D01*
Y01306D02*
X02118Y01301D01*
X02113Y01309D02*
X02118Y01313D01*
Y01293D02*
Y01301D01*
Y01293D02*
Y01301D01*
X02113Y01293D02*
Y01301D01*
Y01309*
X02118Y01293D02*
Y01301D01*
Y01278D02*
Y01293D01*
Y01278D02*
Y01293D01*
Y01262D02*
Y01278D01*
X02113Y01281D02*
X02118Y01286D01*
X02113Y01262D02*
Y01293D01*
Y01301*
Y01278D02*
X02118Y01273D01*
X02086Y01253D02*
X02094Y01262D01*
X02074D02*
X02083Y01253D01*
X02102Y01262D02*
X02111Y01253D01*
X0206Y01262D02*
X02113D01*
X02045Y01263D02*
X02055Y01253D01*
X0203D02*
X0204Y01263D01*
X02058Y01253D02*
X02067Y01262D01*
X01989Y01263D02*
X01999Y01253D01*
X01974Y01253D02*
X01985Y01263D01*
X02017D02*
X02027Y01253D01*
X02002D02*
X02013Y01263D01*
X01946Y01253D02*
X01957Y01263D01*
X01933D02*
X01944Y01253D01*
X01961Y01263D02*
X01972Y01253D01*
X01932Y01545D02*
X01997Y01609D01*
X01904Y01545D02*
X01969Y01609D01*
X01921D02*
X01986Y01545D01*
X01894Y01609D02*
X01958Y01545D01*
X01876D02*
X01941Y01609D01*
X01825Y0155D02*
X01885Y01609D01*
X01866D02*
X0193Y01545D01*
X01801Y01553D02*
X01857Y01609D01*
X01849Y01545D02*
X01913Y01609D01*
X01838D02*
X01902Y01545D01*
X01885Y01498D02*
X01893Y01506D01*
X01825Y01545D02*
X0206D01*
X0181Y01609D02*
X01875Y01545D01*
X01782Y01609D02*
X01847Y01545D01*
X01825D02*
Y01553D01*
X01773D02*
X0183Y01609D01*
X01728D02*
X02157D01*
X01772Y01553D02*
X01825D01*
X01767Y01597D02*
X01811Y01553D01*
X01767Y01575D02*
X01802Y01609D01*
X01764Y016D02*
X01774Y01609D01*
X01767Y01569D02*
X01783Y01553D01*
X01772Y01514D02*
Y01537D01*
Y01514D02*
Y01537D01*
X01767Y01513D02*
X01772Y01508D01*
X01767Y01519D02*
X01772Y01524D01*
Y01537D02*
Y01553D01*
X01767Y01547D02*
X01772Y01552D01*
X01767Y01541D02*
X01772Y01536D01*
X01913Y01498D02*
X01921Y01506D01*
X01886D02*
X01894Y01498D01*
X01913Y01506D02*
X01922Y01498D01*
X01913D02*
X01921Y01506D01*
X01858D02*
X01866Y01498D01*
X01857D02*
X01865Y01506D01*
X01849Y01459D02*
X01858Y0145D01*
X01893D02*
X01902Y01459D01*
X01877D02*
X01886Y0145D01*
X01921D02*
X01929Y01459D01*
X01905D02*
X01913Y0145D01*
X01865D02*
X01874Y01459D01*
X01838Y0145D02*
X01846Y01459D01*
X01865Y0145D02*
X01874Y01459D01*
X0183Y01506D02*
X01838Y01498D01*
X01825Y01506D02*
X0206D01*
X01825Y01459D02*
X0206D01*
X01825Y01498D02*
X0206D01*
X01829D02*
X01837Y01506D01*
X01825Y01498D02*
Y01505D01*
Y01498D02*
Y01505D01*
Y01451D02*
Y01458D01*
Y01451D02*
Y01458D01*
Y0145D02*
X0206D01*
X01825Y01455D02*
X0183Y0145D01*
X01772Y01443D02*
Y01451D01*
Y01458D02*
Y01467D01*
X01767Y01436D02*
X01772Y0144D01*
X01767Y01561D02*
Y01568D01*
Y01561D02*
Y01568D01*
Y01553D02*
Y01561D01*
Y01568*
Y01584*
Y016*
Y01568D02*
Y01584D01*
X01772Y01498D02*
Y01505D01*
Y01514*
Y0149D02*
Y01498D01*
Y01505*
X01767Y01545D02*
Y01553D01*
Y01561*
Y01514D02*
Y01521D01*
X01754Y01609D02*
X01764Y016D01*
X01737D02*
X01746Y01609D01*
X01764Y016D02*
X01767Y01597D01*
X01733Y016D02*
X01767D01*
X01733Y01604D02*
X01733Y016D01*
X01729Y01609D02*
X01733Y01604D01*
X01733Y01603D02*
X01736Y016D01*
X01767Y01521D02*
Y0153D01*
Y01545*
Y0149D02*
Y01514D01*
Y01521*
Y01545D02*
Y01553D01*
Y01545D02*
Y01553D01*
Y0153D02*
Y01545D01*
X01772Y01467D02*
Y0149D01*
X01767Y01491D02*
X01772Y01496D01*
X01767Y01463D02*
X01772Y01468D01*
X01767Y01485D02*
X01772Y0148D01*
X01767Y01482D02*
Y0149D01*
Y01482D02*
Y0149D01*
X01772Y01467D02*
Y0149D01*
Y01451D02*
Y01458D01*
X01767D02*
Y01482D01*
X01772Y01451D02*
Y01458D01*
X01767Y01451D02*
Y01458D01*
Y01427D02*
Y01443D01*
Y01451*
Y01427D02*
Y01443D01*
X01694Y01479D02*
X01697Y01481D01*
X01686D02*
X01697D01*
X01694Y0146D02*
Y01479D01*
X01687Y0146D02*
X01694D01*
X01677Y01485D02*
X0168Y01487D01*
X01677Y0149D02*
X01686Y01481D01*
X01688D02*
X01694Y01475D01*
X01677Y0145D02*
X01687Y0146D01*
X01677Y01457D02*
X01694Y01474D01*
X01767Y01457D02*
X01772Y01453D01*
X01767Y01451D02*
Y01458D01*
X01677Y01464D02*
X01684Y01457D01*
X01677Y0149D02*
Y0145D01*
X01676Y01428D02*
Y01449D01*
X01825Y01411D02*
X0206D01*
X01772Y01404D02*
Y01411D01*
X01825Y0141D02*
X0206D01*
X01772Y01404D02*
Y01411D01*
Y0138D02*
Y01395D01*
Y01404*
Y0138D02*
Y01395D01*
Y01372D02*
Y0138D01*
Y01372D02*
Y0138D01*
X01825Y01342D02*
X0206D01*
X01772Y01372D02*
Y0138D01*
Y01341D02*
Y01348D01*
Y01356*
Y01341D02*
Y01348D01*
Y01411D02*
Y01419D01*
X01767Y01408D02*
X01772Y01413D01*
X01767Y0138D02*
X01772Y01385D01*
X01767Y01402D02*
X01772Y01397D01*
Y01419D02*
Y01443D01*
Y01419D02*
Y01443D01*
X01767Y0143D02*
X01772Y01425D01*
X01767Y01352D02*
X01772Y01357D01*
X01767Y01352D02*
X01772Y01357D01*
Y01332D02*
Y01341D01*
X01767Y01346D02*
X01772Y01341D01*
Y01356D02*
Y01372D01*
X01767Y01374D02*
X01772Y01369D01*
Y01356D02*
Y01372D01*
X01825Y01301D02*
X0206D01*
X01825Y0134D02*
X0206D01*
X01825Y01263D02*
X0206D01*
X01825Y01299D02*
X0206D01*
X01905Y01263D02*
X01916Y01253D01*
X01891D02*
X01901Y01263D01*
X01918Y01253D02*
X01929Y01263D01*
X0185D02*
X0186Y01253D01*
X01835D02*
X01845Y01263D01*
X01878D02*
X01888Y01253D01*
X01863Y01253D02*
X01873Y01263D01*
X01807Y01253D02*
X01816Y01262D01*
X01796D02*
X01805Y01253D01*
X01823Y01262D02*
X01833Y01253D01*
X01772Y01301D02*
Y01309D01*
Y01332*
Y01293D02*
Y01301D01*
X01767Y01296D02*
X01772Y01301D01*
Y01309D02*
Y01332D01*
X01767Y01324D02*
X01772Y01329D01*
X01767Y01318D02*
X01772Y01313D01*
X01779Y01253D02*
X01788Y01262D01*
X01767Y01263D02*
X01777Y01253D01*
X01772Y01262D02*
X01825D01*
X01687Y01253D02*
X02201Y01253D01*
X01772Y01293D02*
Y01301D01*
X01767Y0129D02*
X01772Y01286D01*
X01767Y01269D02*
X01772Y01273D01*
X01767Y01411D02*
Y01419D01*
Y01411D02*
Y01419D01*
Y01404D02*
Y01411D01*
Y01404D02*
Y01411D01*
Y01419D02*
Y01427D01*
Y01419D02*
Y01427D01*
Y01419D02*
Y01427D01*
Y01388D02*
Y01395D01*
Y01388D02*
Y01395D01*
Y01364D02*
Y01372D01*
Y01364D02*
Y01372D01*
Y01395D02*
Y01404D01*
Y01411*
Y01395D02*
Y01404D01*
X01677Y01419D02*
X01681Y01423D01*
X01677Y01427D02*
X01681Y01423D01*
X01767Y0138D02*
Y01388D01*
Y01395*
X01677Y01419D02*
Y01427D01*
X01676Y01396D02*
Y01418D01*
X01677Y01391D02*
Y01395D01*
X01767Y01356D02*
Y01364D01*
Y01372D02*
Y0138D01*
Y01356D02*
Y01364D01*
Y01356D02*
Y01364D01*
Y01372D02*
Y0138D01*
Y01388*
Y01372D02*
Y0138D01*
Y01325D02*
Y01332D01*
Y01325D02*
Y01332D01*
Y01301D02*
Y01317D01*
Y01325*
Y01341D02*
Y01356D01*
Y01341D02*
Y01356D01*
Y01332D02*
Y01341D01*
Y01278D02*
Y01293D01*
Y01301*
X01772Y01262D02*
Y01293D01*
X01767Y01278D02*
Y01293D01*
Y01301*
Y01317*
Y01293D02*
Y01301D01*
Y01262D02*
Y01278D01*
X0176Y01262D02*
X01767Y01269D01*
X01714Y01262D02*
X01767D01*
X01709Y01263D02*
X01714D01*
X01677Y01266D02*
X01684Y0126D01*
X01677Y01262D02*
Y01266D01*
X01705Y0126D02*
X01709Y01263D01*
X01723Y01253D02*
X01733Y01262D01*
X01711Y01263D02*
X01721Y01253D01*
X01751D02*
X0176Y01262D01*
X0174D02*
X01749Y01253D01*
X01695Y01253D02*
X01702Y0126D01*
X01687D02*
X01694Y01253D01*
X01684Y0126D02*
X01705D01*
G54D16*
X02061Y01502D02*
X02087D01*
X01799D02*
X01823D01*
X01823Y01502*
X01776Y01502D02*
X01799D01*
X02087D02*
X02115D01*
X01696Y01459D02*
X01701Y01455D01*
X01708*
X0171Y01453*
X01722*
X01724Y01455*
X0174*
X02188Y01518D02*
X02192Y01513D01*
X02145Y01518D02*
X02188D01*
X02115Y01502D02*
X02115Y01502D01*
X02063Y01455D02*
X02087D01*
X01799D02*
X01823D01*
X02089Y01407D02*
X02112D01*
X01799Y01407D02*
X02089D01*
Y01407*
X02161Y01266D02*
X02166Y01261D01*
X02172*
X02123Y01266D02*
X02161D01*
X02087Y01549D02*
X02116D01*
X02108Y01455D02*
D01*
X02087D02*
X02108D01*
X02123D02*
D01*
X02145*
X02123Y01329D02*
X02145D01*
X02087Y01344D02*
X02108D01*
X02087Y01266D02*
X02108D01*
X02067Y01344D02*
X02087D01*
X02063Y0134D02*
X02067Y01344D01*
X01819D02*
X01823Y0134D01*
X01799Y01344D02*
X01819D01*
X02062Y01549D02*
X02087D01*
X01799Y01266D02*
X01823D01*
X01774Y01344D02*
X01799D01*
X0174Y01329D02*
X01763D01*
X02061Y01266D02*
X02087D01*
X02062Y01297D02*
X02087D01*
X01799D02*
X01819D01*
X01778D02*
D01*
X01799*
X02108D02*
D01*
X02087D02*
X02108D01*
X02116Y01518D02*
X02145D01*
X01778Y01407D02*
X01799D01*
X0174Y01455D02*
X01799D01*
X0174Y01266D02*
X01799D01*
X01684Y01265D02*
X0174D01*
X0174Y01518D02*
X01765D01*
X01713Y01517D02*
X0174D01*
G54D17*
X02069Y01475D02*
X02074Y0147D01*
X01799D02*
X01812D01*
X01816Y01475*
X01799Y01486D02*
X01812D01*
X02074Y0147D02*
X02087D01*
X01816Y01475D02*
X02069D01*
X01816Y01482D02*
X02069D01*
X02074Y01486*
X01812D02*
X01816Y01482D01*
X02074Y01486D02*
X02087D01*
X02074Y01533D02*
X02087D01*
X02069Y01529D02*
X02074Y01533D01*
X01816Y01529D02*
X02069D01*
X02074Y01518D02*
X02087D01*
X02069Y01522D02*
X02074Y01518D01*
X01816Y01522D02*
X02069D01*
X01812Y01533D02*
X01816Y01529D01*
X01799Y01533D02*
X01812D01*
Y01518D02*
X01816Y01522D01*
X01799Y01518D02*
X01812D01*
X02074Y01439D02*
X02087D01*
X02069Y01434D02*
X02074Y01439D01*
X01816Y01434D02*
X02069D01*
X02074Y01423D02*
X02087D01*
X02069Y01427D02*
X02074Y01423D01*
X01816Y01427D02*
X02069D01*
X01812Y01439D02*
X01816Y01434D01*
X01799Y01439D02*
X01812D01*
Y01423D02*
X01816Y01427D01*
X01799Y01423D02*
X01812D01*
X02074Y01313D02*
X02087D01*
X02069Y01317D02*
X02074Y01313D01*
X01816Y01317D02*
X02069D01*
X02074Y01329D02*
X02087D01*
X02069Y01324D02*
X02074Y01329D01*
X01816Y01324D02*
X02069D01*
X01812Y01329D02*
X01816Y01324D01*
X01799Y01329D02*
X01812D01*
Y01313D02*
X01816Y01317D01*
X01799Y01313D02*
X01812D01*
G54D18*
X01679Y01358D02*
X0168Y01359D01*
X01679Y01326D02*
Y01358D01*
X01678Y01327D02*
X01679Y01326D01*
Y01299D02*
X0168Y01298D01*
X01679Y01299D02*
Y01326D01*
X01679Y01326D02*
X0168Y01325D01*
X0168Y01269D02*
X01684Y01265D01*
X0168Y01269D02*
Y01298D01*
X0168Y01391D02*
Y01423D01*
Y01359D02*
Y01391D01*
Y01423D02*
Y01465D01*
X02116Y01524D02*
X02116D01*
X02116D02*
X02116Y01524D01*
Y01549*
Y01518D02*
Y01524D01*
X01769Y01533D02*
Y01542D01*
X01769Y01531D02*
X0177Y01532D01*
X01765Y01518D02*
X01769Y01522D01*
X01769Y01533D02*
X0177Y01532D01*
X01769Y01522D02*
Y01531D01*
X01769Y01542D02*
X01776Y01549D01*
X01799*
X01823*
X02206Y01455D02*
Y01475D01*
X01684Y01517D02*
X01713D01*
X0168Y01513D02*
X01684Y01517D01*
X0168Y01473D02*
Y01513D01*
X01689Y01539D02*
Y01563D01*
X0171Y01486D02*
X0174D01*
X01695Y0147D02*
X0171Y01486D01*
X01683Y0147D02*
X01695D01*
X02145Y01486D02*
X02195D01*
X02122D02*
X02145D01*
X02115Y01502D02*
Y01517D01*
X02112Y01407D02*
X02115Y01411D01*
X02145Y01313D02*
Y01313D01*
X02172*
X02172Y01261D02*
X02197D01*
X01763Y01329D02*
X01763Y01329D01*
X02059Y01263D02*
X02061Y01266D01*
X02145Y01455D02*
X02202D01*
X02115Y01517D02*
X02116Y01518D01*
X02087Y0136D02*
D01*
X01799D02*
X02087D01*
X0168Y01473D02*
X01683Y0147D01*
X02195Y01486D02*
X02206Y01475D01*
X01712Y01539D02*
Y01563D01*
X02145Y01455D02*
D01*
X0174Y01596D02*
X01799D01*
X0174Y01265D02*
X0174Y01266D01*
X01799Y0136D02*
D01*
X02087Y01376D02*
D01*
X01799D02*
X02087D01*
Y01392D02*
D01*
X01799D02*
X02087D01*
X01712Y01586D02*
X01713Y01585D01*
Y0157D02*
X01717Y01566D01*
X01689Y01586D02*
X01712D01*
X01713Y0157D02*
Y01585D01*
X0174Y01566D02*
X0174Y01565D01*
X01717Y01566D02*
X0174D01*
X0174Y01517D02*
X0174Y01518D01*
G54D19*
X01695Y01281D02*
X0174D01*
X0174Y01297D02*
X0174Y01297D01*
X01711Y01297D02*
X0174D01*
X0171Y01296D02*
X01711Y01297D01*
X01697Y01502D02*
X0174D01*
X0174Y01502*
X01697Y01503D02*
X01697Y01502D01*
X01695Y01313D02*
X0174D01*
X0171Y01328D02*
X01712Y01329D01*
Y01335*
X01695Y01313D02*
X01695Y01313D01*
X01695Y01376D02*
X0174D01*
X01694Y01342D02*
X01712Y0136D01*
X01695Y01376D02*
Y01376D01*
X01694Y01342D02*
X01694D01*
X0219Y0135D02*
X02192D01*
X0218Y0136D02*
X0219Y0135D01*
X02145Y0136D02*
X0218D01*
X01823Y01266D02*
X01824Y01265D01*
X02146Y0128D02*
X02174D01*
X02145Y01297D02*
X02146Y01298D01*
X02188*
X02174Y0128D02*
X02176Y01279D01*
X02145Y01281D02*
X02146Y0128D01*
X02162Y01343D02*
X02171Y01334D01*
X02173*
X01717Y01469D02*
X01739D01*
X0174Y0147*
X01716Y01468D02*
X01717Y01469D01*
X02168Y01377D02*
X02169Y01378D01*
X02171Y01408D02*
X02172Y01408D01*
X02146Y01392D02*
X02188D01*
X02145Y01423D02*
X02187D01*
X02172Y01439D02*
X02172Y01439D01*
X02145Y0147D02*
X02172D01*
X02145Y01502D02*
X02173D01*
X02188Y01392D02*
X02189Y01393D01*
X02146Y01343D02*
X02162D01*
X01721Y01344D02*
X0174D01*
X01712Y01335D02*
X01721Y01344D01*
X01712Y0136D02*
X0174D01*
X0174Y01344D02*
X0174Y01344D01*
X02145Y01344D02*
X02146Y01343D01*
X02145Y01407D02*
X02145Y01408D01*
X02171*
X02145Y01391D02*
X02146Y01392D01*
Y01377D02*
X02168D01*
X02145Y01376D02*
X02146Y01377D01*
X01713Y01423D02*
X01713Y01423D01*
X0174*
X02145Y01439D02*
X02172D01*
X01698Y01439D02*
X0174D01*
X02145Y01439D02*
Y01439D01*
X0174Y01376D02*
X0174Y01376D01*
X01713Y01391D02*
X01713Y01391D01*
X0174D02*
X0174Y01392D01*
X01713Y01391D02*
X0174D01*
X01698Y01407D02*
X0174D01*
X0174Y01439D02*
X0174Y01439D01*
X0174Y01423D02*
X0174D01*
X01698Y01407D02*
X01698Y01407D01*
X0174Y01313D02*
X0174Y01313D01*
X01799Y01281D02*
X02087D01*
X02145Y0147D02*
X02145Y0147D01*
X0174Y01407D02*
X0174Y01407D01*
G54D20*
X02202Y01452D02*
X02206Y01449D01*
X02197Y01261D02*
X02206Y01269D01*
Y01449*
X02202Y01452D02*
Y01455D01*
G54D21*
X01678Y01327D03*
X0168Y01297D03*
X01681Y01423D03*
X0168Y01391D03*
X02206Y01408D03*
X02202Y01373D03*
X0168Y01359D03*
X01691Y01255D03*
X02199Y01324D03*
X02202Y01499D03*
Y01475D03*
X02116Y01452D03*
Y01478D03*
Y01524D03*
X0177Y01532D03*
X01769Y01439D03*
X02051Y01454D03*
X02031D03*
X02011D03*
X01992D03*
X01972D03*
X01952D03*
X01933D03*
X01913D03*
X01893D03*
X01874D03*
X01854D03*
X01834D03*
X02117Y01325D03*
X0177Y01324D03*
X01769Y01469D03*
X01695Y01281D03*
X0171Y01296D03*
X01697Y01503D03*
X01689Y01539D03*
X01695Y01313D03*
X01694Y01342D03*
X0171Y01328D03*
X01695Y01376D03*
X02192Y0135D03*
X02172Y01313D03*
X02188Y01298D03*
X02176Y01279D03*
X02173Y01334D03*
X02197Y01261D03*
X01716Y01468D03*
X02169Y01378D03*
X02172Y01408D03*
X02187Y01423D03*
X02172Y01439D03*
X02172Y0147D03*
X02173Y01502D03*
X02189Y01393D03*
X01713Y01423D03*
X01712Y01539D03*
X01683Y0147D03*
X01698Y01439D03*
X01713Y01391D03*
X01698Y01407D03*
X02202Y01455D03*
X02175Y01586D03*
Y01563D03*
X02198D03*
Y01586D03*
X02175Y01539D03*
X02198D03*
X01712Y01563D03*
X01689D03*
Y01586D03*
X01712D03*
M02*