%FSTAX23Y23*%
%MOIN*%
%SFA1B1*%

%IPPOS*%
%ADD12C,0.006000*%
%ADD19C,0.005900*%
%LNright_flex-1*%
%LPD*%
G54D12*
X01906Y01253D02*
X01871D01*
X01906D02*
Y01268D01*
X01905Y01273*
X01903Y01275*
X019Y01276*
X01896*
X01893Y01275*
X01891Y01273*
X0189Y01268*
Y01253*
Y01264D02*
X01871Y01276D01*
X01906Y01284D02*
X01871D01*
X01898Y01317D02*
X01901Y01315D01*
X01905Y01312*
X01906Y01308*
Y01302*
X01905Y01298*
X01901Y01295*
X01898Y01293*
X01893Y01292*
X01885*
X01879Y01293*
X01876Y01295*
X01873Y01298*
X01871Y01302*
Y01308*
X01873Y01312*
X01876Y01315*
X01879Y01317*
X01885*
Y01308D02*
Y01317D01*
X01906Y01325D02*
X01871D01*
X01906Y01349D02*
X01871D01*
X0189Y01325D02*
Y01349D01*
X01906Y0137D02*
X01871D01*
X01906Y01358D02*
Y01382D01*
Y01414D02*
X01871D01*
X01906D02*
Y01429D01*
X01905Y01434*
X01903Y01436*
X019Y01438*
X01896*
X01893Y01436*
X01891Y01434*
X0189Y01429*
Y01414D02*
Y01429D01*
X01888Y01434*
X01886Y01436*
X01883Y01438*
X01878*
X01874Y01436*
X01873Y01434*
X01871Y01429*
Y01414*
X01906Y01456D02*
X01905Y01452D01*
X01901Y01449*
X01898Y01447*
X01893Y01446*
X01885*
X01879Y01447*
X01876Y01449*
X01873Y01452*
X01871Y01456*
Y01462*
X01873Y01466*
X01876Y01469*
X01879Y01471*
X01885Y01473*
X01893*
X01898Y01471*
X01901Y01469*
X01905Y01466*
X01906Y01462*
Y01456*
X01871Y01508D02*
X01906Y01494D01*
X01871Y01481*
X01883Y01486D02*
Y01503D01*
X01906Y01516D02*
X01871D01*
X01906D02*
Y01531D01*
X01905Y01536*
X01903Y01538*
X019Y0154*
X01896*
X01893Y01538*
X01891Y01536*
X0189Y01531*
Y01516*
Y01528D02*
X01871Y0154D01*
X01906Y01548D02*
X01871D01*
X01906D02*
Y01559D01*
X01905Y01565*
X01901Y01568*
X01898Y0157*
X01893Y01571*
X01885*
X01879Y0157*
X01876Y01568*
X01873Y01565*
X01871Y01559*
Y01548*
X02015Y01266D02*
X01979D01*
X02015D02*
X01979Y0128D01*
X02015Y01293D02*
X01979Y0128D01*
X02015Y01293D02*
X01979D01*
Y01331D02*
X02015Y01317D01*
X01979Y01304*
X01991Y01309D02*
Y01325D01*
X02015Y01339D02*
X01979D01*
X02015Y01346D02*
X01979D01*
X02015D02*
X01979Y0137D01*
X02015D02*
X01979D01*
X02015Y01407D02*
X01979D01*
X02015D02*
Y01423D01*
X02013Y01428*
X02011Y01429*
X02008Y01431*
X02005*
X02001Y01429*
X01999Y01428*
X01998Y01423*
Y01407D02*
Y01423D01*
X01996Y01428*
X01994Y01429*
X01991Y01431*
X01986*
X01983Y01429*
X01981Y01428*
X01979Y01423*
Y01407*
X02015Y01449D02*
X02013Y01446D01*
X0201Y01442*
X02006Y01441*
X02001Y01439*
X01993*
X01988Y01441*
X01984Y01442*
X01981Y01446*
X01979Y01449*
Y01456*
X01981Y01459*
X01984Y01463*
X01988Y01464*
X01993Y01466*
X02001*
X02006Y01464*
X0201Y01463*
X02013Y01459*
X02015Y01456*
Y01449*
X01979Y01501D02*
X02015Y01488D01*
X01979Y01474*
X01991Y01479D02*
Y01496D01*
X02015Y01509D02*
X01979D01*
X02015D02*
Y01525D01*
X02013Y0153*
X02011Y01531*
X02008Y01533*
X02005*
X02001Y01531*
X01999Y0153*
X01998Y01525*
Y01509*
Y01521D02*
X01979Y01533D01*
X02015Y01541D02*
X01979D01*
X02015D02*
Y01553D01*
X02013Y01558*
X0201Y01561*
X02006Y01563*
X02001Y01565*
X01993*
X01988Y01563*
X01984Y01561*
X01981Y01558*
X01979Y01553*
Y01541*
G54D19*
X01991Y01579D02*
X02009Y01589D01*
X01991Y01598*
X01895Y01587D02*
X01876Y01596D01*
X01895Y01605*
M02*