%FSTAX23Y23*%
%MOIN*%
%SFA1B1*%

%IPPOS*%
%ADD13R,0.023600X0.009100*%
%LNright_flex-1*%
%LPD*%
G54D13*
X01799Y01266D03*
X0174D03*
X01799Y01596D03*
X0174D03*
X01799Y01281D03*
X0174D03*
X01799Y01297D03*
X0174D03*
Y01313D03*
Y01329D03*
X01799Y01344D03*
X0174D03*
X01799Y0136D03*
X0174D03*
X01799Y01376D03*
X0174D03*
X01799Y01392D03*
X0174D03*
X01799Y01407D03*
X0174D03*
Y01423D03*
Y01439D03*
X01799Y01455D03*
X0174D03*
X01799Y0147D03*
X0174D03*
X01799Y01486D03*
X0174D03*
X01799Y01502D03*
X0174D03*
Y01518D03*
Y01533D03*
X01799Y01549D03*
X0174D03*
X01799Y01565D03*
X0174D03*
X01799Y01581D03*
X0174D03*
X01799Y01439D03*
Y01423D03*
Y01533D03*
Y01518D03*
Y01329D03*
Y01313D03*
X02087Y01581D03*
X02145D03*
X02087Y01565D03*
X02145D03*
X02087Y01549D03*
X02145D03*
X02087Y01533D03*
X02145D03*
X02087Y01518D03*
X02145D03*
X02087Y01502D03*
X02145D03*
X02087Y01486D03*
X02145D03*
X02087Y0147D03*
X02145D03*
X02087Y01455D03*
X02145D03*
X02087Y01439D03*
X02145D03*
X02087Y01423D03*
X02145D03*
X02087Y01407D03*
X02145D03*
X02087Y01392D03*
X02145D03*
X02087Y01376D03*
X02145D03*
X02087Y0136D03*
X02145D03*
X02087Y01344D03*
X02145D03*
X02087Y01329D03*
X02145D03*
X02087Y01313D03*
X02145D03*
X02087Y01297D03*
X02145D03*
X02087Y01281D03*
X02145D03*
X02087Y01596D03*
X02145D03*
X02087Y01266D03*
X02145D03*
M02*