%FSTAX23Y23*%
%MOIN*%
%SFA1B1*%

%IPPOS*%
%ADD10C,0.003900*%
%ADD11C,0.007900*%
%ADD12C,0.006000*%
%LNright_flex-1*%
%LPD*%
G54D10*
X0171Y01581D02*
D01*
X0171Y0158*
X0171Y0158*
X0171Y0158*
X0171Y0158*
X01711Y0158*
X01711Y0158*
X01711Y0158*
X01711Y01579*
X01711Y01579*
X01711Y01579*
X01711Y01579*
X01711Y01579*
X01711Y01579*
X01711Y01579*
X01711Y01579*
X01712Y01579*
X01712Y01579*
X01712Y01579*
X01712Y01579*
X01712Y01579*
X01712Y01579*
X01712Y01579*
X01712*
X01713Y01579*
X01713Y01579*
X01713Y01579*
X01713Y01579*
X01713Y01579*
X01713Y01579*
X01713Y01579*
X01714Y01579*
X01714Y01579*
X01714Y01579*
X01714Y01579*
X01714Y01579*
X01714Y01579*
X01714Y01579*
X01714Y0158*
X01714Y0158*
X01714Y0158*
X01714Y0158*
X01714Y0158*
X01714Y0158*
X01714Y0158*
X01714Y01581*
D01*
X01714Y01581*
X01714Y01581*
X01714Y01581*
X01714Y01581*
X01714Y01581*
X01714Y01581*
X01714Y01581*
X01714Y01582*
X01714Y01582*
X01714Y01582*
X01714Y01582*
X01714Y01582*
X01714Y01582*
X01714Y01582*
X01713Y01582*
X01713Y01582*
X01713Y01582*
X01713Y01582*
X01713Y01582*
X01713Y01582*
X01713Y01582*
X01712Y01582*
X01712*
X01712Y01582*
X01712Y01582*
X01712Y01582*
X01712Y01582*
X01712Y01582*
X01712Y01582*
X01711Y01582*
X01711Y01582*
X01711Y01582*
X01711Y01582*
X01711Y01582*
X01711Y01582*
X01711Y01582*
X01711Y01582*
X01711Y01581*
X01711Y01581*
X01711Y01581*
X0171Y01581*
X0171Y01581*
X0171Y01581*
X0171Y01581*
X0171Y01581*
X02061D02*
D01*
X02061Y01581*
X02061Y01581*
X02061Y01581*
X02061Y01581*
X0206Y01581*
X0206Y01581*
X0206Y01581*
X0206Y01582*
X0206Y01582*
X0206Y01582*
X0206Y01582*
X0206Y01582*
X0206Y01582*
X0206Y01582*
X0206Y01582*
X02059Y01582*
X02059Y01582*
X02059Y01582*
X02059Y01582*
X02059Y01582*
X02059Y01582*
X02059Y01582*
X02059*
X02058Y01582*
X02058Y01582*
X02058Y01582*
X02058Y01582*
X02058Y01582*
X02058Y01582*
X02058Y01582*
X02057Y01582*
X02057Y01582*
X02057Y01582*
X02057Y01582*
X02057Y01582*
X02057Y01582*
X02057Y01582*
X02057Y01581*
X02057Y01581*
X02057Y01581*
X02057Y01581*
X02057Y01581*
X02057Y01581*
X02057Y01581*
X02057Y01581*
D01*
X02057Y0158*
X02057Y0158*
X02057Y0158*
X02057Y0158*
X02057Y0158*
X02057Y0158*
X02057Y0158*
X02057Y01579*
X02057Y01579*
X02057Y01579*
X02057Y01579*
X02057Y01579*
X02057Y01579*
X02058Y01579*
X02058Y01579*
X02058Y01579*
X02058Y01579*
X02058Y01579*
X02058Y01579*
X02058Y01579*
X02058Y01579*
X02059Y01579*
X02059*
X02059Y01579*
X02059Y01579*
X02059Y01579*
X02059Y01579*
X02059Y01579*
X0206Y01579*
X0206Y01579*
X0206Y01579*
X0206Y01579*
X0206Y01579*
X0206Y01579*
X0206Y01579*
X0206Y01579*
X0206Y01579*
X0206Y0158*
X02061Y0158*
X02061Y0158*
X02061Y0158*
X02061Y0158*
X02061Y0158*
X02061Y0158*
X02061Y01581*
G54D11*
X01754Y01616D02*
X01785D01*
X01754Y01246D02*
X01785D01*
X021D02*
X02132D01*
X021Y01616D02*
X02132D01*
G54D12*
X02023Y0126D02*
X0205D01*
X02023D02*
X0205Y0127D01*
X02023Y01281D02*
X0205Y0127D01*
X02023Y01281D02*
X0205D01*
Y0131D02*
X02023Y01299D01*
X0205Y01289*
X02041Y01293D02*
Y01306D01*
X02023Y01316D02*
X0205D01*
X02023Y01322D02*
X0205D01*
X02023D02*
X0205Y0134D01*
X02023D02*
X0205D01*
X02059Y01348D02*
Y01369D01*
X02023Y01373D02*
X0205D01*
X02023D02*
Y01384D01*
X02024Y01388*
X02025Y0139*
X02028Y01391*
X0203*
X02033Y0139*
X02034Y01388*
X02036Y01384*
Y01373D02*
Y01384D01*
X02037Y01388*
X02038Y0139*
X02041Y01391*
X02045*
X02047Y0139*
X02049Y01388*
X0205Y01384*
Y01373*
X02023Y01397D02*
X0205D01*
X02023D02*
Y01409D01*
X02024Y01413*
X02025Y01414*
X02028Y01415*
X0203*
X02033Y01414*
X02034Y01413*
X02036Y01409*
Y01397*
Y01406D02*
X0205Y01415D01*
X02023Y01422D02*
X0205D01*
X02023D02*
Y01431D01*
X02024Y01435*
X02026Y01437*
X02029Y01439*
X02033Y0144*
X0204*
X02044Y01439*
X02046Y01437*
X02049Y01435*
X0205Y01431*
Y01422*
X01862Y01398D02*
X01835D01*
X01862D02*
Y01387D01*
X01861Y01383*
X0186Y01381*
X01857Y0138*
X01855*
X01852Y01381*
X01851Y01383*
X01849Y01387*
Y01398*
Y01389D02*
X01835Y0138D01*
X01862Y01365D02*
X01835D01*
X01862Y01374D02*
Y01355D01*
X01826Y01352D02*
Y01331D01*
X01862Y01328D02*
X01835D01*
X01862D02*
Y01316D01*
X01861Y01312*
X0186Y01311*
X01857Y01309*
X01855*
X01852Y01311*
X01851Y01312*
X01849Y01316*
Y01328D02*
Y01316D01*
X01848Y01312*
X01847Y01311*
X01844Y01309*
X0184*
X01837Y01311*
X01836Y01312*
X01835Y01316*
Y01328*
X01862Y01303D02*
X01835D01*
X01862D02*
Y01291D01*
X01861Y01287*
X0186Y01286*
X01857Y01285*
X01855*
X01852Y01286*
X01851Y01287*
X01849Y01291*
Y01303*
Y01294D02*
X01835Y01285D01*
X01862Y01279D02*
X01835D01*
X01862D02*
Y01269D01*
X01861Y01265*
X01858Y01263*
X01856Y01262*
X01852Y0126*
X01845*
X01841Y01262*
X01839Y01263*
X01836Y01265*
X01835Y01269*
Y01279*
M02*